<svg width="56" height="48" viewBox="0 0 56 48" fill="none" xmlns="http://www.w3.org/2000/svg">
<g clip-path="url(#clip0_2585_22238)">
<path d="M28.3332 19.5555C33.2424 19.5555 37.2221 15.5759 37.2221 10.6667C37.2221 5.75746 33.2424 1.77777 28.3332 1.77777C23.424 1.77777 19.4443 5.75746 19.4443 10.6667C19.4443 15.5759 23.424 19.5555 28.3332 19.5555Z" stroke="#8B8682" stroke-width="4"/>
<path d="M46.1046 37.3333C46.1112 36.9689 46.1112 36.5978 46.1112 36.2222C46.1112 30.7 38.1512 26.2222 28.3334 26.2222C18.5157 26.2222 10.5557 30.7 10.5557 36.2222C10.5557 41.7445 10.5557 46.2222 28.3334 46.2222C33.2912 46.2222 36.8668 45.8733 39.4446 45.2511" stroke="#8B8682" stroke-width="4" stroke-linecap="round"/>
</g>
<rect x="30.9602" y="30.96" width="16.32" height="16.32" rx="8.16" fill="#51C61A"/>
<path d="M43.2 37.9653V40.19H35.04V37.9653H43.2ZM40.4201 35.04V43.2H37.8445V35.04H40.4201Z" fill="#2C2520"/>
<rect x="30.9602" y="30.96" width="16.32" height="16.32" rx="8.16" stroke="#2C2520" stroke-width="1.44"/>
<defs>
<clipPath id="clip0_2585_22238">
<rect width="42.6667" height="48" fill="white" transform="translate(7)"/>
</clipPath>
</defs>
</svg>
