<svg width="20" height="17" viewBox="0 0 20 17" fill="none" xmlns="http://www.w3.org/2000/svg">
<g clip-path="url(#clip0_4041_7739)">
<path d="M9.48515 16.2096C9.29153 16.016 9.19014 15.7695 9.18099 15.4703C9.17254 15.1711 9.26512 14.9246 9.45874 14.731L14.6337 9.55611H2.83168C2.53245 9.55611 2.28145 9.45472 2.07868 9.25195C1.87661 9.04988 1.77557 8.79923 1.77557 8.5C1.77557 8.20077 1.87661 7.94977 2.07868 7.747C2.28145 7.54493 2.53245 7.44389 2.83168 7.44389H14.6337L9.45874 2.26898C9.26512 2.07536 9.17254 1.82893 9.18099 1.5297C9.19014 1.23047 9.29153 0.984048 9.48515 0.790429C9.67876 0.596809 9.92519 0.5 10.2244 0.5C10.5236 0.5 10.7701 0.596809 10.9637 0.790429L17.934 7.76073C18.0396 7.84873 18.1146 7.95857 18.1589 8.09023C18.2026 8.2226 18.2244 8.35919 18.2244 8.5C18.2244 8.64081 18.2026 8.77283 18.1589 8.89604C18.1146 9.01925 18.0396 9.13366 17.934 9.23927L10.9637 16.2096C10.7701 16.4032 10.5236 16.5 10.2244 16.5C9.92519 16.5 9.67876 16.4032 9.48515 16.2096Z" fill="url(#paint0_linear_4041_7739)"/>
</g>
<defs>
<linearGradient id="paint0_linear_4041_7739" x1="1.80696" y1="8.5" x2="18.2558" y2="8.5" gradientUnits="userSpaceOnUse">
<stop stop-color="#E9B873"/>
<stop offset="0.369792" stop-color="#FEDD8F"/>
<stop offset="1" stop-color="#B78D51"/>
</linearGradient>
<clipPath id="clip0_4041_7739">
<rect width="20" height="16" fill="white" transform="translate(0 0.5)"/>
</clipPath>
</defs>
</svg>
