<svg width="26" height="21" viewBox="0 0 26 21" fill="none" xmlns="http://www.w3.org/2000/svg">
<g clip-path="url(#clip0_5194_20857)">
<path d="M13.6443 0.863038C13.8863 1.10506 14.013 1.41309 14.0245 1.78713C14.035 2.16117 13.9193 2.4692 13.6773 2.71122L7.20864 9.17987L21.9611 9.17987C22.3352 9.17987 22.6489 9.3066 22.9024 9.56007C23.155 9.81265 23.2812 10.126 23.2812 10.5C23.2812 10.874 23.155 11.1878 22.9024 11.4413C22.6489 11.6938 22.3352 11.8201 21.9611 11.8201L7.20864 11.8201L13.6773 18.2888C13.9193 18.5308 14.035 18.8388 14.0245 19.2129C14.013 19.5869 13.8863 19.8949 13.6443 20.137C13.4023 20.379 13.0942 20.5 12.7202 20.5C12.3462 20.5 12.0381 20.379 11.7961 20.137L3.08323 11.4241C2.95122 11.3141 2.85749 11.1768 2.80204 11.0122C2.74748 10.8468 2.72019 10.676 2.72019 10.5C2.72019 10.324 2.74748 10.159 2.80204 10.005C2.85749 9.85094 2.95122 9.70792 3.08323 9.57591L11.7961 0.863039C12.0381 0.621014 12.3462 0.5 12.7202 0.5C13.0942 0.5 13.4023 0.621014 13.6443 0.863038V0.863038Z" fill="#8B8682"/>
</g>
<defs>
<clipPath id="clip0_5194_20857">
<rect width="25" height="20" fill="white" transform="translate(0.5 0.5)"/>
</clipPath>
</defs>
</svg>
