<svg width="26" height="21" viewBox="0 0 26 21" fill="none" xmlns="http://www.w3.org/2000/svg">
<g clip-path="url(#clip0_4041_7759)">
<path d="M13.6436 0.863038C13.8856 1.10506 14.0123 1.41309 14.0238 1.78713C14.0343 2.16117 13.9186 2.4692 13.6766 2.71122L7.20791 9.17987L21.9604 9.17987C22.3344 9.17987 22.6482 9.3066 22.9016 9.56007C23.1542 9.81265 23.2805 10.126 23.2805 10.5C23.2805 10.874 23.1542 11.1878 22.9016 11.4413C22.6482 11.6938 22.3344 11.8201 21.9604 11.8201L7.20791 11.8201L13.6766 18.2888C13.9186 18.5308 14.0343 18.8388 14.0238 19.2129C14.0123 19.5869 13.8856 19.8949 13.6436 20.137C13.4015 20.379 13.0935 20.5 12.7195 20.5C12.3454 20.5 12.0374 20.379 11.7954 20.137L3.0825 11.4241C2.95049 11.3141 2.85676 11.1768 2.80131 11.0122C2.74675 10.8468 2.71946 10.676 2.71946 10.5C2.71946 10.324 2.74675 10.159 2.80131 10.005C2.85676 9.85094 2.95049 9.70792 3.0825 9.57591L11.7954 0.863038C12.0374 0.621015 12.3454 0.500001 12.7195 0.500001C13.0935 0.500001 13.4015 0.621015 13.6436 0.863038Z" fill="black"/>
</g>
<defs>
<clipPath id="clip0_4041_7759">
<rect width="25" height="20" fill="white" transform="translate(0.5 0.5)"/>
</clipPath>
</defs>
</svg>
