<svg width="500" height="607" viewBox="0 0 500 607" fill="none" xmlns="http://www.w3.org/2000/svg">
<path d="M172.159 300.73L181.002 220.713L204.674 233.751L195.83 315.031L89.9971 375.1L116.534 130.587L285.355 220.839L285.822 221.088L286.289 220.823L333.741 193.89L335.372 192.964L333.737 192.102L216.409 130.286L215.077 129.584L214.963 131.129L213.085 156.578L189.363 143.824L193.447 86.2605L388.096 190.279L284.048 249.335L140.41 172.694L139.123 172.008L138.962 173.5L122.366 327.198L122.161 329.098L123.807 328.181L171.639 301.521L172.1 301.263L172.159 300.73Z" stroke="#39322C" stroke-width="2"/>
<path d="M295.671 470.602L296.969 471.265L297.105 469.771L312.333 302.96L416.381 243.904L395.875 470.041L346.939 442.572L349.376 414.97L371.05 427.052L372.365 427.785L372.514 426.243L385.59 290.411L385.772 288.518L384.141 289.443L336.689 316.377L336.222 316.642L336.173 317.184L318.416 513.333L105.597 404.676L211.43 344.607L282.187 380.706L280.007 408.417L210.277 372.997L209.812 372.761L209.354 373.026L161.919 400.438L160.286 401.381L161.94 402.226L295.671 470.602Z" stroke="#39322C" stroke-width="2"/>
</svg>
