<svg width="16" height="20" viewBox="0 0 16 20" fill="none" xmlns="http://www.w3.org/2000/svg">
<path id="Vector" d="M15.5 16L11.5 12L11.5 15L4.5 15C3.4 15 2.5 14.1 2.5 13C2.5 11.9 3.4 11 4.5 11L11.5 11C13.71 11 15.5 9.21 15.5 7C15.5 4.79 13.71 3 11.5 3L4.5 3L4.5 -4.80825e-07L0.499998 4L4.5 8L4.5 5L11.5 5C12.6 5 13.5 5.9 13.5 7C13.5 8.1 12.6 9 11.5 9L4.5 9C2.29 9 0.499998 10.79 0.499998 13C0.499997 15.21 2.29 17 4.5 17L11.5 17L11.5 20L15.5 16Z" fill="url(#paint0_linear_3386_210)"/>
<defs>
<linearGradient id="paint0_linear_3386_210" x1="4.15384" y1="0.334928" x2="4.15384" y2="20" gradientUnits="userSpaceOnUse">
<stop stop-color="#A2ADB3"/>
<stop offset="0.348958" stop-color="#F3F1F2"/>
<stop offset="0.65625" stop-color="#BCC3C9"/>
<stop offset="1" stop-color="#DCDFE4"/>
</linearGradient>
</defs>
</svg>
