<svg width="18" height="12" viewBox="0 0 18 12" fill="none" xmlns="http://www.w3.org/2000/svg">
<g clip-path="url(#clip0_1_2300)">
<path fill-rule="evenodd" clip-rule="evenodd" d="M3.22875 5.71875L5.445 7.935C5.5279 8.01224 5.59439 8.10539 5.6405 8.20889C5.68662 8.31239 5.71142 8.42412 5.71342 8.53741C5.71541 8.6507 5.69457 8.76323 5.65214 8.8683C5.6097 8.97336 5.54654 9.06879 5.46642 9.14892C5.3863 9.22904 5.29086 9.2922 5.1858 9.33464C5.08074 9.37707 4.9682 9.39791 4.85491 9.39591C4.74162 9.39392 4.62989 9.36912 4.52639 9.323C4.4229 9.27689 4.32974 9.21039 4.2525 9.1275L0.59625 5.47125L0 4.875L0.59625 4.27875L4.2525 0.622499C4.41245 0.473459 4.624 0.39232 4.84259 0.396177C5.06118 0.400034 5.26973 0.488585 5.42432 0.643174C5.57891 0.797764 5.66747 1.00632 5.67132 1.22491C5.67518 1.4435 5.59404 1.65505 5.445 1.815L3.22875 4.03125H14.3438C15.3134 4.03125 16.2434 4.41646 16.9291 5.10214C17.6148 5.78782 18 6.7178 18 7.6875C18 8.6572 17.6148 9.58718 16.9291 10.2729C16.2434 10.9585 15.3134 11.3437 14.3438 11.3437H12.0938C11.87 11.3437 11.6554 11.2549 11.4971 11.0966C11.3389 10.9384 11.25 10.7238 11.25 10.5C11.25 10.2762 11.3389 10.0616 11.4971 9.90338C11.6554 9.74514 11.87 9.65625 12.0938 9.65625H14.3438C14.8659 9.65625 15.3667 9.44883 15.7359 9.07961C16.1051 8.7104 16.3125 8.20964 16.3125 7.6875C16.3125 7.16535 16.1051 6.66459 15.7359 6.29538C15.3667 5.92617 14.8659 5.71875 14.3438 5.71875H3.22875Z" fill="url(#paint0_linear_1_2300)"/>
</g>
<defs>
<linearGradient id="paint0_linear_1_2300" x1="0.0343513" y1="5.8699" x2="18.0344" y2="5.8699" gradientUnits="userSpaceOnUse">
<stop stop-color="#E9B873"/>
<stop offset="0.369792" stop-color="#FEDD8F"/>
<stop offset="1" stop-color="#B78D51"/>
</linearGradient>
<clipPath id="clip0_1_2300">
<rect width="18" height="12" fill="white"/>
</clipPath>
</defs>
</svg>
