<svg width="40" height="40" viewBox="0 0 40 40" fill="none" xmlns="http://www.w3.org/2000/svg">
<g id="ph:clock-thin" clip-path="url(#clip0_385_26595)">
<path id="Vector" d="M20 0C16.0444 0 12.1776 1.17298 8.8886 3.37061C5.59962 5.56823 3.03617 8.69181 1.52242 12.3463C0.00866537 16.0009 -0.387401 20.0222 0.384303 23.9018C1.15601 27.7814 3.06082 31.3451 5.85787 34.1421C8.65492 36.9392 12.2186 38.844 16.0982 39.6157C19.9778 40.3874 23.9991 39.9913 27.6537 38.4776C31.3082 36.9638 34.4318 34.4004 36.6294 31.1114C38.827 27.8224 40 23.9556 40 20C39.9942 14.6975 37.8852 9.61376 34.1357 5.86429C30.3862 2.11483 25.3025 0.00582319 20 0ZM20 38.4C16.3608 38.4 12.8034 37.3209 9.77751 35.299C6.75165 33.2772 4.39328 30.4035 3.00062 27.0414C1.60797 23.6792 1.24359 19.9796 1.95356 16.4103C2.66353 12.8411 4.41596 9.56252 6.98924 6.98923C9.56253 4.41595 12.8411 2.66352 16.4103 1.95355C19.9796 1.24358 23.6792 1.60796 27.0414 3.00062C30.4035 4.39327 33.2772 6.75164 35.299 9.7775C37.3209 12.8034 38.4 16.3608 38.4 20C38.3947 24.8784 36.4544 29.5554 33.0049 33.0049C29.5554 36.4544 24.8784 38.3947 20 38.4ZM32 20C32 20.2122 31.9157 20.4157 31.7657 20.5657C31.6157 20.7157 31.4122 20.8 31.2 20.8H20C19.7878 20.8 19.5843 20.7157 19.4343 20.5657C19.2843 20.4157 19.2 20.2122 19.2 20V8.8C19.2 8.58782 19.2843 8.38434 19.4343 8.23431C19.5843 8.08428 19.7878 8 20 8C20.2122 8 20.4157 8.08428 20.5657 8.23431C20.7157 8.38434 20.8 8.58782 20.8 8.8V19.2H31.2C31.4122 19.2 31.6157 19.2843 31.7657 19.4343C31.9157 19.5843 32 19.7878 32 20Z" fill="#413830"/>
</g>
<defs>
<clipPath id="clip0_385_26595">
<rect width="40" height="40" fill="white"/>
</clipPath>
</defs>
</svg>