<svg width="16" height="16" viewBox="0 0 16 16" fill="none" xmlns="http://www.w3.org/2000/svg">
<g clip-path="url(#clip0_567_3331)">
<path d="M11.0827 9.27999L12.894 11.0907L7.992 15.9927L3.09067 11.0913L4.902 9.27999L7.99267 12.3867L11.0827 9.27999ZM14.174 6.18932L16 7.99999L14.19 9.81065L12.3787 7.99999L14.174 6.18932ZM7.99267 6.18932L9.80333 7.98399L7.992 9.79532L6.18133 7.99999L7.992 6.18999L7.99267 6.18932ZM1.81067 6.18932L3.60667 7.99999L1.812 9.79465L0 7.99999L1.81067 6.18932ZM7.99333 0.00665283L12.8947 4.89332L11.0833 6.70332L7.99267 3.61265L4.90267 6.71932L3.09133 4.90865L7.99267 0.0073195L7.99333 0.00665283Z" fill="#FFC700"/>
</g>
<defs>
<clipPath id="clip0_567_3331">
<rect width="16" height="16" fill="white"/>
</clipPath>
</defs>
</svg>
