<svg
        width="26"
        height="32"
        viewBox="0 0 26 32"
        fill="none"
        xmlns="http://www.w3.org/2000/svg"
>
    <path
            id="Vector"
            d="M25.0311 12.8513C25.5246 9.49537 22.978 7.67921 19.4641 6.47502L20.6091 1.91487L17.8454 1.22394L16.7399 5.66564C16.0095 5.48797 15.2593 5.3103 14.5092 5.15238L15.6147 0.690931L12.8509 0L11.7257 4.54041C11.1137 4.40222 10.5215 4.26403 9.94901 4.12585V4.10611L6.11928 3.15854L5.38887 6.11968C5.38887 6.11968 7.44192 6.59346 7.40244 6.6132C8.52767 6.88957 8.72508 7.63973 8.6856 8.23196L7.3827 13.4238C7.46166 13.4436 7.56037 13.4633 7.67881 13.5225C7.58011 13.5028 7.4814 13.483 7.3827 13.4436L5.56654 20.7082C5.42835 21.0438 5.07301 21.5571 4.30312 21.3597C4.32286 21.3991 2.28955 20.8661 2.28955 20.8661L0.907684 24.0444L4.52027 24.9525C5.19146 25.1302 5.84291 25.2881 6.49436 25.4658L5.34939 30.0654L8.11311 30.7563L9.25808 26.1962C10.0082 26.3936 10.7584 26.591 11.4691 26.7687L10.3438 31.3091L13.1076 32L14.2525 27.4004C18.9903 28.2887 22.5437 27.9334 24.0243 23.6496C25.2285 20.2147 23.9651 18.2208 21.4777 16.918C23.3136 16.5034 24.6757 15.2992 25.0311 12.8513ZM18.6942 21.7347C17.8454 25.1696 12.0415 23.314 10.1662 22.8402L11.6862 16.7403C13.5616 17.2141 19.6023 18.1419 18.6942 21.7347ZM19.5628 12.7921C18.7732 15.9309 13.9564 14.3319 12.3969 13.9371L13.7788 8.40962C15.3383 8.80444 20.3722 9.53486 19.5628 12.7921Z"
            fill="url(#paint0_linear_5864_36977)"
    />
    <defs>
        <linearGradient
                id="paint0_linear_5864_36977"
                x1="13"
                y1="0"
                x2="13"
                y2="32"
                gradientUnits="userSpaceOnUse"
        >
            <stop stop-color="#F9AA4B"/>
            <stop offset="1" stop-color="#F7931A"/>
        </linearGradient>
    </defs>
</svg>
