<svg width="14" height="16" viewBox="0 0 14 16" fill="none" xmlns="http://www.w3.org/2000/svg">
<path d="M13.692 3.92121L7.38898 1.01212C7.32515 0.982586 7.25567 0.967286 7.18534 0.967286C7.11501 0.967286 7.04553 0.982586 6.9817 1.01212L0.678674 3.92121C0.594514 3.96016 0.523289 4.02243 0.473446 4.10063C0.423603 4.17883 0.397232 4.26969 0.397462 4.36242L0.39746 12.6048C0.397231 12.6976 0.423601 12.7884 0.473444 12.8666C0.523288 12.9448 0.594512 13.0071 0.678672 13.0461L6.9817 15.9551C7.04553 15.9847 7.11501 16 7.18534 16C7.25567 16 7.32515 15.9847 7.38897 15.9551L13.692 13.0461C13.7762 13.0071 13.8474 12.9448 13.8972 12.8666C13.9471 12.7884 13.9734 12.6976 13.9732 12.6048L13.9732 4.36243C13.9734 4.26969 13.9471 4.17883 13.8972 4.10063C13.8474 4.02243 13.7762 3.96016 13.692 3.92121ZM7.18534 1.98667L12.3296 4.36243L7.18534 6.73818L2.0411 4.36242L7.18534 1.98667ZM1.36716 5.11879L6.70049 7.58182L6.70049 14.7576L1.36716 12.2945L1.36716 5.11879ZM7.67019 14.7576L7.67019 7.58182L13.0035 5.11879L13.0035 12.2945L7.67019 14.7576Z" fill="#8B8682"/>
</svg>
