<svg width="14" height="16" viewBox="0 0 14 16" fill="none" xmlns="http://www.w3.org/2000/svg">
<path d="M13.2999 3.85557L7.13693 1.01113C7.07452 0.982246 7.00658 0.967286 6.93782 0.967286C6.86905 0.967286 6.80111 0.982246 6.73871 1.01113L0.575745 3.85557C0.493455 3.89365 0.423813 3.95454 0.375078 4.031C0.326342 4.10747 0.300558 4.1963 0.300782 4.28698L0.300781 12.3462C0.300556 12.4369 0.326341 12.5257 0.375076 12.6022C0.423812 12.6787 0.493454 12.7396 0.575744 12.7776L6.73871 15.6221C6.80111 15.651 6.86905 15.6659 6.93782 15.6659C7.00658 15.6659 7.07452 15.651 7.13693 15.6221L13.2999 12.7776C13.3822 12.7396 13.4518 12.6787 13.5006 12.6022C13.5493 12.5257 13.5751 12.4369 13.5749 12.3462L13.5749 4.28698C13.5751 4.1963 13.5493 4.10747 13.5006 4.031C13.4518 3.95454 13.3822 3.89366 13.2999 3.85557ZM6.93782 6.60994L1.90789 4.28698L6.93782 1.96402L11.9677 4.28698L6.93782 6.60994ZM12.6267 12.0428L7.41189 14.4511L7.41189 7.43483L12.6267 5.02653L12.6267 12.0428Z" fill="url(#paint0_linear_7_18086)"/>
<defs>
<linearGradient id="paint0_linear_7_18086" x1="0.326112" y1="8.3166" x2="13.6002" y2="8.31661" gradientUnits="userSpaceOnUse">
<stop stop-color="#E9B873"/>
<stop offset="0.369792" stop-color="#FEDD8F"/>
<stop offset="1" stop-color="#B78D51"/>
</linearGradient>
</defs>
</svg>
