<svg width="16" height="17" viewBox="0 0 16 17" fill="none" xmlns="http://www.w3.org/2000/svg">
<g clip-path="url(#clip0_4032_205316)">
<path fill-rule="evenodd" clip-rule="evenodd" d="M8 0.5C12.4186 0.5 16 4.08141 16 8.5C16 12.9186 12.4186 16.5 8 16.5C3.58141 16.5 0 12.9186 0 8.5C0 4.08141 3.58141 0.5 8 0.5Z" fill="#F0B90B"/>
<path d="M4.39689 8.49996L4.40266 10.6153L6.2001 11.673V12.9115L3.35074 11.2403V7.88137L4.39689 8.49996ZM4.39689 6.38458V7.61727L3.3501 6.99804V5.76535L4.39689 5.14612L5.44882 5.76535L4.39689 6.38458ZM6.95074 5.76535L7.99753 5.14612L9.04946 5.76535L7.99753 6.38458L6.95074 5.76535Z" fill="white"/>
<path d="M5.15332 10.1769V8.93843L6.20012 9.55766V10.7903L5.15332 10.1769ZM6.95076 12.1166L7.99755 12.7359L9.04947 12.1166V13.3493L7.99755 13.9686L6.95076 13.3493V12.1166ZM10.5508 5.76535L11.5976 5.14612L12.6495 5.76535V6.99804L11.5976 7.61727V6.38458L10.5508 5.76535ZM11.5976 10.6153L11.6033 8.49996L12.6501 7.88073V11.2397L9.80076 12.9109V11.6724L11.5976 10.6153Z" fill="white"/>
<path d="M10.8466 10.1769L9.7998 10.7904V9.55771L10.8466 8.93848V10.1769Z" fill="white"/>
<path d="M10.8469 6.82304L10.8527 8.0615L9.05012 9.11919V11.2397L8.00332 11.8532L6.95652 11.2397V9.11919L5.15396 8.0615V6.82304L6.20524 6.20381L7.99691 7.26663L9.79947 6.20381L10.8514 6.82304H10.8469ZM5.15332 4.7083L7.99755 3.03137L10.8469 4.7083L9.80012 5.32753L7.99755 4.26471L6.20012 5.32753L5.15332 4.7083Z" fill="white"/>
</g>
<defs>
<clipPath id="clip0_4032_205316">
<rect width="16" height="17" fill="white"/>
</clipPath>
</defs>
</svg>
