<svg width="348" height="53" viewBox="0 0 348 53" fill="none" xmlns="http://www.w3.org/2000/svg">
<g clip-path="url(#clip0_2_2198)">
<path d="M12 -6C8.04438 -6 4.17759 -4.82702 0.888603 -2.62939C-2.40038 -0.431765 -4.96383 2.69181 -6.47758 6.34633C-7.99133 10.0009 -8.3874 14.0222 -7.6157 17.9018C-6.84399 21.7814 -4.93918 25.3451 -2.14213 28.1421C0.654922 30.9392 4.21858 32.844 8.0982 33.6157C11.9778 34.3874 15.9991 33.9913 19.6537 32.4776C23.3082 30.9638 26.4318 28.4004 28.6294 25.1114C30.827 21.8224 32 17.9556 32 14C31.9942 8.69745 29.8852 3.61376 26.1357 -0.135705C22.3862 -3.88517 17.3025 -5.99418 12 -6ZM12 32.4C8.36083 32.4 4.80338 31.3209 1.77751 29.299C-1.24835 27.2772 -3.60672 24.4035 -4.99938 21.0414C-6.39203 17.6792 -6.75641 13.9796 -6.04644 10.4103C-5.33647 6.84108 -3.58404 3.56252 -1.01076 0.989233C1.56253 -1.58405 4.84109 -3.33648 8.41034 -4.04645C11.9796 -4.75642 15.6792 -4.39204 19.0414 -2.99938C22.4035 -1.60673 25.2772 0.751641 27.299 3.7775C29.3209 6.80337 30.4 10.3608 30.4 14C30.3947 18.8784 28.4544 23.5554 25.0049 27.0049C21.5554 30.4544 16.8784 32.3947 12 32.4ZM24 14C24 14.2122 23.9157 14.4157 23.7657 14.5657C23.6157 14.7157 23.4122 14.8 23.2 14.8H12C11.7878 14.8 11.5843 14.7157 11.4343 14.5657C11.2843 14.4157 11.2 14.2122 11.2 14V2.8C11.2 2.58782 11.2843 2.38434 11.4343 2.23431C11.5843 2.08428 11.7878 2 12 2C12.2122 2 12.4157 2.08428 12.5657 2.23431C12.7157 2.38434 12.8 2.58782 12.8 2.8V13.2H23.2C23.4122 13.2 23.6157 13.2843 23.7657 13.4343C23.9157 13.5843 24 13.7878 24 14Z" fill="#322E2A"/>
</g>
<g clip-path="url(#clip1_2_2198)">
<path d="M72 24C68.0444 24 64.1776 25.173 60.8886 27.3706C57.5996 29.5682 55.0362 32.6918 53.5224 36.3463C52.0087 40.0009 51.6126 44.0222 52.3843 47.9018C53.156 51.7814 55.0608 55.3451 57.8579 58.1421C60.6549 60.9392 64.2186 62.844 68.0982 63.6157C71.9778 64.3874 75.9991 63.9913 79.6537 62.4776C83.3082 60.9638 86.4318 58.4004 88.6294 55.1114C90.827 51.8224 92 47.9556 92 44C91.9942 38.6975 89.8852 33.6138 86.1357 29.8643C82.3862 26.1148 77.3025 24.0058 72 24ZM72 62.4C68.3608 62.4 64.8034 61.3209 61.7775 59.299C58.7517 57.2772 56.3933 54.4035 55.0006 51.0414C53.608 47.6792 53.2436 43.9796 53.9536 40.4103C54.6635 36.8411 56.416 33.5625 58.9892 30.9892C61.5625 28.4159 64.8411 26.6635 68.4103 25.9536C71.9796 25.2436 75.6792 25.608 79.0414 27.0006C82.4035 28.3933 85.2772 30.7516 87.299 33.7775C89.3209 36.8034 90.4 40.3608 90.4 44C90.3947 48.8784 88.4544 53.5554 85.0049 57.0049C81.5554 60.4544 76.8784 62.3947 72 62.4ZM84 44C84 44.2122 83.9157 44.4157 83.7657 44.5657C83.6157 44.7157 83.4122 44.8 83.2 44.8H72C71.7878 44.8 71.5843 44.7157 71.4343 44.5657C71.2843 44.4157 71.2 44.2122 71.2 44V32.8C71.2 32.5878 71.2843 32.3843 71.4343 32.2343C71.5843 32.0843 71.7878 32 72 32C72.2122 32 72.4157 32.0843 72.5657 32.2343C72.7157 32.3843 72.8 32.5878 72.8 32.8V43.2H83.2C83.4122 43.2 83.6157 43.2843 83.7657 43.4343C83.9157 43.5843 84 43.7878 84 44Z" fill="#322E2A"/>
</g>
<g clip-path="url(#clip2_2_2198)">
<path d="M132 -24C128.044 -24 124.178 -22.827 120.889 -20.6294C117.6 -18.4318 115.036 -15.3082 113.522 -11.6537C112.009 -7.99915 111.613 -3.97782 112.384 -0.0981979C113.156 3.78142 115.061 7.34508 117.858 10.1421C120.655 12.9392 124.219 14.844 128.098 15.6157C131.978 16.3874 135.999 15.9913 139.654 14.4776C143.308 12.9638 146.432 10.4004 148.629 7.1114C150.827 3.82242 152 -0.0443783 152 -4C151.994 -9.30255 149.885 -14.3862 146.136 -18.1357C142.386 -21.8852 137.303 -23.9942 132 -24ZM132 14.4C128.361 14.4 124.803 13.3209 121.778 11.299C118.752 9.27722 116.393 6.40353 115.001 3.04137C113.608 -0.320789 113.244 -4.02042 113.954 -7.58967C114.664 -11.1589 116.416 -14.4375 118.989 -17.0108C121.563 -19.5841 124.841 -21.3365 128.41 -22.0464C131.98 -22.7564 135.679 -22.392 139.041 -20.9994C142.404 -19.6067 145.277 -17.2484 147.299 -14.2225C149.321 -11.1966 150.4 -7.63918 150.4 -4C150.395 0.878353 148.454 5.55539 145.005 9.00491C141.555 12.4544 136.878 14.3947 132 14.4ZM144 -4C144 -3.78783 143.916 -3.58435 143.766 -3.43432C143.616 -3.28429 143.412 -3.2 143.2 -3.2H132C131.788 -3.2 131.584 -3.28429 131.434 -3.43432C131.284 -3.58435 131.2 -3.78783 131.2 -4V-15.2C131.2 -15.4122 131.284 -15.6157 131.434 -15.7657C131.584 -15.9157 131.788 -16 132 -16C132.212 -16 132.416 -15.9157 132.566 -15.7657C132.716 -15.6157 132.8 -15.4122 132.8 -15.2V-4.8H143.2C143.412 -4.8 143.616 -4.71572 143.766 -4.56569C143.916 -4.41566 144 -4.21218 144 -4Z" fill="#322E2A"/>
</g>
<g clip-path="url(#clip3_2_2198)">
<path d="M202 24C198.044 24 194.178 25.173 190.889 27.3706C187.6 29.5682 185.036 32.6918 183.522 36.3463C182.009 40.0009 181.613 44.0222 182.384 47.9018C183.156 51.7814 185.061 55.3451 187.858 58.1421C190.655 60.9392 194.219 62.844 198.098 63.6157C201.978 64.3874 205.999 63.9913 209.654 62.4776C213.308 60.9638 216.432 58.4004 218.629 55.1114C220.827 51.8224 222 47.9556 222 44C221.994 38.6975 219.885 33.6138 216.136 29.8643C212.386 26.1148 207.303 24.0058 202 24ZM202 62.4C198.361 62.4 194.803 61.3209 191.778 59.299C188.752 57.2772 186.393 54.4035 185.001 51.0414C183.608 47.6792 183.244 43.9796 183.954 40.4103C184.664 36.8411 186.416 33.5625 188.989 30.9892C191.563 28.4159 194.841 26.6635 198.41 25.9536C201.98 25.2436 205.679 25.608 209.041 27.0006C212.404 28.3933 215.277 30.7516 217.299 33.7775C219.321 36.8034 220.4 40.3608 220.4 44C220.395 48.8784 218.454 53.5554 215.005 57.0049C211.555 60.4544 206.878 62.3947 202 62.4ZM214 44C214 44.2122 213.916 44.4157 213.766 44.5657C213.616 44.7157 213.412 44.8 213.2 44.8H202C201.788 44.8 201.584 44.7157 201.434 44.5657C201.284 44.4157 201.2 44.2122 201.2 44V32.8C201.2 32.5878 201.284 32.3843 201.434 32.2343C201.584 32.0843 201.788 32 202 32C202.212 32 202.416 32.0843 202.566 32.2343C202.716 32.3843 202.8 32.5878 202.8 32.8V43.2H213.2C213.412 43.2 213.616 43.2843 213.766 43.4343C213.916 43.5843 214 43.7878 214 44Z" fill="#322E2A"/>
</g>
<g clip-path="url(#clip4_2_2198)">
<path d="M272 -16C268.044 -16 264.178 -14.827 260.889 -12.6294C257.6 -10.4318 255.036 -7.30819 253.522 -3.65367C252.009 0.000850677 251.613 4.02218 252.384 7.9018C253.156 11.7814 255.061 15.3451 257.858 18.1421C260.655 20.9392 264.219 22.844 268.098 23.6157C271.978 24.3874 275.999 23.9913 279.654 22.4776C283.308 20.9638 286.432 18.4004 288.629 15.1114C290.827 11.8224 292 7.95562 292 4C291.994 -1.30255 289.885 -6.38624 286.136 -10.1357C282.386 -13.8852 277.303 -15.9942 272 -16ZM272 22.4C268.361 22.4 264.803 21.3209 261.778 19.299C258.752 17.2772 256.393 14.4035 255.001 11.0414C253.608 7.67921 253.244 3.97958 253.954 0.410334C254.664 -3.15892 256.416 -6.43748 258.989 -9.01077C261.563 -11.5841 264.841 -13.3365 268.41 -14.0464C271.98 -14.7564 275.679 -14.392 279.041 -12.9994C282.404 -11.6067 285.277 -9.24836 287.299 -6.2225C289.321 -3.19663 290.4 0.360821 290.4 4C290.395 8.87835 288.454 13.5554 285.005 17.0049C281.555 20.4544 276.878 22.3947 272 22.4ZM284 4C284 4.21217 283.916 4.41565 283.766 4.56568C283.616 4.71571 283.412 4.8 283.2 4.8H272C271.788 4.8 271.584 4.71571 271.434 4.56568C271.284 4.41565 271.2 4.21217 271.2 4V-7.2C271.2 -7.41218 271.284 -7.61566 271.434 -7.76569C271.584 -7.91572 271.788 -8 272 -8C272.212 -8 272.416 -7.91572 272.566 -7.76569C272.716 -7.61566 272.8 -7.41218 272.8 -7.2V3.2H283.2C283.412 3.2 283.616 3.28428 283.766 3.43431C283.916 3.58434 284 3.78782 284 4Z" fill="#322E2A"/>
</g>
<g clip-path="url(#clip5_2_2198)">
<path d="M342 4C338.044 4 334.178 5.17298 330.889 7.37061C327.6 9.56823 325.036 12.6918 323.522 16.3463C322.009 20.0009 321.613 24.0222 322.384 27.9018C323.156 31.7814 325.061 35.3451 327.858 38.1421C330.655 40.9392 334.219 42.844 338.098 43.6157C341.978 44.3874 345.999 43.9913 349.654 42.4776C353.308 40.9638 356.432 38.4004 358.629 35.1114C360.827 31.8224 362 27.9556 362 24C361.994 18.6975 359.885 13.6138 356.136 9.86429C352.386 6.11483 347.303 4.00582 342 4ZM342 42.4C338.361 42.4 334.803 41.3209 331.778 39.299C328.752 37.2772 326.393 34.4035 325.001 31.0414C323.608 27.6792 323.244 23.9796 323.954 20.4103C324.664 16.8411 326.416 13.5625 328.989 10.9892C331.563 8.41595 334.841 6.66352 338.41 5.95355C341.98 5.24358 345.679 5.60796 349.041 7.00062C352.404 8.39327 355.277 10.7516 357.299 13.7775C359.321 16.8034 360.4 20.3608 360.4 24C360.395 28.8784 358.454 33.5554 355.005 37.0049C351.555 40.4544 346.878 42.3947 342 42.4ZM354 24C354 24.2122 353.916 24.4157 353.766 24.5657C353.616 24.7157 353.412 24.8 353.2 24.8H342C341.788 24.8 341.584 24.7157 341.434 24.5657C341.284 24.4157 341.2 24.2122 341.2 24V12.8C341.2 12.5878 341.284 12.3843 341.434 12.2343C341.584 12.0843 341.788 12 342 12C342.212 12 342.416 12.0843 342.566 12.2343C342.716 12.3843 342.8 12.5878 342.8 12.8V23.2H353.2C353.412 23.2 353.616 23.2843 353.766 23.4343C353.916 23.5843 354 23.7878 354 24Z" fill="#322E2A"/>
</g>
<defs>
<clipPath id="clip0_2_2198">
<rect width="40" height="40" fill="white" transform="translate(-8 -6)"/>
</clipPath>
<clipPath id="clip1_2_2198">
<rect width="40" height="40" fill="white" transform="translate(52 24)"/>
</clipPath>
<clipPath id="clip2_2_2198">
<rect width="40" height="40" fill="white" transform="translate(112 -24)"/>
</clipPath>
<clipPath id="clip3_2_2198">
<rect width="40" height="40" fill="white" transform="translate(182 24)"/>
</clipPath>
<clipPath id="clip4_2_2198">
<rect width="40" height="40" fill="white" transform="translate(252 -16)"/>
</clipPath>
<clipPath id="clip5_2_2198">
<rect width="40" height="40" fill="white" transform="translate(322 4)"/>
</clipPath>
</defs>
</svg>
