<svg width="348" height="53" viewBox="0 0 348 53" fill="none" xmlns="http://www.w3.org/2000/svg">
<g clip-path="url(#clip0_1_60)">
<rect width="348" height="53" rx="8" fill="#332F2D"/>
<rect width="348" height="53" rx="8" fill="url(#paint0_linear_1_60)" fill-opacity="0.2"/>
<g clip-path="url(#clip1_1_60)">
<path d="M12 24C8.04438 24 4.17759 25.173 0.888603 27.3706C-2.40038 29.5682 -4.96383 32.6918 -6.47758 36.3463C-7.99133 40.0009 -8.3874 44.0222 -7.6157 47.9018C-6.84399 51.7814 -4.93918 55.3451 -2.14213 58.1421C0.654922 60.9392 4.21858 62.844 8.0982 63.6157C11.9778 64.3874 15.9992 63.9913 19.6537 62.4776C23.3082 60.9638 26.4318 58.4004 28.6294 55.1114C30.827 51.8224 32 47.9556 32 44C31.9942 38.6975 29.8852 33.6138 26.1357 29.8643C22.3862 26.1148 17.3025 24.0058 12 24ZM12 62.4C8.36083 62.4 4.80338 61.3209 1.77751 59.299C-1.24835 57.2772 -3.60672 54.4035 -4.99938 51.0414C-6.39203 47.6792 -6.75641 43.9796 -6.04644 40.4103C-5.33647 36.8411 -3.58404 33.5625 -1.01076 30.9892C1.56253 28.4159 4.84109 26.6635 8.41034 25.9536C11.9796 25.2436 15.6792 25.608 19.0414 27.0006C22.4035 28.3933 25.2772 30.7516 27.299 33.7775C29.3209 36.8034 30.4 40.3608 30.4 44C30.3947 48.8784 28.4544 53.5554 25.0049 57.0049C21.5554 60.4544 16.8784 62.3947 12 62.4ZM24 44C24 44.2122 23.9157 44.4157 23.7657 44.5657C23.6157 44.7157 23.4122 44.8 23.2 44.8H12C11.7878 44.8 11.5843 44.7157 11.4343 44.5657C11.2843 44.4157 11.2 44.2122 11.2 44V32.8C11.2 32.5878 11.2843 32.3843 11.4343 32.2343C11.5843 32.0843 11.7878 32 12 32C12.2122 32 12.4157 32.0843 12.5657 32.2343C12.7157 32.3843 12.8 32.5878 12.8 32.8V43.2H23.2C23.4122 43.2 23.6157 43.2843 23.7657 43.4343C23.9157 43.5843 24 43.7878 24 44Z" fill="#413830"/>
</g>
<g clip-path="url(#clip2_1_60)">
<path d="M81 -6C77.0444 -6 73.1776 -4.82702 69.8886 -2.62939C66.5996 -0.431765 64.0362 2.69181 62.5224 6.34633C61.0087 10.0009 60.6126 14.0222 61.3843 17.9018C62.156 21.7814 64.0608 25.3451 66.8579 28.1421C69.6549 30.9392 73.2186 32.844 77.0982 33.6157C80.9778 34.3874 84.9992 33.9913 88.6537 32.4776C92.3082 30.9638 95.4318 28.4004 97.6294 25.1114C99.827 21.8224 101 17.9556 101 14C100.994 8.69745 98.8852 3.61376 95.1357 -0.135705C91.3862 -3.88517 86.3025 -5.99418 81 -6ZM81 32.4C77.3608 32.4 73.8034 31.3209 70.7775 29.299C67.7517 27.2772 65.3933 24.4035 64.0006 21.0414C62.608 17.6792 62.2436 13.9796 62.9536 10.4103C63.6635 6.84108 65.416 3.56252 67.9892 0.989233C70.5625 -1.58405 73.8411 -3.33648 77.4103 -4.04645C80.9796 -4.75642 84.6792 -4.39204 88.0414 -2.99938C91.4035 -1.60673 94.2772 0.751641 96.299 3.7775C98.3209 6.80337 99.4 10.3608 99.4 14C99.3947 18.8784 97.4544 23.5554 94.0049 27.0049C90.5554 30.4544 85.8784 32.3947 81 32.4ZM93 14C93 14.2122 92.9157 14.4157 92.7657 14.5657C92.6157 14.7157 92.4122 14.8 92.2 14.8H81C80.7878 14.8 80.5843 14.7157 80.4343 14.5657C80.2843 14.4157 80.2 14.2122 80.2 14V2.8C80.2 2.58783 80.2843 2.38434 80.4343 2.23431C80.5843 2.08428 80.7878 2 81 2C81.2122 2 81.4157 2.08428 81.5657 2.23431C81.7157 2.38434 81.8 2.58783 81.8 2.8V13.2H92.2C92.4122 13.2 92.6157 13.2843 92.7657 13.4343C92.9157 13.5843 93 13.7878 93 14Z" fill="#413830"/>
</g>
<g clip-path="url(#clip3_1_60)">
<path d="M148 26C144.044 26 140.178 27.173 136.889 29.3706C133.6 31.5682 131.036 34.6918 129.522 38.3463C128.009 42.0009 127.613 46.0222 128.384 49.9018C129.156 53.7814 131.061 57.3451 133.858 60.1421C136.655 62.9392 140.219 64.844 144.098 65.6157C147.978 66.3874 151.999 65.9913 155.654 64.4776C159.308 62.9638 162.432 60.4004 164.629 57.1114C166.827 53.8224 168 49.9556 168 46C167.994 40.6975 165.885 35.6138 162.136 31.8643C158.386 28.1148 153.303 26.0058 148 26ZM148 64.4C144.361 64.4 140.803 63.3209 137.778 61.299C134.752 59.2772 132.393 56.4035 131.001 53.0414C129.608 49.6792 129.244 45.9796 129.954 42.4103C130.664 38.8411 132.416 35.5625 134.989 32.9892C137.563 30.4159 140.841 28.6635 144.41 27.9536C147.98 27.2436 151.679 27.608 155.041 29.0006C158.404 30.3933 161.277 32.7516 163.299 35.7775C165.321 38.8034 166.4 42.3608 166.4 46C166.395 50.8784 164.454 55.5554 161.005 59.0049C157.555 62.4544 152.878 64.3947 148 64.4ZM160 46C160 46.2122 159.916 46.4157 159.766 46.5657C159.616 46.7157 159.412 46.8 159.2 46.8H148C147.788 46.8 147.584 46.7157 147.434 46.5657C147.284 46.4157 147.2 46.2122 147.2 46V34.8C147.2 34.5878 147.284 34.3843 147.434 34.2343C147.584 34.0843 147.788 34 148 34C148.212 34 148.416 34.0843 148.566 34.2343C148.716 34.3843 148.8 34.5878 148.8 34.8V45.2H159.2C159.412 45.2 159.616 45.2843 159.766 45.4343C159.916 45.5843 160 45.7878 160 46Z" fill="#413830"/>
</g>
<g clip-path="url(#clip4_1_60)">
<path d="M212 -16C208.044 -16 204.178 -14.827 200.889 -12.6294C197.6 -10.4318 195.036 -7.30819 193.522 -3.65367C192.009 0.000850773 191.613 4.02218 192.384 7.9018C193.156 11.7814 195.061 15.3451 197.858 18.1421C200.655 20.9392 204.219 22.844 208.098 23.6157C211.978 24.3874 215.999 23.9913 219.654 22.4776C223.308 20.9638 226.432 18.4004 228.629 15.1114C230.827 11.8224 232 7.95562 232 4C231.994 -1.30255 229.885 -6.38624 226.136 -10.1357C222.386 -13.8852 217.303 -15.9942 212 -16ZM212 22.4C208.361 22.4 204.803 21.3209 201.778 19.299C198.752 17.2772 196.393 14.4035 195.001 11.0414C193.608 7.67921 193.244 3.97958 193.954 0.410334C194.664 -3.15892 196.416 -6.43748 198.989 -9.01077C201.563 -11.5841 204.841 -13.3365 208.41 -14.0464C211.98 -14.7564 215.679 -14.392 219.041 -12.9994C222.404 -11.6067 225.277 -9.24836 227.299 -6.2225C229.321 -3.19663 230.4 0.36082 230.4 4C230.395 8.87835 228.454 13.5554 225.005 17.0049C221.555 20.4544 216.878 22.3947 212 22.4ZM224 4C224 4.21217 223.916 4.41565 223.766 4.56568C223.616 4.71571 223.412 4.8 223.2 4.8H212C211.788 4.8 211.584 4.71571 211.434 4.56568C211.284 4.41565 211.2 4.21217 211.2 4V-7.2C211.2 -7.41217 211.284 -7.61566 211.434 -7.76569C211.584 -7.91572 211.788 -8 212 -8C212.212 -8 212.416 -7.91572 212.566 -7.76569C212.716 -7.61566 212.8 -7.41217 212.8 -7.2V3.2H223.2C223.412 3.2 223.616 3.28428 223.766 3.43431C223.916 3.58434 224 3.78782 224 4Z" fill="#413830"/>
</g>
<g clip-path="url(#clip5_1_60)">
<path d="M342 32C338.044 32 334.178 33.173 330.889 35.3706C327.6 37.5682 325.036 40.6918 323.522 44.3463C322.009 48.0009 321.613 52.0222 322.384 55.9018C323.156 59.7814 325.061 63.3451 327.858 66.1421C330.655 68.9392 334.219 70.844 338.098 71.6157C341.978 72.3874 345.999 71.9913 349.654 70.4776C353.308 68.9638 356.432 66.4004 358.629 63.1114C360.827 59.8224 362 55.9556 362 52C361.994 46.6975 359.885 41.6138 356.136 37.8643C352.386 34.1148 347.303 32.0058 342 32ZM342 70.4C338.361 70.4 334.803 69.3209 331.778 67.299C328.752 65.2772 326.393 62.4035 325.001 59.0414C323.608 55.6792 323.244 51.9796 323.954 48.4103C324.664 44.8411 326.416 41.5625 328.989 38.9892C331.563 36.4159 334.841 34.6635 338.41 33.9536C341.98 33.2436 345.679 33.608 349.041 35.0006C352.404 36.3933 355.277 38.7516 357.299 41.7775C359.321 44.8034 360.4 48.3608 360.4 52C360.395 56.8784 358.454 61.5554 355.005 65.0049C351.555 68.4544 346.878 70.3947 342 70.4ZM354 52C354 52.2122 353.916 52.4157 353.766 52.5657C353.616 52.7157 353.412 52.8 353.2 52.8H342C341.788 52.8 341.584 52.7157 341.434 52.5657C341.284 52.4157 341.2 52.2122 341.2 52V40.8C341.2 40.5878 341.284 40.3843 341.434 40.2343C341.584 40.0843 341.788 40 342 40C342.212 40 342.416 40.0843 342.566 40.2343C342.716 40.3843 342.8 40.5878 342.8 40.8V51.2H353.2C353.412 51.2 353.616 51.2843 353.766 51.4343C353.916 51.5843 354 51.7878 354 52Z" fill="#413830"/>
</g>
<g clip-path="url(#clip6_1_60)">
<path d="M282 4C278.044 4 274.178 5.17298 270.889 7.37061C267.6 9.56823 265.036 12.6918 263.522 16.3463C262.009 20.0009 261.613 24.0222 262.384 27.9018C263.156 31.7814 265.061 35.3451 267.858 38.1421C270.655 40.9392 274.219 42.844 278.098 43.6157C281.978 44.3874 285.999 43.9913 289.654 42.4776C293.308 40.9638 296.432 38.4004 298.629 35.1114C300.827 31.8224 302 27.9556 302 24C301.994 18.6975 299.885 13.6138 296.136 9.86429C292.386 6.11483 287.303 4.00582 282 4ZM282 42.4C278.361 42.4 274.803 41.3209 271.778 39.299C268.752 37.2772 266.393 34.4035 265.001 31.0414C263.608 27.6792 263.244 23.9796 263.954 20.4103C264.664 16.8411 266.416 13.5625 268.989 10.9892C271.563 8.41595 274.841 6.66352 278.41 5.95355C281.98 5.24358 285.679 5.60796 289.041 7.00062C292.404 8.39327 295.277 10.7516 297.299 13.7775C299.321 16.8034 300.4 20.3608 300.4 24C300.395 28.8784 298.454 33.5554 295.005 37.0049C291.555 40.4544 286.878 42.3947 282 42.4ZM294 24C294 24.2122 293.916 24.4157 293.766 24.5657C293.616 24.7157 293.412 24.8 293.2 24.8H282C281.788 24.8 281.584 24.7157 281.434 24.5657C281.284 24.4157 281.2 24.2122 281.2 24V12.8C281.2 12.5878 281.284 12.3843 281.434 12.2343C281.584 12.0843 281.788 12 282 12C282.212 12 282.416 12.0843 282.566 12.2343C282.716 12.3843 282.8 12.5878 282.8 12.8V23.2H293.2C293.412 23.2 293.616 23.2843 293.766 23.4343C293.916 23.5843 294 23.7878 294 24Z" fill="#413830"/>
</g>
</g>
<defs>
<linearGradient id="paint0_linear_1_60" x1="0" y1="0" x2="172.119" y2="58.5303" gradientUnits="userSpaceOnUse">
<stop stop-color="#603A17"/>
<stop offset="1" stop-opacity="0"/>
</linearGradient>
<clipPath id="clip0_1_60">
<rect width="348" height="53" rx="8" fill="white"/>
</clipPath>
<clipPath id="clip1_1_60">
<rect width="40" height="40" fill="white" transform="translate(-8 24)"/>
</clipPath>
<clipPath id="clip2_1_60">
<rect width="40" height="40" fill="white" transform="translate(61 -6)"/>
</clipPath>
<clipPath id="clip3_1_60">
<rect width="40" height="40" fill="white" transform="translate(128 26)"/>
</clipPath>
<clipPath id="clip4_1_60">
<rect width="40" height="40" fill="white" transform="translate(192 -16)"/>
</clipPath>
<clipPath id="clip5_1_60">
<rect width="40" height="40" fill="white" transform="translate(322 32)"/>
</clipPath>
<clipPath id="clip6_1_60">
<rect width="40" height="40" fill="white" transform="translate(262 4)"/>
</clipPath>
</defs>
</svg>
