<svg width="36" height="16" viewBox="0 0 36 16" fill="none" xmlns="http://www.w3.org/2000/svg">
<path d="M10.5031 2.60555V13.395H27.2873V2.605L10.5031 2.60555ZM11.702 12.196L11.702 3.80395L26.0883 3.80395L26.0883 12.196L11.702 12.196Z" fill="#51C61A"/>
<path d="M26.0909 4.40525V11.5984H32.0851V4.40525H26.0909ZM27.2898 10.4V5.60465H30.8864L30.8864 10.4H27.2898Z" fill="#51C61A"/>
<path d="M29.6897 6.80067V5.0023H28.4908V6.80067H29.6897Z" fill="#51C61A"/>
<path d="M29.6897 10.9963V9.19796H28.4908V10.9963H29.6897Z" fill="#51C61A"/>
<path d="M8.10853 5.00157V10.9963H11.1056V9.79743H9.30743V6.20074H11.1056V5.00185L8.10853 5.00157Z" fill="#51C61A"/>
<path d="M8.71025 8.6008V7.4019H3.91489L3.91489 8.6008H8.71025Z" fill="#51C61A"/>
</svg>
