<svg width="50" height="48" viewBox="0 0 50 48" fill="none" xmlns="http://www.w3.org/2000/svg">
<g id="Frame" clip-path="url(#clip0_6186_31810)">
<path id="Subtract" fill-rule="evenodd" clip-rule="evenodd" d="M13.5762 8.19683V4H45.0352V44H13.5762V40.4192C13.4854 40.3734 13.3946 40.3276 13.3038 40.2818L13.3036 40.2817C12.5017 39.8771 11.7022 39.4737 10.8865 39.1029C10.6385 38.9927 10.2527 38.9927 10.0047 39.1029C9.86147 39.1674 9.71866 39.2333 9.57623 39.3002V45C9.57623 46.6569 10.9194 48 12.5762 48H46.0352C47.6921 48 49.0352 46.6569 49.0352 45V3C49.0352 1.34315 47.6921 0 46.0352 0H12.5762C10.9194 0 9.57623 1.34315 9.57623 3V7.38886C10.9368 7.1907 12.3536 7.46294 13.5762 8.19683Z" fill="url(#paint0_linear_6186_31810)"/>
<g id="Group 296">
<path id="Vector" d="M5.88163 32.9307C5.88163 31.5879 5.87015 30.2451 5.88163 28.9023C5.88163 28.5006 5.75539 28.294 5.38813 28.1678C4.99791 28.0415 4.63065 27.8694 4.24044 27.7316C1.94507 26.8594 0.602273 24.5525 1.04987 22.1424C1.26793 20.9603 1.26793 19.7896 1.04987 18.6075C0.61375 16.3007 1.91064 13.9364 4.12567 13.1216C5.33074 12.674 6.39809 12.0657 7.39658 11.2509C9.26731 9.72443 11.9529 9.77034 13.8121 11.3312C14.7188 12.0887 15.7058 12.651 16.8306 13.0527C19.1604 13.8791 20.4802 16.2318 20.0326 18.6879C19.8146 19.8585 19.826 20.9947 20.0326 22.1654C20.4802 24.5296 19.1374 26.8709 16.8879 27.7316C15.7785 28.1525 15.2238 28.9597 15.2238 30.1533C15.2238 32.3912 15.2238 34.6292 15.2238 36.8672C15.2238 38.0608 14.6155 38.4281 13.5252 37.8887C12.653 37.4525 11.7922 37.0049 10.9085 36.6033C10.7019 36.5114 10.3806 36.5114 10.174 36.6033C9.25583 37.0164 8.36063 37.4985 7.45396 37.9346C6.51286 38.3936 5.88163 38.0034 5.88163 36.959C5.88163 35.6162 5.88163 34.2735 5.88163 32.9307ZM10.5642 12.0657C9.84115 12.0313 9.14106 12.2379 8.59017 12.7314C7.49987 13.7069 6.26037 14.384 4.88314 14.8775C3.41411 15.4055 2.64515 16.8516 2.95503 18.3895C3.23048 19.7437 3.23048 21.0865 2.95503 22.4408C2.64515 23.9443 3.44854 25.4363 4.9061 25.9412C6.24889 26.4118 7.44249 27.0775 8.52131 28.0071C9.72638 29.04 11.3791 29.04 12.5956 28.0071C13.6744 27.0889 14.868 26.4118 16.2108 25.9412C17.6684 25.4363 18.4718 23.9557 18.1619 22.4408C17.8979 21.1095 17.875 19.7896 18.1389 18.4469C18.4718 16.7598 17.6454 15.3366 16.0157 14.7857C14.7762 14.3726 13.6744 13.7528 12.7104 12.8806C12.1136 12.3412 11.402 12.0542 10.5527 12.0657H10.5642ZM7.8327 29.9352V35.6277C8.45245 35.3178 9.02629 35.0883 9.55423 34.767C10.2658 34.3194 10.9085 34.3538 11.6086 34.767C12.1365 35.0883 12.7218 35.3293 13.3186 35.6162V29.9237C11.4823 30.9566 9.669 30.9796 7.8327 29.9237V29.9352Z" fill="url(#paint1_linear_6186_31810)"/>
<path id="Vector_2" d="M10.5408 25.0811C7.95854 25.0811 5.85828 22.9923 5.85828 20.4101C5.85828 17.7704 7.9815 15.6472 10.6097 15.6701C13.169 15.6931 15.2578 17.8048 15.2578 20.3871C15.2578 23.0038 13.169 25.0811 10.5408 25.0811ZM10.5294 23.1415C12.0787 23.1415 13.3297 21.9135 13.3297 20.3756C13.3297 18.8722 12.0787 17.6326 10.5638 17.6326C9.03737 17.6326 7.79787 18.8492 7.78639 20.3641C7.78639 21.8676 9.01442 23.1301 10.5179 23.1301L10.5294 23.1415Z" fill="url(#paint2_linear_6186_31810)"/>
</g>
<rect id="Rectangle 1436" x="22.9122" y="12.4531" width="15.7153" height="3.21513" fill="url(#paint3_linear_6186_31810)"/>
<rect id="Rectangle 1437" x="22.9122" y="22.4531" width="15.7153" height="3.21513" fill="url(#paint4_linear_6186_31810)"/>
<rect id="Rectangle 1438" x="20.1192" y="32.4531" width="18.5083" height="3.21513" fill="url(#paint5_linear_6186_31810)"/>
</g>
<defs>
<linearGradient id="paint0_linear_6186_31810" x1="9.65154" y1="24" x2="49.1105" y2="24" gradientUnits="userSpaceOnUse">
<stop stop-color="#E9B873"/>
<stop offset="0.369792" stop-color="#FEDD8F"/>
<stop offset="1" stop-color="#B78D51"/>
</linearGradient>
<linearGradient id="paint1_linear_6186_31810" x1="1.00079" y1="24.1322" x2="20.1558" y2="24.1322" gradientUnits="userSpaceOnUse">
<stop stop-color="#E9B873"/>
<stop offset="0.369792" stop-color="#FEDD8F"/>
<stop offset="1" stop-color="#B78D51"/>
</linearGradient>
<linearGradient id="paint2_linear_6186_31810" x1="5.87621" y1="20.3755" x2="15.2758" y2="20.3755" gradientUnits="userSpaceOnUse">
<stop stop-color="#E9B873"/>
<stop offset="0.369792" stop-color="#FEDD8F"/>
<stop offset="1" stop-color="#B78D51"/>
</linearGradient>
<linearGradient id="paint3_linear_6186_31810" x1="22.9422" y1="14.0607" x2="38.6575" y2="14.0607" gradientUnits="userSpaceOnUse">
<stop stop-color="#E9B873"/>
<stop offset="0.369792" stop-color="#FEDD8F"/>
<stop offset="1" stop-color="#B78D51"/>
</linearGradient>
<linearGradient id="paint4_linear_6186_31810" x1="22.9422" y1="24.0607" x2="38.6575" y2="24.0607" gradientUnits="userSpaceOnUse">
<stop stop-color="#E9B873"/>
<stop offset="0.369792" stop-color="#FEDD8F"/>
<stop offset="1" stop-color="#B78D51"/>
</linearGradient>
<linearGradient id="paint5_linear_6186_31810" x1="20.1545" y1="34.0607" x2="38.6628" y2="34.0607" gradientUnits="userSpaceOnUse">
<stop stop-color="#E9B873"/>
<stop offset="0.369792" stop-color="#FEDD8F"/>
<stop offset="1" stop-color="#B78D51"/>
</linearGradient>
<clipPath id="clip0_6186_31810">
<rect width="48.0711" height="48" fill="white" transform="translate(0.964417)"/>
</clipPath>
</defs>
</svg>
