<svg width="180" height="156" viewBox="0 0 180 156" fill="none" xmlns="http://www.w3.org/2000/svg">
<circle cx="89.7624" cy="54.6298" r="53.747" fill="#39322C"/>
<path d="M92.547 79.5394L97.4225 87.0721L116.757 58.4794H97.967L83.8596 79.3152L70.5539 60.3705L78.9841 60.3067L86.0721 70.3396L88.5421 66.5893L81.3896 56.4277H62.2781L83.7609 86.976L100.402 62.3579H108.803L97.2594 79.2188L95.0469 75.8209L92.547 79.5394Z" fill="url(#paint0_linear_4487_211408)"/>
<path d="M83.8596 28.7951L97.967 49.6309H116.757L97.4226 21.0378L92.547 28.5707L95.0469 32.289L97.2597 28.8913L108.803 45.752H100.403L83.761 21.1341L62.2783 51.6822H81.3899L88.5421 41.521L86.0721 37.7703L78.9843 47.8038L70.5542 47.7394L83.8596 28.7951Z" fill="url(#paint1_linear_4487_211408)"/>
<rect x="117.762" y="91.5322" width="25.2223" height="15.9269" rx="2" stroke="url(#paint2_linear_4487_211408)" stroke-width="2"/>
<path d="M120.42 101.358L121.534 100.007L119.939 99.5594L120.258 98.6201L121.818 99.2711L121.701 97.5217H122.745L122.618 99.3059L124.144 98.6698L124.458 99.619L122.839 100.066L123.913 101.383L123.069 101.97L122.167 100.509L121.264 101.92L120.42 101.358Z" fill="url(#paint3_linear_4487_211408)"/>
<path d="M125.904 101.358L127.017 100.007L125.423 99.5594L125.742 98.6201L127.302 99.2711L127.184 97.5217H128.229L128.102 99.3059L129.627 98.6698L129.941 99.619L128.322 100.066L129.397 101.383L128.553 101.97L127.65 100.509L126.748 101.92L125.904 101.358Z" fill="url(#paint4_linear_4487_211408)"/>
<path d="M131.388 101.358L132.501 100.007L130.907 99.5594L131.226 98.6201L132.786 99.2711L132.668 97.5217H133.713L133.585 99.3059L135.111 98.6698L135.425 99.619L133.806 100.066L134.88 101.383L134.037 101.97L133.134 100.509L132.231 101.92L131.388 101.358Z" fill="url(#paint5_linear_4487_211408)"/>
<path d="M136.871 101.358L137.985 100.007L136.391 99.5594L136.709 98.6201L138.269 99.2711L138.152 97.5217H139.197L139.069 99.3059L140.595 98.6698L140.909 99.619L139.29 100.066L140.364 101.383L139.52 101.97L138.618 100.509L137.715 101.92L136.871 101.358Z" fill="url(#paint6_linear_4487_211408)"/>
<path d="M122.21 87.7544C122.21 83.173 125.924 79.459 130.506 79.459C135.087 79.459 138.801 83.173 138.801 87.7544V91.4021H122.21V87.7544Z" stroke="url(#paint7_linear_4487_211408)" stroke-width="2"/>
<path fill-rule="evenodd" clip-rule="evenodd" d="M137.689 142.219C135.957 141.046 133.364 140.459 129.914 140.459C126.449 140.459 123.854 141.046 122.128 142.219C120.403 143.393 119.54 145.245 119.54 147.777C119.54 150.323 120.4 152.183 122.118 153.356C123.835 154.53 126.435 155.117 129.914 155.117C133.379 155.117 135.973 154.53 137.699 153.356C139.425 152.183 140.288 150.323 140.288 147.777C140.288 145.245 139.422 143.393 137.689 142.219ZM132.714 151.288C131.95 151.38 131.017 151.426 129.914 151.426C128.811 151.426 127.878 151.38 127.114 151.288C126.35 151.197 125.731 151.016 125.257 150.748C124.783 150.478 124.441 150.107 124.229 149.634C124.016 149.159 123.91 148.541 123.91 147.777C123.91 147.013 124.016 146.395 124.229 145.921C124.441 145.448 124.783 145.08 125.257 144.818C125.731 144.556 126.35 144.38 127.114 144.287C127.878 144.196 128.811 144.149 129.914 144.149C131.017 144.149 131.95 144.196 132.714 144.287C133.478 144.38 134.096 144.556 134.571 144.818C135.044 145.08 135.387 145.448 135.599 145.921C135.811 146.395 135.918 147.013 135.918 147.777C135.918 148.541 135.811 149.159 135.599 149.634C135.387 150.107 135.044 150.478 134.571 150.748C134.096 151.016 133.478 151.197 132.714 151.288ZM18.4983 151.235L15.6769 154.884H8.54898C7.31916 154.884 6.18077 154.7 5.13387 154.333C4.08697 153.964 3.1856 153.46 2.4289 152.815C1.67304 152.172 1.07849 151.408 0.64692 150.525C0.216178 149.641 0 148.682 0 147.65C0 146.618 0.216178 145.674 0.64692 144.818C1.07849 143.963 1.67304 143.227 2.4289 142.611C3.1856 141.997 4.08697 141.523 5.13387 141.19C6.18077 140.859 7.31916 140.691 8.54898 140.691H18.4983L15.6769 144.383H8.54898C7.95527 144.383 7.40396 144.467 6.89507 144.637C6.38617 144.808 5.94711 145.045 5.57958 145.348C5.21122 145.652 4.92183 146.017 4.70981 146.441C4.49776 146.865 4.3913 147.332 4.3913 147.841C4.3913 148.35 4.4936 148.814 4.69899 149.23C4.90353 149.648 5.19376 150.005 5.56877 150.301C5.94294 150.598 6.38617 150.829 6.89507 150.991C7.40396 151.154 7.95527 151.235 8.54898 151.235H18.4983ZM40.3488 140.692L31.9262 150.196V154.883H27.514V150.174L18.8586 140.692H24.5014L27.8957 144.637C28.0088 144.764 28.1577 144.932 28.3414 145.136C28.5252 145.342 28.7164 145.558 28.9144 145.783C29.1123 146.01 29.296 146.221 29.4657 146.42C29.6353 146.618 29.7559 146.767 29.8265 146.865C29.9679 146.668 30.1733 146.398 30.4419 146.059C30.7096 145.72 31.0996 145.239 31.6085 144.616L34.8324 140.692H40.3488ZM58.1899 148.17C58.5009 147.526 58.6564 146.809 58.6564 146.016C58.6564 145.225 58.5009 144.504 58.1899 143.853C57.878 143.202 57.4265 142.644 56.8328 142.177C56.2383 141.71 55.5098 141.346 54.6475 141.084C53.7844 140.822 52.8015 140.692 51.6989 140.692H42.7891L39.8828 144.383H52.1014C52.7807 144.383 53.3071 144.529 53.6821 144.818C54.0572 145.108 54.2442 145.501 54.2442 145.995C54.2442 146.49 54.0572 146.886 53.6821 147.183C53.3071 147.481 52.7807 147.629 52.1014 147.629H39.8828V154.884H44.2525V151.257H51.6773C52.7807 151.257 53.7628 151.128 54.6259 150.875C55.4882 150.62 56.2199 150.266 56.822 149.814C57.4232 149.361 57.878 148.813 58.1899 148.17ZM78.1097 154.884H73.7391V149.411H65.2966V154.884H60.8837V140.692H65.2966V145.719H73.7391V140.692H78.1097V154.884ZM94.4648 154.884L97.2861 151.235H85.2156V149.305H93.935L96.4587 146.081H85.2156V144.383H94.4007L97.2437 140.691H80.8035V154.884H94.4648ZM118.925 154.884H113.049L109.888 151.129H103.142V154.884H98.7507V147.629H111.097C111.776 147.629 112.349 147.487 112.815 147.205C113.283 146.922 113.515 146.533 113.515 146.038C113.515 145.486 113.303 145.073 112.879 144.796C112.455 144.521 111.861 144.383 111.097 144.383H98.7507L101.614 140.692H110.736C111.542 140.692 112.377 140.766 113.239 140.915C114.102 141.063 114.887 141.328 115.594 141.71C116.302 142.092 116.885 142.608 117.345 143.259C117.804 143.91 118.034 144.744 118.034 145.762C118.034 146.313 117.949 146.837 117.78 147.332C117.61 147.827 117.365 148.273 117.048 148.668C116.729 149.065 116.341 149.4 115.881 149.676C115.421 149.951 114.902 150.147 114.322 150.259C114.562 150.443 114.831 150.676 115.128 150.959C115.425 151.243 115.82 151.632 116.315 152.126L118.925 154.884ZM160.567 151.235L157.746 154.884H150.618C149.388 154.884 148.249 154.7 147.203 154.333C146.156 153.964 145.254 153.46 144.498 152.815C143.742 152.172 143.147 151.408 142.716 150.525C142.285 149.641 142.069 148.682 142.069 147.65C142.069 146.618 142.285 145.674 142.716 144.818C143.147 143.963 143.742 143.227 144.498 142.611C145.254 141.997 146.156 141.523 147.203 141.19C148.249 140.859 149.388 140.691 150.618 140.691H160.567L157.746 144.383H150.618C150.024 144.383 149.473 144.467 148.964 144.637C148.455 144.808 148.016 145.045 147.648 145.348C147.28 145.652 146.991 146.017 146.779 146.441C146.566 146.865 146.46 147.332 146.46 147.841C146.46 148.35 146.562 148.814 146.768 149.23C146.972 149.648 147.262 150.005 147.638 150.301C148.012 150.598 148.455 150.829 148.964 150.991C149.473 151.154 150.024 151.235 150.618 151.235H160.567ZM173.36 154.884H180L174.124 150.196C173.204 149.446 172.455 148.859 171.875 148.435C171.295 148.01 170.8 147.658 170.389 147.374C170.616 147.233 170.846 147.085 171.079 146.929C171.313 146.773 171.57 146.597 171.853 146.399C172.136 146.201 172.458 145.967 172.819 145.699C173.18 145.43 173.593 145.119 174.06 144.765L179.491 140.692H173.126L169.032 144.15C168.381 144.688 167.855 145.143 167.451 145.517C167.049 145.892 166.705 146.207 166.423 146.462C166.451 146.095 166.472 145.699 166.487 145.274C166.501 144.851 166.508 144.418 166.508 143.98V140.692H162.095V154.884H166.508V150.811C166.508 150.471 166.501 150.128 166.487 149.782C166.48 149.618 166.473 149.456 166.466 149.296C166.458 149.119 166.451 148.946 166.444 148.775C166.684 149.015 166.999 149.313 167.388 149.666C167.777 150.019 168.339 150.514 169.075 151.15L173.36 154.884Z" fill="url(#paint8_linear_4487_211408)"/>
<defs>
<linearGradient id="paint0_linear_4487_211408" x1="62.382" y1="71.7499" x2="116.861" y2="71.7499" gradientUnits="userSpaceOnUse">
<stop stop-color="#E9B873"/>
<stop offset="0.369792" stop-color="#FEDD8F"/>
<stop offset="1" stop-color="#B78D51"/>
</linearGradient>
<linearGradient id="paint1_linear_4487_211408" x1="62.3823" y1="36.36" x2="116.861" y2="36.36" gradientUnits="userSpaceOnUse">
<stop stop-color="#E9B873"/>
<stop offset="0.369792" stop-color="#FEDD8F"/>
<stop offset="1" stop-color="#B78D51"/>
</linearGradient>
<linearGradient id="paint2_linear_4487_211408" x1="117.218" y1="104.092" x2="143.985" y2="104.092" gradientUnits="userSpaceOnUse">
<stop stop-color="#A2ADB3"/>
<stop offset="0.348958" stop-color="#F3F1F2"/>
<stop offset="0.65625" stop-color="#BCC3C9"/>
<stop offset="1" stop-color="#DCDFE4"/>
</linearGradient>
<linearGradient id="paint3_linear_4487_211408" x1="120.291" y1="100.886" x2="140.909" y2="100.886" gradientUnits="userSpaceOnUse">
<stop stop-color="#A2ADB3"/>
<stop offset="0.348958" stop-color="#F3F1F2"/>
<stop offset="0.65625" stop-color="#BCC3C9"/>
<stop offset="1" stop-color="#DCDFE4"/>
</linearGradient>
<linearGradient id="paint4_linear_4487_211408" x1="120.291" y1="100.886" x2="140.909" y2="100.886" gradientUnits="userSpaceOnUse">
<stop stop-color="#A2ADB3"/>
<stop offset="0.348958" stop-color="#F3F1F2"/>
<stop offset="0.65625" stop-color="#BCC3C9"/>
<stop offset="1" stop-color="#DCDFE4"/>
</linearGradient>
<linearGradient id="paint5_linear_4487_211408" x1="120.291" y1="100.886" x2="140.909" y2="100.886" gradientUnits="userSpaceOnUse">
<stop stop-color="#A2ADB3"/>
<stop offset="0.348958" stop-color="#F3F1F2"/>
<stop offset="0.65625" stop-color="#BCC3C9"/>
<stop offset="1" stop-color="#DCDFE4"/>
</linearGradient>
<linearGradient id="paint6_linear_4487_211408" x1="120.291" y1="100.886" x2="140.909" y2="100.886" gradientUnits="userSpaceOnUse">
<stop stop-color="#A2ADB3"/>
<stop offset="0.348958" stop-color="#F3F1F2"/>
<stop offset="0.65625" stop-color="#BCC3C9"/>
<stop offset="1" stop-color="#DCDFE4"/>
</linearGradient>
<linearGradient id="paint7_linear_4487_211408" x1="121.522" y1="89.0057" x2="139.801" y2="89.0057" gradientUnits="userSpaceOnUse">
<stop stop-color="#A2ADB3"/>
<stop offset="0.348958" stop-color="#F3F1F2"/>
<stop offset="0.65625" stop-color="#BCC3C9"/>
<stop offset="1" stop-color="#DCDFE4"/>
</linearGradient>
<linearGradient id="paint8_linear_4487_211408" x1="0.343513" y1="147.788" x2="180.344" y2="147.788" gradientUnits="userSpaceOnUse">
<stop stop-color="#E9B873"/>
<stop offset="0.369792" stop-color="#FEDD8F"/>
<stop offset="1" stop-color="#B78D51"/>
</linearGradient>
</defs>
</svg>
