<svg width="250" height="220" viewBox="0 0 250 220" fill="none" xmlns="http://www.w3.org/2000/svg">
<path d="M14.3472 0.582789C11.6777 1.20412 9.48712 2.17907 7.6943 3.38124L7.97276 3.79652C5.83778 5.22812 4.28545 6.99073 3.16723 8.86073L2.7381 8.60412C1.39766 10.8457 0.664768 13.2341 0.302622 15.4012L0.795783 15.4836C0.581418 16.7664 0.5 17.9697 0.5 19.0123V23.1111H0V31.3086H0.5V39.5062H0V47.7037H0.5V55.9012H0V64.0988H0.5V72.2963H0V80.4938H0.5V88.6914H0V96.8889H0.5V105.086H0V113.284H0.5V121.481H0V129.679H0.5V137.877H0V146.074H0.5V154.272H0V162.469H0.5V170.667H0V178.864H0.5V187.062H0V195.259H0.5V199.358C0.5 200.689 0.580222 201.941 0.731113 203.118L0.23517 203.182C0.598516 206.017 1.36573 208.438 2.4162 210.486L2.86108 210.258C4.09601 212.665 5.73088 214.538 7.55859 215.949L7.25304 216.345C9.39245 217.996 11.7908 219.036 14.1364 219.567L14.2469 219.08C15.5107 219.366 16.7572 219.5 17.9339 219.5H22.0307V220H30.2243V219.5H38.4179V220H46.6115V219.5H54.8051V220H62.9987V219.5H71.1924V220H79.3859V219.5H87.5795V220H95.7732V219.5H103.967V220H112.16V219.5H120.354V220H128.548V219.5H136.741V220H144.935V219.5H153.128V220H161.322V219.5H169.516V220H177.709V219.5H185.903V220H194.096V219.5H202.29V220H210.484V219.5H218.677V220H226.871V219.5H230.956C232.301 219.441 233.549 219.275 234.709 219.02L234.817 219.508C237.618 218.891 239.93 217.76 241.83 216.319L241.527 215.92C243.636 214.321 245.227 212.323 246.412 210.219L246.848 210.465C248.223 208.023 249.056 205.453 249.516 203.204L249.026 203.104C249.318 201.677 249.456 200.387 249.488 199.351L249.474 195.358L249.974 195.356C249.964 192.794 249.955 190.112 249.946 187.328L249.446 187.33C249.437 184.726 249.428 182.033 249.419 179.265L249.919 179.264C249.911 176.652 249.903 173.973 249.895 171.239L249.395 171.24C249.387 168.606 249.379 165.92 249.372 163.195L249.872 163.193C249.864 160.544 249.857 157.858 249.85 155.143L249.35 155.144C249.343 152.49 249.336 149.808 249.33 147.109L249.83 147.108C249.824 144.441 249.818 141.757 249.812 139.065L249.312 139.066C249.306 136.391 249.301 133.707 249.295 131.023L249.795 131.022C249.79 128.338 249.785 125.654 249.781 122.979L249.281 122.98C249.276 120.286 249.272 117.601 249.269 114.935L249.769 114.934C249.765 112.232 249.762 109.549 249.759 106.894L249.259 106.894C249.256 104.183 249.254 101.502 249.252 98.8592L249.752 98.8589C249.75 96.1282 249.749 93.4392 249.749 90.8029L249.249 90.803C249.248 88.0651 249.248 85.384 249.249 82.7719L249.749 82.7721C249.75 80.0044 249.752 77.3142 249.755 74.7161L249.255 74.7156C249.258 71.9325 249.262 69.255 249.268 66.701L249.768 66.702C249.774 63.8517 249.781 61.1552 249.79 58.6374L249.29 58.6355C249.301 55.7023 249.314 53.0114 249.329 50.6022L249.829 50.6054C249.85 47.3794 249.875 44.6588 249.904 42.5378L249.405 42.5308C249.429 40.7817 249.457 39.4363 249.489 38.55C249.534 37.2789 249.442 36.063 249.232 34.9049L249.724 34.8157C249.256 32.2356 248.222 29.9284 246.829 27.9267L246.418 28.2124C244.993 26.1656 243.178 24.4421 241.205 23.0818L241.489 22.6702C239.305 21.1648 236.937 20.0986 234.689 19.5193L234.564 20.0035C233.298 19.6775 232.081 19.5123 230.968 19.5123H226.948V19.0123H218.91V19.5123H210.872V19.0123H202.833V19.5123H194.795V19.0123H186.757V19.5123H178.718V19.0123H170.68V19.5123H166.661H166.658C165.67 19.5123 163.515 19.5123 160.96 19.0168L161.056 18.5259C157.901 17.9141 154.127 16.5328 151.212 13.4142L150.847 13.7557C149.622 12.4464 148.548 10.8439 147.723 8.88546C147.028 7.2361 146.107 5.91646 145.049 4.85799L145.402 4.50445C142.812 1.91384 139.413 0.806935 136.376 0.338029L136.299 0.832176C134.413 0.540981 132.664 0.5 131.336 0.5H127.286V0H119.186V0.5H111.086V0H102.986V0.5H94.8856V0H86.7854V0.5H78.6853V0H70.5851V0.5H62.4849V0H54.3848V0.5H46.2846V0H38.1844V0.5H30.0842V0H21.9841V0.5H17.9587C16.7059 0.625049 15.5419 0.818097 14.4606 1.06977L14.3472 0.582789Z" stroke="#8B8682" stroke-dasharray="8 8"/>
</svg>
