<svg width="200" height="176" viewBox="0 0 200 176" fill="none" xmlns="http://www.w3.org/2000/svg">
<path id="Vector 4" d="M8.71406 1.34393C4.34202 3.15304 2.07415 6.3666 0.962534 9.51072L1.43394 9.67739C0.724635 11.6836 0.5 13.6654 0.5 15.2099V19.2176H0V27.2329H0.5V35.2483H0V43.2636H0.5V51.279H0V59.2944H0.5V67.3097H0V75.3251H0.5V83.3405H0V91.3558H0.5V99.3712H0V107.387H0.5V115.402H0V123.417H0.5V131.433H0V139.448H0.5V147.463H0V155.479H0.5V159.486C0.5 160.547 0.563936 161.545 0.684079 162.482L0.188135 162.546C0.478812 164.814 1.09258 166.751 1.93296 168.389L2.37784 168.161C3.35886 170.073 4.65709 171.56 6.10798 172.68L5.80244 173.076C7.51396 174.397 9.43265 175.229 11.3092 175.654L11.4196 175.166C12.4235 175.394 13.4133 175.5 14.3472 175.5H18.2205V176H25.9672V175.5H33.7139V176H41.4605V175.5H49.2072V176H56.9539V175.5H64.7006V176H72.4472V175.5H80.1939V176H87.9406V175.5H95.6873V176H103.434V175.5H111.181V176H118.927V175.5H126.674V176H134.421V175.5H142.167V176H149.914V175.5H157.661V176H165.407V175.5H173.154V176H180.901V175.5H184.763C185.832 175.453 186.825 175.321 187.746 175.118L187.853 175.606C190.095 175.113 191.944 174.208 193.464 173.055L193.161 172.657C194.836 171.386 196.1 169.8 197.043 168.126L197.478 168.372C198.579 166.418 199.244 164.363 199.613 162.563L199.123 162.463C199.355 161.328 199.465 160.302 199.491 159.48C199.486 158.189 199.481 156.853 199.476 155.475L199.976 155.473C199.967 152.925 199.958 150.236 199.948 147.43L199.448 147.432C199.44 144.846 199.431 142.161 199.423 139.399L199.923 139.397C199.915 136.783 199.907 134.098 199.899 131.361L199.399 131.363C199.392 128.724 199.385 126.037 199.378 123.316L199.878 123.314C199.871 120.661 199.865 117.975 199.858 115.272L199.358 115.273C199.352 112.605 199.346 109.92 199.341 107.231L199.841 107.23C199.836 104.549 199.831 101.864 199.826 99.1896L199.326 99.1904C199.322 96.4934 199.317 93.8067 199.314 91.1442L199.814 91.1435C199.81 88.433 199.807 85.7476 199.805 83.102L199.305 83.1025C199.302 80.3762 199.301 77.6922 199.3 75.0666L199.8 75.0664C199.799 72.3118 199.798 69.6215 199.799 67.0141L199.299 67.014C199.3 64.2294 199.302 61.5394 199.305 58.9667L199.805 58.9673C199.808 56.1339 199.813 53.4428 199.82 50.9243L199.32 50.923C199.328 48.0027 199.337 45.3143 199.35 42.9051L199.85 42.9076C199.866 39.6781 199.887 36.9506 199.913 34.839L199.413 34.8329C199.435 33.0342 199.461 31.6774 199.491 30.8365C199.527 29.8267 199.454 28.8612 199.287 27.9417L199.779 27.8526C199.405 25.7885 198.578 23.9427 197.463 22.3413L197.053 22.627C195.92 21.0006 194.477 19.63 192.907 18.5478L193.191 18.1361C191.444 16.9319 189.55 16.0788 187.751 15.6155L187.626 16.0997C186.621 15.8406 185.655 15.7099 184.774 15.7099H180.487V15.2099H171.913V15.7099H163.338V15.2099H154.764V15.7099H146.19V15.2099H137.616V15.7099H133.329H133.326C132.534 15.7099 130.803 15.7099 128.749 15.3116L128.844 14.8207C126.321 14.3313 123.302 13.2263 120.969 10.7314L120.604 11.0729C119.617 10.0168 118.751 8.72482 118.086 7.14719C117.535 5.8396 116.806 4.79472 115.968 3.9571L116.322 3.60356C114.249 1.53108 111.53 0.645549 109.1 0.270424L109.024 0.76457C107.522 0.532764 106.129 0.5 105.069 0.5H101.289V0H93.7289V0.5H86.1687V0H78.6086V0.5H71.0484V0H63.4882V0.5H55.9281V0H48.3679V0.5H40.8077V0H33.2476V0.5H25.6874V0H18.1272V0.5H14.372C12.2413 0.713106 10.4351 1.1729 8.90523 1.80594L8.71406 1.34393Z" stroke="#8B8682" stroke-dasharray="8 8"/>
</svg>
