<svg width="200" height="176" viewBox="0 0 200 176" fill="none" xmlns="http://www.w3.org/2000/svg">
<g clip-path="url(#clip0_2568_32664)">
<path d="M8.71406 1.34393C4.34202 3.15304 2.07415 6.3666 0.962534 9.51072L1.43394 9.67739C0.724635 11.6836 0.5 13.6654 0.5 15.2099V19.2176H0V27.2329H0.5V35.2483H0V43.2636H0.5V51.279H0V59.2944H0.5V67.3097H0V75.3251H0.5V83.3405H0V91.3558H0.5V99.3712H0V107.387H0.5V115.402H0V123.417H0.5V131.433H0V139.448H0.5V147.463H0V155.479H0.5V159.486C0.5 160.547 0.563936 161.545 0.684079 162.482L0.188135 162.546C0.478812 164.814 1.09258 166.751 1.93296 168.389L2.37784 168.161C3.35886 170.073 4.65709 171.56 6.10798 172.68L5.80244 173.076C7.51396 174.397 9.43265 175.229 11.3092 175.654L11.4196 175.166C12.4235 175.394 13.4133 175.5 14.3472 175.5H18.2205V176H25.9672V175.5H33.7139V176H41.4605V175.5H49.2072V176H56.9539V175.5H64.7006V176H72.4472V175.5H80.1939V176H87.9406V175.5H95.6873V176H103.434V175.5H111.181V176H118.927V175.5H126.674V176H134.421V175.5H142.167V176H149.914V175.5H157.661V176H165.407V175.5H173.154V176H180.901V175.5H184.763C185.832 175.453 186.825 175.321 187.746 175.118L187.853 175.606C190.095 175.113 191.944 174.208 193.464 173.055L193.161 172.657C194.836 171.386 196.1 169.8 197.043 168.126L197.478 168.372C198.579 166.418 199.244 164.363 199.613 162.563L199.123 162.463C199.355 161.328 199.465 160.302 199.491 159.48C199.486 158.189 199.481 156.853 199.476 155.475L199.976 155.473C199.967 152.925 199.958 150.236 199.948 147.43L199.448 147.432C199.44 144.846 199.431 142.161 199.423 139.399L199.923 139.397C199.915 136.783 199.907 134.098 199.899 131.361L199.399 131.363C199.392 128.724 199.385 126.037 199.378 123.316L199.878 123.314C199.871 120.661 199.865 117.975 199.858 115.272L199.358 115.273C199.352 112.605 199.346 109.92 199.341 107.231L199.841 107.23C199.836 104.549 199.831 101.864 199.826 99.1896L199.326 99.1904C199.322 96.4934 199.317 93.8067 199.314 91.1442L199.814 91.1435C199.81 88.433 199.807 85.7476 199.805 83.102L199.305 83.1025C199.302 80.3762 199.301 77.6922 199.3 75.0666L199.8 75.0664C199.799 72.3118 199.798 69.6215 199.799 67.0141L199.299 67.014C199.3 64.2294 199.302 61.5394 199.305 58.9667L199.805 58.9673C199.808 56.1339 199.813 53.4428 199.82 50.9243L199.32 50.923C199.328 48.0027 199.337 45.3143 199.35 42.9051L199.85 42.9076C199.866 39.6781 199.887 36.9506 199.913 34.839L199.413 34.8329C199.435 33.0342 199.461 31.6774 199.491 30.8365C199.527 29.8267 199.454 28.8612 199.287 27.9417L199.779 27.8526C199.405 25.7885 198.578 23.9427 197.463 22.3413L197.053 22.627C195.92 21.0006 194.477 19.63 192.907 18.5478L193.191 18.1361C191.444 16.9319 189.55 16.0788 187.751 15.6155L187.626 16.0997C186.621 15.8406 185.655 15.7099 184.774 15.7099H180.487V15.2099H171.913V15.7099H163.338V15.2099H154.764V15.7099H146.19V15.2099H137.616V15.7099H133.329H133.326C132.534 15.7099 130.803 15.7099 128.749 15.3116L128.844 14.8207C126.321 14.3313 123.302 13.2263 120.969 10.7314L120.604 11.0729C119.617 10.0168 118.751 8.72482 118.086 7.14719C117.535 5.8396 116.806 4.79472 115.968 3.9571L116.322 3.60356C114.249 1.53108 111.53 0.645549 109.1 0.270424L109.024 0.76457C107.522 0.532764 106.129 0.5 105.069 0.5H101.289V0H93.7289V0.5H86.1687V0H78.6086V0.5H71.0484V0H63.4882V0.5H55.9281V0H48.3679V0.5H40.8077V0H33.2476V0.5H25.6874V0H18.1272V0.5H14.372C12.2413 0.713106 10.4351 1.1729 8.90523 1.80594L8.71406 1.34393Z" stroke="#8B8682" stroke-dasharray="8 8"/>
<g clip-path="url(#clip1_2568_32664)">
<path d="M100.061 67L100.024 95" stroke="#8B8682" stroke-width="6" stroke-linecap="round" stroke-linejoin="round"/>
<path d="M86 81H114" stroke="#8B8682" stroke-width="6" stroke-linecap="round" stroke-linejoin="round"/>
</g>
<path d="M32.2339 127.084C31.6739 127.084 31.1699 126.988 30.7219 126.796C30.2739 126.596 29.9219 126.316 29.6659 125.956C29.4099 125.596 29.2819 125.176 29.2819 124.696H30.7459C30.7779 125.056 30.9179 125.352 31.1659 125.584C31.4219 125.816 31.7779 125.932 32.2339 125.932C32.7059 125.932 33.0739 125.82 33.3379 125.596C33.6019 125.364 33.7339 125.068 33.7339 124.708C33.7339 124.428 33.6499 124.2 33.4819 124.024C33.3219 123.848 33.1179 123.712 32.8699 123.616C32.6299 123.52 32.2939 123.416 31.8619 123.304C31.3179 123.16 30.8739 123.016 30.5299 122.872C30.1939 122.72 29.9059 122.488 29.6659 122.176C29.4259 121.864 29.3059 121.448 29.3059 120.928C29.3059 120.448 29.4259 120.028 29.6659 119.668C29.9059 119.308 30.2419 119.032 30.6739 118.84C31.1059 118.648 31.6059 118.552 32.1739 118.552C32.9819 118.552 33.6419 118.756 34.1539 119.164C34.6739 119.564 34.9619 120.116 35.0179 120.82H33.5059C33.4819 120.516 33.3379 120.256 33.0739 120.04C32.8099 119.824 32.4619 119.716 32.0299 119.716C31.6379 119.716 31.3179 119.816 31.0699 120.016C30.8219 120.216 30.6979 120.504 30.6979 120.88C30.6979 121.136 30.7739 121.348 30.9259 121.516C31.0859 121.676 31.2859 121.804 31.5259 121.9C31.7659 121.996 32.0939 122.1 32.5099 122.212C33.0619 122.364 33.5099 122.516 33.8539 122.668C34.2059 122.82 34.5019 123.056 34.7419 123.376C34.9899 123.688 35.1139 124.108 35.1139 124.636C35.1139 125.06 34.9979 125.46 34.7659 125.836C34.5419 126.212 34.2099 126.516 33.7699 126.748C33.3379 126.972 32.8259 127.084 32.2339 127.084ZM42.7881 123.532C42.7881 123.78 42.7721 124.004 42.7401 124.204H37.6881C37.7281 124.732 37.9241 125.156 38.2761 125.476C38.6281 125.796 39.0601 125.956 39.5721 125.956C40.3081 125.956 40.8281 125.648 41.1321 125.032H42.6081C42.4081 125.64 42.0441 126.14 41.5161 126.532C40.9961 126.916 40.3481 127.108 39.5721 127.108C38.9401 127.108 38.3721 126.968 37.8681 126.688C37.3721 126.4 36.9801 126 36.6921 125.488C36.4121 124.968 36.2721 124.368 36.2721 123.688C36.2721 123.008 36.4081 122.412 36.6801 121.9C36.9601 121.38 37.3481 120.98 37.8441 120.7C38.3481 120.42 38.9241 120.28 39.5721 120.28C40.1961 120.28 40.7521 120.416 41.2401 120.688C41.7281 120.96 42.1081 121.344 42.3801 121.84C42.6521 122.328 42.7881 122.892 42.7881 123.532ZM41.3601 123.1C41.3521 122.596 41.1721 122.192 40.8201 121.888C40.4681 121.584 40.0321 121.432 39.5121 121.432C39.0401 121.432 38.6361 121.584 38.3001 121.888C37.9641 122.184 37.7641 122.588 37.7001 123.1H41.3601ZM45.7304 121.504V125.164C45.7304 125.412 45.7864 125.592 45.8984 125.704C46.0184 125.808 46.2184 125.86 46.4984 125.86H47.3384V127H46.2584C45.6424 127 45.1704 126.856 44.8424 126.568C44.5144 126.28 44.3504 125.812 44.3504 125.164V121.504H43.5704V120.388H44.3504V118.744H45.7304V120.388H47.3384V121.504H45.7304ZM54.5872 120.388V127H53.2192V126.22C53.0032 126.492 52.7192 126.708 52.3672 126.868C52.0232 127.02 51.6552 127.096 51.2632 127.096C50.7432 127.096 50.2752 126.988 49.8592 126.772C49.4512 126.556 49.1272 126.236 48.8872 125.812C48.6552 125.388 48.5392 124.876 48.5392 124.276V120.388H49.8952V124.072C49.8952 124.664 50.0432 125.12 50.3392 125.44C50.6352 125.752 51.0392 125.908 51.5512 125.908C52.0632 125.908 52.4672 125.752 52.7632 125.44C53.0672 125.12 53.2192 124.664 53.2192 124.072V120.388H54.5872ZM57.7602 121.36C57.9922 121.056 58.3082 120.8 58.7082 120.592C59.1082 120.384 59.5602 120.28 60.0642 120.28C60.6402 120.28 61.1642 120.424 61.6362 120.712C62.1162 120.992 62.4922 121.388 62.7642 121.9C63.0362 122.412 63.1722 123 63.1722 123.664C63.1722 124.328 63.0362 124.924 62.7642 125.452C62.4922 125.972 62.1162 126.38 61.6362 126.676C61.1642 126.964 60.6402 127.108 60.0642 127.108C59.5602 127.108 59.1122 127.008 58.7202 126.808C58.3282 126.6 58.0082 126.344 57.7602 126.04V130.144H56.3922V120.388H57.7602V121.36ZM61.7802 123.664C61.7802 123.208 61.6842 122.816 61.4922 122.488C61.3082 122.152 61.0602 121.9 60.7482 121.732C60.4442 121.556 60.1162 121.468 59.7642 121.468C59.4202 121.468 59.0922 121.556 58.7802 121.732C58.4762 121.908 58.2282 122.164 58.0362 122.5C57.8522 122.836 57.7602 123.232 57.7602 123.688C57.7602 124.144 57.8522 124.544 58.0362 124.888C58.2282 125.224 58.4762 125.48 58.7802 125.656C59.0922 125.832 59.4202 125.92 59.7642 125.92C60.1162 125.92 60.4442 125.832 60.7482 125.656C61.0602 125.472 61.3082 125.208 61.4922 124.864C61.6842 124.52 61.7802 124.12 61.7802 123.664ZM67.1862 122.812C67.1862 121.996 67.3742 121.264 67.7502 120.616C68.1342 119.968 68.6502 119.464 69.2982 119.104C69.9542 118.736 70.6702 118.552 71.4462 118.552C72.3342 118.552 73.1222 118.772 73.8102 119.212C74.5062 119.644 75.0102 120.26 75.3222 121.06H73.6782C73.4622 120.62 73.1622 120.292 72.7782 120.076C72.3942 119.86 71.9502 119.752 71.4462 119.752C70.8942 119.752 70.4022 119.876 69.9702 120.124C69.5382 120.372 69.1982 120.728 68.9502 121.192C68.7102 121.656 68.5902 122.196 68.5902 122.812C68.5902 123.428 68.7102 123.968 68.9502 124.432C69.1982 124.896 69.5382 125.256 69.9702 125.512C70.4022 125.76 70.8942 125.884 71.4462 125.884C71.9502 125.884 72.3942 125.776 72.7782 125.56C73.1622 125.344 73.4622 125.016 73.6782 124.576H75.3222C75.0102 125.376 74.5062 125.992 73.8102 126.424C73.1222 126.856 72.3342 127.072 71.4462 127.072C70.6622 127.072 69.9462 126.892 69.2982 126.532C68.6502 126.164 68.1342 125.656 67.7502 125.008C67.3742 124.36 67.1862 123.628 67.1862 122.812ZM82.8754 120.388L78.8194 130.108H77.4034L78.7474 126.892L76.1434 120.388H77.6674L79.5274 125.428L81.4594 120.388H82.8754ZM85.2758 121.36C85.5078 121.056 85.8238 120.8 86.2238 120.592C86.6238 120.384 87.0758 120.28 87.5798 120.28C88.1558 120.28 88.6798 120.424 89.1518 120.712C89.6318 120.992 90.0078 121.388 90.2798 121.9C90.5518 122.412 90.6878 123 90.6878 123.664C90.6878 124.328 90.5518 124.924 90.2798 125.452C90.0078 125.972 89.6318 126.38 89.1518 126.676C88.6798 126.964 88.1558 127.108 87.5798 127.108C87.0758 127.108 86.6278 127.008 86.2358 126.808C85.8438 126.6 85.5238 126.344 85.2758 126.04V130.144H83.9078V120.388H85.2758V121.36ZM89.2958 123.664C89.2958 123.208 89.1998 122.816 89.0078 122.488C88.8238 122.152 88.5758 121.9 88.2638 121.732C87.9598 121.556 87.6318 121.468 87.2798 121.468C86.9358 121.468 86.6078 121.556 86.2958 121.732C85.9918 121.908 85.7438 122.164 85.5518 122.5C85.3678 122.836 85.2758 123.232 85.2758 123.688C85.2758 124.144 85.3678 124.544 85.5518 124.888C85.7438 125.224 85.9918 125.48 86.2958 125.656C86.6078 125.832 86.9358 125.92 87.2798 125.92C87.6318 125.92 87.9598 125.832 88.2638 125.656C88.5758 125.472 88.8238 125.208 89.0078 124.864C89.1998 124.52 89.2958 124.12 89.2958 123.664ZM95.4606 120.28C95.9646 120.28 96.4126 120.388 96.8046 120.604C97.2046 120.82 97.5166 121.14 97.7406 121.564C97.9726 121.988 98.0886 122.5 98.0886 123.1V127H96.7326V123.304C96.7326 122.712 96.5846 122.26 96.2886 121.948C95.9926 121.628 95.5886 121.468 95.0766 121.468C94.5646 121.468 94.1566 121.628 93.8526 121.948C93.5566 122.26 93.4086 122.712 93.4086 123.304V127H92.0406V118.12H93.4086V121.156C93.6406 120.876 93.9326 120.66 94.2846 120.508C94.6446 120.356 95.0366 120.28 95.4606 120.28ZM105.894 123.532C105.894 123.78 105.878 124.004 105.846 124.204H100.794C100.834 124.732 101.03 125.156 101.382 125.476C101.734 125.796 102.166 125.956 102.678 125.956C103.414 125.956 103.934 125.648 104.238 125.032H105.714C105.514 125.64 105.15 126.14 104.622 126.532C104.102 126.916 103.454 127.108 102.678 127.108C102.046 127.108 101.478 126.968 100.974 126.688C100.478 126.4 100.086 126 99.7976 125.488C99.5176 124.968 99.3776 124.368 99.3776 123.688C99.3776 123.008 99.5136 122.412 99.7856 121.9C100.066 121.38 100.454 120.98 100.95 120.7C101.454 120.42 102.03 120.28 102.678 120.28C103.302 120.28 103.858 120.416 104.346 120.688C104.834 120.96 105.214 121.344 105.486 121.84C105.758 122.328 105.894 122.892 105.894 123.532ZM104.466 123.1C104.458 122.596 104.278 122.192 103.926 121.888C103.574 121.584 103.138 121.432 102.618 121.432C102.146 121.432 101.742 121.584 101.406 121.888C101.07 122.184 100.87 122.588 100.806 123.1H104.466ZM108.608 121.348C108.808 121.012 109.072 120.752 109.4 120.568C109.736 120.376 110.132 120.28 110.588 120.28V121.696H110.24C109.704 121.696 109.296 121.832 109.016 122.104C108.744 122.376 108.608 122.848 108.608 123.52V127H107.24V120.388H108.608V121.348ZM114.713 127.108C114.089 127.108 113.525 126.968 113.021 126.688C112.517 126.4 112.121 126 111.833 125.488C111.545 124.968 111.401 124.368 111.401 123.688C111.401 123.016 111.549 122.42 111.845 121.9C112.141 121.38 112.545 120.98 113.057 120.7C113.569 120.42 114.141 120.28 114.773 120.28C115.405 120.28 115.977 120.42 116.489 120.7C117.001 120.98 117.405 121.38 117.701 121.9C117.997 122.42 118.145 123.016 118.145 123.688C118.145 124.36 117.993 124.956 117.689 125.476C117.385 125.996 116.969 126.4 116.441 126.688C115.921 126.968 115.345 127.108 114.713 127.108ZM114.713 125.92C115.065 125.92 115.393 125.836 115.697 125.668C116.009 125.5 116.261 125.248 116.453 124.912C116.645 124.576 116.741 124.168 116.741 123.688C116.741 123.208 116.649 122.804 116.465 122.476C116.281 122.14 116.037 121.888 115.733 121.72C115.429 121.552 115.101 121.468 114.749 121.468C114.397 121.468 114.069 121.552 113.765 121.72C113.469 121.888 113.233 122.14 113.057 122.476C112.881 122.804 112.793 123.208 112.793 123.688C112.793 124.4 112.973 124.952 113.333 125.344C113.701 125.728 114.161 125.92 114.713 125.92ZM119.042 123.688C119.042 123.008 119.178 122.412 119.45 121.9C119.73 121.38 120.114 120.98 120.602 120.7C121.09 120.42 121.65 120.28 122.282 120.28C123.082 120.28 123.742 120.472 124.262 120.856C124.79 121.232 125.146 121.772 125.33 122.476H123.854C123.734 122.148 123.542 121.892 123.278 121.708C123.014 121.524 122.682 121.432 122.282 121.432C121.722 121.432 121.274 121.632 120.938 122.032C120.61 122.424 120.446 122.976 120.446 123.688C120.446 124.4 120.61 124.956 120.938 125.356C121.274 125.756 121.722 125.956 122.282 125.956C123.074 125.956 123.598 125.608 123.854 124.912H125.33C125.138 125.584 124.778 126.12 124.25 126.52C123.722 126.912 123.066 127.108 122.282 127.108C121.65 127.108 121.09 126.968 120.602 126.688C120.114 126.4 119.73 126 119.45 125.488C119.178 124.968 119.042 124.368 119.042 123.688ZM129.309 123.7L132.357 127H130.509L128.061 124.156V127H126.693V118.12H128.061V123.28L130.461 120.388H132.357L129.309 123.7ZM135.999 122.812C135.999 121.996 136.187 121.264 136.563 120.616C136.947 119.968 137.463 119.464 138.111 119.104C138.767 118.736 139.483 118.552 140.259 118.552C141.147 118.552 141.935 118.772 142.623 119.212C143.319 119.644 143.823 120.26 144.135 121.06H142.491C142.275 120.62 141.975 120.292 141.591 120.076C141.207 119.86 140.763 119.752 140.259 119.752C139.707 119.752 139.215 119.876 138.783 120.124C138.351 120.372 138.011 120.728 137.763 121.192C137.523 121.656 137.403 122.196 137.403 122.812C137.403 123.428 137.523 123.968 137.763 124.432C138.011 124.896 138.351 125.256 138.783 125.512C139.215 125.76 139.707 125.884 140.259 125.884C140.763 125.884 141.207 125.776 141.591 125.56C141.975 125.344 142.275 125.016 142.491 124.576H144.135C143.823 125.376 143.319 125.992 142.623 126.424C141.935 126.856 141.147 127.072 140.259 127.072C139.475 127.072 138.759 126.892 138.111 126.532C137.463 126.164 136.947 125.656 136.563 125.008C136.187 124.36 135.999 123.628 135.999 122.812ZM148.604 127.108C147.98 127.108 147.416 126.968 146.912 126.688C146.408 126.4 146.012 126 145.724 125.488C145.436 124.968 145.292 124.368 145.292 123.688C145.292 123.016 145.44 122.42 145.736 121.9C146.032 121.38 146.436 120.98 146.948 120.7C147.46 120.42 148.032 120.28 148.664 120.28C149.296 120.28 149.868 120.42 150.38 120.7C150.892 120.98 151.296 121.38 151.592 121.9C151.888 122.42 152.036 123.016 152.036 123.688C152.036 124.36 151.884 124.956 151.58 125.476C151.276 125.996 150.86 126.4 150.332 126.688C149.812 126.968 149.236 127.108 148.604 127.108ZM148.604 125.92C148.956 125.92 149.284 125.836 149.588 125.668C149.9 125.5 150.152 125.248 150.344 124.912C150.536 124.576 150.632 124.168 150.632 123.688C150.632 123.208 150.54 122.804 150.356 122.476C150.172 122.14 149.928 121.888 149.624 121.72C149.32 121.552 148.992 121.468 148.64 121.468C148.288 121.468 147.96 121.552 147.656 121.72C147.36 121.888 147.124 122.14 146.948 122.476C146.772 122.804 146.684 123.208 146.684 123.688C146.684 124.4 146.864 124.952 147.224 125.344C147.592 125.728 148.052 125.92 148.604 125.92ZM155.944 125.776L157.816 120.388H159.268L156.748 127H155.116L152.608 120.388H154.072L155.944 125.776ZM166.362 123.532C166.362 123.78 166.346 124.004 166.314 124.204H161.262C161.302 124.732 161.498 125.156 161.85 125.476C162.202 125.796 162.634 125.956 163.146 125.956C163.882 125.956 164.402 125.648 164.706 125.032H166.182C165.982 125.64 165.618 126.14 165.09 126.532C164.57 126.916 163.922 127.108 163.146 127.108C162.514 127.108 161.946 126.968 161.442 126.688C160.946 126.4 160.554 126 160.266 125.488C159.986 124.968 159.846 124.368 159.846 123.688C159.846 123.008 159.982 122.412 160.254 121.9C160.534 121.38 160.922 120.98 161.418 120.7C161.922 120.42 162.498 120.28 163.146 120.28C163.77 120.28 164.326 120.416 164.814 120.688C165.302 120.96 165.682 121.344 165.954 121.84C166.226 122.328 166.362 122.892 166.362 123.532ZM164.934 123.1C164.926 122.596 164.746 122.192 164.394 121.888C164.042 121.584 163.606 121.432 163.086 121.432C162.614 121.432 162.21 121.584 161.874 121.888C161.538 122.184 161.338 122.588 161.274 123.1H164.934ZM169.077 121.348C169.277 121.012 169.541 120.752 169.869 120.568C170.205 120.376 170.601 120.28 171.057 120.28V121.696H170.709C170.173 121.696 169.765 121.832 169.485 122.104C169.213 122.376 169.077 122.848 169.077 123.52V127H167.709V120.388H169.077V121.348Z" fill="white"/>
</g>
<defs>
<clipPath id="clip0_2568_32664">
<rect width="200" height="176" fill="white"/>
</clipPath>
<clipPath id="clip1_2568_32664">
<rect width="34" height="34" fill="white" transform="translate(83 64)"/>
</clipPath>
</defs>
</svg>
