<svg width="44" height="40" viewBox="0 0 44 40" fill="none" xmlns="http://www.w3.org/2000/svg">
<path d="M43.1685 18.8315C43.1685 17.9076 42.8333 17.0924 42.163 16.3859L40.125 14.3478C39.4366 13.6594 38.6123 13.3152 37.6522 13.3152C36.6739 13.3152 35.8587 13.6594 35.2065 14.3478L27.2174 22.3098V3.17935C27.2174 2.23732 26.8777 1.47192 26.1984 0.883152C25.519 0.294384 24.6993 0 23.7391 0H20.2609C19.3007 0 18.481 0.294384 17.8016 0.883152C17.1223 1.47192 16.7826 2.23732 16.7826 3.17935V22.3098L8.79347 14.3478C8.14129 13.6594 7.32608 13.3152 6.34782 13.3152C5.36956 13.3152 4.55434 13.6594 3.90216 14.3478L1.86412 16.3859C1.17572 17.0743 0.831512 17.8895 0.831512 18.8315C0.831512 19.7917 1.17572 20.6159 1.86412 21.3043L19.5543 38.9946C20.1884 39.6649 21.0036 40 22 40C22.9783 40 23.8025 39.6649 24.4728 38.9946L42.163 21.3043C42.8333 20.5978 43.1685 19.7736 43.1685 18.8315Z" fill="url(#paint0_linear_2_2510)"/>
<defs>
<linearGradient id="paint0_linear_2_2510" x1="1.5405" y1="9.74358" x2="43.1685" y2="9.74358" gradientUnits="userSpaceOnUse">
<stop stop-color="#A2ADB3"/>
<stop offset="0.348958" stop-color="#F3F1F2"/>
<stop offset="0.65625" stop-color="#BCC3C9"/>
<stop offset="1" stop-color="#DCDFE4"/>
</linearGradient>
</defs>
</svg>
