<svg width="56" height="49" viewBox="0 0 56 49" fill="none" xmlns="http://www.w3.org/2000/svg">
<g clip-path="url(#clip0_5578_9085)">
<path d="M49.4225 23.4443L51.8285 25.921L39.3233 38.8343L31.1292 30.4385L33.5355 27.9615L39.1453 33.6965L39.325 33.8802L39.5037 33.6955L49.4225 23.4443Z" fill="#8B8682" stroke="#8B8682" stroke-width="0.5"/>
<path d="M46.7706 15.5395L46.7705 15.5394C42.8372 14.6247 38.6879 14.6538 34.7653 15.6094L46.7706 15.5395ZM46.7706 15.5395L55.7495 17.6242V33.5335C55.7495 37.2178 53.8118 40.629 50.7073 42.4422C50.7072 42.4422 50.7072 42.4422 50.7072 42.4422L40.8235 48.209L31.3729 42.4564L46.7706 15.5395ZM26.4922 17.6336L34.7651 15.6094L31.3727 42.4563C28.3631 40.6203 26.4922 37.2431 26.4922 33.6394V17.6336ZM49.5648 40.3385L49.5649 40.3384C51.9411 38.951 53.4149 36.3438 53.4149 33.5336C53.4149 33.5335 53.4149 33.5335 53.4149 33.5335L53.4207 19.7554L53.4207 19.5568L53.2272 19.5118L46.2665 17.8939L46.2664 17.8939C42.6736 17.0614 38.8907 17.0852 35.3096 17.9593L35.3093 17.9594L29.0229 19.5007L28.8325 19.5474V19.7435V33.6394C28.8325 36.3894 30.2591 38.9658 32.5641 40.3713L32.5642 40.3713L40.725 45.3425L40.8523 45.42L40.9811 45.3449L49.5648 40.3385Z" fill="#8B8682" stroke="#8B8682" stroke-width="0.5"/>
<path d="M51.6867 8.05387V13.6575L49.3522 13.1148V9.83055V9.37813L48.9691 9.61889L44.8336 12.2183C43.4746 12.041 42.1083 11.9558 40.7406 11.9629L49.2294 6.63007L49.3464 6.55656V6.41837V4.51226C49.3464 3.781 48.767 3.17389 48.0392 3.17389H3.88611C3.15834 3.17389 2.57886 3.781 2.57886 4.51226V6.41837V6.55656L2.69587 6.63007L23.8839 19.9406V22.7681L19.455 19.9849L19.2572 19.8606L19.1198 20.0495L6.7071 37.1163L6.41832 37.5133H6.90928H24.4092C24.6618 38.3567 25.0014 39.168 25.422 39.9313H3.89183C1.88813 39.9313 0.25 38.2502 0.25 36.175V8.05387V4.50637C0.25 2.42577 1.89337 0.75 3.89183 0.75H48.0449C50.0486 0.75 51.6867 2.43116 51.6867 4.50637V8.05387ZM3.3333 37.3892L3.52058 37.478L3.64251 37.3104L17.0953 18.8199L17.2528 18.6035L17.0262 18.4611L2.96186 9.62475L2.57886 9.38412V9.83644V36.175C2.57886 36.7127 2.88585 37.1772 3.3333 37.3892Z" fill="#8B8682" stroke="#8B8682" stroke-width="0.5"/>
</g>
<defs>
<clipPath id="clip0_5578_9085">
<rect width="56" height="48" fill="white" transform="translate(0 0.5)"/>
</clipPath>
</defs>
</svg>
