<svg width="56" height="48" viewBox="0 0 56 48" fill="none" xmlns="http://www.w3.org/2000/svg">
<g id="Group">
<path id="Vector" d="M49.4225 22.9443L51.8285 25.421L39.3233 38.3343L31.1292 29.9385L33.5355 27.4615L39.1453 33.1965L39.325 33.3802L39.5037 33.1955L49.4225 22.9443Z" fill="#8B8682" stroke="#8B8682" stroke-width="0.5"/>
<path id="Vector_2" d="M46.8276 14.7959C42.8558 13.8723 38.6668 13.9017 34.7064 14.8665L26.2427 16.9374V33.1394C26.2427 36.828 28.1572 40.2873 31.2432 42.1699L40.8213 48L50.8338 42.1581C54.0169 40.2991 56 36.8045 56 33.0335V16.9256L46.8276 14.7959ZM53.1654 33.0335C53.1654 35.7573 51.7367 38.2812 49.4393 39.6225L40.8556 44.629L32.6948 39.6578C30.466 38.2988 29.083 35.8044 29.083 33.1394V19.2435L35.3693 17.7022C38.9125 16.8374 42.6558 16.8138 46.2104 17.6375L53.1711 19.2553L53.1654 33.0335Z" fill="#8B8682"/>
<path id="Vector_3" d="M51.6867 7.55387V13.1575L49.3522 12.6148V9.33055V8.87813L48.9691 9.11889L44.8336 11.7183C43.4746 11.541 42.1083 11.4558 40.7406 11.4629L49.2294 6.13007L49.3464 6.05656V5.91837V4.01226C49.3464 3.281 48.767 2.67389 48.0392 2.67389H3.88611C3.15834 2.67389 2.57886 3.281 2.57886 4.01226V5.91837V6.05656L2.69587 6.13007L23.8839 19.4406V22.2681L19.455 19.4849L19.2572 19.3606L19.1198 19.5495L6.7071 36.6163L6.41832 37.0133H6.90928H24.4092C24.6618 37.8567 25.0014 38.668 25.422 39.4313H3.89183C1.88813 39.4313 0.25 37.7502 0.25 35.675V7.55387V4.00637C0.25 1.92577 1.89337 0.25 3.89183 0.25H48.0449C50.0486 0.25 51.6867 1.93116 51.6867 4.00637V7.55387ZM3.3333 36.8892L3.52058 36.978L3.64251 36.8104L17.0953 18.3199L17.2528 18.1035L17.0262 17.9611L2.96186 9.12475L2.57886 8.88412V9.33644V35.675C2.57886 36.2127 2.88585 36.6772 3.3333 36.8892Z" fill="#8B8682" stroke="#8B8682" stroke-width="0.5"/>
</g>
</svg>
