<svg width="24" height="21" viewBox="0 0 24 21" fill="none" xmlns="http://www.w3.org/2000/svg">
<g clip-path="url(#clip0_7_18846)">
<path d="M14.1169 1.48411C13.4581 2.09587 12.9404 3.17823 12.9404 3.83705C12.9404 4.49587 13.4581 5.57823 14.1169 6.18999C15.1051 7.22529 15.6698 7.36646 18.3522 7.36646C21.0345 7.36646 21.5993 7.22529 22.5875 6.18999C23.2463 5.57823 23.764 4.49587 23.764 3.83705C23.764 3.17823 23.2463 2.09587 22.5875 1.48411C21.5993 0.448815 21.0345 0.307639 18.3522 0.307639C15.6698 0.307639 15.1051 0.448815 14.1169 1.48411ZM21.9757 2.04882C23.011 2.98999 23.0581 4.44882 22.0228 5.57823C20.9875 6.70764 15.9993 6.80176 14.7287 5.62529C13.6934 4.68411 13.6463 3.22529 14.6816 2.09587C15.7169 0.966463 20.7051 0.872345 21.9757 2.04882Z" fill="url(#paint0_linear_7_18846)"/>
<path d="M15.2939 3.83705C15.2939 4.21352 15.6234 4.54293 15.9998 4.54293C16.3763 4.54293 16.7057 4.21352 16.7057 3.83705C16.7057 3.46058 16.3763 3.13117 15.9998 3.13117C15.6234 3.13117 15.2939 3.46058 15.2939 3.83705Z" fill="url(#paint1_linear_7_18846)"/>
<path d="M17.6465 3.83705C17.6465 4.21352 17.9759 4.54293 18.3524 4.54293C18.7288 4.54293 19.0582 4.21352 19.0582 3.83705C19.0582 3.46058 18.7288 3.13117 18.3524 3.13117C17.9759 3.13117 17.6465 3.46058 17.6465 3.83705Z" fill="url(#paint2_linear_7_18846)"/>
<path d="M20 3.83705C20 4.21352 20.3294 4.54293 20.7059 4.54293C21.0824 4.54293 21.4118 4.21352 21.4118 3.83705C21.4118 3.46058 21.0824 3.13117 20.7059 3.13117C20.3294 3.13117 20 3.46058 20 3.83705Z" fill="url(#paint3_linear_7_18846)"/>
<path d="M1.17606 4.54294C0.328999 5.39 0.234882 6.09588 0.234882 11.8371C0.234882 20.59 -0.51806 20.0723 11.529 20.0723C23.3878 20.0723 22.8231 20.4018 22.8231 13.0135C22.8231 9.86058 22.6349 7.83705 22.3525 7.83705C22.0702 7.83705 21.8819 9.86058 21.8819 12.9194C21.8819 16.2606 21.6937 18.19 21.3172 18.5665C20.5172 19.3665 2.54076 19.3665 1.74076 18.5665C1.36429 18.19 1.17606 15.9782 1.17606 11.6959V5.34294L4.8937 8.91941C8.75253 12.6371 10.5878 13.4841 13.2231 12.8253C14.6819 12.4488 18.9172 8.63705 18.1172 8.40176C17.8349 8.30764 16.8466 8.96646 15.9525 9.90764C14.1172 11.79 11.7172 12.4488 9.74076 11.6488C8.98782 11.3194 6.91723 9.62529 5.17606 7.83705L1.929 4.54294H6.96429C10.0231 4.54294 11.9996 4.3547 11.9996 4.07235C11.9996 3.79 10.0231 3.60176 7.05841 3.60176C2.729 3.60176 1.97606 3.74294 1.17606 4.54294Z" fill="#8B8682"/>
</g>
<defs>
<linearGradient id="paint0_linear_7_18846" x1="12.9611" y1="3.83705" x2="23.7846" y2="3.83705" gradientUnits="userSpaceOnUse">
<stop stop-color="#E9B873"/>
<stop offset="0.369792" stop-color="#FEDD8F"/>
<stop offset="1" stop-color="#B78D51"/>
</linearGradient>
<linearGradient id="paint1_linear_7_18846" x1="15.2966" y1="3.83705" x2="16.7084" y2="3.83705" gradientUnits="userSpaceOnUse">
<stop stop-color="#E9B873"/>
<stop offset="0.369792" stop-color="#FEDD8F"/>
<stop offset="1" stop-color="#B78D51"/>
</linearGradient>
<linearGradient id="paint2_linear_7_18846" x1="17.6492" y1="3.83705" x2="19.0609" y2="3.83705" gradientUnits="userSpaceOnUse">
<stop stop-color="#E9B873"/>
<stop offset="0.369792" stop-color="#FEDD8F"/>
<stop offset="1" stop-color="#B78D51"/>
</linearGradient>
<linearGradient id="paint3_linear_7_18846" x1="20.0027" y1="3.83705" x2="21.4145" y2="3.83705" gradientUnits="userSpaceOnUse">
<stop stop-color="#E9B873"/>
<stop offset="0.369792" stop-color="#FEDD8F"/>
<stop offset="1" stop-color="#B78D51"/>
</linearGradient>
<clipPath id="clip0_7_18846">
<rect width="24" height="20.1176" fill="white" transform="translate(0 0.307638)"/>
</clipPath>
</defs>
</svg>
