<svg width="54" height="48" viewBox="0 0 54 48" fill="none" xmlns="http://www.w3.org/2000/svg">
<path d="M26.9402 33.649C26.4671 33.649 26.0047 33.7893 25.6114 34.0521C25.2181 34.3149 24.9115 34.6884 24.7305 35.1255C24.5494 35.5625 24.5021 36.0434 24.5944 36.5074C24.6866 36.9714 24.9144 37.3975 25.2489 37.732C25.5834 38.0665 26.0096 38.2943 26.4736 38.3866C26.9375 38.4789 27.4184 38.4315 27.8555 38.2505C28.2925 38.0695 28.6661 37.7629 28.9289 37.3696C29.1917 36.9763 29.332 36.5138 29.332 36.0408C29.332 35.4064 29.08 34.7981 28.6314 34.3495C28.1829 33.901 27.5745 33.649 26.9402 33.649ZM52.4604 37.1649L33.2066 3.68006C32.5843 2.56433 31.6754 1.63499 30.5737 0.988041C29.4721 0.341093 28.2177 0 26.9402 0C25.6626 0 24.4082 0.341093 23.3066 0.988041C22.205 1.63499 21.296 2.56433 20.6737 3.68006L1.53953 37.1649C0.89565 38.2508 0.549672 39.4874 0.536522 40.7498C0.523372 42.0121 0.843515 43.2556 1.46463 44.3547C2.08574 45.4538 2.98584 46.3695 4.07405 47.0095C5.16226 47.6495 6.40006 47.991 7.66247 47.9996H46.2179C47.4904 48.0122 48.7434 47.6861 49.8484 47.0547C50.9533 46.4233 51.8705 45.5095 52.5058 44.4068C53.1411 43.3041 53.4718 42.0523 53.4638 40.7797C53.4558 39.5071 53.1095 38.2595 52.4604 37.1649ZM48.3226 41.9485C48.113 42.3215 47.8071 42.6314 47.4369 42.8459C47.0667 43.0605 46.6457 43.1718 46.2179 43.1683H7.66247C7.23461 43.1718 6.81363 43.0605 6.44343 42.8459C6.07322 42.6314 5.76735 42.3215 5.55771 41.9485C5.34779 41.5849 5.23727 41.1724 5.23727 40.7526C5.23727 40.3327 5.34779 39.9203 5.55771 39.5567L24.6919 6.07183C24.8926 5.68006 25.1976 5.35127 25.5731 5.12168C25.9487 4.8921 26.3804 4.77061 26.8206 4.77061C27.2608 4.77061 27.6924 4.8921 28.068 5.12168C28.4436 5.35127 28.7486 5.68006 28.9493 6.07183L48.2031 39.5567C48.4404 39.9151 48.5767 40.3308 48.5977 40.7601C48.6188 41.1894 48.5238 41.6164 48.3226 41.9963V41.9485ZM26.9402 14.5148C26.3058 14.5148 25.6975 14.7668 25.2489 15.2153C24.8004 15.6639 24.5484 16.2722 24.5484 16.9066V26.4737C24.5484 27.108 24.8004 27.7164 25.2489 28.1649C25.6975 28.6135 26.3058 28.8655 26.9402 28.8655C27.5745 28.8655 28.1829 28.6135 28.6314 28.1649C29.08 27.7164 29.332 27.108 29.332 26.4737V16.9066C29.332 16.2722 29.08 15.6639 28.6314 15.2153C28.1829 14.7668 27.5745 14.5148 26.9402 14.5148Z" fill="#FF624C"/>
</svg>
