<svg
        width="32"
        height="32"
        viewBox="0 0 32 32"
        fill="none"
        xmlns="http://www.w3.org/2000/svg"
>
    <g id="icons8-ethereum 1">
        <path
                id="Vector"
                d="M16.0313 3.00005C15.9319 3.00169 15.8349 3.03095 15.7512 3.08456C15.6674 3.13817 15.6002 3.21402 15.5571 3.30362L8.09134 15.0362C8.07903 15.0543 8.06784 15.0732 8.05784 15.0927C8.05749 15.0931 8.05714 15.0934 8.05679 15.0938C8.04903 15.1095 8.04204 15.1255 8.03586 15.1419C8.02299 15.1754 8.01352 15.2101 8.00759 15.2455C8.00159 15.2808 7.99914 15.3166 8.00027 15.3523C8.00027 15.3527 8.00027 15.353 8.00027 15.3534C8.00081 15.3709 8.0022 15.3883 8.00445 15.4057C8.00512 15.4092 8.00581 15.4127 8.00655 15.4162C8.01084 15.4428 8.01714 15.469 8.02539 15.4947C8.02672 15.4996 8.02811 15.5045 8.02958 15.5093C8.02958 15.5097 8.02958 15.51 8.02958 15.5104C8.03539 15.5271 8.04203 15.5435 8.04947 15.5596C8.04946 15.5599 8.04946 15.5603 8.04947 15.5606C8.05708 15.5764 8.06547 15.5918 8.07459 15.6067C8.07459 15.607 8.07459 15.6074 8.07459 15.6077C8.08363 15.6229 8.09341 15.6375 8.1039 15.6517C8.10899 15.6581 8.11422 15.6644 8.1196 15.6706C8.12567 15.6784 8.13195 15.6861 8.13844 15.6936C8.15003 15.7067 8.16226 15.7193 8.17508 15.7313C8.17543 15.7316 8.17578 15.732 8.17613 15.7323C8.20226 15.756 8.23066 15.777 8.26092 15.7951C8.26127 15.7955 8.26162 15.7958 8.26197 15.7962C8.26475 15.7976 8.26754 15.799 8.27034 15.8004C8.27069 15.8007 8.27104 15.8011 8.27139 15.8014L15.7068 20.0504C15.801 20.1247 15.9173 20.1653 16.0373 20.1657C16.1572 20.166 16.2738 20.1262 16.3684 20.0525L23.7976 15.8066C23.8014 15.8046 23.8053 15.8025 23.8091 15.8004C23.8209 15.7935 23.8324 15.7861 23.8436 15.7784C23.8471 15.776 23.8506 15.7735 23.8541 15.771C23.8566 15.769 23.859 15.7669 23.8614 15.7648C23.8725 15.7571 23.8834 15.7491 23.8939 15.7407C23.8946 15.74 23.8953 15.7393 23.896 15.7386C23.8981 15.7369 23.9002 15.7351 23.9022 15.7334C23.9135 15.723 23.9243 15.7122 23.9347 15.7009C23.9469 15.6879 23.9584 15.6743 23.9692 15.6601C23.9797 15.6463 23.9895 15.6319 23.9986 15.6172C23.9989 15.6168 23.9993 15.6165 23.9996 15.6161C24 15.6151 24.0003 15.614 24.0006 15.613C24.0097 15.5991 24.0181 15.5847 24.0258 15.5701C24.0258 15.5697 24.0258 15.5694 24.0258 15.569C24.0318 15.5567 24.0374 15.5441 24.0425 15.5313C24.044 15.5275 24.0454 15.5237 24.0467 15.5198C24.0482 15.5156 24.0495 15.5115 24.0509 15.5072C24.0548 15.4952 24.0583 15.4829 24.0614 15.4706C24.0617 15.4699 24.0621 15.4692 24.0624 15.4685C24.0628 15.4675 24.0631 15.4664 24.0635 15.4654C24.0674 15.4491 24.0705 15.4327 24.0729 15.4162C24.0751 15.4026 24.0769 15.389 24.0781 15.3754C24.0781 15.374 24.0781 15.3726 24.0781 15.3712C24.0792 15.3548 24.0796 15.3384 24.0792 15.322C24.0788 15.3115 24.0781 15.301 24.0771 15.2906C24.0764 15.2794 24.0753 15.2682 24.0739 15.2571C24.0739 15.2567 24.0739 15.2564 24.0739 15.256C24.0736 15.2543 24.0732 15.2525 24.0729 15.2508C24.0704 15.2357 24.0672 15.2206 24.0635 15.2058C24.0635 15.2051 24.0635 15.2044 24.0635 15.2037C24.0601 15.1903 24.0563 15.177 24.0519 15.1639C24.0506 15.16 24.0492 15.1562 24.0478 15.1524C24.0461 15.1482 24.0443 15.144 24.0425 15.1398C24.0381 15.1278 24.0332 15.1159 24.0279 15.1042C24.0275 15.1039 24.0272 15.1035 24.0268 15.1032C24.0265 15.1021 24.0261 15.1011 24.0258 15.1C24.0181 15.085 24.0097 15.0703 24.0006 15.0561C23.9996 15.0543 23.9986 15.0526 23.9975 15.0508C23.9968 15.0494 23.9961 15.048 23.9954 15.0467L23.9787 15.0215L16.5202 3.30048C16.4756 3.20923 16.4059 3.13254 16.3194 3.07935C16.2328 3.02616 16.1329 2.99866 16.0313 3.00005ZM15.5037 5.38467V11.7649L9.92115 14.1569L15.5037 5.38467ZM16.5757 5.38467L22.1583 14.1569L16.5757 11.7649V5.38467ZM15.5037 12.9311V18.6979L9.73796 15.4036L15.5037 12.9311ZM16.5757 12.9311L22.3415 15.4036L16.5757 18.6979V12.9311ZM23.5474 17.4773C23.4526 17.4768 23.3595 17.5013 23.2773 17.5485L16.0397 21.6844L8.80212 17.5485C8.72418 17.5041 8.63636 17.48 8.5467 17.4784C8.44664 17.4764 8.34803 17.5025 8.26203 17.5537C8.17604 17.6049 8.1061 17.6792 8.06012 17.7681C8.01415 17.857 7.99398 17.957 8.0019 18.0567C8.00983 18.1565 8.04552 18.252 8.10495 18.3326L15.5728 28.4677C15.6195 28.5503 15.6872 28.619 15.7691 28.6668C15.851 28.7146 15.9441 28.7399 16.0389 28.74C16.1337 28.7401 16.2269 28.7151 16.3088 28.6674C16.3908 28.6198 16.4587 28.5512 16.5055 28.4688L23.9745 18.3326C24.0334 18.253 24.0692 18.1587 24.0779 18.0601C24.0865 17.9615 24.0677 17.8624 24.0234 17.7739C23.9792 17.6853 23.9113 17.6107 23.8273 17.5584C23.7433 17.506 23.6464 17.478 23.5474 17.4773ZM10.4728 19.7384L15.5037 22.614V26.5667L10.4728 19.7384ZM21.6066 19.7384L16.5757 26.5667V22.614L21.6066 19.7384Z"
                fill="#288FED"
        />
        <rect
                x="1"
                y="1"
                width="30"
                height="30"
                rx="15"
                stroke="#288FED"
                stroke-width="2"
        />
    </g>
</svg>
