<svg width="18" height="16" viewBox="0 0 18 16" fill="none" xmlns="http://www.w3.org/2000/svg">
<path d="M15.9369 16L13.0159 13.079C11.7556 13.6535 10.3848 13.9416 9.00002 13.9259C7.57261 13.9433 6.16 13.6352 4.86925 13.0251C3.8689 12.537 2.97064 11.863 2.22245 11.0389C1.42822 10.1876 0.80399 9.19228 0.383363 8.10662L0.296326 7.83332L0.387714 7.55829C1.01683 5.95358 2.07558 4.55304 3.44793 3.5102L1.1667 1.22896L2.39653 0L17.1658 14.7693L15.9386 16H15.9369V16ZM4.67951 4.74264C3.56711 5.52242 2.68867 6.59105 2.1389 7.83332C2.71501 9.16253 3.6771 10.288 4.90046 11.064C6.12382 11.8399 7.55204 12.2305 9.00002 12.1852C9.91376 12.1927 10.8222 12.0455 11.6869 11.75L10.1202 10.1833C9.77204 10.3539 9.38908 10.4436 9.00002 10.4444C8.30885 10.4401 7.64722 10.1636 7.15848 9.67487C6.66974 9.18612 6.39325 8.52449 6.38891 7.83332C6.38891 7.44427 6.47856 7.06044 6.65002 6.71055L4.67951 4.74264ZM15.8342 10.9754L14.6226 9.76467C15.1323 9.18842 15.5501 8.53697 15.8611 7.83332C15.2858 6.50354 14.3239 5.37749 13.1004 4.60142C11.8768 3.82536 10.4482 3.43515 9.00002 3.48148C8.78504 3.48148 8.56919 3.48931 8.3603 3.50411L6.8241 1.96616C7.53954 1.81298 8.26891 1.73726 9.00002 1.74074C10.4274 1.72333 11.84 2.03144 13.1308 2.64157C14.1317 3.12898 15.0291 3.80351 15.7776 4.62775C16.5714 5.47807 17.1956 6.47213 17.6167 7.55655L17.7037 7.83332L17.6123 8.10836C17.2048 9.16855 16.602 10.1428 15.835 10.9806L15.8342 10.9754V10.9754Z" fill="#8B8682"/>
</svg>
