<svg width="20" height="16" viewBox="0 0 20 16" fill="none" xmlns="http://www.w3.org/2000/svg">
<path d="M9.99998 14.0933C8.57236 14.1107 7.15954 13.8025 5.86859 13.1923C4.86813 12.7042 3.96974 12.03 3.2214 11.2058C2.42877 10.3537 1.80465 9.35921 1.38203 8.27487L1.29498 7.9998L1.38639 7.72472C1.80927 6.64131 2.43204 5.64706 3.22227 4.79374C3.97033 3.96965 4.86842 3.29549 5.86859 2.80726C7.15929 2.19669 8.57226 1.88855 9.99998 1.9063C11.4276 1.88889 12.8404 2.19704 14.1314 2.80726C15.1325 3.29474 16.0299 3.96938 16.7786 4.79374C17.5725 5.64509 18.1975 6.6392 18.6179 7.72472L18.705 7.9998L18.6136 8.27487C17.9469 10.0104 16.7632 11.4992 15.2226 12.5398C13.682 13.5805 11.8589 14.1228 9.99998 14.0933ZM9.99998 3.6473C8.55179 3.60192 7.12335 3.99257 5.8998 4.76864C4.67626 5.5447 3.71403 6.67039 3.13783 7.9998C3.71393 9.32927 4.67614 10.455 5.89971 11.2311C7.12327 12.0072 8.55176 12.3978 9.99998 12.3523C11.4482 12.3976 12.8765 12.0068 14.1001 11.2308C15.3236 10.4548 16.2858 9.32913 16.8621 7.9998C16.2867 6.66981 15.3247 5.54359 14.1009 4.76741C12.8772 3.99123 11.4484 3.60096 9.99998 3.6473ZM9.99998 10.6113C9.39101 10.6153 8.79953 10.4078 8.32656 10.0242C7.85359 9.64058 7.52847 9.10466 7.40673 8.50797C7.285 7.91128 7.37419 7.29083 7.65908 6.75259C7.94398 6.21436 8.4069 5.79173 8.96877 5.55688C9.53065 5.32203 10.1566 5.28954 10.7398 5.46495C11.323 5.64036 11.8272 6.0128 12.1663 6.51865C12.5053 7.02449 12.6583 7.63237 12.599 8.23846C12.5397 8.84455 12.2718 9.41125 11.8411 9.84177C11.6003 10.0854 11.3136 10.2788 10.9976 10.4109C10.6816 10.543 10.3425 10.6111 9.99998 10.6113Z" fill="#8B8682"/>
</svg>
