<svg width="20" height="19" viewBox="0 0 20 19" fill="none" xmlns="http://www.w3.org/2000/svg">
<path d="M17.97 18.385L14.614 15.029C13.166 15.689 11.591 16.02 10 16.002C8.36 16.022 6.737 15.668 5.254 14.967C4.10467 14.4063 3.07262 13.6318 2.213 12.685C1.30047 11.7069 0.583275 10.5634 0.0999999 9.31601L0 9.00201L0.105 8.68601C0.82781 6.84231 2.04426 5.23318 3.621 4.03501L1 1.41401L2.413 0.00201416L19.382 16.971L17.972 18.385H17.97ZM5.036 5.45101C3.75792 6.34693 2.74865 7.57472 2.117 9.00201C2.77892 10.5292 3.8843 11.8223 5.28986 12.7139C6.69542 13.6054 8.33636 14.0541 10 14.002C11.0498 14.0106 12.0936 13.8416 13.087 13.502L11.287 11.702C10.887 11.898 10.447 12.001 10 12.002C9.20589 11.997 8.44572 11.6794 7.88418 11.1178C7.32265 10.5563 7.00498 9.79613 7 9.00201C7 8.55501 7.103 8.11401 7.3 7.71201L5.036 5.45101ZM17.852 12.612L16.46 11.221C17.0456 10.5589 17.5256 9.81046 17.883 9.00201C17.222 7.47418 16.1168 6.18041 14.711 5.28876C13.3053 4.39711 11.6639 3.94879 10 4.00201C9.753 4.00201 9.505 4.01101 9.265 4.02801L7.5 2.26101C8.322 2.08501 9.16 1.99801 10 2.00201C11.64 1.98201 13.263 2.33601 14.746 3.03701C15.896 3.59701 16.927 4.37201 17.787 5.31901C18.6991 6.29598 19.4163 7.43809 19.9 8.68401L20 9.00201L19.895 9.31801C19.4268 10.5361 18.7342 11.6555 17.853 12.618L17.852 12.612Z" fill="#8B8682"/>
</svg>
