<svg width="20" height="16" viewBox="0 0 20 16" fill="none" xmlns="http://www.w3.org/2000/svg">
<path d="M10 0C8.41775 0 6.87103 0.469192 5.55544 1.34824C4.23985 2.22729 3.21447 3.47672 2.60897 4.93853C2.00347 6.40034 1.84504 8.00887 2.15372 9.56072C2.4624 11.1126 3.22433 12.538 4.34315 13.6569C5.46197 14.7757 6.88743 15.5376 8.43928 15.8463C9.99113 16.155 11.5997 15.9965 13.0615 15.391C14.5233 14.7855 15.7727 13.7602 16.6518 12.4446C17.5308 11.129 18 9.58225 18 8C17.998 5.87887 17.1546 3.84518 15.6547 2.34531C14.1548 0.845446 12.1211 0.00196129 10 0ZM10 14.2222C8.76936 14.2222 7.56636 13.8573 6.54312 13.1736C5.51988 12.4899 4.72236 11.5181 4.25142 10.3811C3.78047 9.24418 3.65725 7.9931 3.89734 6.7861C4.13743 5.57911 4.73003 4.47042 5.60023 3.60022C6.47042 2.73003 7.57911 2.13742 8.78611 1.89734C9.9931 1.65725 11.2442 1.78047 12.3811 2.25142C13.5181 2.72236 14.4899 3.51988 15.1736 4.54312C15.8573 5.56636 16.2222 6.76936 16.2222 8C16.2203 9.64963 15.5641 11.2311 14.3976 12.3976C13.2311 13.5641 11.6496 14.2203 10 14.2222ZM11.4815 11.5556C11.4815 11.7913 11.3878 12.0174 11.2211 12.1841C11.0544 12.3508 10.8283 12.4444 10.5926 12.4444H10C9.76425 12.4444 9.53816 12.3508 9.37146 12.1841C9.20476 12.0174 9.11111 11.7913 9.11111 11.5556V8.54074C8.93737 8.48047 8.78682 8.36737 8.68056 8.21727C8.57429 8.06718 8.51764 7.8876 8.51852 7.7037C8.51852 7.46795 8.61217 7.24186 8.77887 7.07516C8.94557 6.90846 9.17166 6.81481 9.40741 6.81481H10C10.2358 6.81481 10.4618 6.90846 10.6285 7.07516C10.7952 7.24186 10.8889 7.46795 10.8889 7.7037V10.7185C11.0626 10.7788 11.2132 10.8919 11.3194 11.042C11.4257 11.1921 11.4824 11.3717 11.4815 11.5556ZM8.66667 4.74074C8.66667 4.50633 8.73618 4.27719 8.86641 4.08229C8.99664 3.88738 9.18174 3.73548 9.3983 3.64577C9.61487 3.55607 9.85317 3.5326 10.0831 3.57833C10.313 3.62406 10.5242 3.73694 10.6899 3.90269C10.8557 4.06844 10.9685 4.27962 11.0143 4.50952C11.06 4.73943 11.0365 4.97773 10.9468 5.19429C10.8571 5.41085 10.7052 5.59596 10.5103 5.72618C10.3154 5.85641 10.0863 5.92592 9.85185 5.92592C9.53752 5.92592 9.23607 5.80106 9.0138 5.57879C8.79154 5.35653 8.66667 5.05507 8.66667 4.74074Z" fill="#F1AE4A"/>
</svg>
