<svg width="48" height="49" viewBox="0 0 48 49" fill="none" xmlns="http://www.w3.org/2000/svg">
<g id="Group 1">
<circle id="Ellipse 1" cx="24" cy="24.5" r="22.5" stroke="url(#paint0_linear_5288_45219)" stroke-width="3"/>
<path id="Path 142" d="M22.7404 32.9371C22.1749 33.501 21.4088 33.8177 20.6101 33.8177C19.8114 33.8177 19.0453 33.501 18.4797 32.9371L11.8819 26.3498C11.3172 25.7851 11 25.0193 11 24.2207C11 23.4222 11.3172 22.6564 11.8819 22.0917C12.4465 21.5271 13.2124 21.2098 14.0109 21.2098C14.8094 21.2098 15.5753 21.5271 16.1399 22.0917L20.0712 26.0178C20.2143 26.1594 20.4075 26.2388 20.6088 26.2388C20.81 26.2388 21.0032 26.1594 21.1463 26.0178L31.794 15.3832C32.0734 15.1034 32.4052 14.8814 32.7704 14.7299C33.1356 14.5784 33.5271 14.5002 33.9225 14.5C34.3179 14.4998 34.7095 14.5774 35.0749 14.7285C35.4403 14.8796 35.7723 15.1011 36.0521 15.3806C36.3318 15.66 36.5538 15.9917 36.7053 16.357C36.8569 16.7222 36.935 17.1136 36.9353 17.509C36.9355 17.9044 36.8579 18.296 36.7068 18.6614C36.5557 19.0268 36.3341 19.3588 36.0547 19.6386L22.7404 32.9371Z" fill="url(#paint1_linear_5288_45219)"/>
</g>
<defs>
<linearGradient id="paint0_linear_5288_45219" x1="0.0916034" y1="24.5" x2="48.0916" y2="24.5" gradientUnits="userSpaceOnUse">
<stop stop-color="#E9B873"/>
<stop offset="0.369792" stop-color="#FEDD8F"/>
<stop offset="1" stop-color="#B78D51"/>
</linearGradient>
<linearGradient id="paint1_linear_5288_45219" x1="11.0495" y1="24.1589" x2="36.9847" y2="24.1589" gradientUnits="userSpaceOnUse">
<stop stop-color="#E9B873"/>
<stop offset="0.369792" stop-color="#FEDD8F"/>
<stop offset="1" stop-color="#B78D51"/>
</linearGradient>
</defs>
</svg>
