<svg width="16" height="17" viewBox="0 0 16 17" fill="none" xmlns="http://www.w3.org/2000/svg">
<path d="M8 0.5C6.41775 0.5 4.87103 0.969192 3.55544 1.84824C2.23985 2.72729 1.21447 3.97672 0.608967 5.43853C0.00346629 6.90034 -0.15496 8.50887 0.153721 10.0607C0.462403 11.6126 1.22433 13.038 2.34315 14.1569C3.46197 15.2757 4.88743 16.0376 6.43928 16.3463C7.99113 16.655 9.59966 16.4965 11.0615 15.891C12.5233 15.2855 13.7727 14.2602 14.6518 12.9446C15.5308 11.629 16 10.0822 16 8.5C15.998 6.37887 15.1546 4.34518 13.6547 2.84531C12.1548 1.34545 10.1211 0.501961 8 0.5ZM8 14.7222C6.76936 14.7222 5.56636 14.3573 4.54312 13.6736C3.51988 12.9899 2.72236 12.0181 2.25142 10.8811C1.78047 9.74418 1.65725 8.4931 1.89734 7.2861C2.13743 6.07911 2.73003 4.97042 3.60023 4.10022C4.47042 3.23003 5.57911 2.63742 6.78611 2.39734C7.9931 2.15725 9.24418 2.28047 10.3811 2.75142C11.5181 3.22236 12.4899 4.01988 13.1736 5.04312C13.8573 6.06636 14.2222 7.26936 14.2222 8.5C14.2203 10.1496 13.5641 11.7311 12.3976 12.8976C11.2311 14.0641 9.64964 14.7203 8 14.7222ZM9.48148 12.0556C9.48148 12.2913 9.38783 12.5174 9.22113 12.6841C9.05443 12.8508 8.82834 12.9444 8.59259 12.9444H8C7.76425 12.9444 7.53816 12.8508 7.37146 12.6841C7.20476 12.5174 7.11111 12.2913 7.11111 12.0556V9.04074C6.93737 8.98047 6.78682 8.86737 6.68056 8.71727C6.57429 8.56718 6.51764 8.3876 6.51852 8.2037C6.51852 7.96795 6.61217 7.74186 6.77887 7.57516C6.94557 7.40846 7.17166 7.31481 7.40741 7.31481H8C8.23575 7.31481 8.46184 7.40846 8.62854 7.57516C8.79524 7.74186 8.88889 7.96795 8.88889 8.2037V11.2185C9.06264 11.2788 9.21318 11.3919 9.31945 11.542C9.42571 11.6921 9.48237 11.8717 9.48148 12.0556ZM6.66667 5.24074C6.66667 5.00633 6.73618 4.77719 6.86641 4.58229C6.99664 4.38738 7.18174 4.23548 7.3983 4.14577C7.61487 4.05607 7.85317 4.0326 8.08307 4.07833C8.31297 4.12406 8.52415 4.23694 8.68991 4.40269C8.85566 4.56844 8.96854 4.77962 9.01427 5.00952C9.06 5.23943 9.03653 5.47773 8.94682 5.69429C8.85712 5.91085 8.70521 6.09596 8.51031 6.22618C8.3154 6.35641 8.08626 6.42592 7.85185 6.42592C7.53752 6.42592 7.23607 6.30106 7.0138 6.07879C6.79154 5.85653 6.66667 5.55507 6.66667 5.24074Z" fill="#F1AE4A"/>
</svg>
