<svg width="15" height="12" viewBox="0 0 15 12" fill="none" xmlns="http://www.w3.org/2000/svg">
<path d="M7.5 0C6.31331 0 5.15328 0.351894 4.16658 1.01118C3.17989 1.67047 2.41085 2.60754 1.95673 3.7039C1.5026 4.80026 1.38378 6.00665 1.61529 7.17054C1.8468 8.33443 2.41825 9.40352 3.25736 10.2426C4.09648 11.0818 5.16557 11.6532 6.32946 11.8847C7.49335 12.1162 8.69974 11.9974 9.7961 11.5433C10.8925 11.0891 11.8295 10.3201 12.4888 9.33342C13.1481 8.34672 13.5 7.18669 13.5 6C13.4985 4.40915 12.8659 2.88388 11.741 1.75898C10.6161 0.634084 9.09085 0.00147096 7.5 0ZM7.5 10.6667C6.57702 10.6667 5.67477 10.393 4.90734 9.88019C4.13991 9.36741 3.54177 8.63858 3.18856 7.78585C2.83536 6.93313 2.74294 5.99482 2.923 5.08958C3.10307 4.18433 3.54753 3.35281 4.20017 2.70017C4.85282 2.04752 5.68434 1.60307 6.58958 1.423C7.49482 1.24294 8.43314 1.33535 9.28586 1.68856C10.1386 2.04177 10.8674 2.63991 11.3802 3.40734C11.893 4.17477 12.1667 5.07702 12.1667 6C12.1652 7.23722 11.6731 8.42336 10.7982 9.29821C9.92336 10.1731 8.73723 10.6652 7.5 10.6667ZM8.61111 8.66667C8.61111 8.84348 8.54087 9.01305 8.41585 9.13807C8.29083 9.26309 8.12126 9.33333 7.94445 9.33333H7.5C7.32319 9.33333 7.15362 9.26309 7.0286 9.13807C6.90357 9.01305 6.83333 8.84348 6.83333 8.66667V6.40555C6.70302 6.36035 6.59011 6.27553 6.51042 6.16295C6.43072 6.05038 6.38823 5.9157 6.38889 5.77778C6.38889 5.60097 6.45913 5.4314 6.58415 5.30637C6.70918 5.18135 6.87875 5.11111 7.05556 5.11111H7.5C7.67681 5.11111 7.84638 5.18135 7.97141 5.30637C8.09643 5.4314 8.16667 5.60097 8.16667 5.77778V8.03889C8.29698 8.08409 8.40989 8.16892 8.48959 8.28149C8.56928 8.39406 8.61177 8.52874 8.61111 8.66667ZM6.5 3.55555C6.5 3.37975 6.55213 3.20789 6.64981 3.06171C6.74748 2.91554 6.8863 2.80161 7.04873 2.73433C7.21115 2.66705 7.38988 2.64945 7.5623 2.68375C7.73473 2.71804 7.89312 2.8027 8.01743 2.92702C8.14174 3.05133 8.2264 3.20971 8.2607 3.38214C8.295 3.55457 8.27739 3.73329 8.21012 3.89572C8.14284 4.05814 8.02891 4.19697 7.88273 4.29464C7.73655 4.39231 7.5647 4.44444 7.38889 4.44444C7.15314 4.44444 6.92705 4.35079 6.76035 4.18409C6.59365 4.0174 6.5 3.7913 6.5 3.55555Z" fill="#F1AE4A"/>
</svg>
