<svg width="35" height="36" viewBox="0 0 35 36" fill="none" xmlns="http://www.w3.org/2000/svg">
<path d="M16.8853 0.632269C16.536 0.283006 16.0623 0.0867904 15.5684 0.0867905C15.0744 0.0867904 14.6007 0.283006 14.2515 0.632269C13.9022 0.981533 13.706 1.45524 13.706 1.94917C13.706 2.4431 13.9022 2.91681 14.2515 3.26607L26.8805 15.8951H2.51787C2.26196 15.8753 2.00472 15.9087 1.76229 15.993C1.51987 16.0773 1.29749 16.2109 1.10913 16.3852C0.920758 16.5596 0.770465 16.771 0.66768 17.0062C0.564896 17.2414 0.511839 17.4953 0.511839 17.752C0.511839 18.0087 0.564896 18.2626 0.66768 18.4978C0.770465 18.733 0.920756 18.9444 1.10912 19.1187C1.29749 19.2931 1.51987 19.4266 1.7623 19.511C2.00472 19.5953 2.26196 19.6286 2.51787 19.6088L26.8805 19.6088L14.2515 32.2379C13.9022 32.5871 13.706 33.0609 13.706 33.5548C13.706 34.0487 13.9022 34.5224 14.2515 34.8717C14.6007 35.221 15.0744 35.4172 15.5684 35.4172C16.0623 35.4172 16.536 35.221 16.8853 34.8717L34.005 17.752L16.8853 0.632269Z" fill="#8B8682"/>
</svg>
