<svg width="20" height="16" viewBox="0 0 20 16" fill="none" xmlns="http://www.w3.org/2000/svg">
<path d="M14.5715 5.33333H13.8095V3.80952C13.8095 1.70667 12.1029 0 10 0C7.89717 0 6.1905 1.70667 6.1905 3.80952H7.71431C7.71431 2.54476 8.73526 1.52381 10 1.52381C11.2648 1.52381 12.2857 2.54476 12.2857 3.80952V5.33333H5.42859C4.5905 5.33333 3.90479 6.01905 3.90479 6.85714V14.4762C3.90479 15.3143 4.5905 16 5.42859 16H14.5715C15.4095 16 16.0953 15.3143 16.0953 14.4762V6.85714C16.0953 6.01905 15.4095 5.33333 14.5715 5.33333ZM14.5715 14.4762H5.42859V6.85714H14.5715V14.4762ZM10 12.1905C10.8381 12.1905 11.5238 11.5048 11.5238 10.6667C11.5238 9.82857 10.8381 9.14286 10 9.14286C9.16193 9.14286 8.47621 9.82857 8.47621 10.6667C8.47621 11.5048 9.16193 12.1905 10 12.1905Z" fill="#8B8682"/>
</svg>
