<svg width="296" height="232" viewBox="0 0 296 232" fill="none" xmlns="http://www.w3.org/2000/svg">
<circle cx="148" cy="88" r="88" fill="#39322C"/>
<path d="M152.559 128.785L160.542 141.118L192.198 94.3032H161.433L138.335 128.418L116.55 97.3994L130.353 97.295L141.958 113.722L146.002 107.582L134.291 90.944H103L138.174 140.961L165.421 100.653H179.175L160.275 128.26L156.652 122.696L152.559 128.785Z" fill="url(#paint0_linear_1214_84103)"/>
<path d="M138.335 45.7009L161.433 79.8154H192.198L160.542 33L152.559 45.3335L156.652 51.4214L160.275 45.8585L179.175 73.4644H165.421L138.174 33.1575L103 83.174H134.291L146.002 66.5371L141.958 60.396L130.353 76.824L116.55 76.7185L138.335 45.7009Z" fill="url(#paint1_linear_1214_84103)"/>
<path fill-rule="evenodd" clip-rule="evenodd" d="M226.081 210.882C223.245 208.961 219 208 213.351 208C207.678 208 203.429 208.961 200.604 210.882C197.779 212.805 196.366 215.837 196.366 219.982C196.366 224.151 197.773 227.195 200.586 229.116C203.399 231.039 207.655 232 213.351 232C219.025 232 223.272 231.039 226.097 229.116C228.924 227.195 230.337 224.151 230.337 219.982C230.337 215.837 228.918 212.805 226.081 210.882ZM217.935 225.73C216.686 225.882 215.157 225.956 213.351 225.956C211.545 225.956 210.017 225.882 208.767 225.73C207.516 225.581 206.503 225.285 205.727 224.845C204.951 224.404 204.39 223.797 204.043 223.022C203.694 222.245 203.521 221.232 203.521 219.982C203.521 218.731 203.694 217.72 204.043 216.943C204.39 216.169 204.951 215.566 205.727 215.137C206.503 214.708 207.516 214.419 208.767 214.268C210.017 214.118 211.545 214.042 213.351 214.042C215.157 214.042 216.686 214.118 217.935 214.268C219.187 214.419 220.198 214.708 220.976 215.137C221.75 215.566 222.312 216.169 222.66 216.943C223.007 217.72 223.181 218.731 223.181 219.982C223.181 221.232 223.007 222.245 222.66 223.022C222.312 223.797 221.75 224.404 220.976 224.845C220.198 225.285 219.187 225.581 217.935 225.73ZM30.9303 225.644L26.3109 231.618H14.6403C12.6267 231.618 10.7628 231.317 9.04875 230.715C7.33466 230.112 5.85885 229.286 4.61991 228.231C3.38233 227.178 2.40888 225.927 1.70227 224.481C0.997015 223.034 0.643066 221.464 0.643066 219.773C0.643066 218.084 0.997015 216.538 1.70227 215.136C2.40888 213.737 3.38233 212.532 4.61991 211.524C5.85885 210.518 7.33466 209.742 9.04875 209.197C10.7628 208.654 12.6267 208.381 14.6403 208.381H30.9303L26.3109 214.425H14.6403C13.6682 214.425 12.7656 214.563 11.9324 214.841C11.0991 215.12 10.3803 215.508 9.77851 216.005C9.1754 216.503 8.70157 217.099 8.35443 217.794C8.00725 218.488 7.83295 219.253 7.83295 220.086C7.83295 220.92 8.00043 221.679 8.33673 222.361C8.67161 223.045 9.14681 223.63 9.76081 224.115C10.3734 224.601 11.0991 224.978 11.9324 225.244C12.7656 225.511 13.6682 225.644 14.6403 225.644H30.9303ZM66.7062 208.381L52.9158 223.943V231.617H45.6919V223.907L31.5203 208.381H40.7593L46.3168 214.841C46.5019 215.049 46.7457 215.323 47.0466 215.658C47.3474 215.994 47.6606 216.348 47.9846 216.717C48.3087 217.089 48.6095 217.435 48.8873 217.76C49.165 218.084 49.3624 218.328 49.4781 218.488C49.7096 218.166 50.0458 217.725 50.4856 217.169C50.924 216.614 51.5625 215.827 52.3958 214.807L57.6742 208.381H66.7062ZM95.9173 220.625C96.4266 219.571 96.6812 218.396 96.6812 217.099C96.6812 215.803 96.4266 214.622 95.9173 213.556C95.4068 212.492 94.6676 211.577 93.6954 210.813C92.722 210.048 91.5293 209.453 90.1175 209.024C88.7043 208.595 87.095 208.381 85.2897 208.381H70.7016L65.9432 214.425H85.9486C87.061 214.425 87.9228 214.663 88.5368 215.137C89.1509 215.612 89.4572 216.255 89.4572 217.065C89.4572 217.875 89.1509 218.523 88.5368 219.009C87.9228 219.496 87.061 219.739 85.9486 219.739H65.9432V231.618H73.0978V225.679H85.2543C87.061 225.679 88.6689 225.469 90.0821 225.054C91.4939 224.636 92.692 224.057 93.6777 223.317C94.6621 222.575 95.4068 221.679 95.9173 220.625ZM128.532 231.618H121.376V222.657H107.553V231.618H100.328V208.382H107.553V216.613H121.376V208.382H128.532V231.618ZM155.31 231.618L159.93 225.644H140.166V222.484H154.443L158.575 217.204H140.166V214.425H155.205L159.86 208.381H132.943V231.618H155.31ZM195.36 231.618H185.738L180.563 225.469H169.518V231.618H162.328V219.739H182.543C183.654 219.739 184.592 219.507 185.356 219.045C186.121 218.582 186.502 217.944 186.502 217.134C186.502 216.23 186.155 215.554 185.46 215.102C184.766 214.651 183.793 214.425 182.543 214.425H162.328L167.016 208.382H181.952C183.271 208.382 184.638 208.503 186.05 208.746C187.462 208.989 188.748 209.423 189.906 210.048C191.064 210.673 192.019 211.518 192.771 212.584C193.523 213.65 193.9 215.016 193.9 216.682C193.9 217.585 193.761 218.443 193.483 219.253C193.206 220.064 192.805 220.794 192.285 221.441C191.764 222.09 191.128 222.639 190.375 223.091C189.622 223.541 188.771 223.861 187.823 224.045C188.216 224.347 188.656 224.729 189.142 225.192C189.628 225.656 190.276 226.293 191.086 227.103L195.36 231.618ZM263.54 225.644L258.92 231.618H247.25C245.236 231.618 243.372 231.317 241.658 230.715C239.944 230.112 238.468 229.286 237.229 228.231C235.992 227.178 235.018 225.927 234.312 224.481C233.606 223.034 233.252 221.464 233.252 219.773C233.252 218.084 233.606 216.538 234.312 215.136C235.018 213.737 235.992 212.532 237.229 211.524C238.468 210.518 239.944 209.742 241.658 209.197C243.372 208.654 245.236 208.381 247.25 208.381H263.54L258.92 214.425H247.25C246.277 214.425 245.375 214.563 244.542 214.841C243.708 215.12 242.989 215.508 242.388 216.005C241.785 216.503 241.311 217.099 240.964 217.794C240.616 218.488 240.442 219.253 240.442 220.086C240.442 220.92 240.61 221.679 240.946 222.361C241.281 223.045 241.756 223.63 242.37 224.115C242.983 224.601 243.708 224.978 244.542 225.244C245.375 225.511 246.277 225.644 247.25 225.644H263.54ZM284.486 231.618H295.357L285.736 223.942C284.23 222.715 283.003 221.754 282.054 221.06C281.104 220.364 280.294 219.787 279.621 219.322C279.993 219.091 280.369 218.848 280.75 218.594C281.134 218.338 281.555 218.049 282.019 217.725C282.482 217.401 283.009 217.019 283.6 216.579C284.19 216.139 284.867 215.63 285.631 215.05L294.524 208.382H284.102L277.399 214.043C276.333 214.923 275.473 215.669 274.811 216.282C274.152 216.896 273.59 217.411 273.127 217.829C273.173 217.227 273.207 216.579 273.232 215.883C273.255 215.19 273.266 214.482 273.266 213.765V208.382H266.042V231.618H273.266V224.949C273.266 224.392 273.255 223.831 273.232 223.264C273.22 222.995 273.209 222.73 273.198 222.469C273.186 222.18 273.173 221.895 273.161 221.615C273.555 222.008 274.071 222.496 274.708 223.075C275.345 223.652 276.265 224.463 277.469 225.505L284.486 231.618Z" fill="url(#paint2_linear_1214_84103)"/>
<defs>
<linearGradient id="paint0_linear_1214_84103" x1="103.17" y1="116.031" x2="192.368" y2="116.031" gradientUnits="userSpaceOnUse">
<stop stop-color="#E9B873"/>
<stop offset="0.369792" stop-color="#FEDD8F"/>
<stop offset="1" stop-color="#B78D51"/>
</linearGradient>
<linearGradient id="paint1_linear_1214_84103" x1="103.17" y1="58.087" x2="192.368" y2="58.087" gradientUnits="userSpaceOnUse">
<stop stop-color="#E9B873"/>
<stop offset="0.369792" stop-color="#FEDD8F"/>
<stop offset="1" stop-color="#B78D51"/>
</linearGradient>
<linearGradient id="paint2_linear_1214_84103" x1="1.2055" y1="220" x2="295.92" y2="220" gradientUnits="userSpaceOnUse">
<stop stop-color="#E9B873"/>
<stop offset="0.369792" stop-color="#FEDD8F"/>
<stop offset="1" stop-color="#B78D51"/>
</linearGradient>
</defs>
</svg>
