<svg width="199" height="128" viewBox="0 0 199 128" fill="none" xmlns="http://www.w3.org/2000/svg">
<g clip-path="url(#clip0_2_2131)">
<path d="M120.169 196.707L-63.3134 90.7735C-70.2652 86.7599 -76.3385 81.8824 -80.1974 77.2139C-84.0562 72.5454 -85.3844 68.4683 -83.8899 65.8797L-44.4433 -2.44373C-42.9488 -5.03238 -38.7539 -5.9206 -32.7814 -4.91299C-26.8089 -3.90539 -19.5482 -1.0845 -12.5964 2.92911L170.886 108.862C177.837 112.876 183.911 117.754 187.769 122.422C191.628 127.091 192.957 131.168 191.462 133.756L152.015 202.08C150.521 204.668 146.326 205.557 140.353 204.549C134.381 203.541 127.12 200.72 120.169 196.707Z" stroke="#413830" stroke-width="1.5"/>
<path d="M-72.6195 46.3587L11.2579 94.7854C15.596 97.29 18.4037 100.72 19.4644 103.271C20.9723 106.894 25.9564 113.032 41.1067 121.779C56.2571 130.526 64.0616 131.779 67.956 131.268C70.696 130.911 75.0703 131.628 79.4084 134.132L163.286 182.559M-50.0786 7.31677L185.827 143.517M-61.3491 26.8378L174.556 163.038" stroke="#413830" stroke-width="1.5"/>
</g>
<defs>
<clipPath id="clip0_2_2131">
<rect width="274" height="106.144" fill="white" transform="translate(-38.3235 -14.6438) rotate(30)"/>
</clipPath>
</defs>
</svg>
