<svg width="276" height="47" viewBox="0 0 276 47" fill="none" xmlns="http://www.w3.org/2000/svg">
<g clip-path="url(#clip0_2_2113)">
<path d="M243.933 46.6935H32.0667C24.0395 46.6935 16.341 46.1505 10.6649 45.1839C4.98885 44.2173 1.80005 42.9063 1.80005 41.5394V5.46063C1.80005 4.09367 4.98885 2.7827 10.6649 1.81612C16.341 0.849539 24.0395 0.306519 32.0667 0.306519H243.933C251.961 0.306519 259.659 0.849539 265.335 1.81612C271.011 2.7827 274.2 4.09367 274.2 5.46063V41.5394C274.2 42.9063 271.011 44.2173 265.335 45.1839C259.659 46.1505 251.961 46.6935 243.933 46.6935Z" stroke="#322E2A" stroke-width="1.5"/>
<path d="M1.80005 31.2312H98.6534C103.663 31.2312 107.809 31.9476 110.003 32.7156C113.121 33.8056 120.506 35.0968 138 35.0968C155.494 35.0968 162.879 33.8082 165.997 32.7156C168.191 31.9476 172.338 31.2312 177.347 31.2312H274.2M1.80005 10.6147H274.2M1.80005 20.923H274.2" stroke="#322E2A" stroke-width="1.5"/>
</g>
<defs>
<clipPath id="clip0_2_2113">
<rect width="276" height="47" fill="white"/>
</clipPath>
</defs>
</svg>

