<svg width="28" height="25" viewBox="0 0 28 25" fill="none" xmlns="http://www.w3.org/2000/svg">
<g clip-path="url(#clip0_2_2140)">
<path d="M6.42114 7.44739H11.4738" stroke="url(#paint0_linear_2_2140)" stroke-width="1.5" stroke-linecap="round" stroke-linejoin="round"/>
<path d="M26.6317 10.6053C26.6317 10.508 26.6317 9.93205 26.6291 9.89162C26.5837 9.25878 26.0418 8.75478 25.3597 8.7131C25.3167 8.71057 25.2649 8.71057 25.1588 8.71057H21.8721C19.6161 8.71057 17.7896 10.407 17.7896 12.5C17.7896 14.5931 19.6173 16.2895 21.8695 16.2895H25.1576C25.2637 16.2895 25.3154 16.2895 25.3597 16.287C26.0418 16.2453 26.5849 15.7413 26.6291 15.1085C26.6317 15.068 26.6317 14.492 26.6317 14.3948" stroke="url(#paint1_linear_2_2140)" stroke-width="1.5" stroke-linecap="round"/>
<path d="M21.5788 13.7633C22.2765 13.7633 22.842 13.1977 22.842 12.5001C22.842 11.8025 22.2765 11.2369 21.5788 11.2369C20.8812 11.2369 20.3157 11.8025 20.3157 12.5001C20.3157 13.1977 20.8812 13.7633 21.5788 13.7633Z" fill="url(#paint2_linear_2_2140)"/>
<path d="M15.2631 2.39478C20.0265 2.39478 22.4088 2.39478 23.888 3.8752C24.9099 4.89583 25.2269 6.34593 25.3242 8.71057M11.4737 22.6053H15.2631C20.0265 22.6053 22.4088 22.6053 23.888 21.1249C24.9099 20.1042 25.2269 18.6541 25.3242 16.2895M10.2105 2.39478C6.27704 2.40741 4.19157 2.5312 2.84883 3.8752C1.36841 5.35435 1.36841 7.73667 1.36841 12.5C1.36841 17.2634 1.36841 19.6457 2.84883 21.1249C3.67367 21.951 4.77893 22.316 6.42104 22.4765" stroke="url(#paint3_linear_2_2140)" stroke-width="1.5" stroke-linecap="round"/>
</g>
<defs>
<linearGradient id="paint0_linear_2_2140" x1="6.43079" y1="7.94739" x2="11.4834" y2="7.94739" gradientUnits="userSpaceOnUse">
<stop stop-color="#E9B873"/>
<stop offset="0.369792" stop-color="#FEDD8F"/>
<stop offset="1" stop-color="#B78D51"/>
</linearGradient>
<linearGradient id="paint1_linear_2_2140" x1="17.8064" y1="12.5" x2="26.6485" y2="12.5" gradientUnits="userSpaceOnUse">
<stop stop-color="#E9B873"/>
<stop offset="0.369792" stop-color="#FEDD8F"/>
<stop offset="1" stop-color="#B78D51"/>
</linearGradient>
<linearGradient id="paint2_linear_2_2140" x1="20.3205" y1="12.5001" x2="22.8468" y2="12.5001" gradientUnits="userSpaceOnUse">
<stop stop-color="#E9B873"/>
<stop offset="0.369792" stop-color="#FEDD8F"/>
<stop offset="1" stop-color="#B78D51"/>
</linearGradient>
<linearGradient id="paint3_linear_2_2140" x1="1.41413" y1="12.5" x2="25.3699" y2="12.5" gradientUnits="userSpaceOnUse">
<stop stop-color="#E9B873"/>
<stop offset="0.369792" stop-color="#FEDD8F"/>
<stop offset="1" stop-color="#B78D51"/>
</linearGradient>
<clipPath id="clip0_2_2140">
<rect width="27.7895" height="24" fill="white" transform="translate(0.105225 0.5)"/>
</clipPath>
</defs>
</svg>
