<svg width="20" height="16" viewBox="0 0 20 16" fill="none" xmlns="http://www.w3.org/2000/svg">
<path fill-rule="evenodd" clip-rule="evenodd" d="M15.3333 7.46667V11.4286L16.8571 12.9524V13.7143H3.14282V12.9524L4.66663 11.4286V6.85714C4.66663 4.49524 6.19044 2.4381 8.47616 1.75238V1.52381C8.47616 0.685714 9.16187 0 9.99997 0C10.4571 0 10.9143 0.228572 11.1428 0.533333C10.5333 1.21905 10.0762 2.05714 9.99997 3.04762C7.86663 3.04762 6.19044 4.72381 6.19044 6.85714V12.1905H13.8095V7.61905H14.1904C14.5714 7.61905 14.9523 7.54286 15.3333 7.46667ZM9.99997 16C9.16187 16 8.47616 15.3143 8.47616 14.4762H11.5238C11.5238 15.3143 10.8381 16 9.99997 16Z" fill="#8B8682"/>
<path d="M16.8571 3.42857C16.8571 4.87619 15.6381 6.09524 14.1904 6.09524C12.7428 6.09524 11.5238 4.87619 11.5238 3.42857C11.5238 1.98095 12.7428 0.761905 14.1904 0.761905C15.6381 0.761905 16.8571 1.98095 16.8571 3.42857Z" fill="#FF624C"/>
</svg>
