<svg width="25" height="21" viewBox="0 0 25 21" fill="none" xmlns="http://www.w3.org/2000/svg">
<mask id="path-1-inside-1_4685_6665" fill="white">
<path d="M13.8333 4.5V5.83333H16.2267L9.67333 12.3867L10.6133 13.3267L17.1667 6.77333V9.16667H18.5V4.5M17.1667 15.1667H7.83333V5.83333H12.5V4.5H7.83333C7.47971 4.5 7.14057 4.64048 6.89052 4.89052C6.64048 5.14057 6.5 5.47971 6.5 5.83333V15.1667C6.5 15.5203 6.64048 15.8594 6.89052 16.1095C7.14057 16.3595 7.47971 16.5 7.83333 16.5H17.1667C17.5203 16.5 17.8594 16.3595 18.1095 16.1095C18.3595 15.8594 18.5 15.5203 18.5 15.1667V10.5H17.1667V15.1667Z"/>
</mask>
<path d="M13.8333 4.5V5.83333H16.2267L9.67333 12.3867L10.6133 13.3267L17.1667 6.77333V9.16667H18.5V4.5M17.1667 15.1667H7.83333V5.83333H12.5V4.5H7.83333C7.47971 4.5 7.14057 4.64048 6.89052 4.89052C6.64048 5.14057 6.5 5.47971 6.5 5.83333V15.1667C6.5 15.5203 6.64048 15.8594 6.89052 16.1095C7.14057 16.3595 7.47971 16.5 7.83333 16.5H17.1667C17.5203 16.5 17.8594 16.3595 18.1095 16.1095C18.3595 15.8594 18.5 15.5203 18.5 15.1667V10.5H17.1667V15.1667Z" fill="black"/>
<path d="M13.8333 5.83333H12.8333V6.83333H13.8333V5.83333ZM16.2267 5.83333L16.9338 6.54044L18.6409 4.83333H16.2267V5.83333ZM9.67333 12.3867L8.96623 11.6796L8.25912 12.3867L8.96623 13.0938L9.67333 12.3867ZM10.6133 13.3267L9.90623 14.0338L10.6133 14.7409L11.3204 14.0338L10.6133 13.3267ZM17.1667 6.77333H18.1667V4.35912L16.4596 6.06623L17.1667 6.77333ZM17.1667 9.16667H16.1667V10.1667H17.1667V9.16667ZM18.5 9.16667V10.1667H19.5V9.16667H18.5ZM17.1667 15.1667V16.1667H18.1667V15.1667H17.1667ZM7.83333 15.1667H6.83333V16.1667H7.83333V15.1667ZM7.83333 5.83333V4.83333H6.83333V5.83333H7.83333ZM12.5 5.83333V6.83333H13.5V5.83333H12.5ZM12.5 4.5H13.5V3.5H12.5V4.5ZM7.83333 4.5V3.5V4.5ZM6.5 5.83333H5.5H6.5ZM6.5 15.1667H5.5H6.5ZM18.5 10.5H19.5V9.5H18.5V10.5ZM17.1667 10.5V9.5H16.1667V10.5H17.1667ZM12.8333 4.5V5.83333H14.8333V4.5H12.8333ZM13.8333 6.83333H16.2267V4.83333H13.8333V6.83333ZM15.5196 5.12623L8.96623 11.6796L10.3804 13.0938L16.9338 6.54044L15.5196 5.12623ZM8.96623 13.0938L9.90623 14.0338L11.3204 12.6196L10.3804 11.6796L8.96623 13.0938ZM11.3204 14.0338L17.8738 7.48044L16.4596 6.06623L9.90623 12.6196L11.3204 14.0338ZM16.1667 6.77333V9.16667H18.1667V6.77333H16.1667ZM17.1667 10.1667H18.5V8.16667H17.1667V10.1667ZM19.5 9.16667V4.5H17.5V9.16667H19.5ZM17.1667 14.1667H7.83333V16.1667H17.1667V14.1667ZM8.83333 15.1667V5.83333H6.83333V15.1667H8.83333ZM7.83333 6.83333H12.5V4.83333H7.83333V6.83333ZM13.5 5.83333V4.5H11.5V5.83333H13.5ZM12.5 3.5H7.83333V5.5H12.5V3.5ZM7.83333 3.5C7.2145 3.5 6.621 3.74583 6.18342 4.18342L7.59763 5.59763C7.66014 5.53512 7.74493 5.5 7.83333 5.5V3.5ZM6.18342 4.18342C5.74583 4.621 5.5 5.2145 5.5 5.83333H7.5C7.5 5.74493 7.53512 5.66014 7.59763 5.59763L6.18342 4.18342ZM5.5 5.83333V15.1667H7.5V5.83333H5.5ZM5.5 15.1667C5.5 15.7855 5.74583 16.379 6.18342 16.8166L7.59763 15.4024C7.53512 15.3399 7.5 15.2551 7.5 15.1667H5.5ZM6.18342 16.8166C6.621 17.2542 7.21449 17.5 7.83333 17.5V15.5C7.74493 15.5 7.66014 15.4649 7.59763 15.4024L6.18342 16.8166ZM7.83333 17.5H17.1667V15.5H7.83333V17.5ZM17.1667 17.5C17.7855 17.5 18.379 17.2542 18.8166 16.8166L17.4024 15.4024C17.3399 15.4649 17.2551 15.5 17.1667 15.5V17.5ZM18.8166 16.8166C19.2542 16.379 19.5 15.7855 19.5 15.1667H17.5C17.5 15.2551 17.4649 15.3399 17.4024 15.4024L18.8166 16.8166ZM19.5 15.1667V10.5H17.5V15.1667H19.5ZM18.5 9.5H17.1667V11.5H18.5V9.5ZM16.1667 10.5V15.1667H18.1667V10.5H16.1667Z" fill="#8B8682" mask="url(#path-1-inside-1_4685_6665)"/>
</svg>
