<svg width="13" height="12" viewBox="0 0 13 12" fill="none" xmlns="http://www.w3.org/2000/svg">
<mask id="path-1-inside-1_5185_6203" fill="white">
<path d="M7.83333 0V1.33333H10.2267L3.67333 7.88667L4.61333 8.82667L11.1667 2.27333V4.66667H12.5V0M11.1667 10.6667H1.83333V1.33333H6.5V0H1.83333C1.47971 0 1.14057 0.140476 0.890524 0.390524C0.640476 0.640573 0.5 0.979711 0.5 1.33333V10.6667C0.5 11.0203 0.640476 11.3594 0.890524 11.6095C1.14057 11.8595 1.47971 12 1.83333 12H11.1667C11.5203 12 11.8594 11.8595 12.1095 11.6095C12.3595 11.3594 12.5 11.0203 12.5 10.6667V6H11.1667V10.6667Z"/>
</mask>
<path d="M7.83333 0V1.33333H10.2267L3.67333 7.88667L4.61333 8.82667L11.1667 2.27333V4.66667H12.5V0M11.1667 10.6667H1.83333V1.33333H6.5V0H1.83333C1.47971 0 1.14057 0.140476 0.890524 0.390524C0.640476 0.640573 0.5 0.979711 0.5 1.33333V10.6667C0.5 11.0203 0.640476 11.3594 0.890524 11.6095C1.14057 11.8595 1.47971 12 1.83333 12H11.1667C11.5203 12 11.8594 11.8595 12.1095 11.6095C12.3595 11.3594 12.5 11.0203 12.5 10.6667V6H11.1667V10.6667Z" fill="black"/>
<path d="M7.83333 1.33333H6.83333V2.33333H7.83333V1.33333ZM10.2267 1.33333L10.9338 2.04044L12.6409 0.333333H10.2267V1.33333ZM3.67333 7.88667L2.96623 7.17956L2.25912 7.88667L2.96623 8.59377L3.67333 7.88667ZM4.61333 8.82667L3.90623 9.53377L4.61333 10.2409L5.32044 9.53377L4.61333 8.82667ZM11.1667 2.27333H12.1667V-0.14088L10.4596 1.56623L11.1667 2.27333ZM11.1667 4.66667H10.1667V5.66667H11.1667V4.66667ZM12.5 4.66667V5.66667H13.5V4.66667H12.5ZM11.1667 10.6667V11.6667H12.1667V10.6667H11.1667ZM1.83333 10.6667H0.833333V11.6667H1.83333V10.6667ZM1.83333 1.33333V0.333333H0.833333V1.33333H1.83333ZM6.5 1.33333V2.33333H7.5V1.33333H6.5ZM6.5 0H7.5V-1H6.5V0ZM1.83333 0V-1V0ZM0.5 1.33333H-0.5H0.5ZM0.5 10.6667H-0.5H0.5ZM12.5 6H13.5V5H12.5V6ZM11.1667 6V5H10.1667V6H11.1667ZM6.83333 0V1.33333H8.83333V0H6.83333ZM7.83333 2.33333H10.2267V0.333333H7.83333V2.33333ZM9.51956 0.626227L2.96623 7.17956L4.38044 8.59377L10.9338 2.04044L9.51956 0.626227ZM2.96623 8.59377L3.90623 9.53377L5.32044 8.11956L4.38044 7.17956L2.96623 8.59377ZM5.32044 9.53377L11.8738 2.98044L10.4596 1.56623L3.90623 8.11956L5.32044 9.53377ZM10.1667 2.27333V4.66667H12.1667V2.27333H10.1667ZM11.1667 5.66667H12.5V3.66667H11.1667V5.66667ZM13.5 4.66667V0H11.5V4.66667H13.5ZM11.1667 9.66667H1.83333V11.6667H11.1667V9.66667ZM2.83333 10.6667V1.33333H0.833333V10.6667H2.83333ZM1.83333 2.33333H6.5V0.333333H1.83333V2.33333ZM7.5 1.33333V0H5.5V1.33333H7.5ZM6.5 -1H1.83333V1H6.5V-1ZM1.83333 -1C1.2145 -1 0.621002 -0.754168 0.183417 -0.316583L1.59763 1.09763C1.66014 1.03512 1.74493 1 1.83333 1V-1ZM0.183417 -0.316583C-0.254168 0.121002 -0.5 0.714495 -0.5 1.33333H1.5C1.5 1.24493 1.53512 1.16014 1.59763 1.09763L0.183417 -0.316583ZM-0.5 1.33333V10.6667H1.5V1.33333H-0.5ZM-0.5 10.6667C-0.5 11.2855 -0.254167 11.879 0.183417 12.3166L1.59763 10.9024C1.53512 10.8399 1.5 10.7551 1.5 10.6667H-0.5ZM0.183417 12.3166C0.621002 12.7542 1.21449 13 1.83333 13V11C1.74493 11 1.66014 10.9649 1.59763 10.9024L0.183417 12.3166ZM1.83333 13H11.1667V11H1.83333V13ZM11.1667 13C11.7855 13 12.379 12.7542 12.8166 12.3166L11.4024 10.9024C11.3399 10.9649 11.2551 11 11.1667 11V13ZM12.8166 12.3166C13.2542 11.879 13.5 11.2855 13.5 10.6667H11.5C11.5 10.7551 11.4649 10.8399 11.4024 10.9024L12.8166 12.3166ZM13.5 10.6667V6H11.5V10.6667H13.5ZM12.5 5H11.1667V7H12.5V5ZM10.1667 6V10.6667H12.1667V6H10.1667Z" fill="#8B8682" mask="url(#path-1-inside-1_5185_6203)"/>
</svg>
