<svg width="240" height="241" viewBox="0 0 240 241" fill="none" xmlns="http://www.w3.org/2000/svg">
<path d="M240 0.5H0V240.5H240V0.5Z" fill="white"/>
<path d="M77.8371 13.473H71.3506V19.9594H77.8371V13.473Z" fill="black"/>
<path d="M90.8107 13.473H84.3242V19.9594H90.8107V13.473Z" fill="black"/>
<path d="M136.216 13.473H129.729V19.9594H136.216V13.473Z" fill="black"/>
<path d="M142.702 13.473H136.216V19.9594H142.702V13.473Z" fill="black"/>
<path d="M149.189 13.473H142.702V19.9594H149.189V13.473Z" fill="black"/>
<path d="M168.649 13.473H162.162V19.9594H168.649V13.473Z" fill="black"/>
<path d="M77.8371 19.9595H71.3506V26.446H77.8371V19.9595Z" fill="black"/>
<path d="M97.297 19.9595H90.8105V26.446H97.297V19.9595Z" fill="black"/>
<path d="M116.756 19.9595H110.27V26.446H116.756V19.9595Z" fill="black"/>
<path d="M136.216 19.9595H129.729V26.446H136.216V19.9595Z" fill="black"/>
<path d="M149.189 19.9595H142.702V26.446H149.189V19.9595Z" fill="black"/>
<path d="M155.675 19.9595H149.188V26.446H155.675V19.9595Z" fill="black"/>
<path d="M162.162 19.9595H155.676V26.446H162.162V19.9595Z" fill="black"/>
<path d="M71.3507 26.4459H64.8643V32.9324H71.3507V26.4459Z" fill="black"/>
<path d="M84.3244 26.4459H77.8379V32.9324H84.3244V26.4459Z" fill="black"/>
<path d="M90.8107 26.4459H84.3242V32.9324H90.8107V26.4459Z" fill="black"/>
<path d="M110.27 26.4459H103.783V32.9324H110.27V26.4459Z" fill="black"/>
<path d="M116.756 26.4459H110.27V32.9324H116.756V26.4459Z" fill="black"/>
<path d="M123.243 26.4459H116.757V32.9324H123.243V26.4459Z" fill="black"/>
<path d="M155.675 26.4459H149.188V32.9324H155.675V26.4459Z" fill="black"/>
<path d="M162.162 26.4459H155.676V32.9324H162.162V26.4459Z" fill="black"/>
<path d="M175.135 26.4459H168.648V32.9324H175.135V26.4459Z" fill="black"/>
<path d="M71.3507 32.9324H64.8643V39.4189H71.3507V32.9324Z" fill="black"/>
<path d="M77.8371 32.9324H71.3506V39.4189H77.8371V32.9324Z" fill="black"/>
<path d="M97.297 32.9324H90.8105V39.4189H97.297V32.9324Z" fill="black"/>
<path d="M136.216 32.9324H129.729V39.4189H136.216V32.9324Z" fill="black"/>
<path d="M155.675 32.9324H149.188V39.4189H155.675V32.9324Z" fill="black"/>
<path d="M175.135 32.9324H168.648V39.4189H175.135V32.9324Z" fill="black"/>
<path d="M71.3507 39.4189H64.8643V45.9054H71.3507V39.4189Z" fill="black"/>
<path d="M84.3244 39.4189H77.8379V45.9054H84.3244V39.4189Z" fill="black"/>
<path d="M90.8107 39.4189H84.3242V45.9054H90.8107V39.4189Z" fill="black"/>
<path d="M103.783 39.4189H97.2969V45.9054H103.783V39.4189Z" fill="black"/>
<path d="M110.27 39.4189H103.783V45.9054H110.27V39.4189Z" fill="black"/>
<path d="M116.756 39.4189H110.27V45.9054H116.756V39.4189Z" fill="black"/>
<path d="M123.243 39.4189H116.757V45.9054H123.243V39.4189Z" fill="black"/>
<path d="M129.73 39.4189H123.243V45.9054H129.73V39.4189Z" fill="black"/>
<path d="M149.189 39.4189H142.702V45.9054H149.189V39.4189Z" fill="black"/>
<path d="M168.649 39.4189H162.162V45.9054H168.649V39.4189Z" fill="black"/>
<path d="M71.3507 45.9054H64.8643V52.3919H71.3507V45.9054Z" fill="black"/>
<path d="M77.8371 45.9054H71.3506V52.3919H77.8371V45.9054Z" fill="black"/>
<path d="M103.783 45.9054H97.2969V52.3919H103.783V45.9054Z" fill="black"/>
<path d="M110.27 45.9054H103.783V52.3919H110.27V45.9054Z" fill="black"/>
<path d="M142.702 45.9054H136.216V52.3919H142.702V45.9054Z" fill="black"/>
<path d="M155.675 45.9054H149.188V52.3919H155.675V45.9054Z" fill="black"/>
<path d="M162.162 45.9054H155.676V52.3919H162.162V45.9054Z" fill="black"/>
<path d="M71.3507 52.3919H64.8643V58.8784H71.3507V52.3919Z" fill="black"/>
<path d="M84.3244 52.3919H77.8379V58.8784H84.3244V52.3919Z" fill="black"/>
<path d="M97.297 52.3919H90.8105V58.8784H97.297V52.3919Z" fill="black"/>
<path d="M110.27 52.3919H103.783V58.8784H110.27V52.3919Z" fill="black"/>
<path d="M123.243 52.3919H116.757V58.8784H123.243V52.3919Z" fill="black"/>
<path d="M136.216 52.3919H129.729V58.8784H136.216V52.3919Z" fill="black"/>
<path d="M149.189 52.3919H142.702V58.8784H149.189V52.3919Z" fill="black"/>
<path d="M162.162 52.3919H155.676V58.8784H162.162V52.3919Z" fill="black"/>
<path d="M175.135 52.3919H168.648V58.8784H175.135V52.3919Z" fill="black"/>
<path d="M71.3507 58.8784H64.8643V65.3648H71.3507V58.8784Z" fill="black"/>
<path d="M77.8371 58.8784H71.3506V65.3648H77.8371V58.8784Z" fill="black"/>
<path d="M84.3244 58.8784H77.8379V65.3648H84.3244V58.8784Z" fill="black"/>
<path d="M97.297 58.8784H90.8105V65.3648H97.297V58.8784Z" fill="black"/>
<path d="M123.243 58.8784H116.757V65.3648H123.243V58.8784Z" fill="black"/>
<path d="M136.216 58.8784H129.729V65.3648H136.216V58.8784Z" fill="black"/>
<path d="M142.702 58.8784H136.216V65.3648H142.702V58.8784Z" fill="black"/>
<path d="M149.189 58.8784H142.702V65.3648H149.189V58.8784Z" fill="black"/>
<path d="M155.675 58.8784H149.188V65.3648H155.675V58.8784Z" fill="black"/>
<path d="M168.649 58.8784H162.162V65.3648H168.649V58.8784Z" fill="black"/>
<path d="M19.4591 65.3649H12.9727V71.8514H19.4591V65.3649Z" fill="black"/>
<path d="M32.4318 65.3649H25.9453V71.8514H32.4318V65.3649Z" fill="black"/>
<path d="M38.9181 65.3649H32.4316V71.8514H38.9181V65.3649Z" fill="black"/>
<path d="M45.4054 65.3649H38.9189V71.8514H45.4054V65.3649Z" fill="black"/>
<path d="M51.8918 65.3649H45.4053V71.8514H51.8918V65.3649Z" fill="black"/>
<path d="M58.3781 65.3649H51.8916V71.8514H58.3781V65.3649Z" fill="black"/>
<path d="M84.3244 65.3649H77.8379V71.8514H84.3244V65.3649Z" fill="black"/>
<path d="M90.8107 65.3649H84.3242V71.8514H90.8107V65.3649Z" fill="black"/>
<path d="M103.783 65.3649H97.2969V71.8514H103.783V65.3649Z" fill="black"/>
<path d="M110.27 65.3649H103.783V71.8514H110.27V65.3649Z" fill="black"/>
<path d="M129.73 65.3649H123.243V71.8514H129.73V65.3649Z" fill="black"/>
<path d="M136.216 65.3649H129.729V71.8514H136.216V65.3649Z" fill="black"/>
<path d="M142.702 65.3649H136.216V71.8514H142.702V65.3649Z" fill="black"/>
<path d="M168.649 65.3649H162.162V71.8514H168.649V65.3649Z" fill="black"/>
<path d="M175.135 65.3649H168.648V71.8514H175.135V65.3649Z" fill="black"/>
<path d="M188.108 65.3649H181.621V71.8514H188.108V65.3649Z" fill="black"/>
<path d="M194.594 65.3649H188.107V71.8514H194.594V65.3649Z" fill="black"/>
<path d="M201.081 65.3649H194.595V71.8514H201.081V65.3649Z" fill="black"/>
<path d="M207.568 65.3649H201.081V71.8514H207.568V65.3649Z" fill="black"/>
<path d="M214.054 65.3649H207.567V71.8514H214.054V65.3649Z" fill="black"/>
<path d="M25.9455 71.8513H19.459V78.3378H25.9455V71.8513Z" fill="black"/>
<path d="M32.4318 71.8513H25.9453V78.3378H32.4318V71.8513Z" fill="black"/>
<path d="M38.9181 71.8513H32.4316V78.3378H38.9181V71.8513Z" fill="black"/>
<path d="M45.4054 71.8513H38.9189V78.3378H45.4054V71.8513Z" fill="black"/>
<path d="M64.8644 71.8513H58.3779V78.3378H64.8644V71.8513Z" fill="black"/>
<path d="M97.297 71.8513H90.8105V78.3378H97.297V71.8513Z" fill="black"/>
<path d="M103.783 71.8513H97.2969V78.3378H103.783V71.8513Z" fill="black"/>
<path d="M123.243 71.8513H116.757V78.3378H123.243V71.8513Z" fill="black"/>
<path d="M129.73 71.8513H123.243V78.3378H129.73V71.8513Z" fill="black"/>
<path d="M136.216 71.8513H129.729V78.3378H136.216V71.8513Z" fill="black"/>
<path d="M149.189 71.8513H142.702V78.3378H149.189V71.8513Z" fill="black"/>
<path d="M168.649 71.8513H162.162V78.3378H168.649V71.8513Z" fill="black"/>
<path d="M181.621 71.8513H175.135V78.3378H181.621V71.8513Z" fill="black"/>
<path d="M188.108 71.8513H181.621V78.3378H188.108V71.8513Z" fill="black"/>
<path d="M214.054 71.8513H207.567V78.3378H214.054V71.8513Z" fill="black"/>
<path d="M227.027 71.8513H220.54V78.3378H227.027V71.8513Z" fill="black"/>
<path d="M19.4591 78.3378H12.9727V84.8243H19.4591V78.3378Z" fill="black"/>
<path d="M25.9455 78.3378H19.459V84.8243H25.9455V78.3378Z" fill="black"/>
<path d="M51.8918 78.3378H45.4053V84.8243H51.8918V78.3378Z" fill="black"/>
<path d="M58.3781 78.3378H51.8916V84.8243H58.3781V78.3378Z" fill="black"/>
<path d="M71.3507 78.3378H64.8643V84.8243H71.3507V78.3378Z" fill="black"/>
<path d="M90.8107 78.3378H84.3242V84.8243H90.8107V78.3378Z" fill="black"/>
<path d="M97.297 78.3378H90.8105V84.8243H97.297V78.3378Z" fill="black"/>
<path d="M103.783 78.3378H97.2969V84.8243H103.783V78.3378Z" fill="black"/>
<path d="M110.27 78.3378H103.783V84.8243H110.27V78.3378Z" fill="black"/>
<path d="M116.756 78.3378H110.27V84.8243H116.756V78.3378Z" fill="black"/>
<path d="M123.243 78.3378H116.757V84.8243H123.243V78.3378Z" fill="black"/>
<path d="M129.73 78.3378H123.243V84.8243H129.73V78.3378Z" fill="black"/>
<path d="M162.162 78.3378H155.676V84.8243H162.162V78.3378Z" fill="black"/>
<path d="M194.594 78.3378H188.107V84.8243H194.594V78.3378Z" fill="black"/>
<path d="M201.081 78.3378H194.595V84.8243H201.081V78.3378Z" fill="black"/>
<path d="M220.54 78.3378H214.054V84.8243H220.54V78.3378Z" fill="black"/>
<path d="M25.9455 84.8243H19.459V91.3108H25.9455V84.8243Z" fill="black"/>
<path d="M32.4318 84.8243H25.9453V91.3108H32.4318V84.8243Z" fill="black"/>
<path d="M38.9181 84.8243H32.4316V91.3108H38.9181V84.8243Z" fill="black"/>
<path d="M71.3507 84.8243H64.8643V91.3108H71.3507V84.8243Z" fill="black"/>
<path d="M77.8371 84.8243H71.3506V91.3108H77.8371V84.8243Z" fill="black"/>
<path d="M103.783 84.8243H97.2969V91.3108H103.783V84.8243Z" fill="black"/>
<path d="M116.756 84.8243H110.27V91.3108H116.756V84.8243Z" fill="black"/>
<path d="M129.73 84.8243H123.243V91.3108H129.73V84.8243Z" fill="black"/>
<path d="M136.216 84.8243H129.729V91.3108H136.216V84.8243Z" fill="black"/>
<path d="M168.649 84.8243H162.162V91.3108H168.649V84.8243Z" fill="black"/>
<path d="M175.135 84.8243H168.648V91.3108H175.135V84.8243Z" fill="black"/>
<path d="M181.621 84.8243H175.135V91.3108H181.621V84.8243Z" fill="black"/>
<path d="M201.081 84.8243H194.595V91.3108H201.081V84.8243Z" fill="black"/>
<path d="M207.568 84.8243H201.081V91.3108H207.568V84.8243Z" fill="black"/>
<path d="M214.054 84.8243H207.567V91.3108H214.054V84.8243Z" fill="black"/>
<path d="M19.4591 91.3108H12.9727V97.7973H19.4591V91.3108Z" fill="black"/>
<path d="M32.4318 91.3108H25.9453V97.7973H32.4318V91.3108Z" fill="black"/>
<path d="M45.4054 91.3108H38.9189V97.7973H45.4054V91.3108Z" fill="black"/>
<path d="M58.3781 91.3108H51.8916V97.7973H58.3781V91.3108Z" fill="black"/>
<path d="M71.3507 91.3108H64.8643V97.7973H71.3507V91.3108Z" fill="black"/>
<path d="M77.8371 91.3108H71.3506V97.7973H77.8371V91.3108Z" fill="black"/>
<path d="M84.3244 91.3108H77.8379V97.7973H84.3244V91.3108Z" fill="black"/>
<path d="M97.297 91.3108H90.8105V97.7973H97.297V91.3108Z" fill="black"/>
<path d="M110.27 91.3108H103.783V97.7973H110.27V91.3108Z" fill="black"/>
<path d="M116.756 91.3108H110.27V97.7973H116.756V91.3108Z" fill="black"/>
<path d="M123.243 91.3108H116.757V97.7973H123.243V91.3108Z" fill="black"/>
<path d="M149.189 91.3108H142.702V97.7973H149.189V91.3108Z" fill="black"/>
<path d="M155.675 91.3108H149.188V97.7973H155.675V91.3108Z" fill="black"/>
<path d="M162.162 91.3108H155.676V97.7973H162.162V91.3108Z" fill="black"/>
<path d="M168.649 91.3108H162.162V97.7973H168.649V91.3108Z" fill="black"/>
<path d="M175.135 91.3108H168.648V97.7973H175.135V91.3108Z" fill="black"/>
<path d="M181.621 91.3108H175.135V97.7973H181.621V91.3108Z" fill="black"/>
<path d="M194.594 91.3108H188.107V97.7973H194.594V91.3108Z" fill="black"/>
<path d="M201.081 91.3108H194.595V97.7973H201.081V91.3108Z" fill="black"/>
<path d="M220.54 91.3108H214.054V97.7973H220.54V91.3108Z" fill="black"/>
<path d="M19.4591 97.7973H12.9727V104.284H19.4591V97.7973Z" fill="black"/>
<path d="M38.9181 97.7973H32.4316V104.284H38.9181V97.7973Z" fill="black"/>
<path d="M45.4054 97.7973H38.9189V104.284H45.4054V97.7973Z" fill="black"/>
<path d="M71.3507 97.7973H64.8643V104.284H71.3507V97.7973Z" fill="black"/>
<path d="M77.8371 97.7973H71.3506V104.284H77.8371V97.7973Z" fill="black"/>
<path d="M97.297 97.7973H90.8105V104.284H97.297V97.7973Z" fill="black"/>
<path d="M103.783 97.7973H97.2969V104.284H103.783V97.7973Z" fill="black"/>
<path d="M116.756 97.7973H110.27V104.284H116.756V97.7973Z" fill="black"/>
<path d="M129.73 97.7973H123.243V104.284H129.73V97.7973Z" fill="black"/>
<path d="M136.216 97.7973H129.729V104.284H136.216V97.7973Z" fill="black"/>
<path d="M168.649 97.7973H162.162V104.284H168.649V97.7973Z" fill="black"/>
<path d="M188.108 97.7973H181.621V104.284H188.108V97.7973Z" fill="black"/>
<path d="M220.54 97.7973H214.054V104.284H220.54V97.7973Z" fill="black"/>
<path d="M227.027 97.7973H220.54V104.284H227.027V97.7973Z" fill="black"/>
<path d="M25.9455 104.284H19.459V110.77H25.9455V104.284Z" fill="black"/>
<path d="M32.4318 104.284H25.9453V110.77H32.4318V104.284Z" fill="black"/>
<path d="M45.4054 104.284H38.9189V110.77H45.4054V104.284Z" fill="black"/>
<path d="M58.3781 104.284H51.8916V110.77H58.3781V104.284Z" fill="black"/>
<path d="M71.3507 104.284H64.8643V110.77H71.3507V104.284Z" fill="black"/>
<path d="M77.8371 104.284H71.3506V110.77H77.8371V104.284Z" fill="black"/>
<path d="M90.8107 104.284H84.3242V110.77H90.8107V104.284Z" fill="black"/>
<path d="M110.27 104.284H103.783V110.77H110.27V104.284Z" fill="black"/>
<path d="M116.756 104.284H110.27V110.77H116.756V104.284Z" fill="black"/>
<path d="M123.243 104.284H116.757V110.77H123.243V104.284Z" fill="black"/>
<path d="M149.189 104.284H142.702V110.77H149.189V104.284Z" fill="black"/>
<path d="M155.675 104.284H149.188V110.77H155.675V104.284Z" fill="black"/>
<path d="M162.162 104.284H155.676V110.77H162.162V104.284Z" fill="black"/>
<path d="M181.621 104.284H175.135V110.77H181.621V104.284Z" fill="black"/>
<path d="M207.568 104.284H201.081V110.77H207.568V104.284Z" fill="black"/>
<path d="M214.054 104.284H207.567V110.77H214.054V104.284Z" fill="black"/>
<path d="M220.54 104.284H214.054V110.77H220.54V104.284Z" fill="black"/>
<path d="M19.4591 110.77H12.9727V117.257H19.4591V110.77Z" fill="black"/>
<path d="M51.8918 110.77H45.4053V117.257H51.8918V110.77Z" fill="black"/>
<path d="M64.8644 110.77H58.3779V117.257H64.8644V110.77Z" fill="black"/>
<path d="M77.8371 110.77H71.3506V117.257H77.8371V110.77Z" fill="black"/>
<path d="M84.3244 110.77H77.8379V117.257H84.3244V110.77Z" fill="black"/>
<path d="M90.8107 110.77H84.3242V117.257H90.8107V110.77Z" fill="black"/>
<path d="M97.297 110.77H90.8105V117.257H97.297V110.77Z" fill="black"/>
<path d="M116.756 110.77H110.27V117.257H116.756V110.77Z" fill="black"/>
<path d="M136.216 110.77H129.729V117.257H136.216V110.77Z" fill="black"/>
<path d="M155.675 110.77H149.188V117.257H155.675V110.77Z" fill="black"/>
<path d="M168.649 110.77H162.162V117.257H168.649V110.77Z" fill="black"/>
<path d="M175.135 110.77H168.648V117.257H175.135V110.77Z" fill="black"/>
<path d="M201.081 110.77H194.595V117.257H201.081V110.77Z" fill="black"/>
<path d="M207.568 110.77H201.081V117.257H207.568V110.77Z" fill="black"/>
<path d="M214.054 110.77H207.567V117.257H214.054V110.77Z" fill="black"/>
<path d="M32.4318 117.257H25.9453V123.743H32.4318V117.257Z" fill="black"/>
<path d="M51.8918 117.257H45.4053V123.743H51.8918V117.257Z" fill="black"/>
<path d="M58.3781 117.257H51.8916V123.743H58.3781V117.257Z" fill="black"/>
<path d="M64.8644 117.257H58.3779V123.743H64.8644V117.257Z" fill="black"/>
<path d="M71.3507 117.257H64.8643V123.743H71.3507V117.257Z" fill="black"/>
<path d="M84.3244 117.257H77.8379V123.743H84.3244V117.257Z" fill="black"/>
<path d="M116.756 117.257H110.27V123.743H116.756V117.257Z" fill="black"/>
<path d="M129.73 117.257H123.243V123.743H129.73V117.257Z" fill="black"/>
<path d="M136.216 117.257H129.729V123.743H136.216V117.257Z" fill="black"/>
<path d="M175.135 117.257H168.648V123.743H175.135V117.257Z" fill="black"/>
<path d="M194.594 117.257H188.107V123.743H194.594V117.257Z" fill="black"/>
<path d="M201.081 117.257H194.595V123.743H201.081V117.257Z" fill="black"/>
<path d="M32.4318 123.743H25.9453V130.23H32.4318V123.743Z" fill="black"/>
<path d="M38.9181 123.743H32.4316V130.23H38.9181V123.743Z" fill="black"/>
<path d="M64.8644 123.743H58.3779V130.23H64.8644V123.743Z" fill="black"/>
<path d="M84.3244 123.743H77.8379V130.23H84.3244V123.743Z" fill="black"/>
<path d="M90.8107 123.743H84.3242V130.23H90.8107V123.743Z" fill="black"/>
<path d="M97.297 123.743H90.8105V130.23H97.297V123.743Z" fill="black"/>
<path d="M103.783 123.743H97.2969V130.23H103.783V123.743Z" fill="black"/>
<path d="M110.27 123.743H103.783V130.23H110.27V123.743Z" fill="black"/>
<path d="M123.243 123.743H116.757V130.23H123.243V123.743Z" fill="black"/>
<path d="M136.216 123.743H129.729V130.23H136.216V123.743Z" fill="black"/>
<path d="M142.702 123.743H136.216V130.23H142.702V123.743Z" fill="black"/>
<path d="M155.675 123.743H149.188V130.23H155.675V123.743Z" fill="black"/>
<path d="M168.649 123.743H162.162V130.23H168.649V123.743Z" fill="black"/>
<path d="M188.108 123.743H181.621V130.23H188.108V123.743Z" fill="black"/>
<path d="M214.054 123.743H207.567V130.23H214.054V123.743Z" fill="black"/>
<path d="M227.027 123.743H220.54V130.23H227.027V123.743Z" fill="black"/>
<path d="M45.4054 130.23H38.9189V136.716H45.4054V130.23Z" fill="black"/>
<path d="M51.8918 130.23H45.4053V136.716H51.8918V130.23Z" fill="black"/>
<path d="M58.3781 130.23H51.8916V136.716H58.3781V130.23Z" fill="black"/>
<path d="M77.8371 130.23H71.3506V136.716H77.8371V130.23Z" fill="black"/>
<path d="M84.3244 130.23H77.8379V136.716H84.3244V130.23Z" fill="black"/>
<path d="M90.8107 130.23H84.3242V136.716H90.8107V130.23Z" fill="black"/>
<path d="M110.27 130.23H103.783V136.716H110.27V130.23Z" fill="black"/>
<path d="M116.756 130.23H110.27V136.716H116.756V130.23Z" fill="black"/>
<path d="M123.243 130.23H116.757V136.716H123.243V130.23Z" fill="black"/>
<path d="M136.216 130.23H129.729V136.716H136.216V130.23Z" fill="black"/>
<path d="M149.189 130.23H142.702V136.716H149.189V130.23Z" fill="black"/>
<path d="M155.675 130.23H149.188V136.716H155.675V130.23Z" fill="black"/>
<path d="M188.108 130.23H181.621V136.716H188.108V130.23Z" fill="black"/>
<path d="M207.568 130.23H201.081V136.716H207.568V130.23Z" fill="black"/>
<path d="M214.054 130.23H207.567V136.716H214.054V130.23Z" fill="black"/>
<path d="M220.54 130.23H214.054V136.716H220.54V130.23Z" fill="black"/>
<path d="M19.4591 136.716H12.9727V143.203H19.4591V136.716Z" fill="black"/>
<path d="M32.4318 136.716H25.9453V143.203H32.4318V136.716Z" fill="black"/>
<path d="M45.4054 136.716H38.9189V143.203H45.4054V136.716Z" fill="black"/>
<path d="M71.3507 136.716H64.8643V143.203H71.3507V136.716Z" fill="black"/>
<path d="M77.8371 136.716H71.3506V143.203H77.8371V136.716Z" fill="black"/>
<path d="M84.3244 136.716H77.8379V143.203H84.3244V136.716Z" fill="black"/>
<path d="M90.8107 136.716H84.3242V143.203H90.8107V136.716Z" fill="black"/>
<path d="M103.783 136.716H97.2969V143.203H103.783V136.716Z" fill="black"/>
<path d="M142.702 136.716H136.216V143.203H142.702V136.716Z" fill="black"/>
<path d="M155.675 136.716H149.188V143.203H155.675V136.716Z" fill="black"/>
<path d="M162.162 136.716H155.676V143.203H162.162V136.716Z" fill="black"/>
<path d="M175.135 136.716H168.648V143.203H175.135V136.716Z" fill="black"/>
<path d="M181.621 136.716H175.135V143.203H181.621V136.716Z" fill="black"/>
<path d="M194.594 136.716H188.107V143.203H194.594V136.716Z" fill="black"/>
<path d="M207.568 136.716H201.081V143.203H207.568V136.716Z" fill="black"/>
<path d="M214.054 136.716H207.567V143.203H214.054V136.716Z" fill="black"/>
<path d="M220.54 136.716H214.054V143.203H220.54V136.716Z" fill="black"/>
<path d="M19.4591 143.203H12.9727V149.689H19.4591V143.203Z" fill="black"/>
<path d="M32.4318 143.203H25.9453V149.689H32.4318V143.203Z" fill="black"/>
<path d="M38.9181 143.203H32.4316V149.689H38.9181V143.203Z" fill="black"/>
<path d="M45.4054 143.203H38.9189V149.689H45.4054V143.203Z" fill="black"/>
<path d="M51.8918 143.203H45.4053V149.689H51.8918V143.203Z" fill="black"/>
<path d="M58.3781 143.203H51.8916V149.689H58.3781V143.203Z" fill="black"/>
<path d="M77.8371 143.203H71.3506V149.689H77.8371V143.203Z" fill="black"/>
<path d="M84.3244 143.203H77.8379V149.689H84.3244V143.203Z" fill="black"/>
<path d="M97.297 143.203H90.8105V149.689H97.297V143.203Z" fill="black"/>
<path d="M103.783 143.203H97.2969V149.689H103.783V143.203Z" fill="black"/>
<path d="M110.27 143.203H103.783V149.689H110.27V143.203Z" fill="black"/>
<path d="M136.216 143.203H129.729V149.689H136.216V143.203Z" fill="black"/>
<path d="M142.702 143.203H136.216V149.689H142.702V143.203Z" fill="black"/>
<path d="M155.675 143.203H149.188V149.689H155.675V143.203Z" fill="black"/>
<path d="M168.649 143.203H162.162V149.689H168.649V143.203Z" fill="black"/>
<path d="M175.135 143.203H168.648V149.689H175.135V143.203Z" fill="black"/>
<path d="M181.621 143.203H175.135V149.689H181.621V143.203Z" fill="black"/>
<path d="M194.594 143.203H188.107V149.689H194.594V143.203Z" fill="black"/>
<path d="M201.081 143.203H194.595V149.689H201.081V143.203Z" fill="black"/>
<path d="M207.568 143.203H201.081V149.689H207.568V143.203Z" fill="black"/>
<path d="M220.54 143.203H214.054V149.689H220.54V143.203Z" fill="black"/>
<path d="M19.4591 149.689H12.9727V156.176H19.4591V149.689Z" fill="black"/>
<path d="M25.9455 149.689H19.459V156.176H25.9455V149.689Z" fill="black"/>
<path d="M38.9181 149.689H32.4316V156.176H38.9181V149.689Z" fill="black"/>
<path d="M45.4054 149.689H38.9189V156.176H45.4054V149.689Z" fill="black"/>
<path d="M77.8371 149.689H71.3506V156.176H77.8371V149.689Z" fill="black"/>
<path d="M90.8107 149.689H84.3242V156.176H90.8107V149.689Z" fill="black"/>
<path d="M97.297 149.689H90.8105V156.176H97.297V149.689Z" fill="black"/>
<path d="M110.27 149.689H103.783V156.176H110.27V149.689Z" fill="black"/>
<path d="M116.756 149.689H110.27V156.176H116.756V149.689Z" fill="black"/>
<path d="M123.243 149.689H116.757V156.176H123.243V149.689Z" fill="black"/>
<path d="M149.189 149.689H142.702V156.176H149.189V149.689Z" fill="black"/>
<path d="M155.675 149.689H149.188V156.176H155.675V149.689Z" fill="black"/>
<path d="M162.162 149.689H155.676V156.176H162.162V149.689Z" fill="black"/>
<path d="M168.649 149.689H162.162V156.176H168.649V149.689Z" fill="black"/>
<path d="M188.108 149.689H181.621V156.176H188.108V149.689Z" fill="black"/>
<path d="M214.054 149.689H207.567V156.176H214.054V149.689Z" fill="black"/>
<path d="M220.54 149.689H214.054V156.176H220.54V149.689Z" fill="black"/>
<path d="M19.4591 156.176H12.9727V162.662H19.4591V156.176Z" fill="black"/>
<path d="M32.4318 156.176H25.9453V162.662H32.4318V156.176Z" fill="black"/>
<path d="M45.4054 156.176H38.9189V162.662H45.4054V156.176Z" fill="black"/>
<path d="M51.8918 156.176H45.4053V162.662H51.8918V156.176Z" fill="black"/>
<path d="M58.3781 156.176H51.8916V162.662H58.3781V156.176Z" fill="black"/>
<path d="M90.8107 156.176H84.3242V162.662H90.8107V156.176Z" fill="black"/>
<path d="M103.783 156.176H97.2969V162.662H103.783V156.176Z" fill="black"/>
<path d="M110.27 156.176H103.783V162.662H110.27V156.176Z" fill="black"/>
<path d="M136.216 156.176H129.729V162.662H136.216V156.176Z" fill="black"/>
<path d="M142.702 156.176H136.216V162.662H142.702V156.176Z" fill="black"/>
<path d="M155.675 156.176H149.188V162.662H155.675V156.176Z" fill="black"/>
<path d="M175.135 156.176H168.648V162.662H175.135V156.176Z" fill="black"/>
<path d="M201.081 156.176H194.595V162.662H201.081V156.176Z" fill="black"/>
<path d="M207.568 156.176H201.081V162.662H207.568V156.176Z" fill="black"/>
<path d="M214.054 156.176H207.567V162.662H214.054V156.176Z" fill="black"/>
<path d="M220.54 156.176H214.054V162.662H220.54V156.176Z" fill="black"/>
<path d="M19.4591 162.662H12.9727V169.149H19.4591V162.662Z" fill="black"/>
<path d="M38.9181 162.662H32.4316V169.149H38.9181V162.662Z" fill="black"/>
<path d="M45.4054 162.662H38.9189V169.149H45.4054V162.662Z" fill="black"/>
<path d="M51.8918 162.662H45.4053V169.149H51.8918V162.662Z" fill="black"/>
<path d="M71.3507 162.662H64.8643V169.149H71.3507V162.662Z" fill="black"/>
<path d="M123.243 162.662H116.757V169.149H123.243V162.662Z" fill="black"/>
<path d="M136.216 162.662H129.729V169.149H136.216V162.662Z" fill="black"/>
<path d="M142.702 162.662H136.216V169.149H142.702V162.662Z" fill="black"/>
<path d="M149.189 162.662H142.702V169.149H149.189V162.662Z" fill="black"/>
<path d="M155.675 162.662H149.188V169.149H155.675V162.662Z" fill="black"/>
<path d="M168.649 162.662H162.162V169.149H168.649V162.662Z" fill="black"/>
<path d="M207.568 162.662H201.081V169.149H207.568V162.662Z" fill="black"/>
<path d="M214.054 162.662H207.567V169.149H214.054V162.662Z" fill="black"/>
<path d="M220.54 162.662H214.054V169.149H220.54V162.662Z" fill="black"/>
<path d="M19.4591 169.149H12.9727V175.635H19.4591V169.149Z" fill="black"/>
<path d="M45.4054 169.149H38.9189V175.635H45.4054V169.149Z" fill="black"/>
<path d="M58.3781 169.149H51.8916V175.635H58.3781V169.149Z" fill="black"/>
<path d="M64.8644 169.149H58.3779V175.635H64.8644V169.149Z" fill="black"/>
<path d="M84.3244 169.149H77.8379V175.635H84.3244V169.149Z" fill="black"/>
<path d="M90.8107 169.149H84.3242V175.635H90.8107V169.149Z" fill="black"/>
<path d="M110.27 169.149H103.783V175.635H110.27V169.149Z" fill="black"/>
<path d="M129.73 169.149H123.243V175.635H129.73V169.149Z" fill="black"/>
<path d="M142.702 169.149H136.216V175.635H142.702V169.149Z" fill="black"/>
<path d="M155.675 169.149H149.188V175.635H155.675V169.149Z" fill="black"/>
<path d="M162.162 169.149H155.676V175.635H162.162V169.149Z" fill="black"/>
<path d="M168.649 169.149H162.162V175.635H168.649V169.149Z" fill="black"/>
<path d="M175.135 169.149H168.648V175.635H175.135V169.149Z" fill="black"/>
<path d="M181.621 169.149H175.135V175.635H181.621V169.149Z" fill="black"/>
<path d="M188.108 169.149H181.621V175.635H188.108V169.149Z" fill="black"/>
<path d="M194.594 169.149H188.107V175.635H194.594V169.149Z" fill="black"/>
<path d="M201.081 169.149H194.595V175.635H201.081V169.149Z" fill="black"/>
<path d="M214.054 169.149H207.567V175.635H214.054V169.149Z" fill="black"/>
<path d="M220.54 169.149H214.054V175.635H220.54V169.149Z" fill="black"/>
<path d="M227.027 169.149H220.54V175.635H227.027V169.149Z" fill="black"/>
<path d="M71.3507 175.635H64.8643V182.122H71.3507V175.635Z" fill="black"/>
<path d="M77.8371 175.635H71.3506V182.122H77.8371V175.635Z" fill="black"/>
<path d="M90.8107 175.635H84.3242V182.122H90.8107V175.635Z" fill="black"/>
<path d="M103.783 175.635H97.2969V182.122H103.783V175.635Z" fill="black"/>
<path d="M123.243 175.635H116.757V182.122H123.243V175.635Z" fill="black"/>
<path d="M129.73 175.635H123.243V182.122H129.73V175.635Z" fill="black"/>
<path d="M142.702 175.635H136.216V182.122H142.702V175.635Z" fill="black"/>
<path d="M149.189 175.635H142.702V182.122H149.189V175.635Z" fill="black"/>
<path d="M162.162 175.635H155.676V182.122H162.162V175.635Z" fill="black"/>
<path d="M175.135 175.635H168.648V182.122H175.135V175.635Z" fill="black"/>
<path d="M201.081 175.635H194.595V182.122H201.081V175.635Z" fill="black"/>
<path d="M214.054 175.635H207.567V182.122H214.054V175.635Z" fill="black"/>
<path d="M227.027 175.635H220.54V182.122H227.027V175.635Z" fill="black"/>
<path d="M84.3244 182.122H77.8379V188.608H84.3244V182.122Z" fill="black"/>
<path d="M110.27 182.122H103.783V188.608H110.27V182.122Z" fill="black"/>
<path d="M116.756 182.122H110.27V188.608H116.756V182.122Z" fill="black"/>
<path d="M123.243 182.122H116.757V188.608H123.243V182.122Z" fill="black"/>
<path d="M129.73 182.122H123.243V188.608H129.73V182.122Z" fill="black"/>
<path d="M149.189 182.122H142.702V188.608H149.189V182.122Z" fill="black"/>
<path d="M162.162 182.122H155.676V188.608H162.162V182.122Z" fill="black"/>
<path d="M168.649 182.122H162.162V188.608H168.649V182.122Z" fill="black"/>
<path d="M175.135 182.122H168.648V188.608H175.135V182.122Z" fill="black"/>
<path d="M188.108 182.122H181.621V188.608H188.108V182.122Z" fill="black"/>
<path d="M201.081 182.122H194.595V188.608H201.081V182.122Z" fill="black"/>
<path d="M207.568 182.122H201.081V188.608H207.568V182.122Z" fill="black"/>
<path d="M220.54 182.122H214.054V188.608H220.54V182.122Z" fill="black"/>
<path d="M71.3507 188.608H64.8643V195.095H71.3507V188.608Z" fill="black"/>
<path d="M77.8371 188.608H71.3506V195.095H77.8371V188.608Z" fill="black"/>
<path d="M103.783 188.608H97.2969V195.095H103.783V188.608Z" fill="black"/>
<path d="M116.756 188.608H110.27V195.095H116.756V188.608Z" fill="black"/>
<path d="M129.73 188.608H123.243V195.095H129.73V188.608Z" fill="black"/>
<path d="M136.216 188.608H129.729V195.095H136.216V188.608Z" fill="black"/>
<path d="M168.649 188.608H162.162V195.095H168.649V188.608Z" fill="black"/>
<path d="M175.135 188.608H168.648V195.095H175.135V188.608Z" fill="black"/>
<path d="M201.081 188.608H194.595V195.095H201.081V188.608Z" fill="black"/>
<path d="M207.568 188.608H201.081V195.095H207.568V188.608Z" fill="black"/>
<path d="M214.054 188.608H207.567V195.095H214.054V188.608Z" fill="black"/>
<path d="M220.54 188.608H214.054V195.095H220.54V188.608Z" fill="black"/>
<path d="M71.3507 195.095H64.8643V201.581H71.3507V195.095Z" fill="black"/>
<path d="M77.8371 195.095H71.3506V201.581H77.8371V195.095Z" fill="black"/>
<path d="M84.3244 195.095H77.8379V201.581H84.3244V195.095Z" fill="black"/>
<path d="M90.8107 195.095H84.3242V201.581H90.8107V195.095Z" fill="black"/>
<path d="M97.297 195.095H90.8105V201.581H97.297V195.095Z" fill="black"/>
<path d="M123.243 195.095H116.757V201.581H123.243V195.095Z" fill="black"/>
<path d="M142.702 195.095H136.216V201.581H142.702V195.095Z" fill="black"/>
<path d="M149.189 195.095H142.702V201.581H149.189V195.095Z" fill="black"/>
<path d="M155.675 195.095H149.188V201.581H155.675V195.095Z" fill="black"/>
<path d="M162.162 195.095H155.676V201.581H162.162V195.095Z" fill="black"/>
<path d="M175.135 195.095H168.648V201.581H175.135V195.095Z" fill="black"/>
<path d="M181.621 195.095H175.135V201.581H181.621V195.095Z" fill="black"/>
<path d="M188.108 195.095H181.621V201.581H188.108V195.095Z" fill="black"/>
<path d="M194.594 195.095H188.107V201.581H194.594V195.095Z" fill="black"/>
<path d="M201.081 195.095H194.595V201.581H201.081V195.095Z" fill="black"/>
<path d="M220.54 195.095H214.054V201.581H220.54V195.095Z" fill="black"/>
<path d="M227.027 195.095H220.54V201.581H227.027V195.095Z" fill="black"/>
<path d="M71.3507 201.581H64.8643V208.068H71.3507V201.581Z" fill="black"/>
<path d="M103.783 201.581H97.2969V208.068H103.783V201.581Z" fill="black"/>
<path d="M110.27 201.581H103.783V208.068H110.27V201.581Z" fill="black"/>
<path d="M116.756 201.581H110.27V208.068H116.756V201.581Z" fill="black"/>
<path d="M136.216 201.581H129.729V208.068H136.216V201.581Z" fill="black"/>
<path d="M155.675 201.581H149.188V208.068H155.675V201.581Z" fill="black"/>
<path d="M181.621 201.581H175.135V208.068H181.621V201.581Z" fill="black"/>
<path d="M194.594 201.581H188.107V208.068H194.594V201.581Z" fill="black"/>
<path d="M201.081 201.581H194.595V208.068H201.081V201.581Z" fill="black"/>
<path d="M214.054 201.581H207.567V208.068H214.054V201.581Z" fill="black"/>
<path d="M227.027 201.581H220.54V208.068H227.027V201.581Z" fill="black"/>
<path d="M71.3507 208.068H64.8643V214.554H71.3507V208.068Z" fill="black"/>
<path d="M77.8371 208.068H71.3506V214.554H77.8371V208.068Z" fill="black"/>
<path d="M84.3244 208.068H77.8379V214.554H84.3244V208.068Z" fill="black"/>
<path d="M97.297 208.068H90.8105V214.554H97.297V208.068Z" fill="black"/>
<path d="M103.783 208.068H97.2969V214.554H103.783V208.068Z" fill="black"/>
<path d="M110.27 208.068H103.783V214.554H110.27V208.068Z" fill="black"/>
<path d="M116.756 208.068H110.27V214.554H116.756V208.068Z" fill="black"/>
<path d="M123.243 208.068H116.757V214.554H123.243V208.068Z" fill="black"/>
<path d="M129.73 208.068H123.243V214.554H129.73V208.068Z" fill="black"/>
<path d="M149.189 208.068H142.702V214.554H149.189V208.068Z" fill="black"/>
<path d="M162.162 208.068H155.676V214.554H162.162V208.068Z" fill="black"/>
<path d="M168.649 208.068H162.162V214.554H168.649V208.068Z" fill="black"/>
<path d="M175.135 208.068H168.648V214.554H175.135V208.068Z" fill="black"/>
<path d="M181.621 208.068H175.135V214.554H181.621V208.068Z" fill="black"/>
<path d="M214.054 208.068H207.567V214.554H214.054V208.068Z" fill="black"/>
<path d="M77.8371 214.554H71.3506V221.041H77.8371V214.554Z" fill="black"/>
<path d="M90.8107 214.554H84.3242V221.041H90.8107V214.554Z" fill="black"/>
<path d="M97.297 214.554H90.8105V221.041H97.297V214.554Z" fill="black"/>
<path d="M116.756 214.554H110.27V221.041H116.756V214.554Z" fill="black"/>
<path d="M136.216 214.554H129.729V221.041H136.216V214.554Z" fill="black"/>
<path d="M155.675 214.554H149.188V221.041H155.675V214.554Z" fill="black"/>
<path d="M181.621 214.554H175.135V221.041H181.621V214.554Z" fill="black"/>
<path d="M188.108 214.554H181.621V221.041H188.108V214.554Z" fill="black"/>
<path d="M194.594 214.554H188.107V221.041H194.594V214.554Z" fill="black"/>
<path d="M207.568 214.554H201.081V221.041H207.568V214.554Z" fill="black"/>
<path d="M214.054 214.554H207.567V221.041H214.054V214.554Z" fill="black"/>
<path d="M71.3507 221.041H64.8643V227.527H71.3507V221.041Z" fill="black"/>
<path d="M77.8371 221.041H71.3506V227.527H77.8371V221.041Z" fill="black"/>
<path d="M84.3244 221.041H77.8379V227.527H84.3244V221.041Z" fill="black"/>
<path d="M90.8107 221.041H84.3242V227.527H90.8107V221.041Z" fill="black"/>
<path d="M97.297 221.041H90.8105V227.527H97.297V221.041Z" fill="black"/>
<path d="M116.756 221.041H110.27V227.527H116.756V221.041Z" fill="black"/>
<path d="M129.73 221.041H123.243V227.527H129.73V221.041Z" fill="black"/>
<path d="M162.162 221.041H155.676V227.527H162.162V221.041Z" fill="black"/>
<path d="M175.135 221.041H168.648V227.527H175.135V221.041Z" fill="black"/>
<path d="M194.594 221.041H188.107V227.527H194.594V221.041Z" fill="black"/>
<path d="M201.081 221.041H194.595V227.527H201.081V221.041Z" fill="black"/>
<path d="M220.54 221.041H214.054V227.527H220.54V221.041Z" fill="black"/>
<path d="M51.5672 13.473H19.7835H12.9727V20.2838V52.0676V58.8784H19.7835H51.5672H58.3781V52.0676V20.2838V13.473H51.5672ZM51.5672 52.0676H19.7835V20.2838H51.5672V52.0676Z" fill="black"/>
<path d="M220.216 13.473H188.432H181.621V20.2838V52.0676V58.8784H188.432H220.216H227.026V52.0676V20.2838V13.473H220.216ZM220.216 52.0676H188.432V20.2838H220.216V52.0676Z" fill="black"/>
<path d="M51.5672 182.122H19.7835H12.9727V188.932V220.716V227.527H19.7835H51.5672H58.3781V220.716V188.932V182.122H51.5672ZM51.5672 220.716H19.7835V188.932H51.5672V220.716Z" fill="black"/>
<path d="M45.4048 26.4459H25.9453V45.9054H45.4048V26.4459Z" fill="black"/>
<path d="M214.054 26.4459H194.595V45.9054H214.054V26.4459Z" fill="black"/>
<path d="M45.4048 195.095H25.9453V214.554H45.4048V195.095Z" fill="black"/>
</svg>
