<svg width="7" height="10" viewBox="0 0 7 10" fill="none" xmlns="http://www.w3.org/2000/svg">
<path d="M3.315 0.322C4.173 0.322 4.86633 0.564666 5.395 1.05C5.92367 1.53533 6.188 2.18533 6.188 3C6.188 3.91 5.90633 4.586 5.343 5.028C4.77967 5.46133 4.017 5.678 3.055 5.678L3.016 6.913H1.989L1.937 4.859H2.314C3.172 4.859 3.84367 4.729 4.329 4.469C4.81433 4.209 5.057 3.71933 5.057 3C5.057 2.48 4.901 2.06833 4.589 1.765C4.277 1.46167 3.85667 1.31 3.328 1.31C2.79067 1.31 2.366 1.45733 2.054 1.752C1.75067 2.038 1.599 2.43233 1.599 2.935H0.481C0.481 2.415 0.598 1.96 0.832 1.57C1.066 1.17133 1.39533 0.863666 1.82 0.646999C2.25333 0.430333 2.75167 0.322 3.315 0.322ZM2.496 9.578C2.27067 9.578 2.08 9.5 1.924 9.344C1.768 9.188 1.69 8.99733 1.69 8.772C1.69 8.54667 1.768 8.356 1.924 8.2C2.08 8.044 2.27067 7.966 2.496 7.966C2.71267 7.966 2.89467 8.044 3.042 8.2C3.198 8.356 3.276 8.54667 3.276 8.772C3.276 8.99733 3.198 9.188 3.042 9.344C2.89467 9.5 2.71267 9.578 2.496 9.578Z" fill="url(#paint0_linear_499_39813)"/>
<defs>
<linearGradient id="paint0_linear_499_39813" x1="0.0133588" y1="4.5" x2="7.01336" y2="4.5" gradientUnits="userSpaceOnUse">
<stop stop-color="#E9B873"/>
<stop offset="0.369792" stop-color="#FEDD8F"/>
<stop offset="1" stop-color="#B78D51"/>
</linearGradient>
</defs>
</svg>
