<svg width="48" height="48" viewBox="0 0 48 48" fill="none" xmlns="http://www.w3.org/2000/svg">
<g id="Group">
<path id="Vector" d="M44.97 18.6043C44.1621 17.76 43.3264 16.89 43.0114 16.125C42.72 15.4243 42.7029 14.2629 42.6857 13.1379C42.6536 11.0464 42.6193 8.67643 40.9714 7.02857C39.3236 5.38071 36.9536 5.34643 34.8621 5.31429C33.7371 5.29714 32.5757 5.28 31.875 4.98857C31.1121 4.67357 30.24 3.83786 29.3957 3.03C27.9171 1.60929 26.2371 0 24 0C21.7629 0 20.085 1.60929 18.6043 3.03C17.76 3.83786 16.89 4.67357 16.125 4.98857C15.4286 5.28 14.2629 5.29714 13.1379 5.31429C11.0464 5.34643 8.67643 5.38071 7.02857 7.02857C5.38071 8.67643 5.35714 11.0464 5.31429 13.1379C5.29714 14.2629 5.28 15.4243 4.98857 16.125C4.67357 16.8879 3.83786 17.76 3.03 18.6043C1.60929 20.0829 0 21.7629 0 24C0 26.2371 1.60929 27.915 3.03 29.3957C3.83786 30.24 4.67357 31.11 4.98857 31.875C5.28 32.5757 5.29714 33.7371 5.31429 34.8621C5.34643 36.9536 5.38071 39.3236 7.02857 40.9714C8.67643 42.6193 11.0464 42.6536 13.1379 42.6857C14.2629 42.7029 15.4243 42.72 16.125 43.0114C16.8879 43.3264 17.76 44.1621 18.6043 44.97C20.0829 46.3907 21.7629 48 24 48C26.2371 48 27.915 46.3907 29.3957 44.97C30.24 44.1621 31.11 43.3264 31.875 43.0114C32.5757 42.72 33.7371 42.7029 34.8621 42.6857C36.9536 42.6536 39.3236 42.6193 40.9714 40.9714C42.6193 39.3236 42.6536 36.9536 42.6857 34.8621C42.7029 33.7371 42.72 32.5757 43.0114 31.875C43.3264 31.1121 44.1621 30.24 44.97 29.3957C46.3907 27.9171 48 26.2371 48 24C48 21.7629 46.3907 20.085 44.97 18.6043ZM42.495 27.0236C41.4686 28.095 40.4057 29.2029 39.8421 30.5636C39.3021 31.8707 39.2786 33.3643 39.2571 34.8107C39.2357 36.3107 39.2121 37.8814 38.5457 38.5457C37.8793 39.21 36.3193 39.2357 34.8107 39.2571C33.3643 39.2786 31.8707 39.3021 30.5636 39.8421C29.2029 40.4057 28.095 41.4686 27.0236 42.495C25.9521 43.5214 24.8571 44.5714 24 44.5714C23.1429 44.5714 22.0393 43.5171 20.9764 42.495C19.9136 41.4729 18.7971 40.4057 17.4364 39.8421C16.1293 39.3021 14.6357 39.2786 13.1893 39.2571C11.6893 39.2357 10.1186 39.2121 9.45429 38.5457C8.79 37.8793 8.76429 36.3193 8.74286 34.8107C8.72143 33.3643 8.69786 31.8707 8.15786 30.5636C7.59429 29.2029 6.53143 28.095 5.505 27.0236C4.47857 25.9521 3.42857 24.8571 3.42857 24C3.42857 23.1429 4.48286 22.0393 5.505 20.9764C6.52714 19.9136 7.59429 18.7971 8.15786 17.4364C8.69786 16.1293 8.72143 14.6357 8.74286 13.1893C8.76429 11.6893 8.78786 10.1186 9.45429 9.45429C10.1207 8.79 11.6807 8.76429 13.1893 8.74286C14.6357 8.72143 16.1293 8.69786 17.4364 8.15786C18.7971 7.59429 19.905 6.53143 20.9764 5.505C22.0479 4.47857 23.1429 3.42857 24 3.42857C24.8571 3.42857 25.9607 4.48286 27.0236 5.505C28.0864 6.52714 29.2029 7.59429 30.5636 8.15786C31.8707 8.69786 33.3643 8.72143 34.8107 8.74286C36.3107 8.76429 37.8814 8.78786 38.5457 9.45429C39.21 10.1207 39.2357 11.6807 39.2571 13.1893C39.2786 14.6357 39.3021 16.1293 39.8421 17.4364C40.4057 18.7971 41.4686 19.905 42.495 20.9764C43.5214 22.0479 44.5714 23.1429 44.5714 24C44.5714 24.8571 43.5171 25.9607 42.495 27.0236ZM26.5714 35.1429C26.5714 35.6514 26.4206 36.1486 26.1381 36.5715C25.8555 36.9943 25.4539 37.3239 24.984 37.5185C24.5142 37.7132 23.9971 37.7641 23.4983 37.6649C22.9995 37.5657 22.5413 37.3208 22.1817 36.9611C21.8221 36.6015 21.5772 36.1433 21.478 35.6445C21.3788 35.1457 21.4297 34.6287 21.6243 34.1588C21.8189 33.6889 22.1485 33.2873 22.5714 33.0048C22.9943 32.7222 23.4914 32.5714 24 32.5714C24.682 32.5714 25.336 32.8423 25.8183 33.3246C26.3005 33.8068 26.5714 34.4609 26.5714 35.1429ZM32.5714 19.7143C32.5714 23.4386 29.6229 26.5564 25.7143 27.2743V27.4286C25.7143 27.8832 25.5337 28.3193 25.2122 28.6408C24.8907 28.9622 24.4547 29.1429 24 29.1429C23.5453 29.1429 23.1093 28.9622 22.7878 28.6408C22.4663 28.3193 22.2857 27.8832 22.2857 27.4286V25.7143C22.2857 25.2596 22.4663 24.8236 22.7878 24.5021C23.1093 24.1806 23.5453 24 24 24C26.835 24 29.1429 22.0714 29.1429 19.7143C29.1429 17.3571 26.835 15.4286 24 15.4286C21.165 15.4286 18.8571 17.3571 18.8571 19.7143V20.5714C18.8571 21.0261 18.6765 21.4621 18.355 21.7836C18.0335 22.1051 17.5975 22.2857 17.1429 22.2857C16.6882 22.2857 16.2522 22.1051 15.9307 21.7836C15.6092 21.4621 15.4286 21.0261 15.4286 20.5714V19.7143C15.4286 15.4607 19.2729 12 24 12C28.7271 12 32.5714 15.4607 32.5714 19.7143Z" fill="url(#paint0_linear_5694_55348)"/>
</g>
<defs>
<linearGradient id="paint0_linear_5694_55348" x1="0.0916034" y1="24" x2="48.0916" y2="24" gradientUnits="userSpaceOnUse">
<stop stop-color="#E9B873"/>
<stop offset="0.369792" stop-color="#FEDD8F"/>
<stop offset="1" stop-color="#B78D51"/>
</linearGradient>
</defs>
</svg>
