<svg width="56" height="49" viewBox="0 0 56 49" fill="none" xmlns="http://www.w3.org/2000/svg">
<path d="M2.91016 10.1641V42.4201C2.91016 43.3706 3.28776 44.2822 3.95989 44.9544C4.63202 45.6265 5.54362 46.0041 6.49416 46.0041H49.5022C50.4527 46.0041 51.3643 45.6265 52.0364 44.9544C52.7086 44.2822 53.0862 43.3706 53.0862 42.4201V13.7481C53.0862 12.7976 52.7086 11.886 52.0364 11.2138C51.3643 10.5417 50.4527 10.1641 49.5022 10.1641H11.8702M2.91016 10.1641V6.58009C2.91016 5.62956 3.28776 4.71795 3.95989 4.04582C4.63202 3.37369 5.54362 2.99609 6.49416 2.99609H35.1662C36.1167 2.99609 37.0283 3.37369 37.7004 4.04582C38.3726 4.71795 38.7502 5.62956 38.7502 6.58009V10.1641H11.8702M2.91016 10.1641H11.8702" stroke="url(#paint0_linear_3228_178731)" stroke-width="3"/>
<path fill-rule="evenodd" clip-rule="evenodd" d="M26.9102 18.7461C24.4569 18.7461 22.1041 19.7206 20.3694 21.4554C18.6347 23.1901 17.6602 25.5428 17.6602 27.9961C17.6602 30.4493 18.6347 32.8021 20.3694 34.5368C22.1041 36.2715 24.4569 37.2461 26.9102 37.2461C29.366 37.2461 31.7179 36.2802 33.4838 34.576L33.6669 34.3993L31.8051 32.5375L31.6285 32.7244C31.0221 33.366 30.2907 33.8764 29.4793 34.2241C28.6679 34.5719 27.7929 34.7495 26.9102 34.7461C20.893 34.7461 17.8843 27.4755 22.1369 23.2229C26.3299 19.03 33.4576 21.9057 33.6559 27.7461H30.3066L34.8066 32.2461H35.1156L39.5031 27.7461H36.1568C36.093 25.3835 35.1266 23.1311 33.4509 21.4554C31.7162 19.7206 29.3634 18.7461 26.9102 18.7461Z" fill="url(#paint1_linear_3228_178731)"/>
<defs>
<linearGradient id="paint0_linear_3228_178731" x1="3.00591" y1="24.5001" x2="53.1819" y2="24.5001" gradientUnits="userSpaceOnUse">
<stop stop-color="#E9B873"/>
<stop offset="0.369792" stop-color="#FEDD8F"/>
<stop offset="1" stop-color="#B78D51"/>
</linearGradient>
<linearGradient id="paint1_linear_3228_178731" x1="17.7018" y1="27.9961" x2="39.5448" y2="27.9961" gradientUnits="userSpaceOnUse">
<stop stop-color="#E9B873"/>
<stop offset="0.369792" stop-color="#FEDD8F"/>
<stop offset="1" stop-color="#B78D51"/>
</linearGradient>
</defs>
</svg>
