<svg width="30" height="16" viewBox="0 0 30 16" fill="none" xmlns="http://www.w3.org/2000/svg">
<g clip-path="url(#clip0_2210_5207)">
<path fill-rule="evenodd" clip-rule="evenodd" d="M17.2827 2.15256L7.50321 2.15288V4.54911L5.10863 4.54888V6.9492H0.915009V8.14809H5.10863V10.5436H7.50321V12.9423H11.9077L12.5049 11.7433H8.7021L8.7021 3.35127L16.6856 3.35127L17.2827 2.15256ZM16.0018 11.7433H23.0883L23.0883 3.35127H20.1824L20.7797 2.15244L24.2873 2.15233V3.95257H29.085V11.1457H24.2873V12.9423H15.4045L16.0018 11.7433ZM7.50321 5.74805V9.34472H6.30752V5.74805H7.50321ZM24.2897 5.15196V9.94729H25.4908V8.74524H26.6897V9.94729H27.8864L27.8864 5.15196H26.6897V6.34797H25.4908V5.15196H24.2897Z" fill="#FF624C"/>
<rect x="19.2958" y="0.10939" width="1.1339" height="17.0661" transform="rotate(26.4809 19.2958 0.10939)" fill="#FF624C"/>
</g>
<defs>
<clipPath id="clip0_2210_5207">
<rect width="30" height="16" fill="white"/>
</clipPath>
</defs>
</svg>
