<svg width="56" height="49" viewBox="0 0 56 49" fill="none" xmlns="http://www.w3.org/2000/svg">
<path d="M22.8299 46.8077C24.5235 47.2119 26.2597 47.4164 28.0008 47.4164C29.7403 47.4138 31.4735 47.2078 33.1651 46.8028C33.6512 46.6882 34.0899 46.426 34.421 46.0522C34.7521 45.6783 34.9593 45.2111 35.0142 44.7148L35.3971 41.2293C35.4341 40.8491 35.561 40.4831 35.7673 40.1617C35.9737 39.8402 36.2536 39.5725 36.584 39.3806C36.9143 39.1887 37.2856 39.0782 37.667 39.0583C38.0485 39.0383 38.4293 39.1094 38.7779 39.2657L41.977 40.6664C42.4349 40.868 42.9443 40.9219 43.4343 40.8207C43.9243 40.7196 44.3706 40.4683 44.7113 40.1019C47.0751 37.555 48.8396 34.5119 49.8757 31.1951C50.0242 30.7154 50.0198 30.2013 49.8629 29.7242C49.706 29.2471 49.4045 28.8307 49.0002 28.5328L46.171 26.4464C45.8619 26.2212 45.6106 25.9261 45.4374 25.5852C45.2643 25.2442 45.1743 24.8672 45.1748 24.4848C45.1753 24.1024 45.2662 23.7256 45.4402 23.3851C45.6142 23.0446 45.8663 22.7501 46.1759 22.5257L48.9904 20.4475C49.397 20.1503 49.7004 19.7333 49.858 19.2549C50.0156 18.7766 50.0195 18.2609 49.8691 17.7802C48.8349 14.4623 47.0696 11.4187 44.7031 8.8735C44.361 8.50767 43.9138 8.25694 43.4232 8.15583C42.9326 8.05473 42.4228 8.10822 41.9639 8.30895L38.7795 9.70968C38.4305 9.86182 38.0505 9.9297 37.6704 9.90784C37.2903 9.88597 36.9207 9.77497 36.5914 9.58381C36.2621 9.39264 35.9824 9.12669 35.775 8.80743C35.5675 8.48817 35.4381 8.12458 35.3971 7.74604L35.011 4.27695C34.957 3.77468 34.7468 3.30198 34.4101 2.92537C34.0735 2.54876 33.6272 2.2872 33.134 2.1775C31.4537 1.80203 29.7388 1.60295 28.0171 1.5835C26.2853 1.604 24.5602 1.80306 22.8691 2.1775C22.376 2.28533 21.9293 2.54568 21.5924 2.92163C21.2555 3.29758 21.0455 3.77005 20.9922 4.27204L20.6044 7.7444C20.562 8.12352 20.4315 8.48744 20.2232 8.80703C20.0149 9.12662 19.7347 9.39299 19.405 9.58482C19.0752 9.77664 18.7052 9.88859 18.3244 9.91169C17.9436 9.9348 17.5627 9.86841 17.2122 9.71786L14.0279 8.3155C13.5684 8.12034 13.0602 8.07062 12.5716 8.17301C12.0831 8.27541 11.6376 8.52501 11.2951 8.88822C8.92836 11.4359 7.16157 14.4808 6.12423 17.7999C5.97659 18.2793 5.98169 18.7928 6.13884 19.2692C6.29598 19.7457 6.59739 20.1614 7.00132 20.459L9.82405 22.5404C10.1315 22.7667 10.3815 23.0621 10.5538 23.4027C10.7261 23.7434 10.8159 24.1198 10.8159 24.5016C10.8159 24.8834 10.7261 25.2598 10.5538 25.6004C10.3815 25.9411 10.1315 26.2365 9.82405 26.4628L7.00132 28.5491C6.59587 28.8472 6.29358 29.2645 6.13664 29.7426C5.9797 30.2208 5.97594 30.736 6.12586 31.2164C7.16273 34.5376 8.92951 37.5848 11.2968 40.1346C11.5218 40.3765 11.7947 40.5691 12.0981 40.7001C12.4014 40.8311 12.7287 40.8976 13.0591 40.8955C13.3913 40.8955 13.7202 40.8268 14.0262 40.6942L17.2253 39.2886C17.5742 39.1378 17.9537 39.071 18.3331 39.0935C18.7125 39.1161 19.0814 39.2273 19.4101 39.4183C19.7387 39.6092 20.018 39.8747 20.2254 40.1932C20.4328 40.5117 20.5626 40.8744 20.6044 41.2522L20.989 44.7311C21.0448 45.2248 21.2515 45.6893 21.581 46.0612C21.9104 46.4331 22.3465 46.6943 22.8299 46.8093V46.8077ZM31.8315 43.7542C29.3067 44.2721 26.703 44.2721 24.1782 43.7542L23.8591 40.907C23.7032 39.5141 23.039 38.2276 21.9937 37.2939C21.1753 36.5733 20.1699 36.0987 19.0934 35.925C18.0169 35.7513 16.9132 35.8855 15.9097 36.312L13.2817 37.4575C11.5864 35.5163 10.2818 33.266 9.4395 30.8302L11.7697 29.1088C12.4896 28.5783 13.0748 27.8861 13.4781 27.088C13.8814 26.2898 14.0915 25.4081 14.0915 24.5139C14.0915 23.6196 13.8814 22.7379 13.4781 21.9398C13.0748 21.1416 12.4896 20.4494 11.7697 19.919L9.44441 18.2024C10.2877 15.7691 11.5922 13.5211 13.2866 11.5817L15.9048 12.7271C16.6264 13.0458 17.4068 13.2097 18.1957 13.2082C19.6005 13.2038 20.9547 12.6833 22.0007 11.7455C23.0467 10.8078 23.7116 9.51837 23.869 8.12241L24.1864 5.26368C25.453 5.01822 26.7391 4.88731 28.027 4.87095C29.3066 4.88731 30.583 5.01822 31.8397 5.26368L32.144 8.11095C32.2956 9.50782 32.9583 10.7993 34.0046 11.7371C34.8235 12.4621 35.8316 12.9394 36.9114 13.1132C37.9913 13.2871 39.0983 13.1503 40.1033 12.7189L42.7215 11.5735C44.4182 13.5124 45.724 15.7611 46.567 18.1959L44.2384 19.9075C43.5148 20.4361 42.9262 21.1281 42.5204 21.9271C42.1146 22.7261 41.9031 23.6095 41.9031 24.5057C41.9031 25.4018 42.1146 26.2853 42.5204 27.0843C42.9262 27.8833 43.5148 28.5752 44.2384 29.1039L46.5653 30.822C45.7216 33.2522 44.4189 35.4976 42.728 37.4362L40.1099 36.2908C39.2906 35.9262 38.3966 35.7606 37.5011 35.8077C36.6055 35.8547 35.7339 36.1131 34.9573 36.5615C34.1807 37.01 33.5213 37.6358 33.0329 38.388C32.5445 39.1401 32.241 39.9971 32.1473 40.889L31.8315 43.7526V43.7542Z" fill="#8B8682"/>
<path d="M27.3202 28.679C29.2299 28.679 30.7487 27.1579 30.7487 25.2505C30.7487 23.343 29.2299 21.8219 27.3202 21.8219C25.4105 21.8219 23.8916 23.343 23.8916 25.2505C23.8916 27.1579 25.4105 28.679 27.3202 28.679Z" fill="#8B8682"/>
</svg>
