<svg width="56" height="49" viewBox="0 0 56 49" fill="none" xmlns="http://www.w3.org/2000/svg">
<g clip-path="url(#clip0_3303_6945)">
<circle cx="28" cy="24.5" r="22.5" stroke="#51C61A" stroke-width="3"/>
<path d="M26.7404 32.9371C26.1749 33.501 25.4088 33.8177 24.6101 33.8177C23.8114 33.8177 23.0453 33.501 22.4797 32.9371L15.8819 26.3498C15.3172 25.7851 15 25.0193 15 24.2207C15 23.4222 15.3172 22.6564 15.8819 22.0917C16.4465 21.5271 17.2124 21.2098 18.0109 21.2098C18.8094 21.2098 19.5753 21.5271 20.1399 22.0917L24.0712 26.0178C24.2143 26.1594 24.4075 26.2388 24.6088 26.2388C24.81 26.2388 25.0032 26.1594 25.1463 26.0178L35.794 15.3832C36.0734 15.1034 36.4052 14.8814 36.7704 14.7299C37.1356 14.5784 37.5271 14.5002 37.9225 14.5C38.3179 14.4998 38.7095 14.5774 39.0749 14.7285C39.4403 14.8796 39.7723 15.1011 40.0521 15.3806C40.3318 15.66 40.5538 15.9917 40.7053 16.357C40.8569 16.7222 40.935 17.1136 40.9353 17.509C40.9355 17.9044 40.8579 18.296 40.7068 18.6614C40.5557 19.0268 40.3341 19.3588 40.0547 19.6386L26.7404 32.9371Z" fill="#51C61A"/>
</g>
<defs>
<clipPath id="clip0_3303_6945">
<rect width="56" height="48" fill="white" transform="translate(0 0.5)"/>
</clipPath>
</defs>
</svg>
