<svg width="16" height="14" viewBox="0 0 16 14" fill="none" xmlns="http://www.w3.org/2000/svg">
<g clip-path="url(#clip0_1480_10060)">
<path fill-rule="evenodd" clip-rule="evenodd" d="M2.9298 0.108799L0.0121744 6.23683C0.00144497 6.25952 -0.00184928 6.28503 0.00276074 6.30971C0.00737077 6.33439 0.01965 6.35699 0.0378501 6.37428L7.91714 13.9257C7.93952 13.9472 7.9693 13.9591 8.00028 13.9591C8.03125 13.9591 8.06103 13.9472 8.08341 13.9257L15.9627 6.37585C15.9812 6.35854 15.9937 6.33577 15.9983 6.31087C16.0029 6.28597 15.9994 6.26024 15.9884 6.23745L13.0707 0.109112C13.0614 0.0884849 13.0462 0.0710262 13.0271 0.0588542C13.0079 0.0466822 12.9857 0.0403201 12.963 0.0405397H3.0372C3.01448 0.0402106 2.99214 0.0464851 2.97291 0.0586018C2.95368 0.0707184 2.93838 0.0881563 2.92887 0.108799H2.9298Z" fill="#52AF95"/>
<path fill-rule="evenodd" clip-rule="evenodd" d="M9.01254 6.86642C8.95587 6.87081 8.66373 6.88803 8.01056 6.88803C7.49204 6.88803 7.12413 6.87269 6.99481 6.86642C4.99086 6.77812 3.49509 6.42806 3.49509 6.01193C3.49509 5.59579 4.9918 5.24729 6.99575 5.15617V6.51886C7.12695 6.52857 7.50206 6.55017 8.02058 6.55017C8.64275 6.55017 8.9543 6.5245 9.01066 6.51886V5.15711C11.0102 5.24635 12.5026 5.59548 12.5026 6.01193C12.5026 6.42837 11.0105 6.77718 9.01066 6.8658L9.01254 6.86642ZM9.01254 5.01621V3.79505H11.8043V1.93701H4.20524V3.79662H6.99544V5.01559C4.72752 5.11985 3.02197 5.56918 3.02197 6.10743C3.02197 6.64568 4.72784 7.09469 6.99544 7.19927V11.107H9.01191V7.1977C11.2745 7.09375 12.9772 6.64474 12.9772 6.10711C12.9772 5.56949 11.2761 5.12205 9.01191 5.01559L9.01254 5.01621Z" fill="white"/>
</g>
<defs>
<clipPath id="clip0_1480_10060">
<rect width="16" height="13.9187" fill="white" transform="translate(0 0.0405273)"/>
</clipPath>
</defs>
</svg>