<svg width="56" height="48" viewBox="0 0 56 48" fill="none" xmlns="http://www.w3.org/2000/svg">
<g clip-path="url(#clip0_3406_3813)">
<path d="M19.3665 3.57489C18.7455 3.47909 18.7191 3.46918 19.0131 3.42624C19.5746 3.34036 20.8959 3.45597 21.8076 3.67068C23.9349 4.17277 25.8705 5.46103 27.9384 7.75016L28.4867 8.35796L29.2729 8.23243C32.5827 7.70392 35.9454 8.12343 38.763 9.41499C39.5393 9.77174 40.7615 10.4786 40.9101 10.6603C40.963 10.7198 41.0522 11.0897 41.1083 11.4894C41.3197 12.8702 41.2173 13.9239 40.7912 14.7134C40.56 15.1428 40.5468 15.2782 40.702 15.6482C40.7763 15.8005 40.8918 15.929 41.0354 16.0189C41.1791 16.1089 41.3451 16.1567 41.5146 16.1569C42.2149 16.1569 42.968 15.0338 43.3149 13.468L43.4536 12.8437L43.7278 13.1542C45.2374 14.8521 46.4199 17.1644 46.6214 18.8094L46.6743 19.2388L46.4232 18.849C46.0583 18.252 45.568 17.7414 44.9863 17.3526C43.9755 16.6887 42.9053 16.4608 40.0777 16.3121C37.521 16.18 36.0742 15.962 34.6406 15.4962C32.1995 14.7035 30.9707 13.653 28.0705 9.87414C26.7822 8.1928 25.9895 7.26459 25.1967 6.51806C23.3964 4.8169 21.6292 3.92503 19.3665 3.57819V3.57489Z" fill="#FF0E73"/>
<path d="M41.4917 7.32411C41.5545 6.20101 41.7064 5.45779 42.0169 4.78063C42.085 4.60949 42.1702 4.44569 42.2713 4.29175C42.2878 4.29175 42.2349 4.48994 42.1523 4.73108C41.9277 5.39172 41.8881 6.2902 42.0466 7.33732C42.2448 8.66522 42.3538 8.85681 43.7643 10.2904C44.4283 10.9643 45.1979 11.8099 45.4787 12.1765L45.9874 12.8372L45.4787 12.3648C44.8577 11.7868 43.4307 10.6571 43.1136 10.4952C42.9022 10.3895 42.8691 10.3895 42.7403 10.5183C42.6181 10.6372 42.595 10.8156 42.5752 11.6612C42.552 12.9792 42.3704 13.8249 41.9343 14.6672C41.6998 15.1296 41.6635 15.0305 41.8749 14.5119C42.0334 14.1288 42.0499 13.957 42.0499 12.6819C42.0499 10.1219 41.7394 9.50424 39.9458 8.45381C39.4048 8.14133 38.8492 7.85472 38.281 7.59497C38.001 7.48243 37.7294 7.34996 37.4684 7.19859C37.5179 7.14904 39.2686 7.65774 39.9722 7.9253C41.0226 8.32829 41.1944 8.37784 41.3232 8.33159C41.4058 8.29856 41.4488 8.05082 41.4884 7.32411H41.4917ZM20.5724 11.7075C19.3138 9.98321 18.531 7.33732 18.7027 5.35869L18.7523 4.74759L19.0397 4.79714C19.5814 4.89624 20.5096 5.23977 20.9456 5.50403C22.1381 6.22414 22.6567 7.17216 23.1819 9.60994C23.3372 10.3234 23.5387 11.1294 23.6312 11.4069C23.7798 11.8462 24.348 12.8735 24.8071 13.5408C25.1374 14.0231 24.9194 14.251 24.1861 14.1849C23.0663 14.0858 21.5501 13.0453 20.5724 11.7075ZM39.959 24.5471C34.066 22.1919 31.9916 20.1439 31.9916 16.6921C31.9916 16.1834 32.0081 15.7672 32.0313 15.7672C32.0511 15.7672 32.279 15.9323 32.5366 16.1404C33.7324 17.0917 35.0702 17.498 38.7764 18.0365C40.9566 18.3536 42.1788 18.6079 43.3118 18.9812C46.9123 20.1671 49.1354 22.5718 49.6672 25.8519C49.8191 26.8032 49.7332 28.587 49.4789 29.5284C49.2807 30.2716 48.6795 31.6094 48.521 31.6623C48.4747 31.6788 48.4318 31.5103 48.4219 31.2791C48.3624 30.0503 47.7348 28.8512 46.6844 27.9528C45.4886 26.9321 43.8832 26.1162 39.959 24.5471ZM35.8234 25.5282C35.7541 25.1099 35.6593 24.6962 35.5393 24.2895L35.3873 23.8435L35.6681 24.1573C36.0546 24.5868 36.3618 25.1384 36.6194 25.875C36.8176 26.4366 36.8375 26.6017 36.8375 27.5134C36.8375 28.4086 36.811 28.5969 36.626 29.099C36.3722 29.8436 35.9467 30.518 35.384 31.0677C34.3072 32.1578 32.9231 32.7589 30.9247 33.01C30.5778 33.0529 29.567 33.1256 28.6785 33.1719C26.4356 33.2875 24.959 33.5286 23.6345 33.9911C23.5144 34.0438 23.3856 34.074 23.2546 34.0802C23.2017 34.0274 24.1068 33.4923 24.85 33.1355C25.9005 32.6301 26.9476 32.356 29.2929 31.9695C30.449 31.7779 31.6481 31.5434 31.952 31.4509C34.8192 30.5788 36.2957 28.3227 35.8234 25.5282Z" fill="#FF0E73"/>
<path d="M38.5253 30.298C37.7424 28.6266 37.5607 27.0113 37.9902 25.505C38.0364 25.3399 38.1091 25.2111 38.1553 25.2111C38.1983 25.2111 38.3865 25.3102 38.5649 25.4324C38.9283 25.6735 39.6484 26.0798 41.5775 27.1236C43.9822 28.4284 45.3564 29.4359 46.2879 30.592C47.1038 31.5995 47.6091 32.7523 47.8536 34.1529C47.9923 34.9457 47.9097 36.8615 47.7049 37.6609C47.0575 40.1846 45.5578 42.1665 43.4108 43.3226C43.0969 43.4911 42.8162 43.6298 42.7831 43.6298C42.7534 43.6298 42.869 43.3425 43.0375 42.989C43.7609 41.4894 43.8435 40.0326 43.2984 38.4108C42.9615 37.4165 42.281 36.2042 40.9069 34.1529C39.3081 31.7746 38.9184 31.137 38.5253 30.298ZM16.3871 39.3257C18.5771 37.4892 21.2957 36.1877 23.7764 35.7847C25.0541 35.6208 26.3502 35.6711 27.6114 35.9333C29.197 36.3363 30.6174 37.2414 31.354 38.315C32.0741 39.3687 32.3846 40.2837 32.7083 42.3251C32.8338 43.1278 32.9726 43.937 33.0122 44.1187C33.2533 45.1758 33.7257 46.0214 34.3071 46.4442C35.232 47.1181 36.8307 47.161 38.3998 46.5532C38.5627 46.4781 38.7349 46.4248 38.9118 46.3946C38.9679 46.4508 38.1784 46.976 37.6235 47.2535C36.9651 47.6036 36.2286 47.7809 35.483 47.7688C34.0461 47.7688 32.8536 47.0421 31.8561 45.5622C31.4902 44.9357 31.1637 44.287 30.8783 43.6199C29.8279 41.2383 29.3093 40.5149 28.0904 39.7188C27.0268 39.0252 25.6559 38.9029 24.6253 39.405C23.271 40.0657 22.8944 41.7833 23.8656 42.8734C24.3192 43.3418 24.9128 43.6502 25.5568 43.7521C25.8126 43.7871 26.073 43.7668 26.3202 43.6923C26.5674 43.6179 26.7958 43.4912 26.9897 43.3207C27.1837 43.1503 27.3387 42.9401 27.4442 42.7045C27.5498 42.4689 27.6034 42.2133 27.6015 41.9551C27.6015 41.2383 27.324 40.832 26.6271 40.5149C25.6724 40.0888 24.6517 40.5876 24.655 41.4761C24.655 41.856 24.8235 42.0938 25.2067 42.2689C25.4511 42.3779 25.4577 42.3845 25.2562 42.3449C24.3842 42.1632 24.1794 41.1161 24.8797 40.4224C25.7253 39.59 27.4694 39.9567 28.0673 41.0963C28.3183 41.5752 28.348 42.5266 28.13 43.1013C27.6345 44.3896 26.2076 45.0668 24.7541 44.6968C23.7632 44.4457 23.3635 44.1749 22.171 42.956C20.0999 40.8353 19.2972 40.4224 16.3111 39.96L15.7363 39.8708L16.3871 39.3257Z" fill="#FF0E73"/>
<path fill-rule="evenodd" clip-rule="evenodd" d="M6.6692 1.37171C13.5862 9.71566 18.3527 13.1576 18.8812 13.8843C19.3172 14.4855 19.1521 15.0272 18.4056 15.4501C17.8747 15.7168 17.2968 15.8772 16.7044 15.9224C16.2188 15.9224 16.0504 15.7374 16.0504 15.7374C15.7696 15.4732 15.611 15.5194 14.1675 12.9726C12.9403 11.0626 11.6982 9.16207 10.4415 7.27127C10.3358 7.17218 10.3391 7.17217 13.966 13.6234C14.5507 14.9678 14.0816 15.46 14.0816 15.6516C14.0816 16.0413 13.9726 16.2461 13.4904 16.7846C12.6844 17.6764 12.3243 18.6806 12.0634 20.7583C11.7727 23.0871 10.9535 24.7321 8.68086 27.5498C7.35296 29.1981 7.13495 29.4987 6.79802 30.1659C6.37521 31.0016 6.2596 31.4707 6.21335 32.5244C6.1638 33.6442 6.2596 34.3643 6.60313 35.4313C6.90042 36.3694 7.21753 36.9838 8.02022 38.2192C8.71389 39.2861 9.11028 40.0789 9.11028 40.3894C9.11028 40.6339 9.15652 40.6339 10.2334 40.3927C12.7967 39.818 14.881 38.8072 16.0537 37.5619C16.7804 36.7922 16.9488 36.3694 16.9554 35.3157C16.9587 34.6286 16.9356 34.4832 16.7473 34.0869C16.4434 33.4427 15.8885 32.9043 14.6663 32.0719C13.0609 30.9818 12.3739 30.1065 12.1889 28.9008C12.0303 27.9098 12.212 27.2128 13.0973 25.3663C14.0156 23.4505 14.2435 22.6346 14.3987 20.7088C14.4978 19.4635 14.6333 18.9713 14.9933 18.5749C15.3699 18.1653 15.7068 18.0266 16.6383 17.9011C18.1545 17.6929 19.1158 17.3065 19.9085 16.5798C20.2263 16.3175 20.4827 15.9887 20.6596 15.6166C20.8365 15.2445 20.9297 14.8381 20.9325 14.4261L20.9656 13.7324L20.5791 13.2898C19.1884 11.6778 5.73769 0.103271 5.6518 0.103271C5.63529 0.103271 6.09113 0.67473 6.6692 1.37171ZM9.89314 33.7929C10.0447 33.5252 10.0897 33.2103 10.0193 32.9109C9.94893 32.6115 9.76822 32.3496 9.51327 32.1776C9.01779 31.8473 8.24153 32.0058 8.24153 32.4319C8.24153 32.5641 8.3142 32.6599 8.47936 32.7424C8.75683 32.8845 8.77665 33.043 8.55864 33.3701C8.33732 33.6971 8.35714 33.9845 8.60819 34.1827C9.01449 34.4965 9.58925 34.3247 9.89314 33.7929ZM21.9202 18.2677C21.21 18.4824 20.5196 19.2323 20.3016 20.0184C20.1728 20.4974 20.2488 21.3397 20.4436 21.5974C20.7608 22.0169 21.0647 22.1259 21.8938 22.1226C23.5123 22.1127 24.9195 21.4223 25.0847 20.5568C25.2168 19.85 24.5991 18.8722 23.7469 18.4395C23.168 18.2044 22.5328 18.1447 21.9202 18.2677ZM23.8162 19.7376C24.064 19.3842 23.955 19.0043 23.5289 18.7467C22.7229 18.2545 21.4974 18.6608 21.4974 19.4205C21.4974 19.8004 22.1349 20.2133 22.7196 20.2133C23.1094 20.2133 23.6445 19.9821 23.8162 19.7376Z" fill="#FF0E73"/>
</g>
<defs>
<clipPath id="clip0_3406_3813">
<rect width="44.9032" height="48" fill="white" transform="translate(5.54834)"/>
</clipPath>
</defs>
</svg>
