<svg width="26" height="24" viewBox="0 0 26 24" fill="none" xmlns="http://www.w3.org/2000/svg">
<path d="M-1.22411e-05 12.7011C-1.21926e-05 13.2554 0.201076 13.7446 0.60325 14.1685L1.82608 15.3913C2.23912 15.8044 2.73368 16.0109 3.30977 16.0109C3.89673 16.0109 4.38586 15.8043 4.77716 15.3913L9.57064 10.6141L9.57064 22.0924C9.57064 22.6576 9.77445 23.1168 10.1821 23.4701C10.5897 23.8234 11.0815 24 11.6576 24L13.7446 24C14.3206 24 14.8125 23.8234 15.2201 23.4701C15.6277 23.1168 15.8315 22.6576 15.8315 22.0924L15.8315 10.6141L20.625 15.3913C21.0163 15.8043 21.5054 16.0109 22.0924 16.0109C22.6793 16.0109 23.1685 15.8043 23.5598 15.3913L24.7826 14.1685C25.1956 13.7554 25.4022 13.2663 25.4022 12.7011C25.4022 12.125 25.1956 11.6304 24.7826 11.2174L14.1685 0.603262C13.788 0.201088 13.2989 1.0581e-06 12.7011 1.11036e-06C12.1141 1.16168e-06 11.6196 0.201088 11.2174 0.603262L0.60325 11.2174C0.201076 11.6413 -1.22905e-05 12.1359 -1.22411e-05 12.7011Z" fill="url(#paint0_linear_2_2527)"/>
<defs>
<linearGradient id="paint0_linear_2_2527" x1="25.3537" y1="12" x2="-0.0484899" y2="12" gradientUnits="userSpaceOnUse">
<stop stop-color="#E9B873"/>
<stop offset="0.369792" stop-color="#FEDD8F"/>
<stop offset="1" stop-color="#B78D51"/>
</linearGradient>
</defs>
</svg>
