<svg width="32" height="48" viewBox="0 0 32 48" fill="none" xmlns="http://www.w3.org/2000/svg">
<path fill-rule="evenodd" clip-rule="evenodd" d="M10.4844 42.5977C10.4844 39.8516 12.1992 37.9727 14.5234 37.3711L14.5234 34.9219C13.1875 33.5234 11.3086 32.7187 9.5625 31.9727C5.79297 30.3555 2.51172 28.9531 3.57812 23.5469C1.84766 23.082 0.574218 21.5039 0.574218 19.625C0.574217 17.3828 2.39062 15.5625 4.63281 15.5625C6.875 15.5625 8.69531 17.3828 8.69531 19.625C8.69531 21.2422 7.75 22.6367 6.37891 23.293L6.42578 23.3047C6.26953 23.8906 6.19141 24.4141 6.17969 24.8828C6.12109 27.5352 8.23047 28.4414 10.625 29.4648C10.7695 29.5273 10.9141 29.5898 11.0625 29.6523C12.2187 30.1523 13.4062 30.6875 14.5195 31.418L14.5195 8.90625L11.4844 8.90625L10.7852 8.90625L11.2266 8.16406L16.0703 -6.77356e-07L21.3555 8.91016L17.25 8.91016L17.25 26.0859C18.3633 25.3398 19.5586 24.793 20.7227 24.2891C20.8984 24.2109 21.0781 24.1367 21.2539 24.0586C23.6758 23.0234 25.8086 22.1055 25.6953 19.3789C25.6797 19.0117 25.625 18.6133 25.5234 18.1758L23.5937 18.1758C23.2695 18.1758 23.0078 17.9102 23.0078 17.5898L23.0078 10.4648C23.0078 10.1406 23.2734 9.87891 23.5937 9.87891L30.8398 9.8789C31.1641 9.8789 31.4258 10.1406 31.4258 10.4648L31.4258 17.5898C31.4258 17.9102 31.1602 18.1758 30.8398 18.1758L28.3086 18.1758C29.3516 23.5469 26.0781 24.9531 22.3164 26.5625C20.5234 27.332 18.5898 28.1602 17.2461 29.6289L17.2461 37.3672C19.5703 37.9727 21.2852 39.8477 21.2852 42.5937C21.2852 45.3477 18.8672 48 15.8867 48C12.9062 48 10.4844 45.3477 10.4844 42.5977Z" fill="url(#paint0_linear_4937_10413)"/>
<defs>
<linearGradient id="paint0_linear_4937_10413" x1="16" y1="47.9084" x2="16" y2="-0.0916041" gradientUnits="userSpaceOnUse">
<stop stop-color="#E9B873"/>
<stop offset="0.369792" stop-color="#FEDD8F"/>
<stop offset="1" stop-color="#B78D51"/>
</linearGradient>
</defs>
</svg>
