<svg width="335" height="140" viewBox="0 0 335 140" fill="none" xmlns="http://www.w3.org/2000/svg">
<g filter="url(#filter0_dd_2585_19122)">
<path d="M53.1695 70.9431H22.1016V81.466H53.1695V70.9431Z" fill="#433E39"/>
<g style="mix-blend-mode:multiply">
<path d="M53.1337 70.8436H46.2236V81.3115H53.1337V70.8436Z" fill="#535762"/>
</g>
<path d="M98.5084 67.1205H71.0835C69.8603 67.1205 68.8687 68.1122 68.8687 69.3354V82.8148C68.8687 84.038 69.8603 85.0297 71.0835 85.0297H98.5084C99.7316 85.0297 100.723 84.038 100.723 82.8148V69.3354C100.723 68.1122 99.7316 67.1205 98.5084 67.1205Z" fill="#776E67"/>
<g style="mix-blend-mode:multiply">
<path d="M86.4671 67.1205H71.0835C69.8603 67.1205 68.8687 68.1122 68.8687 69.3354V82.8148C68.8687 84.038 69.8603 85.0297 71.0835 85.0297H86.4671C87.6903 85.0297 88.6819 84.038 88.6819 82.8148V69.3354C88.6819 68.1122 87.6903 67.1205 86.4671 67.1205Z" fill="#535762"/>
</g>
<path d="M80.8952 61.9183H54.1567C50.8357 61.9183 48.1436 64.6105 48.1436 67.9315V84.2221C48.1436 87.5431 50.8357 90.2352 54.1567 90.2352H80.8952C84.2161 90.2352 86.9083 87.5431 86.9083 84.2221V67.9315C86.9083 64.6105 84.2161 61.9183 80.8952 61.9183Z" fill="#433E39"/>
<path fill-rule="evenodd" clip-rule="evenodd" d="M142.03 22.4201L254.262 22.4201C258.803 22.4201 263.214 22.9537 267.43 23.9589C291.387 28.4951 309.505 49.5406 309.505 74.8169C309.505 75.5742 309.489 76.3276 309.457 77.0769H310.352C311.805 77.0769 312.987 75.8943 312.987 74.4411C312.987 72.9879 311.805 71.8054 310.352 71.8054H309.445C309.274 68.1474 308.748 64.5846 307.891 61.1521C308.663 63.1866 310.352 63.7878 310.352 63.7878L310.347 63.7929C316.23 63.7929 321 68.5633 321 74.4461C321 80.329 316.23 85.0994 310.347 85.0994C310.347 85.0994 308.627 85.7071 307.868 87.7796C307.788 88.0929 307.704 88.4052 307.618 88.7162C307.606 88.7807 307.595 88.8462 307.586 88.9128L307.566 88.9011C301.431 110.644 281.447 126.58 257.742 126.58L140.451 126.58C123.782 126.58 108.954 118.697 99.4879 106.457C93.9197 99.7339 90.0577 91.6593 88.5266 82.8316V65.7353C92.7891 41.1589 115.118 22.4201 142.03 22.4201Z" fill="#34302D"/>
<path d="M254.439 50.9006C267.628 50.9006 278.361 61.629 278.361 74.8228C278.361 88.0166 267.633 98.7451 254.439 98.7451C241.245 98.7451 230.517 88.0166 230.517 74.8228C230.517 61.629 241.245 50.9006 254.439 50.9006ZM254.439 42.8831C236.8 42.8831 222.499 57.1843 222.499 74.8228C222.499 92.4614 236.8 106.763 254.439 106.763C272.077 106.763 286.379 92.4614 286.379 74.8228C286.379 57.1843 272.077 42.8831 254.439 42.8831Z" fill="#1D1915"/>
<path d="M254.438 98.7395C267.65 98.7395 278.361 88.0291 278.361 74.8172C278.361 61.6053 267.65 50.8949 254.438 50.8949C241.226 50.8949 230.516 61.6053 230.516 74.8172C230.516 88.0291 241.226 98.7395 254.438 98.7395Z" fill="#34302D"/>
<path d="M138.485 78.182L140.545 71.7814H142.035L139.228 79.6127H138.222L138.485 78.182ZM136.581 71.7814L138.625 78.182L138.905 79.6127H137.894L135.097 71.7814H136.581ZM146.213 79.7203C145.783 79.7203 145.394 79.6504 145.046 79.5105C144.702 79.3671 144.408 79.1681 144.164 78.9135C143.924 78.6589 143.739 78.3595 143.61 78.0153C143.481 77.671 143.416 77.2999 143.416 76.9019V76.6868C143.416 76.2314 143.483 75.819 143.615 75.4497C143.748 75.0803 143.933 74.7648 144.169 74.503C144.406 74.2377 144.686 74.0351 145.009 73.8952C145.331 73.7554 145.681 73.6855 146.057 73.6855C146.473 73.6855 146.837 73.7554 147.149 73.8952C147.461 74.0351 147.719 74.2323 147.924 74.4869C148.132 74.7379 148.286 75.0373 148.386 75.3851C148.49 75.7329 148.542 76.1166 148.542 76.5362V77.0902H144.046V76.1597H147.262V76.0575C147.255 75.8244 147.208 75.6057 147.122 75.4013C147.04 75.1969 146.913 75.0319 146.74 74.9064C146.568 74.7809 146.339 74.7182 146.052 74.7182C145.837 74.7182 145.645 74.7648 145.476 74.858C145.312 74.9477 145.173 75.0785 145.062 75.2507C144.951 75.4228 144.865 75.6308 144.804 75.8746C144.747 76.1148 144.718 76.3856 144.718 76.6868V76.9019C144.718 77.1565 144.752 77.3932 144.82 77.6119C144.892 77.827 144.996 78.0153 145.132 78.1766C145.269 78.338 145.433 78.4653 145.627 78.5585C145.821 78.6482 146.041 78.693 146.289 78.693C146.601 78.693 146.879 78.6302 147.122 78.5047C147.366 78.3792 147.578 78.2017 147.757 77.9722L148.44 78.6338C148.315 78.8167 148.151 78.9924 147.951 79.1609C147.75 79.3259 147.504 79.4603 147.214 79.5643C146.927 79.6683 146.593 79.7203 146.213 79.7203ZM151.957 74.9011V79.6127H150.66V73.7931H151.897L151.957 74.9011ZM153.737 73.7554L153.726 74.9602C153.647 74.9459 153.561 74.9351 153.468 74.9279C153.378 74.9208 153.289 74.9172 153.199 74.9172C152.977 74.9172 152.781 74.9495 152.613 75.014C152.444 75.075 152.303 75.1646 152.188 75.2829C152.077 75.3977 151.991 75.5375 151.93 75.7025C151.869 75.8674 151.833 76.0521 151.822 76.2565L151.526 76.278C151.526 75.9122 151.562 75.5734 151.634 75.2614C151.706 74.9495 151.813 74.6751 151.957 74.4385C152.104 74.2018 152.287 74.0172 152.505 73.8845C152.728 73.7518 152.984 73.6855 153.274 73.6855C153.353 73.6855 153.438 73.6927 153.527 73.707C153.62 73.7213 153.69 73.7375 153.737 73.7554ZM157.038 73.7931V79.6127H155.737V73.7931H157.038ZM155.651 72.2655C155.651 72.0683 155.715 71.9052 155.844 71.7761C155.977 71.6434 156.16 71.5771 156.393 71.5771C156.622 71.5771 156.804 71.6434 156.936 71.7761C157.069 71.9052 157.135 72.0683 157.135 72.2655C157.135 72.4592 157.069 72.6205 156.936 72.7496C156.804 72.8787 156.622 72.9432 156.393 72.9432C156.16 72.9432 155.977 72.8787 155.844 72.7496C155.715 72.6205 155.651 72.4592 155.651 72.2655ZM161.313 79.6127H160.017V73.2337C160.017 72.7998 160.098 72.4358 160.259 72.1418C160.424 71.8442 160.659 71.6201 160.964 71.4695C161.269 71.3153 161.629 71.2382 162.045 71.2382C162.174 71.2382 162.301 71.2472 162.427 71.2651C162.552 71.2794 162.674 71.3027 162.792 71.335L162.76 72.3354C162.688 72.3175 162.61 72.305 162.524 72.2978C162.441 72.2906 162.351 72.287 162.255 72.287C162.057 72.287 161.887 72.3247 161.744 72.4C161.604 72.4717 161.496 72.5775 161.421 72.7173C161.349 72.8572 161.313 73.0293 161.313 73.2337V79.6127ZM162.513 73.7931V74.7397H159.124V73.7931H162.513ZM166.244 78.9781L167.826 73.7931H169.213L166.879 80.5002C166.825 80.6436 166.755 80.7996 166.669 80.9681C166.583 81.1367 166.47 81.2962 166.331 81.4468C166.194 81.601 166.024 81.7247 165.82 81.818C165.615 81.9148 165.368 81.9632 165.077 81.9632C164.963 81.9632 164.851 81.9524 164.744 81.9309C164.64 81.913 164.541 81.8933 164.448 81.8718L164.443 80.8821C164.478 80.8857 164.522 80.8893 164.572 80.8928C164.625 80.8964 164.669 80.8982 164.701 80.8982C164.916 80.8982 165.095 80.8713 165.239 80.8175C165.382 80.7673 165.499 80.6849 165.588 80.5701C165.681 80.4554 165.76 80.3012 165.825 80.1076L166.244 78.9781ZM165.352 73.7931L166.734 78.1497L166.965 79.5159L166.067 79.7472L163.953 73.7931H165.352ZM179.657 77.0633H181.001C180.958 77.576 180.815 78.0332 180.571 78.4348C180.327 78.8328 179.985 79.1466 179.544 79.3761C179.103 79.6056 178.567 79.7203 177.935 79.7203C177.451 79.7203 177.016 79.6342 176.628 79.4621C176.241 79.2864 175.91 79.039 175.633 78.7199C175.357 78.3972 175.146 78.0081 174.999 77.5527C174.855 77.0973 174.784 76.5881 174.784 76.0252V75.3744C174.784 74.8114 174.857 74.3022 175.004 73.8468C175.155 73.3914 175.37 73.0024 175.65 72.6797C175.929 72.3534 176.264 72.1042 176.655 71.932C177.05 71.7599 177.493 71.6739 177.984 71.6739C178.608 71.6739 179.135 71.7886 179.565 72.0181C179.995 72.2476 180.329 72.5649 180.566 72.9701C180.806 73.3753 180.953 73.8397 181.007 74.3632H179.662C179.626 74.0261 179.547 73.7375 179.425 73.4972C179.307 73.257 179.131 73.0741 178.898 72.9486C178.665 72.8195 178.36 72.755 177.984 72.755C177.675 72.755 177.407 72.8123 177.177 72.9271C176.948 73.0418 176.756 73.2104 176.602 73.4327C176.447 73.655 176.331 73.9293 176.252 74.2556C176.177 74.5783 176.139 74.9477 176.139 75.3636V76.0252C176.139 76.4196 176.173 76.7782 176.241 77.1009C176.313 77.42 176.42 77.6944 176.564 77.9238C176.711 78.1533 176.897 78.3308 177.123 78.4563C177.349 78.5818 177.62 78.6446 177.935 78.6446C178.319 78.6446 178.629 78.5836 178.866 78.4617C179.106 78.3398 179.287 78.1623 179.409 77.9292C179.535 77.6926 179.617 77.4039 179.657 77.0633ZM182.953 76.7674V76.6437C182.953 76.2242 183.014 75.8351 183.136 75.4766C183.257 75.1144 183.433 74.8007 183.663 74.5353C183.896 74.2664 184.179 74.0584 184.512 73.9114C184.85 73.7608 185.23 73.6855 185.653 73.6855C186.079 73.6855 186.46 73.7608 186.793 73.9114C187.13 74.0584 187.415 74.2664 187.648 74.5353C187.881 74.8007 188.059 75.1144 188.181 75.4766C188.303 75.8351 188.364 76.2242 188.364 76.6437V76.7674C188.364 77.187 188.303 77.576 188.181 77.9346C188.059 78.2932 187.881 78.6069 187.648 78.8759C187.415 79.1412 187.132 79.3492 186.798 79.4998C186.465 79.6468 186.087 79.7203 185.663 79.7203C185.237 79.7203 184.855 79.6468 184.518 79.4998C184.184 79.3492 183.901 79.1412 183.668 78.8759C183.435 78.6069 183.257 78.2932 183.136 77.9346C183.014 77.576 182.953 77.187 182.953 76.7674ZM184.249 76.6437V76.7674C184.249 77.0292 184.276 77.2766 184.33 77.5097C184.383 77.7428 184.468 77.9471 184.582 78.1229C184.697 78.2986 184.844 78.4366 185.023 78.537C185.203 78.6374 185.416 78.6876 185.663 78.6876C185.904 78.6876 186.112 78.6374 186.287 78.537C186.467 78.4366 186.614 78.2986 186.728 78.1229C186.843 77.9471 186.927 77.7428 186.981 77.5097C187.039 77.2766 187.067 77.0292 187.067 76.7674V76.6437C187.067 76.3856 187.039 76.1417 186.981 75.9122C186.927 75.6792 186.841 75.473 186.723 75.2937C186.608 75.1144 186.461 74.9746 186.282 74.8742C186.106 74.7702 185.897 74.7182 185.653 74.7182C185.409 74.7182 185.197 74.7702 185.018 74.8742C184.842 74.9746 184.697 75.1144 184.582 75.2937C184.468 75.473 184.383 75.6792 184.33 75.9122C184.276 76.1417 184.249 76.3856 184.249 76.6437ZM191.939 73.7931V79.6127H190.638V73.7931H191.939ZM190.552 72.2655C190.552 72.0683 190.616 71.9052 190.745 71.7761C190.878 71.6434 191.061 71.5771 191.294 71.5771C191.523 71.5771 191.704 71.6434 191.837 71.7761C191.97 71.9052 192.036 72.0683 192.036 72.2655C192.036 72.4592 191.97 72.6205 191.837 72.7496C191.704 72.8787 191.523 72.9432 191.294 72.9432C191.061 72.9432 190.878 72.8787 190.745 72.7496C190.616 72.6205 190.552 72.4592 190.552 72.2655ZM195.746 75.0355V79.6127H194.45V73.7931H195.671L195.746 75.0355ZM195.515 76.4877L195.095 76.4824C195.099 76.07 195.156 75.6917 195.268 75.3475C195.382 75.0032 195.54 74.7074 195.741 74.46C195.945 74.2126 196.189 74.0225 196.472 73.8899C196.756 73.7536 197.071 73.6855 197.419 73.6855C197.699 73.6855 197.951 73.7249 198.177 73.8038C198.407 73.8791 198.602 74.0028 198.764 74.1749C198.929 74.3471 199.054 74.5712 199.14 74.8473C199.226 75.1198 199.269 75.4551 199.269 75.8531V79.6127H197.968V75.8477C197.968 75.568 197.926 75.3475 197.844 75.1861C197.765 75.0212 197.648 74.9046 197.494 74.8365C197.344 74.7648 197.155 74.7289 196.93 74.7289C196.707 74.7289 196.508 74.7755 196.333 74.8688C196.157 74.962 196.008 75.0893 195.886 75.2507C195.768 75.412 195.676 75.5985 195.612 75.81C195.547 76.0216 195.515 76.2475 195.515 76.4877Z" fill="white"/>
</g>
<defs>
<filter id="filter0_dd_2585_19122" x="-1.03087" y="0.389171" width="335.8" height="139.409" filterUnits="userSpaceOnUse" color-interpolation-filters="sRGB">
<feFlood flood-opacity="0" result="BackgroundImageFix"/>
<feColorMatrix in="SourceAlpha" type="matrix" values="0 0 0 0 0 0 0 0 0 0 0 0 0 0 0 0 0 0 127 0" result="hardAlpha"/>
<feOffset dx="2.75386" dy="2.20309"/>
<feGaussianBlur stdDeviation="5.50772"/>
<feComposite in2="hardAlpha" operator="out"/>
<feColorMatrix type="matrix" values="0 0 0 0 0 0 0 0 0 0 0 0 0 0 0 0 0 0 0.41 0"/>
<feBlend mode="normal" in2="BackgroundImageFix" result="effect1_dropShadow_2585_19122"/>
<feColorMatrix in="SourceAlpha" type="matrix" values="0 0 0 0 0 0 0 0 0 0 0 0 0 0 0 0 0 0 127 0" result="hardAlpha"/>
<feOffset dx="-5.50772" dy="-5.50772"/>
<feGaussianBlur stdDeviation="8.26158"/>
<feComposite in2="hardAlpha" operator="out"/>
<feColorMatrix type="matrix" values="0 0 0 0 0.0916667 0 0 0 0 0.0758333 0 0 0 0 0.0626389 0 0 0 1 0"/>
<feBlend mode="normal" in2="effect1_dropShadow_2585_19122" result="effect2_dropShadow_2585_19122"/>
<feBlend mode="normal" in="SourceGraphic" in2="effect2_dropShadow_2585_19122" result="shape"/>
</filter>
</defs>
</svg>
