<svg width="335" height="141" viewBox="0 0 335 141" fill="none" xmlns="http://www.w3.org/2000/svg">
<g filter="url(#filter0_dd_5564_67233)">
<path d="M53.1695 71.4414H22.1016V81.9644H53.1695V71.4414Z" fill="#433E39"/>
<g style="mix-blend-mode:multiply">
<path d="M53.1347 71.3438H46.2246V81.8116H53.1347V71.3438Z" fill="#535762"/>
</g>
<path d="M98.5088 67.6211H71.084C69.8607 67.6211 68.8691 68.6127 68.8691 69.8359V83.3154C68.8691 84.5386 69.8607 85.5302 71.084 85.5302H98.5088C99.7321 85.5302 100.724 84.5386 100.724 83.3154V69.8359C100.724 68.6127 99.7321 67.6211 98.5088 67.6211Z" fill="#776E67"/>
<g style="mix-blend-mode:multiply">
<path d="M86.4676 67.6211H71.084C69.8607 67.6211 68.8691 68.6127 68.8691 69.8359V83.3154C68.8691 84.5386 69.8607 85.5302 71.084 85.5302H86.4676C87.6908 85.5302 88.6824 84.5386 88.6824 83.3154V69.8359C88.6824 68.6127 87.6908 67.6211 86.4676 67.6211Z" fill="#535762"/>
</g>
<path d="M80.8961 62.418H54.1577C50.8367 62.418 48.1445 65.1101 48.1445 68.4311V84.7217C48.1445 88.0427 50.8367 90.7349 54.1577 90.7349H80.8961C84.2171 90.7349 86.9093 88.0427 86.9093 84.7217V68.4311C86.9093 65.1101 84.2171 62.418 80.8961 62.418Z" fill="#433E39"/>
<path fill-rule="evenodd" clip-rule="evenodd" d="M142.027 22.9219L254.259 22.9219C258.808 22.9219 263.226 23.4573 267.448 24.4658C291.395 29.0105 309.502 50.051 309.502 75.3197C309.502 76.0768 309.485 76.8301 309.453 77.5793H310.348C311.801 77.5793 312.984 76.3967 312.984 74.9435C312.984 73.4903 311.801 72.3077 310.348 72.3077H309.441C309.271 68.6497 308.745 65.087 307.888 61.6545C308.659 63.6889 310.348 64.2902 310.348 64.2902L310.343 64.2952C316.226 64.2952 320.996 69.0657 320.996 74.9485C320.996 80.8314 316.226 85.6018 310.343 85.6018C310.343 85.6018 308.625 86.2089 307.866 88.2791C307.785 88.5945 307.7 88.9087 307.613 89.2217C307.602 89.2851 307.592 89.3496 307.582 89.4151L307.562 89.4036C301.428 111.147 281.444 127.083 257.739 127.083L140.447 127.083C123.77 127.083 108.935 119.192 99.4697 106.941C93.9096 100.221 90.0531 92.1531 88.5234 83.3333V66.2371C92.7859 41.6607 115.115 22.9219 142.027 22.9219Z" fill="#34302D"/>
<path d="M254.436 51.4042C267.625 51.4042 278.358 62.1327 278.358 75.3265C278.358 88.5203 267.63 99.2487 254.436 99.2487C241.242 99.2487 230.514 88.5203 230.514 75.3265C230.514 62.1327 241.242 51.4042 254.436 51.4042ZM254.436 43.3867C236.797 43.3867 222.496 57.688 222.496 75.3265C222.496 92.965 236.797 107.266 254.436 107.266C272.074 107.266 286.376 92.965 286.376 75.3265C286.376 57.688 272.074 43.3867 254.436 43.3867Z" fill="#1D1915"/>
<path d="M254.436 99.243C267.648 99.243 278.358 88.5326 278.358 75.3207C278.358 62.1088 267.648 51.3984 254.436 51.3984C241.224 51.3984 230.514 62.1088 230.514 75.3207C230.514 88.5326 241.224 99.243 254.436 99.243Z" fill="#34302D"/>
<path d="M153.484 66.5654L155.544 60.1648H157.034L154.226 67.9961H153.22L153.484 66.5654ZM151.58 60.1648L153.624 66.5654L153.903 67.9961H152.892L150.095 60.1648H151.58ZM161.212 68.1037C160.782 68.1037 160.393 68.0337 160.045 67.8939C159.701 67.7505 159.406 67.5515 159.163 67.2969C158.922 67.0423 158.738 66.7429 158.609 66.3986C158.48 66.0544 158.415 65.6833 158.415 65.2853V65.0701C158.415 64.6147 158.481 64.2024 158.614 63.833C158.747 63.4637 158.931 63.1482 159.168 62.8864C159.405 62.621 159.684 62.4185 160.007 62.2786C160.33 62.1388 160.679 62.0688 161.056 62.0688C161.472 62.0688 161.836 62.1388 162.148 62.2786C162.46 62.4185 162.718 62.6157 162.922 62.8703C163.13 63.1213 163.284 63.4207 163.385 63.7685C163.489 64.1163 163.541 64.5 163.541 64.9195V65.4735H159.044V64.543H162.261V64.4408C162.254 64.2077 162.207 63.989 162.121 63.7846C162.038 63.5802 161.911 63.4153 161.739 63.2898C161.567 63.1643 161.337 63.1015 161.051 63.1015C160.835 63.1015 160.644 63.1482 160.475 63.2414C160.31 63.331 160.172 63.4619 160.061 63.634C159.95 63.8061 159.864 64.0141 159.803 64.2579C159.745 64.4982 159.717 64.7689 159.717 65.0701V65.2853C159.717 65.5399 159.751 65.7765 159.819 65.9952C159.891 66.2104 159.995 66.3986 160.131 66.56C160.267 66.7214 160.432 66.8487 160.626 66.9419C160.819 67.0315 161.04 67.0763 161.287 67.0763C161.599 67.0763 161.877 67.0136 162.121 66.8881C162.365 66.7626 162.576 66.5851 162.756 66.3556L163.439 67.0172C163.313 67.2001 163.15 67.3758 162.949 67.5443C162.748 67.7092 162.503 67.8437 162.212 67.9477C161.925 68.0517 161.592 68.1037 161.212 68.1037ZM166.955 63.2844V67.9961H165.659V62.1764H166.896L166.955 63.2844ZM168.736 62.1388L168.725 63.3436C168.646 63.3292 168.56 63.3185 168.467 63.3113C168.377 63.3041 168.287 63.3005 168.198 63.3005C167.975 63.3005 167.78 63.3328 167.611 63.3974C167.443 63.4583 167.301 63.548 167.186 63.6663C167.075 63.781 166.989 63.9209 166.928 64.0858C166.867 64.2508 166.831 64.4354 166.821 64.6398L166.525 64.6613C166.525 64.2956 166.561 63.9567 166.632 63.6448C166.704 63.3328 166.812 63.0585 166.955 62.8219C167.102 62.5852 167.285 62.4005 167.504 62.2679C167.726 62.1352 167.983 62.0688 168.273 62.0688C168.352 62.0688 168.436 62.076 168.526 62.0904C168.619 62.1047 168.689 62.1208 168.736 62.1388ZM172.037 62.1764V67.9961H170.735V62.1764H172.037ZM170.649 60.6489C170.649 60.4517 170.714 60.2885 170.843 60.1594C170.976 60.0268 171.158 59.9604 171.391 59.9604C171.621 59.9604 171.802 60.0268 171.935 60.1594C172.067 60.2885 172.134 60.4517 172.134 60.6489C172.134 60.8425 172.067 61.0039 171.935 61.133C171.802 61.262 171.621 61.3266 171.391 61.3266C171.158 61.3266 170.976 61.262 170.843 61.133C170.714 61.0039 170.649 60.8425 170.649 60.6489ZM176.312 67.9961H175.016V61.617C175.016 61.1832 175.096 60.8192 175.258 60.5252C175.423 60.2276 175.657 60.0034 175.962 59.8528C176.267 59.6987 176.627 59.6216 177.043 59.6216C177.172 59.6216 177.3 59.6305 177.425 59.6485C177.551 59.6628 177.673 59.6861 177.791 59.7184L177.759 60.7188C177.687 60.7009 177.608 60.6883 177.522 60.6812C177.44 60.674 177.35 60.6704 177.253 60.6704C177.056 60.6704 176.886 60.708 176.742 60.7833C176.602 60.8551 176.495 60.9608 176.419 61.1007C176.348 61.2405 176.312 61.4126 176.312 61.617V67.9961ZM177.511 62.1764V63.1231H174.123V62.1764H177.511ZM181.243 67.3614L182.824 62.1764H184.212L181.878 68.8836C181.824 69.027 181.754 69.183 181.668 69.3515C181.582 69.52 181.469 69.6796 181.329 69.8302C181.193 69.9844 181.022 70.1081 180.818 70.2013C180.614 70.2981 180.366 70.3466 180.076 70.3466C179.961 70.3466 179.85 70.3358 179.742 70.3143C179.638 70.2964 179.54 70.2766 179.447 70.2551L179.441 69.2655C179.477 69.269 179.52 69.2726 179.57 69.2762C179.624 69.2798 179.667 69.2816 179.699 69.2816C179.914 69.2816 180.094 69.2547 180.237 69.2009C180.381 69.1507 180.497 69.0682 180.587 68.9535C180.68 68.8387 180.759 68.6846 180.823 68.4909L181.243 67.3614ZM180.35 62.1764L181.732 66.5331L181.964 67.8993L181.066 68.1306L178.952 62.1764H180.35Z" fill="white"/>
<rect x="162.409" y="84.6279" width="10.1893" height="10.1893" rx="3.44232" stroke="white" stroke-width="0.826158"/>
<path d="M164.805 89.7207L167.118 91.6484L170.202 87.793" stroke="white" stroke-width="1.10154" stroke-linecap="round"/>
</g>
<defs>
<filter id="filter0_dd_5564_67233" x="-1.03087" y="0.891002" width="335.8" height="139.41" filterUnits="userSpaceOnUse" color-interpolation-filters="sRGB">
<feFlood flood-opacity="0" result="BackgroundImageFix"/>
<feColorMatrix in="SourceAlpha" type="matrix" values="0 0 0 0 0 0 0 0 0 0 0 0 0 0 0 0 0 0 127 0" result="hardAlpha"/>
<feOffset dx="2.75386" dy="2.20309"/>
<feGaussianBlur stdDeviation="5.50772"/>
<feComposite in2="hardAlpha" operator="out"/>
<feColorMatrix type="matrix" values="0 0 0 0 0 0 0 0 0 0 0 0 0 0 0 0 0 0 0.41 0"/>
<feBlend mode="normal" in2="BackgroundImageFix" result="effect1_dropShadow_5564_67233"/>
<feColorMatrix in="SourceAlpha" type="matrix" values="0 0 0 0 0 0 0 0 0 0 0 0 0 0 0 0 0 0 127 0" result="hardAlpha"/>
<feOffset dx="-5.50772" dy="-5.50772"/>
<feGaussianBlur stdDeviation="8.26158"/>
<feComposite in2="hardAlpha" operator="out"/>
<feColorMatrix type="matrix" values="0 0 0 0 0.0916667 0 0 0 0 0.0758333 0 0 0 0 0.0626389 0 0 0 1 0"/>
<feBlend mode="normal" in2="effect1_dropShadow_5564_67233" result="effect2_dropShadow_5564_67233"/>
<feBlend mode="normal" in="SourceGraphic" in2="effect2_dropShadow_5564_67233" result="shape"/>
</filter>
</defs>
</svg>
