<svg width="20" height="16" viewBox="0 0 20 16" fill="none" xmlns="http://www.w3.org/2000/svg">
<path d="M9.99992 14.0935C8.5723 14.1109 7.15948 13.8027 5.86853 13.1925C4.86807 12.7043 3.96968 12.0302 3.22134 11.206C2.42871 10.3539 1.80459 9.3594 1.38197 8.27506L1.29492 7.99999L1.38632 7.72491C1.80921 6.6415 2.43198 5.64725 3.22221 4.79394C3.97027 3.96985 4.86836 3.29569 5.86853 2.80745C7.15923 2.19688 8.5722 1.88874 9.99992 1.90649C11.4275 1.88908 12.8404 2.19723 14.1313 2.80745C15.1324 3.29493 16.0299 3.96957 16.7785 4.79394C17.5724 5.64528 18.1974 6.6394 18.6179 7.72491L18.7049 7.99999L18.6135 8.27506C17.9468 10.0106 16.7631 11.4994 15.2225 12.54C13.6819 13.5807 11.8588 14.123 9.99992 14.0935V14.0935ZM9.99992 3.64749C8.55173 3.60211 7.12329 3.99277 5.89974 4.76883C4.6762 5.54489 3.71397 6.67058 3.13777 7.99999C3.71387 9.32947 4.67608 10.4552 5.89965 11.2313C7.12321 12.0074 8.5517 12.398 9.99992 12.3525C11.4481 12.3977 12.8765 12.007 14.1 11.231C15.3235 10.4549 16.2858 9.32932 16.8621 7.99999C16.2867 6.67 15.3246 5.54378 14.1009 4.7676C12.8772 3.99142 11.4483 3.60115 9.99992 3.64749V3.64749ZM9.99992 10.6115C9.39095 10.6155 8.79947 10.408 8.3265 10.0244C7.85353 9.64077 7.52841 9.10485 7.40667 8.50816C7.28493 7.91147 7.37413 7.29102 7.65902 6.75279C7.94392 6.21455 8.40683 5.79192 8.96871 5.55707C9.53059 5.32222 10.1566 5.28973 10.7398 5.46514C11.3229 5.64055 11.8271 6.01299 12.1662 6.51884C12.5053 7.02468 12.6582 7.63256 12.5989 8.23865C12.5396 8.84474 12.2717 9.41144 11.841 9.84196C11.6003 10.0856 11.3136 10.279 10.9975 10.4111C10.6815 10.5432 10.3424 10.6113 9.99992 10.6115V10.6115Z" fill="#8B8682"/>
</svg>
