<svg width="200" height="176" viewBox="0 0 200 176" fill="none" xmlns="http://www.w3.org/2000/svg">
<path d="M184.774 15.2099H133.329C131.155 15.2099 122.025 15.2099 118.547 6.95309C115.764 0.347655 108.547 0 105.069 0H14.3472C2.17381 1.20535 0 10.3313 0 15.2099V159.486C0 171.654 8.26049 176 14.3472 176H184.774C196.947 175.467 199.846 164.267 199.991 159.486C199.846 120.665 199.643 40.5886 199.991 30.8543C200.339 21.12 190.861 15.2099 184.774 15.2099Z" fill="#312F2F"/>
<path id="Wallet Shape" opacity="0.01" d="M184.774 15.2099H133.329C131.155 15.2099 122.025 15.2099 118.547 6.95309C115.764 0.347655 108.547 0 105.069 0H14.3472C2.17381 1.20535 0 10.3313 0 15.2099V159.486C0 171.654 8.26049 176 14.3472 176H184.774C196.947 175.467 199.846 164.267 199.991 159.486C199.846 120.665 199.643 40.5886 199.991 30.8543C200.339 21.12 190.861 15.2099 184.774 15.2099Z" fill="url(#paint0_linear_6920_127394)"/>
<defs>
<linearGradient id="paint0_linear_6920_127394" x1="3.34928" y1="133.128" x2="200" y2="133.128" gradientUnits="userSpaceOnUse">
<stop stop-color="#A2ADB3"/>
<stop offset="0.348958" stop-color="#F3F1F2"/>
<stop offset="0.65625" stop-color="#BCC3C9"/>
<stop offset="1" stop-color="#DCDFE4"/>
</linearGradient>
</defs>
</svg>
