<svg width="15" height="14" viewBox="0 0 15 14" fill="none" xmlns="http://www.w3.org/2000/svg">
<path d="M3.40912 4.27271H6.13639" stroke="#8B8682" stroke-width="1.3" stroke-linecap="round" stroke-linejoin="round"/>
<path d="M14.3182 5.97719C14.3182 5.92469 14.3182 5.61379 14.3168 5.59197C14.2923 5.25038 13.9998 4.97833 13.6316 4.95583C13.6084 4.95447 13.5805 4.95447 13.5232 4.95447H11.7491C10.5314 4.95447 9.54547 5.87015 9.54547 6.99992C9.54547 8.12969 10.5321 9.04538 11.7477 9.04538H13.5225C13.5798 9.04538 13.6077 9.04538 13.6316 9.04401C13.9998 9.02151 14.293 8.74947 14.3168 8.40788C14.3182 8.38606 14.3182 8.07515 14.3182 8.02265" stroke="#8B8682" stroke-width="1.3" stroke-linecap="round"/>
<path d="M11.5909 7.68175C11.9675 7.68175 12.2728 7.37649 12.2728 6.99993C12.2728 6.62338 11.9675 6.31812 11.5909 6.31812C11.2144 6.31812 10.9091 6.62338 10.9091 6.99993C10.9091 7.37649 11.2144 7.68175 11.5909 7.68175Z" fill="#8B8682"/>
<path d="M8.18182 1.54541C10.753 1.54541 12.0389 1.54541 12.8373 2.3445C13.3889 2.89541 13.56 3.67814 13.6125 4.9545M6.13637 12.4545H8.18182C10.753 12.4545 12.0389 12.4545 12.8373 11.6554C13.3889 11.1045 13.56 10.3218 13.6125 9.04541M5.45455 1.54541C3.33137 1.55223 2.20569 1.61905 1.48091 2.3445C0.681824 3.14291 0.681824 4.42882 0.681824 6.99995C0.681824 9.57109 0.681824 10.857 1.48091 11.6554C1.92614 12.1013 2.52273 12.2984 3.4091 12.385" stroke="#8B8682" stroke-width="1.3" stroke-linecap="round"/>
</svg>
