<svg width="56" height="48" viewBox="0 0 56 48" fill="none" xmlns="http://www.w3.org/2000/svg">
<path d="M47.6725 21.1787C48.9399 20.1847 48.9399 18.2462 47.6725 17.2521L30.8727 4.18012C29.0834 2.78842 26.5734 2.78842 24.7592 4.18012L21.3793 6.83926L40.9625 26.4224L47.6725 21.1787ZM47.6725 29.852L47.6477 29.8271C47.2147 29.489 46.6811 29.3053 46.1317 29.3053C45.5823 29.3053 45.0487 29.489 44.6157 29.8271L44.4915 29.9266L47.9707 33.4058C48.1951 33.1579 48.3662 32.8664 48.4732 32.5496C48.5803 32.2328 48.6211 31.8974 48.5932 31.5642C48.5652 31.2309 48.4691 30.907 48.3107 30.6124C48.1523 30.3179 47.9351 30.0591 47.6725 29.852V29.852ZM51.276 43.769L8.23275 0.725723C8.00267 0.49564 7.72952 0.313129 7.4289 0.188609C7.12829 0.0640897 6.80609 3.4285e-09 6.4807 0C6.15532 -3.42849e-09 5.83312 0.0640897 5.5325 0.188609C5.23188 0.313129 4.95873 0.49564 4.72865 0.725723C4.49857 0.955805 4.31606 1.22895 4.19154 1.52957C4.06702 1.83019 4.00293 2.15239 4.00293 2.47777C4.00293 2.80316 4.06702 3.12536 4.19154 3.42597C4.31606 3.72659 4.49857 3.99974 4.72865 4.22982L13.4765 12.9776L7.95938 17.2521C6.69194 18.2462 6.69194 20.1847 7.95938 21.1787L24.7592 34.2508C26.5485 35.6425 29.0585 35.6425 30.8727 34.2508L33.0348 32.5608L36.5638 36.0898L29.3071 41.7311C28.4124 42.427 27.1449 42.427 26.2503 41.7311L10.9664 29.852C10.5335 29.5138 9.99987 29.3301 9.45049 29.3301C8.90111 29.3301 8.3675 29.5138 7.93453 29.852C7.63851 30.0838 7.39912 30.3799 7.23449 30.7179C7.06986 31.0559 6.9843 31.4269 6.9843 31.8029C6.9843 32.1788 7.06986 32.5498 7.23449 32.8878C7.39912 33.2258 7.63851 33.5219 7.93453 33.7537L24.7343 46.8258C26.5237 48.2175 29.0337 48.2175 30.8479 46.8258L40.0927 39.6436L47.7222 47.2731C48.6914 48.2423 50.2571 48.2423 51.2263 47.2731C52.2452 46.3039 52.2452 44.7382 51.276 43.769Z" fill="#FF624C"/>
</svg>
