<svg width="200" height="177" viewBox="0 0 200 177" fill="none" xmlns="http://www.w3.org/2000/svg">
<path d="M184.774 15.9369H133.329C131.155 15.9369 122.025 15.9369 118.547 7.68014C115.764 1.07471 108.547 0.727051 105.069 0.727051H14.3472C2.17381 1.9324 0 11.0583 0 15.9369V160.213C0 172.381 8.26049 176.727 14.3472 176.727H184.774C196.947 176.194 199.846 164.994 199.991 160.213C199.846 121.392 199.643 41.3157 199.991 31.5814C200.339 21.8471 190.861 15.9369 184.774 15.9369Z" fill="#2A2827"/>
<path id="Vector 6" opacity="0.04" d="M184.774 15.9369H133.329C131.155 15.9369 122.025 15.9369 118.547 7.68014C115.764 1.07471 108.547 0.727051 105.069 0.727051H14.3472C2.17381 1.9324 0 11.0583 0 15.9369V160.213C0 172.381 8.26049 176.727 14.3472 176.727H184.774C196.947 176.194 199.846 164.994 199.991 160.213C199.846 121.392 199.643 41.3157 199.991 31.5814C200.339 21.8471 190.861 15.9369 184.774 15.9369Z" fill="url(#paint0_linear_6920_132200)"/>
<defs>
<linearGradient id="paint0_linear_6920_132200" x1="0.381681" y1="88.727" x2="200.382" y2="88.727" gradientUnits="userSpaceOnUse">
<stop stop-color="#E9B873"/>
<stop offset="0.369792" stop-color="#FEDD8F"/>
<stop offset="1" stop-color="#B78D51"/>
</linearGradient>
</defs>
</svg>
