<svg width="16" height="17" viewBox="0 0 16 17" fill="none" xmlns="http://www.w3.org/2000/svg">
<path id="Vector" d="M3.08 12.58C3.76 12.06 4.52 11.6499 5.36 11.3496C6.2 11.0499 7.08 10.9 8 10.9C8.92 10.9 9.8 11.0499 10.64 11.3496C11.48 11.6499 12.24 12.06 12.92 12.58C13.3867 12.0333 13.7501 11.4133 14.0104 10.72C14.2701 10.0267 14.4 9.28667 14.4 8.5C14.4 6.72667 13.7768 5.21653 12.5304 3.9696C11.2835 2.7232 9.77333 2.1 8 2.1C6.22667 2.1 4.7168 2.7232 3.4704 3.9696C2.22347 5.21653 1.6 6.72667 1.6 8.5C1.6 9.28667 1.73013 10.0267 1.9904 10.72C2.25013 11.4133 2.61333 12.0333 3.08 12.58ZM8 9.3C7.21333 9.3 6.54987 9.03013 6.0096 8.4904C5.46987 7.95013 5.2 7.28667 5.2 6.5C5.2 5.71333 5.46987 5.04987 6.0096 4.5096C6.54987 3.96987 7.21333 3.7 8 3.7C8.78667 3.7 9.45013 3.96987 9.9904 4.5096C10.5301 5.04987 10.8 5.71333 10.8 6.5C10.8 7.28667 10.5301 7.95013 9.9904 8.4904C9.45013 9.03013 8.78667 9.3 8 9.3ZM8 16.5C6.89333 16.5 5.85333 16.2899 4.88 15.8696C3.90667 15.4499 3.06 14.88 2.34 14.16C1.62 13.44 1.05013 12.5933 0.6304 11.62C0.210133 10.6467 0 9.60667 0 8.5C0 7.39333 0.210133 6.35333 0.6304 5.38C1.05013 4.40667 1.62 3.56 2.34 2.84C3.06 2.12 3.90667 1.54987 4.88 1.1296C5.85333 0.709867 6.89333 0.5 8 0.5C9.10667 0.5 10.1467 0.709867 11.12 1.1296C12.0933 1.54987 12.94 2.12 13.66 2.84C14.38 3.56 14.9499 4.40667 15.3696 5.38C15.7899 6.35333 16 7.39333 16 8.5C16 9.60667 15.7899 10.6467 15.3696 11.62C14.9499 12.5933 14.38 13.44 13.66 14.16C12.94 14.88 12.0933 15.4499 11.12 15.8696C10.1467 16.2899 9.10667 16.5 8 16.5ZM8 14.9C8.70667 14.9 9.37333 14.7968 10 14.5904C10.6267 14.3835 11.2 14.0867 11.72 13.7C11.2 13.3133 10.6267 13.0165 10 12.8096C9.37333 12.6032 8.70667 12.5 8 12.5C7.29333 12.5 6.62667 12.6032 6 12.8096C5.37333 13.0165 4.8 13.3133 4.28 13.7C4.8 14.0867 5.37333 14.3835 6 14.5904C6.62667 14.7968 7.29333 14.9 8 14.9ZM8 7.7C8.34667 7.7 8.63333 7.58667 8.86 7.36C9.08667 7.13333 9.2 6.84667 9.2 6.5C9.2 6.15333 9.08667 5.86667 8.86 5.64C8.63333 5.41333 8.34667 5.3 8 5.3C7.65333 5.3 7.36667 5.41333 7.14 5.64C6.91333 5.86667 6.8 6.15333 6.8 6.5C6.8 6.84667 6.91333 7.13333 7.14 7.36C7.36667 7.58667 7.65333 7.7 8 7.7Z" fill="#51C61A"/>
</svg>
