<svg width="32" height="32" viewBox="0 0 32 32" fill="none" xmlns="http://www.w3.org/2000/svg">
<rect x="0.8" y="0.8" width="30.4" height="30.4" rx="4.2" fill="#3A3531"/>
<rect x="0.8" y="0.8" width="30.4" height="30.4" rx="4.2" stroke="#49433E" stroke-width="0.4"/>
<g clip-path="url(#clip0_508_145417)">
<path fill-rule="evenodd" clip-rule="evenodd" d="M13.9257 6.6665L13.811 7.24917L13.3723 9.37984C12.6835 9.64755 12.039 10.0175 11.4603 10.4772L9.31633 9.75984L8.74033 9.5825L8.44166 10.0958L6.96566 12.5638L6.66699 13.0798L7.10433 13.4625L8.76299 14.8732C8.70299 15.2425 8.62566 15.6065 8.62566 15.9945C8.62566 16.3825 8.70299 16.7478 8.76299 17.1172L7.10433 18.5265L6.66699 18.9092L6.96566 19.4238L8.44166 21.8905L8.74033 22.4065L9.31633 22.2265L11.4603 21.5105C12.035 21.9612 12.671 22.3398 13.3723 22.6078L13.811 24.7385L13.9257 25.3212H18.0737L18.1897 24.7385L18.627 22.6078C19.3158 22.3401 19.9603 21.9701 20.539 21.5105L22.683 22.2265L23.259 22.4065L23.559 21.8918L25.0337 19.4238L25.3337 18.9092L24.895 18.5265L23.2363 17.1158C23.2977 16.7465 23.3737 16.3825 23.3737 15.9932C23.3737 15.6065 23.2977 15.2412 23.2363 14.8718L24.895 13.4612L25.3337 13.0785L25.0337 12.5638L23.559 10.0972L23.259 9.5825L22.683 9.76117L20.539 10.4772C19.9604 10.0175 19.3158 9.64755 18.627 9.37984L18.1897 7.24917L18.0737 6.6665H13.9257Z" stroke="url(#paint0_linear_508_145417)" stroke-width="1.33333" stroke-linecap="square" stroke-linejoin="round"/>
<path fill-rule="evenodd" clip-rule="evenodd" d="M18.6673 15.9933C18.6673 16.7006 18.3864 17.3788 17.8863 17.8789C17.3862 18.379 16.7079 18.66 16.0007 18.66C15.2934 18.66 14.6151 18.379 14.115 17.8789C13.6149 17.3788 13.334 16.7006 13.334 15.9933C13.334 15.2861 13.6149 14.6078 14.115 14.1077C14.6151 13.6076 15.2934 13.3267 16.0007 13.3267C16.7079 13.3267 17.3862 13.6076 17.8863 14.1077C18.3864 14.6078 18.6673 15.2861 18.6673 15.9933Z" stroke="url(#paint1_linear_508_145417)" stroke-width="1.33333" stroke-linecap="square" stroke-linejoin="round"/>
</g>
<defs>
<linearGradient id="paint0_linear_508_145417" x1="6.70262" y1="15.9938" x2="25.3693" y2="15.9938" gradientUnits="userSpaceOnUse">
<stop stop-color="#E9B873"/>
<stop offset="0.369792" stop-color="#FEDD8F"/>
<stop offset="1" stop-color="#B78D51"/>
</linearGradient>
<linearGradient id="paint1_linear_508_145417" x1="13.3442" y1="15.9933" x2="18.6775" y2="15.9933" gradientUnits="userSpaceOnUse">
<stop stop-color="#E9B873"/>
<stop offset="0.369792" stop-color="#FEDD8F"/>
<stop offset="1" stop-color="#B78D51"/>
</linearGradient>
<clipPath id="clip0_508_145417">
<rect width="20" height="20" fill="white" transform="translate(6 6)"/>
</clipPath>
</defs>
</svg>
