<svg width="12" height="13" viewBox="0 0 12 13" fill="none" xmlns="http://www.w3.org/2000/svg">
<path d="M9.42857 7.07143H6.57143V9.92857C6.57143 10.0801 6.51123 10.2255 6.40406 10.3326C6.2969 10.4398 6.15155 10.5 6 10.5C5.84845 10.5 5.7031 10.4398 5.59594 10.3326C5.48878 10.2255 5.42857 10.0801 5.42857 9.92857V7.07143H2.57143C2.41988 7.07143 2.27453 7.01122 2.16737 6.90406C2.0602 6.7969 2 6.65155 2 6.5C2 6.34845 2.0602 6.2031 2.16737 6.09594C2.27453 5.98878 2.41988 5.92857 2.57143 5.92857H5.42857V3.07143C5.42857 2.91988 5.48878 2.77453 5.59594 2.66737C5.7031 2.5602 5.84845 2.5 6 2.5C6.15155 2.5 6.2969 2.5602 6.40406 2.66737C6.51123 2.77453 6.57143 2.91988 6.57143 3.07143V5.92857H9.42857C9.58013 5.92857 9.72547 5.98878 9.83263 6.09594C9.9398 6.2031 10 6.34845 10 6.5C10 6.65155 9.9398 6.7969 9.83263 6.90406C9.72547 7.01122 9.58013 7.07143 9.42857 7.07143Z" fill="url(#paint0_linear_2_3085)"/>
<defs>
<linearGradient id="paint0_linear_2_3085" x1="2.01527" y1="6.5" x2="10.0153" y2="6.5" gradientUnits="userSpaceOnUse">
<stop stop-color="#E9B873"/>
<stop offset="0.369792" stop-color="#FEDD8F"/>
<stop offset="1" stop-color="#B78D51"/>
</linearGradient>
</defs>
</svg>
