<svg width="56" height="48" viewBox="0 0 56 48" fill="none" xmlns="http://www.w3.org/2000/svg">
<path d="M2.91199 9.664V41.92C2.91199 42.8705 3.28959 43.7821 3.96172 44.4543C4.63385 45.1264 5.54545 45.504 6.49599 45.504H49.504C50.4545 45.504 51.3661 45.1264 52.0383 44.4543C52.7104 43.7821 53.088 42.8705 53.088 41.92V13.248C53.088 12.2975 52.7104 11.3859 52.0383 10.7137C51.3661 10.0416 50.4545 9.664 49.504 9.664H11.872M2.91199 9.664V6.08C2.91199 5.12947 3.28959 4.21786 3.96172 3.54573C4.63385 2.8736 5.54545 2.496 6.49599 2.496H35.168C36.1185 2.496 37.0301 2.8736 37.7023 3.54573C38.3744 4.21786 38.752 5.12947 38.752 6.08V9.664H11.872M2.91199 9.664H11.872" stroke="url(#paint0_linear_1_2235)" stroke-width="3"/>
<path d="M34.9797 29.342H29.7277V34.724H26.9717V29.342H21.7197V26.846H26.9717V21.464H29.7277V26.846H34.9797V29.342Z" fill="url(#paint1_linear_1_2235)"/>
<defs>
<linearGradient id="paint0_linear_1_2235" x1="3.00774" y1="24" x2="53.1837" y2="24" gradientUnits="userSpaceOnUse">
<stop stop-color="#E9B873"/>
<stop offset="0.369792" stop-color="#FEDD8F"/>
<stop offset="1" stop-color="#B78D51"/>
</linearGradient>
<linearGradient id="paint1_linear_1_2235" x1="21.745" y1="28.094" x2="35.005" y2="28.094" gradientUnits="userSpaceOnUse">
<stop stop-color="#E9B873"/>
<stop offset="0.369792" stop-color="#FEDD8F"/>
<stop offset="1" stop-color="#B78D51"/>
</linearGradient>
</defs>
</svg>
