<svg width="21" height="20" viewBox="0 0 21 20" fill="none" xmlns="http://www.w3.org/2000/svg">
<path d="M10.5 2C8.81886 2 7.17547 2.46919 5.77765 3.34824C4.37984 4.2273 3.29037 5.47672 2.64703 6.93853C2.00368 8.40035 1.83535 10.0089 2.16333 11.5607C2.4913 13.1126 3.30085 14.538 4.4896 15.6569C5.67834 16.7757 7.1929 17.5376 8.84174 17.8462C10.4906 18.155 12.1997 17.9966 13.7528 17.391C15.306 16.7855 16.6335 15.7602 17.5675 14.4446C18.5015 13.129 19 11.5822 19 10C18.9979 7.87887 18.1017 5.84518 16.5081 4.34531C14.9145 2.84545 12.7537 2.00196 10.5 2ZM10.5 16.2222C9.19245 16.2222 7.91426 15.8573 6.82706 15.1736C5.73987 14.4898 4.89252 13.5181 4.39213 12.3811C3.89175 11.2442 3.76083 9.9931 4.01592 8.78611C4.27101 7.57911 4.90066 6.47042 5.82524 5.60023C6.74982 4.73003 7.92781 4.13742 9.21024 3.89734C10.4927 3.65725 11.8219 3.78047 13.0299 4.25142C14.238 4.72236 15.2705 5.51988 15.9969 6.54312C16.7234 7.56636 17.1111 8.76936 17.1111 10C17.109 11.6496 16.4118 13.2311 15.1725 14.3976C13.9331 15.5641 12.2527 16.2202 10.5 16.2222ZM13.963 11.4814C13.9609 12.1095 13.6949 12.7113 13.223 13.1554C12.7511 13.5995 12.1118 13.8499 11.4444 13.8518V14.1482C11.4444 14.3839 11.3449 14.61 11.1678 14.7767C10.9907 14.9434 10.7505 15.037 10.5 15.037C10.2495 15.037 10.0093 14.9434 9.83218 14.7767C9.65506 14.61 9.55556 14.3839 9.55556 14.1482V13.8518H8.61111C8.36063 13.8518 8.12041 13.7582 7.94328 13.5915C7.76617 13.4248 7.66667 13.1987 7.66667 12.963C7.66667 12.7272 7.76617 12.5011 7.94328 12.3344C8.12041 12.1678 8.36063 12.0741 8.61111 12.0741H11.4444C11.6115 12.0741 11.7716 12.0116 11.8897 11.9005C12.0077 11.7894 12.0741 11.6386 12.0741 11.4814C12.0741 11.3243 12.0077 11.1736 11.8897 11.0625C11.7716 10.9514 11.6115 10.8889 11.4444 10.8889H9.55556C8.8876 10.8889 8.24701 10.6391 7.7747 10.1946C7.30238 9.75009 7.03704 9.14718 7.03704 8.51852C7.03704 7.88986 7.30238 7.28695 7.7747 6.84242C8.24701 6.39788 8.8876 6.14815 9.55556 6.14815V5.85185C9.55556 5.61611 9.65506 5.39001 9.83218 5.22331C10.0093 5.05662 10.2495 4.96296 10.5 4.96296C10.7505 4.96296 10.9907 5.05662 11.1678 5.22331C11.3449 5.39001 11.4444 5.61611 11.4444 5.85185V6.14815H12.3889C12.6394 6.14815 12.8796 6.2418 13.0567 6.4085C13.2339 6.57519 13.3333 6.80129 13.3333 7.03704C13.3333 7.27279 13.2339 7.49888 13.0567 7.66558C12.8796 7.83227 12.6394 7.92593 12.3889 7.92593H9.55556C9.38857 7.92593 9.22842 7.98836 9.11034 8.09949C8.99226 8.21063 8.92593 8.36135 8.92593 8.51852C8.92593 8.67568 8.99226 8.82641 9.11034 8.93755C9.22842 9.04868 9.38857 9.11111 9.55556 9.11111H11.4444C12.1118 9.11307 12.7511 9.36343 13.223 9.80754C13.6949 10.2517 13.9609 10.8534 13.963 11.4814Z" fill="#CCC4BE"/>
<path d="M20.6472 0.520655C20.3458 0.233105 19.8571 0.233105 19.5557 0.520655L17.2261 2.74303C16.9246 3.03058 16.9246 3.49679 17.2261 3.78434C17.5275 4.07189 18.0162 4.07189 18.3176 3.78434L20.6472 1.56197C20.9487 1.27442 20.9487 0.808205 20.6472 0.520655Z" fill="#CCC4BE"/>
<path d="M17.6865 1.25697C17.2003 0.793119 17.5447 0 18.2323 0H20.2282C20.6544 0 21 0.329661 21 0.736318V2.64028C21 3.29627 20.1686 3.62479 19.6824 3.16093L17.6865 1.25697Z" fill="#CCC4BE"/>
<path d="M0.520655 0.352763C0.233105 0.654188 0.233105 1.1429 0.520655 1.44432L2.74303 3.77393C3.03058 4.07536 3.49679 4.07536 3.78434 3.77393C4.07189 3.47251 4.07189 2.9838 3.78434 2.68237L1.56197 0.352762C1.27442 0.0513367 0.808205 0.0513371 0.520655 0.352763Z" fill="#CCC4BE"/>
<path d="M1.25697 3.31346C0.793119 3.7997 0 3.45533 0 2.76768V0.771848C0 0.345568 0.329661 1.44499e-07 0.736318 1.44499e-07H2.64028C3.29627 1.44499e-07 3.62479 0.83139 3.16093 1.31763L1.25697 3.31346Z" fill="#CCC4BE"/>
<path d="M20.6472 19.4793C20.3458 19.7669 19.8571 19.7669 19.5557 19.4793L17.2261 17.257C16.9246 16.9694 16.9246 16.5032 17.2261 16.2157C17.5275 15.9281 18.0162 15.9281 18.3176 16.2157L20.6472 18.438C20.9487 18.7256 20.9487 19.1918 20.6472 19.4793Z" fill="#CCC4BE"/>
<path d="M17.6865 18.743C17.2003 19.2069 17.5447 20 18.2323 20H20.2282C20.6544 20 21 19.6703 21 19.2637V17.3597C21 16.7037 20.1686 16.3752 19.6824 16.8391L17.6865 18.743Z" fill="#CCC4BE"/>
<path d="M0.520655 19.6472C0.233105 19.3458 0.233105 18.8571 0.520655 18.5557L2.74303 16.2261C3.03058 15.9246 3.49679 15.9246 3.78434 16.2261C4.07189 16.5275 4.07189 17.0162 3.78434 17.3176L1.56197 19.6472C1.27442 19.9487 0.808205 19.9487 0.520655 19.6472Z" fill="#CCC4BE"/>
<path d="M1.25697 16.6865C0.793119 16.2003 0 16.5447 0 17.2323V19.2282C0 19.6544 0.329661 20 0.736318 20H2.64028C3.29627 20 3.62479 19.1686 3.16093 18.6824L1.25697 16.6865Z" fill="#CCC4BE"/>
</svg>
