<svg width="16" height="14" viewBox="0 0 16 14" fill="none" xmlns="http://www.w3.org/2000/svg">
<g id="flat-color-icons:expired" clip-path="url(#clip0_3071_32942)">
<g id="Warning">
<path id="Vector" d="M0.525199 11.3021L6.90094 0.631642C7.25514 0.0560543 8.09639 0.0560543 8.40632 0.631642L14.7821 11.3021C15.1363 11.8777 14.6935 12.6304 14.0294 12.6304H1.27789C0.613751 12.6304 0.170992 11.8777 0.525199 11.3021Z" fill="#FF624C"/>
<path id="Vector_2" d="M6.94458 10.3721C6.94458 10.2836 6.94458 10.195 6.98886 10.1065C7.03313 10.0179 7.07741 9.97364 7.12168 9.88509C7.16596 9.79653 7.25451 9.79654 7.34306 9.75226C7.43162 9.70798 7.52017 9.70798 7.60872 9.70798C7.69727 9.70798 7.8301 9.70798 7.91865 9.75226C8.0072 9.79654 8.09575 9.84081 8.14003 9.88509C8.18431 9.92936 8.22858 10.0179 8.27286 10.1065C8.31713 10.195 8.31713 10.2836 8.31713 10.3721C8.31713 10.4607 8.31713 10.5492 8.27286 10.6378C8.22858 10.7263 8.18431 10.7706 8.14003 10.8592C8.09575 10.9477 8.0072 10.9477 7.91865 10.992C7.8301 11.0363 7.74155 11.0363 7.60872 11.0363C7.47589 11.0363 7.38734 11.0363 7.34306 10.992C7.29879 10.9477 7.16596 10.9034 7.12168 10.8592C7.07741 10.8149 7.03313 10.7263 6.98886 10.6378C6.94458 10.5492 6.94458 10.4607 6.94458 10.3721ZM8.18431 8.99957H7.16596L6.98886 4.66052H8.31713L8.18431 8.99957Z" fill="#263238"/>
</g>
</g>
<defs>
<clipPath id="clip0_3071_32942">
<rect width="14.8571" height="13" fill="white" transform="translate(0.399902 0.199951)"/>
</clipPath>
</defs>
</svg>
