<svg width="39" height="37" viewBox="0 0 39 37" fill="none" xmlns="http://www.w3.org/2000/svg">
<path opacity="0.25" fill-rule="evenodd" clip-rule="evenodd" d="M19.625 36C29.7732 36 38 28.165 38 18.5C38 8.83502 29.7732 1 19.625 1C9.47677 1 1.25 8.83502 1.25 18.5C1.25 28.165 9.47677 36 19.625 36Z" stroke="white" stroke-width="1.5"/>
<g clip-path="url(#clip0_2322_152513)">
<path d="M22.4212 17.2231C22.8812 15.9735 23.24 14.9419 23.4975 14.1281C23.6612 13.6994 23.7956 13.1944 23.8781 12.6725L23.8837 12.6288L23.885 12.5838C23.885 12.4275 23.8362 12.2825 23.7531 12.1631L23.755 12.1656C23.7152 12.1141 23.6642 12.0724 23.6058 12.0437C23.5474 12.015 23.4832 12 23.4181 12L23.3987 12.0006H23.3993C23.2073 12.0006 23.0116 12.1602 22.8125 12.4794C22.5612 12.9188 22.3375 13.4288 22.1687 13.9625L22.1531 14.0188L21.1237 16.995L22.4212 17.2231ZM21.0518 19.9931C20.7572 19.9804 20.4639 19.9476 20.1737 19.895L20.2125 19.9006C19.9438 19.8532 19.6802 19.7808 19.425 19.6844L19.4556 19.6944C19.5652 19.9144 19.6629 20.1342 19.7487 20.3538C19.8193 20.525 19.8912 20.7419 19.9506 20.9631L19.96 21.0031C20.1243 20.7981 20.2943 20.615 20.4768 20.445L20.48 20.4419C20.6506 20.2819 20.8375 20.1344 21.0356 20.0019L21.0512 19.9919L21.0518 19.9931ZM19.8887 16.8731L18.7768 13.66C18.5976 13.0892 18.3652 12.5366 18.0825 12.0094L18.1075 12.0606C17.9496 11.8102 17.7779 11.685 17.5925 11.685H17.5812C17.5161 11.685 17.4518 11.6998 17.3932 11.7283C17.3347 11.7568 17.2833 11.7982 17.2431 11.8494L17.2425 11.85C17.1468 11.9777 17.0994 12.1351 17.1087 12.2944V12.2925C17.1637 12.9 17.2912 13.46 17.4837 13.9881L17.4687 13.9419C17.7091 14.7244 18.0696 15.7508 18.55 17.0213C18.5873 16.9499 18.6483 16.8938 18.7225 16.8625L18.725 16.8619C18.8245 16.8265 18.93 16.8108 19.0356 16.8156H19.0337C19.075 16.8156 19.1575 16.8192 19.2812 16.8263C19.405 16.8333 19.6075 16.85 19.8887 16.8763V16.8731ZM18.8793 21.8469C18.9408 21.8451 19.0012 21.83 19.0562 21.8026C19.1112 21.7752 19.1597 21.7361 19.1981 21.6881L19.1987 21.6875C19.2887 21.5952 19.3402 21.472 19.3425 21.3431V21.3425C19.2883 21.0195 19.1899 20.7055 19.05 20.4094L19.0593 20.4313C18.8406 19.8869 18.6043 19.425 18.3318 18.9869L18.3543 19.0256C18.1919 18.7382 17.9876 18.4766 17.7481 18.2494L17.7468 18.2481C17.5973 18.0951 17.3971 18.0018 17.1837 17.9856H17.1806C16.9919 18.0095 16.8203 18.107 16.7031 18.2569L16.7018 18.2588C16.5529 18.3879 16.4591 18.5694 16.44 18.7656V18.7688C16.4743 19.0469 16.5656 19.2981 16.7018 19.5181L16.6975 19.51C16.9131 19.9094 17.1425 20.2531 17.3987 20.5738L17.3881 20.56C17.6355 20.905 17.9201 21.2217 18.2368 21.5044L18.2425 21.5094C18.4087 21.6819 18.6275 21.8031 18.8731 21.8463L18.88 21.8475L18.8793 21.8469ZM15.79 21.6C15.8858 21.7171 16.0191 21.8888 16.19 22.115C16.6433 22.7396 17.0621 23.0519 17.4462 23.0519H17.4506C17.5772 23.052 17.6998 23.008 17.7975 22.9275L17.7968 22.9281C17.8403 22.8999 17.8768 22.8622 17.9035 22.8178C17.9303 22.7734 17.9466 22.7235 17.9512 22.6719V22.6706C17.9208 22.4842 17.8496 22.3068 17.7425 22.1513L17.745 22.1556C17.5612 21.8463 17.3743 21.5806 17.1693 21.33L17.1787 21.3419C16.973 21.0686 16.745 20.8129 16.4968 20.5775L16.4943 20.575C16.3811 20.4502 16.2301 20.3661 16.0643 20.3356L16.0593 20.335C15.7812 20.3519 15.5406 20.5006 15.3968 20.7181L15.395 20.7213C15.1908 20.9811 15.0834 21.304 15.0912 21.6344V21.6331C15.1012 21.9763 15.1781 22.2981 15.3087 22.5913L15.3025 22.575C15.4718 22.9744 15.6775 23.3181 15.9225 23.63L15.915 23.6206C16.3045 24.1457 16.8136 24.5703 17.4 24.8594L17.4237 24.87C18.0277 25.1605 18.6897 25.3103 19.36 25.3081L19.4193 25.3075H19.4162L19.4925 25.3081C20.1146 25.3088 20.7296 25.1756 21.2958 24.9177C21.8619 24.6597 22.366 24.283 22.7737 23.8131L22.7781 23.8081C23.6977 22.7754 24.1829 21.4275 24.1325 20.0456V20.0544L24.1337 19.9381C24.1337 19.5906 24.0956 19.2525 24.0237 18.9269L24.0293 18.9581C23.9852 18.7289 23.866 18.5209 23.6906 18.3669L23.6893 18.3656C23.1994 18.0472 22.6486 17.8344 22.0718 17.7406L22.0475 17.7375C21.2251 17.5502 20.3841 17.4569 19.5406 17.4594H19.4962H19.4987C19.3136 17.4425 19.128 17.4864 18.97 17.5844L18.9737 17.5825C18.9171 17.6366 18.8738 17.7031 18.847 17.7767C18.8202 17.8503 18.8108 17.929 18.8193 18.0069V18.0044C18.8216 18.2343 18.8983 18.4572 19.0381 18.6398C19.1778 18.8224 19.373 18.9547 19.5943 19.0169L19.6018 19.0188C20.2481 19.2244 20.9912 19.3425 21.7625 19.3425C21.8937 19.3425 22.0243 19.3394 22.1537 19.3325L22.1356 19.3331H22.5662C22.6562 19.3331 22.7368 19.375 22.7887 19.4406L22.7893 19.4413C22.8543 19.5325 22.8968 19.6431 22.9075 19.7631V19.7656C22.7012 19.9231 22.4625 20.0506 22.2037 20.1363L22.1862 20.1413C21.8675 20.2569 21.5918 20.3975 21.3381 20.5675L21.3518 20.5588C20.9572 20.844 20.6223 21.2039 20.3662 21.6181L20.3568 21.6338C20.1259 21.9834 19.996 22.39 19.9812 22.8088V22.8131C19.9918 23.11 20.0493 23.3894 20.1468 23.65L20.1406 23.6319C20.2087 23.8019 20.2643 24.0013 20.2981 24.2075L20.3006 24.2238V24.2956L20.28 24.3881C20.125 24.3725 19.977 24.3156 19.8515 24.2234C19.726 24.1312 19.6274 24.007 19.5662 23.8638L19.5643 23.8581C19.3692 23.4397 19.2793 22.9799 19.3025 22.5188V22.525V22.4325C19.2566 22.4747 19.204 22.5089 19.1468 22.5338L19.1431 22.535C19.0905 22.5557 19.0346 22.5663 18.9781 22.5663H18.9687C18.9081 22.5663 18.8493 22.5606 18.7918 22.55L18.7975 22.5506C18.7305 22.538 18.6643 22.5213 18.5993 22.5006L18.6118 22.5044C18.6293 22.5644 18.6456 22.6394 18.6568 22.7156L18.6581 22.7256C18.6662 22.7756 18.6718 22.8344 18.6737 22.8938V22.8988C18.6737 23.1588 18.5581 23.3913 18.375 23.5481L18.3737 23.5494C18.1925 23.7188 17.9481 23.8225 17.68 23.8225H17.6625H17.6631C17.1589 23.7901 16.6869 23.5636 16.3462 23.1906L16.345 23.1894C16.1552 23.0401 15.998 22.8536 15.883 22.6413C15.768 22.429 15.6976 22.1955 15.6762 21.955L15.6756 21.9481V21.9394C15.6756 21.8713 15.685 21.8056 15.7031 21.7431L15.7018 21.7481C15.7177 21.6915 15.7478 21.6398 15.7893 21.5981L15.79 21.6ZM23.1637 17.3981C23.4235 17.4285 23.6739 17.5134 23.8986 17.6472C24.1233 17.7811 24.3172 17.961 24.4675 18.175L24.4712 18.1806C24.7709 18.7766 24.9023 19.443 24.8512 20.1081L24.8518 20.0963C24.8832 20.8731 24.7612 21.6485 24.4928 22.3782C24.2244 23.1078 23.8148 23.7775 23.2875 24.3488L23.2912 24.3444C22.781 24.8889 22.1602 25.3181 21.4706 25.6031C20.7809 25.8881 20.0383 26.0224 19.2925 25.9969H19.3006H19.2962C18.6496 25.9975 18.0087 25.8764 17.4068 25.64L17.4418 25.6519C16.8655 25.4366 16.3379 25.1085 15.89 24.6869L15.8925 24.6888C15.4429 24.2902 15.0702 23.8125 14.7931 23.2794L14.7806 23.2525C14.5376 22.7724 14.4107 22.2419 14.41 21.7038V21.7031C14.3785 21.2139 14.5145 20.7285 14.7956 20.3269L14.7912 20.3338C15.0995 19.9812 15.5222 19.7484 15.985 19.6763L15.9962 19.675C15.9129 19.49 15.8409 19.3 15.7806 19.1063L15.77 19.0675C15.7287 18.9456 15.7044 18.8186 15.6975 18.69V18.6863C15.7113 18.5037 15.7616 18.3257 15.8454 18.1629C15.9291 18.0001 16.0446 17.8556 16.185 17.7381L16.1868 17.7363C16.4131 17.4681 16.7368 17.2888 17.1031 17.2531L17.1087 17.2525C17.2493 17.2544 17.3837 17.2788 17.5087 17.3219L17.5 17.3194C17.6818 17.3838 17.8387 17.4581 17.985 17.5475L17.9737 17.5413C17.445 16.0446 17.0604 14.8896 16.82 14.0763C16.6456 13.585 16.5181 13.0138 16.4618 12.4213L16.4593 12.3925C16.4389 12.0238 16.5573 11.6608 16.7912 11.375L16.7893 11.3775C16.9016 11.2517 17.0406 11.1527 17.1961 11.0877C17.3516 11.0227 17.5197 10.9934 17.6881 11.0019H17.6856C18.3306 11.0019 19.1468 12.4435 20.1343 15.3269C20.306 15.8215 20.4364 16.2025 20.5256 16.47C20.6014 16.2575 20.7079 15.9554 20.845 15.5638C21.8337 12.7075 22.685 11.2794 23.3987 11.2794L23.4431 11.2788C23.7587 11.2788 24.0418 11.4163 24.2368 11.6338L24.2375 11.635C24.4604 11.9024 24.5738 12.2443 24.555 12.5919V12.5888C24.4987 13.2006 24.3768 13.7631 24.195 14.2981L24.21 14.2463C23.9796 15.0496 23.6312 16.0992 23.165 17.395L23.1637 17.3981Z" fill="white"/>
</g>
<defs>
<clipPath id="clip0_2322_152513">
<rect width="10.625" height="15" fill="white" transform="translate(14.25 11)"/>
</clipPath>
</defs>
</svg>
