<svg width="15" height="12" viewBox="0 0 15 12" fill="none" xmlns="http://www.w3.org/2000/svg">
<g clip-path="url(#clip0_2230_5520)">
<path d="M4.3104 11.7359C4.14128 11.5667 4.04626 11.3373 4.04626 11.098C4.04626 10.8588 4.14128 10.6294 4.3104 10.4602L8.77606 5.99455L4.3104 1.52889C4.14607 1.35874 4.05514 1.13086 4.05719 0.894314C4.05925 0.657772 4.15413 0.4315 4.32139 0.264234C4.48866 0.0969667 4.71493 0.00208947 4.95147 3.42927e-05C5.18801 -0.00202184 5.4159 0.08891 5.58605 0.253245L10.6895 5.35673C10.8587 5.52591 10.9537 5.75533 10.9537 5.99455C10.9537 6.23377 10.8587 6.4632 10.6895 6.63238L5.58605 11.7359C5.41687 11.905 5.18744 12 4.94823 12C4.70901 12 4.47958 11.905 4.3104 11.7359Z" fill="#8B8682"/>
</g>
<defs>
<clipPath id="clip0_2230_5520">
<rect width="15" height="12" fill="white"/>
</clipPath>
</defs>
</svg>