<svg width="15" height="10" viewBox="0 0 15 10" fill="none" xmlns="http://www.w3.org/2000/svg">
<path d="M0.330173 1.01303C0.541647 0.801625 0.828428 0.682861 1.12745 0.682861C1.42648 0.682861 1.71326 0.801625 1.92473 1.01303L7.50681 6.59511L13.0889 1.01303C13.3016 0.807616 13.5864 0.693951 13.8821 0.69652C14.1778 0.699089 14.4606 0.817688 14.6697 1.02677C14.8788 1.23585 14.9974 1.51869 15 1.81437C15.0025 2.11005 14.8889 2.39491 14.6834 2.60759L8.30409 8.98695C8.09261 9.19836 7.80583 9.31712 7.50681 9.31712C7.20778 9.31712 6.921 9.19836 6.70953 8.98695L0.330173 2.60759C0.118763 2.39612 0 2.10934 0 1.81031C0 1.51129 0.118763 1.22451 0.330173 1.01303Z" fill="#8B8682"/>
</svg>