<svg width="32" height="33" viewBox="0 0 32 33" fill="none" xmlns="http://www.w3.org/2000/svg">
<g clip-path="url(#clip0_1932_4524)">
<path d="M2.89629 9.72819V22.2755C2.89629 23.0741 3.32174 23.8137 4.01554 24.2129L14.8807 30.4834C15.5746 30.8826 16.4254 30.8826 17.1192 30.4834L27.9845 24.2129C28.6783 23.8137 29.1037 23.0741 29.1037 22.2755V9.72819C29.1037 8.92966 28.6783 8.19004 27.9845 7.79078L17.1192 1.52037C16.4254 1.12111 15.5746 1.12111 14.8807 1.52037L4.01554 7.79078C3.32828 8.19004 2.89629 8.92966 2.89629 9.72819Z" fill="#213147"/>
<path d="M18.3759 18.4334L16.8247 22.6813C16.7789 22.7992 16.7789 22.9301 16.8247 23.0479L19.4886 30.359L22.5715 28.5787L18.8734 18.4334C18.7883 18.1978 18.461 18.1978 18.3759 18.4334Z" fill="#12AAFF"/>
<path d="M21.4784 11.286C21.3933 11.0503 21.0661 11.0503 20.981 11.286L19.4297 15.5339C19.3839 15.6517 19.3839 15.7826 19.4297 15.9004L23.7955 27.8718L26.8783 26.0914L21.4784 11.286Z" fill="#12AAFF"/>
<path d="M16 1.98509C16.0785 1.98509 16.1505 2.00473 16.2225 2.044L27.9779 8.83148C28.1154 8.91002 28.2004 9.05402 28.2004 9.21111V22.7861C28.2004 22.9432 28.1154 23.0872 27.9779 23.1657L16.2225 29.9597C16.1571 29.999 16.0785 30.0186 16 30.0186C15.9215 30.0186 15.8495 29.999 15.7775 29.9597L4.02863 23.1722C3.89118 23.0937 3.80609 22.9497 3.80609 22.7926V9.21111C3.80609 9.05402 3.89118 8.91002 4.02863 8.83148L15.784 2.044C15.8495 2.00473 15.928 1.98509 16 1.98509ZM16 0.00186157C15.5811 0.00186157 15.1622 0.113132 14.7891 0.329127L3.03374 7.11661C2.28758 7.5486 1.82286 8.34713 1.82286 9.21111V22.7861C1.82286 23.6501 2.28758 24.4551 3.03374 24.8871L14.7891 31.6746C15.1622 31.8906 15.5811 32.0019 16 32.0019C16.4189 32.0019 16.8378 31.8906 17.2109 31.6746L28.9662 24.8871C29.719 24.4551 30.1771 23.6566 30.1771 22.7861V9.21111C30.1771 8.34713 29.7124 7.54205 28.9662 7.11006L17.2174 0.329127C16.8378 0.113132 16.4189 0.00186157 16 0.00186157Z" fill="#9DCCED"/>
<path d="M8.23072 27.8849L9.31069 24.9264L11.4837 26.7329L9.45469 28.5918L8.23072 27.8849Z" fill="#213147"/>
<path d="M15.0117 8.2424H12.0335C11.811 8.2424 11.6081 8.37985 11.5361 8.5893L5.14788 26.1045L8.23072 27.8849L15.2669 8.59585C15.3258 8.42567 15.2015 8.2424 15.0117 8.2424Z" fill="white"/>
<path d="M20.2283 8.2424H17.2501C17.0276 8.2424 16.8247 8.37985 16.7527 8.5893L9.45469 28.5918L12.5375 30.3721L20.477 8.60239C20.5424 8.42567 20.4115 8.2424 20.2283 8.2424Z" fill="white"/>
</g>
<defs>
<clipPath id="clip0_1932_4524">
<rect width="32" height="32" fill="white" transform="translate(0 0.00186157)"/>
</clipPath>
</defs>
</svg>
