<svg width="20" height="16" viewBox="0 0 20 16" fill="none" xmlns="http://www.w3.org/2000/svg">
<path d="M9.48521 15.7096C9.29159 15.516 9.1902 15.2695 9.18105 14.9703C9.1726 14.6711 9.26518 14.4246 9.4588 14.231L14.6337 9.05611H2.83174C2.53251 9.05611 2.28151 8.95472 2.07874 8.75195C1.87667 8.54988 1.77563 8.29923 1.77563 8C1.77563 7.70077 1.87667 7.44977 2.07874 7.247C2.28151 7.04493 2.53251 6.94389 2.83174 6.94389H14.6337L9.4588 1.76898C9.26518 1.57536 9.1726 1.32893 9.18105 1.0297C9.1902 0.730473 9.29159 0.484048 9.48521 0.290429C9.67883 0.0968093 9.92525 0 10.2245 0C10.5237 0 10.7701 0.0968093 10.9638 0.290429L17.934 7.26073C18.0397 7.34873 18.1146 7.45857 18.159 7.59023C18.2027 7.7226 18.2245 7.85919 18.2245 8C18.2245 8.14081 18.2027 8.27283 18.159 8.39604C18.1146 8.51925 18.0397 8.63366 17.934 8.73927L10.9638 15.7096C10.7701 15.9032 10.5237 16 10.2245 16C9.92525 16 9.67883 15.9032 9.48521 15.7096Z" fill="url(#paint0_linear_951_4354)"/>
<defs>
<linearGradient id="paint0_linear_951_4354" x1="1.80703" y1="8" x2="18.2559" y2="8" gradientUnits="userSpaceOnUse">
<stop stop-color="#E9B873"/>
<stop offset="0.369792" stop-color="#FEDD8F"/>
<stop offset="1" stop-color="#B78D51"/>
</linearGradient>
</defs>
</svg>
