<svg width="15" height="12" viewBox="0 0 25 20" fill="none" xmlns="http://www.w3.org/2000/svg">
<path d="M11.8567 19.637C11.6147 19.3949 11.4879 19.0869 11.4765 18.7129C11.4659 18.3388 11.5817 18.0308 11.8237 17.7888L18.2923 11.3201H3.53986C3.16582 11.3201 2.85207 11.1934 2.5986 10.9399C2.34602 10.6873 2.21973 10.374 2.21973 10C2.21973 9.62596 2.34602 9.31221 2.5986 9.05875C2.85207 8.80616 3.16582 8.67987 3.53986 8.67987H18.2923L11.8237 2.21122C11.5817 1.9692 11.4659 1.66117 11.4765 1.28713C11.4879 0.913091 11.6147 0.60506 11.8567 0.363036C12.0987 0.121012 12.4067 0 12.7808 0C13.1548 0 13.4628 0.121012 13.7049 0.363036L22.4177 9.07591C22.5498 9.18592 22.6435 9.32321 22.6989 9.48779C22.7535 9.65325 22.7808 9.82398 22.7808 10C22.7808 10.176 22.7535 10.341 22.6989 10.495C22.6435 10.6491 22.5498 10.7921 22.4177 10.9241L13.7049 19.637C13.4628 19.879 13.1548 20 12.7808 20C12.4067 20 12.0987 19.879 11.8567 19.637Z" fill="url(#paint0_linear_2322_150903)"/>
<defs>
<linearGradient id="paint0_linear_2322_150903" x1="2.25897" y1="10" x2="22.82" y2="10" gradientUnits="userSpaceOnUse">
<stop stop-color="#E9B873"/>
<stop offset="0.369792" stop-color="#FEDD8F"/>
<stop offset="1" stop-color="#B78D51"/>
</linearGradient>
</defs>
</svg>
