<svg width="15" height="12" viewBox="0 0 15 12" fill="none" xmlns="http://www.w3.org/2000/svg">
<path id="Vector" d="M0.330173 1.01304C0.541647 0.801632 0.828428 0.682869 1.12745 0.682869C1.42648 0.682869 1.71326 0.801632 1.92473 1.01304L7.50681 6.59512L13.0889 1.01304C13.3016 0.807624 13.5864 0.693958 13.8821 0.696528C14.1778 0.699097 14.4606 0.817696 14.6697 1.02678C14.8788 1.23586 14.9974 1.5187 15 1.81438C15.0025 2.11006 14.8889 2.39491 14.6834 2.6076L8.30409 8.98695C8.09261 9.19836 7.80583 9.31713 7.50681 9.31713C7.20778 9.31713 6.921 9.19836 6.70953 8.98695L0.330173 2.6076C0.118763 2.39613 0 2.10934 0 1.81032C0 1.5113 0.118763 1.22452 0.330173 1.01304Z" fill="#8B8682"/>
</svg>
