<svg width="15" height="15" viewBox="0 0 12 8" fill="none" xmlns="http://www.w3.org/2000/svg">
<path d="M0.264138 0.810037C0.433317 0.640909 0.662742 0.545898 0.901961 0.545898C1.14118 0.545898 1.37061 0.640909 1.53978 0.810037L6.00545 5.2757L10.4711 0.810037C10.6413 0.645702 10.8691 0.55477 11.1057 0.556825C11.3422 0.558881 11.5685 0.65376 11.7358 0.821026C11.903 0.988293 11.9979 1.21456 12 1.45111C12.002 1.68765 11.9111 1.91553 11.7468 2.08568L6.64327 7.18917C6.47409 7.35829 6.24467 7.4533 6.00545 7.4533C5.76623 7.4533 5.5368 7.35829 5.36762 7.18917L0.264138 2.08568C0.0950107 1.9165 0 1.68708 0 1.44786C0 1.20864 0.0950107 0.979216 0.264138 0.810037Z" fill="white"/>
</svg>
