<svg width="15" height="12" viewBox="0 0 15 12" fill="none" xmlns="http://www.w3.org/2000/svg">
<path d="M0.330173 2.01303C0.541647 1.80162 0.828428 1.68286 1.12745 1.68286C1.42648 1.68286 1.71326 1.80162 1.92473 2.01303L7.50681 7.59511L13.0889 2.01303C13.3016 1.80762 13.5864 1.69395 13.8821 1.69652C14.1778 1.69909 14.4606 1.81769 14.6697 2.02677C14.8788 2.23585 14.9974 2.51869 15 2.81437C15.0025 3.11005 14.8889 3.39491 14.6834 3.60759L8.30409 9.98695C8.09261 10.1984 7.80583 10.3171 7.50681 10.3171C7.20778 10.3171 6.921 10.1984 6.70953 9.98695L0.330173 3.60759C0.118763 3.39612 0 3.10934 0 2.81031C0 2.51129 0.118763 2.22451 0.330173 2.01303Z" fill="white"/>
</svg>