<svg width="15" height="12" viewBox="0 0 15 12" fill="none" xmlns="http://www.w3.org/2000/svg">
<path d="M7.88628 0.217824C8.03149 0.363039 8.10753 0.547856 8.1144 0.772278C8.12073 0.996701 8.0513 1.18152 7.90608 1.32673L4.02489 5.20792L12.8764 5.20792C13.1008 5.20792 13.2891 5.28396 13.4411 5.43604C13.5927 5.58759 13.6685 5.77558 13.6685 6C13.6685 6.22442 13.5927 6.41267 13.4411 6.56475C13.2891 6.7163 13.1008 6.79208 12.8764 6.79208L4.02489 6.79208L7.90608 10.6733C8.0513 10.8185 8.12073 11.0033 8.1144 11.2277C8.10753 11.4521 8.03149 11.637 7.88628 11.7822C7.74106 11.9274 7.55625 12 7.33182 12C7.1074 12 6.92258 11.9274 6.77737 11.7822L1.54965 6.55446C1.47044 6.48845 1.4142 6.40607 1.38093 6.30733C1.34819 6.20805 1.33182 6.10561 1.33182 6C1.33182 5.89439 1.34819 5.79538 1.38093 5.70297C1.4142 5.61056 1.47044 5.52475 1.54965 5.44555L6.77737 0.217824C6.92258 0.0726095 7.1074 5.73586e-07 7.33182 5.53966e-07C7.55625 5.34346e-07 7.74106 0.0726095 7.88628 0.217824Z" fill="url(#paint0_linear_2322_151534)"/>
<defs>
<linearGradient id="paint0_linear_2322_151534" x1="13.6449" y1="6" x2="1.30828" y2="6" gradientUnits="userSpaceOnUse">
<stop stop-color="#E9B873"/>
<stop offset="0.369792" stop-color="#FEDD8F"/>
<stop offset="1" stop-color="#B78D51"/>
</linearGradient>
</defs>
</svg>
