<svg width="21" height="20" viewBox="0 0 21 20" fill="none" xmlns="http://www.w3.org/2000/svg">
<path id="arrow-back-golden" d="M11.1433 0.363038C11.3853 0.605063 11.5121 0.913092 11.5235 1.28713C11.5341 1.66117 11.4183 1.9692 11.1763 2.21122L4.70767 8.67987L19.4601 8.67987C19.8342 8.67987 20.1479 8.8066 20.4014 9.06007C20.654 9.31265 20.7803 9.62596 20.7803 10C20.7803 10.374 20.654 10.6878 20.4014 10.9413C20.1479 11.1938 19.8342 11.3201 19.4601 11.3201L4.70767 11.3201L11.1763 17.7888C11.4183 18.0308 11.5341 18.3388 11.5235 18.7129C11.5121 19.0869 11.3853 19.3949 11.1433 19.637C10.9013 19.879 10.5933 20 10.2192 20C9.84518 20 9.53715 19.879 9.29513 19.637L0.582256 10.9241C0.450242 10.8141 0.356511 10.6768 0.301067 10.5122C0.246501 10.3468 0.219216 10.176 0.219216 10C0.219216 9.82398 0.246501 9.65897 0.301066 9.50495C0.356511 9.35094 0.450242 9.20792 0.582255 9.07591L9.29512 0.363038C9.53715 0.121015 9.84518 9.55976e-07 10.2192 9.23277e-07C10.5933 8.90577e-07 10.9013 0.121015 11.1433 0.363038Z" fill="url(#paint0_linear_4873_4368)"/>
<defs>
<linearGradient id="paint0_linear_4873_4368" x1="20.741" y1="10" x2="0.179978" y2="10" gradientUnits="userSpaceOnUse">
<stop stop-color="#E9B873"/>
<stop offset="0.369792" stop-color="#FEDD8F"/>
<stop offset="1" stop-color="#B78D51"/>
</linearGradient>
</defs>
</svg>
