<svg width="15" height="12" viewBox="0 0 15 12" fill="none" xmlns="http://www.w3.org/2000/svg">
<g clip-path="url(#clip0_1118_5434)">
<path d="M14.6698 9.98697C14.4584 10.1984 14.1716 10.3171 13.8725 10.3171C13.5735 10.3171 13.2867 10.1984 13.0753 9.98697L7.49319 4.40489L1.91111 9.98697C1.69843 10.1924 1.41357 10.3061 1.11789 10.3035C0.822216 10.3009 0.539376 10.1823 0.330293 9.97323C0.12121 9.76415 0.00261299 9.48131 4.37701e-05 9.18563C-0.00252641 8.88995 0.111139 8.6051 0.316558 8.39241L6.69591 2.01305C6.90739 1.80164 7.19417 1.68288 7.49319 1.68288C7.79222 1.68288 8.079 1.80164 8.29047 2.01305L14.6698 8.39241C14.8812 8.60388 15 8.89066 15 9.18969C15 9.48871 14.8812 9.77549 14.6698 9.98697Z" fill="white"/>
</g>
<defs>
<clipPath id="clip0_1118_5434">
<rect width="15" height="12" fill="white"/>
</clipPath>
</defs>
</svg>
