<svg width="15" height="15" viewBox="0 0 15 15" fill="none" xmlns="http://www.w3.org/2000/svg">
<path d="M13.8946 11.1947C13.6991 11.3902 13.4339 11.5 13.1574 11.5C12.8809 11.5 12.6157 11.3902 12.4202 11.1947L7.25845 6.03298L2.09674 11.1947C1.90007 11.3846 1.63667 11.4897 1.36325 11.4874C1.08984 11.485 0.828303 11.3753 0.634965 11.182C0.441627 10.9887 0.331962 10.7271 0.329585 10.4537C0.327209 10.1803 0.432315 9.91689 0.622264 9.72022L6.52121 3.82127C6.71676 3.62578 6.98195 3.51596 7.25845 3.51596C7.53496 3.51596 7.80014 3.62578 7.99569 3.82127L13.8946 9.72022C14.0901 9.91576 14.2 10.1809 14.2 10.4575C14.2 10.734 14.0901 10.9991 13.8946 11.1947Z" fill="white"/>
</svg>
