<svg width="15" height="12" viewBox="0 0 15 12" fill="none" xmlns="http://www.w3.org/2000/svg">
<g clip-path="url(#clip0_1072_53417)">
<path d="M14.6698 9.98696C14.4584 10.1984 14.1716 10.3171 13.8725 10.3171C13.5735 10.3171 13.2867 10.1984 13.0753 9.98696L7.49319 4.40488L1.91111 9.98696C1.69843 10.1924 1.41357 10.306 1.11789 10.3035C0.822216 10.3009 0.539376 10.1823 0.330293 9.97322C0.12121 9.76414 0.00261299 9.4813 4.37701e-05 9.18562C-0.00252641 8.88995 0.111139 8.60509 0.316558 8.3924L6.69591 2.01305C6.90739 1.80164 7.19417 1.68287 7.49319 1.68287C7.79222 1.68287 8.079 1.80164 8.29047 2.01305L14.6698 8.3924C14.8812 8.60387 15 8.89066 15 9.18968C15 9.4887 14.8812 9.77548 14.6698 9.98696Z" fill="#8B8682"/>
</g>
<defs>
<clipPath id="clip0_1072_53417">
<rect width="15" height="12" fill="white" transform="translate(15 12) rotate(180)"/>
</clipPath>
</defs>
</svg>
