<svg width="33" height="33" viewBox="0 0 33 33" fill="none" xmlns="http://www.w3.org/2000/svg">
<g clip-path="url(#clip0_1448_11201)">
<path d="M25.8774 5.4772H6.10645V23.4586H25.8774V5.4772Z" fill="white"/>
<path fill-rule="evenodd" clip-rule="evenodd" d="M32.0024 16.0019C32.0024 24.8385 24.8391 32.0019 16.0024 32.0019C7.16588 32.0019 0.00244141 24.8385 0.00244141 16.0019C0.00244141 7.1653 7.16588 0.00186157 16.0024 0.00186157C24.8391 0.00186157 32.0024 7.1653 32.0024 16.0019ZM11.4685 22.3691H8.36335C7.71086 22.3691 7.38856 22.3691 7.19204 22.2434C6.97978 22.1057 6.85008 21.8778 6.83436 21.6261C6.82255 21.3944 6.98373 21.1113 7.30603 20.5452L14.973 7.0311C15.2993 6.45723 15.4643 6.1703 15.6727 6.06418C15.8967 5.9502 16.164 5.9502 16.388 6.06418C16.5964 6.1703 16.7614 6.45723 17.0877 7.0311L18.6639 9.78251L18.6719 9.79655C19.0242 10.4122 19.2029 10.7244 19.2809 11.0521C19.3674 11.4098 19.3674 11.7871 19.2809 12.1448C19.2023 12.4749 19.0255 12.7894 18.6678 13.4144L14.6405 20.5335L14.6301 20.5517C14.2754 21.1724 14.0956 21.487 13.8465 21.7244C13.5753 21.9839 13.2491 22.1724 12.8914 22.2787C12.5651 22.3691 12.1996 22.3691 11.4685 22.3691ZM19.31 22.3691H23.7593C24.4158 22.3691 24.746 22.3691 24.9426 22.2395C25.1548 22.1019 25.2884 21.8699 25.3003 21.6185C25.3116 21.3941 25.154 21.1221 24.8451 20.589C24.8344 20.5708 24.8237 20.5523 24.8129 20.5335L22.5842 16.7209L22.5588 16.678C22.2456 16.1484 22.0876 15.8809 21.8845 15.7776C21.6606 15.6636 21.3971 15.6636 21.1731 15.7776C20.9687 15.8837 20.8037 16.1628 20.4774 16.7248L18.2566 20.5375L18.249 20.5506C17.9239 21.1118 17.7615 21.3922 17.7732 21.6223C17.7889 21.8739 17.9186 22.1057 18.1308 22.2434C18.3235 22.3691 18.6536 22.3691 19.31 22.3691Z" fill="#E84142"/>
</g>
<defs>
<clipPath id="clip0_1448_11201">
<rect width="32" height="32" fill="white" transform="translate(0.00244141 0.00186157)"/>
</clipPath>
</defs>
</svg>
