<svg width="33" height="33" viewBox="0 0 33 33" fill="none" xmlns="http://www.w3.org/2000/svg">
<g clip-path="url(#clip0_1448_11184)">
<path fill-rule="evenodd" clip-rule="evenodd" d="M16.0024 0.00186157C24.8396 0.00186157 32.0024 7.16468 32.0024 16.0019C32.0024 24.839 24.8396 32.0019 16.0024 32.0019C7.16526 32.0019 0.00244141 24.839 0.00244141 16.0019C0.00244141 7.16468 7.16526 0.00186157 16.0024 0.00186157Z" fill="#F0B90B"/>
<path d="M8.79623 16.0019L8.80777 20.2326L12.4026 22.348V24.8249L6.70392 21.4826V14.7647L8.79623 16.0019ZM8.79623 11.7711V14.2365L6.70264 12.998V10.5326L8.79623 9.29417L10.9001 10.5326L8.79623 11.7711ZM13.9039 10.5326L15.9975 9.29417L18.1014 10.5326L15.9975 11.7711L13.9039 10.5326Z" fill="white"/>
<path d="M10.3091 19.3557V16.8788L12.4027 18.1172V20.5826L10.3091 19.3557ZM13.904 23.2352L15.9975 24.4737L18.1014 23.2352V25.7006L15.9975 26.939L13.904 25.7006V23.2352ZM21.104 10.5326L23.1975 9.29417L25.3014 10.5326V12.998L23.1975 14.2365V11.7711L21.104 10.5326ZM23.1975 20.2326L23.2091 16.0019L25.3027 14.7634V21.4813L19.604 24.8237V22.3467L23.1975 20.2326Z" fill="white"/>
<path d="M21.6961 19.3557L19.6025 20.5826V18.1172L21.6961 16.8788V19.3557Z" fill="white"/>
<path d="M21.6963 12.648L21.7078 15.1249L18.1027 17.2403V21.4813L16.0091 22.7083L13.9155 21.4813V17.2403L10.3104 15.1249V12.648L12.4129 11.4096L15.9963 13.5352L19.6014 11.4096L21.7052 12.648H21.6963ZM10.3091 8.41853L15.9975 5.06468L21.6963 8.41853L19.6027 9.65699L15.9975 7.53135L12.4027 9.65699L10.3091 8.41853Z" fill="white"/>
</g>
<defs>
<clipPath id="clip0_1448_11184">
<rect width="32" height="32" fill="white" transform="translate(0.00244141 0.00186157)"/>
</clipPath>
</defs>
</svg>
