<svg width="11" height="16" viewBox="0 0 11 16" fill="none" xmlns="http://www.w3.org/2000/svg">
<g clip-path="url(#clip0_2888_8208)">
<path d="M10.4118 6.67085C10.6202 5.25418 9.54518 4.48752 8.06185 3.97918L8.54518 2.05418L7.37851 1.76252L6.91185 3.63752C6.60352 3.56252 6.28685 3.48752 5.97018 3.42085L6.43685 1.53752L5.27018 1.24585L4.79518 3.16252C4.53685 3.10418 4.28685 3.04585 4.04518 2.98752V2.97918L2.42851 2.57918L2.12018 3.82918C2.12018 3.82918 2.98685 4.02918 2.97018 4.03752C3.44518 4.15418 3.52851 4.47085 3.51185 4.72085L2.96185 6.91252C2.99518 6.92085 3.03685 6.92918 3.08685 6.95418C3.04518 6.94585 3.00352 6.93752 2.96185 6.92085L2.19518 9.98752C2.13685 10.1292 1.98685 10.3458 1.66185 10.2625C1.67018 10.2792 0.811849 10.0542 0.811849 10.0542L0.228516 11.3959L1.75352 11.7792C2.03685 11.8542 2.31185 11.9208 2.58685 11.9958L2.10352 13.9375L3.27018 14.2292L3.75352 12.3042C4.07018 12.3875 4.38685 12.4708 4.68685 12.5459L4.21185 14.4625L5.37851 14.7542L5.86185 12.8125C7.86185 13.1875 9.36185 13.0375 9.98685 11.2292C10.4952 9.77918 9.96185 8.93752 8.91185 8.38752C9.68685 8.21252 10.2618 7.70418 10.4118 6.67085ZM7.73685 10.4209C7.37852 11.8709 4.92851 11.0875 4.13685 10.8875L4.77852 8.31252C5.57018 8.51252 8.12018 8.90418 7.73685 10.4209ZM8.10351 6.64585C7.77018 7.97085 5.73685 7.29585 5.07852 7.12918L5.66185 4.79585C6.32018 4.96252 8.44518 5.27085 8.10351 6.64585Z" fill="url(#paint0_linear_2888_8208)"/>
</g>
<defs>
<linearGradient id="paint0_linear_2888_8208" x1="5.33311" y1="1.24585" x2="5.33311" y2="14.7542" gradientUnits="userSpaceOnUse">
<stop stop-color="#F9AA4B"/>
<stop offset="1" stop-color="#F7931A"/>
</linearGradient>
<clipPath id="clip0_2888_8208">
<rect width="10.6667" height="16" fill="white"/>
</clipPath>
</defs>
</svg>
