<svg width="41" height="40" viewBox="0 0 41 40" fill="none" xmlns="http://www.w3.org/2000/svg">
<rect x="0.5" width="40" height="40" rx="8" fill="#27221D"/>
<path d="M29.5233 17.6385C29.8935 15.1215 27.9835 13.7594 25.3481 12.8563L26.2068 9.43615L24.1341 8.91795L23.3049 12.2492C22.7571 12.116 22.1945 11.9827 21.6319 11.8643L22.461 8.5182L20.3882 8L19.5443 11.4053C19.0853 11.3017 18.6411 11.198 18.2118 11.0944V11.0796L15.3395 10.3689L14.7917 12.5898C14.7917 12.5898 16.3315 12.9451 16.3019 12.9599C17.1458 13.1672 17.2938 13.7298 17.2642 14.174L16.287 18.0679C16.3463 18.0827 16.4203 18.0975 16.5091 18.1419C16.4351 18.1271 16.3611 18.1123 16.287 18.0827L14.9249 23.5312C14.8213 23.7829 14.5548 24.1678 13.9774 24.0197C13.9922 24.0494 12.4672 23.6496 12.4672 23.6496L11.4308 26.0333L14.1402 26.7144C14.6436 26.8476 15.1322 26.9661 15.6208 27.0993L14.7621 30.549L16.8349 31.0672L17.6936 27.6471C18.2562 27.7952 18.8188 27.9432 19.3518 28.0765L18.5079 31.4818L20.5807 32L21.4394 28.5503C24.9928 29.2165 27.6578 28.95 28.7682 25.7372C29.6714 23.161 28.7238 21.6656 26.8583 20.6885C28.2352 20.3775 29.2568 19.4744 29.5233 17.6385ZM24.7707 24.301C24.1341 26.8772 19.7812 25.4855 18.3746 25.1302L19.5147 20.5552C20.9212 20.9105 25.4518 21.6064 24.7707 24.301ZM25.4221 17.5941C24.8299 19.9482 21.2173 18.7489 20.0477 18.4528L21.0841 14.3072C22.2537 14.6033 26.0292 15.1511 25.4221 17.5941Z" fill="#8B8682"/>
</svg>