<svg width="32" height="33" viewBox="0 0 32 33" fill="none" xmlns="http://www.w3.org/2000/svg">
<g clip-path="url(#clip0_1917_4438)">
<path d="M28.0311 12.8532C28.5246 9.49724 25.978 7.68107 22.4641 6.47688L23.6091 1.91673L20.8454 1.2258L19.7399 5.6675C19.0095 5.48983 18.2593 5.31216 17.5092 5.15424L18.6147 0.692793L15.8509 0.00186157L14.7257 4.54227C14.1137 4.40408 13.5215 4.2659 12.949 4.12771V4.10797L9.11928 3.16041L8.38887 6.12154C8.38887 6.12154 10.4419 6.59532 10.4024 6.61506C11.5277 6.89144 11.7251 7.64159 11.6856 8.23382L10.3827 13.4257C10.4617 13.4454 10.5604 13.4652 10.6788 13.5244C10.5801 13.5046 10.4814 13.4849 10.3827 13.4454L8.56654 20.7101C8.42835 21.0457 8.07301 21.5589 7.30312 21.3615C7.32286 21.401 5.28955 20.868 5.28955 20.868L3.90768 24.0463L7.52027 24.9544C8.19146 25.132 8.84291 25.29 9.49436 25.4676L8.34939 30.0673L11.1131 30.7582L12.2581 26.198C13.0082 26.3954 13.7584 26.5929 14.4691 26.7705L13.3438 31.3109L16.1076 32.0019L17.2525 27.4022C21.9903 28.2906 25.5437 27.9352 27.0243 23.6515C28.2285 20.2165 26.9651 18.2227 24.4777 16.9198C26.3136 16.5053 27.6757 15.3011 28.0311 12.8532ZM21.6942 21.7366C20.8454 25.1715 15.0415 23.3159 13.1662 22.8421L14.6862 16.7421C16.5616 17.2159 22.6023 18.1437 21.6942 21.7366ZM22.5628 12.794C21.7732 15.9328 16.9564 14.3338 15.3969 13.9389L16.7788 8.41149C18.3383 8.8063 23.3722 9.53672 22.5628 12.794Z" fill="url(#paint0_linear_1917_4438)"/>
</g>
<defs>
<linearGradient id="paint0_linear_1917_4438" x1="16" y1="0.00186157" x2="16" y2="32.0019" gradientUnits="userSpaceOnUse">
<stop stop-color="#F9AA4B"/>
<stop offset="1" stop-color="#F7931A"/>
</linearGradient>
<clipPath id="clip0_1917_4438">
<rect width="32" height="32" fill="white" transform="translate(0 0.00186157)"/>
</clipPath>
</defs>
</svg>
