<svg width="32" height="33" viewBox="0 0 32 33" fill="none" xmlns="http://www.w3.org/2000/svg">
<g clip-path="url(#clip0_137_17003)">
<path d="M16 31.0454C24.0333 31.0454 30.5455 24.5332 30.5455 16.5C30.5455 8.46675 24.0333 1.95453 16 1.95453C7.96681 1.95453 1.45459 8.46675 1.45459 16.5C1.45459 24.5332 7.96681 31.0454 16 31.0454Z" stroke="#F89C2D" stroke-width="2" stroke-linecap="round" stroke-linejoin="round"/>
<path d="M13.091 10.6818V16.5H18.1819C18.9534 16.5 19.6934 16.1935 20.2389 15.6479C20.7845 15.1024 21.091 14.3624 21.091 13.5909C21.091 12.8193 20.7845 12.0794 20.2389 11.5338C19.6934 10.9883 18.9534 10.6818 18.1819 10.6818H16.7273M13.091 10.6818H10.1819M13.091 10.6818V7.77271M13.091 10.6818H16.7273M16.7273 10.6818V7.77271" stroke="#F89C2D" stroke-width="2" stroke-linecap="round" stroke-linejoin="round"/>
<path d="M13.091 22.3182V16.5H19.6364C20.408 16.5 21.1479 16.8065 21.6935 17.3521C22.239 17.8976 22.5455 18.6376 22.5455 19.4091C22.5455 20.1806 22.239 20.9206 21.6935 21.4661C21.1479 22.0117 20.408 22.3182 19.6364 22.3182H16.7273M13.091 22.3182V25.2273M13.091 22.3182H10.1819H16.7273M13.091 22.3182H16.7273M16.7273 22.3182V25.2273" stroke="#F89C2D" stroke-width="2" stroke-linecap="round" stroke-linejoin="round"/>
</g>
<defs>
<clipPath id="clip0_137_17003">
<rect width="32" height="32" fill="white" transform="translate(0 0.5)"/>
</clipPath>
</defs>
</svg>
