<svg width="56" height="48" viewBox="0 0 56 48" fill="none" xmlns="http://www.w3.org/2000/svg">
<path d="M51.3574 31.3206C51.3637 30.8329 51.1731 30.5483 50.7557 30.3152C49.2513 29.4778 47.7683 28.604 46.2664 27.7615C45.9756 27.5986 45.8477 27.4268 45.8502 27.0746C45.869 24.8494 45.8653 22.6255 45.8527 20.4003C45.8515 20.0957 45.9355 19.9277 46.2125 19.7797C47.7457 18.9636 49.2626 18.1162 50.792 17.2951C51.1593 17.0982 51.3574 16.8488 51.3536 16.4113C51.3398 14.6875 51.3436 12.9638 51.3511 11.2413C51.3524 10.8728 51.2157 10.6195 50.8948 10.4378C49.1535 9.4474 47.4148 8.45328 45.6797 7.45038C45.3438 7.25607 45.0517 7.25858 44.7145 7.45414C42.9945 8.45077 41.2695 9.43737 39.5383 10.4139C39.1835 10.6145 39.0155 10.8828 39.028 11.2865C39.0393 11.635 39.0305 11.9847 39.0305 12.3934C38.8901 12.322 38.835 12.2994 38.7836 12.2668C37.3244 11.3542 35.8601 10.4465 34.4135 9.51384C34.2731 9.42233 34.1703 9.16534 34.1678 8.98356C34.1489 7.33881 34.1452 5.69281 34.164 4.04806C34.169 3.56667 33.9897 3.26831 33.5698 3.03262C31.9037 2.09993 30.2464 1.15219 28.6004 0.184399C28.1667 -0.0700864 27.8157 -0.0562966 27.3869 0.195681C25.7409 1.16348 24.0836 2.11121 22.4163 3.0414C21.9901 3.27833 21.8259 3.58171 21.8309 4.05934C21.8484 5.68905 21.8309 7.31875 21.8434 8.94721C21.8459 9.24432 21.7732 9.4286 21.5062 9.59157C20.131 10.4327 18.7695 11.2977 17.4031 12.1527C17.2815 12.2292 17.1511 12.2931 16.9656 12.3959C16.9656 12.0587 16.943 11.8055 16.9706 11.5598C17.0358 10.9555 16.7976 10.5832 16.2523 10.2836C14.6188 9.39099 13.0079 8.45328 11.4033 7.5093C10.9908 7.26736 10.6473 7.25231 10.2286 7.49802C8.55503 8.47961 6.87016 9.44239 5.17777 10.3926C4.78414 10.6158 4.64122 10.9041 4.64498 11.3441C4.66003 13.0052 4.66379 14.6662 4.64248 16.326C4.63621 16.8187 4.83553 17.097 5.25801 17.3214C6.77865 18.1287 8.28048 18.9686 9.79737 19.7822C10.0506 19.9176 10.1496 20.0681 10.1484 20.3614C10.1358 22.6179 10.1371 24.8732 10.1484 27.1297C10.1496 27.4155 10.0656 27.576 9.81116 27.7202C8.25667 28.594 6.71597 29.4953 5.16148 30.3691C4.80545 30.5697 4.64498 30.8254 4.64749 31.2328C4.65877 32.9403 4.65752 34.6489 4.64749 36.3564C4.64498 36.7588 4.78664 37.0233 5.15521 37.2201C6.87894 38.144 8.59389 39.0855 10.3051 40.0332C10.6599 40.2301 10.9632 40.2225 11.3168 40.0257C12.697 39.2572 14.086 38.5001 15.4825 37.7629C15.6342 37.6827 15.9175 37.6802 16.0554 37.7705C17.9045 38.9764 19.7411 40.2 21.5676 41.4385C21.713 41.5376 21.8246 41.7833 21.8334 41.9663C21.8647 42.6546 21.866 43.3453 21.8396 44.0335C21.8196 44.535 22.0139 44.8371 22.4589 45.0753C24.2529 46.0331 26.0292 47.0222 27.8131 48H28.1892C29.9869 47.0159 31.7809 46.0255 33.5848 45.054C33.9935 44.8346 34.1803 44.5463 34.1652 44.0812C34.1427 43.408 34.1728 42.7335 34.154 42.0603C34.1452 41.7494 34.2304 41.5489 34.5075 41.3683C36.3152 40.1849 38.1129 38.9865 39.9031 37.7767C40.1525 37.6087 40.3318 37.6288 40.5775 37.7654C41.9302 38.5201 43.2979 39.2485 44.6493 40.0057C45.0329 40.2213 45.3588 40.2225 45.7462 40.0082C47.4148 39.0805 49.0909 38.1666 50.7745 37.2665C51.1819 37.0484 51.3637 36.7688 51.3574 36.3C51.3386 34.6389 51.3373 32.9779 51.3574 31.3181V31.3206ZM50.0235 16.0051C50.0235 16.1054 49.9345 16.247 49.8468 16.2959C48.5518 17.0143 47.2493 17.7213 45.859 18.4785C45.859 17.9281 45.859 17.4555 45.859 16.9817C45.859 16.247 45.8502 15.5112 45.8665 14.7765C45.869 14.6462 45.938 14.4544 46.037 14.3992C47.3283 13.6746 48.6295 12.9688 50.0311 12.2029C50.0311 13.538 50.0348 14.7715 50.0235 16.0051ZM42.923 10.0015C43.5875 9.62165 44.2469 9.23429 44.9175 8.86572C45.0379 8.79928 45.236 8.73409 45.3312 8.78674C46.6513 9.52137 47.9601 10.2773 49.3516 11.0746C47.9764 11.8255 46.6914 12.5313 45.3989 13.2233C45.2974 13.2772 45.1181 13.281 45.0178 13.2283C43.7128 12.5313 42.4153 11.8205 41.0489 11.0746C41.7108 10.696 42.3175 10.3488 42.923 10.0015ZM40.3519 12.5113C40.3519 12.4385 40.3682 12.3671 40.3857 12.2254C40.7731 12.431 41.1128 12.6078 41.4488 12.7908C42.3815 13.2985 43.3167 13.8012 44.2393 14.3265C44.3735 14.403 44.5277 14.5898 44.5302 14.7277C44.5527 15.9462 44.5427 17.1647 44.5427 18.4421C44.381 18.3707 44.2544 18.3243 44.1378 18.2604C42.9719 17.626 41.8036 16.9955 40.6502 16.3411C40.5098 16.2608 40.3669 16.044 40.3631 15.8873C40.3393 14.7628 40.3506 13.6357 40.3519 12.5113ZM33.3504 10.429C35.1493 11.5347 36.9408 12.6554 38.7184 13.7937C38.8764 13.8952 39.0092 14.1522 39.0193 14.344C39.0544 15.0624 39.0456 15.7845 39.0243 16.504C39.0205 16.6444 38.9252 16.835 38.8112 16.9102C37.115 18.0322 35.4101 19.1429 33.6976 20.2398C33.5873 20.3113 33.3617 20.3125 33.2451 20.2461C31.7997 19.435 30.3605 18.6114 28.9326 17.7689C28.7972 17.6887 28.6781 17.4631 28.6719 17.3001C28.6443 16.5805 28.6593 15.8597 28.6593 15.1401C28.6593 14.4193 28.643 13.6984 28.6719 12.9801C28.6781 12.8196 28.8035 12.5965 28.9414 12.5188C30.2214 11.7967 31.5113 11.0922 32.8113 10.4064C32.9517 10.3325 33.2137 10.345 33.3516 10.429H33.3504ZM27.343 28.5451C26.8817 28.2981 26.4743 28.0825 26.0681 27.8618C25.2044 27.3917 24.3381 26.9266 23.4831 26.439C23.3452 26.36 23.176 26.1782 23.1735 26.0416C23.1497 24.8243 23.1597 23.607 23.1597 22.2744C24.3155 22.9025 25.3586 23.5293 26.453 24.0446C27.155 24.3743 27.4283 24.788 27.3606 25.5727C27.2791 26.5317 27.3418 27.5033 27.3418 28.5451H27.343ZM23.8542 21.1487C24.5199 20.7676 25.1392 20.4141 25.756 20.0606C26.4066 19.6882 27.0535 19.3059 27.7129 18.9473C27.8432 18.8759 28.0614 18.8182 28.1704 18.8784C29.4805 19.6067 30.778 20.3577 32.1557 21.1474C30.798 21.8883 29.5118 22.5966 28.2156 23.2874C28.104 23.3475 27.9034 23.3463 27.7906 23.2861C26.4956 22.5954 25.2081 21.8871 23.853 21.1474L23.8542 21.1487ZM28.6669 24.7767C28.6669 24.6751 28.7396 24.5285 28.8223 24.4821C30.1273 23.755 31.4399 23.0417 32.8427 22.2732C32.8427 22.6994 32.8427 23.0354 32.8427 23.3714C32.8427 24.2151 32.8552 25.06 32.8314 25.9037C32.8264 26.0729 32.7273 26.3161 32.5945 26.3913C31.3208 27.1147 30.0296 27.8092 28.6581 28.5588C28.6581 27.24 28.6543 26.0077 28.6644 24.7754L28.6669 24.7767ZM32.8439 6.68693C32.8439 7.29744 32.8552 7.90921 32.8364 8.51972C32.8314 8.67141 32.7737 8.89706 32.6672 8.95724C31.3634 9.69186 30.0446 10.4014 28.6618 11.1548C28.6618 9.82976 28.6593 8.58366 28.6681 7.3363C28.6681 7.2498 28.7421 7.12444 28.8173 7.08307C30.1261 6.35723 31.4411 5.64266 32.8439 4.8767C32.8439 5.54112 32.8439 6.11402 32.8439 6.68693ZM24.1563 3.57544C25.3347 2.89849 26.5119 2.21777 27.7003 1.55837C27.8457 1.47814 28.1015 1.44429 28.2356 1.51825C29.4805 2.20524 30.709 2.9198 31.9426 3.62935C31.9952 3.65944 32.0379 3.70582 32.1168 3.77226C30.7918 4.49435 29.4955 5.20766 28.188 5.90342C28.0802 5.96108 27.8808 5.93726 27.7643 5.87584C26.4843 5.19011 25.2119 4.48933 23.8993 3.77226C24.0009 3.69328 24.0723 3.62308 24.1563 3.57544ZM23.1635 4.87419C23.522 5.06976 23.8041 5.22521 24.0874 5.3794C25.0765 5.91971 26.0681 6.45376 27.0497 7.0066C27.1751 7.07806 27.3293 7.24354 27.3318 7.36764C27.3531 8.60246 27.3443 9.83728 27.3443 11.1586C25.9691 10.4064 24.6778 9.70565 23.3954 8.99108C23.2926 8.93342 23.1748 8.78549 23.1735 8.67893C23.1585 7.44412 23.1635 6.2093 23.1635 4.8767V4.87419ZM16.9831 14.329C16.9919 14.1497 17.1147 13.9065 17.2614 13.8125C19.0403 12.6755 20.8368 11.566 22.6207 10.4353C22.8526 10.2886 23.0231 10.2873 23.26 10.419C24.5161 11.1197 25.7873 11.7942 27.0384 12.5025C27.1863 12.5865 27.323 12.8247 27.3305 12.9977C27.3631 13.716 27.3443 14.4368 27.3443 15.1576C27.3443 15.8622 27.3631 16.568 27.3318 17.2712C27.3242 17.4493 27.2039 17.6962 27.0597 17.7815C25.6469 18.6176 24.2215 19.4325 22.7861 20.231C22.652 20.305 22.3887 20.2875 22.2558 20.2022C20.581 19.1341 18.9149 18.0523 17.2589 16.9528C17.1135 16.8563 16.9894 16.6194 16.9819 16.4414C16.9505 15.7381 16.9505 15.0323 16.9819 14.329H16.9831ZM15.6543 13.0503C15.6543 13.988 15.6643 14.927 15.6443 15.8647C15.6405 16.0189 15.5427 16.242 15.4199 16.311C14.1687 17.0155 12.9026 17.6962 11.6402 18.3807C11.6026 18.4008 11.5524 18.397 11.4609 18.4133C11.4609 17.1509 11.4584 15.9061 11.4672 14.6612C11.4672 14.5747 11.5424 14.4506 11.6176 14.4092C12.9264 13.6834 14.2402 12.9688 15.653 12.1966C15.653 12.5388 15.653 12.7946 15.653 13.0503H15.6543ZM10.1446 18.4283C10.003 18.3707 9.89515 18.3393 9.79737 18.2854C8.64403 17.6599 7.49572 17.023 6.33737 16.4075C6.0716 16.2658 5.95502 16.1104 5.96254 15.7932C5.9851 14.7615 5.97006 13.7285 5.97257 12.6955C5.97257 12.5614 5.99012 12.4285 6.00516 12.2267C6.47903 12.4812 6.9015 12.7056 7.32272 12.935C8.16014 13.39 9.00132 13.8376 9.82745 14.314C9.97037 14.3967 10.1296 14.601 10.1321 14.7527C10.1572 15.9562 10.1459 17.1597 10.1459 18.4271L10.1446 18.4283ZM9.5667 12.6868C8.67412 12.0888 7.68501 11.635 6.6583 11.0746C8.03603 10.2848 9.33603 9.53766 10.6411 8.79928C10.72 8.75415 10.8629 8.74036 10.9369 8.78173C12.257 9.52513 13.5708 10.2798 14.9598 11.0733C13.9356 11.6325 12.9302 12.0775 12.0426 12.693C11.1588 13.3073 10.4367 13.2672 9.5667 12.6855V12.6868ZM10.1446 38.4311C9.78358 38.2381 9.47268 38.0738 9.16303 37.9046C8.20151 37.3806 7.23622 36.8616 6.28347 36.3213C6.14682 36.2435 5.98761 36.058 5.9851 35.9189C5.96129 34.6991 5.97132 33.4781 5.97132 32.1618C7.3666 32.924 8.67036 33.631 9.9641 34.3543C10.0581 34.407 10.1346 34.5762 10.1358 34.6916C10.1484 35.9113 10.1434 37.1324 10.1434 38.4311H10.1446ZM11.1036 33.1358C10.9695 33.206 10.7514 33.2574 10.636 33.196C9.326 32.5015 8.02851 31.7844 6.65955 31.036C8.02349 30.2563 9.30845 29.5154 10.6034 28.7908C10.7125 28.7306 10.9143 28.7344 11.0247 28.7958C12.3197 29.5204 13.6046 30.2613 14.9573 31.0347C14.3956 31.3444 13.8842 31.6277 13.3727 31.9085C12.6193 32.321 11.8683 32.7384 11.1061 33.1358H11.1036ZM15.6468 35.959C15.6468 36.058 15.5578 36.2009 15.47 36.2498C14.1625 36.9757 12.8474 37.6902 11.4622 38.4462C11.4622 37.1211 11.4584 35.8762 11.4709 34.6326C11.4709 34.5361 11.5687 34.402 11.6577 34.3518C12.9552 33.631 14.259 32.9227 15.6543 32.1592C15.6543 33.4944 15.658 34.7267 15.6468 35.959ZM15.9714 30.087C14.5498 29.2947 13.1358 28.4861 11.7355 27.6562C11.5926 27.571 11.476 27.3178 11.4722 27.1397C11.4484 26.0115 11.4597 24.8832 11.4597 23.755C11.4597 22.6267 11.4659 21.4985 11.4547 20.3702C11.4521 20.112 11.5086 19.9465 11.7593 19.8123C13.0305 19.1366 14.2866 18.4308 15.5603 17.7602C15.6982 17.6875 15.9602 17.7025 16.0943 17.7877C17.9283 18.9599 19.7524 20.1458 21.5676 21.348C21.7055 21.4395 21.8296 21.6664 21.8321 21.8319C21.8534 23.2259 21.8534 24.6212 21.8321 26.0153C21.8296 26.1832 21.708 26.4064 21.5701 26.5054C19.889 27.7076 18.1979 28.8973 16.4967 30.0707C16.3726 30.156 16.1056 30.161 15.9714 30.0858V30.087ZM21.8384 39.2999C21.8622 39.4979 21.8422 39.7023 21.8422 40.0257C20.5584 39.172 19.4151 38.3158 18.1828 37.62C17.2288 37.0822 16.8352 36.4441 16.9468 35.3297C17.0646 34.1512 16.9806 32.9515 16.9681 31.7619C16.9643 31.4823 17.0483 31.3043 17.2815 31.1426C18.9513 29.9792 20.6073 28.797 22.2822 27.6425C22.4188 27.5484 22.7059 27.5397 22.8551 27.6186C24.2654 28.3633 25.6582 29.143 27.066 29.894C27.3017 30.0193 27.3531 30.1685 27.3518 30.4117C27.3418 31.9148 27.3393 33.4191 27.3543 34.9222C27.3568 35.2093 27.2678 35.3673 27.0146 35.5102C25.5278 36.3451 24.0636 37.2214 22.5655 38.035C22.0227 38.3296 21.7644 38.6919 21.8396 39.3011L21.8384 39.2999ZM27.3455 46.2311C25.9653 45.4765 24.6741 44.7744 23.3891 44.0624C23.2938 44.0097 23.1773 43.8844 23.176 43.7916C23.1622 42.543 23.166 41.2944 23.166 39.9555C23.9094 40.3604 24.5776 40.7227 25.2457 41.0875C25.85 41.4172 26.4592 41.7382 27.0547 42.0842C27.1801 42.1569 27.3305 42.3223 27.3318 42.4477C27.3518 43.6813 27.3443 44.9136 27.3443 46.2311H27.3455ZM28.1617 40.9998C28.0739 41.0474 27.9109 41.0299 27.8169 40.9785C26.5119 40.2777 25.2144 39.5656 23.858 38.8247C25.2232 38.0412 26.5345 37.2866 27.852 36.5407C27.9297 36.4968 28.0739 36.4943 28.1504 36.5381C29.4692 37.2828 30.7817 38.0362 32.1569 38.8235C30.7867 39.5732 29.478 40.2927 28.1617 40.9985V40.9998ZM32.8377 43.7527C32.8377 43.8442 32.7737 43.9796 32.6985 44.021C31.3797 44.7531 30.0546 45.4727 28.6631 46.2324C28.6631 44.9086 28.6606 43.6637 28.6694 42.4201C28.6694 42.3324 28.7383 42.2045 28.8123 42.1631C30.1198 41.4373 31.4324 40.7227 32.8439 39.9505C32.8439 41.2869 32.8464 42.5192 32.8377 43.7527ZM39.0368 36.5432C39.0368 36.6497 38.9917 36.8039 38.9127 36.8566C37.372 37.8971 35.8225 38.925 34.1627 40.0307C34.1627 39.6346 34.1489 39.355 34.1665 39.0767C34.1941 38.6317 34.0023 38.3509 33.6162 38.134C32.0892 37.2753 30.5761 36.389 29.048 35.5315C28.7709 35.376 28.6493 35.2156 28.6531 34.8821C28.6731 33.3941 28.6694 31.906 28.6556 30.418C28.6531 30.1459 28.7408 30.0018 28.979 29.8739C30.3718 29.128 31.7595 28.3721 33.1398 27.6036C33.3842 27.4682 33.551 27.4908 33.7716 27.6475C35.4289 28.8271 37.1 29.9892 38.7535 31.1764C38.8989 31.2817 39.023 31.5237 39.0255 31.7042C39.0481 33.3176 39.0431 34.931 39.0368 36.5444V36.5432ZM40.0297 30.0908C39.8968 30.1647 39.631 30.1522 39.5057 30.0657C37.8045 28.8911 36.1146 27.7001 34.4348 26.4954C34.2981 26.3976 34.1778 26.1732 34.1753 26.0065C34.1552 24.6125 34.154 23.2172 34.1753 21.8231C34.1778 21.6589 34.3094 21.4383 34.4498 21.3455C36.2651 20.1445 38.0891 18.9574 39.9231 17.7852C40.056 17.7 40.318 17.6875 40.4572 17.7602C41.7308 18.4321 42.9957 19.1203 44.2469 19.8311C44.3935 19.9151 44.5302 20.1583 44.5339 20.3301C44.559 21.4734 44.5465 22.6179 44.5465 23.7612C44.5465 24.8895 44.539 26.0178 44.5527 27.146C44.5565 27.4143 44.475 27.5672 44.2356 27.7014C42.8303 28.4912 41.4388 29.3048 40.0297 30.0883V30.0908ZM44.5678 35.5528C44.475 36.4792 44.5465 37.4219 44.5465 38.4349C44.0262 38.1553 43.5636 37.9084 43.1023 37.6576C42.2912 37.2176 41.4776 36.7826 40.6765 36.325C40.5387 36.2461 40.3694 36.0655 40.3669 35.9289C40.3431 34.7104 40.3531 33.4906 40.3531 32.158C41.4789 32.771 42.493 33.3916 43.5661 33.883C44.3396 34.2365 44.6543 34.6853 44.5665 35.5541L44.5678 35.5528ZM45.3877 33.1935C45.2936 33.2436 45.1307 33.2549 45.0404 33.206C43.7228 32.4977 42.4116 31.7756 41.0526 31.0322C42.4053 30.2588 43.7053 29.5103 45.0116 28.777C45.1106 28.7218 45.2949 28.7206 45.3939 28.777C46.6977 29.5103 47.9939 30.2575 49.3516 31.0347C47.9927 31.7769 46.6927 32.4915 45.3877 33.1922V33.1935ZM50.0273 35.7797C50.0248 35.9414 49.9584 36.1846 49.8418 36.2498C48.5518 36.9807 47.2468 37.6852 45.8615 38.4424C45.8615 37.1311 45.8565 35.9113 45.869 34.6903C45.869 34.575 45.9493 34.4082 46.042 34.3556C47.337 33.6323 48.6408 32.9252 50.0348 32.1643C50.0348 32.4175 50.0348 32.5955 50.0348 32.7723C50.0348 33.7752 50.0436 34.7768 50.0261 35.7797H50.0273Z" fill="#8B8682"/>
</svg>
