<svg width="48" height="49" viewBox="0 0 48 49" fill="none" xmlns="http://www.w3.org/2000/svg">
<path d="M47.3574 31.8206C47.3637 31.3329 47.1731 31.0483 46.7557 30.8152C45.2513 29.9778 43.7683 29.104 42.2664 28.2615C41.9756 28.0986 41.8477 27.9268 41.8502 27.5746C41.869 25.3494 41.8653 23.1255 41.8527 20.9003C41.8515 20.5957 41.9355 20.4277 42.2125 20.2797C43.7457 19.4636 45.2626 18.6162 46.792 17.7951C47.1593 17.5982 47.3574 17.3488 47.3536 16.9113C47.3398 15.1875 47.3436 13.4638 47.3511 11.7413C47.3524 11.3728 47.2157 11.1195 46.8948 10.9378C45.1535 9.9474 43.4148 8.95328 41.6797 7.95038C41.3438 7.75607 41.0517 7.75858 40.7145 7.95414C38.9945 8.95077 37.2695 9.93737 35.5383 10.9139C35.1835 11.1145 35.0155 11.3828 35.028 11.7865C35.0393 12.135 35.0305 12.4847 35.0305 12.8934C34.8901 12.822 34.835 12.7994 34.7836 12.7668C33.3244 11.8542 31.8601 10.9465 30.4135 10.0138C30.2731 9.92233 30.1703 9.66534 30.1678 9.48356C30.1489 7.83881 30.1452 6.19281 30.164 4.54806C30.169 4.06667 29.9897 3.76831 29.5698 3.53262C27.9037 2.59993 26.2464 1.65219 24.6004 0.684399C24.1667 0.429914 23.8157 0.443703 23.3869 0.695681C21.7409 1.66348 20.0836 2.61121 18.4163 3.5414C17.9901 3.77833 17.8259 4.08171 17.8309 4.55934C17.8484 6.18905 17.8309 7.81875 17.8434 9.44721C17.8459 9.74432 17.7732 9.9286 17.5062 10.0916C16.131 10.9327 14.7695 11.7977 13.4031 12.6527C13.2815 12.7292 13.1511 12.7931 12.9656 12.8959C12.9656 12.5587 12.943 12.3055 12.9706 12.0598C13.0358 11.4555 12.7976 11.0832 12.2523 10.7836C10.6188 9.89099 9.00789 8.95328 7.40325 8.0093C6.99081 7.76736 6.64732 7.75231 6.22861 7.99802C4.55503 8.97961 2.87016 9.94239 1.17777 10.8926C0.784136 11.1158 0.641224 11.4041 0.644984 11.8441C0.660028 13.5052 0.663789 15.1662 0.642477 16.826C0.636209 17.3187 0.835535 17.597 1.25801 17.8214C2.77865 18.6287 4.28048 19.4686 5.79737 20.2822C6.0506 20.4176 6.14963 20.5681 6.14838 20.8614C6.13584 23.1179 6.1371 25.3732 6.14838 27.6297C6.14963 27.9155 6.06564 28.076 5.81116 28.2202C4.25667 29.094 2.71597 29.9953 1.16148 30.8691C0.805448 31.0697 0.644984 31.3254 0.647492 31.7328C0.658774 33.4403 0.657521 35.1489 0.647492 36.8564C0.644984 37.2588 0.786644 37.5233 1.15521 37.7201C2.87894 38.644 4.59389 39.5855 6.30508 40.5332C6.65986 40.7301 6.96323 40.7225 7.31675 40.5257C8.69699 39.7572 10.086 39.0001 11.4825 38.2629C11.6342 38.1827 11.9175 38.1802 12.0554 38.2705C13.9045 39.4764 15.7411 40.7 17.5676 41.9385C17.713 42.0376 17.8246 42.2833 17.8334 42.4663C17.8647 43.1546 17.866 43.8453 17.8396 44.5335C17.8196 45.035 18.0139 45.3371 18.4589 45.5753C20.2529 46.5331 22.0292 47.5222 23.8131 48.5H24.1892C25.9869 47.5159 27.7809 46.5255 29.5848 45.554C29.9935 45.3346 30.1803 45.0463 30.1652 44.5812C30.1427 43.908 30.1728 43.2335 30.154 42.5603C30.1452 42.2494 30.2304 42.0489 30.5075 41.8683C32.3152 40.6849 34.1129 39.4865 35.9031 38.2767C36.1525 38.1087 36.3318 38.1288 36.5775 38.2654C37.9302 39.0201 39.2979 39.7485 40.6493 40.5057C41.0329 40.7213 41.3588 40.7225 41.7462 40.5082C43.4148 39.5805 45.0909 38.6666 46.7745 37.7665C47.1819 37.5484 47.3637 37.2688 47.3574 36.8C47.3386 35.1389 47.3373 33.4779 47.3574 31.8181V31.8206ZM46.0235 16.5051C46.0235 16.6054 45.9345 16.747 45.8468 16.7959C44.5518 17.5143 43.2493 18.2213 41.859 18.9785C41.859 18.4281 41.859 17.9555 41.859 17.4817C41.859 16.747 41.8502 16.0112 41.8665 15.2765C41.869 15.1462 41.938 14.9544 42.037 14.8992C43.3283 14.1746 44.6295 13.4688 46.0311 12.7029C46.0311 14.038 46.0348 15.2715 46.0235 16.5051ZM38.923 10.5015C39.5875 10.1217 40.2469 9.73429 40.9175 9.36572C41.0379 9.29928 41.236 9.23409 41.3312 9.28674C42.6513 10.0214 43.9601 10.7773 45.3516 11.5746C43.9764 12.3255 42.6914 13.0313 41.3989 13.7233C41.2974 13.7772 41.1181 13.781 41.0178 13.7283C39.7128 13.0313 38.4153 12.3205 37.0489 11.5746C37.7108 11.196 38.3175 10.8488 38.923 10.5015ZM36.3519 13.0113C36.3519 12.9385 36.3682 12.8671 36.3857 12.7254C36.7731 12.931 37.1128 13.1078 37.4488 13.2908C38.3815 13.7985 39.3167 14.3012 40.2393 14.8265C40.3735 14.903 40.5277 15.0898 40.5302 15.2277C40.5527 16.4462 40.5427 17.6647 40.5427 18.9421C40.381 18.8707 40.2544 18.8243 40.1378 18.7604C38.9719 18.126 37.8036 17.4955 36.6502 16.8411C36.5098 16.7608 36.3669 16.544 36.3631 16.3873C36.3393 15.2628 36.3506 14.1357 36.3519 13.0113ZM29.3504 10.929C31.1493 12.0347 32.9408 13.1554 34.7184 14.2937C34.8764 14.3952 35.0092 14.6522 35.0193 14.844C35.0544 15.5624 35.0456 16.2845 35.0243 17.004C35.0205 17.1444 34.9252 17.335 34.8112 17.4102C33.115 18.5322 31.4101 19.6429 29.6976 20.7398C29.5873 20.8113 29.3617 20.8125 29.2451 20.7461C27.7997 19.935 26.3605 19.1114 24.9326 18.2689C24.7972 18.1887 24.6781 17.9631 24.6719 17.8001C24.6443 17.0805 24.6593 16.3597 24.6593 15.6401C24.6593 14.9193 24.643 14.1984 24.6719 13.4801C24.6781 13.3196 24.8035 13.0965 24.9414 13.0188C26.2214 12.2967 27.5113 11.5922 28.8113 10.9064C28.9517 10.8325 29.2137 10.845 29.3516 10.929H29.3504ZM23.343 29.0451C22.8817 28.7981 22.4743 28.5825 22.0681 28.3618C21.2044 27.8917 20.3381 27.4266 19.4831 26.939C19.3452 26.86 19.176 26.6782 19.1735 26.5416C19.1497 25.3243 19.1597 24.107 19.1597 22.7744C20.3155 23.4025 21.3586 24.0293 22.453 24.5446C23.155 24.8743 23.4283 25.288 23.3606 26.0727C23.2791 27.0317 23.3418 28.0033 23.3418 29.0451H23.343ZM19.8542 21.6487C20.5199 21.2676 21.1392 20.9141 21.756 20.5606C22.4066 20.1882 23.0535 19.8059 23.7129 19.4473C23.8432 19.3759 24.0614 19.3182 24.1704 19.3784C25.4805 20.1067 26.778 20.8577 28.1557 21.6474C26.798 22.3883 25.5118 23.0966 24.2156 23.7874C24.104 23.8475 23.9034 23.8463 23.7906 23.7861C22.4956 23.0954 21.2081 22.3871 19.853 21.6474L19.8542 21.6487ZM24.6669 25.2767C24.6669 25.1751 24.7396 25.0285 24.8223 24.9821C26.1273 24.255 27.4399 23.5417 28.8427 22.7732C28.8427 23.1994 28.8427 23.5354 28.8427 23.8714C28.8427 24.7151 28.8552 25.56 28.8314 26.4037C28.8264 26.5729 28.7273 26.8161 28.5945 26.8913C27.3208 27.6147 26.0296 28.3092 24.6581 29.0588C24.6581 27.74 24.6543 26.5077 24.6644 25.2754L24.6669 25.2767ZM28.8439 7.18693C28.8439 7.79744 28.8552 8.40921 28.8364 9.01972C28.8314 9.17141 28.7737 9.39706 28.6672 9.45724C27.3634 10.1919 26.0446 10.9014 24.6618 11.6548C24.6618 10.3298 24.6593 9.08366 24.6681 7.8363C24.6681 7.7498 24.7421 7.62444 24.8173 7.58307C26.1261 6.85723 27.4411 6.14266 28.8439 5.3767C28.8439 6.04112 28.8439 6.61402 28.8439 7.18693ZM20.1563 4.07544C21.3347 3.39849 22.5119 2.71777 23.7003 2.05837C23.8457 1.97814 24.1015 1.94429 24.2356 2.01825C25.4805 2.70524 26.709 3.4198 27.9426 4.12935C27.9952 4.15944 28.0379 4.20582 28.1168 4.27226C26.7918 4.99435 25.4955 5.70766 24.188 6.40342C24.0802 6.46108 23.8808 6.43726 23.7643 6.37584C22.4843 5.69011 21.2119 4.98933 19.8993 4.27226C20.0009 4.19328 20.0723 4.12308 20.1563 4.07544ZM19.1635 5.37419C19.522 5.56976 19.8041 5.72521 20.0874 5.8794C21.0765 6.41971 22.0681 6.95376 23.0497 7.5066C23.1751 7.57806 23.3293 7.74354 23.3318 7.86764C23.3531 9.10246 23.3443 10.3373 23.3443 11.6586C21.9691 10.9064 20.6778 10.2056 19.3954 9.49108C19.2926 9.43342 19.1748 9.28549 19.1735 9.17893C19.1585 7.94412 19.1635 6.7093 19.1635 5.3767V5.37419ZM12.9831 14.829C12.9919 14.6497 13.1147 14.4065 13.2614 14.3125C15.0403 13.1755 16.8368 12.066 18.6207 10.9353C18.8526 10.7886 19.0231 10.7873 19.26 10.919C20.5161 11.6197 21.7873 12.2942 23.0384 13.0025C23.1863 13.0865 23.323 13.3247 23.3305 13.4977C23.3631 14.216 23.3443 14.9368 23.3443 15.6576C23.3443 16.3622 23.3631 17.068 23.3318 17.7712C23.3242 17.9493 23.2039 18.1962 23.0597 18.2815C21.6469 19.1176 20.2215 19.9325 18.7861 20.731C18.652 20.805 18.3887 20.7875 18.2558 20.7022C16.581 19.6341 14.9149 18.5523 13.2589 17.4528C13.1135 17.3563 12.9894 17.1194 12.9819 16.9414C12.9505 16.2381 12.9505 15.5323 12.9819 14.829H12.9831ZM11.6543 13.5503C11.6543 14.488 11.6643 15.427 11.6443 16.3647C11.6405 16.5189 11.5427 16.742 11.4199 16.811C10.1687 17.5155 8.90258 18.1962 7.64019 18.8807C7.60258 18.9008 7.55243 18.897 7.46092 18.9133C7.46092 17.6509 7.45841 16.4061 7.46719 15.1612C7.46719 15.0747 7.54241 14.9506 7.61762 14.9092C8.9264 14.1834 10.2402 13.4688 11.653 12.6966C11.653 13.0388 11.653 13.2946 11.653 13.5503H11.6543ZM6.14462 18.9283C6.00296 18.8707 5.89515 18.8393 5.79737 18.7854C4.64403 18.1599 3.49572 17.523 2.33737 16.9075C2.0716 16.7658 1.95502 16.6104 1.96254 16.2932C1.9851 15.2615 1.97006 14.2285 1.97257 13.1955C1.97257 13.0614 1.99012 12.9285 2.00516 12.7267C2.47903 12.9812 2.9015 13.2056 3.32272 13.435C4.16014 13.89 5.00132 14.3376 5.82745 14.814C5.97037 14.8967 6.12958 15.101 6.13208 15.2527C6.15716 16.4562 6.14587 17.6597 6.14587 18.9271L6.14462 18.9283ZM5.5667 13.1868C4.67412 12.5888 3.68501 12.135 2.6583 11.5746C4.03603 10.7848 5.33603 10.0377 6.64105 9.29928C6.72003 9.25415 6.86294 9.24036 6.93691 9.28173C8.25697 10.0251 9.57076 10.7798 10.9598 11.5733C9.93557 12.1325 8.93016 12.5775 8.0426 13.193C7.1588 13.8073 6.43671 13.7672 5.5667 13.1855V13.1868ZM6.14462 38.9311C5.78358 38.7381 5.47268 38.5738 5.16303 38.4046C4.20151 37.8806 3.23622 37.3616 2.28347 36.8213C2.14682 36.7435 1.98761 36.558 1.9851 36.4189C1.96129 35.1991 1.97132 33.9781 1.97132 32.6618C3.3666 33.424 4.67036 34.131 5.9641 34.8543C6.05812 34.907 6.13459 35.0762 6.13584 35.1916C6.14838 36.4113 6.14337 37.6324 6.14337 38.9311H6.14462ZM7.10364 33.6358C6.9695 33.706 6.75137 33.7574 6.63604 33.696C5.326 33.0015 4.02851 32.2844 2.65955 31.536C4.02349 30.7563 5.30845 30.0154 6.60344 29.2908C6.71251 29.2306 6.91434 29.2344 7.02466 29.2958C8.31965 30.0204 9.60461 30.7613 10.9573 31.5347C10.3956 31.8444 9.88417 32.1277 9.37269 32.4085C8.61927 32.821 7.86835 33.2384 7.10615 33.6358H7.10364ZM11.6468 36.459C11.6468 36.558 11.5578 36.7009 11.47 36.7498C10.1625 37.4757 8.84743 38.1902 7.46217 38.9462C7.46217 37.6211 7.45841 36.3762 7.47095 35.1326C7.47095 35.0361 7.56873 34.902 7.65774 34.8518C8.95524 34.131 10.259 33.4227 11.6543 32.6592C11.6543 33.9944 11.658 35.2267 11.6468 36.459ZM11.9714 30.587C10.5498 29.7947 9.13576 28.9861 7.73546 28.1562C7.59255 28.071 7.47596 27.8178 7.4722 27.6397C7.44838 26.5115 7.45967 25.3832 7.45967 24.255C7.45967 23.1267 7.46593 21.9985 7.45465 20.8702C7.45215 20.612 7.50856 20.4465 7.75928 20.3123C9.03045 19.6366 10.2866 18.9308 11.5603 18.2602C11.6982 18.1875 11.9602 18.2025 12.0943 18.2877C13.9283 19.4599 15.7524 20.6458 17.5676 21.848C17.7055 21.9395 17.8296 22.1664 17.8321 22.3319C17.8534 23.7259 17.8534 25.1212 17.8321 26.5153C17.8296 26.6832 17.708 26.9064 17.5701 27.0054C15.889 28.2076 14.1979 29.3973 12.4967 30.5707C12.3726 30.656 12.1056 30.661 11.9714 30.5858V30.587ZM17.8384 39.7999C17.8622 39.9979 17.8422 40.2023 17.8422 40.5257C16.5584 39.672 15.4151 38.8158 14.1828 38.12C13.2288 37.5822 12.8352 36.9441 12.9468 35.8297C13.0646 34.6512 12.9806 33.4515 12.9681 32.2619C12.9643 31.9823 13.0483 31.8043 13.2815 31.6426C14.9513 30.4792 16.6073 29.297 18.2822 28.1425C18.4188 28.0484 18.7059 28.0397 18.8551 28.1186C20.2654 28.8633 21.6582 29.643 23.066 30.394C23.3017 30.5193 23.3531 30.6685 23.3518 30.9117C23.3418 32.4148 23.3393 33.9191 23.3543 35.4222C23.3568 35.7093 23.2678 35.8673 23.0146 36.0102C21.5278 36.8451 20.0636 37.7214 18.5655 38.535C18.0227 38.8296 17.7644 39.1919 17.8396 39.8011L17.8384 39.7999ZM23.3455 46.7311C21.9653 45.9765 20.6741 45.2744 19.3891 44.5624C19.2938 44.5097 19.1773 44.3844 19.176 44.2916C19.1622 43.043 19.166 41.7944 19.166 40.4555C19.9094 40.8604 20.5776 41.2227 21.2457 41.5875C21.85 41.9172 22.4592 42.2382 23.0547 42.5842C23.1801 42.6569 23.3305 42.8223 23.3318 42.9477C23.3518 44.1813 23.3443 45.4136 23.3443 46.7311H23.3455ZM24.1617 41.4998C24.0739 41.5474 23.9109 41.5299 23.8169 41.4785C22.5119 40.7777 21.2144 40.0656 19.858 39.3247C21.2232 38.5412 22.5345 37.7866 23.852 37.0407C23.9297 36.9968 24.0739 36.9943 24.1504 37.0381C25.4692 37.7828 26.7817 38.5362 28.1569 39.3235C26.7867 40.0732 25.478 40.7927 24.1617 41.4985V41.4998ZM28.8377 44.2527C28.8377 44.3442 28.7737 44.4796 28.6985 44.521C27.3797 45.2531 26.0546 45.9727 24.6631 46.7324C24.6631 45.4086 24.6606 44.1637 24.6694 42.9201C24.6694 42.8324 24.7383 42.7045 24.8123 42.6631C26.1198 41.9373 27.4324 41.2227 28.8439 40.4505C28.8439 41.7869 28.8464 43.0192 28.8377 44.2527ZM35.0368 37.0432C35.0368 37.1497 34.9917 37.3039 34.9127 37.3566C33.372 38.3971 31.8225 39.425 30.1627 40.5307C30.1627 40.1346 30.1489 39.855 30.1665 39.5767C30.1941 39.1317 30.0023 38.8509 29.6162 38.634C28.0892 37.7753 26.5761 36.889 25.048 36.0315C24.7709 35.876 24.6493 35.7156 24.6531 35.3821C24.6731 33.8941 24.6694 32.406 24.6556 30.918C24.6531 30.6459 24.7408 30.5018 24.979 30.3739C26.3718 29.628 27.7595 28.8721 29.1398 28.1036C29.3842 27.9682 29.551 27.9908 29.7716 28.1475C31.4289 29.3271 33.1 30.4892 34.7535 31.6764C34.8989 31.7817 35.023 32.0237 35.0255 32.2042C35.0481 33.8176 35.0431 35.431 35.0368 37.0444V37.0432ZM36.0297 30.5908C35.8968 30.6647 35.631 30.6522 35.5057 30.5657C33.8045 29.3911 32.1146 28.2001 30.4348 26.9954C30.2981 26.8976 30.1778 26.6732 30.1753 26.5065C30.1552 25.1125 30.154 23.7172 30.1753 22.3231C30.1778 22.1589 30.3094 21.9383 30.4498 21.8455C32.2651 20.6445 34.0891 19.4574 35.9231 18.2852C36.056 18.2 36.318 18.1875 36.4572 18.2602C37.7308 18.9321 38.9957 19.6203 40.2469 20.3311C40.3935 20.4151 40.5302 20.6583 40.5339 20.8301C40.559 21.9734 40.5465 23.1179 40.5465 24.2612C40.5465 25.3895 40.539 26.5178 40.5527 27.646C40.5565 27.9143 40.475 28.0672 40.2356 28.2014C38.8303 28.9912 37.4388 29.8048 36.0297 30.5883V30.5908ZM40.5678 36.0528C40.475 36.9792 40.5465 37.9219 40.5465 38.9349C40.0262 38.6553 39.5636 38.4084 39.1023 38.1576C38.2912 37.7176 37.4776 37.2826 36.6765 36.825C36.5387 36.7461 36.3694 36.5655 36.3669 36.4289C36.3431 35.2104 36.3531 33.9906 36.3531 32.658C37.4789 33.271 38.493 33.8916 39.5661 34.383C40.3396 34.7365 40.6543 35.1853 40.5665 36.0541L40.5678 36.0528ZM41.3877 33.6935C41.2936 33.7436 41.1307 33.7549 41.0404 33.706C39.7228 32.9977 38.4116 32.2756 37.0526 31.5322C38.4053 30.7588 39.7053 30.0103 41.0116 29.277C41.1106 29.2218 41.2949 29.2206 41.3939 29.277C42.6977 30.0103 43.9939 30.7575 45.3516 31.5347C43.9927 32.2769 42.6927 32.9915 41.3877 33.6922V33.6935ZM46.0273 36.2797C46.0248 36.4414 45.9584 36.6846 45.8418 36.7498C44.5518 37.4807 43.2468 38.1852 41.8615 38.9424C41.8615 37.6311 41.8565 36.4113 41.869 35.1903C41.869 35.075 41.9493 34.9082 42.042 34.8556C43.337 34.1323 44.6408 33.4252 46.0348 32.6643C46.0348 32.9175 46.0348 33.0955 46.0348 33.2723C46.0348 34.2752 46.0436 35.2768 46.0261 36.2797H46.0273Z" fill="#8B8682"/>
</svg>
