<svg width="48" height="48" viewBox="0 0 48 48" fill="none" xmlns="http://www.w3.org/2000/svg">
<g clip-path="url(#clip0_288_4088)">
<path d="M15.2728 32.7273L34.2983 31.1411C40.2524 30.6458 41.5877 29.3455 42.2466 23.4087L43.6364 10.9091M10.9092 10.9091H16.3637M45.8183 10.9091H38.1819" stroke="#8B8682" stroke-width="2.5" stroke-linecap="round" stroke-linejoin="round"/>
<path d="M10.909 45.8182C13.319 45.8182 15.2727 43.8645 15.2727 41.4545C15.2727 39.0446 13.319 37.0909 10.909 37.0909C8.49908 37.0909 6.54541 39.0446 6.54541 41.4545C6.54541 43.8645 8.49908 45.8182 10.909 45.8182Z" stroke="#8B8682" stroke-width="2.5" stroke-linecap="round" stroke-linejoin="round"/>
<path d="M34.9093 45.8182C37.3193 45.8182 39.2729 43.8645 39.2729 41.4545C39.2729 39.0446 37.3193 37.0909 34.9093 37.0909C32.4993 37.0909 30.5457 39.0446 30.5457 41.4545C30.5457 43.8645 32.4993 45.8182 34.9093 45.8182Z" stroke="#8B8682" stroke-width="2.5" stroke-linecap="round" stroke-linejoin="round"/>
<path d="M15.2728 41.4545H30.5455M2.18188 2.18182H4.28952C6.35134 2.18182 8.14698 3.54546 8.64661 5.48728L15.1419 30.7113C15.303 31.3421 15.318 32.0014 15.1857 32.6389C15.0533 33.2764 14.7772 33.8752 14.3783 34.3898L12.2859 37.0909" stroke="#8B8682" stroke-width="2.5" stroke-linecap="round" stroke-linejoin="round"/>
</g>
<path d="M35.9468 12.0481C36.3754 8.90191 34.1641 7.19926 31.1129 6.07033L32.1071 1.79519L29.7073 1.14744L28.7474 5.31154C28.1132 5.14497 27.4618 4.97841 26.8104 4.83035L27.7704 0.647748L25.3706 0L24.3935 4.25663C23.8621 4.12708 23.3479 3.99753 22.8508 3.86798V3.84948L19.5253 2.96113L18.8911 5.7372C18.8911 5.7372 20.6738 6.18137 20.6395 6.19988C21.6166 6.45897 21.788 7.16225 21.7537 7.71746L20.6224 12.5848C20.691 12.6033 20.7767 12.6218 20.8795 12.6774C20.7938 12.6589 20.7081 12.6403 20.6224 12.6033L19.0454 19.4139C18.9254 19.7286 18.6168 20.2097 17.9483 20.0247C17.9655 20.0617 16.1999 19.562 16.1999 19.562L15 22.5416L18.1369 23.393C18.7197 23.5595 19.2854 23.7076 19.851 23.8741L18.8568 28.1863L21.2566 28.8341L22.2508 24.5589C22.9022 24.744 23.5536 24.9291 24.1707 25.0956L23.1936 29.3523L25.5934 30L26.5876 25.6878C30.7015 26.5207 33.787 26.1875 35.0726 22.1715C36.1182 18.9513 35.0212 17.082 32.8614 15.8606C34.4555 15.4719 35.6383 14.343 35.9468 12.0481ZM30.4444 20.3763C29.7073 23.5965 24.6678 21.8569 23.0393 21.4127L24.3592 15.694C25.9877 16.1382 31.2329 17.008 30.4444 20.3763ZM31.1986 11.9926C30.513 14.9352 26.3305 13.4362 24.9763 13.066L26.1762 7.88402C27.5304 8.25416 31.9014 8.93893 31.1986 11.9926Z" fill="url(#paint0_linear_288_4088)"/>
<defs>
<linearGradient id="paint0_linear_288_4088" x1="25.5" y1="0" x2="25.5" y2="30" gradientUnits="userSpaceOnUse">
<stop stop-color="#F9AA4B"/>
<stop offset="1" stop-color="#F7931A"/>
</linearGradient>
<clipPath id="clip0_288_4088">
<rect width="48" height="48" fill="white"/>
</clipPath>
</defs>
</svg>
