<svg width="335" height="140" viewBox="0 0 335 140" fill="none" xmlns="http://www.w3.org/2000/svg">
<g filter="url(#filter0_dd_3541_12495)">
<path d="M53.1695 70.943H22.1016V81.466H53.1695V70.943Z" fill="#433E39"/>
<g style="mix-blend-mode:multiply">
<path d="M53.1337 70.8436H46.2236V81.3115H53.1337V70.8436Z" fill="#535762"/>
</g>
<path d="M98.5084 67.1205H71.0835C69.8603 67.1205 68.8687 68.1121 68.8687 69.3353V82.8148C68.8687 84.038 69.8603 85.0296 71.0835 85.0296H98.5084C99.7316 85.0296 100.723 84.038 100.723 82.8148V69.3353C100.723 68.1121 99.7316 67.1205 98.5084 67.1205Z" fill="#776E67"/>
<g style="mix-blend-mode:multiply">
<path d="M86.4671 67.1205H71.0835C69.8603 67.1205 68.8687 68.1121 68.8687 69.3353V82.8148C68.8687 84.038 69.8603 85.0296 71.0835 85.0296H86.4671C87.6903 85.0296 88.6819 84.038 88.6819 82.8148V69.3353C88.6819 68.1121 87.6903 67.1205 86.4671 67.1205Z" fill="#535762"/>
</g>
<path d="M80.8952 61.9183H54.1567C50.8357 61.9183 48.1436 64.6105 48.1436 67.9315V84.2221C48.1436 87.5431 50.8357 90.2352 54.1567 90.2352H80.8952C84.2161 90.2352 86.9083 87.5431 86.9083 84.2221V67.9315C86.9083 64.6105 84.2161 61.9183 80.8952 61.9183Z" fill="#433E39"/>
<path fill-rule="evenodd" clip-rule="evenodd" d="M142.031 22.42L254.262 22.42C258.803 22.42 263.214 22.9537 267.43 23.9589C291.387 28.495 309.505 49.5406 309.505 74.8169C309.505 75.5741 309.489 76.3275 309.457 77.0768H310.352C311.805 77.0768 312.988 75.8942 312.988 74.4411C312.988 72.9879 311.805 71.8053 310.352 71.8053H309.445C309.275 68.1473 308.748 64.5845 307.892 61.152C308.663 63.1865 310.352 63.7878 310.352 63.7878L310.347 63.7928C316.23 63.7928 321 68.5632 321 74.4461C321 80.3289 316.23 85.0994 310.347 85.0994C310.347 85.0994 308.628 85.707 307.869 87.7795C307.788 88.0929 307.704 88.4051 307.618 88.7161C307.606 88.7806 307.596 88.8461 307.586 88.9127L307.566 88.9011C301.432 110.644 281.448 126.58 257.742 126.58L140.451 126.58C123.782 126.58 108.954 118.697 99.4881 106.457C93.92 99.7338 90.0579 91.6592 88.5269 82.8315V65.7353C92.7893 41.1588 115.118 22.42 142.031 22.42Z" fill="#34302D"/>
<path d="M254.439 50.9006C267.628 50.9006 278.361 61.629 278.361 74.8228C278.361 88.0166 267.633 98.7451 254.439 98.7451C241.245 98.7451 230.517 88.0166 230.517 74.8228C230.517 61.629 241.245 50.9006 254.439 50.9006ZM254.439 42.8831C236.8 42.8831 222.499 57.1843 222.499 74.8228C222.499 92.4614 236.8 106.763 254.439 106.763C272.077 106.763 286.379 92.4614 286.379 74.8228C286.379 57.1843 272.077 42.8831 254.439 42.8831Z" fill="#1D1915"/>
<path d="M254.438 98.7395C267.65 98.7395 278.361 88.0291 278.361 74.8172C278.361 61.6053 267.65 50.8949 254.438 50.8949C241.226 50.8949 230.516 61.6053 230.516 74.8172C230.516 88.0291 241.226 98.7395 254.438 98.7395Z" fill="#34302D"/>
<path d="M121.427 59.5555H122.772C122.729 60.0683 122.585 60.5255 122.341 60.9271C122.098 61.3251 121.755 61.6388 121.314 61.8683C120.873 62.0978 120.337 62.2126 119.706 62.2126C119.222 62.2126 118.786 62.1265 118.399 61.9544C118.012 61.7787 117.68 61.5313 117.404 61.2121C117.128 60.8894 116.916 60.5004 116.769 60.045C116.626 59.5896 116.554 59.0804 116.554 58.5174V57.8666C116.554 57.3037 116.627 56.7945 116.775 56.3391C116.925 55.8837 117.14 55.4946 117.42 55.1719C117.7 54.8456 118.035 54.5964 118.426 54.4243C118.82 54.2522 119.263 54.1661 119.754 54.1661C120.378 54.1661 120.905 54.2809 121.336 54.5104C121.766 54.7398 122.099 55.0572 122.336 55.4624C122.576 55.8676 122.723 56.3319 122.777 56.8554H121.432C121.397 56.5184 121.318 56.2297 121.196 55.9895C121.077 55.7492 120.902 55.5664 120.669 55.4409C120.436 55.3118 120.131 55.2472 119.754 55.2472C119.446 55.2472 119.177 55.3046 118.947 55.4193C118.718 55.5341 118.526 55.7026 118.372 55.9249C118.218 56.1473 118.101 56.4216 118.022 56.7479C117.947 57.0706 117.909 57.4399 117.909 57.8559V58.5174C117.909 58.9119 117.943 59.2704 118.012 59.5932C118.083 59.9123 118.191 60.1866 118.334 60.4161C118.481 60.6456 118.668 60.8231 118.894 60.9486C119.12 61.0741 119.39 61.1368 119.706 61.1368C120.09 61.1368 120.4 61.0759 120.636 60.954C120.877 60.832 121.058 60.6545 121.18 60.4215C121.305 60.1848 121.388 59.8962 121.427 59.5555ZM126.358 53.8434V62.105H125.057V53.8434H126.358ZM131.445 62.2126C131.015 62.2126 130.626 62.1426 130.278 62.0028C129.934 61.8594 129.64 61.6603 129.396 61.4058C129.156 61.1512 128.971 60.8518 128.842 60.5075C128.713 60.1633 128.648 59.7922 128.648 59.3942V59.179C128.648 58.7236 128.715 58.3113 128.847 57.9419C128.98 57.5726 129.165 57.257 129.401 56.9953C129.638 56.7299 129.918 56.5273 130.24 56.3875C130.563 56.2477 130.913 56.1777 131.289 56.1777C131.705 56.1777 132.069 56.2477 132.381 56.3875C132.693 56.5273 132.951 56.7246 133.156 56.9791C133.364 57.2301 133.518 57.5296 133.618 57.8774C133.722 58.2252 133.774 58.6089 133.774 59.0284V59.5824H129.278V58.6519H132.494V58.5497C132.487 58.3166 132.44 58.0979 132.354 57.8935C132.272 57.6891 132.144 57.5242 131.972 57.3987C131.8 57.2732 131.571 57.2104 131.284 57.2104C131.069 57.2104 130.877 57.257 130.708 57.3503C130.543 57.4399 130.405 57.5708 130.294 57.7429C130.183 57.915 130.097 58.123 130.036 58.3668C129.979 58.6071 129.95 58.8778 129.95 59.179V59.3942C129.95 59.6487 129.984 59.8854 130.052 60.1041C130.124 60.3193 130.228 60.5075 130.364 60.6689C130.5 60.8302 130.665 60.9575 130.859 61.0508C131.053 61.1404 131.273 61.1852 131.521 61.1852C131.833 61.1852 132.11 61.1225 132.354 60.997C132.598 60.8715 132.81 60.694 132.989 60.4645L133.672 61.1261C133.547 61.3089 133.383 61.4846 133.183 61.6532C132.982 61.8181 132.736 61.9526 132.446 62.0566C132.159 62.1606 131.825 62.2126 131.445 62.2126ZM139.168 60.9378V58.1624C139.168 57.9545 139.13 57.7752 139.055 57.6246C138.98 57.474 138.865 57.3574 138.711 57.275C138.56 57.1925 138.37 57.1513 138.141 57.1513C137.929 57.1513 137.746 57.1871 137.592 57.2588C137.438 57.3305 137.318 57.4274 137.232 57.5493C137.146 57.6712 137.103 57.8092 137.103 57.9634H135.812C135.812 57.7339 135.867 57.5116 135.978 57.2965C136.09 57.0813 136.251 56.8895 136.462 56.721C136.674 56.5524 136.927 56.4198 137.221 56.323C137.515 56.2261 137.845 56.1777 138.211 56.1777C138.648 56.1777 139.035 56.2512 139.372 56.3983C139.713 56.5453 139.98 56.7676 140.174 57.0652C140.371 57.3592 140.47 57.7286 140.47 58.1732V60.7603C140.47 61.0257 140.487 61.2641 140.523 61.4757C140.563 61.6837 140.618 61.8647 140.69 62.0189V62.105H139.362C139.301 61.9651 139.252 61.7876 139.216 61.5725C139.184 61.3538 139.168 61.1422 139.168 60.9378ZM139.356 58.5658L139.367 59.3673H138.436C138.196 59.3673 137.985 59.3906 137.802 59.4372C137.619 59.4802 137.466 59.5448 137.345 59.6308C137.223 59.7169 137.131 59.8209 137.07 59.9428C137.009 60.0647 136.979 60.2027 136.979 60.3569C136.979 60.5111 137.015 60.6528 137.086 60.7818C137.158 60.9073 137.262 61.0059 137.398 61.0777C137.538 61.1494 137.707 61.1852 137.904 61.1852C138.169 61.1852 138.401 61.1314 138.598 61.0239C138.799 60.9127 138.956 60.7783 139.071 60.6205C139.186 60.4591 139.247 60.3067 139.254 60.1633L139.673 60.7388C139.63 60.8858 139.557 61.0436 139.453 61.2121C139.349 61.3807 139.213 61.542 139.044 61.6962C138.879 61.8468 138.68 61.9705 138.447 62.0673C138.218 62.1641 137.952 62.2126 137.651 62.2126C137.271 62.2126 136.932 62.1373 136.635 61.9867C136.337 61.8325 136.104 61.6263 135.935 61.3681C135.767 61.1063 135.683 60.8105 135.683 60.4806C135.683 60.1723 135.74 59.8997 135.855 59.6631C135.973 59.4228 136.145 59.222 136.371 59.0607C136.601 58.8993 136.88 58.7774 137.21 58.6949C137.54 58.6089 137.916 58.5658 138.34 58.5658H139.356ZM144.228 57.3933V62.105H142.932V56.2853H144.169L144.228 57.3933ZM146.008 56.2477L145.998 57.4525C145.919 57.4381 145.833 57.4274 145.74 57.4202C145.65 57.413 145.56 57.4094 145.471 57.4094C145.248 57.4094 145.053 57.4417 144.884 57.5063C144.716 57.5672 144.574 57.6569 144.459 57.7752C144.348 57.8899 144.262 58.0298 144.201 58.1947C144.14 58.3597 144.104 58.5443 144.094 58.7487L143.798 58.7702C143.798 58.4045 143.834 58.0656 143.905 57.7537C143.977 57.4417 144.085 57.1674 144.228 56.9307C144.375 56.6941 144.558 56.5094 144.777 56.3767C144.999 56.2441 145.255 56.1777 145.546 56.1777C145.625 56.1777 145.709 56.1849 145.799 56.1992C145.892 56.2136 145.962 56.2297 146.008 56.2477ZM155.317 60.9002V53.8434H156.618V62.105H155.44L155.317 60.9002ZM151.53 59.2597V59.1467C151.53 58.7057 151.582 58.3041 151.686 57.9419C151.79 57.5762 151.941 57.2624 152.138 57.0007C152.335 56.7353 152.575 56.5327 152.859 56.3929C153.142 56.2494 153.461 56.1777 153.816 56.1777C154.167 56.1777 154.476 56.2459 154.741 56.3821C155.007 56.5184 155.232 56.7138 155.419 56.9684C155.605 57.2194 155.754 57.5206 155.865 57.872C155.976 58.2198 156.055 58.6071 156.102 59.0338V59.3942C156.055 59.8101 155.976 60.1902 155.865 60.5344C155.754 60.8787 155.605 61.1763 155.419 61.4273C155.232 61.6783 155.005 61.8719 154.736 62.0082C154.47 62.1444 154.16 62.2126 153.805 62.2126C153.454 62.2126 153.137 62.139 152.853 61.992C152.574 61.845 152.335 61.6388 152.138 61.3735C151.941 61.1081 151.79 60.7962 151.686 60.4376C151.582 60.0754 151.53 59.6828 151.53 59.2597ZM152.826 59.1467V59.2597C152.826 59.525 152.85 59.7724 152.896 60.0019C152.947 60.2314 153.024 60.434 153.128 60.6097C153.232 60.7818 153.366 60.9181 153.531 61.0185C153.7 61.1153 153.9 61.1637 154.133 61.1637C154.427 61.1637 154.669 61.0992 154.86 60.9701C155.05 60.841 155.198 60.6671 155.306 60.4484C155.417 60.226 155.492 59.9786 155.532 59.7061V58.7326C155.51 58.521 155.466 58.3238 155.397 58.1409C155.333 57.9581 155.245 57.7985 155.134 57.6622C155.023 57.5224 154.885 57.4148 154.72 57.3395C154.558 57.2606 154.366 57.2212 154.144 57.2212C153.908 57.2212 153.707 57.2714 153.542 57.3718C153.377 57.4722 153.241 57.6102 153.133 57.7859C153.029 57.9616 152.952 58.166 152.902 58.3991C152.852 58.6322 152.826 58.8814 152.826 59.1467ZM161.641 62.2126C161.211 62.2126 160.822 62.1426 160.474 62.0028C160.13 61.8594 159.835 61.6603 159.592 61.4058C159.351 61.1512 159.167 60.8518 159.038 60.5075C158.909 60.1633 158.844 59.7922 158.844 59.3942V59.179C158.844 58.7236 158.91 58.3113 159.043 57.9419C159.176 57.5726 159.36 57.257 159.597 56.9953C159.834 56.7299 160.113 56.5273 160.436 56.3875C160.759 56.2477 161.108 56.1777 161.485 56.1777C161.901 56.1777 162.265 56.2477 162.577 56.3875C162.889 56.5273 163.147 56.7246 163.351 56.9791C163.559 57.2301 163.713 57.5296 163.814 57.8774C163.918 58.2252 163.97 58.6089 163.97 59.0284V59.5824H159.473V58.6519H162.69V58.5497C162.683 58.3166 162.636 58.0979 162.55 57.8935C162.467 57.6891 162.34 57.5242 162.168 57.3987C161.996 57.2732 161.766 57.2104 161.48 57.2104C161.264 57.2104 161.073 57.257 160.904 57.3503C160.739 57.4399 160.601 57.5708 160.49 57.7429C160.379 57.915 160.293 58.123 160.232 58.3668C160.174 58.6071 160.146 58.8778 160.146 59.179V59.3942C160.146 59.6487 160.18 59.8854 160.248 60.1041C160.32 60.3193 160.424 60.5075 160.56 60.6689C160.696 60.8302 160.861 60.9575 161.055 61.0508C161.248 61.1404 161.469 61.1852 161.716 61.1852C162.028 61.1852 162.306 61.1225 162.55 60.997C162.794 60.8715 163.005 60.694 163.185 60.4645L163.868 61.1261C163.742 61.3089 163.579 61.4846 163.378 61.6532C163.177 61.8181 162.932 61.9526 162.641 62.0566C162.354 62.1606 162.021 62.2126 161.641 62.2126ZM167.901 61.0777L169.326 56.2853H170.671L168.648 62.105H167.809L167.901 61.0777ZM166.809 56.2853L168.261 61.0992L168.331 62.105H167.492L165.459 56.2853H166.809ZM173.961 56.2853V62.105H172.66V56.2853H173.961ZM172.574 54.7578C172.574 54.5606 172.638 54.3974 172.767 54.2683C172.9 54.1356 173.083 54.0693 173.316 54.0693C173.545 54.0693 173.726 54.1356 173.859 54.2683C173.992 54.3974 174.058 54.5606 174.058 54.7578C174.058 54.9514 173.992 55.1128 173.859 55.2418C173.726 55.3709 173.545 55.4355 173.316 55.4355C173.083 55.4355 172.9 55.3709 172.767 55.2418C172.638 55.1128 172.574 54.9514 172.574 54.7578ZM178.86 61.1799C179.072 61.1799 179.262 61.1386 179.43 61.0561C179.602 60.9701 179.74 60.8518 179.844 60.7012C179.952 60.5506 180.011 60.3766 180.022 60.1794H181.243C181.236 60.5559 181.124 60.8984 180.909 61.2067C180.694 61.5151 180.409 61.7607 180.054 61.9436C179.699 62.1229 179.306 62.2126 178.876 62.2126C178.432 62.2126 178.044 62.1373 177.714 61.9867C177.385 61.8325 177.11 61.6209 176.891 61.352C176.673 61.083 176.508 60.7729 176.397 60.4215C176.289 60.0701 176.235 59.6936 176.235 59.292V59.1037C176.235 58.7021 176.289 58.3256 176.397 57.9742C176.508 57.6192 176.673 57.3072 176.891 57.0383C177.11 56.7694 177.385 56.5596 177.714 56.409C178.044 56.2548 178.43 56.1777 178.871 56.1777C179.337 56.1777 179.746 56.271 180.097 56.4574C180.449 56.6403 180.725 56.8967 180.925 57.2266C181.13 57.5529 181.236 57.933 181.243 58.3668H180.022C180.011 58.1517 179.957 57.9581 179.86 57.7859C179.767 57.6102 179.635 57.4704 179.462 57.3664C179.294 57.2624 179.091 57.2104 178.855 57.2104C178.593 57.2104 178.376 57.2642 178.204 57.3718C178.032 57.4758 177.897 57.6192 177.8 57.8021C177.704 57.9814 177.634 58.184 177.591 58.4099C177.551 58.6322 177.532 58.8635 177.532 59.1037V59.292C177.532 59.5322 177.551 59.7653 177.591 59.9912C177.63 60.2171 177.698 60.4197 177.795 60.599C177.895 60.7747 178.032 60.9163 178.204 61.0239C178.376 61.1279 178.595 61.1799 178.86 61.1799ZM185.905 62.2126C185.475 62.2126 185.086 62.1426 184.738 62.0028C184.394 61.8594 184.1 61.6603 183.856 61.4058C183.615 61.1512 183.431 60.8518 183.302 60.5075C183.173 60.1633 183.108 59.7922 183.108 59.3942V59.179C183.108 58.7236 183.174 58.3113 183.307 57.9419C183.44 57.5726 183.624 57.257 183.861 56.9953C184.098 56.7299 184.377 56.5273 184.7 56.3875C185.023 56.2477 185.372 56.1777 185.749 56.1777C186.165 56.1777 186.529 56.2477 186.841 56.3875C187.153 56.5273 187.411 56.7246 187.615 56.9791C187.823 57.2301 187.978 57.5296 188.078 57.8774C188.182 58.2252 188.234 58.6089 188.234 59.0284V59.5824L183.737 59.5824V58.6519H186.954V58.5497C186.947 58.3166 186.9 58.0979 186.814 57.8935C186.731 57.6891 186.604 57.5242 186.432 57.3987C186.26 57.2732 186.03 57.2104 185.744 57.2104C185.528 57.2104 185.337 57.257 185.168 57.3503C185.003 57.4399 184.865 57.5708 184.754 57.7429C184.643 57.915 184.557 58.123 184.496 58.3668C184.438 58.6071 184.41 58.8778 184.41 59.179V59.3942C184.41 59.6487 184.444 59.8854 184.512 60.1041C184.584 60.3193 184.688 60.5075 184.824 60.6689C184.96 60.8302 185.125 60.9575 185.319 61.0508C185.512 61.1404 185.733 61.1852 185.98 61.1852C186.292 61.1852 186.57 61.1225 186.814 60.997C187.058 60.8715 187.269 60.694 187.449 60.4645L188.132 61.1261C188.006 61.3089 187.843 61.4846 187.642 61.6532C187.441 61.8181 187.196 61.9526 186.905 62.0566C186.619 62.1606 186.285 62.2126 185.905 62.2126ZM197.741 60.9002V53.8434H199.043V62.105H197.865L197.741 60.9002ZM193.955 59.2597V59.1467C193.955 58.7057 194.007 58.3041 194.111 57.9419C194.215 57.5762 194.365 57.2624 194.562 57.0007C194.76 56.7353 195 56.5327 195.283 56.3929C195.566 56.2494 195.886 56.1777 196.241 56.1777C196.592 56.1777 196.9 56.2459 197.166 56.3821C197.431 56.5184 197.657 56.7138 197.843 56.9684C198.03 57.2194 198.179 57.5206 198.29 57.872C198.401 58.2198 198.48 58.6071 198.526 59.0338V59.3942C198.48 59.8101 198.401 60.1902 198.29 60.5344C198.179 60.8787 198.03 61.1763 197.843 61.4273C197.657 61.6783 197.429 61.8719 197.16 62.0082C196.895 62.1444 196.585 62.2126 196.23 62.2126C195.878 62.2126 195.561 62.139 195.278 61.992C194.998 61.845 194.76 61.6388 194.562 61.3735C194.365 61.1081 194.215 60.7962 194.111 60.4376C194.007 60.0754 193.955 59.6828 193.955 59.2597ZM195.251 59.1467V59.2597C195.251 59.525 195.274 59.7724 195.321 60.0019C195.371 60.2314 195.448 60.434 195.552 60.6097C195.656 60.7818 195.791 60.9181 195.955 61.0185C196.124 61.1153 196.325 61.1637 196.558 61.1637C196.852 61.1637 197.094 61.0992 197.284 60.9701C197.474 60.841 197.623 60.6671 197.73 60.4484C197.842 60.226 197.917 59.9786 197.956 59.7061V58.7326C197.935 58.521 197.89 58.3238 197.822 58.1409C197.757 57.9581 197.669 57.7985 197.558 57.6622C197.447 57.5224 197.309 57.4148 197.144 57.3395C196.983 57.2606 196.791 57.2212 196.569 57.2212C196.332 57.2212 196.131 57.2714 195.966 57.3718C195.801 57.4722 195.665 57.6102 195.557 57.7859C195.453 57.9616 195.376 58.166 195.326 58.3991C195.276 58.6322 195.251 58.8814 195.251 59.1467ZM204.781 60.9378V58.1624C204.781 57.9545 204.743 57.7752 204.668 57.6246C204.593 57.474 204.478 57.3574 204.324 57.275C204.173 57.1925 203.983 57.1513 203.753 57.1513C203.542 57.1513 203.359 57.1871 203.205 57.2588C203.051 57.3305 202.931 57.4274 202.844 57.5493C202.758 57.6712 202.715 57.8092 202.715 57.9634H201.424C201.424 57.7339 201.48 57.5116 201.591 57.2965C201.702 57.0813 201.864 56.8895 202.075 56.721C202.287 56.5524 202.54 56.4198 202.834 56.323C203.128 56.2261 203.458 56.1777 203.823 56.1777C204.261 56.1777 204.648 56.2512 204.985 56.3983C205.326 56.5453 205.593 56.7676 205.787 57.0652C205.984 57.3592 206.082 57.7286 206.082 58.1732V60.7603C206.082 61.0257 206.1 61.2641 206.136 61.4757C206.176 61.6837 206.231 61.8647 206.303 62.0189V62.105H204.974C204.913 61.9651 204.865 61.7876 204.829 61.5725C204.797 61.3538 204.781 61.1422 204.781 60.9378ZM204.969 58.5658L204.98 59.3673H204.049C203.809 59.3673 203.597 59.3906 203.415 59.4372C203.232 59.4802 203.079 59.5448 202.957 59.6308C202.835 59.7169 202.744 59.8209 202.683 59.9428C202.622 60.0647 202.592 60.2027 202.592 60.3569C202.592 60.5111 202.628 60.6528 202.699 60.7818C202.771 60.9073 202.875 61.0059 203.011 61.0777C203.151 61.1494 203.32 61.1852 203.517 61.1852C203.782 61.1852 204.013 61.1314 204.211 61.0239C204.411 60.9127 204.569 60.7783 204.684 60.6205C204.799 60.4591 204.86 60.3067 204.867 60.1633L205.286 60.7388C205.243 60.8858 205.17 61.0436 205.066 61.2121C204.962 61.3807 204.826 61.542 204.657 61.6962C204.492 61.8468 204.293 61.9705 204.06 62.0673C203.831 62.1641 203.565 62.2126 203.264 62.2126C202.884 62.2126 202.545 62.1373 202.247 61.9867C201.95 61.8325 201.717 61.6263 201.548 61.3681C201.38 61.1063 201.295 60.8105 201.295 60.4806C201.295 60.1723 201.353 59.8997 201.468 59.6631C201.586 59.4228 201.758 59.222 201.984 59.0607C202.213 58.8993 202.493 58.7774 202.823 58.6949C203.153 58.6089 203.529 58.5658 203.952 58.5658H204.969ZM211.207 56.2853V57.2319H207.926V56.2853H211.207ZM208.873 54.86H210.169V60.4968C210.169 60.6761 210.194 60.8141 210.244 60.9109C210.298 61.0042 210.372 61.0669 210.465 61.0992C210.558 61.1314 210.667 61.1476 210.793 61.1476C210.883 61.1476 210.969 61.1422 211.051 61.1314C211.134 61.1207 211.2 61.1099 211.25 61.0992L211.256 62.0888C211.148 62.1211 211.022 62.1498 210.879 62.1749C210.739 62.2 210.578 62.2126 210.395 62.2126C210.097 62.2126 209.834 62.1606 209.604 62.0566C209.375 61.949 209.196 61.7751 209.066 61.5348C208.937 61.2946 208.873 60.9755 208.873 60.5774V54.86ZM216.59 60.9378V58.1624C216.59 57.9545 216.552 57.7752 216.477 57.6246C216.402 57.474 216.287 57.3574 216.133 57.275C215.982 57.1925 215.792 57.1513 215.563 57.1513C215.351 57.1513 215.168 57.1871 215.014 57.2588C214.86 57.3305 214.74 57.4274 214.654 57.5493C214.568 57.6712 214.525 57.8092 214.525 57.9634H213.234C213.234 57.7339 213.289 57.5116 213.401 57.2965C213.512 57.0813 213.673 56.8895 213.885 56.721C214.096 56.5524 214.349 56.4198 214.643 56.323C214.937 56.2261 215.267 56.1777 215.633 56.1777C216.07 56.1777 216.457 56.2512 216.794 56.3983C217.135 56.5453 217.402 56.7676 217.596 57.0652C217.793 57.3592 217.892 57.7286 217.892 58.1732V60.7603C217.892 61.0257 217.91 61.2641 217.945 61.4757C217.985 61.6837 218.041 61.8647 218.112 62.0189V62.105H216.784C216.723 61.9651 216.674 61.7876 216.638 61.5725C216.606 61.3538 216.59 61.1422 216.59 60.9378ZM216.778 58.5658L216.789 59.3673H215.859C215.618 59.3673 215.407 59.3906 215.224 59.4372C215.041 59.4802 214.889 59.5448 214.767 59.6308C214.645 59.7169 214.553 59.8209 214.492 59.9428C214.431 60.0647 214.401 60.2027 214.401 60.3569C214.401 60.5111 214.437 60.6528 214.509 60.7818C214.58 60.9073 214.684 61.0059 214.821 61.0777C214.96 61.1494 215.129 61.1852 215.326 61.1852C215.591 61.1852 215.823 61.1314 216.02 61.0239C216.221 60.9127 216.379 60.7783 216.493 60.6205C216.608 60.4591 216.669 60.3067 216.676 60.1633L217.096 60.7388C217.053 60.8858 216.979 61.0436 216.875 61.2121C216.771 61.3807 216.635 61.542 216.466 61.6962C216.301 61.8468 216.102 61.9705 215.869 62.0673C215.64 62.1641 215.375 62.2126 215.073 62.2126C214.693 62.2126 214.354 62.1373 214.057 61.9867C213.759 61.8325 213.526 61.6263 213.358 61.3681C213.189 61.1063 213.105 60.8105 213.105 60.4806C213.105 60.1723 213.162 59.8997 213.277 59.6631C213.395 59.4228 213.567 59.222 213.793 59.0607C214.023 58.8993 214.302 58.7774 214.632 58.6949C214.962 58.6089 215.339 58.5658 215.762 58.5658H216.778Z" fill="white"/>
<rect x="126.61" y="89.5181" width="10.1893" height="10.1893" rx="3.44232" stroke="white" stroke-width="0.826158"/>
<path d="M134.32 92.694C134.366 92.6495 134.403 92.5964 134.428 92.5376C134.453 92.4788 134.467 92.4156 134.467 92.3516C134.468 92.2876 134.456 92.2242 134.432 92.1649C134.407 92.1057 134.372 92.0519 134.326 92.0066C134.281 91.9613 134.227 91.9255 134.168 91.9013C134.109 91.877 134.046 91.8648 133.982 91.8653C133.918 91.8659 133.854 91.8791 133.796 91.9043C133.737 91.9296 133.684 91.9663 133.639 92.0123L131.708 93.943L129.777 92.0123C129.733 91.9649 129.68 91.9269 129.62 91.9006C129.561 91.8743 129.497 91.8601 129.433 91.859C129.368 91.8578 129.304 91.8697 129.244 91.894C129.184 91.9182 129.129 91.9543 129.084 92C129.038 92.0458 129.002 92.1003 128.977 92.1603C128.953 92.2203 128.941 92.2846 128.942 92.3493C128.944 92.414 128.958 92.4778 128.984 92.5369C129.01 92.596 129.048 92.6492 129.096 92.6933L131.025 94.6248L129.094 96.5556C129.009 96.6469 128.963 96.7677 128.965 96.8926C128.967 97.0174 129.018 97.1365 129.106 97.2248C129.195 97.3131 129.314 97.3637 129.439 97.3659C129.563 97.3681 129.684 97.3217 129.776 97.2366L131.708 95.3058L133.638 97.2373C133.73 97.3224 133.851 97.3687 133.975 97.3665C134.1 97.3643 134.219 97.3138 134.308 97.2255C134.396 97.1372 134.447 97.0181 134.449 96.8932C134.451 96.7684 134.405 96.6475 134.319 96.5562L132.39 94.6248L134.32 92.694Z" fill="white"/>
<rect x="198.211" y="89.5181" width="10.1893" height="10.1893" rx="3.44232" stroke="white" stroke-width="0.826158"/>
<path d="M200.607 94.6126L202.92 96.5403L206.004 92.6849" stroke="white" stroke-width="1.10154" stroke-linecap="round"/>
</g>
<defs>
<filter id="filter0_dd_3541_12495" x="-1.03087" y="0.389171" width="335.8" height="139.409" filterUnits="userSpaceOnUse" color-interpolation-filters="sRGB">
<feFlood flood-opacity="0" result="BackgroundImageFix"/>
<feColorMatrix in="SourceAlpha" type="matrix" values="0 0 0 0 0 0 0 0 0 0 0 0 0 0 0 0 0 0 127 0" result="hardAlpha"/>
<feOffset dx="2.75386" dy="2.20309"/>
<feGaussianBlur stdDeviation="5.50772"/>
<feComposite in2="hardAlpha" operator="out"/>
<feColorMatrix type="matrix" values="0 0 0 0 0 0 0 0 0 0 0 0 0 0 0 0 0 0 0.41 0"/>
<feBlend mode="normal" in2="BackgroundImageFix" result="effect1_dropShadow_3541_12495"/>
<feColorMatrix in="SourceAlpha" type="matrix" values="0 0 0 0 0 0 0 0 0 0 0 0 0 0 0 0 0 0 127 0" result="hardAlpha"/>
<feOffset dx="-5.50772" dy="-5.50772"/>
<feGaussianBlur stdDeviation="8.26158"/>
<feComposite in2="hardAlpha" operator="out"/>
<feColorMatrix type="matrix" values="0 0 0 0 0.0916667 0 0 0 0 0.0758333 0 0 0 0 0.0626389 0 0 0 1 0"/>
<feBlend mode="normal" in2="effect1_dropShadow_3541_12495" result="effect2_dropShadow_3541_12495"/>
<feBlend mode="normal" in="SourceGraphic" in2="effect2_dropShadow_3541_12495" result="shape"/>
</filter>
</defs>
</svg>
