<svg width="20" height="21" viewBox="0 0 20 21" fill="none" xmlns="http://www.w3.org/2000/svg">
<g clip-path="url(#clip0_2_2212)">
<path d="M9.54053 1.40173C12.0664 1.40173 14.4888 2.40513 16.2749 4.19119C18.0609 5.97725 19.0643 8.39967 19.0643 10.9255C19.0643 13.4514 18.0609 15.8738 16.2749 17.6599C14.4888 19.446 12.0664 20.4494 9.54053 20.4494C7.01466 20.4494 4.59224 19.446 2.80618 17.6599C1.02012 15.8738 0.0167236 13.4514 0.0167236 10.9255C0.0167236 8.39967 1.02012 5.97725 2.80618 4.19119C4.59224 2.40513 7.01466 1.40173 9.54053 1.40173ZM1.80244 10.9255C1.80244 12.9778 2.6177 14.946 4.06887 16.3972C5.52005 17.8484 7.48826 18.6636 9.54053 18.6636C11.5928 18.6636 13.561 17.8484 15.0122 16.3972C16.4634 14.946 17.2786 12.9778 17.2786 10.9255C17.2786 8.87327 16.4634 6.90506 15.0122 5.45388C13.561 4.00271 11.5928 3.18745 9.54053 3.18745C7.48826 3.18745 5.52005 4.00271 4.06887 5.45388C2.6177 6.90506 1.80244 8.87327 1.80244 10.9255ZM10.1358 7.0565L10.1358 10.6184L12.5501 11.5851C12.7628 11.6778 12.9311 11.8498 13.0192 12.0645C13.1074 12.2792 13.1084 12.5198 13.0222 12.7352C12.936 12.9507 12.7693 13.1242 12.5573 13.2188C12.3454 13.3134 12.105 13.3218 11.887 13.2422L8.91077 12.0517C8.74535 11.9853 8.60358 11.8709 8.50367 11.7232C8.40375 11.5756 8.35026 11.4014 8.35006 11.2232L8.35006 7.0565C8.35006 6.8197 8.44413 6.59259 8.61157 6.42515C8.77901 6.25771 9.00611 6.16364 9.24292 6.16364C9.47972 6.16364 9.70682 6.25771 9.87426 6.42515C10.0417 6.59259 10.1358 6.8197 10.1358 7.0565Z" fill="white"/>
</g>
<defs>
<clipPath id="clip0_2_2212">
<rect width="20" height="20" fill="white" transform="translate(0 0.5)"/>
</clipPath>
</defs>
</svg>
