<svg xmlns="http://www.w3.org/2000/svg" width="24" height="18" viewBox="0 0 24 18" fill="none">
    <g clip-path="url(#clip0_2210_5269)">
        <path
            d="M5.82353 17.4706C4.21765 17.4706 2.84576 16.9147 1.70788 15.8029C0.569294 14.6912 0 13.3324 0 11.7265C0 10.35 0.414706 9.12353 1.24412 8.04706C2.07353 6.97059 3.15882 6.28236 4.5 5.98236C4.90588 4.55294 5.66047 3.35294 6.76376 2.38236C7.86635 1.41177 9.14118 0.82059 10.5882 0.608826V9.15883L9.63529 8.23236C9.44118 8.03824 9.19871 7.94118 8.90788 7.94118C8.61635 7.94118 8.36471 8.04706 8.15294 8.25883C7.95882 8.45294 7.86176 8.7 7.86176 9C7.86176 9.3 7.95882 9.54706 8.15294 9.74118L10.9059 12.4941C11.1176 12.7059 11.3647 12.8118 11.6471 12.8118C11.9294 12.8118 12.1765 12.7059 12.3882 12.4941L15.1412 9.74118C15.3353 9.54706 15.4369 9.30424 15.4461 9.01271C15.4546 8.72189 15.3529 8.47059 15.1412 8.25883C14.9471 8.06471 14.7046 7.96306 14.4138 7.95389C14.1222 7.94541 13.8706 8.03824 13.6588 8.23236L12.7059 9.15883V0.608826C14.5235 0.855885 16.0369 1.67188 17.2461 3.05683C18.4546 4.44247 19.0588 6.07059 19.0588 7.94118C20.2765 8.08236 21.2869 8.60718 22.0902 9.51565C22.8928 10.4248 23.2941 11.4882 23.2941 12.7059C23.2941 14.0294 22.8311 15.1546 21.9049 16.0814C20.9781 17.0075 19.8529 17.4706 18.5294 17.4706H5.82353Z"
            fill="white" />
    </g>
    <defs>
        <clipPath id="clip0_2210_5269">
            <rect width="23.2941" height="18" fill="white" />
        </clipPath>
    </defs>
</svg>