<svg width="335" height="140" viewBox="0 0 335 140" fill="none" xmlns="http://www.w3.org/2000/svg">
<g filter="url(#filter0_dd_2842_4160)">
<path d="M53.1695 70.943H22.1016V81.466H53.1695V70.943Z" fill="#433E39"/>
<g style="mix-blend-mode:multiply">
<path d="M53.1337 70.8436H46.2236V81.3115H53.1337V70.8436Z" fill="#535762"/>
</g>
<path d="M98.5088 67.1205H71.084C69.8607 67.1205 68.8691 68.1121 68.8691 69.3353V82.8148C68.8691 84.038 69.8607 85.0296 71.084 85.0296H98.5088C99.7321 85.0296 100.724 84.038 100.724 82.8148V69.3353C100.724 68.1121 99.7321 67.1205 98.5088 67.1205Z" fill="#776E67"/>
<g style="mix-blend-mode:multiply">
<path d="M86.4676 67.1205H71.084C69.8607 67.1205 68.8691 68.1121 68.8691 69.3353V82.8148C68.8691 84.038 69.8607 85.0296 71.084 85.0296H86.4676C87.6908 85.0296 88.6824 84.038 88.6824 82.8148V69.3353C88.6824 68.1121 87.6908 67.1205 86.4676 67.1205Z" fill="#535762"/>
</g>
<path d="M80.8952 61.9183H54.1567C50.8357 61.9183 48.1436 64.6105 48.1436 67.9314V84.2221C48.1436 87.543 50.8357 90.2352 54.1567 90.2352H80.8952C84.2161 90.2352 86.9083 87.543 86.9083 84.2221V67.9314C86.9083 64.6105 84.2161 61.9183 80.8952 61.9183Z" fill="#433E39"/>
<path fill-rule="evenodd" clip-rule="evenodd" d="M142.03 22.4201L254.262 22.4201C258.803 22.4201 263.214 22.9537 267.43 23.9589C291.387 28.495 309.505 49.5406 309.505 74.8169C309.505 75.5741 309.488 76.3276 309.456 77.0769H310.351C311.805 77.0769 312.987 75.8943 312.987 74.4411C312.987 72.9879 311.805 71.8053 310.351 71.8053H309.444C309.274 68.1473 308.748 64.5846 307.891 61.1521C308.663 63.1865 310.351 63.7878 310.351 63.7878L310.346 63.7928C316.229 63.7928 321 68.5633 321 74.4461C321 80.329 316.229 85.0994 310.346 85.0994C310.346 85.0994 308.627 85.7071 307.868 87.7795C307.787 88.0929 307.704 88.4051 307.617 88.7162C307.606 88.7806 307.595 88.8461 307.585 88.9127L307.565 88.9011C301.431 110.644 281.447 126.58 257.742 126.58L140.451 126.58C123.781 126.58 108.954 118.697 99.4876 106.457C93.9195 99.7338 90.0574 91.6593 88.5264 82.8315V65.7353C92.7888 41.1589 115.118 22.4201 142.03 22.4201Z" fill="#34302D"/>
<path d="M254.439 50.9006C267.628 50.9006 278.361 61.629 278.361 74.8228C278.361 88.0166 267.633 98.7451 254.439 98.7451C241.245 98.7451 230.517 88.0166 230.517 74.8228C230.517 61.629 241.245 50.9006 254.439 50.9006ZM254.439 42.8831C236.8 42.8831 222.499 57.1843 222.499 74.8228C222.499 92.4614 236.8 106.763 254.439 106.763C272.077 106.763 286.379 92.4614 286.379 74.8228C286.379 57.1843 272.077 42.8831 254.439 42.8831Z" fill="#1D1915"/>
<path d="M254.438 98.7394C267.65 98.7394 278.36 88.0291 278.36 74.8171C278.36 61.6052 267.65 50.8949 254.438 50.8949C241.226 50.8949 230.516 61.6052 230.516 74.8171C230.516 88.0291 241.226 98.7394 254.438 98.7394Z" fill="#34302D"/>
<path d="M149.927 59.5555H151.271C151.228 60.0683 151.085 60.5255 150.841 60.9271C150.597 61.3251 150.255 61.6388 149.814 61.8683C149.373 62.0978 148.836 62.2126 148.205 62.2126C147.721 62.2126 147.286 62.1265 146.898 61.9544C146.511 61.7787 146.179 61.5313 145.903 61.2121C145.627 60.8894 145.416 60.5004 145.269 60.045C145.125 59.5896 145.054 59.0804 145.054 58.5174V57.8666C145.054 57.3037 145.127 56.7945 145.274 56.3391C145.425 55.8837 145.64 55.4946 145.919 55.1719C146.199 54.8456 146.534 54.5964 146.925 54.4243C147.32 54.2522 147.763 54.1661 148.254 54.1661C148.878 54.1661 149.405 54.2809 149.835 54.5104C150.265 54.7398 150.599 55.0572 150.836 55.4624C151.076 55.8676 151.223 56.3319 151.277 56.8554H149.932C149.896 56.5184 149.817 56.2297 149.695 55.9895C149.577 55.7492 149.401 55.5664 149.168 55.4409C148.935 55.3118 148.63 55.2472 148.254 55.2472C147.945 55.2472 147.676 55.3046 147.447 55.4193C147.218 55.5341 147.026 55.7026 146.871 55.9249C146.717 56.1473 146.601 56.4216 146.522 56.7479C146.447 57.0706 146.409 57.4399 146.409 57.8559V58.5174C146.409 58.9119 146.443 59.2704 146.511 59.5932C146.583 59.9123 146.69 60.1866 146.834 60.4161C146.981 60.6456 147.167 60.8231 147.393 60.9486C147.619 61.0741 147.89 61.1368 148.205 61.1368C148.589 61.1368 148.899 61.0759 149.136 60.954C149.376 60.832 149.557 60.6545 149.679 60.4215C149.805 60.1848 149.887 59.8962 149.927 59.5555ZM153.223 59.2597V59.136C153.223 58.7164 153.284 58.3274 153.405 57.9688C153.527 57.6067 153.703 57.2929 153.933 57.0276C154.166 56.7586 154.449 56.5506 154.782 56.4036C155.119 56.253 155.5 56.1777 155.923 56.1777C156.349 56.1777 156.729 56.253 157.063 56.4036C157.4 56.5506 157.685 56.7586 157.918 57.0276C158.151 57.2929 158.329 57.6067 158.451 57.9688C158.573 58.3274 158.633 58.7164 158.633 59.136V59.2597C158.633 59.6792 158.573 60.0683 158.451 60.4268C158.329 60.7854 158.151 61.0992 157.918 61.3681C157.685 61.6335 157.402 61.8414 157.068 61.992C156.735 62.139 156.357 62.2126 155.933 62.2126C155.507 62.2126 155.125 62.139 154.788 61.992C154.454 61.8414 154.171 61.6335 153.938 61.3681C153.705 61.0992 153.527 60.7854 153.405 60.4268C153.284 60.0683 153.223 59.6792 153.223 59.2597ZM154.519 59.136V59.2597C154.519 59.5214 154.546 59.7689 154.599 60.0019C154.653 60.235 154.738 60.4394 154.852 60.6151C154.967 60.7908 155.114 60.9289 155.293 61.0293C155.473 61.1297 155.686 61.1799 155.933 61.1799C156.174 61.1799 156.382 61.1297 156.557 61.0293C156.737 60.9289 156.884 60.7908 156.998 60.6151C157.113 60.4394 157.197 60.235 157.251 60.0019C157.309 59.7689 157.337 59.5214 157.337 59.2597V59.136C157.337 58.8778 157.309 58.634 157.251 58.4045C157.197 58.1714 157.111 57.9652 156.993 57.7859C156.878 57.6067 156.731 57.4668 156.552 57.3664C156.376 57.2624 156.166 57.2104 155.923 57.2104C155.679 57.2104 155.467 57.2624 155.288 57.3664C155.112 57.4668 154.967 57.6067 154.852 57.7859C154.738 57.9652 154.653 58.1714 154.599 58.4045C154.546 58.634 154.519 58.8778 154.519 59.136ZM162.107 57.5278V62.105H160.811V56.2853H162.032L162.107 57.5278ZM161.876 58.98L161.456 58.9746C161.46 58.5623 161.517 58.184 161.628 57.8397C161.743 57.4955 161.901 57.1997 162.102 56.9523C162.306 56.7048 162.55 56.5148 162.833 56.3821C163.116 56.2459 163.432 56.1777 163.78 56.1777C164.059 56.1777 164.312 56.2172 164.538 56.2961C164.768 56.3714 164.963 56.4951 165.124 56.6672C165.289 56.8393 165.415 57.0634 165.501 57.3395C165.587 57.612 165.63 57.9473 165.63 58.3453V62.105H164.328V58.3399C164.328 58.0602 164.287 57.8397 164.205 57.6784C164.126 57.5134 164.009 57.3969 163.855 57.3288C163.704 57.257 163.516 57.2212 163.29 57.2212C163.068 57.2212 162.869 57.2678 162.693 57.361C162.518 57.4543 162.369 57.5816 162.247 57.7429C162.129 57.9043 162.037 58.0907 161.973 58.3023C161.908 58.5138 161.876 58.7398 161.876 58.98ZM169.722 62.105H168.42V55.9088C168.42 55.4391 168.514 55.0428 168.7 54.7201C168.89 54.3974 169.161 54.1518 169.512 53.9832C169.867 53.8147 170.289 53.7305 170.776 53.7305C171.063 53.7305 171.339 53.7609 171.605 53.8219C171.874 53.8828 172.151 53.9599 172.438 54.0532L172.239 55.1074C172.056 55.0464 171.854 54.9891 171.631 54.9353C171.409 54.8779 171.153 54.8492 170.862 54.8492C170.471 54.8492 170.183 54.9389 169.996 55.1181C169.813 55.2938 169.722 55.5574 169.722 55.9088V62.105ZM170.889 56.2853V57.2319H167.528V56.2853H170.889ZM173.051 56.2853V62.105H171.755V56.2853H173.051ZM176.901 57.3933V62.105H175.605V56.2853H176.842L176.901 57.3933ZM178.682 56.2477L178.671 57.4525C178.592 57.4381 178.506 57.4274 178.413 57.4202C178.323 57.413 178.234 57.4094 178.144 57.4094C177.922 57.4094 177.726 57.4417 177.558 57.5063C177.389 57.5672 177.247 57.6569 177.133 57.7752C177.022 57.8899 176.936 58.0298 176.875 58.1947C176.814 58.3597 176.778 58.5443 176.767 58.7487L176.471 58.7702C176.471 58.4045 176.507 58.0656 176.579 57.7537C176.65 57.4417 176.758 57.1674 176.901 56.9307C177.048 56.6941 177.231 56.5094 177.45 56.3767C177.672 56.2441 177.929 56.1777 178.219 56.1777C178.298 56.1777 178.382 56.1849 178.472 56.1992C178.565 56.2136 178.635 56.2297 178.682 56.2477ZM181.892 57.4686V62.105H180.595V56.2853H181.816L181.892 57.4686ZM181.682 58.98L181.241 58.9746C181.241 58.573 181.291 58.2019 181.392 57.8612C181.492 57.5206 181.639 57.2248 181.833 56.9738C182.026 56.7192 182.266 56.5238 182.553 56.3875C182.844 56.2477 183.179 56.1777 183.559 56.1777C183.824 56.1777 184.067 56.2172 184.285 56.2961C184.508 56.3714 184.699 56.4915 184.861 56.6564C185.026 56.8214 185.151 57.0329 185.237 57.2911C185.327 57.5493 185.372 57.8612 185.372 58.227V62.105H184.075V58.3399C184.075 58.0567 184.032 57.8343 183.946 57.673C183.864 57.5116 183.744 57.3969 183.586 57.3288C183.432 57.257 183.247 57.2212 183.032 57.2212C182.788 57.2212 182.58 57.2678 182.408 57.361C182.24 57.4543 182.102 57.5816 181.994 57.7429C181.886 57.9043 181.807 58.0907 181.757 58.3023C181.707 58.5138 181.682 58.7398 181.682 58.98ZM185.291 58.6358L184.683 58.7702C184.683 58.4188 184.732 58.0871 184.828 57.7752C184.929 57.4596 185.074 57.1835 185.264 56.9469C185.458 56.7066 185.696 56.5184 185.98 56.3821C186.263 56.2459 186.587 56.1777 186.953 56.1777C187.251 56.1777 187.516 56.219 187.749 56.3014C187.986 56.3803 188.187 56.5058 188.351 56.6779C188.516 56.8501 188.642 57.0742 188.728 57.3503C188.814 57.6228 188.857 57.9527 188.857 58.3399V62.105H187.555V58.3346C187.555 58.0405 187.512 57.8128 187.426 57.6515C187.344 57.4901 187.226 57.379 187.071 57.318C186.917 57.2535 186.733 57.2212 186.517 57.2212C186.317 57.2212 186.139 57.2588 185.985 57.3341C185.834 57.4058 185.707 57.508 185.603 57.6407C185.499 57.7698 185.42 57.9186 185.366 58.0871C185.316 58.2557 185.291 58.4385 185.291 58.6358Z" fill="white"/>
<rect x="126.61" y="89.5181" width="10.1893" height="10.1893" rx="3.44232" stroke="white" stroke-width="0.826158"/>
<path d="M134.32 92.6939C134.366 92.6495 134.403 92.5963 134.428 92.5376C134.453 92.4788 134.467 92.4155 134.467 92.3516C134.468 92.2876 134.456 92.2241 134.432 92.1649C134.407 92.1056 134.372 92.0518 134.326 92.0066C134.281 91.9613 134.227 91.9255 134.168 91.9012C134.109 91.877 134.046 91.8647 133.982 91.8653C133.918 91.8658 133.854 91.8791 133.796 91.9043C133.737 91.9295 133.684 91.9662 133.639 92.0122L131.708 93.943L129.777 92.0122C129.733 91.9649 129.68 91.9269 129.62 91.9005C129.561 91.8742 129.497 91.86 129.433 91.8589C129.368 91.8578 129.304 91.8697 129.244 91.8939C129.184 91.9181 129.129 91.9542 129.084 92C129.038 92.0457 129.002 92.1002 128.977 92.1602C128.953 92.2202 128.941 92.2845 128.942 92.3492C128.944 92.4139 128.958 92.4777 128.984 92.5368C129.01 92.596 129.048 92.6492 129.096 92.6933L131.025 94.6247L129.094 96.5555C129.009 96.6468 128.963 96.7677 128.965 96.8925C128.967 97.0174 129.018 97.1365 129.106 97.2248C129.195 97.313 129.314 97.3636 129.439 97.3658C129.563 97.368 129.684 97.3217 129.776 97.2366L131.708 95.3058L133.638 97.2372C133.73 97.3223 133.851 97.3687 133.975 97.3665C134.1 97.3643 134.219 97.3137 134.308 97.2254C134.396 97.1371 134.447 97.018 134.449 96.8932C134.451 96.7683 134.405 96.6475 134.319 96.5561L132.39 94.6247L134.32 92.6939Z" fill="white"/>
<rect x="198.211" y="89.5181" width="10.1893" height="10.1893" rx="3.44232" stroke="white" stroke-width="0.826158"/>
<path d="M200.606 94.6127L202.92 96.5404L206.004 92.685" stroke="white" stroke-width="1.10154" stroke-linecap="round"/>
</g>
<defs>
<filter id="filter0_dd_2842_4160" x="-1.03087" y="0.38914" width="335.8" height="139.409" filterUnits="userSpaceOnUse" color-interpolation-filters="sRGB">
<feFlood flood-opacity="0" result="BackgroundImageFix"/>
<feColorMatrix in="SourceAlpha" type="matrix" values="0 0 0 0 0 0 0 0 0 0 0 0 0 0 0 0 0 0 127 0" result="hardAlpha"/>
<feOffset dx="2.75386" dy="2.20309"/>
<feGaussianBlur stdDeviation="5.50772"/>
<feComposite in2="hardAlpha" operator="out"/>
<feColorMatrix type="matrix" values="0 0 0 0 0 0 0 0 0 0 0 0 0 0 0 0 0 0 0.41 0"/>
<feBlend mode="normal" in2="BackgroundImageFix" result="effect1_dropShadow_2842_4160"/>
<feColorMatrix in="SourceAlpha" type="matrix" values="0 0 0 0 0 0 0 0 0 0 0 0 0 0 0 0 0 0 127 0" result="hardAlpha"/>
<feOffset dx="-5.50772" dy="-5.50772"/>
<feGaussianBlur stdDeviation="8.26158"/>
<feComposite in2="hardAlpha" operator="out"/>
<feColorMatrix type="matrix" values="0 0 0 0 0.0916667 0 0 0 0 0.0758333 0 0 0 0 0.0626389 0 0 0 1 0"/>
<feBlend mode="normal" in2="effect1_dropShadow_2842_4160" result="effect2_dropShadow_2842_4160"/>
<feBlend mode="normal" in="SourceGraphic" in2="effect2_dropShadow_2842_4160" result="shape"/>
</filter>
</defs>
</svg>
