<svg width="335" height="141" viewBox="0 0 335 141" fill="none" xmlns="http://www.w3.org/2000/svg">
<g filter="url(#filter0_dd_2637_46102)">
<path d="M53.1695 71.443H22.1016V81.966H53.1695V71.443Z" fill="#433E39"/>
<g style="mix-blend-mode:multiply">
<path d="M53.1337 71.3436H46.2236V81.8115H53.1337V71.3436Z" fill="#535762"/>
</g>
<path d="M98.5088 67.6205H71.084C69.8607 67.6205 68.8691 68.6121 68.8691 69.8353V83.3148C68.8691 84.538 69.8607 85.5296 71.084 85.5296H98.5088C99.7321 85.5296 100.724 84.538 100.724 83.3148V69.8353C100.724 68.6121 99.7321 67.6205 98.5088 67.6205Z" fill="#776E67"/>
<g style="mix-blend-mode:multiply">
<path d="M86.4676 67.6205H71.084C69.8607 67.6205 68.8691 68.6121 68.8691 69.8353V83.3148C68.8691 84.538 69.8607 85.5296 71.084 85.5296H86.4676C87.6908 85.5296 88.6824 84.538 88.6824 83.3148V69.8353C88.6824 68.6121 87.6908 67.6205 86.4676 67.6205Z" fill="#535762"/>
</g>
<path d="M80.8952 62.4183H54.1567C50.8357 62.4183 48.1436 65.1105 48.1436 68.4314V84.722C48.1436 88.043 50.8357 90.7352 54.1567 90.7352H80.8952C84.2161 90.7352 86.9083 88.043 86.9083 84.722V68.4314C86.9083 65.1105 84.2161 62.4183 80.8952 62.4183Z" fill="#433E39"/>
<path fill-rule="evenodd" clip-rule="evenodd" d="M142.03 22.9201L254.262 22.9201C258.803 22.9201 263.214 23.4537 267.43 24.4589C291.387 28.995 309.505 50.0406 309.505 75.3169C309.505 76.0741 309.488 76.8275 309.456 77.5768H310.351C311.805 77.5768 312.987 76.3943 312.987 74.9411C312.987 73.4879 311.805 72.3053 310.351 72.3053H309.444C309.274 68.6473 308.748 65.0846 307.891 61.6521C308.663 63.6865 310.351 64.2878 310.351 64.2878L310.346 64.2928C316.229 64.2928 321 69.0632 321 74.9461C321 80.8289 316.229 85.5994 310.346 85.5994C310.346 85.5994 308.627 86.2071 307.868 88.2795C307.787 88.5929 307.704 88.9051 307.617 89.2162C307.606 89.2806 307.595 89.3461 307.585 89.4127L307.565 89.4011C301.431 111.144 281.447 127.08 257.742 127.08L140.451 127.08C123.781 127.08 108.954 119.197 99.4876 106.957C93.9195 100.234 90.0574 92.1592 88.5264 83.3315V66.2353C92.7888 41.6589 115.118 22.9201 142.03 22.9201Z" fill="#34302D"/>
<path d="M254.439 51.4005C267.628 51.4005 278.361 62.129 278.361 75.3228C278.361 88.5166 267.633 99.2451 254.439 99.2451C241.245 99.2451 230.517 88.5166 230.517 75.3228C230.517 62.129 241.245 51.4005 254.439 51.4005ZM254.439 43.383C236.8 43.383 222.499 57.6843 222.499 75.3228C222.499 92.9613 236.8 107.263 254.439 107.263C272.077 107.263 286.379 92.9613 286.379 75.3228C286.379 57.6843 272.077 43.383 254.439 43.383Z" fill="#1D1915"/>
<path d="M254.438 99.2394C267.65 99.2394 278.36 88.529 278.36 75.3171C278.36 62.1052 267.65 51.3949 254.438 51.3949C241.226 51.3949 230.516 62.1052 230.516 75.3171C230.516 88.529 241.226 99.2394 254.438 99.2394Z" fill="#34302D"/>
<path d="M129.576 56.2737H132.346C132.941 56.2737 133.448 56.3633 133.868 56.5426C134.288 56.7219 134.608 56.9872 134.831 57.3386C135.057 57.6865 135.17 58.1167 135.17 58.6295C135.17 59.0204 135.098 59.3646 134.954 59.6622C134.811 59.9598 134.608 60.2108 134.347 60.4152C134.085 60.616 133.773 60.772 133.411 60.8832L133.002 61.0822H130.512L130.501 60.0118H132.367C132.69 60.0118 132.959 59.9544 133.174 59.8397C133.389 59.725 133.551 59.569 133.658 59.3718C133.769 59.171 133.825 58.945 133.825 58.694C133.825 58.4215 133.771 58.1849 133.664 57.9841C133.56 57.7797 133.398 57.6237 133.18 57.5161C132.961 57.405 132.683 57.3494 132.346 57.3494H130.926V64.1049H129.576V56.2737ZM134.045 64.1049L132.206 60.5873L133.621 60.5819L135.487 64.035V64.1049H134.045ZM140.052 64.2125C139.622 64.2125 139.233 64.1426 138.885 64.0028C138.541 63.8593 138.247 63.6603 138.003 63.4057C137.763 63.1511 137.578 62.8517 137.449 62.5075C137.32 62.1633 137.255 61.7921 137.255 61.3941V61.179C137.255 60.7236 137.322 60.3112 137.454 59.9419C137.587 59.5726 137.772 59.257 138.008 58.9953C138.245 58.7299 138.525 58.5273 138.848 58.3875C139.17 58.2476 139.52 58.1777 139.896 58.1777C140.312 58.1777 140.676 58.2476 140.988 58.3875C141.3 58.5273 141.558 58.7245 141.763 58.9791C141.971 59.2301 142.125 59.5295 142.225 59.8773C142.329 60.2252 142.381 60.6088 142.381 61.0284V61.5824H137.885V60.6519H141.101V60.5497C141.094 60.3166 141.047 60.0979 140.961 59.8935C140.879 59.6891 140.752 59.5241 140.579 59.3986C140.407 59.2731 140.178 59.2104 139.891 59.2104C139.676 59.2104 139.484 59.257 139.315 59.3502C139.151 59.4399 139.012 59.5708 138.901 59.7429C138.79 59.915 138.704 60.123 138.643 60.3668C138.586 60.607 138.557 60.8778 138.557 61.179V61.3941C138.557 61.6487 138.591 61.8854 138.659 62.1041C138.731 62.3192 138.835 62.5075 138.971 62.6689C139.108 62.8302 139.272 62.9575 139.466 63.0507C139.66 63.1404 139.88 63.1852 140.128 63.1852C140.44 63.1852 140.718 63.1225 140.961 62.997C141.205 62.8715 141.417 62.694 141.596 62.4645L142.279 63.126C142.154 63.3089 141.99 63.4846 141.79 63.6531C141.589 63.8181 141.343 63.9526 141.053 64.0565C140.766 64.1605 140.432 64.2125 140.052 64.2125ZM147.759 62.529C147.759 62.3999 147.727 62.2834 147.662 62.1794C147.597 62.0718 147.474 61.975 147.291 61.889C147.112 61.8029 146.846 61.724 146.495 61.6523C146.187 61.5842 145.903 61.5035 145.645 61.4103C145.39 61.3134 145.172 61.1969 144.989 61.0606C144.806 60.9244 144.664 60.763 144.564 60.5766C144.464 60.3901 144.413 60.175 144.413 59.9311C144.413 59.6945 144.465 59.4704 144.569 59.2588C144.673 59.0472 144.822 58.8608 145.016 58.6994C145.209 58.5381 145.444 58.4108 145.72 58.3175C146 58.2243 146.312 58.1777 146.656 58.1777C147.144 58.1777 147.562 58.2602 147.909 58.4251C148.261 58.5865 148.53 58.807 148.716 59.0867C148.903 59.3628 148.996 59.6748 148.996 60.0226H147.7C147.7 59.8684 147.66 59.725 147.581 59.5923C147.506 59.456 147.391 59.3467 147.237 59.2642C147.083 59.1781 146.889 59.1351 146.656 59.1351C146.434 59.1351 146.249 59.171 146.102 59.2427C145.959 59.3108 145.851 59.4004 145.78 59.5116C145.711 59.6228 145.677 59.7447 145.677 59.8773C145.677 59.9742 145.695 60.062 145.731 60.1409C145.771 60.2162 145.835 60.2861 145.925 60.3507C146.014 60.4116 146.136 60.469 146.29 60.5228C146.448 60.5766 146.645 60.6286 146.882 60.6788C147.327 60.772 147.709 60.8921 148.028 61.0391C148.351 61.1826 148.598 61.369 148.77 61.5985C148.942 61.8244 149.028 62.1113 149.028 62.4591C149.028 62.7173 148.973 62.9539 148.861 63.1691C148.754 63.3806 148.596 63.5653 148.388 63.7231C148.18 63.8773 147.931 63.9974 147.641 64.0834C147.354 64.1695 147.031 64.2125 146.672 64.2125C146.145 64.2125 145.699 64.1193 145.333 63.9328C144.967 63.7428 144.689 63.5008 144.499 63.2067C144.313 62.9091 144.22 62.6007 144.22 62.2816H145.473C145.487 62.5218 145.554 62.7137 145.672 62.8571C145.794 62.997 145.944 63.0991 146.124 63.1637C146.307 63.2246 146.495 63.2551 146.689 63.2551C146.922 63.2551 147.117 63.2246 147.275 63.1637C147.433 63.0991 147.553 63.0131 147.635 62.9055C147.718 62.7944 147.759 62.6689 147.759 62.529ZM153.932 58.2853V59.2319H150.651V58.2853H153.932ZM151.598 56.8599H152.894V62.4967C152.894 62.676 152.919 62.8141 152.97 62.9109C153.023 63.0041 153.097 63.0669 153.19 63.0991C153.283 63.1314 153.393 63.1476 153.518 63.1476C153.608 63.1476 153.694 63.1422 153.776 63.1314C153.859 63.1207 153.925 63.1099 153.975 63.0991L153.981 64.0888C153.873 64.1211 153.748 64.1498 153.604 64.1749C153.465 64.2 153.303 64.2125 153.12 64.2125C152.823 64.2125 152.559 64.1605 152.33 64.0565C152.1 63.949 151.921 63.7751 151.792 63.5348C151.663 63.2946 151.598 62.9754 151.598 62.5774V56.8599ZM155.658 61.2597V61.1359C155.658 60.7164 155.719 60.3274 155.841 59.9688C155.963 59.6066 156.138 59.2929 156.368 59.0275C156.601 58.7586 156.884 58.5506 157.218 58.4036C157.555 58.253 157.935 58.1777 158.358 58.1777C158.785 58.1777 159.165 58.253 159.498 58.4036C159.835 58.5506 160.12 58.7586 160.353 59.0275C160.587 59.2929 160.764 59.6066 160.886 59.9688C161.008 60.3274 161.069 60.7164 161.069 61.1359V61.2597C161.069 61.6792 161.008 62.0682 160.886 62.4268C160.764 62.7854 160.587 63.0991 160.353 63.3681C160.12 63.6334 159.837 63.8414 159.504 63.992C159.17 64.139 158.792 64.2125 158.369 64.2125C157.942 64.2125 157.56 64.139 157.223 63.992C156.89 63.8414 156.606 63.6334 156.373 63.3681C156.14 63.0991 155.963 62.7854 155.841 62.4268C155.719 62.0682 155.658 61.6792 155.658 61.2597ZM156.954 61.1359V61.2597C156.954 61.5214 156.981 61.7688 157.035 62.0019C157.089 62.235 157.173 62.4394 157.288 62.6151C157.402 62.7908 157.549 62.9288 157.729 63.0292C157.908 63.1296 158.121 63.1798 158.369 63.1798C158.609 63.1798 158.817 63.1296 158.993 63.0292C159.172 62.9288 159.319 62.7908 159.434 62.6151C159.548 62.4394 159.633 62.235 159.687 62.0019C159.744 61.7688 159.773 61.5214 159.773 61.2597V61.1359C159.773 60.8778 159.744 60.6339 159.687 60.4045C159.633 60.1714 159.547 59.9652 159.428 59.7859C159.314 59.6066 159.167 59.4668 158.987 59.3664C158.812 59.2624 158.602 59.2104 158.358 59.2104C158.114 59.2104 157.903 59.2624 157.723 59.3664C157.548 59.4668 157.402 59.6066 157.288 59.7859C157.173 59.9652 157.089 60.1714 157.035 60.4045C156.981 60.6339 156.954 60.8778 156.954 61.1359ZM164.558 59.3933V64.1049H163.262V58.2853H164.499L164.558 59.3933ZM166.339 58.2476L166.328 59.4524C166.249 59.4381 166.163 59.4273 166.07 59.4202C165.98 59.413 165.891 59.4094 165.801 59.4094C165.579 59.4094 165.383 59.4417 165.215 59.5062C165.046 59.5672 164.904 59.6568 164.79 59.7752C164.679 59.8899 164.593 60.0297 164.532 60.1947C164.471 60.3596 164.435 60.5443 164.424 60.7487L164.128 60.7702C164.128 60.4045 164.164 60.0656 164.236 59.7536C164.307 59.4417 164.415 59.1674 164.558 58.9307C164.705 58.694 164.888 58.5094 165.107 58.3767C165.329 58.244 165.586 58.1777 165.876 58.1777C165.955 58.1777 166.039 58.1849 166.129 58.1992C166.222 58.2136 166.292 58.2297 166.339 58.2476ZM170.711 64.2125C170.28 64.2125 169.891 64.1426 169.543 64.0028C169.199 63.8593 168.905 63.6603 168.661 63.4057C168.421 63.1511 168.236 62.8517 168.107 62.5075C167.978 62.1633 167.914 61.7921 167.914 61.3941V61.179C167.914 60.7236 167.98 60.3112 168.113 59.9419C168.245 59.5726 168.43 59.257 168.667 58.9953C168.903 58.7299 169.183 58.5273 169.506 58.3875C169.828 58.2476 170.178 58.1777 170.555 58.1777C170.971 58.1777 171.334 58.2476 171.646 58.3875C171.958 58.5273 172.217 58.7245 172.421 58.9791C172.629 59.2301 172.783 59.5295 172.884 59.8773C172.988 60.2252 173.039 60.6088 173.039 61.0284V61.5824H168.543V60.6519H171.759V60.5497C171.752 60.3166 171.706 60.0979 171.62 59.8935C171.537 59.6891 171.41 59.5241 171.238 59.3986C171.066 59.2731 170.836 59.2104 170.549 59.2104C170.334 59.2104 170.142 59.257 169.974 59.3502C169.809 59.4399 169.671 59.5708 169.56 59.7429C169.448 59.915 169.362 60.123 169.301 60.3668C169.244 60.607 169.215 60.8778 169.215 61.179V61.3941C169.215 61.6487 169.249 61.8854 169.317 62.1041C169.389 62.3192 169.493 62.5075 169.629 62.6689C169.766 62.8302 169.931 62.9575 170.124 63.0507C170.318 63.1404 170.538 63.1852 170.786 63.1852C171.098 63.1852 171.376 63.1225 171.62 62.997C171.863 62.8715 172.075 62.694 172.254 62.4645L172.937 63.126C172.812 63.3089 172.649 63.4846 172.448 63.6531C172.247 63.8181 172.001 63.9526 171.711 64.0565C171.424 64.1605 171.091 64.2125 170.711 64.2125ZM180.75 64.1049H179.454V57.7259C179.454 57.292 179.535 56.9281 179.696 56.634C179.861 56.3364 180.096 56.1123 180.401 55.9617C180.705 55.8075 181.066 55.7304 181.482 55.7304C181.611 55.7304 181.738 55.7394 181.864 55.7573C181.989 55.7717 182.111 55.795 182.229 55.8272L182.197 56.8277C182.125 56.8097 182.047 56.7972 181.96 56.79C181.878 56.7828 181.788 56.7793 181.692 56.7793C181.494 56.7793 181.324 56.8169 181.181 56.8922C181.041 56.9639 180.933 57.0697 180.858 57.2095C180.786 57.3494 180.75 57.5215 180.75 57.7259V64.1049ZM181.95 58.2853V59.2319H178.561V58.2853H181.95ZM185.294 59.3933V64.1049H183.998V58.2853H185.235L185.294 59.3933ZM187.074 58.2476L187.064 59.4524C186.985 59.4381 186.899 59.4273 186.806 59.4202C186.716 59.413 186.626 59.4094 186.537 59.4094C186.314 59.4094 186.119 59.4417 185.95 59.5062C185.782 59.5672 185.64 59.6568 185.525 59.7752C185.414 59.8899 185.328 60.0297 185.267 60.1947C185.206 60.3596 185.17 60.5443 185.16 60.7487L184.864 60.7702C184.864 60.4045 184.9 60.0656 184.971 59.7536C185.043 59.4417 185.151 59.1674 185.294 58.9307C185.441 58.694 185.624 58.5094 185.843 58.3767C186.065 58.244 186.321 58.1777 186.612 58.1777C186.691 58.1777 186.775 58.1849 186.865 58.1992C186.958 58.2136 187.028 58.2297 187.074 58.2476ZM188.601 61.2597V61.1359C188.601 60.7164 188.662 60.3274 188.784 59.9688C188.906 59.6066 189.081 59.2929 189.311 59.0275C189.544 58.7586 189.827 58.5506 190.161 58.4036C190.498 58.253 190.878 58.1777 191.301 58.1777C191.728 58.1777 192.108 58.253 192.441 58.4036C192.778 58.5506 193.063 58.7586 193.296 59.0275C193.53 59.2929 193.707 59.6066 193.829 59.9688C193.951 60.3274 194.012 60.7164 194.012 61.1359V61.2597C194.012 61.6792 193.951 62.0682 193.829 62.4268C193.707 62.7854 193.53 63.0991 193.296 63.3681C193.063 63.6334 192.78 63.8414 192.447 63.992C192.113 64.139 191.735 64.2125 191.312 64.2125C190.885 64.2125 190.503 64.139 190.166 63.992C189.833 63.8414 189.549 63.6334 189.316 63.3681C189.083 63.0991 188.906 62.7854 188.784 62.4268C188.662 62.0682 188.601 61.6792 188.601 61.2597ZM189.897 61.1359V61.2597C189.897 61.5214 189.924 61.7688 189.978 62.0019C190.032 62.235 190.116 62.4394 190.231 62.6151C190.345 62.7908 190.492 62.9288 190.672 63.0292C190.851 63.1296 191.064 63.1798 191.312 63.1798C191.552 63.1798 191.76 63.1296 191.936 63.0292C192.115 62.9288 192.262 62.7908 192.377 62.6151C192.491 62.4394 192.576 62.235 192.63 62.0019C192.687 61.7688 192.716 61.5214 192.716 61.2597V61.1359C192.716 60.8778 192.687 60.6339 192.63 60.4045C192.576 60.1714 192.49 59.9652 192.371 59.7859C192.257 59.6066 192.11 59.4668 191.93 59.3664C191.755 59.2624 191.545 59.2104 191.301 59.2104C191.057 59.2104 190.846 59.2624 190.666 59.3664C190.491 59.4668 190.345 59.6066 190.231 59.7859C190.116 59.9652 190.032 60.1714 189.978 60.4045C189.924 60.6339 189.897 60.8778 189.897 61.1359ZM197.496 59.4686V64.1049H196.2V58.2853H197.421L197.496 59.4686ZM197.286 60.98L196.845 60.9746C196.845 60.573 196.896 60.2019 196.996 59.8612C197.096 59.5206 197.243 59.2247 197.437 58.9737C197.631 58.7191 197.871 58.5237 198.158 58.3875C198.448 58.2476 198.783 58.1777 199.164 58.1777C199.429 58.1777 199.671 58.2171 199.89 58.296C200.112 58.3713 200.304 58.4915 200.465 58.6564C200.63 58.8213 200.756 59.0329 200.842 59.2911C200.931 59.5492 200.976 59.8612 200.976 60.227V64.1049H199.68V60.3399C199.68 60.0566 199.637 59.8343 199.551 59.673C199.468 59.5116 199.348 59.3969 199.19 59.3287C199.036 59.257 198.852 59.2212 198.636 59.2212C198.393 59.2212 198.185 59.2678 198.012 59.361C197.844 59.4542 197.706 59.5815 197.598 59.7429C197.491 59.9042 197.412 60.0907 197.362 60.3023C197.311 60.5138 197.286 60.7397 197.286 60.98ZM200.895 60.6357L200.288 60.7702C200.288 60.4188 200.336 60.0871 200.433 59.7752C200.533 59.4596 200.678 59.1835 200.869 58.9468C201.062 58.7066 201.301 58.5183 201.584 58.3821C201.867 58.2458 202.192 58.1777 202.557 58.1777C202.855 58.1777 203.12 58.2189 203.353 58.3014C203.59 58.3803 203.791 58.5058 203.956 58.6779C204.121 58.85 204.246 59.0741 204.332 59.3502C204.418 59.6228 204.461 59.9526 204.461 60.3399V64.1049H203.16V60.3345C203.16 60.0405 203.117 59.8128 203.031 59.6514C202.948 59.4901 202.83 59.3789 202.676 59.318C202.522 59.2534 202.337 59.2212 202.122 59.2212C201.921 59.2212 201.743 59.2588 201.589 59.3341C201.439 59.4058 201.311 59.508 201.207 59.6407C201.103 59.7698 201.025 59.9186 200.971 60.0871C200.921 60.2556 200.895 60.4385 200.895 60.6357ZM135.948 75.529C135.948 75.3999 135.916 75.2834 135.852 75.1794C135.787 75.0718 135.663 74.975 135.481 74.889C135.301 74.8029 135.036 74.724 134.684 74.6523C134.376 74.5842 134.093 74.5035 133.835 74.4103C133.58 74.3134 133.361 74.1969 133.178 74.0606C132.996 73.9244 132.854 73.763 132.754 73.5766C132.653 73.3901 132.603 73.175 132.603 72.9311C132.603 72.6945 132.655 72.4704 132.759 72.2588C132.863 72.0472 133.012 71.8608 133.205 71.6994C133.399 71.5381 133.634 71.4108 133.91 71.3175C134.19 71.2243 134.502 71.1777 134.846 71.1777C135.333 71.1777 135.751 71.2602 136.099 71.4251C136.45 71.5865 136.719 71.807 136.906 72.0867C137.092 72.3628 137.186 72.6748 137.186 73.0226H135.889C135.889 72.8684 135.85 72.725 135.771 72.5923C135.696 72.456 135.581 72.3467 135.427 72.2642C135.273 72.1781 135.079 72.1351 134.846 72.1351C134.624 72.1351 134.439 72.171 134.292 72.2427C134.148 72.3108 134.041 72.4004 133.969 72.5116C133.901 72.6228 133.867 72.7447 133.867 72.8773C133.867 72.9742 133.885 73.062 133.921 73.1409C133.96 73.2162 134.025 73.2861 134.114 73.3507C134.204 73.4116 134.326 73.469 134.48 73.5228C134.638 73.5766 134.835 73.6286 135.072 73.6788C135.516 73.772 135.898 73.8921 136.217 74.0391C136.54 74.1826 136.788 74.369 136.96 74.5985C137.132 74.8244 137.218 75.1113 137.218 75.4591C137.218 75.7173 137.162 75.9539 137.051 76.1691C136.943 76.3806 136.786 76.5653 136.578 76.7231C136.37 76.8773 136.121 76.9974 135.83 77.0834C135.543 77.1695 135.221 77.2125 134.862 77.2125C134.335 77.2125 133.888 77.1193 133.523 76.9328C133.157 76.7428 132.879 76.5008 132.689 76.2067C132.503 75.9091 132.409 75.6007 132.409 75.2816H133.663C133.677 75.5218 133.743 75.7137 133.862 75.8571C133.983 75.997 134.134 76.0991 134.313 76.1637C134.496 76.2246 134.684 76.2551 134.878 76.2551C135.111 76.2551 135.307 76.2246 135.464 76.1637C135.622 76.0991 135.742 76.0131 135.825 75.9055C135.907 75.7944 135.948 75.6689 135.948 75.529ZM142.02 77.2125C141.59 77.2125 141.201 77.1426 140.853 77.0028C140.508 76.8593 140.214 76.6603 139.971 76.4057C139.73 76.1511 139.546 75.8517 139.417 75.5075C139.288 75.1633 139.223 74.7921 139.223 74.3941V74.179C139.223 73.7236 139.289 73.3112 139.422 72.9419C139.555 72.5726 139.739 72.257 139.976 71.9953C140.213 71.7299 140.492 71.5273 140.815 71.3875C141.138 71.2476 141.487 71.1777 141.864 71.1777C142.28 71.1777 142.644 71.2476 142.956 71.3875C143.268 71.5273 143.526 71.7245 143.73 71.9791C143.938 72.2301 144.092 72.5295 144.193 72.8773C144.297 73.2252 144.349 73.6088 144.349 74.0284V74.5824H139.852V73.6519H143.069V73.5497C143.062 73.3166 143.015 73.0979 142.929 72.8935C142.846 72.6891 142.719 72.5241 142.547 72.3986C142.375 72.2731 142.145 72.2104 141.858 72.2104C141.643 72.2104 141.452 72.257 141.283 72.3502C141.118 72.4399 140.98 72.5708 140.869 72.7429C140.758 72.915 140.672 73.123 140.611 73.3668C140.553 73.607 140.525 73.8778 140.525 74.179V74.3941C140.525 74.6487 140.559 74.8854 140.627 75.1041C140.699 75.3192 140.802 75.5075 140.939 75.6689C141.075 75.8302 141.24 75.9575 141.434 76.0507C141.627 76.1404 141.848 76.1852 142.095 76.1852C142.407 76.1852 142.685 76.1225 142.929 75.997C143.173 75.8715 143.384 75.694 143.564 75.4645L144.247 76.126C144.121 76.3089 143.958 76.4846 143.757 76.6531C143.556 76.8181 143.311 76.9526 143.02 77.0565C142.733 77.1605 142.4 77.2125 142.02 77.2125ZM149.027 77.2125C148.597 77.2125 148.208 77.1426 147.86 77.0028C147.516 76.8593 147.222 76.6603 146.978 76.4057C146.738 76.1511 146.553 75.8517 146.424 75.5075C146.295 75.1633 146.23 74.7921 146.23 74.3941V74.179C146.23 73.7236 146.297 73.3112 146.429 72.9419C146.562 72.5726 146.747 72.257 146.983 71.9953C147.22 71.7299 147.5 71.5273 147.822 71.3875C148.145 71.2476 148.495 71.1777 148.871 71.1777C149.287 71.1777 149.651 71.2476 149.963 71.3875C150.275 71.5273 150.533 71.7245 150.738 71.9791C150.946 72.2301 151.1 72.5295 151.2 72.8773C151.304 73.2252 151.356 73.6088 151.356 74.0284V74.5824H146.86V73.6519H150.076V73.5497C150.069 73.3166 150.022 73.0979 149.936 72.8935C149.854 72.6891 149.726 72.5241 149.554 72.3986C149.382 72.2731 149.153 72.2104 148.866 72.2104C148.651 72.2104 148.459 72.257 148.29 72.3502C148.125 72.4399 147.987 72.5708 147.876 72.7429C147.765 72.915 147.679 73.123 147.618 73.3668C147.561 73.607 147.532 73.8778 147.532 74.179V74.3941C147.532 74.6487 147.566 74.8854 147.634 75.1041C147.706 75.3192 147.81 75.5075 147.946 75.6689C148.082 75.8302 148.247 75.9575 148.441 76.0507C148.634 76.1404 148.855 76.1852 149.102 76.1852C149.414 76.1852 149.692 76.1225 149.936 75.997C150.18 75.8715 150.392 75.694 150.571 75.4645L151.254 76.126C151.128 76.3089 150.965 76.4846 150.764 76.6531C150.564 76.8181 150.318 76.9526 150.028 77.0565C149.741 77.1605 149.407 77.2125 149.027 77.2125ZM157.019 75.9001V68.8434H158.32V77.1049H157.142L157.019 75.9001ZM153.232 74.2597V74.1467C153.232 73.7057 153.284 73.3041 153.388 72.9419C153.492 72.5761 153.643 72.2624 153.84 72.0006C154.037 71.7353 154.277 71.5327 154.561 71.3928C154.844 71.2494 155.163 71.1777 155.518 71.1777C155.869 71.1777 156.178 71.2458 156.443 71.3821C156.709 71.5183 156.934 71.7138 157.121 71.9684C157.307 72.2194 157.456 72.5206 157.567 72.872C157.678 73.2198 157.757 73.607 157.804 74.0338V74.3941C157.757 74.8101 157.678 75.1902 157.567 75.5344C157.456 75.8786 157.307 76.1762 157.121 76.4272C156.934 76.6782 156.707 76.8719 156.438 77.0081C156.172 77.1444 155.862 77.2125 155.507 77.2125C155.156 77.2125 154.839 77.139 154.555 76.992C154.276 76.845 154.037 76.6388 153.84 76.3735C153.643 76.1081 153.492 75.7961 153.388 75.4376C153.284 75.0754 153.232 74.6828 153.232 74.2597ZM154.528 74.1467V74.2597C154.528 74.525 154.552 74.7724 154.598 75.0019C154.649 75.2314 154.726 75.434 154.83 75.6097C154.934 75.7818 155.068 75.9181 155.233 76.0185C155.402 76.1153 155.602 76.1637 155.835 76.1637C156.129 76.1637 156.371 76.0991 156.562 75.9701C156.752 75.841 156.9 75.6671 157.008 75.4483C157.119 75.226 157.194 74.9786 157.234 74.7061V73.7325C157.212 73.521 157.168 73.3238 157.099 73.1409C157.035 72.958 156.947 72.7985 156.836 72.6622C156.725 72.5224 156.587 72.4148 156.422 72.3395C156.26 72.2606 156.068 72.2212 155.846 72.2212C155.61 72.2212 155.409 72.2714 155.244 72.3718C155.079 72.4722 154.943 72.6102 154.835 72.7859C154.731 72.9616 154.654 73.166 154.604 73.3991C154.553 73.6321 154.528 73.8814 154.528 74.1467ZM165.924 72.404V79.3425H164.627V71.2853H165.821L165.924 72.404ZM169.716 74.1413V74.2543C169.716 74.6774 169.665 75.07 169.565 75.4322C169.468 75.7908 169.323 76.1045 169.129 76.3735C168.939 76.6388 168.704 76.845 168.425 76.992C168.145 77.139 167.822 77.2125 167.456 77.2125C167.094 77.2125 166.777 77.1462 166.504 77.0135C166.236 76.8773 166.008 76.6854 165.821 76.438C165.635 76.1906 165.484 75.9001 165.37 75.5667C165.258 75.2296 165.18 74.8603 165.133 74.4587V74.023C165.18 73.5963 165.258 73.209 165.37 72.8612C165.484 72.5134 165.635 72.214 165.821 71.963C166.008 71.712 166.236 71.5183 166.504 71.3821C166.773 71.2458 167.087 71.1777 167.446 71.1777C167.811 71.1777 168.136 71.2494 168.419 71.3928C168.703 71.5327 168.941 71.7335 169.135 71.9953C169.328 72.2534 169.473 72.5654 169.57 72.9311C169.667 73.2933 169.716 73.6967 169.716 74.1413ZM168.419 74.2543V74.1413C168.419 73.8724 168.394 73.6232 168.344 73.3937C168.294 73.1606 168.215 72.9562 168.107 72.7805C168 72.6048 167.862 72.4686 167.693 72.3718C167.528 72.2714 167.329 72.2212 167.096 72.2212C166.867 72.2212 166.669 72.2606 166.504 72.3395C166.34 72.4148 166.201 72.5206 166.09 72.6568C165.979 72.7931 165.893 72.9526 165.832 73.1355C165.771 73.3148 165.728 73.5102 165.703 73.7218V74.7652C165.746 75.0234 165.82 75.2601 165.924 75.4752C166.028 75.6904 166.175 75.8625 166.365 75.9916C166.558 76.1171 166.806 76.1798 167.107 76.1798C167.34 76.1798 167.539 76.1296 167.704 76.0292C167.869 75.9288 168.003 75.7908 168.107 75.6151C168.215 75.4358 168.294 75.2296 168.344 74.9965C168.394 74.7635 168.419 74.516 168.419 74.2543ZM173.2 68.8434V77.1049H171.909V68.8434H173.2ZM172.974 73.98L172.554 73.9746C172.558 73.573 172.614 73.2019 172.721 72.8612C172.832 72.5206 172.986 72.2247 173.184 71.9737C173.384 71.7191 173.625 71.5237 173.904 71.3875C174.184 71.2476 174.494 71.1777 174.835 71.1777C175.122 71.1777 175.38 71.2171 175.609 71.296C175.842 71.3749 176.043 71.5022 176.212 71.6779C176.38 71.85 176.508 72.0759 176.594 72.3556C176.683 72.6317 176.728 72.9688 176.728 73.3668V77.1049H175.427V73.356C175.427 73.0764 175.385 72.854 175.303 72.6891C175.224 72.5241 175.107 72.4058 174.953 72.3341C174.799 72.2588 174.611 72.2212 174.388 72.2212C174.155 72.2212 173.949 72.2678 173.77 72.361C173.594 72.4542 173.447 72.5815 173.329 72.7429C173.211 72.9042 173.121 73.0907 173.06 73.3023C173.003 73.5138 172.974 73.7397 172.974 73.98ZM180.444 72.3933V77.1049H179.147V71.2853H180.385L180.444 72.3933ZM182.224 71.2476L182.213 72.4524C182.134 72.4381 182.048 72.4273 181.955 72.4202C181.865 72.413 181.776 72.4094 181.686 72.4094C181.464 72.4094 181.268 72.4417 181.1 72.5062C180.931 72.5672 180.79 72.6568 180.675 72.7752C180.564 72.8899 180.478 73.0297 180.417 73.1947C180.356 73.3596 180.32 73.5443 180.309 73.7487L180.013 73.7702C180.013 73.4045 180.049 73.0656 180.121 72.7536C180.193 72.4417 180.3 72.1674 180.444 71.9307C180.591 71.694 180.774 71.5094 180.992 71.3767C181.215 71.244 181.471 71.1777 181.761 71.1777C181.84 71.1777 181.925 71.1849 182.014 71.1992C182.108 71.2136 182.177 71.2297 182.224 71.2476ZM187.225 75.9378V73.1624C187.225 72.9544 187.187 72.7752 187.112 72.6246C187.037 72.4739 186.922 72.3574 186.768 72.2749C186.617 72.1925 186.427 72.1512 186.198 72.1512C185.986 72.1512 185.803 72.1871 185.649 72.2588C185.495 72.3305 185.375 72.4273 185.289 72.5492C185.203 72.6712 185.16 72.8092 185.16 72.9634H183.869C183.869 72.7339 183.924 72.5116 184.036 72.2965C184.147 72.0813 184.308 71.8895 184.52 71.7209C184.731 71.5524 184.984 71.4197 185.278 71.3229C185.572 71.2261 185.902 71.1777 186.268 71.1777C186.705 71.1777 187.092 71.2512 187.429 71.3982C187.77 71.5452 188.037 71.7676 188.231 72.0652C188.428 72.3592 188.527 72.7285 188.527 73.1732V75.7603C188.527 76.0256 188.545 76.2641 188.581 76.4757C188.62 76.6836 188.676 76.8647 188.747 77.0189V77.1049H187.419C187.358 76.9651 187.309 76.7876 187.273 76.5725C187.241 76.3537 187.225 76.1422 187.225 75.9378ZM187.413 73.5658L187.424 74.3672H186.494C186.253 74.3672 186.042 74.3905 185.859 74.4371C185.676 74.4802 185.524 74.5447 185.402 74.6308C185.28 74.7168 185.188 74.8208 185.127 74.9427C185.066 75.0647 185.036 75.2027 185.036 75.3569C185.036 75.5111 185.072 75.6527 185.144 75.7818C185.215 75.9073 185.319 76.0059 185.456 76.0776C185.595 76.1493 185.764 76.1852 185.961 76.1852C186.226 76.1852 186.458 76.1314 186.655 76.0238C186.856 75.9127 187.014 75.7782 187.128 75.6204C187.243 75.4591 187.304 75.3067 187.311 75.1633L187.731 75.7388C187.688 75.8858 187.614 76.0436 187.51 76.2121C187.406 76.3806 187.27 76.542 187.101 76.6962C186.936 76.8468 186.737 76.9705 186.504 77.0673C186.275 77.1641 186.01 77.2125 185.708 77.2125C185.328 77.2125 184.989 77.1372 184.692 76.9866C184.394 76.8324 184.161 76.6263 183.993 76.3681C183.824 76.1063 183.74 75.8105 183.74 75.4806C183.74 75.1722 183.797 74.8997 183.912 74.6631C184.03 74.4228 184.202 74.222 184.428 74.0606C184.658 73.8993 184.937 73.7774 185.267 73.6949C185.597 73.6088 185.974 73.5658 186.397 73.5658H187.413ZM194.249 75.529C194.249 75.3999 194.216 75.2834 194.152 75.1794C194.087 75.0718 193.963 74.975 193.781 74.889C193.601 74.8029 193.336 74.724 192.985 74.6523C192.676 74.5842 192.393 74.5035 192.135 74.4103C191.88 74.3134 191.661 74.1969 191.479 74.0606C191.296 73.9244 191.154 73.763 191.054 73.5766C190.953 73.3901 190.903 73.175 190.903 72.9311C190.903 72.6945 190.955 72.4704 191.059 72.2588C191.163 72.0472 191.312 71.8608 191.505 71.6994C191.699 71.5381 191.934 71.4108 192.21 71.3175C192.49 71.2243 192.802 71.1777 193.146 71.1777C193.634 71.1777 194.051 71.2602 194.399 71.4251C194.751 71.5865 195.019 71.807 195.206 72.0867C195.392 72.3628 195.486 72.6748 195.486 73.0226H194.189C194.189 72.8684 194.15 72.725 194.071 72.5923C193.996 72.456 193.881 72.3467 193.727 72.2642C193.573 72.1781 193.379 72.1351 193.146 72.1351C192.924 72.1351 192.739 72.171 192.592 72.2427C192.448 72.3108 192.341 72.4004 192.269 72.5116C192.201 72.6228 192.167 72.7447 192.167 72.8773C192.167 72.9742 192.185 73.062 192.221 73.1409C192.26 73.2162 192.325 73.2861 192.414 73.3507C192.504 73.4116 192.626 73.469 192.78 73.5228C192.938 73.5766 193.135 73.6286 193.372 73.6788C193.816 73.772 194.198 73.8921 194.517 74.0391C194.84 74.1826 195.088 74.369 195.26 74.5985C195.432 74.8244 195.518 75.1113 195.518 75.4591C195.518 75.7173 195.462 75.9539 195.351 76.1691C195.244 76.3806 195.086 76.5653 194.878 76.7231C194.67 76.8773 194.421 76.9974 194.13 77.0834C193.843 77.1695 193.521 77.2125 193.162 77.2125C192.635 77.2125 192.188 77.1193 191.823 76.9328C191.457 76.7428 191.179 76.5008 190.989 76.2067C190.803 75.9091 190.709 75.6007 190.709 75.2816H191.963C191.977 75.5218 192.043 75.7137 192.162 75.8571C192.284 75.997 192.434 76.0991 192.613 76.1637C192.796 76.2246 192.985 76.2551 193.178 76.2551C193.411 76.2551 193.607 76.2246 193.764 76.1637C193.922 76.0991 194.042 76.0131 194.125 75.9055C194.207 75.7944 194.249 75.6689 194.249 75.529ZM200.32 77.2125C199.89 77.2125 199.501 77.1426 199.153 77.0028C198.809 76.8593 198.514 76.6603 198.271 76.4057C198.03 76.1511 197.846 75.8517 197.717 75.5075C197.588 75.1633 197.523 74.7921 197.523 74.3941V74.179C197.523 73.7236 197.589 73.3112 197.722 72.9419C197.855 72.5726 198.039 72.257 198.276 71.9953C198.513 71.7299 198.792 71.5273 199.115 71.3875C199.438 71.2476 199.787 71.1777 200.164 71.1777C200.58 71.1777 200.944 71.2476 201.256 71.3875C201.568 71.5273 201.826 71.7245 202.03 71.9791C202.238 72.2301 202.392 72.5295 202.493 72.8773C202.597 73.2252 202.649 73.6088 202.649 74.0284V74.5824H198.152V73.6519H201.369V73.5497C201.362 73.3166 201.315 73.0979 201.229 72.8935C201.146 72.6891 201.019 72.5241 200.847 72.3986C200.675 72.2731 200.445 72.2104 200.159 72.2104C199.943 72.2104 199.752 72.257 199.583 72.3502C199.418 72.4399 199.28 72.5708 199.169 72.7429C199.058 72.915 198.972 73.123 198.911 73.3668C198.853 73.607 198.825 73.8778 198.825 74.179V74.3941C198.825 74.6487 198.859 74.8854 198.927 75.1041C198.999 75.3192 199.103 75.5075 199.239 75.6689C199.375 75.8302 199.54 75.9575 199.734 76.0507C199.927 76.1404 200.148 76.1852 200.395 76.1852C200.707 76.1852 200.985 76.1225 201.229 75.997C201.473 75.8715 201.684 75.694 201.864 75.4645L202.547 76.126C202.421 76.3089 202.258 76.4846 202.057 76.6531C201.856 76.8181 201.611 76.9526 201.32 77.0565C201.033 77.1605 200.7 77.2125 200.32 77.2125Z" fill="white"/>
<path d="M134.32 91.6939C134.366 91.6495 134.403 91.5963 134.428 91.5375C134.453 91.4787 134.467 91.4155 134.467 91.3515C134.468 91.2875 134.456 91.2241 134.432 91.1649C134.407 91.1056 134.372 91.0518 134.326 91.0065C134.281 90.9613 134.227 90.9255 134.168 90.9012C134.109 90.8769 134.046 90.8647 133.982 90.8652C133.918 90.8658 133.854 90.879 133.796 90.9043C133.737 90.9295 133.684 90.9662 133.639 91.0122L131.708 92.943L129.777 91.0122C129.733 90.9648 129.68 90.9269 129.62 90.9005C129.561 90.8742 129.497 90.86 129.433 90.8589C129.368 90.8577 129.304 90.8696 129.244 90.8939C129.184 90.9181 129.129 90.9542 129.084 90.9999C129.038 91.0457 129.002 91.1002 128.977 91.1602C128.953 91.2202 128.941 91.2845 128.942 91.3492C128.944 91.4139 128.958 91.4777 128.984 91.5368C129.01 91.5959 129.048 91.6491 129.096 91.6933L131.025 93.6247L129.094 95.5555C129.009 95.6468 128.963 95.7676 128.965 95.8925C128.967 96.0173 129.018 96.1364 129.106 96.2247C129.195 96.313 129.314 96.3636 129.439 96.3658C129.563 96.368 129.684 96.3217 129.776 96.2365L131.708 94.3058L133.638 96.2372C133.73 96.3223 133.851 96.3686 133.975 96.3664C134.1 96.3642 134.219 96.3137 134.308 96.2254C134.396 96.1371 134.447 96.018 134.449 95.8931C134.451 95.7683 134.405 95.6475 134.319 95.5561L132.39 93.6247L134.32 91.6939Z" fill="white"/>
<rect x="126.61" y="88.518" width="10.1893" height="10.1893" rx="3.44232" stroke="white" stroke-width="0.826158"/>
<path d="M200.606 93.6127L202.92 95.5404L206.004 91.685" stroke="white" stroke-width="1.10154" stroke-linecap="round"/>
<rect x="198.211" y="88.518" width="10.1893" height="10.1893" rx="3.44232" stroke="white" stroke-width="0.826158"/>
</g>
<defs>
<filter id="filter0_dd_2637_46102" x="-1.03087" y="0.88914" width="335.8" height="139.409" filterUnits="userSpaceOnUse" color-interpolation-filters="sRGB">
<feFlood flood-opacity="0" result="BackgroundImageFix"/>
<feColorMatrix in="SourceAlpha" type="matrix" values="0 0 0 0 0 0 0 0 0 0 0 0 0 0 0 0 0 0 127 0" result="hardAlpha"/>
<feOffset dx="2.75386" dy="2.20309"/>
<feGaussianBlur stdDeviation="5.50772"/>
<feComposite in2="hardAlpha" operator="out"/>
<feColorMatrix type="matrix" values="0 0 0 0 0 0 0 0 0 0 0 0 0 0 0 0 0 0 0.41 0"/>
<feBlend mode="normal" in2="BackgroundImageFix" result="effect1_dropShadow_2637_46102"/>
<feColorMatrix in="SourceAlpha" type="matrix" values="0 0 0 0 0 0 0 0 0 0 0 0 0 0 0 0 0 0 127 0" result="hardAlpha"/>
<feOffset dx="-5.50772" dy="-5.50772"/>
<feGaussianBlur stdDeviation="8.26158"/>
<feComposite in2="hardAlpha" operator="out"/>
<feColorMatrix type="matrix" values="0 0 0 0 0.0916667 0 0 0 0 0.0758333 0 0 0 0 0.0626389 0 0 0 1 0"/>
<feBlend mode="normal" in2="effect1_dropShadow_2637_46102" result="effect2_dropShadow_2637_46102"/>
<feBlend mode="normal" in="SourceGraphic" in2="effect2_dropShadow_2637_46102" result="shape"/>
</filter>
</defs>
</svg>
