<svg width="335" height="140" viewBox="0 0 335 140" fill="none" xmlns="http://www.w3.org/2000/svg">
<g filter="url(#filter0_dd_2637_44407)">
<path d="M53.1695 70.943H22.1016V81.466H53.1695V70.943Z" fill="#433E39"/>
<g style="mix-blend-mode:multiply">
<path d="M53.1337 70.8436H46.2236V81.3115H53.1337V70.8436Z" fill="#535762"/>
</g>
<path d="M98.5088 67.1205H71.084C69.8607 67.1205 68.8691 68.1121 68.8691 69.3353V82.8148C68.8691 84.038 69.8607 85.0296 71.084 85.0296H98.5088C99.7321 85.0296 100.724 84.038 100.724 82.8148V69.3353C100.724 68.1121 99.7321 67.1205 98.5088 67.1205Z" fill="#776E67"/>
<g style="mix-blend-mode:multiply">
<path d="M86.4676 67.1205H71.084C69.8607 67.1205 68.8691 68.1121 68.8691 69.3353V82.8148C68.8691 84.038 69.8607 85.0296 71.084 85.0296H86.4676C87.6908 85.0296 88.6824 84.038 88.6824 82.8148V69.3353C88.6824 68.1121 87.6908 67.1205 86.4676 67.1205Z" fill="#535762"/>
</g>
<path d="M80.8952 61.9183H54.1567C50.8357 61.9183 48.1436 64.6105 48.1436 67.9314V84.222C48.1436 87.543 50.8357 90.2352 54.1567 90.2352H80.8952C84.2161 90.2352 86.9083 87.543 86.9083 84.222V67.9314C86.9083 64.6105 84.2161 61.9183 80.8952 61.9183Z" fill="#433E39"/>
<path fill-rule="evenodd" clip-rule="evenodd" d="M142.03 22.4201L254.262 22.4201C258.803 22.4201 263.214 22.9537 267.43 23.9589C291.387 28.495 309.505 49.5406 309.505 74.8169C309.505 75.5741 309.488 76.3275 309.456 77.0768H310.351C311.805 77.0768 312.987 75.8943 312.987 74.4411C312.987 72.9879 311.805 71.8053 310.351 71.8053H309.444C309.274 68.1473 308.748 64.5846 307.891 61.1521C308.663 63.1865 310.351 63.7878 310.351 63.7878L310.346 63.7928C316.229 63.7928 321 68.5632 321 74.4461C321 80.329 316.229 85.0994 310.346 85.0994C310.346 85.0994 308.627 85.7071 307.868 87.7795C307.787 88.0929 307.704 88.4051 307.617 88.7162C307.606 88.7806 307.595 88.8461 307.585 88.9127L307.565 88.9011C301.431 110.644 281.447 126.58 257.742 126.58L140.451 126.58C123.781 126.58 108.954 118.697 99.4876 106.457C93.9195 99.7338 90.0574 91.6593 88.5264 82.8315V65.7353C92.7888 41.1589 115.118 22.4201 142.03 22.4201Z" fill="#34302D"/>
<path d="M254.439 50.9006C267.628 50.9006 278.361 61.629 278.361 74.8228C278.361 88.0166 267.633 98.7451 254.439 98.7451C241.245 98.7451 230.517 88.0166 230.517 74.8228C230.517 61.629 241.245 50.9006 254.439 50.9006ZM254.439 42.883C236.8 42.883 222.499 57.1843 222.499 74.8228C222.499 92.4613 236.8 106.763 254.439 106.763C272.077 106.763 286.379 92.4613 286.379 74.8228C286.379 57.1843 272.077 42.883 254.439 42.883Z" fill="#1D1915"/>
<path d="M254.438 98.7394C267.65 98.7394 278.36 88.029 278.36 74.8171C278.36 61.6052 267.65 50.8949 254.438 50.8949C241.226 50.8949 230.516 61.6052 230.516 74.8171C230.516 88.029 241.226 98.7394 254.438 98.7394Z" fill="#34302D"/>
<path d="M133.85 54.2737H135.054L137.319 60.3139L139.578 54.2737H140.783L137.792 62.105H136.835L133.85 54.2737ZM133.301 54.2737H134.447L134.646 59.5017V62.105H133.301V54.2737ZM140.186 54.2737H141.337V62.105H139.987V59.5017L140.186 54.2737ZM144.638 54.2737L146.456 58.0118L148.274 54.2737H149.769L147.134 59.222V62.105H145.773V59.222L143.137 54.2737H144.638ZM157.534 60.3462L159.094 54.2737H159.911L159.82 55.8389L158.152 62.105H157.303L157.534 60.3462ZM156.367 54.2737L157.631 60.2977L157.744 62.105H156.84L155.027 54.2737H156.367ZM161.681 60.2816L162.929 54.2737H164.273L162.461 62.105H161.557L161.681 60.2816ZM160.228 54.2737L161.772 60.3623L161.998 62.105H161.148L159.508 55.8389L159.422 54.2737H160.228ZM169.188 55.3171L166.849 62.105H165.434L168.381 54.2737H169.285L169.188 55.3171ZM171.146 62.105L168.801 55.3171L168.699 54.2737H169.608L172.566 62.105H171.146ZM171.033 59.2005V60.2709H166.773V59.2005H171.033ZM179.45 61.0346V62.105H175.518V61.0346H179.45ZM175.894 54.2737V62.105H174.544V54.2737H175.894ZM186.5 61.0346V62.105H182.568V61.0346H186.5ZM182.945 54.2737V62.105H181.595V54.2737H182.945ZM193.771 61.0346V62.105H189.613V61.0346H193.771ZM189.995 54.2737V62.105H188.645V54.2737H189.995ZM193.227 57.5439V58.5981H189.613V57.5439H193.227ZM193.744 54.2737V55.3494H189.613V54.2737H193.744ZM199.304 54.2737V62.105H197.965V54.2737H199.304ZM201.762 54.2737V55.3494L195.528 55.3494V54.2737L201.762 54.2737Z" fill="white"/>
<path d="M134.32 92.6939C134.366 92.6495 134.403 92.5963 134.428 92.5375C134.453 92.4788 134.467 92.4155 134.467 92.3515C134.468 92.2876 134.456 92.2241 134.432 92.1649C134.407 92.1056 134.372 92.0518 134.326 92.0065C134.281 91.9613 134.227 91.9255 134.168 91.9012C134.109 91.877 134.046 91.8647 133.982 91.8653C133.918 91.8658 133.854 91.879 133.796 91.9043C133.737 91.9295 133.684 91.9662 133.639 92.0122L131.708 93.943L129.777 92.0122C129.733 91.9648 129.68 91.9269 129.62 91.9005C129.561 91.8742 129.497 91.86 129.433 91.8589C129.368 91.8578 129.304 91.8697 129.244 91.8939C129.184 91.9181 129.129 91.9542 129.084 92C129.038 92.0457 129.002 92.1002 128.977 92.1602C128.953 92.2202 128.941 92.2845 128.942 92.3492C128.944 92.4139 128.958 92.4777 128.984 92.5368C129.01 92.596 129.048 92.6492 129.096 92.6933L131.025 94.6247L129.094 96.5555C129.009 96.6468 128.963 96.7677 128.965 96.8925C128.967 97.0173 129.018 97.1365 129.106 97.2248C129.195 97.313 129.314 97.3636 129.439 97.3658C129.563 97.368 129.684 97.3217 129.776 97.2366L131.708 95.3058L133.638 97.2372C133.73 97.3223 133.851 97.3687 133.975 97.3665C134.1 97.3643 134.219 97.3137 134.308 97.2254C134.396 97.1371 134.447 97.018 134.449 96.8931C134.451 96.7683 134.405 96.6475 134.319 96.5561L132.39 94.6247L134.32 92.6939Z" fill="white"/>
<rect x="126.61" y="89.518" width="10.1893" height="10.1893" rx="3.44232" stroke="white" stroke-width="0.826158"/>
<path d="M200.606 94.6127L202.92 96.5404L206.004 92.685" stroke="white" stroke-width="1.10154" stroke-linecap="round"/>
<rect x="198.211" y="89.518" width="10.1893" height="10.1893" rx="3.44232" stroke="white" stroke-width="0.826158"/>
</g>
<defs>
<filter id="filter0_dd_2637_44407" x="-1.03087" y="0.38914" width="335.8" height="139.409" filterUnits="userSpaceOnUse" color-interpolation-filters="sRGB">
<feFlood flood-opacity="0" result="BackgroundImageFix"/>
<feColorMatrix in="SourceAlpha" type="matrix" values="0 0 0 0 0 0 0 0 0 0 0 0 0 0 0 0 0 0 127 0" result="hardAlpha"/>
<feOffset dx="2.75386" dy="2.20309"/>
<feGaussianBlur stdDeviation="5.50772"/>
<feComposite in2="hardAlpha" operator="out"/>
<feColorMatrix type="matrix" values="0 0 0 0 0 0 0 0 0 0 0 0 0 0 0 0 0 0 0.41 0"/>
<feBlend mode="normal" in2="BackgroundImageFix" result="effect1_dropShadow_2637_44407"/>
<feColorMatrix in="SourceAlpha" type="matrix" values="0 0 0 0 0 0 0 0 0 0 0 0 0 0 0 0 0 0 127 0" result="hardAlpha"/>
<feOffset dx="-5.50772" dy="-5.50772"/>
<feGaussianBlur stdDeviation="8.26158"/>
<feComposite in2="hardAlpha" operator="out"/>
<feColorMatrix type="matrix" values="0 0 0 0 0.0916667 0 0 0 0 0.0758333 0 0 0 0 0.0626389 0 0 0 1 0"/>
<feBlend mode="normal" in2="effect1_dropShadow_2637_44407" result="effect2_dropShadow_2637_44407"/>
<feBlend mode="normal" in="SourceGraphic" in2="effect2_dropShadow_2637_44407" result="shape"/>
</filter>
</defs>
</svg>
