<svg width="335" height="140" viewBox="0 0 335 140" fill="none" xmlns="http://www.w3.org/2000/svg">
<g filter="url(#filter0_dd_2637_47420)">
<path d="M53.1695 70.943H22.1016V81.466H53.1695V70.943Z" fill="#433E39"/>
<g style="mix-blend-mode:multiply">
<path d="M53.1337 70.8436H46.2236V81.3115H53.1337V70.8436Z" fill="#535762"/>
</g>
<path d="M98.5084 67.1205H71.0835C69.8603 67.1205 68.8687 68.1121 68.8687 69.3353V82.8148C68.8687 84.038 69.8603 85.0296 71.0835 85.0296H98.5084C99.7316 85.0296 100.723 84.038 100.723 82.8148V69.3353C100.723 68.1121 99.7316 67.1205 98.5084 67.1205Z" fill="#776E67"/>
<g style="mix-blend-mode:multiply">
<path d="M86.4671 67.1205H71.0835C69.8603 67.1205 68.8687 68.1121 68.8687 69.3353V82.8148C68.8687 84.038 69.8603 85.0296 71.0835 85.0296H86.4671C87.6903 85.0296 88.6819 84.038 88.6819 82.8148V69.3353C88.6819 68.1121 87.6903 67.1205 86.4671 67.1205Z" fill="#535762"/>
</g>
<path d="M80.8952 61.9183H54.1567C50.8357 61.9183 48.1436 64.6105 48.1436 67.9314V84.222C48.1436 87.543 50.8357 90.2352 54.1567 90.2352H80.8952C84.2161 90.2352 86.9083 87.543 86.9083 84.222V67.9314C86.9083 64.6105 84.2161 61.9183 80.8952 61.9183Z" fill="#433E39"/>
<path fill-rule="evenodd" clip-rule="evenodd" d="M142.031 22.4201L254.262 22.4201C258.803 22.4201 263.214 22.9537 267.43 23.9589C291.387 28.495 309.505 49.5406 309.505 74.8169C309.505 75.5741 309.489 76.3275 309.457 77.0768H310.352C311.805 77.0768 312.988 75.8943 312.988 74.4411C312.988 72.9879 311.805 71.8053 310.352 71.8053H309.445C309.275 68.1473 308.748 64.5846 307.892 61.1521C308.663 63.1865 310.352 63.7878 310.352 63.7878L310.347 63.7928C316.23 63.7928 321 68.5632 321 74.4461C321 80.3289 316.23 85.0994 310.347 85.0994C310.347 85.0994 308.628 85.7071 307.869 87.7795C307.788 88.0929 307.704 88.4051 307.618 88.7162C307.606 88.7806 307.596 88.8461 307.586 88.9127L307.566 88.9011C301.432 110.644 281.448 126.58 257.742 126.58L140.451 126.58C123.782 126.58 108.954 118.697 99.4881 106.457C93.92 99.7338 90.0579 91.6592 88.5269 82.8315V65.7353C92.7893 41.1589 115.118 22.4201 142.031 22.4201Z" fill="#34302D"/>
<path d="M254.439 50.9005C267.628 50.9005 278.361 61.629 278.361 74.8228C278.361 88.0166 267.633 98.745 254.439 98.745C241.245 98.745 230.517 88.0166 230.517 74.8228C230.517 61.629 241.245 50.9005 254.439 50.9005ZM254.439 42.883C236.8 42.883 222.499 57.1843 222.499 74.8228C222.499 92.4613 236.8 106.763 254.439 106.763C272.077 106.763 286.379 92.4613 286.379 74.8228C286.379 57.1843 272.077 42.883 254.439 42.883Z" fill="#1D1915"/>
<path d="M254.438 98.7394C267.65 98.7394 278.361 88.029 278.361 74.8171C278.361 61.6052 267.65 50.8948 254.438 50.8948C241.226 50.8948 230.516 61.6052 230.516 74.8171C230.516 88.029 241.226 98.7394 254.438 98.7394Z" fill="#34302D"/>
<path d="M155.776 59.1844H153.738V58.114H155.776C156.131 58.114 156.418 58.0566 156.637 57.9419C156.856 57.8271 157.015 57.6694 157.116 57.4686C157.22 57.2642 157.272 57.0311 157.272 56.7693C157.272 56.5219 157.22 56.2906 157.116 56.0755C157.015 55.8568 156.856 55.6811 156.637 55.5484C156.418 55.4157 156.131 55.3494 155.776 55.3494H154.152V62.1049H152.802V54.2737H155.776C156.382 54.2737 156.897 54.3812 157.32 54.5964C157.747 54.8079 158.071 55.102 158.293 55.4785C158.516 55.8514 158.627 56.2781 158.627 56.7586C158.627 57.2642 158.516 57.6981 158.293 58.0602C158.071 58.4224 157.747 58.7003 157.32 58.8939C156.897 59.0875 156.382 59.1844 155.776 59.1844ZM162.38 54.2737V62.1049H161.03V54.2737H162.38ZM171.372 54.2737V62.1049H170.022L166.51 56.495V62.1049H165.16V54.2737H166.51L170.033 59.8943V54.2737H171.372ZM180.223 59.7975H179.024C179.027 59.464 179.056 59.1844 179.11 58.9585C179.164 58.729 179.253 58.521 179.379 58.3345C179.508 58.1481 179.678 57.9509 179.89 57.7429C180.055 57.5851 180.204 57.4363 180.336 57.2965C180.469 57.153 180.575 57.0024 180.654 56.8446C180.732 56.6833 180.772 56.4986 180.772 56.2906C180.772 56.0647 180.734 55.8729 180.659 55.7151C180.584 55.5574 180.472 55.4372 180.325 55.3548C180.182 55.2723 180.003 55.2311 179.788 55.2311C179.608 55.2311 179.44 55.2669 179.282 55.3386C179.124 55.4068 178.997 55.5143 178.9 55.6614C178.803 55.8048 178.751 55.9948 178.744 56.2315H177.448C177.455 55.7797 177.563 55.3996 177.771 55.0912C177.979 54.7828 178.258 54.5516 178.61 54.3974C178.961 54.2432 179.354 54.1661 179.788 54.1661C180.268 54.1661 180.679 54.2486 181.019 54.4135C181.36 54.5749 181.62 54.8115 181.799 55.1235C181.982 55.4319 182.073 55.8048 182.073 56.2422C182.073 56.5578 182.011 56.8446 181.885 57.1028C181.76 57.3574 181.597 57.5959 181.396 57.8182C181.195 58.0369 180.978 58.2556 180.745 58.4744C180.544 58.6572 180.408 58.8563 180.336 59.0714C180.264 59.283 180.227 59.525 180.223 59.7975ZM178.916 61.4757C178.916 61.282 178.983 61.1189 179.115 60.9862C179.248 60.8499 179.429 60.7818 179.658 60.7818C179.888 60.7818 180.069 60.8499 180.202 60.9862C180.334 61.1189 180.401 61.282 180.401 61.4757C180.401 61.6693 180.334 61.8342 180.202 61.9705C180.069 62.1032 179.888 62.1695 179.658 62.1695C179.429 62.1695 179.248 62.1032 179.115 61.9705C178.983 61.8342 178.916 61.6693 178.916 61.4757Z" fill="white"/>
<path d="M134.321 92.6939C134.367 92.6495 134.403 92.5963 134.429 92.5375C134.454 92.4788 134.467 92.4155 134.468 92.3515C134.468 92.2876 134.456 92.2241 134.432 92.1649C134.408 92.1056 134.372 92.0518 134.327 92.0065C134.282 91.9613 134.228 91.9255 134.169 91.9012C134.109 91.8769 134.046 91.8647 133.982 91.8653C133.918 91.8658 133.855 91.879 133.796 91.9043C133.737 91.9295 133.684 91.9662 133.64 92.0122L131.708 93.943L129.777 92.0122C129.733 91.9648 129.68 91.9269 129.621 91.9005C129.562 91.8742 129.498 91.86 129.433 91.8589C129.369 91.8577 129.304 91.8696 129.244 91.8939C129.184 91.9181 129.13 91.9542 129.084 92C129.038 92.0457 129.002 92.1002 128.978 92.1602C128.954 92.2202 128.942 92.2845 128.943 92.3492C128.944 92.4139 128.958 92.4777 128.985 92.5368C129.011 92.5959 129.049 92.6491 129.096 92.6933L131.026 94.6247L129.095 96.5555C129.01 96.6468 128.963 96.7677 128.966 96.8925C128.968 97.0173 129.018 97.1365 129.107 97.2247C129.195 97.313 129.314 97.3636 129.439 97.3658C129.564 97.368 129.685 97.3217 129.776 97.2366L131.708 95.3058L133.639 97.2372C133.73 97.3223 133.851 97.3687 133.976 97.3665C134.101 97.3643 134.22 97.3137 134.308 97.2254C134.396 97.1371 134.447 97.018 134.449 96.8931C134.451 96.7683 134.405 96.6475 134.32 96.5561L132.39 94.6247L134.321 92.6939Z" fill="white"/>
<rect x="126.611" y="89.518" width="10.1893" height="10.1893" rx="3.44232" stroke="white" stroke-width="0.826158"/>
<path d="M200.607 94.6127L202.92 96.5404L206.004 92.685" stroke="white" stroke-width="1.10154" stroke-linecap="round"/>
<rect x="198.211" y="89.518" width="10.1893" height="10.1893" rx="3.44232" stroke="white" stroke-width="0.826158"/>
</g>
<defs>
<filter id="filter0_dd_2637_47420" x="-1.03087" y="0.38914" width="335.8" height="139.409" filterUnits="userSpaceOnUse" color-interpolation-filters="sRGB">
<feFlood flood-opacity="0" result="BackgroundImageFix"/>
<feColorMatrix in="SourceAlpha" type="matrix" values="0 0 0 0 0 0 0 0 0 0 0 0 0 0 0 0 0 0 127 0" result="hardAlpha"/>
<feOffset dx="2.75386" dy="2.20309"/>
<feGaussianBlur stdDeviation="5.50772"/>
<feComposite in2="hardAlpha" operator="out"/>
<feColorMatrix type="matrix" values="0 0 0 0 0 0 0 0 0 0 0 0 0 0 0 0 0 0 0.41 0"/>
<feBlend mode="normal" in2="BackgroundImageFix" result="effect1_dropShadow_2637_47420"/>
<feColorMatrix in="SourceAlpha" type="matrix" values="0 0 0 0 0 0 0 0 0 0 0 0 0 0 0 0 0 0 127 0" result="hardAlpha"/>
<feOffset dx="-5.50772" dy="-5.50772"/>
<feGaussianBlur stdDeviation="8.26158"/>
<feComposite in2="hardAlpha" operator="out"/>
<feColorMatrix type="matrix" values="0 0 0 0 0.0916667 0 0 0 0 0.0758333 0 0 0 0 0.0626389 0 0 0 1 0"/>
<feBlend mode="normal" in2="effect1_dropShadow_2637_47420" result="effect2_dropShadow_2637_47420"/>
<feBlend mode="normal" in="SourceGraphic" in2="effect2_dropShadow_2637_47420" result="shape"/>
</filter>
</defs>
</svg>
