<svg width="335" height="140" viewBox="0 0 335 140" fill="none" xmlns="http://www.w3.org/2000/svg">
<g filter="url(#filter0_dd_2631_46304)">
<path d="M53.1695 70.943H22.1016V81.466H53.1695V70.943Z" fill="#433E39"/>
<g style="mix-blend-mode:multiply">
<path d="M53.1337 70.8436H46.2236V81.3115H53.1337V70.8436Z" fill="#535762"/>
</g>
<path d="M98.5088 67.1205H71.084C69.8607 67.1205 68.8691 68.1121 68.8691 69.3353V82.8148C68.8691 84.038 69.8607 85.0296 71.084 85.0296H98.5088C99.7321 85.0296 100.724 84.038 100.724 82.8148V69.3353C100.724 68.1121 99.7321 67.1205 98.5088 67.1205Z" fill="#776E67"/>
<g style="mix-blend-mode:multiply">
<path d="M86.4676 67.1205H71.084C69.8607 67.1205 68.8691 68.1121 68.8691 69.3353V82.8148C68.8691 84.038 69.8607 85.0296 71.084 85.0296H86.4676C87.6908 85.0296 88.6824 84.038 88.6824 82.8148V69.3353C88.6824 68.1121 87.6908 67.1205 86.4676 67.1205Z" fill="#535762"/>
</g>
<path d="M80.8952 61.9183H54.1567C50.8357 61.9183 48.1436 64.6105 48.1436 67.9314V84.222C48.1436 87.543 50.8357 90.2352 54.1567 90.2352H80.8952C84.2161 90.2352 86.9083 87.543 86.9083 84.222V67.9314C86.9083 64.6105 84.2161 61.9183 80.8952 61.9183Z" fill="#433E39"/>
<path fill-rule="evenodd" clip-rule="evenodd" d="M142.03 22.4201L254.262 22.4201C258.803 22.4201 263.214 22.9537 267.43 23.9589C291.387 28.495 309.505 49.5406 309.505 74.8169C309.505 75.5741 309.488 76.3275 309.456 77.0768H310.351C311.805 77.0768 312.987 75.8943 312.987 74.4411C312.987 72.9879 311.805 71.8053 310.351 71.8053H309.444C309.274 68.1473 308.748 64.5846 307.891 61.1521C308.663 63.1865 310.351 63.7878 310.351 63.7878L310.346 63.7928C316.229 63.7928 321 68.5632 321 74.4461C321 80.3289 316.229 85.0994 310.346 85.0994C310.346 85.0994 308.627 85.7071 307.868 87.7795C307.787 88.0929 307.704 88.4051 307.617 88.7162C307.606 88.7806 307.595 88.8461 307.585 88.9127L307.565 88.9011C301.431 110.644 281.447 126.58 257.742 126.58L140.451 126.58C123.781 126.58 108.954 118.697 99.4876 106.457C93.9195 99.7338 90.0574 91.6592 88.5264 82.8315V65.7353C92.7888 41.1589 115.118 22.4201 142.03 22.4201Z" fill="#34302D"/>
<path d="M254.439 50.9005C267.628 50.9005 278.361 61.629 278.361 74.8228C278.361 88.0166 267.633 98.745 254.439 98.745C241.245 98.745 230.517 88.0166 230.517 74.8228C230.517 61.629 241.245 50.9005 254.439 50.9005ZM254.439 42.883C236.8 42.883 222.499 57.1843 222.499 74.8228C222.499 92.4613 236.8 106.763 254.439 106.763C272.077 106.763 286.379 92.4613 286.379 74.8228C286.379 57.1843 272.077 42.883 254.439 42.883Z" fill="#1D1915"/>
<path d="M254.438 98.7394C267.65 98.7394 278.36 88.029 278.36 74.8171C278.36 61.6052 267.65 50.8948 254.438 50.8948C241.226 50.8948 230.516 61.6052 230.516 74.8171C230.516 88.029 241.226 98.7394 254.438 98.7394Z" fill="#34302D"/>
<path d="M132.927 59.5555H134.271C134.228 60.0682 134.085 60.5254 133.841 60.927C133.597 61.325 133.255 61.6388 132.814 61.8683C132.373 62.0978 131.836 62.2125 131.205 62.2125C130.721 62.2125 130.286 62.1265 129.898 61.9543C129.511 61.7786 129.179 61.5312 128.903 61.2121C128.627 60.8894 128.416 60.5003 128.269 60.0449C128.125 59.5895 128.054 59.0804 128.054 58.5174V57.8666C128.054 57.3036 128.127 56.7944 128.274 56.3391C128.425 55.8837 128.64 55.4946 128.919 55.1719C129.199 54.8456 129.534 54.5964 129.925 54.4243C130.32 54.2521 130.763 54.1661 131.254 54.1661C131.878 54.1661 132.405 54.2808 132.835 54.5103C133.265 54.7398 133.599 55.0572 133.836 55.4623C134.076 55.8675 134.223 56.3319 134.277 56.8554H132.932C132.896 56.5183 132.817 56.2297 132.695 55.9894C132.577 55.7492 132.401 55.5663 132.168 55.4408C131.935 55.3117 131.63 55.2472 131.254 55.2472C130.945 55.2472 130.676 55.3046 130.447 55.4193C130.218 55.5341 130.026 55.7026 129.871 55.9249C129.717 56.1472 129.601 56.4215 129.522 56.7478C129.447 57.0706 129.409 57.4399 129.409 57.8558V58.5174C129.409 58.9118 129.443 59.2704 129.511 59.5931C129.583 59.9123 129.69 60.1866 129.834 60.4161C129.981 60.6455 130.167 60.823 130.393 60.9485C130.619 61.074 130.89 61.1368 131.205 61.1368C131.589 61.1368 131.899 61.0758 132.136 60.9539C132.376 60.832 132.557 60.6545 132.679 60.4214C132.805 60.1848 132.887 59.8961 132.927 59.5555ZM137.772 57.3933V62.1049H136.475V56.2853H137.712L137.772 57.3933ZM139.552 56.2476L139.541 57.4524C139.462 57.4381 139.376 57.4273 139.283 57.4202C139.193 57.413 139.104 57.4094 139.014 57.4094C138.792 57.4094 138.596 57.4417 138.428 57.5062C138.259 57.5672 138.118 57.6568 138.003 57.7752C137.892 57.8899 137.806 58.0297 137.745 58.1947C137.684 58.3596 137.648 58.5443 137.637 58.7487L137.341 58.7702C137.341 58.4045 137.377 58.0656 137.449 57.7536C137.521 57.4417 137.628 57.1674 137.772 56.9307C137.919 56.694 138.102 56.5094 138.32 56.3767C138.543 56.244 138.799 56.1777 139.089 56.1777C139.168 56.1777 139.253 56.1849 139.342 56.1992C139.435 56.2136 139.505 56.2297 139.552 56.2476ZM143.924 62.2125C143.493 62.2125 143.104 62.1426 142.757 62.0028C142.412 61.8593 142.118 61.6603 141.874 61.4057C141.634 61.1511 141.45 60.8517 141.32 60.5075C141.191 60.1633 141.127 59.7921 141.127 59.3941V59.179C141.127 58.7236 141.193 58.3112 141.326 57.9419C141.458 57.5726 141.643 57.257 141.88 56.9953C142.116 56.7299 142.396 56.5273 142.719 56.3875C143.042 56.2476 143.391 56.1777 143.768 56.1777C144.184 56.1777 144.548 56.2476 144.86 56.3875C145.172 56.5273 145.43 56.7245 145.634 56.9791C145.842 57.2301 145.996 57.5295 146.097 57.8773C146.201 58.2252 146.253 58.6088 146.253 59.0284V59.5824H141.756V58.6519H144.973V58.5497C144.965 58.3166 144.919 58.0979 144.833 57.8935C144.75 57.6891 144.623 57.5241 144.451 57.3986C144.279 57.2731 144.049 57.2104 143.762 57.2104C143.547 57.2104 143.355 57.257 143.187 57.3502C143.022 57.4399 142.884 57.5708 142.773 57.7429C142.662 57.915 142.575 58.123 142.514 58.3668C142.457 58.607 142.428 58.8778 142.428 59.179V59.3941C142.428 59.6487 142.462 59.8854 142.531 60.1041C142.602 60.3192 142.706 60.5075 142.843 60.6689C142.979 60.8302 143.144 60.9575 143.337 61.0507C143.531 61.1404 143.752 61.1852 143.999 61.1852C144.311 61.1852 144.589 61.1225 144.833 60.997C145.077 60.8715 145.288 60.694 145.467 60.4645L146.15 61.126C146.025 61.3089 145.862 61.4846 145.661 61.6531C145.46 61.8181 145.215 61.9526 144.924 62.0565C144.637 62.1605 144.304 62.2125 143.924 62.2125ZM151.646 60.9378V58.1624C151.646 57.9544 151.609 57.7752 151.533 57.6246C151.458 57.4739 151.343 57.3574 151.189 57.2749C151.039 57.1925 150.849 57.1512 150.619 57.1512C150.407 57.1512 150.225 57.1871 150.07 57.2588C149.916 57.3305 149.796 57.4273 149.71 57.5492C149.624 57.6712 149.581 57.8092 149.581 57.9634H148.29C148.29 57.7339 148.346 57.5116 148.457 57.2965C148.568 57.0813 148.729 56.8895 148.941 56.7209C149.152 56.5524 149.405 56.4197 149.699 56.3229C149.993 56.2261 150.323 56.1777 150.689 56.1777C151.126 56.1777 151.514 56.2512 151.851 56.3982C152.191 56.5452 152.459 56.7676 152.652 57.0652C152.849 57.3592 152.948 57.7285 152.948 58.1732V60.7603C152.948 61.0256 152.966 61.2641 153.002 61.4757C153.041 61.6836 153.097 61.8647 153.168 62.0189V62.1049H151.84C151.779 61.9651 151.731 61.7876 151.695 61.5725C151.662 61.3537 151.646 61.1422 151.646 60.9378ZM151.835 58.5658L151.845 59.3672H150.915C150.675 59.3672 150.463 59.3905 150.28 59.4371C150.097 59.4802 149.945 59.5447 149.823 59.6308C149.701 59.7168 149.61 59.8208 149.549 59.9427C149.488 60.0647 149.457 60.2027 149.457 60.3569C149.457 60.5111 149.493 60.6527 149.565 60.7818C149.637 60.9073 149.741 61.0059 149.877 61.0776C150.017 61.1493 150.185 61.1852 150.382 61.1852C150.648 61.1852 150.879 61.1314 151.076 61.0238C151.277 60.9127 151.435 60.7782 151.55 60.6204C151.664 60.4591 151.725 60.3067 151.732 60.1633L152.152 60.7388C152.109 60.8858 152.035 61.0436 151.931 61.2121C151.827 61.3806 151.691 61.542 151.523 61.6962C151.358 61.8468 151.159 61.9705 150.926 62.0673C150.696 62.1641 150.431 62.2125 150.13 62.2125C149.749 62.2125 149.411 62.1372 149.113 61.9866C148.815 61.8324 148.582 61.6263 148.414 61.3681C148.245 61.1063 148.161 60.8105 148.161 60.4806C148.161 60.1722 148.218 59.8997 148.333 59.6631C148.451 59.4228 148.624 59.222 148.849 59.0606C149.079 58.8993 149.359 58.7774 149.689 58.6949C150.018 58.6088 150.395 58.5658 150.818 58.5658H151.835ZM158.073 56.2853V57.2319H154.792V56.2853H158.073ZM155.738 54.8599H157.035V60.4967C157.035 60.676 157.06 60.8141 157.11 60.9109C157.164 61.0041 157.237 61.0669 157.33 61.0991C157.424 61.1314 157.533 61.1476 157.659 61.1476C157.748 61.1476 157.834 61.1422 157.917 61.1314C157.999 61.1207 158.066 61.1099 158.116 61.0991L158.121 62.0888C158.014 62.1211 157.888 62.1498 157.745 62.1749C157.605 62.2 157.443 62.2125 157.261 62.2125C156.963 62.2125 156.699 62.1605 156.47 62.0565C156.24 61.949 156.061 61.7751 155.932 61.5348C155.803 61.2946 155.738 60.9754 155.738 60.5774V54.8599ZM162.74 62.2125C162.31 62.2125 161.921 62.1426 161.573 62.0028C161.229 61.8593 160.935 61.6603 160.691 61.4057C160.451 61.1511 160.266 60.8517 160.137 60.5075C160.008 60.1633 159.943 59.7921 159.943 59.3941V59.179C159.943 58.7236 160.01 58.3112 160.142 57.9419C160.275 57.5726 160.46 57.257 160.696 56.9953C160.933 56.7299 161.213 56.5273 161.535 56.3875C161.858 56.2476 162.208 56.1777 162.584 56.1777C163 56.1777 163.364 56.2476 163.676 56.3875C163.988 56.5273 164.246 56.7245 164.451 56.9791C164.659 57.2301 164.813 57.5295 164.913 57.8773C165.017 58.2252 165.069 58.6088 165.069 59.0284V59.5824H160.573V58.6519H163.789V58.5497C163.782 58.3166 163.735 58.0979 163.649 57.8935C163.567 57.6891 163.44 57.5241 163.267 57.3986C163.095 57.2731 162.866 57.2104 162.579 57.2104C162.364 57.2104 162.172 57.257 162.003 57.3502C161.838 57.4399 161.7 57.5708 161.589 57.7429C161.478 57.915 161.392 58.123 161.331 58.3668C161.274 58.607 161.245 58.8778 161.245 59.179V59.3941C161.245 59.6487 161.279 59.8854 161.347 60.1041C161.419 60.3192 161.523 60.5075 161.659 60.6689C161.795 60.8302 161.96 60.9575 162.154 61.0507C162.348 61.1404 162.568 61.1852 162.816 61.1852C163.128 61.1852 163.405 61.1225 163.649 60.997C163.893 60.8715 164.105 60.694 164.284 60.4645L164.967 61.126C164.842 61.3089 164.678 61.4846 164.478 61.6531C164.277 61.8181 164.031 61.9526 163.741 62.0565C163.454 62.1605 163.12 62.2125 162.74 62.2125ZM173.119 60.3461L174.679 54.2737H175.496L175.405 55.8388L173.737 62.1049H172.888L173.119 60.3461ZM171.952 54.2737L173.216 60.2977L173.329 62.1049H172.425L170.612 54.2737H171.952ZM177.266 60.2816L178.514 54.2737H179.858L178.046 62.1049H177.142L177.266 60.2816ZM175.814 54.2737L177.357 60.3623L177.583 62.1049H176.733L175.093 55.8388L175.007 54.2737H175.814ZM184.929 60.9378V58.1624C184.929 57.9544 184.892 57.7752 184.816 57.6246C184.741 57.4739 184.626 57.3574 184.472 57.2749C184.322 57.1925 184.131 57.1512 183.902 57.1512C183.69 57.1512 183.508 57.1871 183.353 57.2588C183.199 57.3305 183.079 57.4273 182.993 57.5492C182.907 57.6712 182.864 57.8092 182.864 57.9634H181.573C181.573 57.7339 181.629 57.5116 181.74 57.2965C181.851 57.0813 182.012 56.8895 182.224 56.7209C182.435 56.5524 182.688 56.4197 182.982 56.3229C183.276 56.2261 183.606 56.1777 183.972 56.1777C184.409 56.1777 184.797 56.2512 185.134 56.3982C185.474 56.5452 185.741 56.7676 185.935 57.0652C186.132 57.3592 186.231 57.7285 186.231 58.1732V60.7603C186.231 61.0256 186.249 61.2641 186.285 61.4757C186.324 61.6836 186.38 61.8647 186.451 62.0189V62.1049H185.123C185.062 61.9651 185.014 61.7876 184.978 61.5725C184.945 61.3537 184.929 61.1422 184.929 60.9378ZM185.118 58.5658L185.128 59.3672H184.198C183.958 59.3672 183.746 59.3905 183.563 59.4371C183.38 59.4802 183.228 59.5447 183.106 59.6308C182.984 59.7168 182.893 59.8208 182.832 59.9427C182.771 60.0647 182.74 60.2027 182.74 60.3569C182.74 60.5111 182.776 60.6527 182.848 60.7818C182.919 60.9073 183.023 61.0059 183.16 61.0776C183.3 61.1493 183.468 61.1852 183.665 61.1852C183.931 61.1852 184.162 61.1314 184.359 61.0238C184.56 60.9127 184.718 60.7782 184.832 60.6204C184.947 60.4591 185.008 60.3067 185.015 60.1633L185.435 60.7388C185.392 60.8858 185.318 61.0436 185.214 61.2121C185.11 61.3806 184.974 61.542 184.806 61.6962C184.641 61.8468 184.442 61.9705 184.209 62.0673C183.979 62.1641 183.714 62.2125 183.413 62.2125C183.032 62.2125 182.694 62.1372 182.396 61.9866C182.098 61.8324 181.865 61.6263 181.697 61.3681C181.528 61.1063 181.444 60.8105 181.444 60.4806C181.444 60.1722 181.501 59.8997 181.616 59.6631C181.734 59.4228 181.907 59.222 182.132 59.0606C182.362 58.8993 182.642 58.7774 182.971 58.6949C183.301 58.6088 183.678 58.5658 184.101 58.5658H185.118ZM190.076 53.8434V62.1049H188.774V53.8434H190.076ZM193.985 53.8434V62.1049H192.683V53.8434L193.985 53.8434ZM199.072 62.2125C198.642 62.2125 198.253 62.1426 197.905 62.0028C197.56 61.8593 197.266 61.6603 197.023 61.4057C196.782 61.1511 196.598 60.8517 196.469 60.5075C196.34 60.1633 196.275 59.7921 196.275 59.3941V59.179C196.275 58.7236 196.341 58.3112 196.474 57.9419C196.607 57.5726 196.791 57.257 197.028 56.9953C197.265 56.7299 197.544 56.5273 197.867 56.3875C198.19 56.2476 198.539 56.1777 198.916 56.1777C199.332 56.1777 199.696 56.2476 200.008 56.3875C200.32 56.5273 200.578 56.7245 200.782 56.9791C200.99 57.2301 201.144 57.5295 201.245 57.8773C201.349 58.2252 201.401 58.6088 201.401 59.0284V59.5824L196.904 59.5824V58.6519L200.121 58.6519V58.5497C200.114 58.3166 200.067 58.0979 199.981 57.8935C199.898 57.6891 199.771 57.5241 199.599 57.3986C199.427 57.2731 199.197 57.2104 198.911 57.2104C198.695 57.2104 198.504 57.257 198.335 57.3502C198.17 57.4399 198.032 57.5708 197.921 57.7429C197.81 57.915 197.724 58.123 197.663 58.3668C197.605 58.607 197.577 58.8778 197.577 59.179V59.3941C197.577 59.6487 197.611 59.8854 197.679 60.1041C197.751 60.3192 197.855 60.5075 197.991 60.6689C198.127 60.8302 198.292 60.9575 198.486 61.0507C198.679 61.1404 198.9 61.1852 199.147 61.1852C199.459 61.1852 199.737 61.1225 199.981 60.997C200.225 60.8715 200.436 60.694 200.616 60.4645L201.299 61.126C201.173 61.3089 201.01 61.4846 200.809 61.6531C200.608 61.8181 200.363 61.9526 200.072 62.0565C199.785 62.1605 199.452 62.2125 199.072 62.2125ZM206.181 56.2853V57.2319H202.9V56.2853H206.181ZM203.847 54.8599H205.143V60.4967C205.143 60.676 205.168 60.8141 205.219 60.9109C205.272 61.0041 205.346 61.0669 205.439 61.0991C205.532 61.1314 205.642 61.1476 205.767 61.1476C205.857 61.1476 205.943 61.1422 206.025 61.1314C206.108 61.1207 206.174 61.1099 206.224 61.0991L206.23 62.0888C206.122 62.1211 205.997 62.1498 205.853 62.1749C205.713 62.2 205.552 62.2125 205.369 62.2125C205.072 62.2125 204.808 62.1605 204.579 62.0565C204.349 61.949 204.17 61.7751 204.041 61.5348C203.912 61.2946 203.847 60.9754 203.847 60.5774V54.8599Z" fill="white"/>
<path d="M134.32 92.6939C134.366 92.6495 134.403 92.5963 134.428 92.5375C134.453 92.4787 134.467 92.4155 134.467 92.3515C134.468 92.2875 134.456 92.2241 134.432 92.1649C134.407 92.1056 134.372 92.0518 134.326 92.0065C134.281 91.9613 134.227 91.9255 134.168 91.9012C134.109 91.8769 134.046 91.8647 133.982 91.8652C133.918 91.8658 133.854 91.879 133.796 91.9043C133.737 91.9295 133.684 91.9662 133.639 92.0122L131.708 93.943L129.777 92.0122C129.733 91.9648 129.68 91.9269 129.62 91.9005C129.561 91.8742 129.497 91.86 129.433 91.8589C129.368 91.8577 129.304 91.8696 129.244 91.8939C129.184 91.9181 129.129 91.9542 129.084 91.9999C129.038 92.0457 129.002 92.1002 128.977 92.1602C128.953 92.2202 128.941 92.2845 128.942 92.3492C128.944 92.4139 128.958 92.4777 128.984 92.5368C129.01 92.5959 129.048 92.6491 129.096 92.6933L131.025 94.6247L129.094 96.5555C129.009 96.6468 128.963 96.7676 128.965 96.8925C128.967 97.0173 129.018 97.1364 129.106 97.2247C129.195 97.313 129.314 97.3636 129.439 97.3658C129.563 97.368 129.684 97.3217 129.776 97.2365L131.708 95.3058L133.638 97.2372C133.73 97.3223 133.851 97.3686 133.975 97.3664C134.1 97.3642 134.219 97.3137 134.308 97.2254C134.396 97.1371 134.447 97.018 134.449 96.8931C134.451 96.7683 134.405 96.6475 134.319 96.5561L132.39 94.6247L134.32 92.6939Z" fill="white"/>
<rect x="126.61" y="89.518" width="10.1893" height="10.1893" rx="3.44232" stroke="white" stroke-width="0.826158"/>
<path d="M200.606 94.6127L202.92 96.5404L206.004 92.685" stroke="white" stroke-width="1.10154" stroke-linecap="round"/>
<rect x="198.211" y="89.518" width="10.1893" height="10.1893" rx="3.44232" stroke="white" stroke-width="0.826158"/>
</g>
<defs>
<filter id="filter0_dd_2631_46304" x="-1.03087" y="0.38914" width="335.8" height="139.409" filterUnits="userSpaceOnUse" color-interpolation-filters="sRGB">
<feFlood flood-opacity="0" result="BackgroundImageFix"/>
<feColorMatrix in="SourceAlpha" type="matrix" values="0 0 0 0 0 0 0 0 0 0 0 0 0 0 0 0 0 0 127 0" result="hardAlpha"/>
<feOffset dx="2.75386" dy="2.20309"/>
<feGaussianBlur stdDeviation="5.50772"/>
<feComposite in2="hardAlpha" operator="out"/>
<feColorMatrix type="matrix" values="0 0 0 0 0 0 0 0 0 0 0 0 0 0 0 0 0 0 0.41 0"/>
<feBlend mode="normal" in2="BackgroundImageFix" result="effect1_dropShadow_2631_46304"/>
<feColorMatrix in="SourceAlpha" type="matrix" values="0 0 0 0 0 0 0 0 0 0 0 0 0 0 0 0 0 0 127 0" result="hardAlpha"/>
<feOffset dx="-5.50772" dy="-5.50772"/>
<feGaussianBlur stdDeviation="8.26158"/>
<feComposite in2="hardAlpha" operator="out"/>
<feColorMatrix type="matrix" values="0 0 0 0 0.0916667 0 0 0 0 0.0758333 0 0 0 0 0.0626389 0 0 0 1 0"/>
<feBlend mode="normal" in2="effect1_dropShadow_2631_46304" result="effect2_dropShadow_2631_46304"/>
<feBlend mode="normal" in="SourceGraphic" in2="effect2_dropShadow_2631_46304" result="shape"/>
</filter>
</defs>
</svg>
