<?xml version="1.0" encoding="UTF-8"?>
<svg id="Create_Wallet" data-name="Create Wallet" xmlns="http://www.w3.org/2000/svg" xmlns:xlink="http://www.w3.org/1999/xlink" viewBox="0 0 500 168">
  <defs>
    <style>
      .cls-1 {
        fill: url(#New_Gradient_Swatch-2);
      }

      .cls-1, .cls-2, .cls-3, .cls-4, .cls-5, .cls-6, .cls-7, .cls-8 {
        stroke-width: 0px;
      }

      .cls-2 {
        fill: #211c18;
      }

      .cls-3 {
        fill: #ada28c;
      }

      .cls-9 {
        isolation: isolate;
      }

      .cls-4 {
        fill: #2d2724;
      }

      .cls-5, .cls-10, .cls-11 {
        fill: none;
      }

      .cls-6 {
        fill: #8b8682;
      }

      .cls-10 {
        stroke: #756752;
        stroke-miterlimit: 10;
      }

      .cls-10, .cls-11 {
        stroke-linecap: round;
      }

      .cls-11 {
        stroke: #8b8682;
        stroke-linejoin: round;
        stroke-width: 2px;
      }

      .cls-7 {
        fill: #756752;
      }

      .cls-12 {
        clip-path: url(#clippath);
      }

      .cls-8 {
        fill: url(#New_Gradient_Swatch);
      }
    </style>
    <clipPath id="clippath">
      <polygon class="cls-5" points="153.05 63.59 153.28 42.13 166.36 40.86 166.12 62.33 153.05 63.59"/>
    </clipPath>
    <linearGradient id="New_Gradient_Swatch" data-name="New Gradient Swatch" x1="314.61" y1="105.5" x2="359.16" y2="105.5" gradientUnits="userSpaceOnUse">
      <stop offset="0" stop-color="#fbc926"/>
      <stop offset="0" stop-color="#e9b873"/>
      <stop offset=".38" stop-color="#fedd8f"/>
      <stop offset="1" stop-color="#b78d51"/>
    </linearGradient>
    <linearGradient id="New_Gradient_Swatch-2" data-name="New Gradient Swatch" x1="314.61" y1="76.56" y2="76.56" xlink:href="#New_Gradient_Swatch"/>
  </defs>
  <g id="Create_Wallet-2" data-name="Create Wallet">
    <g id="Connectors">
      <g>
        <line class="cls-11" x1="202.39" y1="91.66" x2="286.75" y2="91.66"/>
        <polygon class="cls-6" points="280.13 99.84 278.76 98.38 285.99 91.67 278.76 84.95 280.13 83.49 288.92 91.67 280.13 99.84"/>
      </g>
    </g>
    <g id="Create_Wallet-3" data-name="Create Wallet">
      <g>
        <path class="cls-3" d="m158.57,28.07c-.91,0-1.8.07-2.67.19-.92-.12-1.79-.19-2.65-.19-4.33,0-8.38,1.39-11.82,3.8,0,0,0,0,0,0-1.75,1.22-3.33,2.71-4.72,4.41-.04.04-.07.08-.11.13-1.32,1.63-2.45,3.46-3.36,5.43-.02.04-.05.09-.06.14-.63,1.38-1.16,2.83-1.56,4.34-.04.09-.06.18-.07.28-.59,2.28-.91,4.7-.91,7.19,0,3.91.77,7.61,2.15,10.93.01.04.02.07.04.11.82,1.96,1.86,3.79,3.07,5.44.03.05.06.09.1.13,1.23,1.65,2.64,3.13,4.2,4.38.05.05.1.09.16.13,3.66,2.9,8.1,4.61,12.89,4.61.86,0,1.73-.06,2.65-.19.88.12,1.77.19,2.67.19,12.47,0,22.62-11.54,22.62-25.72s-10.15-25.72-22.62-25.72Zm-9.38,2.33c-.28.15-.56.3-.84.46-.17.1-.34.19-.5.29-.24.15-.48.31-.72.47h-1.71c1.3-.61,2.65-1.09,4.06-1.38-.1.05-.2.11-.3.16Zm-8.92,38.47h-3.18c-.78-1.11-1.48-2.29-2.08-3.55h3.36c.14.31.28.63.43.93.06.13.13.26.2.39.18.36.37.71.57,1.06.07.13.14.26.22.38.16.27.32.53.49.79Zm-5.67-25.72h3.39c-.16.39-.3.78-.44,1.18-.04.11-.08.22-.11.33-.13.38-.25.77-.36,1.16h-3.46c.28-.91.61-1.8.99-2.66Zm-2.19,10.64c0-.6.03-1.19.07-1.77h3.54s0,.03,0,.04c-.03.57-.06,1.15-.06,1.73,0,.3.01.59.02.89h-3.53c0-.3-.03-.59-.03-.89Zm3.67,2.66c.03.37.08.74.13,1.11,0,.03,0,.05,0,.08.07.49.15.98.24,1.47h-3.5c-.17-.87-.31-1.76-.4-2.66h3.53Zm.55-8.87c-.02.11-.04.21-.06.32-.02.12-.05.23-.07.35-.11.56-.2,1.12-.28,1.69,0,.03,0,.05,0,.08,0,.08-.02.15-.03.23h-3.52c.12-.9.27-1.79.47-2.66h3.5Zm.21,13.3c.03.11.05.22.08.33,0,.04.02.08.03.12.15.54.31,1.07.49,1.6.04.11.08.22.11.33.03.1.07.2.1.29h-3.42c-.34-.86-.63-1.75-.87-2.66h3.48Zm2.94-21.39c-.07.13-.14.25-.22.38-.2.35-.39.7-.57,1.06-.07.13-.13.26-.2.39,0,.02-.02.03-.02.05h-3.33c.67-1.27,1.44-2.45,2.3-3.55h3.11c-.11.16-.22.31-.32.47-.26.39-.52.79-.76,1.21Zm2.59-6.11h2.45c-.22.19-.44.38-.65.59-.18.17-.35.35-.53.52-.17.17-.35.35-.51.53-.16.18-.33.35-.49.53-.14.16-.28.32-.41.49h-2.93c.95-.99,1.98-1.88,3.08-2.66Zm-3.91,37.25h3.04c.1.13.2.26.3.39.27.34.54.66.83.98.16.18.33.36.49.53.17.18.34.36.51.53.07.07.14.15.21.22h-2.67c-.97-.8-1.88-1.69-2.72-2.66Zm11.02,6.7c-2.03-.43-3.96-1.21-5.74-2.27h2.15c.11.09.22.17.34.25.19.14.38.28.57.42.35.24.7.47,1.05.69.17.1.33.2.5.29.28.16.55.31.84.46.1.05.2.11.3.16Zm9.09.39c-.7,0-1.4-.04-2.09-.12l-.35-.05s-.09-.01-.13-.02c-.31-.04-.61-.09-.92-.15-.02,0-.04,0-.07-.01-.3-.06-.59-.12-.88-.2-.04,0-.08-.02-.12-.03-.27-.07-.55-.14-.82-.23-.07-.02-.14-.05-.22-.07-.24-.07-.47-.15-.7-.24-.16-.06-.33-.13-.49-.19-.14-.05-.28-.11-.41-.16-4.77-2.02-8.72-5.99-11.13-11.05-.02-.05-.04-.09-.06-.14-.13-.28-.26-.56-.38-.84-.05-.11-.09-.22-.14-.34-.09-.22-.18-.44-.26-.67-.05-.14-.1-.29-.16-.43-.07-.2-.14-.4-.21-.6-.05-.16-.1-.33-.15-.49-.06-.19-.11-.38-.17-.57-.05-.17-.09-.35-.14-.52-.05-.19-.09-.37-.14-.56-.04-.18-.08-.36-.12-.54-.04-.19-.08-.38-.11-.57-.03-.18-.07-.36-.1-.54-.03-.2-.06-.4-.09-.6-.03-.18-.05-.36-.08-.54-.03-.21-.05-.43-.07-.64-.02-.17-.04-.33-.05-.5-.02-.25-.04-.49-.05-.74,0-.14-.02-.28-.03-.42-.02-.39-.03-.78-.03-1.18s0-.79.03-1.18c0-.14.02-.28.03-.42.01-.25.03-.5.05-.74.01-.17.03-.34.05-.5.02-.21.04-.43.07-.64.02-.18.05-.36.08-.54.03-.2.06-.4.09-.6.03-.18.07-.36.1-.54.04-.19.07-.38.11-.57.04-.18.08-.36.12-.54.04-.19.09-.38.14-.56.05-.17.09-.35.14-.52.05-.19.11-.38.17-.57.05-.16.1-.33.16-.49.07-.2.13-.4.21-.6.05-.14.1-.29.16-.43.08-.23.17-.45.26-.67.05-.11.09-.22.14-.34.12-.28.25-.56.38-.84.02-.05.04-.09.06-.14,2.41-5.07,6.36-9.04,11.13-11.05.14-.06.28-.11.41-.16.16-.06.32-.13.49-.19.23-.08.47-.16.7-.24.07-.02.14-.05.22-.07.27-.08.54-.16.82-.23.04,0,.08-.02.12-.03.29-.07.59-.14.88-.2.02,0,.04,0,.07-.01.3-.06.61-.11.92-.15.04,0,.09-.01.13-.02l.35-.05c.69-.08,1.38-.12,2.09-.12,11.49,0,20.84,10.74,20.84,23.95s-9.35,23.95-20.84,23.95Z"/>
        <path class="cls-3" d="m158.57,35.59c.54,0,1.08.03,1.61.09.04,0,.07,0,.1,0,.44,0,.83-.33.88-.78.06-.49-.29-.93-.78-.98-.6-.07-1.2-.11-1.83-.11h-.01v.89s-.01-.89-.01-.89c-.49,0-.87.4-.87.89,0,.49.42.89.91.89Z"/>
        <path class="cls-3" d="m151.77,37.24c.13,0,.27-.03.4-.1.49-.25,1-.48,1.52-.67.46-.17.69-.68.52-1.14-.17-.46-.68-.69-1.14-.52-.57.21-1.15.47-1.7.75-.44.22-.61.76-.39,1.19.16.31.47.48.79.48Z"/>
        <path class="cls-3" d="m173.77,48.73c.1.4.46.67.86.67.07,0,.14,0,.22-.03.48-.12.76-.6.64-1.08-.15-.59-.32-1.18-.52-1.76-.16-.46-.66-.71-1.13-.55-.46.16-.71.66-.55,1.13.18.53.34,1.07.48,1.61Z"/>
        <path class="cls-3" d="m172.52,41.62c-.34-.51-.71-1-1.1-1.47-.31-.38-.87-.43-1.25-.12-.38.31-.43.87-.12,1.25.35.43.69.88,1,1.34.17.25.45.39.74.39.17,0,.34-.05.5-.15.41-.28.51-.83.24-1.23Z"/>
        <path class="cls-3" d="m158.57,72c-.55,0-1.11-.03-1.65-.1-.5-.05-.93.29-.99.78-.06.49.29.93.78.99.61.07,1.24.11,1.86.11h.07c.49,0,.85-.4.85-.89s-.43-.89-.93-.89Z"/>
        <path class="cls-3" d="m170.12,66.23c-.35.43-.73.85-1.12,1.25-.34.35-.34.91,0,1.25.17.17.4.26.62.26s.46-.09.63-.26c.43-.43.84-.89,1.23-1.37.31-.38.25-.94-.13-1.25s-.94-.25-1.25.13Z"/>
        <path class="cls-3" d="m165,70.43c-.49.25-1,.48-1.51.67-.46.17-.69.68-.52,1.14.13.36.47.57.83.57.1,0,.21-.02.31-.06.57-.22,1.15-.47,1.7-.75.44-.22.61-.76.38-1.19-.22-.44-.76-.61-1.2-.38Z"/>
        <path class="cls-3" d="m167.31,36.45c-.52-.34-1.06-.65-1.61-.93-.44-.22-.97-.04-1.19.39-.22.44-.05.97.39,1.19.49.25.97.53,1.44.83.15.1.32.14.48.14.29,0,.57-.14.74-.4.27-.41.15-.96-.26-1.23Z"/>
        <path class="cls-3" d="m175.27,52.88c-.49,0-.89.42-.89.92,0,.55-.02,1.1-.06,1.63-.04.49.33.92.82.95.02,0,.05,0,.07,0,.46,0,.85-.35.88-.82.05-.58.07-1.18.07-1.77v-.06c0-.49-.4-.86-.89-.86Z"/>
        <path class="cls-3" d="m142.75,53.79c0-.55.02-1.11.07-1.67.04-.49-.33-.92-.82-.95-.48-.03-.92.33-.95.81-.05.6-.07,1.21-.07,1.81v.02c0,.49.4.88.89.88s.89-.41.89-.89Z"/>
        <path class="cls-3" d="m174.45,59.81c-.46-.16-.97.09-1.12.56-.18.53-.38,1.06-.61,1.57-.2.45.01.97.46,1.17.12.05.24.07.35.07.34,0,.67-.2.81-.53.24-.56.46-1.13.66-1.71.16-.46-.09-.97-.56-1.12Z"/>
        <path class="cls-3" d="m143.98,44.45c-.45-.2-.97,0-1.17.46-.24.56-.47,1.13-.66,1.71-.16.46.09.97.56,1.13.09.03.19.05.28.05.37,0,.71-.23.84-.6.18-.53.38-1.06.61-1.57.2-.45,0-.97-.46-1.17Z"/>
        <path class="cls-3" d="m146.07,64.94c-.27-.41-.82-.51-1.23-.24-.41.27-.51.83-.24,1.23.35.51.72,1.01,1.1,1.48.18.21.43.32.69.32.2,0,.4-.07.56-.2.38-.31.43-.87.12-1.25-.35-.42-.68-.88-1-1.34Z"/>
        <path class="cls-3" d="m143.36,58.82c-.12-.48-.6-.77-1.07-.65-.48.12-.76.6-.65,1.07.15.59.32,1.18.52,1.76.13.37.47.6.84.6.09,0,.19-.02.29-.05.46-.16.71-.66.55-1.13-.18-.53-.34-1.07-.48-1.61Z"/>
        <path class="cls-3" d="m146.9,38.84c-.43.43-.84.89-1.23,1.37-.31.38-.25.94.13,1.25.16.13.36.2.56.2.26,0,.51-.11.69-.33.35-.43.73-.85,1.12-1.24.35-.35.34-.91,0-1.25-.35-.35-.91-.34-1.25,0Z"/>
        <path class="cls-3" d="m152.2,70.46c-.49-.25-.97-.53-1.44-.83-.41-.27-.96-.15-1.23.26-.27.41-.15.96.26,1.23.52.34,1.06.65,1.61.93.13.07.27.1.4.1.32,0,.64-.18.79-.49.22-.44.05-.97-.39-1.19Z"/>
        <g class="cls-9">
          <g class="cls-12">
            <path class="cls-3" d="m159.02,57.38c-.33.03-.62.05-.83.07l.05-4.36c.26-.03.65-.08,1.09-.13,1.49-.14,3.59-.12,3.57,1.86s-2.39,2.41-3.88,2.56m-.05-6.34c-.29.03-.53.04-.71.06l.04-3.95c.22-.02.55-.07.93-.11,1.24-.12,2.98-.08,2.96,1.7s-1.98,2.18-3.22,2.3m2.36-9.7l-1.68.16-.03,3.16c-.43.04-.88.09-1.33.16l.03-3.19-1.67.16-.04,3.25c-.36.04-.72.09-1.06.12h0s-2.31.21-2.31.21l-.02,2.11,1.21-.13c.68-.07.89.38.96.78l-.04,3.7-.06,5.2c-.03.26-.16.67-.64.72l-1.21.12-.36,2.4,2.18-.21c.4-.04.8-.07,1.19-.1l-.04,3.29,1.67-.16.04-3.25c.46-.04.91-.08,1.33-.12l-.04,3.24,1.68-.16.04-3.29c2.81-.46,4.79-1.49,5.07-4.64.22-2.53-.76-3.55-2.35-3.85.97-.68,1.59-1.77,1.47-3.47-.16-2.33-1.86-2.95-4.02-2.96l.04-3.25"/>
          </g>
        </g>
      </g>
      <path class="cls-2" d="m199.38,83.64h-2.06v-18.98c0-4.92-3.99-8.91-8.91-8.91h-5.7l-1.95,3h-51.36l-1.75-3h-6.09c-3.52,0-6.37,2.85-6.37,6.37v55.14c0,3.69,2.99,6.67,6.67,6.67h66.74c4.82,0,8.72-3.9,8.72-8.72v-11.42h2.06c1.43,0,2.59-1.16,2.59-2.59v-14.97c0-1.43-1.16-2.59-2.59-2.59Z"/>
      <g>
        <path class="cls-7" d="m200.07,103.78h-16.08c-1.09,0-2.44-.63-3.14-1.47l-5.76-6.92c-.79-.95-.79-2.43,0-3.37l5.76-6.92c.7-.84,2.05-1.47,3.14-1.47h16.08c1.28,0,2.32,1.04,2.32,2.32v15.5c0,1.28-1.04,2.32-2.32,2.32h0Zm-16.08-18.6c-.62,0-1.55.43-1.95.91l-5.76,6.92c-.31.37-.31,1.02,0,1.39l5.76,6.92c.4.48,1.33.91,1.95.91h16.08c.43,0,.77-.35.77-.77v-15.5c0-.43-.35-.77-.77-.77h-16.08Z"/>
        <path class="cls-7" d="m187.67,99.13c-2.99,0-5.42-2.43-5.42-5.42s2.43-5.42,5.42-5.42,5.42,2.43,5.42,5.42-2.43,5.42-5.42,5.42Zm0-9.3c-2.14,0-3.87,1.74-3.87,3.87s1.74,3.87,3.87,3.87,3.87-1.74,3.87-3.87-1.74-3.87-3.87-3.87Z"/>
        <path class="cls-7" d="m189.22,123.93h-68.19c-.43,0-.77-.35-.77-.77s.35-.77.77-.77h68.19c3.85,0,6.97-3.13,6.97-6.97,0-.43.35-.77.77-.77s.77.35.77.77c0,4.7-3.82,8.52-8.52,8.52h0Z"/>
        <path class="cls-7" d="m196.97,67.5c-.43,0-.77-.35-.77-.77v-2.45c0-3.85-3.13-6.97-6.97-6.97-.43,0-.77-.35-.77-.77s.35-.77.77-.77c4.7,0,8.52,3.82,8.52,8.52v2.45c0,.43-.35.77-.77.78h0Z"/>
        <path class="cls-7" d="m121.04,66.59c-2.99,0-5.42-2.43-5.42-5.42,0-.43.35-.77.77-.77s.77.35.77.77c0,2.14,1.74,3.87,3.87,3.87.43,0,.77.35.77.77h0c0,.43-.35.78-.77.78h0Z"/>
        <path class="cls-7" d="m121.04,123.93c-2.99,0-5.42-2.43-5.42-5.42,0-.43.35-.77.77-.77s.77.35.77.77c0,2.14,1.74,3.87,3.87,3.87.43,0,.77.35.77.77s-.35.77-.77.77Z"/>
        <path class="cls-7" d="m116.39,61.94c-.43,0-.77-.35-.77-.77,0-2.99,2.43-5.42,5.42-5.42.43,0,.77.35.77.77h0c0,.43-.35.78-.77.78-2.14,0-3.87,1.74-3.87,3.87,0,.43-.35.77-.77.77h0Z"/>
        <path class="cls-7" d="m189.22,66.59h-68.19c-.43,0-.77-.35-.77-.77s.35-.77.77-.77h68.19c.43,0,.77.35.77.77h0c0,.43-.35.78-.77.78h0Z"/>
        <path class="cls-7" d="m187.67,61.94h-65.09c-.43,0-.77-.35-.77-.77s.35-.77.77-.77h65.09c.43,0,.77.35.77.77s-.35.77-.77.77Z"/>
        <path class="cls-7" d="m116.39,119.28c-.43,0-.77-.35-.77-.77v-57.34c0-.43.35-.77.77-.77s.77.35.77.77v57.34c0,.43-.35.77-.77.77Z"/>
        <path class="cls-7" d="m189.22,57.29h-1.55c-.43,0-.77-.35-.77-.77h0c0-.43.35-.78.77-.78h1.55c.43,0,.77.35.77.77h0c0,.43-.35.78-.77.78Z"/>
        <path class="cls-7" d="m124.14,57.29h-3.1c-.43,0-.77-.35-.77-.77s.35-.77.77-.77h3.1c.43,0,.77.35.77.77h0c0,.43-.35.78-.77.78Z"/>
        <path class="cls-7" d="m124.14,71.24h-1.55c-.43,0-.77-.35-.77-.77s.35-.77.77-.77h1.55c.43,0,.77.35.77.77h0c0,.43-.35.78-.77.78Zm60.51,0h-3.02c-.43,0-.77-.34-.77-.77h0c0-.43.34-.78.77-.78h3.02c.43,0,.77.35.77.77s-.35.77-.77.77Zm-6.05,0h-3.03c-.43,0-.77-.35-.77-.77h0c0-.43.35-.78.77-.78h3.03c.43,0,.77.35.77.77s-.35.77-.77.77Zm-6.05,0h-3.03c-.43,0-.77-.35-.77-.77s.35-.77.77-.77h3.03c.43,0,.77.35.77.77s-.35.77-.77.77Zm-6.05,0h-3.03c-.43,0-.77-.35-.77-.77s.35-.77.77-.77h3.03c.43,0,.77.35.77.77s-.35.77-.77.77Zm-6.05,0h-3.03c-.43,0-.77-.35-.77-.77s.35-.77.77-.77h3.03c.43,0,.77.35.77.77h0c0,.43-.35.78-.77.78h0Zm-6.05,0h-3.03c-.43,0-.77-.35-.77-.77s.35-.77.77-.77h3.03c.43,0,.77.35.77.77s-.35.77-.77.77Zm-6.05,0h-3.03c-.43,0-.77-.35-.77-.77s.35-.77.77-.77h3.03c.43,0,.77.35.77.77s-.35.77-.77.77Zm-6.05,0h-3.03c-.43,0-.77-.35-.77-.77s.35-.77.77-.77h3.03c.43,0,.77.35.77.77s-.35.77-.77.77Zm-6.05,0h-3.03c-.43,0-.77-.35-.77-.77s.35-.77.77-.77h3.03c.43,0,.77.35.77.77h0c0,.43-.35.78-.77.78Zm-6.05,0h-3.03c-.43,0-.77-.35-.77-.77s.35-.77.77-.77h3.03c.43,0,.77.35.77.77h0c0,.43-.35.78-.77.78h0Zm59.04,0h-1.55c-.43,0-.77-.35-.77-.77h0c0-.43.35-.78.77-.78h1.55c.43,0,.77.35.77.77h0c0,.43-.35.78-.77.78Z"/>
        <path class="cls-7" d="m124.14,119.28h-1.55c-.43,0-.77-.35-.77-.77s.35-.77.77-.77h1.55c.43,0,.77.35.77.77s-.35.77-.77.77Zm60.51,0h-3.02c-.43,0-.77-.35-.77-.77s.34-.77.77-.77h3.02c.43,0,.77.35.77.77s-.35.77-.77.77Zm-6.05,0h-3.03c-.43,0-.77-.35-.77-.77s.35-.77.77-.77h3.03c.43,0,.77.35.77.77s-.35.77-.77.77Zm-6.05,0h-3.03c-.43,0-.77-.35-.77-.77s.35-.77.77-.77h3.03c.43,0,.77.35.77.77s-.35.77-.77.77Zm-6.05,0h-3.03c-.43,0-.77-.35-.77-.77s.35-.77.77-.77h3.03c.43,0,.77.35.77.77s-.35.77-.77.77Zm-6.05,0h-3.03c-.43,0-.77-.35-.77-.77s.35-.77.77-.77h3.03c.43,0,.77.35.77.77s-.35.77-.77.77h0Zm-6.05,0h-3.03c-.43,0-.77-.35-.77-.77s.35-.77.77-.77h3.03c.43,0,.77.35.77.77s-.35.77-.77.77Zm-6.05,0h-3.03c-.43,0-.77-.35-.77-.77s.35-.77.77-.77h3.03c.43,0,.77.35.77.77s-.35.77-.77.77Zm-6.05,0h-3.03c-.43,0-.77-.35-.77-.77s.35-.77.77-.77h3.03c.43,0,.77.35.77.77s-.35.77-.77.77Zm-6.05,0h-3.03c-.43,0-.77-.35-.77-.77s.35-.77.77-.77h3.03c.43,0,.77.35.77.77s-.35.77-.77.77Zm-6.05,0h-3.03c-.43,0-.77-.35-.77-.77s.35-.77.77-.77h3.03c.43,0,.77.35.77.77s-.35.77-.77.77h0Zm59.04,0h-1.55c-.43,0-.77-.35-.77-.77s.35-.77.77-.77h1.55c.43,0,.77.35.77.77s-.35.77-.77.77Z"/>
        <path class="cls-7" d="m196.97,82.09c-.43,0-.77-.35-.77-.77v-7.75c0-.43.35-.77.77-.77s.77.35.77.77v7.75c0,.43-.35.77-.77.77Z"/>
        <path class="cls-7" d="m196.97,116.18c-.43,0-.77-.35-.77-.77v-9.3c0-.43.35-.77.77-.77s.77.35.77.77v9.3c0,.43-.35.77-.77.77h0Z"/>
      </g>
      <g>
        <g>
          <polyline class="cls-10" points="118.71 101.79 140.81 101.79 148.48 109.45 166.21 109.45"/>
          <circle class="cls-7" cx="166.21" cy="109.45" r="1.72"/>
        </g>
        <g>
          <line class="cls-10" x1="118.71" y1="94.5" x2="157.97" y2="94.5"/>
          <circle class="cls-7" cx="158.05" cy="94.5" r="1.72"/>
        </g>
        <g>
          <polyline class="cls-10" points="118.71 87.23 140.81 87.23 148.48 79.57 166.21 79.57"/>
          <circle class="cls-7" cx="166.21" cy="79.57" r="1.72"/>
        </g>
      </g>
    </g>
    <g>
      <circle class="cls-4" cx="336.89" cy="92" r="47.93"/>
      <g>
        <path class="cls-8" d="m339.36,111.87l3.99,6.16,15.81-23.38h-15.37l-11.54,17.04-10.88-15.49,6.89-.05,5.8,8.2,2.02-3.07-5.85-8.31h-15.63l17.57,24.98,13.61-20.13h6.87l-9.44,13.79-1.81-2.78-2.04,3.04Z"/>
        <path class="cls-1" d="m332.26,70.37l11.54,17.04h15.37l-15.81-23.38-3.99,6.16,2.04,3.04,1.81-2.78,9.44,13.79h-6.87l-13.61-20.13-17.57,24.98h15.63l5.85-8.31-2.02-3.07-5.8,8.2-6.89-.05,10.88-15.49Z"/>
      </g>
    </g>
  </g>
</svg>