<svg width="100" height="100" viewBox="0 0 100 100" fill="none" xmlns="http://www.w3.org/2000/svg">
<rect width="100" height="100" rx="50" fill="#393533"/>
<path d="M73.3334 26.6667H26.6667C23.445 26.6667 20.8333 29.2783 20.8333 32.5V67.5C20.8333 70.7216 23.445 73.3333 26.6667 73.3333H73.3334C76.555 73.3333 79.1667 70.7216 79.1667 67.5V32.5C79.1667 29.2783 76.555 26.6667 73.3334 26.6667Z" stroke="url(#paint0_linear_387_818)" stroke-width="4" stroke-linecap="round" stroke-linejoin="round"/>
<path d="M44.1667 26.6667V38.3333M20.8333 38.3333H79.1667M32.5 26.6667V38.3333" stroke="url(#paint1_linear_387_818)" stroke-width="4" stroke-linecap="round" stroke-linejoin="round"/>
<rect x="64.5" y="64.5" width="34" height="34" rx="17" fill="#51C61A"/>
<path d="M89 79.3529H85V73H79V79.3529H75L82 86.7647L89 79.3529ZM75 88.8824V91H89V88.8824H75Z" fill="#2C2520"/>
<rect x="64.5" y="64.5" width="34" height="34" rx="17" stroke="#2C2520" stroke-width="3"/>
<defs>
<linearGradient id="paint0_linear_387_818" x1="20.9447" y1="50" x2="79.278" y2="50" gradientUnits="userSpaceOnUse">
<stop stop-color="#E9B873"/>
<stop offset="0.369792" stop-color="#FEDD8F"/>
<stop offset="1" stop-color="#B78D51"/>
</linearGradient>
<linearGradient id="paint1_linear_387_818" x1="20.9447" y1="32.5" x2="79.278" y2="32.5" gradientUnits="userSpaceOnUse">
<stop stop-color="#E9B873"/>
<stop offset="0.369792" stop-color="#FEDD8F"/>
<stop offset="1" stop-color="#B78D51"/>
</linearGradient>
</defs>
</svg>
