<svg width="32" height="32" viewBox="0 0 32 32" fill="none" xmlns="http://www.w3.org/2000/svg">
<g clip-path="url(#clip0_2242_102378)">
<path d="M25.389 1.79342L18.778 11.6044C18.3209 12.2725 19.2 13.0813 19.833 12.5187L26.3385 6.85716C26.5143 6.7165 26.7604 6.822 26.7604 7.06815V24.7561C26.7604 25.0022 26.444 25.1077 26.3033 24.9319L6.61099 1.37145C5.97802 0.59782 5.06374 0.175842 4.04396 0.175842H3.34066C1.51209 0.175842 0 1.68793 0 3.55167V28.4484C0 30.3121 1.51209 31.8242 3.37582 31.8242C4.53626 31.8242 5.62637 31.2264 6.25934 30.2066L12.8703 20.3956C13.3275 19.7275 12.4484 18.9187 11.8154 19.4813L5.30989 25.1077C5.13407 25.2484 4.88791 25.1429 4.88791 24.8967V7.24397C4.88791 6.99782 5.2044 6.89233 5.34506 7.06815L25.0374 30.6286C25.6703 31.4022 26.6198 31.8242 27.6044 31.8242H28.3077C30.1714 31.8242 31.6835 30.3121 31.6835 28.4484V3.55167C31.6835 1.68793 30.1714 0.175842 28.3077 0.175842C27.1121 0.175842 26.022 0.773644 25.389 1.79342Z" fill="white"/>
</g>
<defs>
<clipPath id="clip0_2242_102378">
<rect width="32" height="31.6484" fill="white" transform="translate(0 0.175842)"/>
</clipPath>
</defs>
</svg>
