<svg width="25" height="20" viewBox="0 0 25 20" fill="none" xmlns="http://www.w3.org/2000/svg">
<path fill-rule="evenodd" clip-rule="evenodd" d="M3.01719 18.0065L11.6402 4.14844L13.3598 5.21844L4.73678 19.0765L3.01719 18.0065Z" fill="url(#paint0_linear_5733_64029)"/>
<path fill-rule="evenodd" clip-rule="evenodd" d="M20.6291 19.0186L12.1481 5.47427L13.8647 4.39941L22.3457 17.9437L20.6291 19.0186Z" fill="url(#paint1_linear_5733_64029)"/>
<path d="M16.2974 4.68354C16.2974 6.78083 14.5973 8.48101 12.5 8.48101C10.4027 8.48101 8.70252 6.78083 8.70252 4.68354C8.70252 2.58626 10.4027 0.886076 12.5 0.886076C14.5973 0.886076 16.2974 2.58626 16.2974 4.68354Z" fill="url(#paint2_linear_5733_64029)" stroke="url(#paint3_linear_5733_64029)" stroke-width="1.77215"/>
<path d="M7.43671 16.5828C7.43671 17.981 6.30326 19.1144 4.90507 19.1144C3.50688 19.1144 2.37343 17.981 2.37343 16.5828C2.37343 15.1846 3.50688 14.0511 4.90507 14.0511C6.30326 14.0511 7.43671 15.1846 7.43671 16.5828Z" fill="url(#paint4_linear_5733_64029)" stroke="url(#paint5_linear_5733_64029)" stroke-width="1.77215"/>
<path d="M22.6266 16.5828C22.6266 17.981 21.4932 19.1144 20.095 19.1144C18.6968 19.1144 17.5634 17.981 17.5634 16.5828C17.5634 15.1846 18.6968 14.0511 20.095 14.0511C21.4932 14.0511 22.6266 15.1846 22.6266 16.5828Z" fill="url(#paint6_linear_5733_64029)" stroke="url(#paint7_linear_5733_64029)" stroke-width="1.77215"/>
<defs>
<linearGradient id="paint0_linear_5733_64029" x1="3.03693" y1="11.6125" x2="13.3796" y2="11.6125" gradientUnits="userSpaceOnUse">
<stop stop-color="#E9B873"/>
<stop offset="0.369792" stop-color="#FEDD8F"/>
<stop offset="1" stop-color="#B78D51"/>
</linearGradient>
<linearGradient id="paint1_linear_5733_64029" x1="12.1676" y1="11.709" x2="22.3651" y2="11.709" gradientUnits="userSpaceOnUse">
<stop stop-color="#E9B873"/>
<stop offset="0.369792" stop-color="#FEDD8F"/>
<stop offset="1" stop-color="#B78D51"/>
</linearGradient>
<linearGradient id="paint2_linear_5733_64029" x1="7.83432" y1="4.68354" x2="17.2014" y2="4.68354" gradientUnits="userSpaceOnUse">
<stop stop-color="#E9B873"/>
<stop offset="0.369792" stop-color="#FEDD8F"/>
<stop offset="1" stop-color="#B78D51"/>
</linearGradient>
<linearGradient id="paint3_linear_5733_64029" x1="7.83432" y1="4.68354" x2="17.2014" y2="4.68354" gradientUnits="userSpaceOnUse">
<stop stop-color="#E9B873"/>
<stop offset="0.369792" stop-color="#FEDD8F"/>
<stop offset="1" stop-color="#B78D51"/>
</linearGradient>
<linearGradient id="paint4_linear_5733_64029" x1="1.5004" y1="16.5828" x2="8.33583" y2="16.5828" gradientUnits="userSpaceOnUse">
<stop stop-color="#E9B873"/>
<stop offset="0.369792" stop-color="#FEDD8F"/>
<stop offset="1" stop-color="#B78D51"/>
</linearGradient>
<linearGradient id="paint5_linear_5733_64029" x1="1.5004" y1="16.5828" x2="8.33583" y2="16.5828" gradientUnits="userSpaceOnUse">
<stop stop-color="#E9B873"/>
<stop offset="0.369792" stop-color="#FEDD8F"/>
<stop offset="1" stop-color="#B78D51"/>
</linearGradient>
<linearGradient id="paint6_linear_5733_64029" x1="16.6903" y1="16.5828" x2="23.5258" y2="16.5828" gradientUnits="userSpaceOnUse">
<stop stop-color="#E9B873"/>
<stop offset="0.369792" stop-color="#FEDD8F"/>
<stop offset="1" stop-color="#B78D51"/>
</linearGradient>
<linearGradient id="paint7_linear_5733_64029" x1="16.6903" y1="16.5828" x2="23.5258" y2="16.5828" gradientUnits="userSpaceOnUse">
<stop stop-color="#E9B873"/>
<stop offset="0.369792" stop-color="#FEDD8F"/>
<stop offset="1" stop-color="#B78D51"/>
</linearGradient>
</defs>
</svg>
