<svg width="33" height="33" viewBox="0 0 33 33" fill="none" xmlns="http://www.w3.org/2000/svg">
<g clip-path="url(#clip0_1448_11173)">
<path d="M20.9597 3.01302H9.31091L8.34485 8.41049L18.8593 8.42296C24.0387 8.42296 25.5657 10.3052 25.522 13.4215C25.4971 15.0171 24.8053 17.7221 24.5061 18.6009C23.7083 20.9381 22.0691 23.5995 15.9238 23.5932L5.7022 23.587L4.73926 28.9907H16.3632C20.4642 28.9907 22.2031 28.5108 24.0542 27.6632C28.1491 25.7622 30.5861 21.7234 31.5646 16.4506C33.0137 8.59747 31.2062 3.01302 20.9597 3.01302Z" fill="#008DE4"/>
<path d="M4.28427 13.2907C1.23027 13.2907 0.793988 15.279 0.507286 16.4819C0.127094 18.0525 0.00244141 18.6944 0.00244141 18.6944H11.9317C14.9857 18.6944 15.422 16.7062 15.7087 15.5033C16.0889 13.9327 16.2136 13.2907 16.2136 13.2907H4.28427Z" fill="#008DE4"/>
</g>
<defs>
<clipPath id="clip0_1448_11173">
<rect width="32" height="32" fill="white" transform="translate(0.00244141 0.00186157)"/>
</clipPath>
</defs>
</svg>
