<svg width="48" height="12" viewBox="0 0 48 12" fill="none" xmlns="http://www.w3.org/2000/svg">
<path id="Line 52" d="M0.666667 6C0.666667 8.94552 3.05448 11.3333 6 11.3333C8.94552 11.3333 11.3333 8.94552 11.3333 6C11.3333 3.05448 8.94552 0.666667 6 0.666667C3.05448 0.666667 0.666667 3.05448 0.666667 6ZM36.6667 6C36.6667 8.94552 39.0545 11.3333 42 11.3333C44.9455 11.3333 47.3333 8.94552 47.3333 6C47.3333 3.05448 44.9455 0.666667 42 0.666667C39.0545 0.666667 36.6667 3.05448 36.6667 6ZM6 7H7.8V5H6V7ZM11.4 7H15V5H11.4V7ZM18.6 7H22.2V5H18.6V7ZM25.8 7H29.4V5H25.8V7ZM33 7H36.6V5H33V7ZM40.2 7H42V5H40.2V7Z" fill="#8B8682"/>
</svg>
