<svg width="32" height="32" viewBox="0 0 32 32" fill="none" xmlns="http://www.w3.org/2000/svg">
<rect x="0.8" y="0.8" width="30.4" height="30.4" rx="4.2" fill="#3A3531"/>
<path d="M11.5553 24C11.0664 24 10.6481 23.8261 10.3002 23.4782C9.95178 23.1298 9.77756 22.7111 9.77756 22.2222V10.6667C9.52571 10.6667 9.31445 10.5816 9.14378 10.4116C8.97371 10.2409 8.88867 10.0296 8.88867 9.77778C8.88867 9.52593 8.97371 9.31467 9.14378 9.144C9.31445 8.97393 9.52571 8.88889 9.77756 8.88889H13.3331C13.3331 8.63704 13.4184 8.42578 13.5891 8.25511C13.7592 8.08504 13.9702 8 14.222 8H17.7776C18.0294 8 18.2407 8.08504 18.4113 8.25511C18.5814 8.42578 18.6664 8.63704 18.6664 8.88889H22.222C22.4739 8.88889 22.6848 8.97393 22.8549 9.144C23.0256 9.31467 23.1109 9.52593 23.1109 9.77778C23.1109 10.0296 23.0256 10.2409 22.8549 10.4116C22.6848 10.5816 22.4739 10.6667 22.222 10.6667V22.2222C22.222 22.7111 22.0481 23.1298 21.7002 23.4782C21.3518 23.8261 20.9331 24 20.4442 24H11.5553ZM11.5553 10.6667V22.2222H20.4442V10.6667H11.5553ZM13.3331 19.5556C13.3331 19.8074 13.4184 20.0184 13.5891 20.1884C13.7592 20.3591 13.9702 20.4444 14.222 20.4444C14.4739 20.4444 14.6851 20.3591 14.8558 20.1884C15.0259 20.0184 15.1109 19.8074 15.1109 19.5556V13.3333C15.1109 13.0815 15.0259 12.8702 14.8558 12.6996C14.6851 12.5295 14.4739 12.4444 14.222 12.4444C13.9702 12.4444 13.7592 12.5295 13.5891 12.6996C13.4184 12.8702 13.3331 13.0815 13.3331 13.3333V19.5556ZM16.8887 19.5556C16.8887 19.8074 16.974 20.0184 17.1447 20.1884C17.3147 20.3591 17.5257 20.4444 17.7776 20.4444C18.0294 20.4444 18.2407 20.3591 18.4113 20.1884C18.5814 20.0184 18.6664 19.8074 18.6664 19.5556V13.3333C18.6664 13.0815 18.5814 12.8702 18.4113 12.6996C18.2407 12.5295 18.0294 12.4444 17.7776 12.4444C17.5257 12.4444 17.3147 12.5295 17.1447 12.6996C16.974 12.8702 16.8887 13.0815 16.8887 13.3333V19.5556ZM11.5553 10.6667V22.2222V10.6667Z" fill="#8B8682"/>
<rect x="0.8" y="0.8" width="30.4" height="30.4" rx="4.2" stroke="#49433E" stroke-width="0.4"/>
</svg>
