<svg width="20" height="17" viewBox="0 0 20 17" fill="none" xmlns="http://www.w3.org/2000/svg">
<g clip-path="url(#clip0_3168_48762)">
<path d="M5.55534 16.5C5.06645 16.5 4.64808 16.3261 4.30023 15.9782C3.95178 15.6298 3.77756 15.2111 3.77756 14.7222V3.16667C3.52571 3.16667 3.31445 3.08163 3.14378 2.91156C2.97371 2.74089 2.88867 2.52963 2.88867 2.27778C2.88867 2.02593 2.97371 1.81467 3.14378 1.644C3.31445 1.47393 3.52571 1.38889 3.77756 1.38889H7.33312C7.33312 1.13704 7.41845 0.925778 7.58912 0.755111C7.75919 0.585037 7.97015 0.5 8.222 0.5H11.7776C12.0294 0.5 12.2407 0.585037 12.4113 0.755111C12.5814 0.925778 12.6664 1.13704 12.6664 1.38889H16.222C16.4739 1.38889 16.6848 1.47393 16.8549 1.644C17.0256 1.81467 17.1109 2.02593 17.1109 2.27778C17.1109 2.52963 17.0256 2.74089 16.8549 2.91156C16.6848 3.08163 16.4739 3.16667 16.222 3.16667V14.7222C16.222 15.2111 16.0481 15.6298 15.7002 15.9782C15.3518 16.3261 14.9331 16.5 14.4442 16.5H5.55534ZM5.55534 3.16667V14.7222H14.4442V3.16667H5.55534ZM7.33312 12.0556C7.33312 12.3074 7.41845 12.5184 7.58912 12.6884C7.75919 12.8591 7.97015 12.9444 8.222 12.9444C8.47386 12.9444 8.68512 12.8591 8.85578 12.6884C9.02586 12.5184 9.11089 12.3074 9.11089 12.0556V5.83333C9.11089 5.58148 9.02586 5.37022 8.85578 5.19956C8.68512 5.02948 8.47386 4.94444 8.222 4.94444C7.97015 4.94444 7.75919 5.02948 7.58912 5.19956C7.41845 5.37022 7.33312 5.58148 7.33312 5.83333V12.0556ZM10.8887 12.0556C10.8887 12.3074 10.974 12.5184 11.1447 12.6884C11.3147 12.8591 11.5257 12.9444 11.7776 12.9444C12.0294 12.9444 12.2407 12.8591 12.4113 12.6884C12.5814 12.5184 12.6664 12.3074 12.6664 12.0556V5.83333C12.6664 5.58148 12.5814 5.37022 12.4113 5.19956C12.2407 5.02948 12.0294 4.94444 11.7776 4.94444C11.5257 4.94444 11.3147 5.02948 11.1447 5.19956C10.974 5.37022 10.8887 5.58148 10.8887 5.83333V12.0556ZM5.55534 3.16667V14.7222V3.16667Z" fill="#8B8682"/>
</g>
<defs>
<clipPath id="clip0_3168_48762">
<rect width="20" height="16" fill="white" transform="translate(0 0.5)"/>
</clipPath>
</defs>
</svg>
