<svg width="24" height="16" viewBox="0 0 24 16" fill="none" xmlns="http://www.w3.org/2000/svg">
<path d="M5.61337 3.12131L5.61337 12.3137L19.9132 12.3137L19.9132 3.12083L5.61337 3.12131ZM6.63481 11.2922L6.63481 4.14232L18.8917 4.14232L18.8917 11.2922L6.63481 11.2922Z" fill="#FF624C"/>
<path d="M18.893 4.6555L18.893 10.7839L24 10.7839L24 4.6555L18.893 4.6555ZM19.9145 9.76292L19.9145 5.67737L22.9788 5.67737L22.9788 9.76292L19.9145 9.76292Z" fill="#FF624C"/>
<path d="M21.9586 6.69531L21.9586 5.16313L20.9372 5.16313L20.9372 6.69531L21.9586 6.69531Z" fill="#FF624C"/>
<path d="M21.9586 10.2698L21.9586 8.73759L20.9372 8.73759L20.9372 10.2698L21.9586 10.2698Z" fill="#FF624C"/>
<path d="M3.57243 5.16235L3.57243 10.2698L6.12585 10.2698L6.12585 9.24834L4.59387 9.24834L4.59387 6.18402L6.12585 6.18402L6.12585 5.16259L3.57243 5.16235Z" fill="#FF624C"/>
<path d="M4.08557 8.22974L4.08557 7.2083L1.19331e-05 7.2083L1.19209e-05 8.22974L4.08557 8.22974Z" fill="#FF624C"/>
<rect x="17.5667" y="0.214844" width="3.53782" height="18.4816" transform="rotate(45 17.5667 0.214844)" fill="#211C17"/>
<rect x="18.3462" y="0.994385" width="1.33336" height="18.4816" transform="rotate(45 18.3462 0.994385)" fill="#FF624C"/>
</svg>