<svg width="30" height="16" viewBox="0 0 30 16" fill="none" xmlns="http://www.w3.org/2000/svg">
<g clip-path="url(#clip0_2220_5168)">
<path fill-rule="evenodd" clip-rule="evenodd" d="M14.7713 2.74738L7.25197 2.74761V5.08076L4.77714 5.08055V7.41769H0.442987V8.58502H4.77714V10.9175H7.25197V13.253H14.7713V12.0856H8.49103L8.49104 3.91446H14.7713V2.74738ZM18.8149 12.0856H23.3593V3.91446H18.8149V2.74725L24.5985 2.74707V4.49993H29.557V11.5037H24.5985V13.253H18.8149V12.0856ZM7.25197 6.24815V9.75015H6.01621V6.24815H7.25197ZM24.601 5.66775V10.3369H25.8424V9.16646H27.0814V10.3369H28.3182L28.3182 5.66775H27.0814V6.83228H25.8424V5.66775H24.601Z" fill="#FF624C"/>
<path d="M16.0221 8.65918L15.8033 5.38477C15.7623 4.74674 15.7418 4.28874 15.7418 4.01074C15.7418 3.63249 15.8398 3.33854 16.0358 3.12891C16.2363 2.91471 16.4983 2.80762 16.8219 2.80762C17.2138 2.80762 17.4759 2.94434 17.608 3.21777C17.7402 3.48665 17.8063 3.8763 17.8063 4.38672C17.8063 4.6875 17.7903 4.99284 17.7584 5.30273L17.4645 8.67285C17.4326 9.07389 17.3642 9.38151 17.2594 9.5957C17.1546 9.8099 16.9814 9.91699 16.7399 9.91699C16.4938 9.91699 16.3229 9.81445 16.2272 9.60938C16.1315 9.39974 16.0631 9.08301 16.0221 8.65918ZM16.7809 13.1572C16.5029 13.1572 16.2591 13.0684 16.0494 12.8906C15.8444 12.7083 15.7418 12.4554 15.7418 12.1318C15.7418 11.8493 15.8398 11.61 16.0358 11.4141C16.2363 11.2135 16.4801 11.1133 16.7672 11.1133C17.0543 11.1133 17.2981 11.2135 17.4986 11.4141C17.7037 11.61 17.8063 11.8493 17.8063 12.1318C17.8063 12.4508 17.7037 12.7015 17.4986 12.8838C17.2936 13.0661 17.0543 13.1572 16.7809 13.1572Z" fill="#FF624C"/>
</g>
<defs>
<clipPath id="clip0_2220_5168">
<rect width="30" height="16" fill="white"/>
</clipPath>
</defs>
</svg>
