<svg width="36" height="24" viewBox="0 0 56 48" fill="none" xmlns="http://www.w3.org/2000/svg">
<path fill-rule="evenodd" clip-rule="evenodd" d="M46.464 30.9174L56 30.9174L56 16.6176L46.464 16.6176L46.464 13.0367L45.882 13.0367L43.4986 15.4202L44.0804 15.4202L44.0804 32.1033L26.8154 32.1033L24.4319 34.4868L46.464 34.4868L46.464 30.9174ZM13.0976 34.1469L13.0976 29.7173L8.33567 29.7173L8.33567 24.9572L1.13639e-07 24.9572L1.42061e-07 22.5739L8.33567 22.5739L8.33567 17.8L13.0976 17.8004L13.0976 13.0378L34.2074 13.0371L31.8243 15.4202L15.481 15.4202L15.481 31.7635L13.0976 34.1469ZM13.0976 27.334L13.0976 20.1839L10.719 20.1839L10.719 27.334L13.0976 27.334ZM46.4671 19.002L46.4671 28.535L48.8533 28.535L48.8533 26.1422L51.2367 26.1422L51.2367 28.535L53.6172 28.535L53.6172 19.002L51.2367 19.002L51.2367 21.3769L48.8533 21.3769L48.8533 19.002L46.4671 19.002Z" fill="#8B8682"/>
<rect x="43.167" y="7.6535" width="3.11119" height="43.1238" transform="rotate(45 43.167 7.6535)" fill="#8B8682"/>
</svg>
