<svg width="33" height="33" viewBox="0 0 33 33" fill="none" xmlns="http://www.w3.org/2000/svg">
<g clip-path="url(#clip0_1448_11181)">
<path d="M16.3867 10.5459H14.1006V15.0529H17.6972V16.9399H14.1006V21.4467H16.4987C17.1148 21.4467 21.5572 21.5163 21.5503 16.2031C21.5435 10.89 17.2417 10.5459 16.3867 10.5459Z" fill="#C2A633"/>
<path d="M16.0024 0.00186157C7.1658 0.00186157 0.00244141 7.16522 0.00244141 16.0019C0.00244141 24.8385 7.1658 32.0019 16.0024 32.0019C24.8391 32.0019 32.0024 24.8385 32.0024 16.0019C32.0024 7.16522 24.8391 0.00186157 16.0024 0.00186157ZM16.6311 24.6435H10.8367V16.9401H8.79412V15.0531H10.8365V7.34922H15.8096C16.9861 7.34922 24.7786 7.1049 24.7786 16.1409C24.7786 25.3263 16.6312 24.6435 16.6312 24.6435H16.6311Z" fill="#C2A633"/>
</g>
<defs>
<clipPath id="clip0_1448_11181">
<rect width="32" height="32" fill="white" transform="translate(0.00244141 0.00186157)"/>
</clipPath>
</defs>
</svg>
