<svg width="21" height="20" viewBox="0 0 21 20" fill="none" xmlns="http://www.w3.org/2000/svg">
<path id="Vector" d="M10.5 0C8.52219 0 6.58879 0.58649 4.9443 1.6853C3.29981 2.78412 2.01808 4.3459 1.26121 6.17316C0.504333 8.00043 0.3063 10.0111 0.692152 11.9509C1.078 13.8907 2.03041 15.6725 3.42894 17.0711C4.82746 18.4696 6.60929 19.422 8.5491 19.8078C10.4889 20.1937 12.4996 19.9957 14.3268 19.2388C16.1541 18.4819 17.7159 17.2002 18.8147 15.5557C19.9135 13.9112 20.5 11.9778 20.5 10C20.4975 7.34859 19.4432 4.80647 17.5684 2.93164C15.6935 1.05681 13.1514 0.00245161 10.5 0ZM10.5 17.7778C8.9617 17.7778 7.45795 17.3216 6.1789 16.467C4.89985 15.6123 3.90296 14.3976 3.31427 12.9764C2.72559 11.5552 2.57157 9.99137 2.87167 8.48263C3.17178 6.97389 3.91254 5.58802 5.00028 4.50028C6.08802 3.41254 7.47389 2.67178 8.98263 2.37167C10.4914 2.07156 12.0552 2.22559 13.4764 2.81427C14.8976 3.40295 16.1123 4.39985 16.967 5.6789C17.8216 6.95795 18.2778 8.4617 18.2778 10C18.2753 12.062 17.4551 14.0389 15.997 15.497C14.5389 16.9551 12.562 17.7753 10.5 17.7778ZM14.5741 11.8518C14.5716 12.6369 14.2587 13.3891 13.7035 13.9443C13.1484 14.4994 12.3962 14.8124 11.6111 14.8148V15.1852C11.6111 15.4799 11.494 15.7625 11.2857 15.9709C11.0773 16.1792 10.7947 16.2963 10.5 16.2963C10.2053 16.2963 9.9227 16.1792 9.71433 15.9709C9.50595 15.7625 9.38889 15.4799 9.38889 15.1852V14.8148H8.27778C7.98309 14.8148 7.70048 14.6977 7.4921 14.4894C7.28373 14.281 7.16667 13.9984 7.16667 13.7037C7.16667 13.409 7.28373 13.1264 7.4921 12.918C7.70048 12.7097 7.98309 12.5926 8.27778 12.5926H11.6111C11.8076 12.5926 11.996 12.5145 12.1349 12.3756C12.2738 12.2367 12.3519 12.0483 12.3519 11.8518C12.3519 11.6554 12.2738 11.467 12.1349 11.3281C11.996 11.1892 11.8076 11.1111 11.6111 11.1111H9.38889C8.60306 11.1111 7.84942 10.7989 7.29376 10.2433C6.7381 9.68761 6.42593 8.93397 6.42593 8.14815C6.42593 7.36232 6.7381 6.60868 7.29376 6.05302C7.84942 5.49735 8.60306 5.18518 9.38889 5.18518V4.81481C9.38889 4.52013 9.50595 4.23751 9.71433 4.02914C9.9227 3.82077 10.2053 3.7037 10.5 3.7037C10.7947 3.7037 11.0773 3.82077 11.2857 4.02914C11.494 4.23751 11.6111 4.52013 11.6111 4.81481V5.18518H12.7222C13.0169 5.18518 13.2995 5.30225 13.5079 5.51062C13.7163 5.71899 13.8333 6.00161 13.8333 6.2963C13.8333 6.59098 13.7163 6.8736 13.5079 7.08197C13.2995 7.29034 13.0169 7.40741 12.7222 7.40741H9.38889C9.19243 7.40741 9.00402 7.48545 8.86511 7.62436C8.72619 7.76328 8.64815 7.95169 8.64815 8.14815C8.64815 8.3446 8.72619 8.53301 8.86511 8.67193C9.00402 8.81085 9.19243 8.88889 9.38889 8.88889H11.6111C12.3962 8.89133 13.1484 9.20428 13.7035 9.75942C14.2587 10.3146 14.5716 11.0668 14.5741 11.8518Z" fill="#CCC4BE"/>
</svg>
