<svg width="20" height="20" viewBox="0 0 20 20" fill="none" xmlns="http://www.w3.org/2000/svg">
<g clip-path="url(#clip0_5754_816)">
<path d="M6 5.99988C5.73478 5.99988 5.48043 6.10524 5.29289 6.29277C5.10536 6.48031 5 6.73466 5 6.99988C5 7.26509 5.10536 7.51945 5.29289 7.70698C5.48043 7.89452 5.73478 7.99988 6 7.99988H7C7.26522 7.99988 7.51957 7.89452 7.70711 7.70698C7.89464 7.51945 8 7.26509 8 6.99988C8 6.73466 7.89464 6.48031 7.70711 6.29277C7.51957 6.10524 7.26522 5.99988 7 5.99988H6ZM11 17.9999H4C3.73478 17.9999 3.48043 17.8945 3.29289 17.707C3.10536 17.5194 3 17.2651 3 16.9999V2.99988C3 2.73466 3.10536 2.48031 3.29289 2.29277C3.48043 2.10523 3.73478 1.99988 4 1.99988H9V4.99988C9 5.79553 9.31607 6.55859 9.87868 7.1212C10.4413 7.68381 11.2044 7.99988 12 7.99988H15V9.99988C15 10.2651 15.1054 10.5194 15.2929 10.707C15.4804 10.8945 15.7348 10.9999 16 10.9999C16.2652 10.9999 16.5196 10.8945 16.7071 10.707C16.8946 10.5194 17 10.2651 17 9.99988V6.93988C16.9896 6.84801 16.9695 6.75751 16.94 6.66988V6.57988C16.8919 6.47706 16.8278 6.38254 16.75 6.29988L10.75 0.299878C10.6673 0.222094 10.5728 0.157959 10.47 0.109878C10.4369 0.104087 10.4031 0.104087 10.37 0.109878C10.2728 0.057881 10.1683 0.0207999 10.06 -0.00012207H4C3.20435 -0.00012207 2.44129 0.315949 1.87868 0.878558C1.31607 1.44117 1 2.20423 1 2.99988V16.9999C1 17.7955 1.31607 18.5586 1.87868 19.1212C2.44129 19.6838 3.20435 19.9999 4 19.9999H11C11.2652 19.9999 11.5196 19.8945 11.7071 19.707C11.8946 19.5194 12 19.2651 12 18.9999C12 18.7347 11.8946 18.4803 11.7071 18.2928C11.5196 18.1052 11.2652 17.9999 11 17.9999ZM11 3.40988L13.59 5.99988H12C11.7348 5.99988 11.4804 5.89452 11.2929 5.70698C11.1054 5.51945 11 5.26509 11 4.99988V3.40988ZM12 9.99988H6C5.73478 9.99988 5.48043 10.1052 5.29289 10.2928C5.10536 10.4803 5 10.7347 5 10.9999C5 11.2651 5.10536 11.5194 5.29289 11.707C5.48043 11.8945 5.73478 11.9999 6 11.9999H12C12.2652 11.9999 12.5196 11.8945 12.7071 11.707C12.8946 11.5194 13 11.2651 13 10.9999C13 10.7347 12.8946 10.4803 12.7071 10.2928C12.5196 10.1052 12.2652 9.99988 12 9.99988ZM18.71 16.2899C18.617 16.1961 18.5064 16.1218 18.3846 16.071C18.2627 16.0202 18.132 15.9941 18 15.9941C17.868 15.9941 17.7373 16.0202 17.6154 16.071C17.4936 16.1218 17.383 16.1961 17.29 16.2899L17 16.5899V13.9999C17 13.7347 16.8946 13.4803 16.7071 13.2928C16.5196 13.1052 16.2652 12.9999 16 12.9999C15.7348 12.9999 15.4804 13.1052 15.2929 13.2928C15.1054 13.4803 15 13.7347 15 13.9999V16.5899L14.71 16.2899C14.5217 16.1016 14.2663 15.9958 14 15.9958C13.7337 15.9958 13.4783 16.1016 13.29 16.2899C13.1017 16.4782 12.9959 16.7336 12.9959 16.9999C12.9959 17.2662 13.1017 17.5216 13.29 17.7099L15.29 19.7099C15.3851 19.8009 15.4972 19.8723 15.62 19.9199C15.7397 19.9728 15.8691 20.0001 16 20.0001C16.1309 20.0001 16.2603 19.9728 16.38 19.9199C16.5028 19.8723 16.6149 19.8009 16.71 19.7099L18.71 17.7099C18.8037 17.6169 18.8781 17.5063 18.9289 17.3845C18.9797 17.2626 19.0058 17.1319 19.0058 16.9999C19.0058 16.8679 18.9797 16.7372 18.9289 16.6153C18.8781 16.4934 18.8037 16.3828 18.71 16.2899ZM10 15.9999C10.2652 15.9999 10.5196 15.8945 10.7071 15.707C10.8946 15.5194 11 15.2651 11 14.9999C11 14.7347 10.8946 14.4803 10.7071 14.2928C10.5196 14.1052 10.2652 13.9999 10 13.9999H6C5.73478 13.9999 5.48043 14.1052 5.29289 14.2928C5.10536 14.4803 5 14.7347 5 14.9999C5 15.2651 5.10536 15.5194 5.29289 15.707C5.48043 15.8945 5.73478 15.9999 6 15.9999H10Z" fill="white"/>
</g>
<defs>
<clipPath id="clip0_5754_816">
<rect width="19" height="20.0002" fill="white" transform="translate(0.5 -0.00012207)"/>
</clipPath>
</defs>
</svg>
