<svg width="100" height="102" viewBox="0 0 100 102" fill="none" xmlns="http://www.w3.org/2000/svg">
<g clip-path="url(#clip0_3584_7899)">
<path d="M6.84632 1.20916H66.94C70.1787 1.20916 72.8042 3.83465 72.8042 7.07337V94.7829C72.8042 98.0216 70.1787 100.647 66.94 100.647H6.84631C3.6076 100.647 0.982106 98.0216 0.982106 94.7829V7.07337C0.982106 3.83466 3.6076 1.20916 6.84632 1.20916Z" stroke="#8B8682" stroke-width="1.82066"/>
<path d="M64.5094 17.8726H9.27734V19.5463H64.5094V17.8726Z" fill="white"/>
<path d="M64.5094 27.0781H9.27734V28.7519H64.5094V27.0781Z" fill="white"/>
<path d="M64.5094 36.2832H9.27734V37.957H64.5094V36.2832Z" fill="white"/>
<path d="M64.5094 45.4888H9.27734V47.1626H64.5094V45.4888Z" fill="white"/>
<path d="M64.5094 54.6938H9.27734V56.3676H64.5094V54.6938Z" fill="white"/>
<path d="M64.5094 63.8994H9.27734V65.5732H64.5094V63.8994Z" fill="white"/>
<path d="M27.688 73.1045H9.27734V74.7783H27.688V73.1045Z" fill="white"/>
<path d="M95.7042 23.8014L95.7042 23.8014L96.4439 24.1706C99.1293 25.5118 100.219 28.7756 98.8783 31.4605L69.7448 89.8031L59.2813 84.5779L88.4142 26.2357C89.7553 23.5503 93.0186 22.4605 95.7042 23.8014Z" fill="#2C2520" stroke="#8B8682" stroke-width="0.846818"/>
<path d="M96.4425 24.1714L96.4427 24.1715C99.1279 25.512 100.218 28.7758 98.8776 31.4615C98.8776 31.4615 98.8775 31.4615 98.8775 31.4615L69.7447 89.8037L64.7037 87.2863L96.3873 24.1439L96.4425 24.1714Z" fill="#2C2520" stroke="#8B8682" stroke-width="0.846818"/>
<path d="M69.9343 90.371L60.6249 94.9758L58.7126 84.7681L69.9343 90.371Z" fill="#8B8682"/>
<path d="M60.5559 94.6073L60.6248 94.9759L69.9342 90.3711L64.1349 87.4756L60.5559 94.6073Z" fill="#8B8682"/>
</g>
<defs>
<clipPath id="clip0_3584_7899">
<rect width="100" height="101.618" fill="white" transform="translate(0 0.190918)"/>
</clipPath>
</defs>
</svg>
