<svg width="119" height="120" viewBox="0 0 119 120" fill="none" xmlns="http://www.w3.org/2000/svg">
<g clip-path="url(#clip0_387_823)">
<path d="M8.54028 1.20226H79.5044C83.3289 1.20226 86.4294 4.30269 86.4294 8.12726V111.703C86.4294 115.527 83.3289 118.628 79.5044 118.628H8.54028C4.71571 118.628 1.61528 115.527 1.61528 111.703V8.12725C1.61528 4.30268 4.71571 1.20226 8.54028 1.20226Z" stroke="#8B8682" stroke-width="2.15"/>
<path d="M76.6341 20.88H11.411V22.8566H76.6341V20.88Z" fill="white"/>
<path d="M76.6341 31.7507H11.411V33.7273H76.6341V31.7507Z" fill="white"/>
<path d="M76.6341 42.621H11.411V44.5976H76.6341V42.621Z" fill="white"/>
<path d="M76.6341 53.4917H11.411V55.4683H76.6341V53.4917Z" fill="white"/>
<path d="M76.6341 64.362H11.411V66.3386H76.6341V64.362Z" fill="white"/>
<path d="M76.6341 75.2328H11.411V77.2093H76.6341V75.2328Z" fill="white"/>
<path d="M33.152 86.1031H11.411V88.0796H33.152V86.1031Z" fill="white"/>
<path d="M117.22 36.9258L82.8163 105.822L70.4601 99.6516L104.863 30.7557C106.447 27.5846 110.3 26.2977 113.472 27.8811L113.472 27.8811L114.345 28.3171C114.345 28.3171 114.345 28.3171 114.345 28.3172C117.516 29.901 118.803 33.7552 117.22 36.9258L117.667 37.1491L117.22 36.9258Z" fill="#2C2520" stroke="#8B8682"/>
<path d="M114.344 28.3182L114.344 28.3183C117.515 29.9013 118.802 33.7556 117.219 36.927L82.8163 105.823L76.8635 102.85L114.278 28.2856L114.344 28.3182Z" fill="#2C2520" stroke="#8B8682"/>
<path d="M83.0403 106.493L72.0469 111.931L69.7887 99.8763L83.0403 106.493Z" fill="#8B8682"/>
<path d="M71.9656 111.495L72.047 111.931L83.0403 106.493L76.1919 103.073L71.9656 111.495Z" fill="#8B8682"/>
</g>
<defs>
<clipPath id="clip0_387_823">
<rect width="118.089" height="120" fill="white" transform="translate(0.455444)"/>
</clipPath>
</defs>
</svg>
