<svg width="21" height="16" viewBox="0 0 21 16" fill="none" xmlns="http://www.w3.org/2000/svg">
<path id="Vector" d="M3.2 0H17.0667C17.9154 0 18.7293 0.337142 19.3294 0.937258C19.9295 1.53737 20.2667 2.35131 20.2667 3.2V12.8C20.2667 13.6487 19.9295 14.4626 19.3294 15.0627C18.7293 15.6629 17.9154 16 17.0667 16H3.2C2.35131 16 1.53737 15.6629 0.937258 15.0627C0.337142 14.4626 0 13.6487 0 12.8V3.2C0 2.35131 0.337142 1.53737 0.937258 0.937258C1.53737 0.337142 2.35131 0 3.2 0ZM3.2 1.06667C2.66667 1.06667 2.19733 1.248 1.83467 1.568L10.1333 6.93333L18.432 1.568C18.0693 1.248 17.6 1.06667 17.0667 1.06667H3.2ZM10.1333 8.224L1.20533 2.432C1.12 2.66667 1.06667 2.93333 1.06667 3.2V12.8C1.06667 13.3658 1.29143 13.9084 1.69151 14.3085C2.09158 14.7086 2.6342 14.9333 3.2 14.9333H17.0667C17.6325 14.9333 18.1751 14.7086 18.5752 14.3085C18.9752 13.9084 19.2 13.3658 19.2 12.8V3.2C19.2 2.93333 19.1467 2.66667 19.0613 2.432L10.1333 8.224Z" fill="white"/>
</svg>
