<svg width="14" height="16" viewBox="0 0 14 16" fill="none" xmlns="http://www.w3.org/2000/svg">
<g id="document-encryption 1" clip-path="url(#clip0_2570_38128)">
<path id="Vector" d="M10.3402 0.00524902H2.55526C1.14936 0.00524902 0.0162468 1.13836 0.0162468 2.54427V13.099C0.0162468 13.7705 0.289034 14.4 0.771657 14.8826C1.21231 15.3233 1.77887 15.5751 2.38739 15.6171H5.89166C6.20641 15.6171 6.45821 15.3652 6.45821 15.0505C6.45821 14.7357 6.20641 14.4839 5.89166 14.4839H2.55526C1.79985 14.4839 1.17035 13.8544 1.17035 13.099V2.54427C1.17035 1.78886 1.79985 1.15935 2.55526 1.15935H10.3402C11.0956 1.15935 11.7251 1.78886 11.7251 2.54427V7.18164C11.7251 7.4964 11.9769 7.7482 12.2917 7.7482C12.6064 7.7482 12.8582 7.4964 12.8582 7.18164V2.54427C12.8582 1.13836 11.7251 0.00524902 10.3402 0.00524902Z" fill="white"/>
<path id="Vector_2" d="M9.64772 3.69836H3.16379C2.84903 3.69836 2.59723 3.95017 2.59723 4.26492C2.59723 4.57968 2.84903 4.83148 3.16379 4.83148H9.64772C9.96248 4.83148 10.2143 4.57968 10.2143 4.26492C10.2353 3.95017 9.98346 3.69836 9.64772 3.69836ZM7.19264 7.20263H3.16379C2.84903 7.20263 2.59723 7.45443 2.59723 7.76918C2.59723 8.08394 2.84903 8.33574 3.16379 8.33574H7.17166C7.31854 8.33574 7.46543 8.27279 7.57035 8.16787C7.67526 8.06295 7.73821 7.91607 7.73821 7.7482C7.7592 7.45443 7.5074 7.20263 7.19264 7.20263ZM4.88444 10.7069H3.18477C2.97494 10.7069 2.78608 10.8118 2.68117 11.0007C2.57625 11.1685 2.57625 11.3993 2.68117 11.5672C2.78608 11.7351 2.97494 11.861 3.18477 11.861H4.88444C5.09428 11.861 5.28313 11.7561 5.38805 11.5672C5.49297 11.3993 5.49297 11.1685 5.38805 11.0007C5.26215 10.8328 5.0733 10.7069 4.88444 10.7069Z" fill="white"/>
<path id="Vector_3" d="M12.9002 15.9948H8.64051C8.11592 15.9948 7.71723 15.5331 7.71723 15.0085V12.0498C7.71723 11.4833 8.1369 11.0636 8.64051 11.0636H8.89231C8.89231 10.9587 8.85035 10.8118 8.85035 10.7069V10.2872C8.85035 9.25903 9.68969 8.37772 10.7599 8.37772C11.7881 8.37772 12.6694 9.21706 12.6694 10.2872V10.6439C12.6694 10.7908 12.6694 10.8957 12.6274 11.0007H12.8792C13.4038 11.0007 13.8025 11.4623 13.8025 11.9869V14.9456C13.8235 15.5751 13.4038 15.9948 12.9002 15.9948ZM10.4031 13.6026V14.4839C10.4031 14.6938 10.55 14.8407 10.7599 14.8407C10.9697 14.8407 11.1166 14.6938 11.1166 14.4839V13.6026C11.3264 13.4557 11.4733 13.2459 11.4733 12.9312C11.5153 12.5744 11.1585 12.1967 10.7389 12.1967C10.3192 12.1967 9.96248 12.5535 9.96248 12.9731C9.98346 13.2459 10.1513 13.4977 10.4031 13.6026ZM11.914 10.2872C11.914 9.65772 11.3894 9.15411 10.7808 9.15411C10.1513 9.15411 9.64772 9.6787 9.64772 10.2872V11.0636H11.9349V10.2872H11.914Z" fill="white"/>
</g>
<defs>
<clipPath id="clip0_2570_38128">
<rect width="13.8033" height="16" fill="white"/>
</clipPath>
</defs>
</svg>
