<svg width="335" height="140" viewBox="0 0 335 140" fill="none" xmlns="http://www.w3.org/2000/svg">
<g filter="url(#filter0_dd_2637_43995)">
<path d="M53.1695 70.943H22.1016V81.466H53.1695V70.943Z" fill="#433E39"/>
<g style="mix-blend-mode:multiply">
<path d="M53.1337 70.8436H46.2236V81.3115H53.1337V70.8436Z" fill="#535762"/>
</g>
<path d="M98.5084 67.1205H71.0835C69.8603 67.1205 68.8687 68.1121 68.8687 69.3353V82.8148C68.8687 84.038 69.8603 85.0296 71.0835 85.0296H98.5084C99.7316 85.0296 100.723 84.038 100.723 82.8148V69.3353C100.723 68.1121 99.7316 67.1205 98.5084 67.1205Z" fill="#776E67"/>
<g style="mix-blend-mode:multiply">
<path d="M86.4671 67.1205H71.0835C69.8603 67.1205 68.8687 68.1121 68.8687 69.3353V82.8148C68.8687 84.038 69.8603 85.0296 71.0835 85.0296H86.4671C87.6903 85.0296 88.6819 84.038 88.6819 82.8148V69.3353C88.6819 68.1121 87.6903 67.1205 86.4671 67.1205Z" fill="#535762"/>
</g>
<path d="M80.8952 61.9183H54.1567C50.8357 61.9183 48.1436 64.6105 48.1436 67.9314V84.222C48.1436 87.543 50.8357 90.2352 54.1567 90.2352H80.8952C84.2161 90.2352 86.9083 87.543 86.9083 84.222V67.9314C86.9083 64.6105 84.2161 61.9183 80.8952 61.9183Z" fill="#433E39"/>
<path fill-rule="evenodd" clip-rule="evenodd" d="M142.03 22.4201L254.262 22.4201C258.803 22.4201 263.214 22.9537 267.43 23.9589C291.387 28.495 309.505 49.5406 309.505 74.8169C309.505 75.5741 309.489 76.3275 309.457 77.0768H310.352C311.805 77.0768 312.987 75.8943 312.987 74.4411C312.987 72.9879 311.805 71.8053 310.352 71.8053H309.445C309.274 68.1473 308.748 64.5846 307.891 61.1521C308.663 63.1865 310.352 63.7878 310.352 63.7878L310.347 63.7928C316.23 63.7928 321 68.5632 321 74.4461C321 80.3289 316.23 85.0994 310.347 85.0994C310.347 85.0994 308.627 85.7071 307.868 87.7795C307.788 88.0929 307.704 88.4051 307.618 88.7162C307.606 88.7806 307.595 88.8461 307.586 88.9127L307.566 88.9011C301.431 110.644 281.447 126.58 257.742 126.58L140.451 126.58C123.782 126.58 108.954 118.697 99.4879 106.457C93.9197 99.7338 90.0577 91.6592 88.5266 82.8315V65.7353C92.7891 41.1589 115.118 22.4201 142.03 22.4201Z" fill="#34302D"/>
<path d="M254.439 50.9005C267.628 50.9005 278.361 61.629 278.361 74.8228C278.361 88.0166 267.633 98.745 254.439 98.745C241.245 98.745 230.517 88.0166 230.517 74.8228C230.517 61.629 241.245 50.9005 254.439 50.9005ZM254.439 42.883C236.8 42.883 222.499 57.1843 222.499 74.8228C222.499 92.4613 236.8 106.763 254.439 106.763C272.077 106.763 286.379 92.4613 286.379 74.8228C286.379 57.1843 272.077 42.883 254.439 42.883Z" fill="#1D1915"/>
<path d="M254.438 98.7394C267.65 98.7394 278.361 88.029 278.361 74.8171C278.361 61.6052 267.65 50.8948 254.438 50.8948C241.226 50.8948 230.516 61.6052 230.516 74.8171C230.516 88.029 241.226 98.7394 254.438 98.7394Z" fill="#34302D"/>
<path d="M160.921 60.088C160.921 59.9266 160.896 59.7832 160.846 59.6577C160.799 59.5322 160.715 59.4174 160.593 59.3134C160.471 59.2095 160.299 59.1091 160.077 59.0122C159.858 58.9118 159.578 58.8096 159.238 58.7057C158.865 58.5909 158.521 58.4636 158.205 58.3238C157.893 58.1803 157.621 58.0154 157.387 57.8289C157.154 57.6389 156.973 57.422 156.844 57.1781C156.715 56.9307 156.651 56.6456 156.651 56.3229C156.651 56.0038 156.717 55.7133 156.85 55.4516C156.986 55.1898 157.178 54.9639 157.425 54.7739C157.676 54.5802 157.972 54.4314 158.313 54.3274C158.653 54.2199 159.03 54.1661 159.442 54.1661C160.023 54.1661 160.523 54.2737 160.943 54.4888C161.366 54.704 161.69 54.9926 161.916 55.3548C162.146 55.7169 162.26 56.1167 162.26 56.5542H160.921C160.921 56.296 160.866 56.0683 160.754 55.8711C160.647 55.6703 160.482 55.5125 160.26 55.3978C160.041 55.2831 159.763 55.2257 159.426 55.2257C159.107 55.2257 158.841 55.2741 158.63 55.3709C158.418 55.4677 158.261 55.5986 158.157 55.7635C158.053 55.9285 158.001 56.1149 158.001 56.3229C158.001 56.4699 158.035 56.6044 158.103 56.7263C158.171 56.8446 158.275 56.9558 158.415 57.0598C158.555 57.1602 158.73 57.2552 158.942 57.3449C159.153 57.4345 159.403 57.5206 159.689 57.603C160.123 57.7321 160.502 57.8756 160.824 58.0333C161.147 58.1875 161.416 58.3632 161.631 58.5604C161.846 58.7576 162.008 58.9818 162.115 59.2328C162.223 59.4802 162.277 59.7617 162.277 60.0772C162.277 60.4071 162.21 60.7047 162.078 60.9701C161.945 61.2318 161.755 61.4559 161.507 61.6424C161.264 61.8253 160.97 61.9669 160.625 62.0673C160.285 62.1641 159.905 62.2125 159.485 62.2125C159.109 62.2125 158.737 62.1623 158.372 62.0619C158.01 61.9615 157.68 61.8091 157.382 61.6047C157.084 61.3968 156.848 61.1386 156.672 60.8302C156.496 60.5183 156.409 60.1543 156.409 59.7384H157.759C157.759 59.9929 157.802 60.2099 157.888 60.3892C157.977 60.5685 158.101 60.7155 158.259 60.8302C158.417 60.9414 158.599 61.0238 158.807 61.0776C159.019 61.1314 159.245 61.1583 159.485 61.1583C159.801 61.1583 160.064 61.1135 160.276 61.0238C160.491 60.9342 160.652 60.8087 160.76 60.6473C160.867 60.486 160.921 60.2995 160.921 60.088ZM165.922 54.2737V62.1049H164.572V54.2737H165.922ZM170.629 54.2737L167.455 58.0441L165.648 59.9589L165.411 58.6196L166.702 57.0275L168.983 54.2737H170.629ZM169.176 62.1049L166.6 58.3937L167.53 57.4739L170.779 62.1049H169.176ZM173.381 54.2737L175.199 58.0118L177.017 54.2737H178.513L175.877 59.222V62.1049H174.516V59.222L171.881 54.2737H173.381Z" fill="white"/>
<path d="M134.32 92.6939C134.366 92.6495 134.403 92.5963 134.428 92.5375C134.453 92.4788 134.467 92.4155 134.467 92.3515C134.468 92.2876 134.456 92.2241 134.432 92.1649C134.407 92.1056 134.372 92.0518 134.326 92.0065C134.281 91.9613 134.227 91.9255 134.168 91.9012C134.109 91.8769 134.046 91.8647 133.982 91.8653C133.918 91.8658 133.854 91.879 133.796 91.9043C133.737 91.9295 133.684 91.9662 133.639 92.0122L131.708 93.943L129.777 92.0122C129.733 91.9648 129.68 91.9269 129.62 91.9005C129.561 91.8742 129.497 91.86 129.433 91.8589C129.368 91.8577 129.304 91.8696 129.244 91.8939C129.184 91.9181 129.129 91.9542 129.084 92C129.038 92.0457 129.002 92.1002 128.977 92.1602C128.953 92.2202 128.941 92.2845 128.942 92.3492C128.944 92.4139 128.958 92.4777 128.984 92.5368C129.01 92.5959 129.048 92.6491 129.096 92.6933L131.025 94.6247L129.094 96.5555C129.009 96.6468 128.963 96.7677 128.965 96.8925C128.967 97.0173 129.018 97.1365 129.106 97.2247C129.195 97.313 129.314 97.3636 129.439 97.3658C129.563 97.368 129.684 97.3217 129.776 97.2366L131.708 95.3058L133.638 97.2372C133.73 97.3223 133.851 97.3687 133.975 97.3665C134.1 97.3643 134.219 97.3137 134.308 97.2254C134.396 97.1371 134.447 97.018 134.449 96.8931C134.451 96.7683 134.405 96.6475 134.319 96.5561L132.39 94.6247L134.32 92.6939Z" fill="white"/>
<rect x="126.61" y="89.518" width="10.1893" height="10.1893" rx="3.44232" stroke="white" stroke-width="0.826158"/>
<path d="M200.606 94.6127L202.92 96.5404L206.004 92.685" stroke="white" stroke-width="1.10154" stroke-linecap="round"/>
<rect x="198.211" y="89.518" width="10.1893" height="10.1893" rx="3.44232" stroke="white" stroke-width="0.826158"/>
</g>
<defs>
<filter id="filter0_dd_2637_43995" x="-1.03087" y="0.38914" width="335.8" height="139.409" filterUnits="userSpaceOnUse" color-interpolation-filters="sRGB">
<feFlood flood-opacity="0" result="BackgroundImageFix"/>
<feColorMatrix in="SourceAlpha" type="matrix" values="0 0 0 0 0 0 0 0 0 0 0 0 0 0 0 0 0 0 127 0" result="hardAlpha"/>
<feOffset dx="2.75386" dy="2.20309"/>
<feGaussianBlur stdDeviation="5.50772"/>
<feComposite in2="hardAlpha" operator="out"/>
<feColorMatrix type="matrix" values="0 0 0 0 0 0 0 0 0 0 0 0 0 0 0 0 0 0 0.41 0"/>
<feBlend mode="normal" in2="BackgroundImageFix" result="effect1_dropShadow_2637_43995"/>
<feColorMatrix in="SourceAlpha" type="matrix" values="0 0 0 0 0 0 0 0 0 0 0 0 0 0 0 0 0 0 127 0" result="hardAlpha"/>
<feOffset dx="-5.50772" dy="-5.50772"/>
<feGaussianBlur stdDeviation="8.26158"/>
<feComposite in2="hardAlpha" operator="out"/>
<feColorMatrix type="matrix" values="0 0 0 0 0.0916667 0 0 0 0 0.0758333 0 0 0 0 0.0626389 0 0 0 1 0"/>
<feBlend mode="normal" in2="effect1_dropShadow_2637_43995" result="effect2_dropShadow_2637_43995"/>
<feBlend mode="normal" in="SourceGraphic" in2="effect2_dropShadow_2637_43995" result="shape"/>
</filter>
</defs>
</svg>
