<svg width="335" height="140" viewBox="0 0 335 140" fill="none" xmlns="http://www.w3.org/2000/svg">
<g filter="url(#filter0_dd_2637_42998)">
<path d="M53.1695 70.943H22.1016V81.466H53.1695V70.943Z" fill="#433E39"/>
<g style="mix-blend-mode:multiply">
<path d="M53.1337 70.8436H46.2236V81.3115H53.1337V70.8436Z" fill="#535762"/>
</g>
<path d="M98.5084 67.1205H71.0835C69.8603 67.1205 68.8687 68.1121 68.8687 69.3353V82.8148C68.8687 84.038 69.8603 85.0296 71.0835 85.0296H98.5084C99.7316 85.0296 100.723 84.038 100.723 82.8148V69.3353C100.723 68.1121 99.7316 67.1205 98.5084 67.1205Z" fill="#776E67"/>
<g style="mix-blend-mode:multiply">
<path d="M86.4671 67.1205H71.0835C69.8603 67.1205 68.8687 68.1121 68.8687 69.3353V82.8148C68.8687 84.038 69.8603 85.0296 71.0835 85.0296H86.4671C87.6903 85.0296 88.6819 84.038 88.6819 82.8148V69.3353C88.6819 68.1121 87.6903 67.1205 86.4671 67.1205Z" fill="#535762"/>
</g>
<path d="M80.8952 61.9183H54.1567C50.8357 61.9183 48.1436 64.6105 48.1436 67.9314V84.2221C48.1436 87.543 50.8357 90.2352 54.1567 90.2352H80.8952C84.2161 90.2352 86.9083 87.543 86.9083 84.2221V67.9314C86.9083 64.6105 84.2161 61.9183 80.8952 61.9183Z" fill="#433E39"/>
<path fill-rule="evenodd" clip-rule="evenodd" d="M142.031 22.4201L254.262 22.4201C258.803 22.4201 263.214 22.9537 267.43 23.9589C291.387 28.495 309.505 49.5406 309.505 74.8169C309.505 75.5741 309.489 76.3276 309.457 77.0769H310.352C311.805 77.0769 312.988 75.8943 312.988 74.4411C312.988 72.9879 311.805 71.8053 310.352 71.8053H309.445C309.275 68.1473 308.748 64.5846 307.892 61.1521C308.663 63.1865 310.352 63.7878 310.352 63.7878L310.347 63.7928C316.23 63.7928 321 68.5633 321 74.4461C321 80.329 316.23 85.0994 310.347 85.0994C310.347 85.0994 308.628 85.7071 307.869 87.7795C307.788 88.0929 307.704 88.4051 307.618 88.7162C307.606 88.7806 307.596 88.8461 307.586 88.9127L307.566 88.9011C301.432 110.644 281.448 126.58 257.742 126.58L140.451 126.58C123.782 126.58 108.954 118.697 99.4881 106.457C93.92 99.7338 90.0579 91.6593 88.5269 82.8315V65.7353C92.7893 41.1589 115.118 22.4201 142.031 22.4201Z" fill="#34302D"/>
<path d="M254.439 50.9006C267.628 50.9006 278.361 61.629 278.361 74.8228C278.361 88.0166 267.633 98.7451 254.439 98.7451C241.245 98.7451 230.517 88.0166 230.517 74.8228C230.517 61.629 241.245 50.9006 254.439 50.9006ZM254.439 42.8831C236.8 42.8831 222.499 57.1843 222.499 74.8228C222.499 92.4614 236.8 106.763 254.439 106.763C272.077 106.763 286.379 92.4614 286.379 74.8228C286.379 57.1843 272.077 42.8831 254.439 42.8831Z" fill="#1D1915"/>
<path d="M254.438 98.7394C267.65 98.7394 278.361 88.0291 278.361 74.8171C278.361 61.6052 267.65 50.8949 254.438 50.8949C241.226 50.8949 230.516 61.6052 230.516 74.8171C230.516 88.0291 241.226 98.7394 254.438 98.7394Z" fill="#34302D"/>
<path d="M157.137 52.5945V60.4526H155.84V54.1327L153.92 54.7836V53.7132L156.981 52.5945H157.137ZM166.209 59.4199V60.4526H160.96V59.5652L163.509 56.7844C163.789 56.4689 164.009 56.1963 164.171 55.9669C164.332 55.7374 164.445 55.5312 164.51 55.3483C164.578 55.1619 164.612 54.9808 164.612 54.8051C164.612 54.5577 164.565 54.3407 164.472 54.1543C164.382 53.9642 164.25 53.8154 164.074 53.7078C163.898 53.5967 163.685 53.5411 163.434 53.5411C163.144 53.5411 162.9 53.6038 162.702 53.7293C162.505 53.8548 162.356 54.0288 162.256 54.2511C162.156 54.4698 162.105 54.7208 162.105 55.0041H160.809C160.809 54.5487 160.913 54.1327 161.121 53.7562C161.329 53.3762 161.63 53.0749 162.025 52.8526C162.419 52.6267 162.894 52.5138 163.45 52.5138C163.974 52.5138 164.418 52.6016 164.784 52.7773C165.15 52.953 165.428 53.2022 165.618 53.525C165.811 53.8477 165.908 54.2296 165.908 54.6706C165.908 54.9144 165.869 55.1565 165.79 55.3967C165.711 55.637 165.598 55.8772 165.451 56.1175C165.308 56.3541 165.137 56.5926 164.94 56.8328C164.743 57.0695 164.526 57.3097 164.289 57.5536L162.595 59.4199H166.209ZM173.717 57.6611V58.6938H168.069L168.026 57.9139L171.404 52.6214H172.442L171.318 54.5469L169.376 57.6611H173.717ZM172.738 52.6214V60.4526H171.442V52.6214H172.738ZM177.045 56.8113L176.012 56.5585L176.437 52.6214H180.66V53.7186H177.513L177.298 55.6388C177.42 55.567 177.588 55.4971 177.804 55.429C178.019 55.3573 178.264 55.3214 178.54 55.3214C178.91 55.3214 179.24 55.3824 179.53 55.5043C179.824 55.6226 180.073 55.7965 180.278 56.026C180.482 56.2519 180.638 56.528 180.746 56.8543C180.853 57.1771 180.907 57.541 180.907 57.9462C180.907 58.3084 180.853 58.6472 180.746 58.9628C180.642 59.2783 180.484 59.5562 180.272 59.7964C180.061 60.0367 179.794 60.2249 179.471 60.3612C179.152 60.4939 178.773 60.5602 178.336 60.5602C178.01 60.5602 177.696 60.5136 177.395 60.4204C177.097 60.3235 176.83 60.1819 176.593 59.9955C176.357 59.8054 176.167 59.5723 176.023 59.2962C175.88 59.0165 175.797 58.6956 175.776 58.3335H177.045C177.077 58.588 177.147 58.805 177.255 58.9843C177.366 59.16 177.513 59.2944 177.696 59.3877C177.879 59.4809 178.09 59.5275 178.331 59.5275C178.549 59.5275 178.738 59.4899 178.895 59.4146C179.053 59.3357 179.184 59.2245 179.288 59.0811C179.396 58.9341 179.474 58.762 179.525 58.5647C179.578 58.3675 179.605 58.1488 179.605 57.9085C179.605 57.6791 179.575 57.4693 179.514 57.2792C179.457 57.0892 179.369 56.9243 179.25 56.7844C179.136 56.6446 178.99 56.537 178.815 56.4617C178.639 56.3828 178.436 56.3434 178.207 56.3434C177.899 56.3434 177.662 56.3882 177.497 56.4778C177.336 56.5675 177.185 56.6786 177.045 56.8113Z" fill="white"/>
<path d="M134.321 92.6939C134.367 92.6495 134.403 92.5963 134.429 92.5375C134.454 92.4788 134.467 92.4155 134.468 92.3515C134.468 92.2876 134.456 92.2241 134.432 92.1649C134.408 92.1056 134.372 92.0518 134.327 92.0065C134.282 91.9613 134.228 91.9255 134.169 91.9012C134.109 91.8769 134.046 91.8647 133.982 91.8653C133.918 91.8658 133.855 91.879 133.796 91.9043C133.737 91.9295 133.684 91.9662 133.64 92.0122L131.708 93.943L129.777 92.0122C129.733 91.9648 129.68 91.9269 129.621 91.9005C129.562 91.8742 129.498 91.86 129.433 91.8589C129.369 91.8577 129.304 91.8696 129.244 91.8939C129.184 91.9181 129.13 91.9542 129.084 92C129.038 92.0457 129.002 92.1002 128.978 92.1602C128.954 92.2202 128.942 92.2845 128.943 92.3492C128.944 92.4139 128.958 92.4777 128.985 92.5368C129.011 92.5959 129.049 92.6491 129.096 92.6933L131.026 94.6247L129.095 96.5555C129.01 96.6468 128.963 96.7677 128.966 96.8925C128.968 97.0173 129.018 97.1365 129.107 97.2247C129.195 97.313 129.314 97.3636 129.439 97.3658C129.564 97.368 129.685 97.3217 129.776 97.2366L131.708 95.3058L133.639 97.2372C133.73 97.3223 133.851 97.3687 133.976 97.3665C134.101 97.3643 134.22 97.3137 134.308 97.2254C134.396 97.1371 134.447 97.018 134.449 96.8931C134.451 96.7683 134.405 96.6475 134.32 96.5561L132.39 94.6247L134.321 92.6939Z" fill="white"/>
<rect x="126.611" y="89.518" width="10.1893" height="10.1893" rx="3.44232" stroke="white" stroke-width="0.826158"/>
<rect x="160.346" y="87.4526" width="14.3201" height="14.3201" rx="3.8554" fill="white"/>
<path d="M169.955 97.2142V98.6127H164.49V97.4294L167.007 94.7831C167.229 94.5285 167.409 94.3008 167.545 94.1C167.681 93.8956 167.78 93.7109 167.841 93.546C167.905 93.381 167.938 93.2322 167.938 93.0996C167.938 92.8737 167.904 92.6854 167.835 92.5348C167.771 92.3806 167.674 92.2641 167.545 92.1852C167.419 92.1063 167.264 92.0669 167.077 92.0669C166.891 92.0669 166.727 92.1206 166.588 92.2282C166.448 92.3358 166.338 92.4828 166.26 92.6693C166.184 92.8557 166.147 93.0655 166.147 93.2986H164.329C164.329 92.8181 164.445 92.3788 164.678 91.9808C164.915 91.5828 165.243 91.2654 165.662 91.0288C166.082 90.7885 166.568 90.6684 167.12 90.6684C167.697 90.6684 168.181 90.7581 168.572 90.9373C168.963 91.1166 169.257 91.3766 169.454 91.7173C169.655 92.0543 169.756 92.4613 169.756 92.9382C169.756 93.2107 169.713 93.4725 169.627 93.7235C169.54 93.9745 169.417 94.2237 169.255 94.4711C169.094 94.7149 168.897 94.9659 168.664 95.2241C168.434 95.4823 168.173 95.7566 167.878 96.047L166.867 97.2142H169.955Z" fill="#34302D"/>
<path d="M200.607 94.6127L202.921 96.5404L206.005 92.685" stroke="white" stroke-width="1.10154" stroke-linecap="round"/>
<rect x="198.211" y="89.518" width="10.1893" height="10.1893" rx="3.44232" stroke="white" stroke-width="0.826158"/>
</g>
<defs>
<filter id="filter0_dd_2637_42998" x="-1.03087" y="0.38914" width="335.8" height="139.409" filterUnits="userSpaceOnUse" color-interpolation-filters="sRGB">
<feFlood flood-opacity="0" result="BackgroundImageFix"/>
<feColorMatrix in="SourceAlpha" type="matrix" values="0 0 0 0 0 0 0 0 0 0 0 0 0 0 0 0 0 0 127 0" result="hardAlpha"/>
<feOffset dx="2.75386" dy="2.20309"/>
<feGaussianBlur stdDeviation="5.50772"/>
<feComposite in2="hardAlpha" operator="out"/>
<feColorMatrix type="matrix" values="0 0 0 0 0 0 0 0 0 0 0 0 0 0 0 0 0 0 0.41 0"/>
<feBlend mode="normal" in2="BackgroundImageFix" result="effect1_dropShadow_2637_42998"/>
<feColorMatrix in="SourceAlpha" type="matrix" values="0 0 0 0 0 0 0 0 0 0 0 0 0 0 0 0 0 0 127 0" result="hardAlpha"/>
<feOffset dx="-5.50772" dy="-5.50772"/>
<feGaussianBlur stdDeviation="8.26158"/>
<feComposite in2="hardAlpha" operator="out"/>
<feColorMatrix type="matrix" values="0 0 0 0 0.0916667 0 0 0 0 0.0758333 0 0 0 0 0.0626389 0 0 0 1 0"/>
<feBlend mode="normal" in2="effect1_dropShadow_2637_42998" result="effect2_dropShadow_2637_42998"/>
<feBlend mode="normal" in="SourceGraphic" in2="effect2_dropShadow_2637_42998" result="shape"/>
</filter>
</defs>
</svg>
