<svg width="335" height="141" viewBox="0 0 335 141" fill="none" xmlns="http://www.w3.org/2000/svg">
<g filter="url(#filter0_dd_2637_46936)">
<path d="M53.1695 71.443H22.1016V81.966H53.1695V71.443Z" fill="#433E39"/>
<g style="mix-blend-mode:multiply">
<path d="M53.1337 71.3436H46.2236V81.8115H53.1337V71.3436Z" fill="#535762"/>
</g>
<path d="M98.5088 67.6205H71.084C69.8607 67.6205 68.8691 68.6121 68.8691 69.8353V83.3148C68.8691 84.538 69.8607 85.5296 71.084 85.5296H98.5088C99.7321 85.5296 100.724 84.538 100.724 83.3148V69.8353C100.724 68.6121 99.7321 67.6205 98.5088 67.6205Z" fill="#776E67"/>
<g style="mix-blend-mode:multiply">
<path d="M86.4676 67.6205H71.084C69.8607 67.6205 68.8691 68.6121 68.8691 69.8353V83.3148C68.8691 84.538 69.8607 85.5296 71.084 85.5296H86.4676C87.6908 85.5296 88.6824 84.538 88.6824 83.3148V69.8353C88.6824 68.6121 87.6908 67.6205 86.4676 67.6205Z" fill="#535762"/>
</g>
<path d="M80.8952 62.4183H54.1567C50.8357 62.4183 48.1436 65.1105 48.1436 68.4314V84.722C48.1436 88.043 50.8357 90.7352 54.1567 90.7352H80.8952C84.2161 90.7352 86.9083 88.043 86.9083 84.722V68.4314C86.9083 65.1105 84.2161 62.4183 80.8952 62.4183Z" fill="#433E39"/>
<path fill-rule="evenodd" clip-rule="evenodd" d="M142.03 22.9201L254.262 22.9201C258.803 22.9201 263.214 23.4537 267.43 24.4589C291.387 28.995 309.505 50.0406 309.505 75.3169C309.505 76.0741 309.488 76.8276 309.456 77.5769H310.351C311.805 77.5769 312.987 76.3943 312.987 74.9411C312.987 73.4879 311.805 72.3053 310.351 72.3053H309.444C309.274 68.6473 308.748 65.0846 307.891 61.6521C308.663 63.6865 310.351 64.2878 310.351 64.2878L310.346 64.2928C316.229 64.2928 321 69.0633 321 74.9461C321 80.829 316.229 85.5994 310.346 85.5994C310.346 85.5994 308.627 86.2071 307.868 88.2795C307.787 88.5929 307.704 88.9051 307.617 89.2162C307.606 89.2806 307.595 89.3461 307.585 89.4127L307.565 89.4011C301.431 111.144 281.447 127.08 257.742 127.08L140.451 127.08C123.781 127.08 108.954 119.197 99.4876 106.957C93.9195 100.234 90.0574 92.1593 88.5264 83.3315V66.2353C92.7888 41.6589 115.118 22.9201 142.03 22.9201Z" fill="#34302D"/>
<path d="M254.439 51.4006C267.628 51.4006 278.361 62.129 278.361 75.3228C278.361 88.5166 267.633 99.2451 254.439 99.2451C241.245 99.2451 230.517 88.5166 230.517 75.3228C230.517 62.129 241.245 51.4006 254.439 51.4006ZM254.439 43.3831C236.8 43.3831 222.499 57.6843 222.499 75.3228C222.499 92.9614 236.8 107.263 254.439 107.263C272.077 107.263 286.379 92.9614 286.379 75.3228C286.379 57.6843 272.077 43.3831 254.439 43.3831Z" fill="#1D1915"/>
<path d="M254.438 99.2394C267.65 99.2394 278.36 88.5291 278.36 75.3171C278.36 62.1052 267.65 51.3949 254.438 51.3949C241.226 51.3949 230.516 62.1052 230.516 75.3171C230.516 88.5291 241.226 99.2394 254.438 99.2394Z" fill="#34302D"/>
<path d="M133.264 59.1938L134.824 53.1214H135.641L135.55 54.6865L133.883 60.9526H133.033L133.264 59.1938ZM132.097 53.1214L133.361 59.1454L133.474 60.9526H132.57L130.758 53.1214H132.097ZM137.411 59.1293L138.659 53.1214H140.004L138.191 60.9526H137.287L137.411 59.1293ZM135.959 53.1214L137.502 59.21L137.728 60.9526H136.879L135.238 54.6865L135.152 53.1214H135.959ZM145.075 59.7855V57.0101C145.075 56.8021 145.037 56.6228 144.962 56.4722C144.886 56.3216 144.772 56.2051 144.617 56.1226C144.467 56.0402 144.277 55.9989 144.047 55.9989C143.836 55.9989 143.653 56.0348 143.499 56.1065C143.344 56.1782 143.224 56.275 143.138 56.3969C143.052 56.5189 143.009 56.6569 143.009 56.8111H141.718C141.718 56.5816 141.774 56.3593 141.885 56.1441C141.996 55.929 142.158 55.7372 142.369 55.5686C142.581 55.4001 142.833 55.2674 143.127 55.1706C143.421 55.0738 143.751 55.0254 144.117 55.0254C144.555 55.0254 144.942 55.0989 145.279 55.2459C145.62 55.3929 145.887 55.6152 146.08 55.9129C146.278 56.2069 146.376 56.5762 146.376 57.0209V59.608C146.376 59.8733 146.394 60.1118 146.43 60.3233C146.469 60.5313 146.525 60.7124 146.597 60.8666V60.9526H145.268C145.207 60.8128 145.159 60.6353 145.123 60.4202C145.091 60.2014 145.075 59.9899 145.075 59.7855ZM145.263 57.4135L145.274 58.2149H144.343C144.103 58.2149 143.891 58.2382 143.708 58.2848C143.525 58.3279 143.373 58.3924 143.251 58.4785C143.129 58.5645 143.038 58.6685 142.977 58.7904C142.916 58.9123 142.885 59.0504 142.885 59.2046C142.885 59.3588 142.921 59.5004 142.993 59.6295C143.065 59.755 143.169 59.8536 143.305 59.9253C143.445 59.997 143.613 60.0329 143.811 60.0329C144.076 60.0329 144.307 59.9791 144.504 59.8715C144.705 59.7604 144.863 59.6259 144.978 59.4681C145.092 59.3068 145.153 59.1544 145.161 59.011L145.58 59.5865C145.537 59.7335 145.464 59.8913 145.36 60.0598C145.256 60.2283 145.119 60.3897 144.951 60.5439C144.786 60.6945 144.587 60.8182 144.354 60.915C144.124 61.0118 143.859 61.0602 143.558 61.0602C143.178 61.0602 142.839 60.9849 142.541 60.8343C142.244 60.6801 142.01 60.4739 141.842 60.2158C141.673 59.954 141.589 59.6582 141.589 59.3283C141.589 59.0199 141.647 58.7474 141.761 58.5107C141.88 58.2705 142.052 58.0697 142.278 57.9083C142.507 57.747 142.787 57.6251 143.117 57.5426C143.447 57.4565 143.823 57.4135 144.246 57.4135H145.263ZM150.221 52.6911V60.9526H148.919V52.6911H150.221ZM154.13 52.6911V60.9526H152.828V52.6911H154.13ZM159.217 61.0602C158.787 61.0602 158.398 60.9903 158.05 60.8504C157.706 60.707 157.412 60.508 157.168 60.2534C156.928 59.9988 156.743 59.6994 156.614 59.3552C156.485 59.011 156.42 58.6398 156.42 58.2418V58.0267C156.42 57.5713 156.487 57.1589 156.619 56.7896C156.752 56.4202 156.937 56.1047 157.173 55.8429C157.41 55.5776 157.69 55.375 158.012 55.2352C158.335 55.0953 158.685 55.0254 159.061 55.0254C159.477 55.0254 159.841 55.0953 160.153 55.2352C160.465 55.375 160.723 55.5722 160.927 55.8268C161.135 56.0778 161.29 56.3772 161.39 56.725C161.494 57.0729 161.546 57.4565 161.546 57.8761V58.4301H157.05V57.4996H160.266V57.3974C160.259 57.1643 160.212 56.9456 160.126 56.7412C160.044 56.5368 159.916 56.3718 159.744 56.2463C159.572 56.1208 159.343 56.0581 159.056 56.0581C158.841 56.0581 158.649 56.1047 158.48 56.1979C158.315 56.2876 158.177 56.4185 158.066 56.5906C157.955 56.7627 157.869 56.9707 157.808 57.2145C157.751 57.4547 157.722 57.7255 157.722 58.0267V58.2418C157.722 58.4964 157.756 58.7331 157.824 58.9518C157.896 59.1669 158 59.3552 158.136 59.5165C158.272 59.6779 158.437 59.8052 158.631 59.8984C158.824 59.9881 159.045 60.0329 159.292 60.0329C159.604 60.0329 159.882 59.9701 160.126 59.8446C160.37 59.7191 160.581 59.5416 160.761 59.3122L161.444 59.9737C161.318 60.1566 161.155 60.3323 160.954 60.5008C160.754 60.6658 160.508 60.8002 160.218 60.9042C159.931 61.0082 159.597 61.0602 159.217 61.0602ZM166.327 55.133V56.0796H163.046V55.133H166.327ZM163.992 53.7076H165.288V59.3444C165.288 59.5237 165.314 59.6618 165.364 59.7586C165.418 59.8518 165.491 59.9146 165.584 59.9468C165.678 59.9791 165.787 59.9952 165.912 59.9952C166.002 59.9952 166.088 59.9899 166.171 59.9791C166.253 59.9683 166.319 59.9576 166.37 59.9468L166.375 60.9365C166.267 60.9688 166.142 60.9975 165.998 61.0226C165.859 61.0477 165.697 61.0602 165.514 61.0602C165.217 61.0602 164.953 61.0082 164.724 60.9042C164.494 60.7967 164.315 60.6227 164.186 60.3825C164.057 60.1423 163.992 59.8231 163.992 59.4251V53.7076ZM178.615 53.1214V60.9526H177.265L173.752 55.3427V60.9526H172.402V53.1214H173.752L177.275 58.742V53.1214H178.615ZM184.476 59.7855V57.0101C184.476 56.8021 184.439 56.6228 184.363 56.4722C184.288 56.3216 184.173 56.2051 184.019 56.1226C183.868 56.0402 183.678 55.9989 183.449 55.9989C183.237 55.9989 183.054 56.0348 182.9 56.1065C182.746 56.1782 182.626 56.275 182.54 56.3969C182.454 56.5189 182.411 56.6569 182.411 56.8111H181.12C181.12 56.5816 181.176 56.3593 181.287 56.1441C181.398 55.929 181.559 55.7372 181.771 55.5686C181.982 55.4001 182.235 55.2674 182.529 55.1706C182.823 55.0738 183.153 55.0254 183.519 55.0254C183.956 55.0254 184.344 55.0989 184.681 55.2459C185.021 55.3929 185.288 55.6152 185.482 55.9129C185.679 56.2069 185.778 56.5762 185.778 57.0209V59.608C185.778 59.8733 185.796 60.1118 185.832 60.3233C185.871 60.5313 185.927 60.7124 185.998 60.8666V60.9526H184.67C184.609 60.8128 184.56 60.6353 184.525 60.4202C184.492 60.2014 184.476 59.9899 184.476 59.7855ZM184.664 57.4135L184.675 58.2149H183.745C183.504 58.2149 183.293 58.2382 183.11 58.2848C182.927 58.3279 182.775 58.3924 182.653 58.4785C182.531 58.5645 182.44 58.6685 182.379 58.7904C182.318 58.9123 182.287 59.0504 182.287 59.2046C182.287 59.3588 182.323 59.5004 182.395 59.6295C182.466 59.755 182.57 59.8536 182.707 59.9253C182.846 59.997 183.015 60.0329 183.212 60.0329C183.478 60.0329 183.709 59.9791 183.906 59.8715C184.107 59.7604 184.265 59.6259 184.379 59.4681C184.494 59.3068 184.555 59.1544 184.562 59.011L184.982 59.5865C184.939 59.7335 184.865 59.8913 184.761 60.0598C184.657 60.2283 184.521 60.3897 184.353 60.5439C184.188 60.6945 183.989 60.8182 183.755 60.915C183.526 61.0118 183.261 61.0602 182.959 61.0602C182.579 61.0602 182.24 60.9849 181.943 60.8343C181.645 60.6801 181.412 60.4739 181.244 60.2158C181.075 59.954 180.991 59.6582 180.991 59.3283C180.991 59.0199 181.048 58.7474 181.163 58.5107C181.281 58.2705 181.453 58.0697 181.679 57.9083C181.909 57.747 182.189 57.6251 182.518 57.5426C182.848 57.4565 183.225 57.4135 183.648 57.4135H184.664ZM189.531 56.3163V60.9526H188.235V55.133H189.456L189.531 56.3163ZM189.321 57.8277L188.88 57.8223C188.88 57.4207 188.93 57.0495 189.031 56.7089C189.131 56.3683 189.278 56.0724 189.472 55.8214C189.666 55.5668 189.906 55.3714 190.193 55.2352C190.483 55.0953 190.818 55.0254 191.198 55.0254C191.464 55.0254 191.706 55.0648 191.925 55.1437C192.147 55.219 192.339 55.3391 192.5 55.5041C192.665 55.669 192.791 55.8806 192.877 56.1388C192.966 56.3969 193.011 56.7089 193.011 57.0746V60.9526H191.715V57.1876C191.715 56.9043 191.672 56.682 191.586 56.5206C191.503 56.3593 191.383 56.2445 191.225 56.1764C191.071 56.1047 190.886 56.0688 190.671 56.0688C190.427 56.0688 190.22 56.1155 190.047 56.2087C189.879 56.3019 189.741 56.4292 189.633 56.5906C189.526 56.7519 189.447 56.9384 189.397 57.1499C189.346 57.3615 189.321 57.5874 189.321 57.8277ZM192.93 57.4834L192.323 57.6179C192.323 57.2665 192.371 56.9348 192.468 56.6228C192.568 56.3073 192.713 56.0312 192.903 55.7945C193.097 55.5543 193.336 55.366 193.619 55.2298C193.902 55.0935 194.227 55.0254 194.592 55.0254C194.89 55.0254 195.155 55.0666 195.388 55.1491C195.625 55.228 195.826 55.3535 195.991 55.5256C196.156 55.6977 196.281 55.9218 196.367 56.1979C196.453 56.4704 196.496 56.8003 196.496 57.1876V60.9526H195.195V57.1822C195.195 56.8882 195.152 56.6605 195.066 56.4991C194.983 56.3378 194.865 56.2266 194.711 56.1657C194.556 56.1011 194.372 56.0688 194.157 56.0688C193.956 56.0688 193.778 56.1065 193.624 56.1818C193.474 56.2535 193.346 56.3557 193.242 56.4884C193.138 56.6175 193.059 56.7663 193.006 56.9348C192.955 57.1033 192.93 57.2862 192.93 57.4834ZM201.497 61.0602C201.067 61.0602 200.678 60.9903 200.33 60.8504C199.986 60.707 199.692 60.508 199.448 60.2534C199.208 59.9988 199.023 59.6994 198.894 59.3552C198.765 59.011 198.701 58.6398 198.701 58.2418V58.0267C198.701 57.5713 198.767 57.1589 198.9 56.7896C199.032 56.4202 199.217 56.1047 199.454 55.8429C199.69 55.5776 199.97 55.375 200.293 55.2352C200.615 55.0953 200.965 55.0254 201.341 55.0254C201.757 55.0254 202.121 55.0953 202.433 55.2352C202.745 55.375 203.003 55.5722 203.208 55.8268C203.416 56.0778 203.57 56.3772 203.67 56.725C203.774 57.0729 203.826 57.4565 203.826 57.8761V58.4301L199.33 58.4301V57.4996L202.546 57.4996V57.3974C202.539 57.1643 202.492 56.9456 202.406 56.7412C202.324 56.5368 202.197 56.3718 202.025 56.2463C201.852 56.1208 201.623 56.0581 201.336 56.0581C201.121 56.0581 200.929 56.1047 200.761 56.1979C200.596 56.2876 200.458 56.4185 200.346 56.5906C200.235 56.7627 200.149 56.9707 200.088 57.2145C200.031 57.4547 200.002 57.7255 200.002 58.0267V58.2418C200.002 58.4964 200.036 58.7331 200.104 58.9518C200.176 59.1669 200.28 59.3552 200.416 59.5165C200.553 59.6779 200.718 59.8052 200.911 59.8984C201.105 59.9881 201.325 60.0329 201.573 60.0329C201.885 60.0329 202.163 59.9701 202.406 59.8446C202.65 59.7191 202.862 59.5416 203.041 59.3122L203.724 59.9737C203.599 60.1566 203.436 60.3323 203.235 60.5008C203.034 60.6658 202.788 60.8002 202.498 60.9042C202.211 61.0082 201.878 61.0602 201.497 61.0602Z" fill="white"/>
<path d="M134.32 93.1939C134.366 93.1495 134.403 93.0963 134.428 93.0375C134.453 92.9788 134.467 92.9155 134.467 92.8515C134.468 92.7876 134.456 92.7241 134.432 92.6649C134.407 92.6056 134.372 92.5518 134.326 92.5065C134.281 92.4613 134.227 92.4255 134.168 92.4012C134.109 92.3769 134.046 92.3647 133.982 92.3653C133.918 92.3658 133.854 92.379 133.796 92.4043C133.737 92.4295 133.684 92.4662 133.639 92.5122L131.708 94.443L129.777 92.5122C129.733 92.4648 129.68 92.4269 129.62 92.4005C129.561 92.3742 129.497 92.36 129.433 92.3589C129.368 92.3577 129.304 92.3696 129.244 92.3939C129.184 92.4181 129.129 92.4542 129.084 92.5C129.038 92.5457 129.002 92.6002 128.977 92.6602C128.953 92.7202 128.941 92.7845 128.942 92.8492C128.944 92.9139 128.958 92.9777 128.984 93.0368C129.01 93.0959 129.048 93.1491 129.096 93.1933L131.025 95.1247L129.094 97.0555C129.009 97.1468 128.963 97.2677 128.965 97.3925C128.967 97.5173 129.018 97.6365 129.106 97.7247C129.195 97.813 129.314 97.8636 129.439 97.8658C129.563 97.868 129.684 97.8217 129.776 97.7366L131.708 95.8058L133.638 97.7372C133.73 97.8223 133.851 97.8687 133.975 97.8665C134.1 97.8643 134.219 97.8137 134.308 97.7254C134.396 97.6371 134.447 97.518 134.449 97.3931C134.451 97.2683 134.405 97.1475 134.319 97.0561L132.39 95.1247L134.32 93.1939Z" fill="white"/>
<rect x="126.61" y="90.018" width="10.1893" height="10.1893" rx="3.44232" stroke="white" stroke-width="0.826158"/>
<rect x="160.345" y="87.9526" width="14.3201" height="14.3201" rx="3.8554" fill="white"/>
<path d="M167.421 92.9272L165.511 99.1127H163.483L166.361 91.2814H167.646L167.421 92.9272ZM169.002 99.1127L167.087 92.9272L166.84 91.2814H168.141L171.035 99.1127H169.002ZM168.927 96.1921V97.6497H164.909V96.1921H168.927Z" fill="#34302D"/>
<path d="M200.606 95.1127L202.92 97.0404L206.004 93.185" stroke="white" stroke-width="1.10154" stroke-linecap="round"/>
<rect x="198.211" y="90.018" width="10.1893" height="10.1893" rx="3.44232" stroke="white" stroke-width="0.826158"/>
</g>
<defs>
<filter id="filter0_dd_2637_46936" x="-1.03087" y="0.88914" width="335.8" height="139.409" filterUnits="userSpaceOnUse" color-interpolation-filters="sRGB">
<feFlood flood-opacity="0" result="BackgroundImageFix"/>
<feColorMatrix in="SourceAlpha" type="matrix" values="0 0 0 0 0 0 0 0 0 0 0 0 0 0 0 0 0 0 127 0" result="hardAlpha"/>
<feOffset dx="2.75386" dy="2.20309"/>
<feGaussianBlur stdDeviation="5.50772"/>
<feComposite in2="hardAlpha" operator="out"/>
<feColorMatrix type="matrix" values="0 0 0 0 0 0 0 0 0 0 0 0 0 0 0 0 0 0 0.41 0"/>
<feBlend mode="normal" in2="BackgroundImageFix" result="effect1_dropShadow_2637_46936"/>
<feColorMatrix in="SourceAlpha" type="matrix" values="0 0 0 0 0 0 0 0 0 0 0 0 0 0 0 0 0 0 127 0" result="hardAlpha"/>
<feOffset dx="-5.50772" dy="-5.50772"/>
<feGaussianBlur stdDeviation="8.26158"/>
<feComposite in2="hardAlpha" operator="out"/>
<feColorMatrix type="matrix" values="0 0 0 0 0.0916667 0 0 0 0 0.0758333 0 0 0 0 0.0626389 0 0 0 1 0"/>
<feBlend mode="normal" in2="effect1_dropShadow_2637_46936" result="effect2_dropShadow_2637_46936"/>
<feBlend mode="normal" in="SourceGraphic" in2="effect2_dropShadow_2637_46936" result="shape"/>
</filter>
</defs>
</svg>
