<svg width="335" height="140" viewBox="0 0 335 140" fill="none" xmlns="http://www.w3.org/2000/svg">
<g filter="url(#filter0_dd_4168_14263)">
<path d="M53.1695 70.943H22.1016V81.466H53.1695V70.943Z" fill="#433E39"/>
<g style="mix-blend-mode:multiply">
<path d="M53.1327 70.8436H46.2227V81.3115H53.1327V70.8436Z" fill="#535762"/>
</g>
<path d="M98.5088 67.1205H71.084C69.8607 67.1205 68.8691 68.1121 68.8691 69.3353V82.8148C68.8691 84.038 69.8607 85.0296 71.084 85.0296H98.5088C99.7321 85.0296 100.724 84.038 100.724 82.8148V69.3353C100.724 68.1121 99.7321 67.1205 98.5088 67.1205Z" fill="#776E67"/>
<g style="mix-blend-mode:multiply">
<path d="M86.4676 67.1205H71.084C69.8607 67.1205 68.8691 68.1121 68.8691 69.3353V82.8148C68.8691 84.038 69.8607 85.0296 71.084 85.0296H86.4676C87.6908 85.0296 88.6824 84.038 88.6824 82.8148V69.3353C88.6824 68.1121 87.6908 67.1205 86.4676 67.1205Z" fill="#535762"/>
</g>
<path d="M80.8961 61.9183H54.1577C50.8367 61.9183 48.1445 64.6105 48.1445 67.9314V84.2221C48.1445 87.543 50.8367 90.2352 54.1577 90.2352H80.8961C84.2171 90.2352 86.9093 87.543 86.9093 84.2221V67.9314C86.9093 64.6105 84.2171 61.9183 80.8961 61.9183Z" fill="#433E39"/>
<path fill-rule="evenodd" clip-rule="evenodd" d="M142.031 22.4201L254.263 22.4201C258.804 22.4201 263.215 22.9537 267.431 23.9589C291.388 28.495 309.506 49.5406 309.506 74.8169C309.506 75.5741 309.489 76.3276 309.457 77.0769H310.352C311.806 77.0769 312.988 75.8943 312.988 74.4411C312.988 72.9879 311.806 71.8053 310.352 71.8053H309.445C309.275 68.1473 308.749 64.5846 307.892 61.1521C308.664 63.1865 310.352 63.7878 310.352 63.7878L310.347 63.7928C316.23 63.7928 321.001 68.5633 321.001 74.4461C321.001 80.329 316.23 85.0994 310.347 85.0994C310.347 85.0994 308.628 85.7071 307.869 87.7795C307.788 88.0929 307.705 88.4051 307.618 88.7162C307.607 88.7806 307.596 88.8461 307.586 88.9127L307.566 88.9011C301.432 110.644 281.448 126.58 257.743 126.58L140.452 126.58C123.782 126.58 108.954 118.697 99.4886 106.457C93.9205 99.7338 90.0584 91.6593 88.5273 82.8315V65.7353C92.7898 41.1589 115.119 22.4201 142.031 22.4201Z" fill="#34302D"/>
<path d="M254.44 50.9006C267.629 50.9006 278.362 61.629 278.362 74.8228C278.362 88.0166 267.634 98.7451 254.44 98.7451C241.246 98.7451 230.518 88.0166 230.518 74.8228C230.518 61.629 241.246 50.9006 254.44 50.9006ZM254.44 42.8831C236.801 42.8831 222.5 57.1843 222.5 74.8228C222.5 92.4614 236.801 106.763 254.44 106.763C272.078 106.763 286.38 92.4614 286.38 74.8228C286.38 57.1843 272.078 42.8831 254.44 42.8831Z" fill="#1D1915"/>
<path d="M254.44 98.7394C267.652 98.7394 278.362 88.0291 278.362 74.8171C278.362 61.6052 267.652 50.8949 254.44 50.8949C241.228 50.8949 230.518 61.6052 230.518 74.8171C230.518 88.0291 241.228 98.7394 254.44 98.7394Z" fill="#34302D"/>
<path d="M145.428 59.3823V60.4526H141.27V59.3823H145.428ZM141.652 52.6214V60.4526H140.302V52.6214H141.652ZM144.884 55.8916V56.9458H141.27V55.8916H144.884ZM145.401 52.6214V53.6971H141.27V52.6214H145.401ZM148.788 55.8754V60.4526H147.492V54.633H148.713L148.788 55.8754ZM148.557 57.3277L148.137 57.3223C148.141 56.9099 148.198 56.5316 148.31 56.1874C148.424 55.8432 148.582 55.5473 148.783 55.2999C148.987 55.0525 149.231 54.8624 149.514 54.7298C149.798 54.5935 150.113 54.5254 150.461 54.5254C150.741 54.5254 150.994 54.5648 151.219 54.6437C151.449 54.719 151.644 54.8427 151.806 55.0148C151.971 55.187 152.096 55.4111 152.182 55.6872C152.268 55.9597 152.311 56.295 152.311 56.693V60.4526H151.01V56.6876C151.01 56.4079 150.968 56.1874 150.886 56.026C150.807 55.8611 150.691 55.7445 150.536 55.6764C150.386 55.6047 150.198 55.5688 149.972 55.5688C149.749 55.5688 149.55 55.6155 149.375 55.7087C149.199 55.8019 149.05 55.9292 148.928 56.0906C148.81 56.2519 148.718 56.4384 148.654 56.6499C148.589 56.8615 148.557 57.0874 148.557 57.3277ZM157.404 54.633V55.5796H154.123V54.633H157.404ZM155.069 53.2076H156.366V58.8444C156.366 59.0237 156.391 59.1618 156.441 59.2586C156.495 59.3518 156.568 59.4146 156.662 59.4468C156.755 59.4791 156.864 59.4952 156.99 59.4952C157.079 59.4952 157.165 59.4899 157.248 59.4791C157.33 59.4683 157.397 59.4576 157.447 59.4468L157.452 60.4365C157.345 60.4688 157.219 60.4975 157.076 60.5226C156.936 60.5477 156.774 60.5602 156.592 60.5602C156.294 60.5602 156.03 60.5082 155.801 60.4042C155.571 60.2967 155.392 60.1227 155.263 59.8825C155.134 59.6423 155.069 59.3231 155.069 58.9251V53.2076ZM162.071 60.5602C161.641 60.5602 161.252 60.4903 160.904 60.3504C160.56 60.207 160.266 60.008 160.022 59.7534C159.782 59.4988 159.597 59.1994 159.468 58.8552C159.339 58.511 159.274 58.1398 159.274 57.7418V57.5267C159.274 57.0713 159.341 56.6589 159.473 56.2896C159.606 55.9202 159.791 55.6047 160.027 55.3429C160.264 55.0776 160.544 54.875 160.867 54.7352C161.189 54.5953 161.539 54.5254 161.915 54.5254C162.331 54.5254 162.695 54.5953 163.007 54.7352C163.319 54.875 163.577 55.0722 163.782 55.3268C163.99 55.5778 164.144 55.8772 164.244 56.225C164.348 56.5729 164.4 56.9565 164.4 57.3761V57.9301H159.904V56.9996H163.12V56.8974C163.113 56.6643 163.066 56.4456 162.98 56.2412C162.898 56.0368 162.771 55.8718 162.598 55.7463C162.426 55.6208 162.197 55.5581 161.91 55.5581C161.695 55.5581 161.503 55.6047 161.334 55.6979C161.17 55.7876 161.031 55.9185 160.92 56.0906C160.809 56.2627 160.723 56.4707 160.662 56.7145C160.605 56.9547 160.576 57.2255 160.576 57.5267V57.7418C160.576 57.9964 160.61 58.2331 160.678 58.4518C160.75 58.6669 160.854 58.8552 160.99 59.0165C161.127 59.1779 161.291 59.3052 161.485 59.3984C161.679 59.4881 161.899 59.5329 162.147 59.5329C162.459 59.5329 162.737 59.4701 162.98 59.3446C163.224 59.2191 163.436 59.0416 163.615 58.8122L164.298 59.4737C164.173 59.6566 164.009 59.8323 163.809 60.0008C163.608 60.1658 163.362 60.3002 163.072 60.4042C162.785 60.5082 162.451 60.5602 162.071 60.5602ZM167.815 55.741V60.4526H166.518V54.633H167.756L167.815 55.741ZM169.595 54.5953L169.584 55.8001C169.505 55.7858 169.419 55.775 169.326 55.7678C169.236 55.7607 169.147 55.7571 169.057 55.7571C168.835 55.7571 168.639 55.7894 168.471 55.8539C168.302 55.9149 168.161 56.0045 168.046 56.1228C167.935 56.2376 167.849 56.3774 167.788 56.5424C167.727 56.7073 167.691 56.892 167.68 57.0964L167.384 57.1179C167.384 56.7521 167.42 56.4133 167.492 56.1013C167.564 55.7894 167.671 55.5151 167.815 55.2784C167.962 55.0417 168.145 54.8571 168.363 54.7244C168.586 54.5917 168.842 54.5254 169.132 54.5254C169.211 54.5254 169.296 54.5326 169.385 54.5469C169.478 54.5612 169.548 54.5774 169.595 54.5953ZM178.457 57.532H176.418V56.4617H178.457C178.812 56.4617 179.099 56.4043 179.317 56.2896C179.536 56.1748 179.696 56.0171 179.796 55.8163C179.9 55.6119 179.952 55.3788 179.952 55.117C179.952 54.8696 179.9 54.6383 179.796 54.4232C179.696 54.2045 179.536 54.0288 179.317 53.8961C179.099 53.7634 178.812 53.6971 178.457 53.6971H176.832V60.4526H175.482V52.6214H178.457C179.063 52.6214 179.577 52.7289 180 52.9441C180.427 53.1556 180.752 53.4497 180.974 53.8262C181.196 54.1991 181.308 54.6258 181.308 55.1063C181.308 55.6119 181.196 56.0457 180.974 56.4079C180.752 56.7701 180.427 57.048 180 57.2416C179.577 57.4352 179.063 57.532 178.457 57.532ZM185.061 52.6214V60.4526H183.711V52.6214H185.061ZM194.053 52.6214V60.4526H192.703L189.19 54.8427V60.4526H187.84V52.6214H189.19L192.713 58.242V52.6214H194.053Z" fill="white"/>
<rect x="126.61" y="89.518" width="10.1893" height="10.1893" rx="3.44232" stroke="white" stroke-width="0.826158"/>
<path d="M134.321 92.6939C134.367 92.6495 134.404 92.5963 134.429 92.5375C134.454 92.4787 134.468 92.4155 134.468 92.3515C134.469 92.2875 134.457 92.2241 134.433 92.1648C134.408 92.1056 134.373 92.0518 134.327 92.0065C134.282 91.9613 134.228 91.9254 134.169 91.9012C134.11 91.8769 134.047 91.8647 133.983 91.8652C133.919 91.8658 133.855 91.879 133.796 91.9043C133.738 91.9295 133.684 91.9662 133.64 92.0122L131.709 93.943L129.778 92.0122C129.734 91.9648 129.68 91.9269 129.621 91.9005C129.562 91.8742 129.498 91.86 129.434 91.8589C129.369 91.8577 129.305 91.8696 129.245 91.8939C129.185 91.9181 129.13 91.9542 129.085 91.9999C129.039 92.0457 129.003 92.1002 128.978 92.1602C128.954 92.2202 128.942 92.2845 128.943 92.3492C128.945 92.4139 128.959 92.4777 128.985 92.5368C129.011 92.5959 129.049 92.6491 129.097 92.6932L131.026 94.6247L129.095 96.5555C129.01 96.6468 128.964 96.7676 128.966 96.8925C128.968 97.0173 129.019 97.1364 129.107 97.2247C129.196 97.313 129.315 97.3636 129.44 97.3658C129.564 97.368 129.685 97.3217 129.777 97.2365L131.709 95.3058L133.639 97.2372C133.731 97.3223 133.852 97.3686 133.976 97.3664C134.101 97.3642 134.22 97.3137 134.309 97.2254C134.397 97.1371 134.448 97.018 134.45 96.8931C134.452 96.7683 134.406 96.6475 134.32 96.5561L132.391 94.6247L134.321 92.6939Z" fill="white"/>
<rect x="160.346" y="87.4526" width="14.3201" height="14.3201" rx="3.8554" fill="white"/>
<path d="M169.955 97.2142V98.6127H164.49V97.4294L167.007 94.7831C167.229 94.5285 167.409 94.3008 167.545 94.1C167.681 93.8956 167.78 93.7109 167.841 93.546C167.905 93.3811 167.938 93.2322 167.938 93.0996C167.938 92.8737 167.904 92.6854 167.835 92.5348C167.771 92.3806 167.674 92.2641 167.545 92.1852C167.419 92.1063 167.264 92.0669 167.077 92.0669C166.891 92.0669 166.727 92.1207 166.588 92.2282C166.448 92.3358 166.338 92.4828 166.26 92.6693C166.184 92.8557 166.147 93.0655 166.147 93.2986H164.329C164.329 92.8181 164.445 92.3788 164.678 91.9808C164.915 91.5828 165.243 91.2655 165.662 91.0288C166.082 90.7886 166.568 90.6684 167.12 90.6684C167.697 90.6684 168.181 90.7581 168.572 90.9374C168.963 91.1167 169.257 91.3766 169.454 91.7173C169.655 92.0543 169.756 92.4613 169.756 92.9382C169.756 93.2107 169.713 93.4725 169.627 93.7235C169.54 93.9745 169.417 94.2237 169.255 94.4711C169.094 94.715 168.897 94.966 168.664 95.2241C168.434 95.4823 168.173 95.7566 167.878 96.0471L166.867 97.2142H169.955Z" fill="#34302D"/>
<rect x="198.21" y="89.518" width="10.1893" height="10.1893" rx="3.44232" stroke="white" stroke-width="0.826158"/>
<path d="M200.605 94.6127L202.919 96.5404L206.003 92.685" stroke="white" stroke-width="1.10154" stroke-linecap="round"/>
</g>
<defs>
<filter id="filter0_dd_4168_14263" x="-1.03087" y="0.38914" width="335.8" height="139.409" filterUnits="userSpaceOnUse" color-interpolation-filters="sRGB">
<feFlood flood-opacity="0" result="BackgroundImageFix"/>
<feColorMatrix in="SourceAlpha" type="matrix" values="0 0 0 0 0 0 0 0 0 0 0 0 0 0 0 0 0 0 127 0" result="hardAlpha"/>
<feOffset dx="2.75386" dy="2.20309"/>
<feGaussianBlur stdDeviation="5.50772"/>
<feComposite in2="hardAlpha" operator="out"/>
<feColorMatrix type="matrix" values="0 0 0 0 0 0 0 0 0 0 0 0 0 0 0 0 0 0 0.41 0"/>
<feBlend mode="normal" in2="BackgroundImageFix" result="effect1_dropShadow_4168_14263"/>
<feColorMatrix in="SourceAlpha" type="matrix" values="0 0 0 0 0 0 0 0 0 0 0 0 0 0 0 0 0 0 127 0" result="hardAlpha"/>
<feOffset dx="-5.50772" dy="-5.50772"/>
<feGaussianBlur stdDeviation="8.26158"/>
<feComposite in2="hardAlpha" operator="out"/>
<feColorMatrix type="matrix" values="0 0 0 0 0.0916667 0 0 0 0 0.0758333 0 0 0 0 0.0626389 0 0 0 1 0"/>
<feBlend mode="normal" in2="effect1_dropShadow_4168_14263" result="effect2_dropShadow_4168_14263"/>
<feBlend mode="normal" in="SourceGraphic" in2="effect2_dropShadow_4168_14263" result="shape"/>
</filter>
</defs>
</svg>
