<svg width="33" height="33" viewBox="0 0 33 33" fill="none" xmlns="http://www.w3.org/2000/svg">
<g clip-path="url(#clip0_1055_1857)">
<g clip-path="url(#clip1_1055_1857)">
<path d="M6.83984 15.967L16.9979 0.00186157L27.1559 15.967L16.9979 21.7654L6.83984 15.967Z" fill="#00A6FB"/>
<path d="M16.998 0.00186157L27.1561 15.967L16.998 21.7654V0.00186157Z" fill="#0074B0"/>
<path d="M6.83984 18.1381L16.9979 23.9452L27.1559 18.1381L16.9979 31.9234L6.83984 18.1381Z" fill="#00A6FB"/>
<path d="M16.9979 23.9452L27.1559 18.1381L16.9979 31.9234V23.9452ZM6.83984 15.967L16.9979 11.616L27.1559 15.967L16.9979 21.7741L6.83984 15.967Z" fill="#0074B0"/>
<path d="M16.998 11.6073L27.1561 15.967L16.998 21.7654V11.6073Z" fill="#004264"/>
</g>
</g>
<defs>
<clipPath id="clip0_1055_1857">
<rect width="32" height="32" fill="white" transform="translate(0.998047 0.00186157)"/>
</clipPath>
<clipPath id="clip1_1055_1857">
<rect width="20.3161" height="32" fill="white" transform="translate(6.83984 0.00186157)"/>
</clipPath>
</defs>
</svg>
