<svg width="56" height="48" viewBox="0 0 56 48" fill="none" xmlns="http://www.w3.org/2000/svg">
<path d="M27.9402 33.649C27.4671 33.649 27.0047 33.7893 26.6114 34.0521C26.2181 34.3149 25.9115 34.6884 25.7305 35.1255C25.5494 35.5625 25.5021 36.0434 25.5944 36.5074C25.6866 36.9714 25.9144 37.3975 26.2489 37.732C26.5834 38.0665 27.0096 38.2943 27.4736 38.3866C27.9375 38.4789 28.4184 38.4315 28.8555 38.2505C29.2925 38.0695 29.6661 37.7629 29.9289 37.3696C30.1917 36.9763 30.332 36.5138 30.332 36.0408C30.332 35.4064 30.08 34.7981 29.6314 34.3495C29.1829 33.901 28.5745 33.649 27.9402 33.649ZM53.4604 37.1649L34.2066 3.68006C33.5843 2.56433 32.6754 1.63499 31.5737 0.988041C30.4721 0.341093 29.2177 0 27.9402 0C26.6626 0 25.4082 0.341093 24.3066 0.988041C23.205 1.63499 22.296 2.56433 21.6737 3.68006L2.53953 37.1649C1.89565 38.2508 1.54967 39.4874 1.53652 40.7498C1.52337 42.0121 1.84352 43.2556 2.46463 44.3547C3.08574 45.4538 3.98584 46.3695 5.07405 47.0095C6.16226 47.6495 7.40006 47.991 8.66247 47.9996H47.2179C48.4904 48.0122 49.7434 47.6861 50.8484 47.0547C51.9533 46.4233 52.8705 45.5095 53.5058 44.4068C54.1411 43.3041 54.4718 42.0523 54.4638 40.7797C54.4558 39.5071 54.1095 38.2595 53.4604 37.1649ZM49.3226 41.9485C49.113 42.3215 48.8071 42.6314 48.4369 42.8459C48.0667 43.0605 47.6457 43.1718 47.2179 43.1683H8.66247C8.23461 43.1718 7.81363 43.0605 7.44343 42.8459C7.07322 42.6314 6.76735 42.3215 6.55771 41.9485C6.34779 41.5849 6.23727 41.1724 6.23727 40.7526C6.23727 40.3327 6.34779 39.9203 6.55771 39.5567L25.6919 6.07183C25.8926 5.68006 26.1976 5.35127 26.5731 5.12168C26.9487 4.8921 27.3804 4.77061 27.8206 4.77061C28.2608 4.77061 28.6924 4.8921 29.068 5.12168C29.4436 5.35127 29.7486 5.68006 29.9493 6.07183L49.2031 39.5567C49.4404 39.9151 49.5767 40.3308 49.5977 40.7601C49.6188 41.1894 49.5238 41.6164 49.3226 41.9963V41.9485ZM27.9402 14.5148C27.3058 14.5148 26.6975 14.7668 26.2489 15.2153C25.8004 15.6639 25.5484 16.2722 25.5484 16.9066V26.4737C25.5484 27.108 25.8004 27.7164 26.2489 28.1649C26.6975 28.6135 27.3058 28.8655 27.9402 28.8655C28.5745 28.8655 29.1829 28.6135 29.6314 28.1649C30.08 27.7164 30.332 27.108 30.332 26.4737V16.9066C30.332 16.2722 30.08 15.6639 29.6314 15.2153C29.1829 14.7668 28.5745 14.5148 27.9402 14.5148Z" fill="#FF624C"/>
</svg>
