<svg width="13" height="13" viewBox="0 0 14 14" fill="none" xmlns="http://www.w3.org/2000/svg">
<g id="octicon:clock-16" clip-path="url(#clip0_3163_32632)">
<circle id="Ellipse 39" cx="6.90004" cy="6.70009" r="6.07264" fill="#2A2827"/>
<path id="Vector" d="M6.8999 0.199951C8.62381 0.199951 10.2771 0.884771 11.4961 2.10376C12.7151 3.32274 13.3999 4.97604 13.3999 6.69995C13.3999 8.42386 12.7151 10.0772 11.4961 11.2961C10.2771 12.5151 8.62381 13.2 6.8999 13.2C5.17599 13.2 3.52269 12.5151 2.30371 11.2961C1.08472 10.0772 0.399902 8.42386 0.399902 6.69995C0.399902 4.97604 1.08472 3.32274 2.30371 2.10376C3.52269 0.884771 5.17599 0.199951 6.8999 0.199951ZM1.61865 6.69995C1.61865 8.10063 2.17507 9.44393 3.16549 10.4344C4.15592 11.4248 5.49923 11.9812 6.8999 11.9812C8.30058 11.9812 9.64388 11.4248 10.6343 10.4344C11.6247 9.44393 12.1812 8.10063 12.1812 6.69995C12.1812 5.29928 11.6247 3.95597 10.6343 2.96554C9.64388 1.97512 8.30058 1.4187 6.8999 1.4187C5.49923 1.4187 4.15592 1.97512 3.16549 2.96554C2.17507 3.95597 1.61865 5.29928 1.61865 6.69995ZM7.30615 4.05933V6.49033L8.9539 7.15008C9.09911 7.21338 9.21396 7.33073 9.27411 7.47726C9.33427 7.6238 9.335 7.788 9.27615 7.93507C9.21731 8.08213 9.1035 8.20051 8.95887 8.2651C8.81423 8.32969 8.65013 8.33542 8.50134 8.28108L6.47009 7.46858C6.35713 7.42331 6.26031 7.34525 6.1921 7.24446C6.1239 7.14367 6.08743 7.02477 6.0874 6.90308V4.05933C6.0874 3.89771 6.1516 3.74271 6.26588 3.62843C6.38016 3.51415 6.53516 3.44995 6.69678 3.44995C6.85839 3.44995 7.01339 3.51415 7.12767 3.62843C7.24195 3.74271 7.30615 3.89771 7.30615 4.05933Z" fill="#F1AE4A"/>
</g>
<defs>
<clipPath id="clip0_3163_32632">
<rect width="13" height="13" fill="white" transform="translate(0.399902 0.199951)"/>
</clipPath>
</defs>
</svg>
