<svg width="39" height="37" viewBox="0 0 39 37" fill="none" xmlns="http://www.w3.org/2000/svg">
<path opacity="0.25" fill-rule="evenodd" clip-rule="evenodd" d="M19.125 36C29.2732 36 37.5 28.165 37.5 18.5C37.5 8.83502 29.2732 1 19.125 1C8.97677 1 0.75 8.83502 0.75 18.5C0.75 28.165 8.97677 36 19.125 36Z" stroke="white" stroke-width="1.5"/>
<path d="M20.7978 14.0205H22.4866C22.642 14.0205 22.7681 13.9074 22.7681 13.7679V12.2524C22.7681 12.1129 22.642 11.9998 22.4866 11.9998H20.7978C19.091 11.9998 17.7017 13.2461 17.7017 14.7783V16.5465H15.7314C15.576 16.5465 15.45 16.6597 15.45 16.7991V18.3147C15.45 18.4541 15.576 18.5673 15.7314 18.5673H17.7017V23.8719C17.7017 24.0113 17.8278 24.1245 17.9831 24.1245H19.6719C19.8273 24.1245 19.9534 24.0113 19.9534 23.8719V18.5673H21.9237C22.0447 18.5673 22.1522 18.4976 22.1911 18.3945L22.754 16.8789C22.7827 16.8021 22.7681 16.7173 22.7152 16.6511C22.6617 16.5854 22.5772 16.5465 22.4866 16.5465H19.9534V14.7783C19.9534 14.3605 20.3323 14.0205 20.7978 14.0205Z" fill="white"/>
</svg>
