<svg width="335" height="140" viewBox="0 0 335 140" fill="none" xmlns="http://www.w3.org/2000/svg">
<g filter="url(#filter0_dd_2909_1495)">
<path d="M53.1695 70.943H22.1016V81.466H53.1695V70.943Z" fill="#433E39"/>
<g style="mix-blend-mode:multiply">
<path d="M53.1327 70.8436H46.2227V81.3115H53.1327V70.8436Z" fill="#535762"/>
</g>
<path d="M98.5069 67.1205H71.082C69.8588 67.1205 68.8672 68.1121 68.8672 69.3353V82.8148C68.8672 84.038 69.8588 85.0296 71.082 85.0296H98.5069C99.7301 85.0296 100.722 84.038 100.722 82.8148V69.3353C100.722 68.1121 99.7301 67.1205 98.5069 67.1205Z" fill="#776E67"/>
<g style="mix-blend-mode:multiply">
<path d="M86.4656 67.1205H71.082C69.8588 67.1205 68.8672 68.1121 68.8672 69.3353V82.8148C68.8672 84.038 69.8588 85.0296 71.082 85.0296H86.4656C87.6888 85.0296 88.6804 84.038 88.6804 82.8148V69.3353C88.6804 68.1121 87.6888 67.1205 86.4656 67.1205Z" fill="#535762"/>
</g>
<path d="M80.8961 61.9183H54.1577C50.8367 61.9183 48.1445 64.6105 48.1445 67.9315V84.2221C48.1445 87.5431 50.8367 90.2352 54.1577 90.2352H80.8961C84.2171 90.2352 86.9093 87.5431 86.9093 84.2221V67.9315C86.9093 64.6105 84.2171 61.9183 80.8961 61.9183Z" fill="#433E39"/>
<path fill-rule="evenodd" clip-rule="evenodd" d="M142.031 22.42L254.263 22.42C258.804 22.42 263.215 22.9537 267.431 23.9589C291.388 28.495 309.506 49.5406 309.506 74.8169C309.506 75.5741 309.489 76.3275 309.457 77.0768H310.352C311.806 77.0768 312.988 75.8942 312.988 74.4411C312.988 72.9879 311.806 71.8053 310.352 71.8053H309.445C309.275 68.1473 308.749 64.5845 307.892 61.152C308.664 63.1865 310.352 63.7878 310.352 63.7878L310.347 63.7928C316.23 63.7928 321.001 68.5632 321.001 74.4461C321.001 80.3289 316.23 85.0994 310.347 85.0994C310.347 85.0994 308.628 85.707 307.869 87.7795C307.788 88.0929 307.705 88.4051 307.618 88.7161C307.607 88.7806 307.596 88.8461 307.586 88.9127L307.566 88.9011C301.432 110.644 281.448 126.58 257.743 126.58L140.452 126.58C123.782 126.58 108.954 118.697 99.4886 106.457C93.9205 99.7338 90.0584 91.6592 88.5273 82.8315V65.7353C92.7898 41.1588 115.119 22.42 142.031 22.42Z" fill="#34302D"/>
<path d="M254.44 50.9006C267.629 50.9006 278.362 61.629 278.362 74.8228C278.362 88.0166 267.634 98.7451 254.44 98.7451C241.246 98.7451 230.518 88.0166 230.518 74.8228C230.518 61.629 241.246 50.9006 254.44 50.9006ZM254.44 42.8831C236.801 42.8831 222.5 57.1843 222.5 74.8228C222.5 92.4614 236.801 106.763 254.44 106.763C272.078 106.763 286.38 92.4614 286.38 74.8228C286.38 57.1843 272.078 42.8831 254.44 42.8831Z" fill="#1D1915"/>
<path d="M254.438 98.7395C267.65 98.7395 278.36 88.0291 278.36 74.8172C278.36 61.6053 267.65 50.8949 254.438 50.8949C241.226 50.8949 230.516 61.6053 230.516 74.8172C230.516 88.0291 241.226 98.7395 254.438 98.7395Z" fill="#34302D"/>
<path d="M130.654 54.2737V62.105H129.304V54.2737H130.654ZM133.849 57.6999V58.7702H130.31V57.6999H133.849ZM134.295 54.2737V55.3494H130.31V54.2737H134.295ZM139.441 60.9378V58.1624C139.441 57.9545 139.404 57.7752 139.329 57.6246C139.253 57.474 139.138 57.3574 138.984 57.275C138.834 57.1925 138.644 57.1513 138.414 57.1513C138.203 57.1513 138.02 57.1871 137.866 57.2588C137.711 57.3305 137.591 57.4274 137.505 57.5493C137.419 57.6712 137.376 57.8092 137.376 57.9634H136.085C136.085 57.7339 136.141 57.5116 136.252 57.2965C136.363 57.0813 136.524 56.8895 136.736 56.721C136.948 56.5524 137.2 56.4198 137.494 56.323C137.788 56.2261 138.118 56.1777 138.484 56.1777C138.922 56.1777 139.309 56.2512 139.646 56.3983C139.987 56.5453 140.254 56.7676 140.447 57.0652C140.645 57.3592 140.743 57.7286 140.743 58.1732V60.7603C140.743 61.0257 140.761 61.2641 140.797 61.4757C140.836 61.6837 140.892 61.8647 140.964 62.0189V62.105H139.635C139.574 61.9651 139.526 61.7876 139.49 61.5725C139.458 61.3538 139.441 61.1422 139.441 60.9378ZM139.63 58.5658L139.641 59.3673H138.71C138.47 59.3673 138.258 59.3906 138.075 59.4372C137.892 59.4802 137.74 59.5448 137.618 59.6308C137.496 59.7169 137.405 59.8209 137.344 59.9428C137.283 60.0647 137.252 60.2027 137.252 60.3569C137.252 60.5111 137.288 60.6528 137.36 60.7818C137.432 60.9073 137.536 61.0059 137.672 61.0777C137.812 61.1494 137.98 61.1852 138.178 61.1852C138.443 61.1852 138.674 61.1314 138.871 61.0239C139.072 60.9127 139.23 60.7783 139.345 60.6205C139.459 60.4591 139.52 60.3067 139.528 60.1633L139.947 60.7388C139.904 60.8858 139.831 61.0436 139.727 61.2121C139.623 61.3807 139.486 61.542 139.318 61.6962C139.153 61.8468 138.954 61.9705 138.721 62.0673C138.491 62.1641 138.226 62.2126 137.925 62.2126C137.545 62.2126 137.206 62.1373 136.908 61.9867C136.611 61.8325 136.377 61.6263 136.209 61.3681C136.04 61.1063 135.956 60.8105 135.956 60.4806C135.956 60.1723 136.014 59.8997 136.128 59.6631C136.247 59.4228 136.419 59.222 136.645 59.0607C136.874 58.8993 137.154 58.7774 137.484 58.6949C137.814 58.6089 138.19 58.5658 138.613 58.5658H139.63ZM145.577 61.1799C145.789 61.1799 145.979 61.1386 146.148 61.0561C146.32 60.9701 146.458 60.8518 146.562 60.7012C146.669 60.5506 146.728 60.3766 146.739 60.1794H147.96C147.953 60.5559 147.842 60.8984 147.627 61.2067C147.412 61.5151 147.126 61.7607 146.771 61.9436C146.417 62.1229 146.024 62.2126 145.594 62.2126C145.149 62.2126 144.762 62.1373 144.432 61.9867C144.102 61.8325 143.828 61.6209 143.609 61.352C143.39 61.083 143.225 60.7729 143.114 60.4215C143.006 60.0701 142.953 59.6936 142.953 59.292V59.1037C142.953 58.7021 143.006 58.3256 143.114 57.9742C143.225 57.6192 143.39 57.3072 143.609 57.0383C143.828 56.7694 144.102 56.5596 144.432 56.409C144.762 56.2548 145.147 56.1777 145.588 56.1777C146.054 56.1777 146.463 56.271 146.815 56.4574C147.166 56.6403 147.442 56.8967 147.643 57.2266C147.847 57.5529 147.953 57.933 147.96 58.3668H146.739C146.728 58.1517 146.675 57.9581 146.578 57.7859C146.485 57.6102 146.352 57.4704 146.18 57.3664C146.011 57.2624 145.809 57.2104 145.572 57.2104C145.31 57.2104 145.093 57.2642 144.921 57.3718C144.749 57.4758 144.615 57.6192 144.518 57.8021C144.421 57.9814 144.351 58.184 144.308 58.4099C144.269 58.6322 144.249 58.8635 144.249 59.1037V59.292C144.249 59.5322 144.269 59.7653 144.308 59.9912C144.348 60.2171 144.416 60.4197 144.512 60.599C144.613 60.7747 144.749 60.9163 144.921 61.0239C145.093 61.1279 145.312 61.1799 145.577 61.1799ZM152.725 56.2853V57.2319H149.444V56.2853H152.725ZM150.39 54.86H151.686V60.4968C151.686 60.6761 151.712 60.8141 151.762 60.9109C151.816 61.0042 151.889 61.0669 151.982 61.0992C152.076 61.1314 152.185 61.1476 152.31 61.1476C152.4 61.1476 152.486 61.1422 152.569 61.1314C152.651 61.1207 152.717 61.1099 152.768 61.0992L152.773 62.0888C152.665 62.1211 152.54 62.1498 152.396 62.1749C152.257 62.2 152.095 62.2126 151.912 62.2126C151.615 62.2126 151.351 62.1606 151.122 62.0566C150.892 61.949 150.713 61.7751 150.584 61.5348C150.455 61.2946 150.39 60.9755 150.39 60.5774V54.86ZM154.45 59.2597V59.136C154.45 58.7164 154.511 58.3274 154.633 57.9688C154.755 57.6067 154.931 57.2929 155.16 57.0276C155.393 56.7586 155.676 56.5506 156.01 56.4036C156.347 56.253 156.727 56.1777 157.15 56.1777C157.577 56.1777 157.957 56.253 158.29 56.4036C158.627 56.5506 158.912 56.7586 159.146 57.0276C159.379 57.2929 159.556 57.6067 159.678 57.9688C159.8 58.3274 159.861 58.7164 159.861 59.136V59.2597C159.861 59.6792 159.8 60.0683 159.678 60.4268C159.556 60.7854 159.379 61.0992 159.146 61.3681C158.912 61.6335 158.629 61.8414 158.296 61.992C157.962 62.139 157.584 62.2126 157.161 62.2126C156.734 62.2126 156.352 62.139 156.015 61.992C155.682 61.8414 155.398 61.6335 155.165 61.3681C154.932 61.0992 154.755 60.7854 154.633 60.4268C154.511 60.0683 154.45 59.6792 154.45 59.2597ZM155.746 59.136V59.2597C155.746 59.5214 155.773 59.7689 155.827 60.0019C155.881 60.235 155.965 60.4394 156.08 60.6151C156.194 60.7908 156.342 60.9289 156.521 61.0293C156.7 61.1297 156.913 61.1799 157.161 61.1799C157.401 61.1799 157.609 61.1297 157.785 61.0293C157.964 60.9289 158.111 60.7908 158.226 60.6151C158.341 60.4394 158.425 60.235 158.479 60.0019C158.536 59.7689 158.565 59.5214 158.565 59.2597V59.136C158.565 58.8778 158.536 58.634 158.479 58.4045C158.425 58.1714 158.339 57.9652 158.22 57.7859C158.106 57.6067 157.959 57.4668 157.779 57.3664C157.604 57.2624 157.394 57.2104 157.15 57.2104C156.906 57.2104 156.695 57.2624 156.515 57.3664C156.34 57.4668 156.194 57.6067 156.08 57.7859C155.965 57.9652 155.881 58.1714 155.827 58.4045C155.773 58.634 155.746 58.8778 155.746 59.136ZM163.351 57.3933V62.105H162.054V56.2853H163.291L163.351 57.3933ZM165.131 56.2477L165.12 57.4525C165.041 57.4381 164.955 57.4274 164.862 57.4202C164.772 57.413 164.683 57.4094 164.593 57.4094C164.371 57.4094 164.175 57.4417 164.007 57.5063C163.838 57.5672 163.697 57.6569 163.582 57.7752C163.471 57.8899 163.385 58.0298 163.324 58.1947C163.263 58.3597 163.227 58.5443 163.216 58.7487L162.92 58.7702C162.92 58.4045 162.956 58.0656 163.028 57.7537C163.1 57.4417 163.207 57.1674 163.351 56.9307C163.498 56.6941 163.68 56.5094 163.899 56.3767C164.122 56.2441 164.378 56.1777 164.668 56.1777C164.747 56.1777 164.831 56.1849 164.921 56.1992C165.014 56.2136 165.084 56.2297 165.131 56.2477ZM168.83 61.4703L170.412 56.2853H171.799L169.465 62.9925C169.411 63.1359 169.341 63.2919 169.255 63.4604C169.169 63.6289 169.056 63.7885 168.916 63.9391C168.78 64.0933 168.61 64.217 168.405 64.3102C168.201 64.407 167.954 64.4554 167.663 64.4554C167.548 64.4554 167.437 64.4447 167.33 64.4232C167.226 64.4052 167.127 64.3855 167.034 64.364L167.028 63.3743C167.064 63.3779 167.107 63.3815 167.158 63.3851C167.211 63.3887 167.254 63.3905 167.287 63.3905C167.502 63.3905 167.681 63.3636 167.825 63.3098C167.968 63.2596 168.084 63.1771 168.174 63.0624C168.267 62.9476 168.346 62.7934 168.411 62.5998L168.83 61.4703ZM167.937 56.2853L169.32 60.642L169.551 62.0082L168.653 62.2394L166.539 56.2853H167.937ZM178.789 57.3933V62.105H177.493V56.2853H178.73L178.789 57.3933ZM180.57 56.2477L180.559 57.4525C180.48 57.4381 180.394 57.4274 180.301 57.4202C180.211 57.413 180.122 57.4094 180.032 57.4094C179.81 57.4094 179.614 57.4417 179.446 57.5063C179.277 57.5672 179.135 57.6569 179.021 57.7752C178.91 57.8899 178.823 58.0298 178.763 58.1947C178.702 58.3597 178.666 58.5443 178.655 58.7487L178.359 58.7702C178.359 58.4045 178.395 58.0656 178.467 57.7537C178.538 57.4417 178.646 57.1674 178.789 56.9307C178.936 56.6941 179.119 56.5094 179.338 56.3767C179.56 56.2441 179.817 56.1777 180.107 56.1777C180.186 56.1777 180.27 56.1849 180.36 56.1992C180.453 56.2136 180.523 56.2297 180.57 56.2477ZM184.941 62.2126C184.511 62.2126 184.122 62.1426 183.774 62.0028C183.43 61.8594 183.136 61.6603 182.892 61.4058C182.652 61.1512 182.467 60.8518 182.338 60.5075C182.209 60.1633 182.145 59.7922 182.145 59.3942V59.179C182.145 58.7236 182.211 58.3113 182.344 57.9419C182.476 57.5726 182.661 57.257 182.898 56.9953C183.134 56.7299 183.414 56.5273 183.737 56.3875C184.059 56.2477 184.409 56.1777 184.786 56.1777C185.201 56.1777 185.565 56.2477 185.877 56.3875C186.189 56.5273 186.448 56.7246 186.652 56.9791C186.86 57.2301 187.014 57.5296 187.114 57.8774C187.218 58.2252 187.27 58.6089 187.27 59.0284V59.5824H182.774V58.6519H185.99V58.5497C185.983 58.3166 185.937 58.0979 185.85 57.8935C185.768 57.6891 185.641 57.5242 185.469 57.3987C185.296 57.2732 185.067 57.2104 184.78 57.2104C184.565 57.2104 184.373 57.257 184.205 57.3503C184.04 57.4399 183.902 57.5708 183.79 57.7429C183.679 57.915 183.593 58.123 183.532 58.3668C183.475 58.6071 183.446 58.8778 183.446 59.179V59.3942C183.446 59.6487 183.48 59.8854 183.548 60.1041C183.62 60.3193 183.724 60.5075 183.86 60.6689C183.997 60.8302 184.162 60.9575 184.355 61.0508C184.549 61.1404 184.769 61.1852 185.017 61.1852C185.329 61.1852 185.607 61.1225 185.85 60.997C186.094 60.8715 186.306 60.694 186.485 60.4645L187.168 61.1261C187.043 61.3089 186.88 61.4846 186.679 61.6532C186.478 61.8181 186.232 61.9526 185.942 62.0566C185.655 62.1606 185.322 62.2126 184.941 62.2126ZM192.648 60.529C192.648 60.4 192.616 60.2834 192.551 60.1794C192.487 60.0719 192.363 59.975 192.18 59.889C192.001 59.8029 191.735 59.724 191.384 59.6523C191.076 59.5842 190.792 59.5035 190.534 59.4103C190.28 59.3135 190.061 59.1969 189.878 59.0607C189.695 58.9244 189.553 58.7631 189.453 58.5766C189.353 58.3901 189.302 58.175 189.302 57.9312C189.302 57.6945 189.354 57.4704 189.458 57.2588C189.562 57.0473 189.711 56.8608 189.905 56.6995C190.099 56.5381 190.333 56.4108 190.609 56.3176C190.889 56.2243 191.201 56.1777 191.545 56.1777C192.033 56.1777 192.451 56.2602 192.799 56.4251C193.15 56.5865 193.419 56.807 193.605 57.0867C193.792 57.3628 193.885 57.6748 193.885 58.0226H192.589C192.589 57.8684 192.549 57.725 192.47 57.5923C192.395 57.4561 192.28 57.3467 192.126 57.2642C191.972 57.1782 191.778 57.1351 191.545 57.1351C191.323 57.1351 191.138 57.171 190.991 57.2427C190.848 57.3108 190.74 57.4005 190.669 57.5116C190.601 57.6228 190.566 57.7447 190.566 57.8774C190.566 57.9742 190.584 58.062 190.62 58.1409C190.66 58.2162 190.724 58.2862 190.814 58.3507C190.904 58.4117 191.025 58.469 191.18 58.5228C191.337 58.5766 191.535 58.6286 191.771 58.6788C192.216 58.772 192.598 58.8921 192.917 59.0392C193.24 59.1826 193.487 59.3691 193.659 59.5985C193.831 59.8244 193.917 60.1113 193.917 60.4591C193.917 60.7173 193.862 60.954 193.751 61.1691C193.643 61.3807 193.485 61.5653 193.277 61.7231C193.069 61.8773 192.82 61.9974 192.53 62.0835C192.243 62.1695 191.92 62.2126 191.562 62.2126C191.034 62.2126 190.588 62.1193 190.222 61.9329C189.856 61.7428 189.579 61.5008 189.389 61.2067C189.202 60.9091 189.109 60.6008 189.109 60.2816H190.362C190.376 60.5219 190.443 60.7137 190.561 60.8571C190.683 60.997 190.834 61.0992 191.013 61.1637C191.196 61.2247 191.384 61.2552 191.578 61.2552C191.811 61.2552 192.006 61.2247 192.164 61.1637C192.322 61.0992 192.442 61.0131 192.524 60.9055C192.607 60.7944 192.648 60.6689 192.648 60.529ZM198.719 62.2126C198.289 62.2126 197.9 62.1426 197.552 62.0028C197.208 61.8594 196.914 61.6603 196.67 61.4058C196.43 61.1512 196.245 60.8518 196.116 60.5075C195.987 60.1633 195.923 59.7922 195.923 59.3942V59.179C195.923 58.7236 195.989 58.3113 196.122 57.9419C196.254 57.5726 196.439 57.257 196.676 56.9953C196.912 56.7299 197.192 56.5273 197.515 56.3875C197.837 56.2477 198.187 56.1777 198.563 56.1777C198.979 56.1777 199.343 56.2477 199.655 56.3875C199.967 56.5273 200.225 56.7246 200.43 56.9791C200.638 57.2301 200.792 57.5296 200.892 57.8774C200.996 58.2252 201.048 58.6089 201.048 59.0284V59.5824L196.552 59.5824V58.6519H199.768V58.5497C199.761 58.3166 199.714 58.0979 199.628 57.8935C199.546 57.6891 199.419 57.5242 199.246 57.3987C199.074 57.2732 198.845 57.2104 198.558 57.2104C198.343 57.2104 198.151 57.257 197.983 57.3503C197.818 57.4399 197.68 57.5708 197.568 57.7429C197.457 57.915 197.371 58.123 197.31 58.3668C197.253 58.6071 197.224 58.8778 197.224 59.179V59.3942C197.224 59.6487 197.258 59.8854 197.326 60.1041C197.398 60.3193 197.502 60.5075 197.638 60.6689C197.775 60.8302 197.939 60.9575 198.133 61.0508C198.327 61.1404 198.547 61.1852 198.795 61.1852C199.107 61.1852 199.385 61.1225 199.628 60.997C199.872 60.8715 200.084 60.694 200.263 60.4645L200.946 61.1261C200.821 61.3089 200.657 61.4846 200.457 61.6532C200.256 61.8181 200.01 61.9526 199.72 62.0566C199.433 62.1606 199.099 62.2126 198.719 62.2126ZM205.829 56.2853V57.2319H202.548V56.2853H205.829ZM203.495 54.86H204.791V60.4968C204.791 60.6761 204.816 60.8141 204.866 60.9109C204.92 61.0042 204.993 61.0669 205.087 61.0992C205.18 61.1314 205.289 61.1476 205.415 61.1476C205.504 61.1476 205.59 61.1422 205.673 61.1314C205.755 61.1207 205.822 61.1099 205.872 61.0992L205.877 62.0888C205.77 62.1211 205.644 62.1498 205.501 62.1749C205.361 62.2 205.2 62.2126 205.017 62.2126C204.719 62.2126 204.456 62.1606 204.226 62.0566C203.997 61.949 203.817 61.7751 203.688 61.5348C203.559 61.2946 203.495 60.9755 203.495 60.5774V54.86Z" fill="white"/>
<rect x="126.612" y="89.5181" width="10.1893" height="10.1893" rx="3.44232" stroke="white" stroke-width="0.826158"/>
<path d="M134.323 92.694C134.369 92.6495 134.406 92.5964 134.431 92.5376C134.456 92.4788 134.47 92.4156 134.47 92.3516C134.471 92.2876 134.459 92.2242 134.435 92.1649C134.41 92.1057 134.375 92.0519 134.329 92.0066C134.284 91.9613 134.23 91.9255 134.171 91.9013C134.112 91.877 134.048 91.8648 133.984 91.8653C133.92 91.8659 133.857 91.8791 133.798 91.9043C133.74 91.9296 133.686 91.9663 133.642 92.0123L131.711 93.943L129.78 92.0123C129.736 91.9649 129.682 91.9269 129.623 91.9006C129.564 91.8743 129.5 91.8601 129.436 91.859C129.371 91.8578 129.307 91.8697 129.247 91.894C129.187 91.9182 129.132 91.9543 129.086 92C129.041 92.0458 129.005 92.1003 128.98 92.1603C128.956 92.2203 128.944 92.2846 128.945 92.3493C128.947 92.414 128.961 92.4778 128.987 92.5369C129.013 92.596 129.051 92.6492 129.099 92.6933L131.028 94.6248L129.097 96.5556C129.012 96.6469 128.966 96.7677 128.968 96.8926C128.97 97.0174 129.021 97.1365 129.109 97.2248C129.198 97.3131 129.317 97.3637 129.441 97.3659C129.566 97.3681 129.687 97.3217 129.778 97.2366L131.711 95.3058L133.641 97.2373C133.733 97.3224 133.854 97.3687 133.978 97.3665C134.103 97.3643 134.222 97.3138 134.311 97.2255C134.399 97.1372 134.449 97.0181 134.452 96.8932C134.454 96.7684 134.408 96.6475 134.322 96.5562L132.393 94.6248L134.323 92.694Z" fill="white"/>
<rect x="198.214" y="89.5181" width="10.1893" height="10.1893" rx="3.44232" stroke="white" stroke-width="0.826158"/>
<path d="M200.609 94.6126L202.923 96.5403L206.007 92.6849" stroke="white" stroke-width="1.10154" stroke-linecap="round"/>
</g>
<defs>
<filter id="filter0_dd_2909_1495" x="-1.03087" y="0.389171" width="335.8" height="139.409" filterUnits="userSpaceOnUse" color-interpolation-filters="sRGB">
<feFlood flood-opacity="0" result="BackgroundImageFix"/>
<feColorMatrix in="SourceAlpha" type="matrix" values="0 0 0 0 0 0 0 0 0 0 0 0 0 0 0 0 0 0 127 0" result="hardAlpha"/>
<feOffset dx="2.75386" dy="2.20309"/>
<feGaussianBlur stdDeviation="5.50772"/>
<feComposite in2="hardAlpha" operator="out"/>
<feColorMatrix type="matrix" values="0 0 0 0 0 0 0 0 0 0 0 0 0 0 0 0 0 0 0.41 0"/>
<feBlend mode="normal" in2="BackgroundImageFix" result="effect1_dropShadow_2909_1495"/>
<feColorMatrix in="SourceAlpha" type="matrix" values="0 0 0 0 0 0 0 0 0 0 0 0 0 0 0 0 0 0 127 0" result="hardAlpha"/>
<feOffset dx="-5.50772" dy="-5.50772"/>
<feGaussianBlur stdDeviation="8.26158"/>
<feComposite in2="hardAlpha" operator="out"/>
<feColorMatrix type="matrix" values="0 0 0 0 0.0916667 0 0 0 0 0.0758333 0 0 0 0 0.0626389 0 0 0 1 0"/>
<feBlend mode="normal" in2="effect1_dropShadow_2909_1495" result="effect2_dropShadow_2909_1495"/>
<feBlend mode="normal" in="SourceGraphic" in2="effect2_dropShadow_2909_1495" result="shape"/>
</filter>
</defs>
</svg>
