<svg width="33" height="33" viewBox="0 0 33 33" fill="none" xmlns="http://www.w3.org/2000/svg">
<g clip-path="url(#clip0_1448_11176)">
<path d="M16.002 32.0019C24.8385 32.0019 32.002 24.8384 32.002 16.0019C32.002 7.16531 24.8385 0.00186157 16.002 0.00186157C7.1654 0.00186157 0.00195312 7.16531 0.00195312 16.0019C0.00195312 24.8384 7.1654 32.0019 16.002 32.0019Z" fill="#13B5EC"/>
<path fill-rule="evenodd" clip-rule="evenodd" d="M17.202 12.9019L20.802 10.8019V15.0019L17.202 12.9019ZM20.802 21.9019L16.002 24.7019L11.202 21.9019V17.0019L16.002 19.8019L20.802 17.0019V21.9019ZM11.202 10.8019L14.802 12.9019L11.202 15.0019V10.8019ZM16.602 13.9019L20.202 16.0019L16.602 18.1019V13.9019ZM15.402 18.1019L11.802 16.0019L15.402 13.9019V18.1019ZM20.202 9.80186L16.002 12.2019L11.802 9.80186L16.002 7.30186L20.202 9.80186ZM10.002 9.40186V22.5019L16.002 25.9019L22.002 22.5019V9.40186L16.002 6.00186L10.002 9.40186Z" fill="white"/>
</g>
<defs>
<clipPath id="clip0_1448_11176">
<rect width="32" height="32" fill="white" transform="translate(0.00195312 0.00186157)"/>
</clipPath>
</defs>
</svg>
