<svg width="25" height="20" viewBox="0 0 25 20" fill="none" xmlns="http://www.w3.org/2000/svg">
<path d="M11.3748 19C11.056 19 10.789 18.892 10.5738 18.676C10.3578 18.4608 10.2498 18.1938 10.2498 17.875V11.125L3.72477 2.8C3.44352 2.425 3.40152 2.03125 3.59877 1.61875C3.79527 1.20625 4.13727 1 4.62477 1H20.3748C20.8623 1 21.2046 1.20625 21.4019 1.61875C21.5984 2.03125 21.556 2.425 21.2748 2.8L14.7498 11.125V17.875C14.7498 18.1938 14.6421 18.4608 14.4269 18.676C14.2109 18.892 13.9435 19 13.6248 19H11.3748ZM12.4998 10.3375L18.0685 3.25H6.93102L12.4998 10.3375Z" fill="white"/>
</svg>