<svg xmlns="http://www.w3.org/2000/svg" width="21" height="20" viewBox="0 0 21 20" fill="none">
    <path
        d="M7.41859 15.9252C6.92961 15.9252 6.4697 15.9252 6.01017 15.9252C5.74368 15.9252 5.47719 15.9266 5.21034 15.9252C4.69808 15.9215 4.42323 15.6479 4.42214 15.1378C4.42069 14.5548 4.42287 13.9721 4.42214 13.3891C4.42214 13.3356 4.41633 13.282 4.4116 13.2015C4.31998 13.2015 4.23782 13.2015 4.15529 13.2015C3.34346 13.2019 2.53164 13.203 1.71981 13.2026C1.52058 13.2026 1.42169 13.1297 1.42533 12.9898C1.42896 12.8535 1.5304 12.7828 1.73072 12.7828C2.56072 12.7817 3.39073 12.7821 4.22073 12.7817C4.27999 12.7817 4.33925 12.7817 4.41051 12.7817V10.2209C4.34034 10.2176 4.27672 10.2118 4.21273 10.2118C3.40091 10.2111 2.58908 10.2115 1.77725 10.2111C1.7289 10.2111 1.68018 10.2133 1.63183 10.2093C1.50204 10.1987 1.43005 10.1211 1.42969 9.99611C1.42969 9.86749 1.51076 9.79935 1.63728 9.78878C1.67946 9.78514 1.72199 9.78732 1.76453 9.78732C2.57636 9.78732 3.38818 9.78732 4.20001 9.78732C4.26545 9.78732 4.33089 9.78732 4.40905 9.78732V7.22615C4.33452 7.22287 4.26472 7.21668 4.19455 7.21668C3.38891 7.21595 2.5829 7.21668 1.77725 7.21631C1.7289 7.21631 1.67982 7.21923 1.63183 7.21413C1.5064 7.20028 1.42569 7.13068 1.42824 7.00206C1.43078 6.87526 1.50786 6.80202 1.63765 6.79765C1.73435 6.794 1.83142 6.79656 1.92849 6.79656C2.68579 6.79656 3.44308 6.79656 4.20037 6.79656C4.26545 6.79656 4.33089 6.79656 4.42178 6.79656C4.42178 6.70728 4.42178 6.63623 4.42178 6.56518C4.42178 5.96396 4.42069 5.36275 4.42251 4.7619C4.42396 4.27182 4.70099 3.99526 5.18998 3.99489C5.82621 3.99417 6.46207 3.99562 7.0983 3.99635C7.19428 3.99635 7.29062 3.99635 7.41859 3.99635C7.41859 3.82583 7.41859 3.67097 7.41859 3.51575C7.41823 2.77498 7.4175 2.03421 7.41714 1.29344C7.41714 1.257 7.40405 1.20745 7.42259 1.18668C7.48185 1.12073 7.54802 1.02745 7.62109 1.01797C7.68181 1.01032 7.77161 1.09449 7.81814 1.15971C7.85086 1.20599 7.83668 1.28834 7.83668 1.35465C7.83778 2.1683 7.83741 2.98194 7.83814 3.79558C7.83814 3.85461 7.84359 3.91364 7.84686 3.98324H10.402C10.402 3.90854 10.402 3.83822 10.402 3.76789C10.402 2.99068 10.402 2.21348 10.402 1.43627C10.402 1.38781 10.4038 1.33898 10.402 1.29052C10.3965 1.14004 10.4383 1.02089 10.6106 1.00813C10.7462 0.998296 10.8237 1.10068 10.8244 1.2836C10.8262 1.70263 10.8251 2.12166 10.8251 2.54032C10.8251 3.01364 10.8251 3.48696 10.8251 3.97777H13.39C13.39 3.91437 13.39 3.84987 13.39 3.78575C13.39 2.98413 13.3908 2.18287 13.3911 1.38125C13.3911 1.3266 13.3882 1.27158 13.394 1.21728C13.4086 1.08429 13.4788 0.998296 13.6187 1.00886C13.746 1.01834 13.8103 1.09923 13.81 1.22967C13.8092 1.39983 13.81 1.56963 13.81 1.73979C13.81 2.47983 13.81 3.22024 13.81 3.98324C13.8823 3.98688 13.9456 3.99307 14.0092 3.99307C14.5182 3.9938 15.0271 3.99307 15.5358 3.9938C16.0433 3.99453 16.3178 4.27036 16.3189 4.78376C16.32 5.37259 16.3189 5.96178 16.3189 6.5506C16.3189 6.62275 16.3189 6.69453 16.3189 6.78635C16.3963 6.79 16.4603 6.7951 16.5239 6.7951C17.4328 6.79546 18.3413 6.7951 19.2502 6.79546C19.3048 6.79546 19.3728 6.77761 19.4106 6.80311C19.4786 6.84902 19.5745 6.92153 19.5742 6.98275C19.5742 7.05672 19.4978 7.14562 19.4313 7.19809C19.3884 7.23198 19.3033 7.21485 19.2372 7.21522C18.3406 7.21595 17.4437 7.21558 16.5472 7.21558C16.481 7.21558 16.4149 7.21558 16.3338 7.21558V9.7866C16.4032 9.7866 16.4676 9.7866 16.5323 9.7866C17.435 9.7866 18.3377 9.7866 19.2404 9.7866C19.295 9.7866 19.3662 9.76692 19.4004 9.79388C19.4731 9.85073 19.5676 9.92834 19.5745 10.0045C19.58 10.0661 19.4807 10.1586 19.4069 10.1983C19.3451 10.2319 19.2532 10.2107 19.1743 10.2107C18.2959 10.2107 17.4172 10.2107 16.5388 10.2107C16.4734 10.2107 16.4083 10.2107 16.3309 10.2107V12.7715C16.3952 12.7748 16.4588 12.7814 16.5225 12.7814C17.4314 12.7821 18.3399 12.7817 19.2488 12.7825C19.3091 12.7825 19.3873 12.7668 19.4255 12.7978C19.4924 12.8521 19.5782 12.9395 19.5742 13.0084C19.5702 13.0754 19.4709 13.1476 19.3993 13.196C19.3615 13.2215 19.2931 13.2022 19.2386 13.2022C18.3722 13.2019 17.5059 13.2011 16.6395 13.2004C16.5428 13.2004 16.4465 13.2004 16.3283 13.2004C16.3243 13.2751 16.3178 13.3392 16.3178 13.4034C16.3178 13.9802 16.3196 14.557 16.3189 15.1338C16.3181 15.6421 16.0407 15.9215 15.5318 15.9241C15.0228 15.9266 14.5142 15.9248 14.0052 15.9252C13.9466 15.9252 13.8881 15.9252 13.8081 15.9252C13.8081 16.0494 13.8081 16.1511 13.8081 16.2524C13.8089 17.054 13.8092 17.8553 13.8096 18.6569C13.8096 18.7053 13.8274 18.7669 13.8045 18.8001C13.7547 18.8719 13.694 18.9626 13.6198 18.9848C13.5082 19.0183 13.422 18.9385 13.4017 18.8208C13.3871 18.7381 13.3915 18.6518 13.3911 18.5669C13.3904 17.7594 13.3911 16.9516 13.3908 16.1442C13.3908 16.0789 13.3853 16.0134 13.382 15.9368H10.8255C10.8255 16.0093 10.8255 16.0797 10.8255 16.15C10.8255 16.9636 10.8255 17.7773 10.8255 18.5909C10.8255 18.6638 10.8459 18.7498 10.8146 18.8059C10.7731 18.8799 10.699 18.9633 10.623 18.9834C10.5088 19.0136 10.4321 18.9269 10.4089 18.8117C10.3983 18.7589 10.4027 18.7028 10.4027 18.6485C10.4027 17.8228 10.4027 16.9968 10.4027 16.1711C10.4027 16.099 10.4027 16.0268 10.4027 15.939H7.83814C7.83814 16.0152 7.83814 16.0862 7.83814 16.1569C7.83814 16.9888 7.83814 17.8203 7.83741 18.6521C7.83741 18.7126 7.85414 18.7913 7.8236 18.8296C7.76943 18.897 7.68254 18.9845 7.61382 18.9804C7.5462 18.9768 7.47349 18.8777 7.42405 18.8059C7.39823 18.7684 7.4175 18.6995 7.41786 18.6452C7.41823 17.8196 7.41896 16.9935 7.41932 16.1679C7.41932 16.0961 7.41932 16.0243 7.41932 15.9248L7.41859 15.9252ZM15.8975 9.94437C15.8975 8.2504 15.8975 6.55607 15.8975 4.8621C15.8975 4.47951 15.8339 4.41465 15.4587 4.41465C12.066 4.41465 8.67323 4.41465 5.2805 4.41465C4.90749 4.41465 4.83442 4.48753 4.83442 4.86064C4.83442 8.26716 4.83442 11.6733 4.83442 15.0798C4.83442 15.4154 4.92022 15.5025 5.25178 15.5025C8.66269 15.5025 12.0732 15.5025 15.4841 15.5025C15.8193 15.5025 15.8971 15.4227 15.8971 15.0817C15.8971 13.3695 15.8971 11.6573 15.8971 9.94473L15.8975 9.94437Z"
        fill="white" stroke="white" />
    <path d="M9.5625 10.1875V6.4375H11.4375V10.375H12.75L10.5 13.375L8.0625 10.1875H9.5625Z" fill="white" />
    <path
        d="M11.5944 8.12724C11.5944 8.70405 11.5984 9.28121 11.5915 9.85801C11.5901 9.99502 11.6333 10.0358 11.7679 10.0333C12.1554 10.0256 12.5437 10.0245 12.9309 10.0358C13.0152 10.0384 13.1443 10.0817 13.1694 10.1415C13.1999 10.2144 13.1716 10.347 13.1192 10.4151C12.3114 11.462 11.4956 12.5026 10.6808 13.5436C10.5274 13.7397 10.4012 13.7382 10.2449 13.5385C9.43308 12.5023 8.62089 11.4664 7.81597 10.425C7.76217 10.3554 7.72327 10.2209 7.75526 10.1535C7.78616 10.0879 7.91632 10.0387 8.0043 10.0358C8.37949 10.0234 8.75577 10.0216 9.13097 10.0351C9.30475 10.0413 9.34147 9.97862 9.34074 9.8172C9.33456 8.70004 9.33747 7.58251 9.33783 6.46534C9.33783 6.16036 9.376 6.12283 9.68648 6.12283C10.2198 6.12283 10.7528 6.1221 11.2861 6.1232C11.5428 6.12356 11.5944 6.17603 11.5948 6.43328C11.5955 6.99805 11.5948 7.56283 11.5948 8.12761L11.5944 8.12724ZM10.4652 13.1341C11.1687 12.2345 11.8544 11.3578 12.5695 10.4436C12.1805 10.4436 11.8486 10.4436 11.5166 10.4436C11.2185 10.4436 11.1731 10.3973 11.1731 10.0938C11.1731 8.98935 11.1731 7.8853 11.1731 6.78089C11.1731 6.70947 11.1731 6.63805 11.1731 6.54405C10.7124 6.54405 10.2725 6.54113 9.83263 6.5506C9.80428 6.55133 9.7552 6.64534 9.75374 6.69672C9.74574 6.97546 9.74938 7.25457 9.74938 7.53368C9.74938 8.41328 9.75047 9.29324 9.74865 10.1728C9.74829 10.3904 9.69557 10.4406 9.4778 10.4428C9.2055 10.4454 8.93283 10.4436 8.66052 10.4436C8.57508 10.4436 8.48928 10.4436 8.36022 10.4436C9.07752 11.3603 9.75992 12.233 10.4649 13.1341H10.4652Z"
        fill="white" />
</svg>