<svg width="56" height="50" viewBox="0 0 56 50" fill="none" xmlns="http://www.w3.org/2000/svg">
<path d="M19.7829 40.8005C18.479 40.8005 17.2526 40.8005 16.0271 40.8005C15.3165 40.8005 14.6059 40.8044 13.8943 40.8005C12.5282 40.7908 11.7953 40.061 11.7924 38.7007C11.7885 37.1461 11.7943 35.5924 11.7924 34.0377C11.7924 33.8949 11.7769 33.7521 11.7643 33.5373C11.52 33.5373 11.3009 33.5373 11.0808 33.5373C8.91593 33.5383 6.75106 33.5412 4.58619 33.5402C4.05491 33.5402 3.79121 33.3459 3.8009 32.9728C3.8106 32.6094 4.08108 32.4209 4.61527 32.4209C6.82862 32.418 9.04196 32.4189 11.2553 32.418C11.4133 32.418 11.5714 32.418 11.7614 32.418V25.5891C11.5743 25.5804 11.4046 25.5648 11.234 25.5648C9.06911 25.5629 6.90424 25.5639 4.73937 25.5629C4.61043 25.5629 4.48051 25.5687 4.35157 25.558C4.00546 25.5299 3.81351 25.3229 3.81254 24.9896C3.81254 24.6466 4.02873 24.4649 4.36611 24.4367C4.47857 24.427 4.59201 24.4329 4.70544 24.4329C6.87031 24.4329 9.03518 24.4329 11.2 24.4329C11.3746 24.4329 11.5491 24.4329 11.7575 24.4329V17.6031C11.5588 17.5943 11.3726 17.5778 11.1855 17.5778C9.03712 17.5759 6.88776 17.5778 4.73937 17.5768C4.61043 17.5768 4.47954 17.5846 4.35157 17.571C4.0171 17.5341 3.80187 17.3485 3.80866 17.0055C3.81544 16.6674 4.02098 16.4721 4.36708 16.4604C4.62497 16.4507 4.88382 16.4575 5.14268 16.4575C7.16212 16.4575 9.18157 16.4575 11.201 16.4575C11.3746 16.4575 11.5491 16.4575 11.7914 16.4575C11.7914 16.2194 11.7914 16.0299 11.7914 15.8405C11.7914 14.2372 11.7885 12.634 11.7934 11.0317C11.7973 9.72485 12.536 8.98736 13.84 8.98639C15.5366 8.98444 17.2322 8.98833 18.9288 8.99027C19.1848 8.99027 19.4417 8.99027 19.7829 8.99027C19.7829 8.53554 19.7829 8.12258 19.7829 7.70865C19.782 5.73327 19.78 3.75788 19.7791 1.7825C19.7791 1.68533 19.7442 1.55319 19.7936 1.4978C19.9516 1.32193 20.1281 1.07319 20.3229 1.04793C20.4848 1.02752 20.7243 1.25197 20.8484 1.4259C20.9357 1.5493 20.8979 1.7689 20.8979 1.94574C20.9008 4.11546 20.8998 6.28517 20.9017 8.45489C20.9017 8.6123 20.9163 8.76971 20.925 8.95529H27.7386C27.7386 8.7561 27.7386 8.56857 27.7386 8.38104C27.7386 6.30849 27.7386 4.23594 27.7386 2.16339C27.7386 2.03416 27.7434 1.90396 27.7386 1.77473C27.724 1.37343 27.8355 1.0557 28.2951 1.02169C28.6567 0.995456 28.8632 1.26849 28.8651 1.75627C28.87 2.87367 28.8671 3.99108 28.8671 5.10752C28.8671 6.36971 28.8671 7.63189 28.8671 8.94072H35.7068C35.7068 8.77165 35.7068 8.59967 35.7068 8.42865C35.7068 6.291 35.7087 4.15432 35.7097 2.01667C35.7097 1.87092 35.702 1.7242 35.7175 1.57942C35.7562 1.22477 35.9434 0.995456 36.3166 1.02363C36.6559 1.0489 36.8275 1.26461 36.8266 1.61246C36.8246 2.06622 36.8266 2.51902 36.8266 2.97278C36.8266 4.94622 36.8266 6.92064 36.8266 8.95529C37.0195 8.96501 37.1882 8.98153 37.3578 8.98153C38.7151 8.98347 40.0724 8.98153 41.4287 8.98347C42.7821 8.98541 43.5141 9.72096 43.517 11.09C43.5199 12.6602 43.517 14.2314 43.517 15.8016C43.517 15.994 43.517 16.1854 43.517 16.4303C43.7235 16.44 43.8941 16.4536 44.0638 16.4536C46.4875 16.4546 48.9103 16.4536 51.334 16.4546C51.4794 16.4546 51.6607 16.407 51.7616 16.475C51.9428 16.5974 52.1988 16.7908 52.1978 16.954C52.1978 17.1512 51.9942 17.3883 51.8168 17.5282C51.7024 17.6186 51.4756 17.5729 51.2991 17.5739C48.9083 17.5759 46.5166 17.5749 44.1259 17.5749C43.9494 17.5749 43.773 17.5749 43.5568 17.5749V24.4309C43.7419 24.4309 43.9135 24.4309 44.0861 24.4309C46.4933 24.4309 48.9006 24.4309 51.3078 24.4309C51.4533 24.4309 51.6433 24.3785 51.7344 24.4504C51.9283 24.6019 52.1804 24.8089 52.1988 25.012C52.2133 25.1762 51.9487 25.423 51.7519 25.5289C51.587 25.6183 51.3418 25.5619 51.1314 25.5619C48.7891 25.5619 46.4458 25.5619 44.1036 25.5619C43.929 25.5619 43.7555 25.5619 43.549 25.5619V32.3908C43.7206 32.3995 43.8903 32.417 44.0599 32.417C46.4837 32.4189 48.9064 32.418 51.3301 32.4199C51.4911 32.4199 51.6995 32.3781 51.8013 32.4607C51.9797 32.6055 52.2085 32.8387 52.1978 33.0223C52.1872 33.2011 51.9225 33.3935 51.7315 33.5227C51.6307 33.5908 51.4484 33.5393 51.303 33.5393C48.9927 33.5383 46.6824 33.5363 44.3721 33.5344C44.1142 33.5344 43.8573 33.5344 43.5422 33.5344C43.5316 33.7336 43.5141 33.9046 43.5141 34.0756C43.5141 35.6138 43.519 37.1519 43.517 38.69C43.5151 40.0455 42.7754 40.7908 41.4181 40.7976C40.0608 40.8044 38.7045 40.7995 37.3472 40.8005C37.1911 40.8005 37.035 40.8005 36.8217 40.8005C36.8217 41.1318 36.8217 41.4029 36.8217 41.673C36.8237 43.8107 36.8246 45.9474 36.8256 48.085C36.8256 48.2142 36.8731 48.3784 36.812 48.4669C36.6792 48.6583 36.5173 48.9002 36.3195 48.9595C36.0219 49.0489 35.7921 48.8361 35.7378 48.5223C35.699 48.3017 35.7107 48.0714 35.7097 47.845C35.7078 45.6918 35.7097 43.5376 35.7087 41.3844C35.7087 41.2105 35.6942 41.0356 35.6855 40.8316H28.868C28.868 41.0249 28.868 41.2125 28.868 41.4C28.868 43.5697 28.868 45.7394 28.868 47.9091C28.868 48.1035 28.9223 48.3328 28.8389 48.4824C28.7284 48.6797 28.5306 48.9022 28.328 48.9556C28.0236 49.0363 27.819 48.805 27.757 48.498C27.7289 48.3571 27.7405 48.2074 27.7405 48.0627C27.7405 45.8609 27.7405 43.6581 27.7405 41.4563C27.7405 41.264 27.7405 41.0716 27.7405 40.8374H20.9017C20.9017 41.0405 20.9017 41.2299 20.9017 41.4184C20.9017 43.6367 20.9017 45.8541 20.8998 48.0724C20.8998 48.2337 20.9444 48.4436 20.8629 48.5456C20.7185 48.7253 20.4868 48.9585 20.3036 48.9478C20.1232 48.9381 19.9293 48.6738 19.7975 48.4824C19.7286 48.3823 19.78 48.1987 19.781 48.0539C19.782 45.8521 19.7839 43.6494 19.7849 41.4476C19.7849 41.2562 19.7849 41.0648 19.7849 40.7995L19.7829 40.8005ZM42.3934 24.8516C42.3934 20.3344 42.3934 15.8162 42.3934 11.2989C42.3934 10.2787 42.2237 10.1057 41.2232 10.1057C32.1759 10.1057 23.1286 10.1057 14.0814 10.1057C13.0867 10.1057 12.8918 10.3001 12.8918 11.2951C12.8918 20.3791 12.8918 29.4622 12.8918 38.5462C12.8918 39.4411 13.1206 39.6733 14.0048 39.6733C23.1005 39.6733 32.1953 39.6733 41.2911 39.6733C42.1849 39.6733 42.3924 39.4606 42.3924 38.5511C42.3924 33.9853 42.3924 29.4194 42.3924 24.8526L42.3934 24.8516Z" fill="#8B8682" stroke="#8B8682" stroke-width="2"/>
<path d="M25.5 25.5V15.5H30.5V26H34L28 34L21.5 25.5H25.5Z" fill="#8B8682"/>
<path d="M30.9185 20.006C30.9185 21.5441 30.9292 23.0832 30.9107 24.6214C30.9069 24.9867 31.0222 25.0955 31.3809 25.0887C32.4144 25.0683 33.4498 25.0654 34.4823 25.0955C34.7073 25.1023 35.0514 25.218 35.1183 25.3773C35.1998 25.5717 35.1241 25.9253 34.9845 26.107C32.8303 28.8986 30.6548 31.6737 28.4822 34.4497C28.073 34.9725 27.7366 34.9686 27.3197 34.4361C25.1549 31.6727 22.989 28.9103 20.8426 26.1333C20.6991 25.9477 20.5954 25.5891 20.6807 25.4094C20.7631 25.2345 21.1102 25.1033 21.3448 25.0955C22.3453 25.0625 23.3487 25.0576 24.3492 25.0936C24.8126 25.1101 24.9106 24.943 24.9086 24.5125C24.8921 21.5334 24.8999 18.5534 24.9009 15.5742C24.9009 14.761 25.0027 14.6609 25.8306 14.6609C27.2529 14.6609 28.6741 14.6589 30.0964 14.6619C30.7808 14.6628 30.9185 14.8027 30.9195 15.4887C30.9214 16.9948 30.9195 18.5009 30.9195 20.007L30.9185 20.006ZM27.9073 33.3576C29.7832 30.9585 31.6117 28.6207 33.5187 26.1828C32.4813 26.1828 31.5962 26.1828 30.711 26.1828C29.916 26.1828 29.7949 26.0594 29.7949 25.25C29.7949 22.3049 29.7949 19.3608 29.7949 16.4157C29.7949 16.2253 29.7949 16.0348 29.7949 15.7841C28.5665 15.7841 27.3934 15.7763 26.2203 15.8016C26.1447 15.8036 26.0138 16.0542 26.01 16.1912C25.9886 16.9346 25.9983 17.6789 25.9983 18.4232C25.9983 20.7687 26.0012 23.1153 25.9964 25.4609C25.9954 26.041 25.8548 26.1751 25.2741 26.1809C24.548 26.1877 23.8209 26.1828 23.0947 26.1828C22.8669 26.1828 22.6381 26.1828 22.2939 26.1828C24.2067 28.6275 26.0264 30.9546 27.9063 33.3576H27.9073Z" fill="#8B8682"/>
</svg>
