<svg width="100" height="100" viewBox="0 0 100 100" fill="none" xmlns="http://www.w3.org/2000/svg">
<rect width="100" height="100" rx="50" fill="#393533"/>
<path fill-rule="evenodd" clip-rule="evenodd" d="M25.0305 48.173L58.5011 28.8488C65.7001 24.6924 74.4966 26.6607 78.8617 32.8681L80.1367 35.0765C83.3299 41.9604 80.6362 50.5626 73.4372 54.719L39.9667 74.0432C33.2287 77.9334 25.0621 76.4529 20.4837 71.1472L17.7971 66.4938C15.4914 59.8759 18.2925 52.0632 25.0305 48.173ZM84.0353 37.2531C85.7591 44.8218 82.2703 53.0833 74.9372 57.317L41.4667 76.6413C33.4407 81.2751 23.5413 79.5074 18.0204 72.8807L15.0642 67.7603C12.0857 59.6657 15.5046 50.2087 23.5305 45.575L57.0011 26.2507C64.7302 21.7883 74.199 23.2618 79.8195 29.2948L80.1166 29.1232C82.269 27.8806 85.0211 28.618 86.2638 30.7703C87.5064 32.9227 86.769 35.6748 84.6166 36.9175L84.0353 37.2531ZM82.8022 33.6932L83.1516 34.2986C83.842 33.8751 84.0731 32.976 83.6657 32.2703C83.2641 31.5747 82.3894 31.3225 81.6826 31.6854C81.8428 31.9329 81.9975 32.1858 82.1465 32.4439C82.3837 32.8548 82.6022 33.2715 82.8022 33.6932Z" fill="url(#paint0_linear_387_819)"/>
<path d="M71.9492 38.5444C73.8226 41.7892 72.7181 45.9215 69.5006 47.7791C66.2831 49.6368 62.1521 48.5272 60.2788 45.2824C58.4054 42.0376 59.5099 37.9053 62.7274 36.0477C65.9449 34.19 70.0759 35.2996 71.9492 38.5444Z" stroke="url(#paint1_linear_387_819)" stroke-width="3"/>
<rect x="64.5" y="64.5" width="34" height="34" rx="17" fill="#51C61A"/>
<path d="M89 79.3529H85V73H79V79.3529H75L82 86.7647L89 79.3529ZM75 88.8824V91H89V88.8824H75Z" fill="#2C2520"/>
<rect x="64.5" y="64.5" width="34" height="34" rx="17" stroke="#2C2520" stroke-width="3"/>
<defs>
<linearGradient id="paint0_linear_387_819" x1="16.6748" y1="70.244" x2="86.0916" y2="30.1662" gradientUnits="userSpaceOnUse">
<stop stop-color="#E9B873"/>
<stop offset="0.369792" stop-color="#FEDD8F"/>
<stop offset="1" stop-color="#B78D51"/>
</linearGradient>
<linearGradient id="paint1_linear_387_819" x1="59.0069" y1="46.0167" x2="73.2755" y2="37.7787" gradientUnits="userSpaceOnUse">
<stop stop-color="#E9B873"/>
<stop offset="0.369792" stop-color="#FEDD8F"/>
<stop offset="1" stop-color="#B78D51"/>
</linearGradient>
</defs>
</svg>
