<svg width="100" height="100" viewBox="0 0 100 100" fill="none" xmlns="http://www.w3.org/2000/svg">
<rect width="100" height="100" rx="50" fill="#393533"/>
<path fill-rule="evenodd" clip-rule="evenodd" d="M25.0305 48.1728L58.5011 28.8486C65.7001 24.6922 74.4966 26.6605 78.8617 32.8679L80.1367 35.0763C83.3299 41.9602 80.6362 50.5624 73.4372 54.7188L39.9667 74.043C33.2287 77.9332 25.0621 76.4526 20.4837 71.147L17.7971 66.4936C15.4914 59.8757 18.2925 52.063 25.0305 48.1728ZM84.0353 37.2529C85.7591 44.8216 82.2703 53.0831 74.9372 57.3168L41.4667 76.6411C33.4407 81.2748 23.5413 79.5072 18.0204 72.8805L15.0642 67.7601C12.0857 59.6655 15.5046 50.2085 23.5305 45.5747L57.0011 26.2505C64.7302 21.7881 74.199 23.2616 79.8195 29.2946L80.1166 29.123C82.269 27.8804 85.0211 28.6178 86.2638 30.7701C87.5064 32.9225 86.769 35.6746 84.6166 36.9172L84.0353 37.2529ZM82.8022 33.693L83.1516 34.2983C83.842 33.8749 84.0731 32.9758 83.6657 32.2701C83.2641 31.5745 82.3894 31.3223 81.6826 31.6852C81.8428 31.9327 81.9975 32.1856 82.1465 32.4437C82.3837 32.8546 82.6022 33.2713 82.8022 33.693Z" fill="url(#paint0_linear_2312_9732)"/>
<path d="M71.9489 38.544C73.8223 41.7888 72.7177 45.9211 69.5002 47.7787C66.2827 49.6363 62.1518 48.5267 60.2784 45.282C58.405 42.0372 59.5096 37.9049 62.7271 36.0472C65.9446 34.1896 70.0755 35.2992 71.9489 38.544Z" stroke="url(#paint1_linear_2312_9732)" stroke-width="3"/>
<rect x="64.5" y="64.5" width="34" height="34" rx="17" fill="#FF624C"/>
<path d="M89 79.3529H85V73H79V79.3529H75L82 86.7647L89 79.3529ZM75 88.8824V91H89V88.8824H75Z" fill="#2C2520"/>
<rect x="64.5" y="64.5" width="34" height="34" rx="17" stroke="#2C2520" stroke-width="3"/>
<defs>
<linearGradient id="paint0_linear_2312_9732" x1="16.6748" y1="70.2438" x2="86.0916" y2="30.166" gradientUnits="userSpaceOnUse">
<stop stop-color="#E9B873"/>
<stop offset="0.369792" stop-color="#FEDD8F"/>
<stop offset="1" stop-color="#B78D51"/>
</linearGradient>
<linearGradient id="paint1_linear_2312_9732" x1="59.0066" y1="46.0162" x2="73.2752" y2="37.7783" gradientUnits="userSpaceOnUse">
<stop stop-color="#E9B873"/>
<stop offset="0.369792" stop-color="#FEDD8F"/>
<stop offset="1" stop-color="#B78D51"/>
</linearGradient>
</defs>
</svg>
