<svg width="24" height="24" viewBox="0 0 24 24" fill="none" xmlns="http://www.w3.org/2000/svg">
<g clip-path="url(#clip0_2242_102392)">
<path d="M11.969 6.56582e-05C14.3171 0.0158143 16.6078 0.726472 18.5525 2.04242C20.4972 3.35837 22.0086 5.22068 22.8963 7.3945C23.7839 9.56833 24.008 11.9563 23.5403 14.2573C23.0726 16.5584 21.934 18.6694 20.2681 20.3241C18.6023 21.9789 16.4837 23.1034 14.1796 23.5557C11.8755 24.008 9.48907 23.768 7.32123 22.8658C5.15339 21.9636 3.30122 20.4397 1.9983 18.4863C0.695382 16.5329 5.28139e-05 14.2374 0 11.8894C0.0106593 8.72557 1.27765 5.69559 3.52226 3.46594C5.76687 1.23628 8.80525 -0.0104237 11.969 6.56582e-05Z" fill="#2B61D1"/>
<path d="M13.3873 18.7928L12.024 19.5801L9.09521 17.8916L10.4253 17.1236L10.4586 17.1042L10.5097 17.1337L13.3873 18.7928Z" fill="white"/>
<path d="M18.621 8.15536V9.74014L15.7379 8.07562L14.956 7.62427L14.174 8.07562L10.5098 10.1923L9.72785 10.6436V11.5781L8.31804 10.7644L7.53611 10.313L6.75417 10.7644L5.42798 11.5293V8.15536L12.0241 4.34711L18.621 8.15536Z" fill="white"/>
<path d="M18.621 11.5432V15.7781L14.9568 17.8916H14.9521L11.2917 15.7781V11.5432L14.9568 9.42657L18.621 11.5432Z" fill="white"/>
<path d="M9.64346 13.3332V15.7665L7.53533 16.9843L5.42798 15.7673V13.334L7.53611 12.1169L9.64346 13.3332Z" fill="white"/>
</g>
<defs>
<clipPath id="clip0_2242_102392">
<rect width="24" height="24" fill="white"/>
</clipPath>
</defs>
</svg>