<svg width="335" height="140" viewBox="0 0 335 140" fill="none" xmlns="http://www.w3.org/2000/svg">
<g filter="url(#filter0_dd_2637_21021)">
<path d="M53.1695 70.9429H22.1016V81.4659H53.1695V70.9429Z" fill="#433E39"/>
<g style="mix-blend-mode:multiply">
<path d="M53.1336 70.8433H46.2235V81.3111H53.1336V70.8433Z" fill="#535762"/>
</g>
<path d="M98.5084 67.1201H71.0835C69.8603 67.1201 68.8687 68.1117 68.8687 69.3349V82.8144C68.8687 84.0376 69.8603 85.0292 71.0835 85.0292H98.5084C99.7316 85.0292 100.723 84.0376 100.723 82.8144V69.3349C100.723 68.1117 99.7316 67.1201 98.5084 67.1201Z" fill="#776E67"/>
<g style="mix-blend-mode:multiply">
<path d="M86.4671 67.1201H71.0835C69.8603 67.1201 68.8687 68.1117 68.8687 69.3349V82.8144C68.8687 84.0376 69.8603 85.0292 71.0835 85.0292H86.4671C87.6903 85.0292 88.6819 84.0376 88.6819 82.8144V69.3349C88.6819 68.1117 87.6903 67.1201 86.4671 67.1201Z" fill="#535762"/>
</g>
<path d="M80.8952 61.918H54.1567C50.8357 61.918 48.1436 64.6101 48.1436 67.9311V84.2217C48.1436 87.5427 50.8357 90.2349 54.1567 90.2349H80.8952C84.2161 90.2349 86.9083 87.5427 86.9083 84.2217V67.9311C86.9083 64.6101 84.2161 61.918 80.8952 61.918Z" fill="#433E39"/>
<path fill-rule="evenodd" clip-rule="evenodd" d="M142.03 22.4199L254.262 22.4199C258.803 22.4199 263.214 22.9535 267.43 23.9588C291.387 28.4949 309.505 49.5404 309.505 74.8167C309.505 75.574 309.489 76.3274 309.457 77.0767H310.352C311.805 77.0767 312.987 75.8941 312.987 74.4409C312.987 72.9878 311.805 71.8052 310.352 71.8052H309.445C309.274 68.1472 308.748 64.5844 307.891 61.1519C308.663 63.1864 310.352 63.7877 310.352 63.7877L310.347 63.7927C316.23 63.7927 321 68.5631 321 74.446C321 80.3288 316.23 85.0992 310.347 85.0992C310.347 85.0992 308.627 85.7069 307.869 87.7794C307.788 88.0927 307.704 88.405 307.618 88.716C307.606 88.7805 307.595 88.846 307.586 88.9126L307.566 88.9009C301.432 110.644 281.447 126.58 257.742 126.58L140.451 126.58C123.782 126.58 108.954 118.697 99.4879 106.457C93.9198 99.7337 90.0577 91.6591 88.5267 82.8314V65.7351C92.7891 41.1587 115.118 22.4199 142.03 22.4199Z" fill="#34302D"/>
<path d="M254.439 50.9003C267.628 50.9003 278.361 61.6288 278.361 74.8226C278.361 88.0164 267.633 98.7448 254.439 98.7448C241.245 98.7448 230.517 88.0164 230.517 74.8226C230.517 61.6288 241.245 50.9003 254.439 50.9003ZM254.439 42.8828C236.8 42.8828 222.499 57.184 222.499 74.8226C222.499 92.4611 236.8 106.762 254.439 106.762C272.077 106.762 286.379 92.4611 286.379 74.8226C286.379 57.184 272.077 42.8828 254.439 42.8828Z" fill="#1D1915"/>
<path d="M254.438 98.7391C267.65 98.7391 278.361 88.0287 278.361 74.8168C278.361 61.6049 267.65 50.8945 254.438 50.8945C241.226 50.8945 230.516 61.6049 230.516 74.8168C230.516 88.0287 241.226 98.7391 254.438 98.7391Z" fill="#34302D"/>
<path d="M149.927 59.5555H151.272C151.229 60.0683 151.085 60.5255 150.841 60.9271C150.598 61.3251 150.255 61.6388 149.814 61.8683C149.373 62.0978 148.837 62.2126 148.206 62.2126C147.722 62.2126 147.286 62.1265 146.899 61.9544C146.512 61.7787 146.18 61.5313 145.904 61.2121C145.628 60.8894 145.416 60.5004 145.269 60.045C145.126 59.5896 145.054 59.0804 145.054 58.5174V57.8666C145.054 57.3037 145.127 56.7945 145.274 56.3391C145.425 55.8837 145.64 55.4946 145.92 55.1719C146.2 54.8456 146.535 54.5964 146.926 54.4243C147.32 54.2522 147.763 54.1661 148.254 54.1661C148.878 54.1661 149.405 54.2809 149.836 54.5104C150.266 54.7398 150.599 55.0572 150.836 55.4624C151.076 55.8676 151.223 56.3319 151.277 56.8554H149.932C149.896 56.5184 149.818 56.2297 149.696 55.9895C149.577 55.7492 149.402 55.5664 149.169 55.4409C148.936 55.3118 148.631 55.2472 148.254 55.2472C147.946 55.2472 147.677 55.3046 147.447 55.4193C147.218 55.5341 147.026 55.7026 146.872 55.9249C146.718 56.1473 146.601 56.4216 146.522 56.7479C146.447 57.0706 146.409 57.4399 146.409 57.8559V58.5174C146.409 58.9119 146.443 59.2704 146.512 59.5932C146.583 59.9123 146.691 60.1866 146.834 60.4161C146.981 60.6456 147.168 60.8231 147.394 60.9486C147.62 61.0741 147.89 61.1368 148.206 61.1368C148.589 61.1368 148.9 61.0759 149.136 60.954C149.377 60.832 149.558 60.6545 149.68 60.4215C149.805 60.1848 149.888 59.8962 149.927 59.5555ZM153.223 59.2597V59.136C153.223 58.7164 153.284 58.3274 153.406 57.9688C153.528 57.6067 153.703 57.2929 153.933 57.0276C154.166 56.7586 154.449 56.5506 154.783 56.4036C155.12 56.253 155.5 56.1777 155.923 56.1777C156.35 56.1777 156.73 56.253 157.063 56.4036C157.4 56.5506 157.685 56.7586 157.919 57.0276C158.152 57.2929 158.329 57.6067 158.451 57.9688C158.573 58.3274 158.634 58.7164 158.634 59.136V59.2597C158.634 59.6792 158.573 60.0683 158.451 60.4268C158.329 60.7854 158.152 61.0992 157.919 61.3681C157.685 61.6335 157.402 61.8414 157.069 61.992C156.735 62.139 156.357 62.2126 155.934 62.2126C155.507 62.2126 155.125 62.139 154.788 61.992C154.455 61.8414 154.171 61.6335 153.938 61.3681C153.705 61.0992 153.528 60.7854 153.406 60.4268C153.284 60.0683 153.223 59.6792 153.223 59.2597ZM154.519 59.136V59.2597C154.519 59.5214 154.546 59.7689 154.6 60.0019C154.654 60.235 154.738 60.4394 154.853 60.6151C154.967 60.7908 155.114 60.9289 155.294 61.0293C155.473 61.1297 155.686 61.1799 155.934 61.1799C156.174 61.1799 156.382 61.1297 156.558 61.0293C156.737 60.9289 156.884 60.7908 156.999 60.6151C157.114 60.4394 157.198 60.235 157.252 60.0019C157.309 59.7689 157.338 59.5214 157.338 59.2597V59.136C157.338 58.8778 157.309 58.634 157.252 58.4045C157.198 58.1714 157.112 57.9652 156.993 57.7859C156.879 57.6067 156.732 57.4668 156.552 57.3664C156.377 57.2624 156.167 57.2104 155.923 57.2104C155.679 57.2104 155.468 57.2624 155.288 57.3664C155.113 57.4668 154.967 57.6067 154.853 57.7859C154.738 57.9652 154.654 58.1714 154.6 58.4045C154.546 58.634 154.519 58.8778 154.519 59.136ZM162.107 57.5278V62.105H160.811V56.2853H162.032L162.107 57.5278ZM161.876 58.98L161.457 58.9746C161.46 58.5623 161.518 58.184 161.629 57.8397C161.743 57.4955 161.901 57.1997 162.102 56.9523C162.306 56.7048 162.55 56.5148 162.834 56.3821C163.117 56.2459 163.432 56.1777 163.78 56.1777C164.06 56.1777 164.313 56.2172 164.539 56.2961C164.768 56.3714 164.963 56.4951 165.125 56.6672C165.29 56.8393 165.415 57.0634 165.501 57.3395C165.587 57.612 165.63 57.9473 165.63 58.3453V62.105H164.329V58.3399C164.329 58.0602 164.288 57.8397 164.205 57.6784C164.126 57.5134 164.01 57.3969 163.855 57.3288C163.705 57.257 163.517 57.2212 163.291 57.2212C163.068 57.2212 162.869 57.2678 162.694 57.361C162.518 57.4543 162.369 57.5816 162.247 57.7429C162.129 57.9043 162.037 58.0907 161.973 58.3023C161.908 58.5138 161.876 58.7398 161.876 58.98ZM169.722 62.105H168.421V55.9088C168.421 55.4391 168.514 55.0428 168.701 54.7201C168.891 54.3974 169.161 54.1518 169.513 53.9832C169.868 53.8147 170.289 53.7305 170.777 53.7305C171.064 53.7305 171.34 53.7609 171.605 53.8219C171.874 53.8828 172.152 53.9599 172.439 54.0532L172.24 55.1074C172.057 55.0464 171.854 54.9891 171.632 54.9353C171.41 54.8779 171.153 54.8492 170.863 54.8492C170.472 54.8492 170.183 54.9389 169.997 55.1181C169.814 55.2938 169.722 55.5574 169.722 55.9088V62.105ZM170.89 56.2853V57.2319H167.528V56.2853H170.89ZM173.052 56.2853V62.105H171.756V56.2853H173.052ZM176.902 57.3933V62.105H175.606V56.2853H176.843L176.902 57.3933ZM178.682 56.2477L178.671 57.4525C178.593 57.4381 178.507 57.4274 178.413 57.4202C178.324 57.413 178.234 57.4094 178.144 57.4094C177.922 57.4094 177.727 57.4417 177.558 57.5063C177.39 57.5672 177.248 57.6569 177.133 57.7752C177.022 57.8899 176.936 58.0298 176.875 58.1947C176.814 58.3597 176.778 58.5443 176.767 58.7487L176.472 58.7702C176.472 58.4045 176.507 58.0656 176.579 57.7537C176.651 57.4417 176.758 57.1674 176.902 56.9307C177.049 56.6941 177.232 56.5094 177.45 56.3767C177.673 56.2441 177.929 56.1777 178.22 56.1777C178.299 56.1777 178.383 56.1849 178.472 56.1992C178.566 56.2136 178.636 56.2297 178.682 56.2477ZM181.892 57.4686V62.105H180.596V56.2853H181.817L181.892 57.4686ZM181.682 58.98L181.241 58.9746C181.241 58.573 181.292 58.2019 181.392 57.8612C181.492 57.5206 181.639 57.2248 181.833 56.9738C182.027 56.7192 182.267 56.5238 182.554 56.3875C182.844 56.2477 183.179 56.1777 183.56 56.1777C183.825 56.1777 184.067 56.2172 184.286 56.2961C184.508 56.3714 184.7 56.4915 184.861 56.6564C185.026 56.8214 185.152 57.0329 185.238 57.2911C185.327 57.5493 185.372 57.8612 185.372 58.227V62.105H184.076V58.3399C184.076 58.0567 184.033 57.8343 183.947 57.673C183.864 57.5116 183.744 57.3969 183.586 57.3288C183.432 57.257 183.248 57.2212 183.032 57.2212C182.789 57.2212 182.581 57.2678 182.409 57.361C182.24 57.4543 182.102 57.5816 181.994 57.7429C181.887 57.9043 181.808 58.0907 181.758 58.3023C181.708 58.5138 181.682 58.7398 181.682 58.98ZM185.291 58.6358L184.684 58.7702C184.684 58.4188 184.732 58.0871 184.829 57.7752C184.929 57.4596 185.075 57.1835 185.265 56.9469C185.458 56.7066 185.697 56.5184 185.98 56.3821C186.263 56.2459 186.588 56.1777 186.953 56.1777C187.251 56.1777 187.516 56.219 187.75 56.3014C187.986 56.3803 188.187 56.5058 188.352 56.6779C188.517 56.8501 188.642 57.0742 188.728 57.3503C188.814 57.6228 188.858 57.9527 188.858 58.3399V62.105H187.556V58.3346C187.556 58.0405 187.513 57.8128 187.427 57.6515C187.344 57.4901 187.226 57.379 187.072 57.318C186.918 57.2535 186.733 57.2212 186.518 57.2212C186.317 57.2212 186.14 57.2588 185.985 57.3341C185.835 57.4058 185.707 57.508 185.603 57.6407C185.499 57.7698 185.421 57.9186 185.367 58.0871C185.317 58.2557 185.291 58.4385 185.291 58.6358Z" fill="white"/>
<path d="M134.32 92.694C134.366 92.6495 134.403 92.5964 134.428 92.5376C134.454 92.4788 134.467 92.4156 134.468 92.3516C134.468 92.2876 134.456 92.2242 134.432 92.1649C134.408 92.1057 134.372 92.0519 134.327 92.0066C134.281 91.9613 134.228 91.9255 134.168 91.9013C134.109 91.877 134.046 91.8648 133.982 91.8653C133.918 91.8659 133.855 91.8791 133.796 91.9043C133.737 91.9296 133.684 91.9663 133.639 92.0123L131.708 93.943L129.777 92.0123C129.733 91.9649 129.68 91.9269 129.621 91.9006C129.562 91.8743 129.498 91.8601 129.433 91.859C129.368 91.8578 129.304 91.8697 129.244 91.894C129.184 91.9182 129.13 91.9543 129.084 92C129.038 92.0458 129.002 92.1003 128.978 92.1603C128.953 92.2203 128.942 92.2846 128.943 92.3493C128.944 92.414 128.958 92.4778 128.984 92.5369C129.011 92.596 129.049 92.6492 129.096 92.6933L131.026 94.6248L129.095 96.5556C129.01 96.6469 128.963 96.7677 128.965 96.8926C128.968 97.0174 129.018 97.1365 129.107 97.2248C129.195 97.3131 129.314 97.3637 129.439 97.3659C129.564 97.3681 129.684 97.3217 129.776 97.2366L131.708 95.3058L133.639 97.2373C133.73 97.3224 133.851 97.3687 133.976 97.3665C134.101 97.3643 134.22 97.3138 134.308 97.2255C134.396 97.1372 134.447 97.0181 134.449 96.8932C134.451 96.7684 134.405 96.6475 134.32 96.5562L132.39 94.6248L134.32 92.694Z" fill="white"/>
<rect x="126.61" y="89.5181" width="10.1893" height="10.1893" rx="3.44232" stroke="white" stroke-width="0.826158"/>
<path d="M200.607 94.6128L202.92 96.5405L206.004 92.6851" stroke="white" stroke-width="1.10154" stroke-linecap="round"/>
<rect x="198.211" y="89.5181" width="10.1893" height="10.1893" rx="3.44232" stroke="white" stroke-width="0.826158"/>
</g>
<defs>
<filter id="filter0_dd_2637_21021" x="-1.03086" y="0.389049" width="335.8" height="139.41" filterUnits="userSpaceOnUse" color-interpolation-filters="sRGB">
<feFlood flood-opacity="0" result="BackgroundImageFix"/>
<feColorMatrix in="SourceAlpha" type="matrix" values="0 0 0 0 0 0 0 0 0 0 0 0 0 0 0 0 0 0 127 0" result="hardAlpha"/>
<feOffset dx="2.75386" dy="2.20309"/>
<feGaussianBlur stdDeviation="5.50772"/>
<feComposite in2="hardAlpha" operator="out"/>
<feColorMatrix type="matrix" values="0 0 0 0 0 0 0 0 0 0 0 0 0 0 0 0 0 0 0.41 0"/>
<feBlend mode="normal" in2="BackgroundImageFix" result="effect1_dropShadow_2637_21021"/>
<feColorMatrix in="SourceAlpha" type="matrix" values="0 0 0 0 0 0 0 0 0 0 0 0 0 0 0 0 0 0 127 0" result="hardAlpha"/>
<feOffset dx="-5.50772" dy="-5.50772"/>
<feGaussianBlur stdDeviation="8.26158"/>
<feComposite in2="hardAlpha" operator="out"/>
<feColorMatrix type="matrix" values="0 0 0 0 0.0916667 0 0 0 0 0.0758333 0 0 0 0 0.0626389 0 0 0 1 0"/>
<feBlend mode="normal" in2="effect1_dropShadow_2637_21021" result="effect2_dropShadow_2637_21021"/>
<feBlend mode="normal" in="SourceGraphic" in2="effect2_dropShadow_2637_21021" result="shape"/>
</filter>
</defs>
</svg>
