<svg width="335" height="141" viewBox="0 0 335 141" fill="none" xmlns="http://www.w3.org/2000/svg">
<g filter="url(#filter0_dd_2637_32427)">
<path d="M53.1695 71.443H22.1016V81.966H53.1695V71.443Z" fill="#433E39"/>
<g style="mix-blend-mode:multiply">
<path d="M53.1337 71.3436H46.2236V81.8115H53.1337V71.3436Z" fill="#535762"/>
</g>
<path d="M98.5088 67.6205H71.084C69.8607 67.6205 68.8691 68.6121 68.8691 69.8353V83.3148C68.8691 84.538 69.8607 85.5296 71.084 85.5296H98.5088C99.7321 85.5296 100.724 84.538 100.724 83.3148V69.8353C100.724 68.6121 99.7321 67.6205 98.5088 67.6205Z" fill="#776E67"/>
<g style="mix-blend-mode:multiply">
<path d="M86.4676 67.6205H71.084C69.8607 67.6205 68.8691 68.6121 68.8691 69.8353V83.3148C68.8691 84.538 69.8607 85.5296 71.084 85.5296H86.4676C87.6908 85.5296 88.6824 84.538 88.6824 83.3148V69.8353C88.6824 68.6121 87.6908 67.6205 86.4676 67.6205Z" fill="#535762"/>
</g>
<path d="M80.8952 62.4183H54.1567C50.8357 62.4183 48.1436 65.1105 48.1436 68.4314V84.722C48.1436 88.043 50.8357 90.7352 54.1567 90.7352H80.8952C84.2161 90.7352 86.9083 88.043 86.9083 84.722V68.4314C86.9083 65.1105 84.2161 62.4183 80.8952 62.4183Z" fill="#433E39"/>
<path fill-rule="evenodd" clip-rule="evenodd" d="M142.03 22.9201L254.262 22.9201C258.803 22.9201 263.214 23.4537 267.43 24.4589C291.387 28.995 309.505 50.0406 309.505 75.3169C309.505 76.0741 309.488 76.8275 309.456 77.5768H310.351C311.805 77.5768 312.987 76.3943 312.987 74.9411C312.987 73.4879 311.805 72.3053 310.351 72.3053H309.444C309.274 68.6473 308.748 65.0846 307.891 61.6521C308.663 63.6865 310.351 64.2878 310.351 64.2878L310.346 64.2928C316.229 64.2928 321 69.0632 321 74.9461C321 80.8289 316.229 85.5994 310.346 85.5994C310.346 85.5994 308.627 86.2071 307.868 88.2795C307.787 88.5929 307.704 88.9051 307.617 89.2162C307.606 89.2806 307.595 89.3461 307.585 89.4127L307.565 89.4011C301.431 111.144 281.447 127.08 257.742 127.08L140.451 127.08C123.781 127.08 108.954 119.197 99.4876 106.957C93.9195 100.234 90.0574 92.1592 88.5264 83.3315V66.2353C92.7888 41.6589 115.118 22.9201 142.03 22.9201Z" fill="#34302D"/>
<path d="M254.439 51.4005C267.628 51.4005 278.361 62.129 278.361 75.3228C278.361 88.5166 267.633 99.2451 254.439 99.2451C241.245 99.2451 230.517 88.5166 230.517 75.3228C230.517 62.129 241.245 51.4005 254.439 51.4005ZM254.439 43.383C236.8 43.383 222.499 57.6843 222.499 75.3228C222.499 92.9613 236.8 107.263 254.439 107.263C272.077 107.263 286.379 92.9613 286.379 75.3228C286.379 57.6843 272.077 43.383 254.439 43.383Z" fill="#1D1915"/>
<path d="M254.438 99.2394C267.65 99.2394 278.36 88.529 278.36 75.3171C278.36 62.1052 267.65 51.3949 254.438 51.3949C241.226 51.3949 230.516 62.1052 230.516 75.3171C230.516 88.529 241.226 99.2394 254.438 99.2394Z" fill="#34302D"/>
<path d="M133.895 60.1032V63.0938C133.784 63.2408 133.61 63.4021 133.373 63.5778C133.14 63.75 132.83 63.8988 132.443 64.0243C132.055 64.1498 131.573 64.2125 130.996 64.2125C130.505 64.2125 130.055 64.1301 129.646 63.9651C129.237 63.7966 128.884 63.551 128.586 63.2282C128.292 62.9055 128.064 62.5129 127.903 62.0503C127.742 61.5842 127.661 61.0535 127.661 60.4582V59.915C127.661 59.3233 127.735 58.7962 127.882 58.3337C128.032 57.8675 128.247 57.4731 128.527 57.1504C128.807 56.8277 129.144 56.5838 129.538 56.4189C129.936 56.2504 130.386 56.1661 130.888 56.1661C131.53 56.1661 132.061 56.2737 132.48 56.4888C132.903 56.7004 133.23 56.9944 133.459 57.3709C133.689 57.7474 133.834 58.1777 133.895 58.6618H132.572C132.529 58.3893 132.444 58.1454 132.319 57.9303C132.197 57.7151 132.021 57.5466 131.792 57.4247C131.566 57.2992 131.272 57.2364 130.91 57.2364C130.598 57.2364 130.323 57.2956 130.087 57.4139C129.85 57.5323 129.653 57.7062 129.495 57.9357C129.341 58.1651 129.224 58.4448 129.146 58.7747C129.067 59.1046 129.027 59.4811 129.027 59.9042V60.4582C129.027 60.8885 129.072 61.2704 129.162 61.6039C129.255 61.9374 129.388 62.2188 129.56 62.4483C129.735 62.6778 129.949 62.8517 130.2 62.9701C130.451 63.0848 130.734 63.1422 131.05 63.1422C131.358 63.1422 131.611 63.1171 131.808 63.0669C132.005 63.0131 132.161 62.9503 132.276 62.8786C132.394 62.8033 132.486 62.7316 132.55 62.6635V61.1091H130.921V60.1032H133.895ZM138.928 64.2125C138.498 64.2125 138.109 64.1426 137.761 64.0028C137.417 63.8593 137.123 63.6603 136.879 63.4057C136.639 63.1511 136.454 62.8517 136.325 62.5075C136.196 62.1633 136.131 61.7921 136.131 61.3941V61.179C136.131 60.7236 136.198 60.3112 136.33 59.9419C136.463 59.5726 136.648 59.257 136.884 58.9953C137.121 58.7299 137.401 58.5273 137.723 58.3875C138.046 58.2476 138.396 58.1777 138.772 58.1777C139.188 58.1777 139.552 58.2476 139.864 58.3875C140.176 58.5273 140.434 58.7245 140.639 58.9791C140.847 59.2301 141.001 59.5295 141.101 59.8773C141.205 60.2252 141.257 60.6088 141.257 61.0284V61.5824H136.761V60.6519H139.977V60.5497C139.97 60.3166 139.923 60.0979 139.837 59.8935C139.755 59.6891 139.627 59.5241 139.455 59.3986C139.283 59.2731 139.054 59.2104 138.767 59.2104C138.552 59.2104 138.36 59.257 138.191 59.3502C138.026 59.4399 137.888 59.5708 137.777 59.7429C137.666 59.915 137.58 60.123 137.519 60.3668C137.462 60.607 137.433 60.8778 137.433 61.179V61.3941C137.433 61.6487 137.467 61.8854 137.535 62.1041C137.607 62.3192 137.711 62.5075 137.847 62.6689C137.983 62.8302 138.148 62.9575 138.342 63.0507C138.536 63.1404 138.756 63.1852 139.004 63.1852C139.315 63.1852 139.593 63.1225 139.837 62.997C140.081 62.8715 140.293 62.694 140.472 62.4645L141.155 63.126C141.029 63.3089 140.866 63.4846 140.666 63.6531C140.465 63.8181 140.219 63.9526 139.929 64.0565C139.642 64.1605 139.308 64.2125 138.928 64.2125ZM144.655 59.5277V64.1049H143.359V58.2853H144.58L144.655 59.5277ZM144.424 60.98L144.005 60.9746C144.008 60.5622 144.066 60.1839 144.177 59.8397C144.291 59.4955 144.449 59.1996 144.65 58.9522C144.854 58.7048 145.098 58.5148 145.381 58.3821C145.665 58.2458 145.98 58.1777 146.328 58.1777C146.608 58.1777 146.861 58.2171 147.087 58.296C147.316 58.3713 147.511 58.495 147.673 58.6672C147.838 58.8393 147.963 59.0634 148.049 59.3395C148.135 59.612 148.178 59.9473 148.178 60.3453V64.1049H146.877V60.3399C146.877 60.0602 146.836 59.8397 146.753 59.6783C146.674 59.5134 146.558 59.3969 146.403 59.3287C146.253 59.257 146.065 59.2212 145.839 59.2212C145.616 59.2212 145.417 59.2678 145.242 59.361C145.066 59.4542 144.917 59.5815 144.795 59.7429C144.677 59.9042 144.585 60.0907 144.521 60.3023C144.456 60.5138 144.424 60.7397 144.424 60.98ZM153.169 64.2125C152.738 64.2125 152.349 64.1426 152.002 64.0028C151.657 63.8593 151.363 63.6603 151.119 63.4057C150.879 63.1511 150.695 62.8517 150.565 62.5075C150.436 62.1633 150.372 61.7921 150.372 61.3941V61.179C150.372 60.7236 150.438 60.3112 150.571 59.9419C150.703 59.5726 150.888 59.257 151.125 58.9953C151.361 58.7299 151.641 58.5273 151.964 58.3875C152.287 58.2476 152.636 58.1777 153.013 58.1777C153.429 58.1777 153.793 58.2476 154.105 58.3875C154.417 58.5273 154.675 58.7245 154.879 58.9791C155.087 59.2301 155.241 59.5295 155.342 59.8773C155.446 60.2252 155.498 60.6088 155.498 61.0284V61.5824H151.001V60.6519H154.218V60.5497C154.21 60.3166 154.164 60.0979 154.078 59.8935C153.995 59.6891 153.868 59.5241 153.696 59.3986C153.524 59.2731 153.294 59.2104 153.007 59.2104C152.792 59.2104 152.6 59.257 152.432 59.3502C152.267 59.4399 152.129 59.5708 152.018 59.7429C151.906 59.915 151.82 60.123 151.759 60.3668C151.702 60.607 151.673 60.8778 151.673 61.179V61.3941C151.673 61.6487 151.707 61.8854 151.776 62.1041C151.847 62.3192 151.951 62.5075 152.088 62.6689C152.224 62.8302 152.389 62.9575 152.582 63.0507C152.776 63.1404 152.997 63.1852 153.244 63.1852C153.556 63.1852 153.834 63.1225 154.078 62.997C154.321 62.8715 154.533 62.694 154.712 62.4645L155.395 63.126C155.27 63.3089 155.107 63.4846 154.906 63.6531C154.705 63.8181 154.46 63.9526 154.169 64.0565C153.882 64.1605 153.549 64.2125 153.169 64.2125ZM158.912 59.3933V64.1049H157.616V58.2853H158.853L158.912 59.3933ZM160.692 58.2476L160.682 59.4524C160.603 59.4381 160.517 59.4273 160.423 59.4202C160.334 59.413 160.244 59.4094 160.154 59.4094C159.932 59.4094 159.737 59.4417 159.568 59.5062C159.4 59.5672 159.258 59.6568 159.143 59.7752C159.032 59.8899 158.946 60.0297 158.885 60.1947C158.824 60.3596 158.788 60.5443 158.778 60.7487L158.482 60.7702C158.482 60.4045 158.518 60.0656 158.589 59.7536C158.661 59.4417 158.769 59.1674 158.912 58.9307C159.059 58.694 159.242 58.5094 159.461 58.3767C159.683 58.244 159.939 58.1777 160.23 58.1777C160.309 58.1777 160.393 58.1849 160.483 58.1992C160.576 58.2136 160.646 58.2297 160.692 58.2476ZM165.693 62.9378V60.1624C165.693 59.9544 165.656 59.7752 165.58 59.6246C165.505 59.4739 165.39 59.3574 165.236 59.2749C165.086 59.1925 164.896 59.1512 164.666 59.1512C164.454 59.1512 164.272 59.1871 164.117 59.2588C163.963 59.3305 163.843 59.4273 163.757 59.5492C163.671 59.6712 163.628 59.8092 163.628 59.9634H162.337C162.337 59.7339 162.393 59.5116 162.504 59.2965C162.615 59.0813 162.776 58.8895 162.988 58.7209C163.199 58.5524 163.452 58.4197 163.746 58.3229C164.04 58.2261 164.37 58.1777 164.736 58.1777C165.173 58.1777 165.561 58.2512 165.898 58.3982C166.238 58.5452 166.506 58.7676 166.699 59.0652C166.896 59.3592 166.995 59.7285 166.995 60.1732V62.7603C166.995 63.0256 167.013 63.2641 167.049 63.4757C167.088 63.6836 167.144 63.8647 167.216 64.0189V64.1049H165.887C165.826 63.9651 165.778 63.7876 165.742 63.5725C165.709 63.3537 165.693 63.1422 165.693 62.9378ZM165.882 60.5658L165.892 61.3672H164.962C164.722 61.3672 164.51 61.3905 164.327 61.4371C164.144 61.4802 163.992 61.5447 163.87 61.6308C163.748 61.7168 163.657 61.8208 163.596 61.9427C163.535 62.0647 163.504 62.2027 163.504 62.3569C163.504 62.5111 163.54 62.6527 163.612 62.7818C163.684 62.9073 163.788 63.0059 163.924 63.0776C164.064 63.1493 164.232 63.1852 164.429 63.1852C164.695 63.1852 164.926 63.1314 165.123 63.0238C165.324 62.9127 165.482 62.7782 165.597 62.6204C165.711 62.4591 165.772 62.3067 165.779 62.1633L166.199 62.7388C166.156 62.8858 166.082 63.0436 165.978 63.2121C165.874 63.3806 165.738 63.542 165.57 63.6962C165.405 63.8468 165.206 63.9705 164.973 64.0673C164.743 64.1641 164.478 64.2125 164.177 64.2125C163.796 64.2125 163.458 64.1372 163.16 63.9866C162.862 63.8324 162.629 63.6263 162.461 63.3681C162.292 63.1063 162.208 62.8105 162.208 62.4806C162.208 62.1722 162.265 61.8997 162.38 61.6631C162.498 61.4228 162.671 61.222 162.896 61.0606C163.126 60.8993 163.406 60.7774 163.736 60.6949C164.065 60.6088 164.442 60.5658 164.865 60.5658H165.882ZM172.12 58.2853V59.2319H168.839V58.2853H172.12ZM169.785 56.8599H171.082V62.4967C171.082 62.676 171.107 62.8141 171.157 62.9109C171.211 63.0041 171.284 63.0669 171.377 63.0991C171.471 63.1314 171.58 63.1476 171.706 63.1476C171.795 63.1476 171.881 63.1422 171.964 63.1314C172.046 63.1207 172.113 63.1099 172.163 63.0991L172.168 64.0888C172.061 64.1211 171.935 64.1498 171.792 64.1749C171.652 64.2 171.49 64.2125 171.308 64.2125C171.01 64.2125 170.746 64.1605 170.517 64.0565C170.287 63.949 170.108 63.7751 169.979 63.5348C169.85 63.2946 169.785 62.9754 169.785 62.5774V56.8599ZM176.787 64.2125C176.357 64.2125 175.968 64.1426 175.62 64.0028C175.276 63.8593 174.982 63.6603 174.738 63.4057C174.498 63.1511 174.313 62.8517 174.184 62.5075C174.055 62.1633 173.99 61.7921 173.99 61.3941V61.179C173.99 60.7236 174.057 60.3112 174.189 59.9419C174.322 59.5726 174.507 59.257 174.743 58.9953C174.98 58.7299 175.26 58.5273 175.583 58.3875C175.905 58.2476 176.255 58.1777 176.631 58.1777C177.047 58.1777 177.411 58.2476 177.723 58.3875C178.035 58.5273 178.293 58.7245 178.498 58.9791C178.706 59.2301 178.86 59.5295 178.96 59.8773C179.064 60.2252 179.116 60.6088 179.116 61.0284V61.5824H174.62V60.6519H177.836V60.5497C177.829 60.3166 177.782 60.0979 177.696 59.8935C177.614 59.6891 177.487 59.5241 177.314 59.3986C177.142 59.2731 176.913 59.2104 176.626 59.2104C176.411 59.2104 176.219 59.257 176.05 59.3502C175.886 59.4399 175.747 59.5708 175.636 59.7429C175.525 59.915 175.439 60.123 175.378 60.3668C175.321 60.607 175.292 60.8778 175.292 61.179V61.3941C175.292 61.6487 175.326 61.8854 175.394 62.1041C175.466 62.3192 175.57 62.5075 175.706 62.6689C175.842 62.8302 176.007 62.9575 176.201 63.0507C176.395 63.1404 176.615 63.1852 176.863 63.1852C177.175 63.1852 177.452 63.1225 177.696 62.997C177.94 62.8715 178.152 62.694 178.331 62.4645L179.014 63.126C178.889 63.3089 178.725 63.4846 178.525 63.6531C178.324 63.8181 178.078 63.9526 177.788 64.0565C177.501 64.1605 177.167 64.2125 176.787 64.2125ZM186.359 59.5277V64.1049H185.063V58.2853H186.284L186.359 59.5277ZM186.128 60.98L185.708 60.9746C185.712 60.5622 185.769 60.1839 185.88 59.8397C185.995 59.4955 186.153 59.1996 186.354 58.9522C186.558 58.7048 186.802 58.5148 187.085 58.3821C187.369 58.2458 187.684 58.1777 188.032 58.1777C188.312 58.1777 188.564 58.2171 188.79 58.296C189.02 58.3713 189.215 58.495 189.377 58.6672C189.541 58.8393 189.667 59.0634 189.753 59.3395C189.839 59.612 189.882 59.9473 189.882 60.3453V64.1049H188.581V60.3399C188.581 60.0602 188.539 59.8397 188.457 59.6783C188.378 59.5134 188.261 59.3969 188.107 59.3287C187.957 59.257 187.768 59.2212 187.542 59.2212C187.32 59.2212 187.121 59.2678 186.945 59.361C186.77 59.4542 186.621 59.5815 186.499 59.7429C186.381 59.9042 186.289 60.0907 186.225 60.3023C186.16 60.5138 186.128 60.7397 186.128 60.98ZM194.872 64.2125C194.442 64.2125 194.053 64.1426 193.705 64.0028C193.361 63.8593 193.067 63.6603 192.823 63.4057C192.583 63.1511 192.398 62.8517 192.269 62.5075C192.14 62.1633 192.076 61.7921 192.076 61.3941V61.179C192.076 60.7236 192.142 60.3112 192.275 59.9419C192.407 59.5726 192.592 59.257 192.829 58.9953C193.065 58.7299 193.345 58.5273 193.668 58.3875C193.99 58.2476 194.34 58.1777 194.716 58.1777C195.132 58.1777 195.496 58.2476 195.808 58.3875C196.12 58.5273 196.378 58.7245 196.583 58.9791C196.791 59.2301 196.945 59.5295 197.045 59.8773C197.149 60.2252 197.201 60.6088 197.201 61.0284V61.5824H192.705V60.6519H195.921V60.5497C195.914 60.3166 195.867 60.0979 195.781 59.8935C195.699 59.6891 195.572 59.5241 195.4 59.3986C195.227 59.2731 194.998 59.2104 194.711 59.2104C194.496 59.2104 194.304 59.257 194.136 59.3502C193.971 59.4399 193.833 59.5708 193.721 59.7429C193.61 59.915 193.524 60.123 193.463 60.3668C193.406 60.607 193.377 60.8778 193.377 61.179V61.3941C193.377 61.6487 193.411 61.8854 193.479 62.1041C193.551 62.3192 193.655 62.5075 193.791 62.6689C193.928 62.8302 194.093 62.9575 194.286 63.0507C194.48 63.1404 194.7 63.1852 194.948 63.1852C195.26 63.1852 195.538 63.1225 195.781 62.997C196.025 62.8715 196.237 62.694 196.416 62.4645L197.099 63.126C196.974 63.3089 196.811 63.4846 196.61 63.6531C196.409 63.8181 196.163 63.9526 195.873 64.0565C195.586 64.1605 195.253 64.2125 194.872 64.2125ZM200.895 62.8141L202.24 58.2853H203.068L202.842 59.6407L201.487 64.1049H200.745L200.895 62.8141ZM200.105 58.2853L201.154 62.8356L201.24 64.1049H200.411L198.835 58.2853H200.105ZM204.327 62.7818L205.344 58.2853H206.608L205.037 64.1049H204.209L204.327 62.7818ZM203.208 58.2853L204.537 62.7603L204.703 64.1049H203.961L202.59 59.6353L202.364 58.2853H203.208ZM152.348 75.8141L153.693 71.2853H154.521L154.295 72.6407L152.94 77.1049H152.197L152.348 75.8141ZM151.557 71.2853L152.606 75.8356L152.692 77.1049H151.864L150.288 71.2853H151.557ZM155.779 75.7818L156.796 71.2853H158.06L156.489 77.1049H155.661L155.779 75.7818ZM154.661 71.2853L155.989 75.7603L156.156 77.1049H155.414L154.042 72.6353L153.816 71.2853H154.661ZM163.325 75.9378V73.1624C163.325 72.9544 163.287 72.7752 163.212 72.6246C163.136 72.4739 163.022 72.3574 162.867 72.2749C162.717 72.1925 162.527 72.1512 162.297 72.1512C162.086 72.1512 161.903 72.1871 161.749 72.2588C161.594 72.3305 161.474 72.4273 161.388 72.5492C161.302 72.6712 161.259 72.8092 161.259 72.9634H159.968C159.968 72.7339 160.024 72.5116 160.135 72.2965C160.246 72.0813 160.408 71.8895 160.619 71.7209C160.831 71.5524 161.084 71.4197 161.378 71.3229C161.672 71.2261 162.001 71.1777 162.367 71.1777C162.805 71.1777 163.192 71.2512 163.529 71.3982C163.87 71.5452 164.137 71.7676 164.33 72.0652C164.528 72.3592 164.626 72.7285 164.626 73.1732V75.7603C164.626 76.0256 164.644 76.2641 164.68 76.4757C164.719 76.6836 164.775 76.8647 164.847 77.0189V77.1049H163.518C163.457 76.9651 163.409 76.7876 163.373 76.5725C163.341 76.3537 163.325 76.1422 163.325 75.9378ZM163.513 73.5658L163.524 74.3672H162.593C162.353 74.3672 162.141 74.3905 161.958 74.4371C161.776 74.4802 161.623 74.5447 161.501 74.6308C161.379 74.7168 161.288 74.8208 161.227 74.9427C161.166 75.0647 161.136 75.2027 161.136 75.3569C161.136 75.5111 161.171 75.6527 161.243 75.7818C161.315 75.9073 161.419 76.0059 161.555 76.0776C161.695 76.1493 161.863 76.1852 162.061 76.1852C162.326 76.1852 162.557 76.1314 162.754 76.0238C162.955 75.9127 163.113 75.7782 163.228 75.6204C163.343 75.4591 163.403 75.3067 163.411 75.1633L163.83 75.7388C163.787 75.8858 163.714 76.0436 163.61 76.2121C163.506 76.3806 163.369 76.542 163.201 76.6962C163.036 76.8468 162.837 76.9705 162.604 77.0673C162.374 77.1641 162.109 77.2125 161.808 77.2125C161.428 77.2125 161.089 77.1372 160.791 76.9866C160.494 76.8324 160.261 76.6263 160.092 76.3681C159.924 76.1063 159.839 75.8105 159.839 75.4806C159.839 75.1722 159.897 74.8997 160.011 74.6631C160.13 74.4228 160.302 74.222 160.528 74.0606C160.757 73.8993 161.037 73.7774 161.367 73.6949C161.697 73.6088 162.073 73.5658 162.496 73.5658H163.513ZM168.471 68.8434V77.1049H167.169V68.8434H168.471ZM172.38 68.8434V77.1049H171.078V68.8434H172.38ZM177.467 77.2125C177.037 77.2125 176.648 77.1426 176.3 77.0028C175.956 76.8593 175.662 76.6603 175.418 76.4057C175.178 76.1511 174.993 75.8517 174.864 75.5075C174.735 75.1633 174.67 74.7921 174.67 74.3941V74.179C174.67 73.7236 174.737 73.3112 174.869 72.9419C175.002 72.5726 175.187 72.257 175.423 71.9953C175.66 71.7299 175.94 71.5273 176.262 71.3875C176.585 71.2476 176.935 71.1777 177.311 71.1777C177.727 71.1777 178.091 71.2476 178.403 71.3875C178.715 71.5273 178.973 71.7245 179.178 71.9791C179.386 72.2301 179.54 72.5295 179.64 72.8773C179.744 73.2252 179.796 73.6088 179.796 74.0284V74.5824H175.3V73.6519H178.516V73.5497C178.509 73.3166 178.462 73.0979 178.376 72.8935C178.294 72.6891 178.166 72.5241 177.994 72.3986C177.822 72.2731 177.593 72.2104 177.306 72.2104C177.091 72.2104 176.899 72.257 176.73 72.3502C176.565 72.4399 176.427 72.5708 176.316 72.7429C176.205 72.915 176.119 73.123 176.058 73.3668C176.001 73.607 175.972 73.8778 175.972 74.179V74.3941C175.972 74.6487 176.006 74.8854 176.074 75.1041C176.146 75.3192 176.25 75.5075 176.386 75.6689C176.522 75.8302 176.687 75.9575 176.881 76.0507C177.075 76.1404 177.295 76.1852 177.542 76.1852C177.854 76.1852 178.132 76.1225 178.376 75.997C178.62 75.8715 178.832 75.694 179.011 75.4645L179.694 76.126C179.568 76.3089 179.405 76.4846 179.204 76.6531C179.004 76.8181 178.758 76.9526 178.468 77.0565C178.181 77.1605 177.847 77.2125 177.467 77.2125ZM184.577 71.2853V72.2319H181.296V71.2853H184.577ZM182.242 69.8599H183.539V75.4967C183.539 75.676 183.564 75.8141 183.614 75.9109C183.668 76.0041 183.741 76.0669 183.834 76.0991C183.928 76.1314 184.037 76.1476 184.163 76.1476C184.252 76.1476 184.338 76.1422 184.421 76.1314C184.503 76.1207 184.569 76.1099 184.62 76.0991L184.625 77.0888C184.517 77.1211 184.392 77.1498 184.249 77.1749C184.109 77.2 183.947 77.2125 183.764 77.2125C183.467 77.2125 183.203 77.1605 182.974 77.0565C182.744 76.949 182.565 76.7751 182.436 76.5348C182.307 76.2946 182.242 75.9754 182.242 75.5774V69.8599Z" fill="white"/>
<path d="M134.32 91.6939C134.366 91.6495 134.403 91.5963 134.428 91.5375C134.453 91.4787 134.467 91.4155 134.467 91.3515C134.468 91.2875 134.456 91.2241 134.432 91.1649C134.407 91.1056 134.372 91.0518 134.326 91.0065C134.281 90.9613 134.227 90.9255 134.168 90.9012C134.109 90.8769 134.046 90.8647 133.982 90.8652C133.918 90.8658 133.854 90.879 133.796 90.9043C133.737 90.9295 133.684 90.9662 133.639 91.0122L131.708 92.943L129.777 91.0122C129.733 90.9648 129.68 90.9269 129.62 90.9005C129.561 90.8742 129.497 90.86 129.433 90.8589C129.368 90.8577 129.304 90.8696 129.244 90.8939C129.184 90.9181 129.129 90.9542 129.084 90.9999C129.038 91.0457 129.002 91.1002 128.977 91.1602C128.953 91.2202 128.941 91.2845 128.942 91.3492C128.944 91.4139 128.958 91.4777 128.984 91.5368C129.01 91.5959 129.048 91.6491 129.096 91.6933L131.025 93.6247L129.094 95.5555C129.009 95.6468 128.963 95.7676 128.965 95.8925C128.967 96.0173 129.018 96.1364 129.106 96.2247C129.195 96.313 129.314 96.3636 129.439 96.3658C129.563 96.368 129.684 96.3217 129.776 96.2365L131.708 94.3058L133.638 96.2372C133.73 96.3223 133.851 96.3686 133.975 96.3664C134.1 96.3642 134.219 96.3137 134.308 96.2254C134.396 96.1371 134.447 96.018 134.449 95.8931C134.451 95.7683 134.405 95.6475 134.319 95.5561L132.39 93.6247L134.32 91.6939Z" fill="white"/>
<rect x="126.61" y="88.518" width="10.1893" height="10.1893" rx="3.44232" stroke="white" stroke-width="0.826158"/>
<path d="M200.606 93.6127L202.92 95.5404L206.004 91.685" stroke="white" stroke-width="1.10154" stroke-linecap="round"/>
<rect x="198.211" y="88.518" width="10.1893" height="10.1893" rx="3.44232" stroke="white" stroke-width="0.826158"/>
</g>
<defs>
<filter id="filter0_dd_2637_32427" x="-1.03087" y="0.88914" width="335.8" height="139.409" filterUnits="userSpaceOnUse" color-interpolation-filters="sRGB">
<feFlood flood-opacity="0" result="BackgroundImageFix"/>
<feColorMatrix in="SourceAlpha" type="matrix" values="0 0 0 0 0 0 0 0 0 0 0 0 0 0 0 0 0 0 127 0" result="hardAlpha"/>
<feOffset dx="2.75386" dy="2.20309"/>
<feGaussianBlur stdDeviation="5.50772"/>
<feComposite in2="hardAlpha" operator="out"/>
<feColorMatrix type="matrix" values="0 0 0 0 0 0 0 0 0 0 0 0 0 0 0 0 0 0 0.41 0"/>
<feBlend mode="normal" in2="BackgroundImageFix" result="effect1_dropShadow_2637_32427"/>
<feColorMatrix in="SourceAlpha" type="matrix" values="0 0 0 0 0 0 0 0 0 0 0 0 0 0 0 0 0 0 127 0" result="hardAlpha"/>
<feOffset dx="-5.50772" dy="-5.50772"/>
<feGaussianBlur stdDeviation="8.26158"/>
<feComposite in2="hardAlpha" operator="out"/>
<feColorMatrix type="matrix" values="0 0 0 0 0.0916667 0 0 0 0 0.0758333 0 0 0 0 0.0626389 0 0 0 1 0"/>
<feBlend mode="normal" in2="effect1_dropShadow_2637_32427" result="effect2_dropShadow_2637_32427"/>
<feBlend mode="normal" in="SourceGraphic" in2="effect2_dropShadow_2637_32427" result="shape"/>
</filter>
</defs>
</svg>
