<svg width="39" height="37" viewBox="0 0 39 37" fill="none" xmlns="http://www.w3.org/2000/svg">
<path opacity="0.25" fill-rule="evenodd" clip-rule="evenodd" d="M19.875 36C30.0232 36 38.25 28.165 38.25 18.5C38.25 8.83502 30.0232 1 19.875 1C9.72677 1 1.5 8.83502 1.5 18.5C1.5 28.165 9.72677 36 19.875 36Z" stroke="white" stroke-width="1.5"/>
<g clip-path="url(#clip0_2322_152509)">
<path d="M19.6862 12.0048C15.7158 12.0032 12.5 15.2174 12.5 19.1846C12.5 22.3218 14.5117 24.9885 17.3133 25.9679C17.6906 26.0626 17.6328 25.7945 17.6328 25.6115V24.3672C15.4541 24.6225 15.3658 23.1807 15.2197 22.9399C14.9243 22.4358 14.2259 22.3073 14.4346 22.0665C14.9307 21.8112 15.4365 22.1307 16.0225 22.9961C16.4463 23.6239 17.2732 23.5179 17.6922 23.4135C17.7837 23.0362 17.9796 22.6991 18.2493 22.4374C15.992 22.0328 15.0511 20.6553 15.0511 19.0177C15.0511 18.2229 15.3128 17.4924 15.8266 16.9032C15.4991 15.9319 15.8571 15.1002 15.9053 14.9766C16.8381 14.8931 17.8078 15.6445 17.8833 15.7039C18.4131 15.561 19.0183 15.4856 19.6959 15.4856C20.3766 15.4856 20.9835 15.5642 21.5181 15.7087C21.6995 15.5706 22.5986 14.9252 23.4656 15.0039C23.5122 15.1275 23.8622 15.9399 23.5539 16.8984C24.0741 17.4892 24.339 18.2262 24.339 19.0225C24.339 20.6633 23.3917 22.0424 21.128 22.4406C21.3219 22.6313 21.4758 22.8587 21.5809 23.1095C21.6859 23.3604 21.7399 23.6297 21.7397 23.9016V25.7078C21.7525 25.8523 21.7397 25.9952 21.9805 25.9952C24.8239 25.0367 26.8709 22.3507 26.8709 19.1862C26.8709 15.2174 23.6534 12.0048 19.6862 12.0048Z" fill="white"/>
</g>
<defs>
<clipPath id="clip0_2322_152509">
<rect width="14.3853" height="14" fill="white" transform="translate(12.5 12)"/>
</clipPath>
</defs>
</svg>
