<svg width="15" height="15" viewBox="0 0 15 15" fill="none" xmlns="http://www.w3.org/2000/svg">
<path d="M7.5 0.75C11.3555 0.75 14.5 3.89453 14.5 7.75C14.5 11.6328 11.3555 14.75 7.5 14.75C3.61719 14.75 0.5 11.6328 0.5 7.75C0.5 3.89453 3.61719 0.75 7.5 0.75ZM7.5 13.4375C10.6172 13.4375 13.1875 10.8945 13.1875 7.75C13.1875 4.63281 10.6172 2.0625 7.5 2.0625C4.35547 2.0625 1.8125 4.63281 1.8125 7.75C1.8125 10.8945 4.35547 13.4375 7.5 13.4375ZM7.5 9.9375C7.96484 9.9375 8.375 10.3203 8.375 10.8125C8.375 11.3047 7.96484 11.6875 7.5 11.6875C6.98047 11.6875 6.625 11.3047 6.625 10.8125C6.625 10.3203 7.00781 9.9375 7.5 9.9375ZM8.40234 4.25C9.49609 4.25 10.3438 5.09766 10.3164 6.16406C10.3164 6.82031 9.96094 7.44922 9.38672 7.80469L8.15625 8.57031V8.625C8.15625 8.98047 7.85547 9.28125 7.5 9.28125C7.14453 9.28125 6.84375 8.98047 6.84375 8.625V8.1875C6.84375 7.96875 6.95312 7.75 7.17188 7.61328L8.73047 6.68359C8.92188 6.57422 9.03125 6.38281 9.03125 6.16406C9.03125 5.83594 8.73047 5.5625 8.375 5.5625H6.98047C6.65234 5.5625 6.40625 5.83594 6.40625 6.16406C6.40625 6.51953 6.10547 6.82031 5.75 6.82031C5.39453 6.82031 5.09375 6.51953 5.09375 6.16406C5.09375 5.09766 5.94141 4.25 7.00781 4.25H8.40234Z" fill="url(#paint0_linear_1075_10429)"/>
<defs>
<linearGradient id="paint0_linear_1075_10429" x1="0.526718" y1="8" x2="14.5267" y2="8" gradientUnits="userSpaceOnUse">
<stop stop-color="#E9B873"/>
<stop offset="0.369792" stop-color="#FEDD8F"/>
<stop offset="1" stop-color="#B78D51"/>
</linearGradient>
</defs>
</svg>
