<svg width="604" height="84" viewBox="0 0 604 84" fill="none" xmlns="http://www.w3.org/2000/svg">
<mask id="path-1-inside-1_1432_9841" fill="white">
<path d="M0.5 0.456055H603.5V83.5439H0.5V0.456055Z"/>
</mask>
<path d="M0.5 0.456055H603.5V83.5439H0.5V0.456055Z" fill="url(#paint0_linear_1432_9841)"/>
<path d="M54.5 59.6533C33.5 67.1533 14 40.1533 0.5 32.1533V71.28H602.5V30.6531C568 26.1531 569 29.6533 536 29.6533C503 29.6533 465 63.6531 441.5 60.6531C418 57.6531 402.5 26.1531 387 19.6533C371.5 13.1535 344 62.1533 315.5 50.6531C287 39.1528 206 59.6531 188.5 56.1531C171 52.6531 143.5 37.6533 120.5 23.6533C97.5 9.65329 75.5 52.1533 54.5 59.6533Z" fill="url(#paint1_linear_1432_9841)"/>
<path d="M0.5 31.9775C14 39.9775 33.5 66.9775 54.5 59.4775C75.5 51.9775 97.5 9.47751 120.5 23.4775C143.5 37.4775 171 52.4773 188.5 55.9773C206 59.4773 287 38.977 315.5 50.4773C344 61.9775 371.5 12.9777 387 19.4775C402.5 25.9773 418 57.4773 441.5 60.4773C465 63.4773 503 29.4775 536 29.4775C569 29.4775 568 25.9773 602.5 30.4773" stroke="#5E5854"/>
<path d="M54.5 61.9172C33.5 69.4172 14 62.4172 0.5 54.4172V83.5439H602.5V42.917C568 38.417 569 61.9172 536 61.9172C503 61.9172 465 45.917 441.5 42.917C418 39.917 402.5 68.417 387 61.9172C371.5 55.4175 374 54.4172 345.5 42.917C317 31.4168 206 71.917 188.5 68.417C171 64.917 143.5 49.9172 120.5 35.9172C97.5 21.9172 75.5 54.4172 54.5 61.9172Z" fill="url(#paint2_linear_1432_9841)"/>
<path d="M0.5 54.2414C14 62.2414 33.5 69.2414 54.5 61.7414C75.5 54.2414 97.5 21.7414 120.5 35.7414C143.5 49.7414 171 64.7412 188.5 68.2412C206 71.7412 317 31.241 345.5 42.7412C374 54.2414 371.5 55.2417 387 61.7414C402.5 68.2412 418 39.7412 441.5 42.7412C465 45.7412 503 61.7414 536 61.7414C569 61.7414 568 38.2412 602.5 42.7412" stroke="#5B5958"/>
<path d="M0.5 83.5439H0V84.0439H0.5V83.5439ZM0 0.456055V4.61045H1V0.456055H0ZM0 12.9192V21.228H1V12.9192H0ZM0 29.5368V37.8456H1V29.5368H0ZM0 46.1544V54.4632H1V46.1544H0ZM0 62.772V71.0808H1V62.772H0ZM0 79.3895V83.5439H1V79.3895H0ZM0.5 84.0439H4.46711V83.0439H0.5V84.0439ZM12.4013 84.0439H20.3355V83.0439H12.4013V84.0439ZM28.2697 84.0439H36.2039V83.0439H28.2697V84.0439ZM44.1382 84.0439H52.0724V83.0439H44.1382V84.0439ZM60.0066 84.0439H67.9408V83.0439H60.0066V84.0439ZM75.875 84.0439H83.8092V83.0439H75.875V84.0439ZM91.7434 84.0439H99.6776V83.0439H91.7434V84.0439ZM107.612 84.0439H115.546V83.0439H107.612V84.0439ZM123.48 84.0439H131.414V83.0439H123.48V84.0439ZM139.349 84.0439H147.283V83.0439H139.349V84.0439ZM155.217 84.0439H163.151V83.0439H155.217V84.0439ZM171.085 84.0439H179.02V83.0439H171.085V84.0439ZM186.954 84.0439H194.888V83.0439H186.954V84.0439ZM202.822 84.0439H210.757V83.0439H202.822V84.0439ZM218.691 84.0439H226.625V83.0439H218.691V84.0439ZM234.559 84.0439H242.493V83.0439H234.559V84.0439ZM250.428 84.0439H258.362V83.0439H250.428V84.0439ZM266.296 84.0439H274.23V83.0439H266.296V84.0439ZM282.164 84.0439H290.099V83.0439H282.164V84.0439ZM298.033 84.0439H305.967V83.0439H298.033V84.0439ZM313.901 84.0439H321.835V83.0439H313.901V84.0439ZM329.77 84.0439H337.704V83.0439H329.77V84.0439ZM345.638 84.0439H353.572V83.0439H345.638V84.0439ZM361.506 84.0439H369.441V83.0439H361.506V84.0439ZM377.375 84.0439H385.309V83.0439H377.375V84.0439ZM393.243 84.0439H401.177V83.0439H393.243V84.0439ZM409.112 84.0439H417.046V83.0439H409.112V84.0439ZM424.98 84.0439H432.914V83.0439H424.98V84.0439ZM440.848 84.0439H448.783V83.0439H440.848V84.0439ZM456.717 84.0439H464.651V83.0439H456.717V84.0439ZM472.585 84.0439H480.519V83.0439H472.585V84.0439ZM488.454 84.0439H496.388V83.0439H488.454V84.0439ZM504.322 84.0439H512.256V83.0439H504.322V84.0439ZM520.19 84.0439H528.125V83.0439H520.19V84.0439ZM536.059 84.0439H543.993V83.0439H536.059V84.0439ZM551.927 84.0439H559.862V83.0439H551.927V84.0439ZM567.796 84.0439H575.73V83.0439H567.796V84.0439ZM583.664 84.0439H591.598V83.0439H583.664V84.0439ZM599.533 84.0439H603.5V83.0439H599.533V84.0439ZM0.5 83.5439H-0.5V84.5439H0.5V83.5439ZM-0.5 0.456055V4.61045H1.5V0.456055H-0.5ZM-0.5 12.9192V21.228H1.5V12.9192H-0.5ZM-0.5 29.5368V37.8456H1.5V29.5368H-0.5ZM-0.5 46.1544V54.4632H1.5V46.1544H-0.5ZM-0.5 62.772V71.0808H1.5V62.772H-0.5ZM-0.5 79.3895V83.5439H1.5V79.3895H-0.5ZM0.5 84.5439H4.46711V82.5439H0.5V84.5439ZM12.4013 84.5439H20.3355V82.5439H12.4013V84.5439ZM28.2697 84.5439H36.2039V82.5439H28.2697V84.5439ZM44.1382 84.5439H52.0724V82.5439H44.1382V84.5439ZM60.0066 84.5439H67.9408V82.5439H60.0066V84.5439ZM75.875 84.5439H83.8092V82.5439H75.875V84.5439ZM91.7434 84.5439H99.6776V82.5439H91.7434V84.5439ZM107.612 84.5439H115.546V82.5439H107.612V84.5439ZM123.48 84.5439H131.414V82.5439H123.48V84.5439ZM139.349 84.5439H147.283V82.5439H139.349V84.5439ZM155.217 84.5439H163.151V82.5439H155.217V84.5439ZM171.085 84.5439H179.02V82.5439H171.085V84.5439ZM186.954 84.5439H194.888V82.5439H186.954V84.5439ZM202.822 84.5439H210.757V82.5439H202.822V84.5439ZM218.691 84.5439H226.625V82.5439H218.691V84.5439ZM234.559 84.5439H242.493V82.5439H234.559V84.5439ZM250.428 84.5439H258.362V82.5439H250.428V84.5439ZM266.296 84.5439H274.23V82.5439H266.296V84.5439ZM282.164 84.5439H290.099V82.5439H282.164V84.5439ZM298.033 84.5439H305.967V82.5439H298.033V84.5439ZM313.901 84.5439H321.835V82.5439H313.901V84.5439ZM329.77 84.5439H337.704V82.5439H329.77V84.5439ZM345.638 84.5439H353.572V82.5439H345.638V84.5439ZM361.506 84.5439H369.441V82.5439H361.506V84.5439ZM377.375 84.5439H385.309V82.5439H377.375V84.5439ZM393.243 84.5439H401.177V82.5439H393.243V84.5439ZM409.112 84.5439H417.046V82.5439H409.112V84.5439ZM424.98 84.5439H432.914V82.5439H424.98V84.5439ZM440.848 84.5439H448.783V82.5439H440.848V84.5439ZM456.717 84.5439H464.651V82.5439H456.717V84.5439ZM472.585 84.5439H480.519V82.5439H472.585V84.5439ZM488.454 84.5439H496.388V82.5439H488.454V84.5439ZM504.322 84.5439H512.256V82.5439H504.322V84.5439ZM520.19 84.5439H528.125V82.5439H520.19V84.5439ZM536.059 84.5439H543.993V82.5439H536.059V84.5439ZM551.927 84.5439H559.862V82.5439H551.927V84.5439ZM567.796 84.5439H575.73V82.5439H567.796V84.5439ZM583.664 84.5439H591.598V82.5439H583.664V84.5439ZM599.533 84.5439H603.5V82.5439H599.533V84.5439Z" fill="#8B8682" mask="url(#path-1-inside-1_1432_9841)"/>
<defs>
<linearGradient id="paint0_linear_1432_9841" x1="0.5" y1="36.8303" x2="602.97" y2="18.8033" gradientUnits="userSpaceOnUse">
<stop stop-color="#16120F"/>
<stop offset="1" stop-color="#1F1915"/>
</linearGradient>
<linearGradient id="paint1_linear_1432_9841" x1="301.5" y1="20.1924" x2="301.5" y2="71.2803" gradientUnits="userSpaceOnUse">
<stop stop-color="#3D3B3A"/>
<stop offset="1" stop-color="#16120F" stop-opacity="0"/>
</linearGradient>
<linearGradient id="paint2_linear_1432_9841" x1="301.5" y1="32.4561" x2="301.5" y2="83.5439" gradientUnits="userSpaceOnUse">
<stop stop-color="#605E5C"/>
<stop offset="1" stop-color="#16120F" stop-opacity="0"/>
</linearGradient>
</defs>
</svg>
