<svg width="25" height="20" viewBox="0 0 25 20" fill="none" xmlns="http://www.w3.org/2000/svg">
<path d="M14.1667 0C11.5145 0 8.97097 1.05357 7.09561 2.92893C5.22024 4.80429 4.16668 7.34783 4.16668 10H0.833344L5.15556 14.3222L5.23334 14.4778L9.72223 10H6.3889C6.3889 5.7 9.86667 2.22222 14.1667 2.22222C18.4667 2.22222 21.9444 5.7 21.9444 10C21.9444 14.3 18.4667 17.7778 14.1667 17.7778C12.0222 17.7778 10.0778 16.9 8.67778 15.4889L7.10001 17.0667C8.02602 17.9978 9.12721 18.7364 10.3401 19.2398C11.5529 19.7433 12.8535 20.0016 14.1667 20C16.8188 20 19.3624 18.9464 21.2377 17.0711C23.1131 15.1957 24.1667 12.6522 24.1667 10C24.1667 7.34783 23.1131 4.80429 21.2377 2.92893C19.3624 1.05357 16.8188 3.95203e-08 14.1667 0ZM13.0556 5.55555V11.1111L17.7778 13.9111L18.6333 12.4889L14.7222 10.1667V5.55555H13.0556Z" fill="#8B8682"/>
</svg>
