<svg width="11" height="14" viewBox="0 0 11 14" fill="none" xmlns="http://www.w3.org/2000/svg">
<g id="bxs:hourglass" clip-path="url(#clip0_6920_182716)">
<path id="Vector" d="M10.3501 13.7271H11.0001V12.4271H10.3501V11.7771C10.3491 10.9874 10.1429 10.2115 9.75173 9.52552C9.36054 8.83954 8.79778 8.267 8.11865 7.86405C7.8879 7.72755 7.7501 7.5085 7.7501 7.2784V7.1757C7.7501 6.9456 7.8879 6.72655 8.118 6.5907C8.79691 6.18729 9.35951 5.61458 9.75076 4.92858C10.142 4.24258 10.3485 3.46678 10.3501 2.67705V2.02705H11.0001V0.727051H0.600098V2.02705H1.2501V2.67705C1.25167 3.46678 1.45818 4.24258 1.84943 4.92858C2.24068 5.61458 2.80328 6.18729 3.4822 6.5907C3.7123 6.72655 3.8501 6.94495 3.8501 7.1757V7.2784C3.8501 7.5085 3.7123 7.72755 3.4822 7.8634C2.80328 8.26681 2.24068 8.83952 1.84943 9.52552C1.45818 10.2115 1.25167 10.9873 1.2501 11.7771V12.4271H0.600098V13.7271H10.3501ZM9.0501 2.02705V2.67705C9.04935 3.38055 8.82035 4.06481 8.3975 4.62705H3.2027C2.77985 4.06481 2.55085 3.38055 2.5501 2.67705V2.02705H9.0501ZM4.1426 8.98335C4.77375 8.61025 5.1501 7.97325 5.1501 7.2784V7.22705H6.4501V7.2784C6.4501 7.9726 6.82645 8.61025 7.45825 8.98335C8.04229 9.33093 8.50212 9.85352 8.77255 10.4771H2.82765C3.09824 9.85343 3.55831 9.33082 4.1426 8.98335Z" fill="#F1AE4A"/>
</g>
<defs>
<clipPath id="clip0_6920_182716">
<rect width="10.4" height="13" fill="white" transform="translate(0.600098 0.727051)"/>
</clipPath>
</defs>
</svg>
