<svg width="16" height="16" viewBox="0 0 16 16" fill="none" xmlns="http://www.w3.org/2000/svg">
    <path
        d="M8 0C6.41775 0 4.87103 0.469192 3.55544 1.34824C2.23985 2.22729 1.21447 3.47672 0.608967 4.93853C0.00346629 6.40034 -0.15496 8.00887 0.153721 9.56072C0.462403 11.1126 1.22433 12.538 2.34315 13.6569C3.46197 14.7757 4.88743 15.5376 6.43928 15.8463C7.99113 16.155 9.59966 15.9965 11.0615 15.391C12.5233 14.7855 13.7727 13.7602 14.6518 12.4446C15.5308 11.129 16 9.58225 16 8C15.998 5.87887 15.1546 3.84518 13.6547 2.34531C12.1548 0.845446 10.1211 0.00196129 8 0ZM8 14.2222C6.76936 14.2222 5.56636 13.8573 4.54312 13.1736C3.51988 12.4899 2.72236 11.5181 2.25142 10.3811C1.78047 9.24418 1.65725 7.9931 1.89734 6.7861C2.13743 5.57911 2.73003 4.47042 3.60023 3.60022C4.47042 2.73003 5.57911 2.13742 6.78611 1.89734C7.9931 1.65725 9.24418 1.78047 10.3811 2.25142C11.5181 2.72236 12.4899 3.51988 13.1736 4.54312C13.8573 5.56636 14.2222 6.76936 14.2222 8C14.2203 9.64963 13.5641 11.2311 12.3976 12.3976C11.2311 13.5641 9.64964 14.2203 8 14.2222ZM9.48148 11.5556C9.48148 11.7913 9.38783 12.0174 9.22113 12.1841C9.05443 12.3508 8.82834 12.4444 8.59259 12.4444H8C7.76425 12.4444 7.53816 12.3508 7.37146 12.1841C7.20476 12.0174 7.11111 11.7913 7.11111 11.5556V8.54074C6.93737 8.48047 6.78682 8.36737 6.68056 8.21727C6.57429 8.06718 6.51764 7.8876 6.51852 7.7037C6.51852 7.46795 6.61217 7.24186 6.77887 7.07516C6.94557 6.90846 7.17166 6.81481 7.40741 6.81481H8C8.23575 6.81481 8.46184 6.90846 8.62854 7.07516C8.79524 7.24186 8.88889 7.46795 8.88889 7.7037V10.7185C9.06264 10.7788 9.21318 10.8919 9.31945 11.042C9.42571 11.1921 9.48237 11.3717 9.48148 11.5556ZM6.66667 4.74074C6.66667 4.50633 6.73618 4.27719 6.86641 4.08229C6.99664 3.88738 7.18174 3.73548 7.3983 3.64577C7.61487 3.55607 7.85317 3.5326 8.08307 3.57833C8.31297 3.62406 8.52415 3.73694 8.68991 3.90269C8.85566 4.06844 8.96854 4.27962 9.01427 4.50952C9.06 4.73943 9.03653 4.97773 8.94682 5.19429C8.85712 5.41085 8.70521 5.59596 8.51031 5.72618C8.3154 5.85641 8.08626 5.92592 7.85185 5.92592C7.53752 5.92592 7.23607 5.80106 7.0138 5.57879C6.79154 5.35653 6.66667 5.05507 6.66667 4.74074Z"
        fill="#F1AE4A" />
</svg>