<svg width="25" height="20" viewBox="0 0 25 20" fill="none" xmlns="http://www.w3.org/2000/svg">
<path d="M12.5 0C10.5222 0 8.58879 0.58649 6.9443 1.6853C5.29981 2.78412 4.01809 4.3459 3.26121 6.17316C2.50433 8.00043 2.3063 10.0111 2.69215 11.9509C3.078 13.8907 4.03041 15.6725 5.42894 17.0711C6.82746 18.4696 8.60929 19.422 10.5491 19.8078C12.4889 20.1937 14.4996 19.9957 16.3268 19.2388C18.1541 18.4819 19.7159 17.2002 20.8147 15.5557C21.9135 13.9112 22.5 11.9778 22.5 10C22.4975 7.34859 21.4432 4.80647 19.5684 2.93164C17.6935 1.05681 15.1514 0.00245161 12.5 0ZM12.5 17.7778C10.9617 17.7778 9.45795 17.3216 8.1789 16.467C6.89985 15.6123 5.90296 14.3976 5.31427 12.9764C4.72559 11.5552 4.57157 9.99137 4.87167 8.48263C5.17178 6.97389 5.91254 5.58802 7.00028 4.50028C8.08803 3.41254 9.47389 2.67178 10.9826 2.37167C12.4914 2.07156 14.0552 2.22559 15.4764 2.81427C16.8976 3.40295 18.1124 4.39985 18.967 5.6789C19.8216 6.95795 20.2778 8.4617 20.2778 10C20.2753 12.062 19.4551 14.0389 17.997 15.497C16.5389 16.9551 14.562 17.7753 12.5 17.7778ZM14.3519 14.4444C14.3519 14.7391 14.2348 15.0217 14.0264 15.2301C13.818 15.4385 13.5354 15.5556 13.2407 15.5556H12.5C12.2053 15.5556 11.9227 15.4385 11.7143 15.2301C11.506 15.0217 11.3889 14.7391 11.3889 14.4444V10.6759C11.1717 10.6006 10.9835 10.4592 10.8507 10.2716C10.7179 10.084 10.647 9.8595 10.6482 9.62963C10.6482 9.33494 10.7652 9.05233 10.9736 8.84395C11.182 8.63558 11.4646 8.51852 11.7593 8.51852H12.5C12.7947 8.51852 13.0773 8.63558 13.2857 8.84395C13.494 9.05233 13.6111 9.33494 13.6111 9.62963V13.3981C13.8283 13.4735 14.0165 13.6149 14.1493 13.8025C14.2821 13.9901 14.353 14.2146 14.3519 14.4444ZM10.8333 5.92592C10.8333 5.63292 10.9202 5.34649 11.083 5.10286C11.2458 4.85923 11.4772 4.66934 11.7479 4.55721C12.0186 4.44508 12.3165 4.41575 12.6038 4.47291C12.8912 4.53007 13.1552 4.67117 13.3624 4.87836C13.5696 5.08555 13.7107 5.34952 13.7678 5.6369C13.825 5.92428 13.7957 6.22216 13.6835 6.49286C13.5714 6.76357 13.3815 6.99494 13.1379 7.15773C12.8943 7.32052 12.6078 7.40741 12.3148 7.40741C11.9219 7.40741 11.5451 7.25132 11.2673 6.97349C10.9894 6.69566 10.8333 6.31884 10.8333 5.92592Z" fill="white"/>
</svg>
