<svg width="39" height="37" viewBox="0 0 39 37" fill="none" xmlns="http://www.w3.org/2000/svg">
<path opacity="0.25" fill-rule="evenodd" clip-rule="evenodd" d="M19.375 36C29.5232 36 37.75 28.165 37.75 18.5C37.75 8.83502 29.5232 1 19.375 1C9.22677 1 1 8.83502 1 18.5C1 28.165 9.22677 36 19.375 36Z" stroke="white" stroke-width="1.5"/>
<path d="M15.1578 14.9671C16.0181 14.9671 16.7156 14.3029 16.7156 13.4835C16.7156 12.6642 16.0181 12 15.1578 12C14.2975 12 13.6001 12.6642 13.6001 13.4835C13.6001 14.3029 14.2975 14.9671 15.1578 14.9671Z" fill="white"/>
<path d="M16.4559 15.958H13.8597C13.7164 15.958 13.6001 16.0688 13.6001 16.2053V23.623C13.6001 23.7595 13.7164 23.8703 13.8597 23.8703H16.4559C16.5992 23.8703 16.7156 23.7595 16.7156 23.623V16.2053C16.7156 16.0688 16.5992 15.958 16.4559 15.958Z" fill="white"/>
<path d="M24.1924 15.5466C23.0828 15.1847 21.6949 15.5026 20.8625 16.0728C20.834 15.9665 20.7322 15.8874 20.6112 15.8874H18.015C17.8717 15.8874 17.7554 15.9981 17.7554 16.1346V23.5524C17.7554 23.6889 17.8717 23.7996 18.015 23.7996H20.6112C20.7545 23.7996 20.8708 23.6889 20.8708 23.5524V18.2215C21.2904 17.8773 21.8309 17.7675 22.2733 17.9465C22.7022 18.1191 22.9478 18.5404 22.9478 19.1017V23.5524C22.9478 23.6889 23.0641 23.7996 23.2074 23.7996H25.8036C25.9469 23.7996 26.0633 23.6889 26.0633 23.5524V18.6037C26.0337 16.5718 25.03 15.8196 24.1924 15.5466Z" fill="white"/>
</svg>
