<svg width="24" height="24" viewBox="0 0 24 24" fill="none" xmlns="http://www.w3.org/2000/svg">
<g clip-path="url(#clip0_1455_3065)">
<path d="M12 22.701C17.9101 22.701 22.7012 17.9099 22.7012 11.9998C22.7012 6.08972 17.9101 1.29864 12 1.29864C6.08991 1.29864 1.29883 6.08972 1.29883 11.9998C1.29883 17.9099 6.08991 22.701 12 22.701Z" fill="white"/>
<path d="M12 2.28882e-05C9.62661 2.28882e-05 7.30654 0.703809 5.33315 2.02238C3.35977 3.34096 1.8217 5.2151 0.913449 7.40781C0.00519936 9.60051 -0.23244 12.0133 0.230582 14.3411C0.693603 16.6688 1.83649 18.807 3.51472 20.4853C5.19294 22.1635 7.33113 23.3064 9.6589 23.7694C11.9867 24.2324 14.3995 23.9948 16.5922 23.0865C18.7849 22.1783 20.659 20.6402 21.9776 18.6668C23.2962 16.6934 23.9999 14.3734 23.9999 12C24.0045 10.4287 23.6996 8.87191 23.1025 7.41849C22.5054 5.96506 21.6279 4.64346 20.5201 3.52916C19.4123 2.41486 18.0958 1.52967 16.6459 0.924142C15.196 0.318611 13.641 0.00459499 12.0697 2.28882e-05H12ZM12.2034 12.4068L10.954 16.6198H17.6368C17.681 16.6183 17.7252 16.6255 17.7667 16.641C17.8082 16.6565 17.8462 16.6801 17.8786 16.7103C17.9109 16.7405 17.937 16.7768 17.9554 16.8171C17.9737 16.8575 17.9839 16.901 17.9854 16.9453V17.0557L17.4043 19.0605C17.3787 19.1553 17.3216 19.2386 17.2424 19.2967C17.1632 19.3548 17.0666 19.3842 16.9685 19.3801H6.74091L8.45519 13.5399L6.53752 14.1211L6.97335 12.7845L8.89103 12.2034L11.3026 4.0097C11.3292 3.91542 11.3865 3.83274 11.4655 3.77482C11.5445 3.7169 11.6406 3.68707 11.7385 3.69009H14.3244C14.3687 3.68853 14.4128 3.69572 14.4543 3.71124C14.4958 3.72676 14.5338 3.7503 14.5662 3.78053C14.5986 3.81075 14.6247 3.84706 14.643 3.88738C14.6614 3.9277 14.6716 3.97124 14.6731 4.01551V4.12592L12.6392 11.0412L14.5569 10.46L14.1501 11.8547L12.2034 12.4068Z" fill="#345D9D"/>
</g>
<defs>
<clipPath id="clip0_1455_3065">
<rect width="24" height="24" fill="white"/>
</clipPath>
</defs>
</svg>
