<svg width="420" height="140" viewBox="0 0 420 140" fill="none" xmlns="http://www.w3.org/2000/svg">
<g filter="url(#filter0_dd_4053_25659)">
<path d="M92.1695 70.943H61.1016V81.466H92.1695V70.943Z" fill="#433E39"/>
<g style="mix-blend-mode:multiply">
<path d="M92.1327 70.8436H85.2227V81.3115H92.1327V70.8436Z" fill="#535762"/>
</g>
<path d="M137.509 67.1205H110.084C108.861 67.1205 107.869 68.1121 107.869 69.3353V82.8148C107.869 84.038 108.861 85.0296 110.084 85.0296H137.509C138.732 85.0296 139.724 84.038 139.724 82.8148V69.3353C139.724 68.1121 138.732 67.1205 137.509 67.1205Z" fill="#776E67"/>
<g style="mix-blend-mode:multiply">
<path d="M125.468 67.1205H110.084C108.861 67.1205 107.869 68.1121 107.869 69.3353V82.8148C107.869 84.038 108.861 85.0296 110.084 85.0296H125.468C126.691 85.0296 127.682 84.038 127.682 82.8148V69.3353C127.682 68.1121 126.691 67.1205 125.468 67.1205Z" fill="#535762"/>
</g>
<path d="M119.896 61.9183H93.1577C89.8367 61.9183 87.1445 64.6105 87.1445 67.9314V84.2221C87.1445 87.543 89.8367 90.2352 93.1577 90.2352H119.896C123.217 90.2352 125.909 87.543 125.909 84.2221V67.9314C125.909 64.6105 123.217 61.9183 119.896 61.9183Z" fill="#433E39"/>
<path fill-rule="evenodd" clip-rule="evenodd" d="M181.031 22.4201L293.263 22.4201C297.804 22.4201 302.215 22.9537 306.431 23.9589C330.388 28.495 348.506 49.5406 348.506 74.8169C348.506 75.5741 348.489 76.3276 348.457 77.0769H349.352C350.806 77.0769 351.988 75.8943 351.988 74.4411C351.988 72.9879 350.806 71.8053 349.352 71.8053H348.445C348.275 68.1473 347.749 64.5846 346.892 61.1521C347.664 63.1865 349.352 63.7878 349.352 63.7878L349.347 63.7928C355.23 63.7928 360.001 68.5633 360.001 74.4461C360.001 80.329 355.23 85.0994 349.347 85.0994C349.347 85.0994 347.628 85.7071 346.869 87.7795C346.788 88.0929 346.705 88.4051 346.618 88.7162C346.607 88.7806 346.596 88.8461 346.586 88.9127L346.566 88.9011C340.432 110.644 320.448 126.58 296.743 126.58L179.452 126.58C162.782 126.58 147.954 118.697 138.489 106.457C132.92 99.7338 129.058 91.6593 127.527 82.8315V65.7353C131.79 41.1589 154.119 22.4201 181.031 22.4201Z" fill="#34302D"/>
<path d="M293.44 50.9006C306.629 50.9006 317.362 61.629 317.362 74.8228C317.362 88.0166 306.634 98.7451 293.44 98.7451C280.246 98.7451 269.518 88.0166 269.518 74.8228C269.518 61.629 280.246 50.9006 293.44 50.9006ZM293.44 42.8831C275.801 42.8831 261.5 57.1843 261.5 74.8228C261.5 92.4614 275.801 106.763 293.44 106.763C311.078 106.763 325.38 92.4614 325.38 74.8228C325.38 57.1843 311.078 42.8831 293.44 42.8831Z" fill="#1D1915"/>
<path d="M293.44 98.7394C306.652 98.7394 317.362 88.0291 317.362 74.8171C317.362 61.6052 306.652 50.8949 293.44 50.8949C280.228 50.8949 269.518 61.6052 269.518 74.8171C269.518 88.0291 280.228 98.7394 293.44 98.7394Z" fill="#34302D"/>
<path d="M175.851 57.5275H177.055L179.32 63.5677L181.579 57.5275H182.784L179.793 65.3588H178.836L175.851 57.5275ZM175.302 57.5275H176.448L176.647 62.7556V65.3588H175.302V57.5275ZM182.187 57.5275H183.338V65.3588H181.988V62.7556L182.187 57.5275ZM189.194 64.1917V61.4163C189.194 61.2083 189.156 61.029 189.081 60.8784C189.006 60.7278 188.891 60.6113 188.737 60.5288C188.586 60.4463 188.396 60.4051 188.167 60.4051C187.955 60.4051 187.772 60.441 187.618 60.5127C187.464 60.5844 187.344 60.6812 187.258 60.8031C187.171 60.925 187.128 61.0631 187.128 61.2173H185.838C185.838 60.9878 185.893 60.7655 186.004 60.5503C186.115 60.3352 186.277 60.1433 186.488 59.9748C186.7 59.8063 186.953 59.6736 187.247 59.5768C187.541 59.48 187.871 59.4316 188.236 59.4316C188.674 59.4316 189.061 59.5051 189.398 59.6521C189.739 59.7991 190.006 60.0214 190.2 60.319C190.397 60.6131 190.495 60.9824 190.495 61.427V64.0142C190.495 64.2795 190.513 64.518 190.549 64.7295C190.589 64.9375 190.644 65.1186 190.716 65.2728V65.3588H189.387C189.326 65.219 189.278 65.0415 189.242 64.8263C189.21 64.6076 189.194 64.3961 189.194 64.1917ZM189.382 61.8197L189.393 62.6211H188.462C188.222 62.6211 188.011 62.6444 187.828 62.691C187.645 62.7341 187.492 62.7986 187.37 62.8847C187.249 62.9707 187.157 63.0747 187.096 63.1966C187.035 63.3185 187.005 63.4566 187.005 63.6108C187.005 63.765 187.041 63.9066 187.112 64.0357C187.184 64.1612 187.288 64.2598 187.424 64.3315C187.564 64.4032 187.733 64.4391 187.93 64.4391C188.195 64.4391 188.426 64.3853 188.624 64.2777C188.824 64.1666 188.982 64.0321 189.097 63.8743C189.212 63.713 189.273 63.5606 189.28 63.4171L189.699 63.9927C189.656 64.1397 189.583 64.2974 189.479 64.466C189.375 64.6345 189.239 64.7959 189.07 64.95C188.905 65.1007 188.706 65.2244 188.473 65.3212C188.244 65.418 187.978 65.4664 187.677 65.4664C187.297 65.4664 186.958 65.3911 186.66 65.2405C186.363 65.0863 186.13 64.8801 185.961 64.622C185.793 64.3602 185.708 64.0644 185.708 63.7345C185.708 63.4261 185.766 63.1536 185.881 62.9169C185.999 62.6767 186.171 62.4759 186.397 62.3145C186.626 62.1532 186.906 62.0312 187.236 61.9488C187.566 61.8627 187.942 61.8197 188.366 61.8197H189.382ZM194.34 59.5391V65.3588H193.038V59.5391H194.34ZM192.952 58.0116C192.952 57.8144 193.017 57.6512 193.146 57.5222C193.279 57.3895 193.462 57.3232 193.695 57.3232C193.924 57.3232 194.105 57.3895 194.238 57.5222C194.371 57.6512 194.437 57.8144 194.437 58.0116C194.437 58.2052 194.371 58.3666 194.238 58.4957C194.105 58.6248 193.924 58.6893 193.695 58.6893C193.462 58.6893 193.279 58.6248 193.146 58.4957C193.017 58.3666 192.952 58.2052 192.952 58.0116ZM198.147 60.7816V65.3588H196.851V59.5391H198.072L198.147 60.7816ZM197.916 62.2338L197.496 62.2285C197.5 61.8161 197.557 61.4378 197.668 61.0936C197.783 60.7493 197.941 60.4535 198.142 60.2061C198.346 59.9587 198.59 59.7686 198.873 59.636C199.156 59.4997 199.472 59.4316 199.82 59.4316C200.1 59.4316 200.352 59.471 200.578 59.5499C200.808 59.6252 201.003 59.7489 201.165 59.921C201.329 60.0931 201.455 60.3173 201.541 60.5934C201.627 60.8659 201.67 61.2011 201.67 61.5992V65.3588H200.368V61.5938C200.368 61.3141 200.327 61.0936 200.245 60.9322C200.166 60.7673 200.049 60.6507 199.895 60.5826C199.745 60.5109 199.556 60.475 199.33 60.475C199.108 60.475 198.909 60.5216 198.733 60.6149C198.558 60.7081 198.409 60.8354 198.287 60.9968C198.169 61.1581 198.077 61.3446 198.013 61.5561C197.948 61.7677 197.916 61.9936 197.916 62.2338ZM208.617 57.5275H209.822L212.086 63.5677L214.345 57.5275H215.55L212.56 65.3588H211.602L208.617 57.5275ZM208.069 57.5275H209.214L209.413 62.7556V65.3588H208.069V57.5275ZM214.953 57.5275H216.104V65.3588H214.754V62.7556L214.953 57.5275ZM221.245 65.4664C220.815 65.4664 220.426 65.3965 220.078 65.2566C219.734 65.1132 219.44 64.9142 219.196 64.6596C218.956 64.405 218.771 64.1056 218.642 63.7614C218.513 63.4171 218.448 63.046 218.448 62.648V62.4329C218.448 61.9775 218.515 61.5651 218.647 61.1958C218.78 60.8264 218.965 60.5109 219.201 60.2491C219.438 59.9838 219.718 59.7812 220.04 59.6413C220.363 59.5015 220.713 59.4316 221.089 59.4316C221.505 59.4316 221.869 59.5015 222.181 59.6413C222.493 59.7812 222.751 59.9784 222.955 60.233C223.163 60.484 223.318 60.7834 223.418 61.1312C223.522 61.479 223.574 61.8627 223.574 62.2822V62.8362H219.078V61.9057H222.294V61.8036C222.287 61.5705 222.24 61.3517 222.154 61.1474C222.072 60.943 221.944 60.778 221.772 60.6525C221.6 60.527 221.371 60.4643 221.084 60.4643C220.869 60.4643 220.677 60.5109 220.508 60.6041C220.343 60.6938 220.205 60.8246 220.094 60.9968C219.983 61.1689 219.897 61.3768 219.836 61.6207C219.779 61.8609 219.75 62.1316 219.75 62.4329V62.648C219.75 62.9026 219.784 63.1392 219.852 63.358C219.924 63.5731 220.028 63.7614 220.164 63.9227C220.3 64.0841 220.465 64.2114 220.659 64.3046C220.852 64.3943 221.073 64.4391 221.32 64.4391C221.632 64.4391 221.91 64.3763 222.154 64.2508C222.398 64.1253 222.609 63.9478 222.789 63.7183L223.472 64.3799C223.346 64.5628 223.183 64.7385 222.982 64.907C222.782 65.072 222.536 65.2064 222.246 65.3104C221.959 65.4144 221.625 65.4664 221.245 65.4664ZM226.972 60.7816V65.3588H225.676V59.5391H226.897L226.972 60.7816ZM226.741 62.2338L226.321 62.2285C226.325 61.8161 226.382 61.4378 226.494 61.0936C226.608 60.7493 226.766 60.4535 226.967 60.2061C227.171 59.9587 227.415 59.7686 227.698 59.636C227.982 59.4997 228.297 59.4316 228.645 59.4316C228.925 59.4316 229.177 59.471 229.403 59.5499C229.633 59.6252 229.828 59.7489 229.99 59.921C230.155 60.0931 230.28 60.3173 230.366 60.5934C230.452 60.8659 230.495 61.2011 230.495 61.5992V65.3588H229.194V61.5938C229.194 61.3141 229.152 61.0936 229.07 60.9322C228.991 60.7673 228.874 60.6507 228.72 60.5826C228.57 60.5109 228.381 60.475 228.156 60.475C227.933 60.475 227.734 60.5216 227.559 60.6149C227.383 60.7081 227.234 60.8354 227.112 60.9968C226.994 61.1581 226.902 61.3446 226.838 61.5561C226.773 61.7677 226.741 61.9936 226.741 62.2338ZM236.421 63.9873V59.5391H237.723V65.3588H236.497L236.421 63.9873ZM236.604 62.7771L237.04 62.7663C237.04 63.1572 236.997 63.5175 236.911 63.8474C236.825 64.1737 236.692 64.4588 236.513 64.7026C236.334 64.9429 236.104 65.1311 235.824 65.2674C235.545 65.4001 235.209 65.4664 234.819 65.4664C234.535 65.4664 234.275 65.4252 234.039 65.3427C233.802 65.2602 233.598 65.1329 233.426 64.9608C233.257 64.7887 233.126 64.5646 233.033 64.2885C232.94 64.0124 232.893 63.6825 232.893 63.2988V59.5391H234.189V63.3096C234.189 63.5211 234.214 63.6986 234.265 63.8421C234.315 63.9819 234.383 64.0948 234.469 64.1809C234.555 64.267 234.655 64.3279 234.77 64.3638C234.885 64.3996 235.007 64.4176 235.136 64.4176C235.505 64.4176 235.796 64.3459 236.007 64.2024C236.222 64.0554 236.375 63.8582 236.464 63.6108C236.558 63.3634 236.604 63.0855 236.604 62.7771Z" fill="white"/>
<path d="M173.744 86.7573L169.889 90.6127L173.744 94.4681" stroke="white" stroke-width="1.10154" stroke-linecap="round" stroke-linejoin="round"/>
<rect x="176.773" y="84.6342" width="59.4647" height="11.9569" rx="3.58002" stroke="white" stroke-width="0.550772"/>
<path d="M183.119 87.0645H184.024L186.334 92.8105L188.638 87.0645H189.548L186.682 94.1127H185.975L183.119 87.0645ZM182.824 87.0645H183.623L183.753 91.3631V94.1127H182.824V87.0645ZM189.039 87.0645H189.838V94.1127H188.909V91.3631L189.039 87.0645ZM193.917 93.5705L195.374 88.875H196.332L194.231 94.9211C194.183 95.0502 194.119 95.189 194.038 95.3374C193.96 95.4891 193.86 95.6327 193.738 95.7682C193.615 95.9038 193.467 96.0135 193.292 96.0974C193.121 96.1846 192.916 96.2281 192.678 96.2281C192.607 96.2281 192.516 96.2184 192.407 96.1991C192.297 96.1797 192.219 96.1636 192.174 96.1507L192.169 95.4245C192.195 95.4278 192.235 95.431 192.29 95.4342C192.348 95.4407 192.389 95.4439 192.411 95.4439C192.615 95.4439 192.787 95.4165 192.929 95.3616C193.071 95.31 193.191 95.2212 193.288 95.0954C193.388 94.9727 193.473 94.8033 193.544 94.5871L193.917 93.5705ZM192.847 88.875L194.207 92.9412L194.44 93.8852L193.796 94.2144L191.869 88.875H192.847ZM200.232 91.9828L201.631 87.0645H202.309L201.916 88.9766L200.411 94.1127H199.738L200.232 91.9828ZM198.784 87.0645L199.898 91.8859L200.232 94.1127H199.564L197.855 87.0645H198.784ZM204.119 91.8811L205.208 87.0645H206.142L204.439 94.1127H203.77L204.119 91.8811ZM202.41 87.0645L203.77 91.9828L204.264 94.1127H203.591L202.139 88.9766L201.742 87.0645H202.41ZM211.068 93.2172V90.5209C211.068 90.3143 211.026 90.1352 210.942 89.9835C210.862 89.8286 210.739 89.7092 210.574 89.6253C210.41 89.5414 210.207 89.4994 209.965 89.4994C209.739 89.4994 209.54 89.5382 209.369 89.6156C209.201 89.6931 209.069 89.7947 208.972 89.9206C208.879 90.0465 208.832 90.182 208.832 90.3272H207.936C207.936 90.14 207.985 89.9545 208.081 89.7705C208.178 89.5866 208.317 89.4204 208.498 89.2719C208.682 89.1203 208.901 89.0009 209.156 88.9137C209.414 88.8234 209.702 88.7782 210.018 88.7782C210.399 88.7782 210.734 88.8427 211.025 88.9718C211.318 89.1009 211.547 89.2961 211.712 89.5575C211.88 89.8157 211.964 90.14 211.964 90.5305V92.9703C211.964 93.1445 211.978 93.3301 212.007 93.527C212.04 93.7238 212.086 93.8933 212.148 94.0352V94.1127H211.213C211.168 94.0094 211.133 93.8723 211.107 93.7012C211.081 93.527 211.068 93.3656 211.068 93.2172ZM211.223 90.9372L211.233 91.5665H210.328C210.073 91.5665 209.845 91.5874 209.645 91.6294C209.445 91.6681 209.277 91.7278 209.142 91.8085C209.006 91.8892 208.903 91.9908 208.832 92.1135C208.761 92.2329 208.725 92.3733 208.725 92.5346C208.725 92.6992 208.762 92.8493 208.837 92.9848C208.911 93.1203 209.022 93.2285 209.171 93.3091C209.322 93.3866 209.508 93.4253 209.727 93.4253C210.002 93.4253 210.244 93.3672 210.453 93.251C210.663 93.1349 210.829 92.9929 210.952 92.8251C211.078 92.6572 211.146 92.4943 211.155 92.3361L211.538 92.767C211.515 92.9025 211.454 93.0526 211.354 93.2172C211.254 93.3817 211.12 93.5399 210.952 93.6916C210.787 93.84 210.591 93.9643 210.361 94.0643C210.136 94.1611 209.881 94.2095 209.597 94.2095C209.242 94.2095 208.93 94.1401 208.662 94.0014C208.398 93.8626 208.191 93.677 208.043 93.4447C207.898 93.2091 207.825 92.9461 207.825 92.6556C207.825 92.3749 207.88 92.128 207.989 91.915C208.099 91.6988 208.257 91.5197 208.464 91.3777C208.67 91.2324 208.919 91.1227 209.209 91.0485C209.5 90.9743 209.824 90.9372 210.182 90.9372H211.223ZM215.447 86.6773V94.1127H214.547V86.6773H215.447ZM218.959 86.6773V94.1127H218.059V86.6773H218.959ZM223.672 94.2095C223.307 94.2095 222.977 94.1482 222.68 94.0256C222.386 93.8997 222.133 93.7238 221.92 93.4979C221.71 93.272 221.548 93.0042 221.436 92.6944C221.323 92.3845 221.266 92.0457 221.266 91.6778V91.4745C221.266 91.0485 221.329 90.6693 221.455 90.3369C221.581 90.0013 221.752 89.7173 221.968 89.4849C222.184 89.2526 222.429 89.0767 222.704 88.9573C222.978 88.8379 223.262 88.7782 223.556 88.7782C223.93 88.7782 224.253 88.8427 224.524 88.9718C224.798 89.1009 225.023 89.2816 225.197 89.514C225.371 89.7431 225.5 90.0142 225.584 90.3272C225.668 90.637 225.71 90.9759 225.71 91.3438V91.7456H221.799V91.0146H224.814V90.9468C224.801 90.7145 224.753 90.4886 224.669 90.2691C224.588 90.0497 224.459 89.869 224.282 89.727C224.104 89.585 223.862 89.514 223.556 89.514C223.352 89.514 223.165 89.5575 222.994 89.6447C222.823 89.7286 222.676 89.8544 222.554 90.0223C222.431 90.1901 222.336 90.395 222.268 90.637C222.2 90.8791 222.166 91.1582 222.166 91.4745V91.6778C222.166 91.9263 222.2 92.1603 222.268 92.3797C222.339 92.5959 222.441 92.7863 222.573 92.9509C222.709 93.1155 222.872 93.2446 223.062 93.3382C223.256 93.4318 223.475 93.4786 223.72 93.4786C224.037 93.4786 224.304 93.414 224.524 93.2849C224.743 93.1558 224.935 92.9832 225.1 92.767L225.642 93.1978C225.529 93.3688 225.386 93.5318 225.211 93.6867C225.037 93.8416 224.822 93.9675 224.568 94.0643C224.316 94.1611 224.017 94.2095 223.672 94.2095ZM230.05 88.875V89.5624H227.218V88.875H230.05ZM228.177 87.6019H229.072V92.8154C229.072 92.9929 229.1 93.1268 229.154 93.2172C229.209 93.3075 229.28 93.3672 229.367 93.3963C229.455 93.4253 229.548 93.4398 229.648 93.4398C229.722 93.4398 229.8 93.4334 229.881 93.4205C229.964 93.4043 230.027 93.3914 230.069 93.3817L230.074 94.1127C230.003 94.1353 229.91 94.1563 229.793 94.1756C229.68 94.1982 229.543 94.2095 229.382 94.2095C229.162 94.2095 228.961 94.1659 228.777 94.0788C228.593 93.9917 228.446 93.8465 228.336 93.6431C228.23 93.4366 228.177 93.1591 228.177 92.8105V87.6019Z" fill="white"/>
<path d="M239.268 94.4681L243.123 90.6127L239.268 86.7573" stroke="white" stroke-width="1.10154" stroke-linecap="round" stroke-linejoin="round"/>
</g>
<defs>
<filter id="filter0_dd_4053_25659" x="37.9691" y="0.38914" width="335.8" height="139.409" filterUnits="userSpaceOnUse" color-interpolation-filters="sRGB">
<feFlood flood-opacity="0" result="BackgroundImageFix"/>
<feColorMatrix in="SourceAlpha" type="matrix" values="0 0 0 0 0 0 0 0 0 0 0 0 0 0 0 0 0 0 127 0" result="hardAlpha"/>
<feOffset dx="2.75386" dy="2.20309"/>
<feGaussianBlur stdDeviation="5.50772"/>
<feComposite in2="hardAlpha" operator="out"/>
<feColorMatrix type="matrix" values="0 0 0 0 0 0 0 0 0 0 0 0 0 0 0 0 0 0 0.41 0"/>
<feBlend mode="normal" in2="BackgroundImageFix" result="effect1_dropShadow_4053_25659"/>
<feColorMatrix in="SourceAlpha" type="matrix" values="0 0 0 0 0 0 0 0 0 0 0 0 0 0 0 0 0 0 127 0" result="hardAlpha"/>
<feOffset dx="-5.50772" dy="-5.50772"/>
<feGaussianBlur stdDeviation="8.26158"/>
<feComposite in2="hardAlpha" operator="out"/>
<feColorMatrix type="matrix" values="0 0 0 0 0.0916667 0 0 0 0 0.0758333 0 0 0 0 0.0626389 0 0 0 1 0"/>
<feBlend mode="normal" in2="effect1_dropShadow_4053_25659" result="effect2_dropShadow_4053_25659"/>
<feBlend mode="normal" in="SourceGraphic" in2="effect2_dropShadow_4053_25659" result="shape"/>
</filter>
</defs>
</svg>
