<svg width="16" height="16" viewBox="0 0 16 16" fill="none" xmlns="http://www.w3.org/2000/svg">
<g id="system-uicons:message" clip-path="url(#clip0_2570_38136)">
<g id="Group">
<path id="Vector" d="M11.4688 5.50365L6.38947 5.50365M12.3154 1.27084C12.7644 1.27084 13.1951 1.44923 13.5126 1.76675C13.8301 2.08427 14.0085 2.51492 14.0085 2.96397L14.0085 11.4296C14.0085 11.8786 13.8301 12.3093 13.5126 12.6268C13.1951 12.9443 12.7644 13.1227 12.3154 13.1227L9.77655 13.1218L7.83454 15.0639C7.68877 15.2096 7.49483 15.2972 7.28909 15.3101C7.08335 15.3231 6.87997 15.2605 6.71708 15.1341L6.63751 15.0639L4.6955 13.1218L2.15666 13.1227C1.70762 13.1227 1.27697 12.9443 0.959445 12.6268C0.641923 12.3093 0.463541 11.8786 0.463541 11.4296L0.463541 2.96397C0.463541 2.51492 0.641923 2.08427 0.959445 1.76675C1.27697 1.44923 1.70762 1.27084 2.15666 1.27084L12.3154 1.27084Z" stroke="white" stroke-linecap="round" stroke-linejoin="round"/>
<path id="Vector_2" fill-rule="evenodd" clip-rule="evenodd" d="M3.84832 6.34937C4.2716 6.34937 4.69488 5.92609 4.69488 5.50281C4.69488 5.07953 4.2716 4.65625 3.84832 4.65625C3.42504 4.65625 3.0026 5.07953 3.0026 5.50281C3.0026 5.92609 3.42504 6.34937 3.84832 6.34937ZM3.84832 9.73561C4.2716 9.73561 4.69488 9.31233 4.69488 8.88905C4.69488 8.46577 4.2716 8.04249 3.84832 8.04249C3.42504 8.04249 3.0026 8.46577 3.0026 8.88905C3.0026 9.31233 3.42504 9.73561 3.84832 9.73561Z" fill="white"/>
<path id="Vector_3" d="M11.4687 8.89063L6.38932 8.89062" stroke="white" stroke-width="0.952381" stroke-linecap="round" stroke-linejoin="round"/>
</g>
</g>
<defs>
<clipPath id="clip0_2570_38136">
<rect width="15.1111" height="16" fill="white"/>
</clipPath>
</defs>
</svg>
