<svg width="33" height="33" viewBox="0 0 33 33" fill="none" xmlns="http://www.w3.org/2000/svg">
<g clip-path="url(#clip0_1448_11154)">
<path d="M25.6446 1.63742L18.9675 11.5574C18.5058 12.233 19.3937 13.0507 20.033 12.4819L26.6035 6.75742C26.7811 6.6152 27.0297 6.72186 27.0297 6.97075V24.8552C27.0297 25.1041 26.7101 25.2108 26.568 25.033L6.67898 1.21075C6.03969 0.428528 5.11627 0.00186157 4.0863 0.00186157H3.37598C1.52915 0.00186157 0.00195312 1.53075 0.00195312 3.4152V28.5885C0.00195312 30.473 1.52915 32.0019 3.4115 32.0019C4.58353 32.0019 5.68453 31.3974 6.32382 30.3663L13.0008 20.4463C13.4626 19.7708 12.5746 18.953 11.9354 19.5219L5.36488 25.2108C5.1873 25.353 4.93869 25.2463 4.93869 24.9974V7.14853C4.93869 6.89964 5.25834 6.79297 5.4004 6.97075L25.2894 30.793C25.9287 31.5752 26.8876 32.0019 27.8821 32.0019H28.5924C30.4748 32.0019 32.002 30.473 32.002 28.5885V3.4152C32.002 1.53075 30.4748 0.00186157 28.5924 0.00186157C27.3849 0.00186157 26.2839 0.606306 25.6446 1.63742Z" fill="white"/>
</g>
<defs>
<clipPath id="clip0_1448_11154">
<rect width="32" height="32" fill="white" transform="translate(0.00195312 0.00186157)"/>
</clipPath>
</defs>
</svg>
