<svg width="20" height="16" viewBox="0 0 20 16" fill="none" xmlns="http://www.w3.org/2000/svg">
<path d="M8.47616 14.4762H11.5238C11.5238 15.3143 10.8381 16 9.99997 16C9.16187 16 8.47616 15.3143 8.47616 14.4762ZM16.8571 12.9524V13.7143H3.14282V12.9524L4.66663 11.4286V6.85714C4.66663 4.49524 6.19044 2.4381 8.47616 1.75238V1.52381C8.47616 0.685714 9.16187 0 9.99997 0C10.8381 0 11.5238 0.685714 11.5238 1.52381V1.75238C13.8095 2.4381 15.3333 4.49524 15.3333 6.85714V11.4286L16.8571 12.9524ZM13.8095 6.85714C13.8095 4.72381 12.1333 3.04762 9.99997 3.04762C7.86663 3.04762 6.19044 4.72381 6.19044 6.85714V12.1905H13.8095V6.85714Z" fill="#8B8682"/>
</svg>
