<svg width="56" height="48" viewBox="0 0 56 48" fill="none" xmlns="http://www.w3.org/2000/svg">
<g clip-path="url(#clip0_2637_40414)">
<path d="M51.3548 13.5033V13.8016L51.6222 13.9337C52.9974 14.613 53.9002 15.8622 53.9002 17.2561V30.3452C53.8953 31.0069 53.6888 31.6614 53.2933 32.2444C52.8969 32.8288 52.3231 33.3225 51.6219 33.6695L51.3548 33.8017V34.0997V39.0743C51.3548 41.1424 49.3509 42.9579 46.7439 42.9579H11.1075C9.86276 42.9579 8.68111 42.5334 7.82007 41.7954C6.96132 41.0593 6.4966 40.0783 6.4966 39.0743V8.5288C6.4966 7.52477 6.96132 6.54376 7.82007 5.80768C8.68111 5.06965 9.86276 4.64516 11.1075 4.64516H46.7439C49.3509 4.64516 51.3548 6.46065 51.3548 8.5288V13.5033ZM49.7693 17.2561V16.7761H49.2893H31.4711H30.9911V17.2561V30.347V30.827H31.4711H49.2893H49.7693V30.347V17.2561ZM10.6275 39.0743V39.5543H11.1075H46.7439H47.2239V39.0743V34.7106V34.2306H46.7439H31.4711C28.8642 34.2306 26.8602 32.4151 26.8602 30.347V17.2561C26.8602 15.1879 28.8642 13.3724 31.4711 13.3724H46.7439H47.2239V12.8924V8.5288V8.0488H46.7439H11.1075H10.6275V8.5288V39.0743Z" fill="#8B8682" stroke="#2C2520" stroke-width="0.96"/>
<path d="M39.6863 27.0743C41.7951 27.0743 43.5045 25.609 43.5045 23.8015C43.5045 21.9941 41.7951 20.5288 39.6863 20.5288C37.5776 20.5288 35.8682 21.9941 35.8682 23.8015C35.8682 25.609 37.5776 27.0743 39.6863 27.0743Z" fill="#8B8682"/>
<rect width="10.3445" height="62.9292" transform="matrix(0.759257 -0.650791 0.759257 0.650791 0 6.73218)" fill="#2C2520"/>
<rect width="3.44817" height="62.9292" transform="matrix(0.759257 -0.650791 0.759257 0.650791 2.61816 4.48816)" fill="#FF624C"/>
</g>
<defs>
<clipPath id="clip0_2637_40414">
<rect width="56" height="48" fill="white"/>
</clipPath>
</defs>
</svg>
