<svg width="100" height="100" viewBox="0 0 100 100" fill="none" xmlns="http://www.w3.org/2000/svg">
<g clip-path="url(#clip0_563_74980)">
<path d="M22.8791 22.8791C23.1574 22.6004 23.4879 22.3793 23.8517 22.2285C24.2155 22.0776 24.6055 22 24.9993 22C25.3931 22 25.7831 22.0776 26.1469 22.2285C26.5107 22.3793 26.8412 22.6004 27.1195 22.8791L38.0004 33.7561L48.8814 22.8791C49.1598 22.6007 49.4904 22.3798 49.8542 22.2291C50.2179 22.0784 50.6078 22.0009 51.0016 22.0009C51.3954 22.0009 51.7853 22.0784 52.149 22.2291C52.5128 22.3798 52.8434 22.6007 53.1218 22.8791C53.4002 23.1575 53.6211 23.4881 53.7718 23.8518C53.9224 24.2156 54 24.6055 54 24.9993C54 25.393 53.9224 25.7829 53.7718 26.1467C53.6211 26.5105 53.4002 26.841 53.1218 27.1195L42.2448 38.0004L53.1218 48.8814C53.6841 49.4437 54 50.2064 54 51.0016C54 51.7968 53.6841 52.5595 53.1218 53.1218C52.5595 53.6841 51.7968 54 51.0016 54C50.2064 54 49.4437 53.6841 48.8814 53.1218L38.0004 42.2448L27.1195 53.1218C26.5572 53.6841 25.7945 54 24.9993 54C24.2041 54 23.4414 53.6841 22.8791 53.1218C22.3168 52.5595 22.0009 51.7968 22.0009 51.0016C22.0009 50.2064 22.3168 49.4437 22.8791 48.8814L33.7561 38.0004L22.8791 27.1195C22.6004 26.8412 22.3793 26.5107 22.2285 26.1469C22.0776 25.7831 22 25.3931 22 24.9993C22 24.6055 22.0776 24.2155 22.2285 23.8517C22.3793 23.4879 22.6004 23.1574 22.8791 22.8791Z" fill="#8B8682"/>
<path d="M96.0229 79.4769L79.2284 62.6825L66.3105 57.3455C70.6118 51.2288 72.9161 43.9315 72.9078 36.4539C72.9078 16.3531 56.5547 0 36.4539 0C16.3531 0 0 16.3531 0 36.4539C0 56.5547 16.3531 72.9078 36.4539 72.9078C43.9966 72.9164 51.3542 70.5722 57.5017 66.2017L62.8248 79.0848L79.6187 95.8801C80.6957 96.9573 81.9744 97.8117 83.3816 98.3946C84.7889 98.9776 86.2972 99.2777 87.8204 99.2777C89.3437 99.2778 90.852 98.9778 92.2593 98.3949C93.6666 97.8121 94.9453 96.9577 96.0224 95.8807C97.0995 94.8036 97.954 93.5249 98.5369 92.1177C99.1199 90.7104 99.4199 89.2021 99.42 87.6789C99.42 86.1557 99.1201 84.6473 98.5372 83.2401C97.9543 81.8328 97.1 80.554 96.0229 79.4769ZM6.62798 36.4539C6.62798 20.0082 20.0082 6.62798 36.4539 6.62798C52.8996 6.62798 66.2798 20.0082 66.2798 36.4539C66.2798 52.8996 52.8996 66.2798 36.4539 66.2798C20.0082 66.2798 6.62798 52.8996 6.62798 36.4539ZM91.3359 91.1935C90.4029 92.1244 89.1388 92.6472 87.8208 92.6472C86.5028 92.6472 85.2387 92.1244 84.3057 91.1935L68.4457 75.3336L63.4967 63.3546L75.4762 68.3036L91.3363 84.1635C92.2671 85.0966 92.7897 86.3607 92.7897 87.6786C92.7896 88.9965 92.2668 90.2606 91.3359 91.1935Z" fill="#8B8682"/>
</g>
<defs>
<clipPath id="clip0_1578_135396">
<rect width="100" height="100" fill="white"/>
</clipPath>
</defs>
</svg>
