<svg width="32" height="33" viewBox="0 0 32 33" fill="none" xmlns="http://www.w3.org/2000/svg">
<g clip-path="url(#clip0_1935_4468)">
<path d="M13.2621 32.0019C9.70138 32.0019 6.78395 31.1723 4.50986 29.5129C2.26569 27.8241 1.1436 25.4241 1.1436 22.3129C1.1436 21.6611 1.21841 20.8611 1.36802 19.9129C1.75701 17.7796 2.31057 15.2167 3.0287 12.2241C5.06342 4.07594 10.3148 0.00186157 18.7828 0.00186157C21.0868 0.00186157 23.1514 0.387047 24.9767 1.15742C26.802 1.89817 28.2382 3.02409 29.2855 4.53519C30.3327 6.01668 30.8564 7.79445 30.8564 9.86853C30.8564 10.4908 30.7817 11.2759 30.6321 12.2241C30.1831 14.8611 29.6446 17.4241 29.0162 19.9129C27.9689 23.9723 26.1586 27.0092 23.5854 29.0241C21.0119 31.0092 17.571 32.0019 13.2621 32.0019ZM13.8905 25.6019C15.5661 25.6019 16.9874 25.1129 18.1545 24.1351C19.3513 23.1574 20.2041 21.6611 20.7127 19.6463C21.401 16.8611 21.9246 14.4315 22.2838 12.3574C22.4034 11.7352 22.4633 11.0982 22.4633 10.4463C22.4633 7.75001 21.0418 6.40186 18.1993 6.40186C16.5236 6.40186 15.0874 6.89076 13.8905 7.86853C12.7235 8.84631 11.8857 10.3426 11.377 12.3574C10.8384 14.3426 10.2998 16.7723 9.76122 19.6463C9.64152 20.2388 9.58168 20.8611 9.58168 21.5129C9.58168 24.2388 11.018 25.6019 13.8905 25.6019Z" fill="#FF0420"/>
</g>
<defs>
<clipPath id="clip0_1935_4468">
<rect width="32" height="32" fill="white" transform="translate(0 0.00186157)"/>
</clipPath>
</defs>
</svg>
