<svg width="15" height="17" viewBox="0 0 15 17" fill="none" xmlns="http://www.w3.org/2000/svg">
<path d="M6.13104 16.5C4.35067 16.5 2.89195 16.0852 1.75491 15.2555C0.63282 14.4111 0.0717773 13.2111 0.0717773 11.6555C0.0717773 11.3296 0.10918 10.9296 0.183986 10.4555C0.378481 9.38888 0.655262 8.10741 1.01433 6.61111C2.03169 2.53704 4.65737 0.5 8.89138 0.5C10.0434 0.5 11.0757 0.692593 11.9883 1.07778C12.901 1.44815 13.6191 2.01111 14.1427 2.76666C14.6663 3.50741 14.9282 4.3963 14.9282 5.43334C14.9282 5.74445 14.8908 6.13704 14.816 6.61111C14.5915 7.92963 14.3223 9.21112 14.0081 10.4555C13.4844 12.4852 12.5793 14.0037 11.2927 15.0111C10.0059 16.0037 8.28546 16.5 6.13104 16.5ZM6.44523 13.3C7.28305 13.3 7.9937 13.0555 8.57722 12.5666C9.17562 12.0778 9.60202 11.3296 9.85634 10.3222C10.2005 8.9296 10.4623 7.71482 10.6419 6.67778C10.7017 6.36666 10.7316 6.04814 10.7316 5.72222C10.7316 4.37407 10.0209 3.7 8.59962 3.7C7.7618 3.7 7.04367 3.94445 6.44523 4.43334C5.86174 4.92222 5.44283 5.67037 5.18849 6.67778C4.91919 7.67037 4.64989 8.8852 4.38059 10.3222C4.32074 10.6185 4.29082 10.9296 4.29082 11.2555C4.29082 12.6185 5.00895 13.3 6.44523 13.3Z" fill="#FF0420"/>
</svg>
