<svg width="335" height="140" viewBox="0 0 335 140" fill="none" xmlns="http://www.w3.org/2000/svg">
<g filter="url(#filter0_dd_4053_34226)">
<path d="M53.1695 70.9429H22.1016V81.4659H53.1695V70.9429Z" fill="#433E39"/>
<g style="mix-blend-mode:multiply">
<path d="M53.1327 70.8435H46.2227V81.3114H53.1327V70.8435Z" fill="#535762"/>
</g>
<path d="M98.5069 67.1204H71.082C69.8588 67.1204 68.8672 68.112 68.8672 69.3352V82.8146C68.8672 84.0379 69.8588 85.0295 71.082 85.0295H98.5069C99.7301 85.0295 100.722 84.0379 100.722 82.8146V69.3352C100.722 68.112 99.7301 67.1204 98.5069 67.1204Z" fill="#776E67"/>
<g style="mix-blend-mode:multiply">
<path d="M86.4656 67.1204H71.082C69.8588 67.1204 68.8672 68.112 68.8672 69.3352V82.8146C68.8672 84.0379 69.8588 85.0295 71.082 85.0295H86.4656C87.6888 85.0295 88.6804 84.0379 88.6804 82.8146V69.3352C88.6804 68.112 87.6888 67.1204 86.4656 67.1204Z" fill="#535762"/>
</g>
<path d="M80.8961 61.9182H54.1577C50.8367 61.9182 48.1445 64.6104 48.1445 67.9314V84.222C48.1445 87.5429 50.8367 90.2351 54.1577 90.2351H80.8961C84.2171 90.2351 86.9093 87.5429 86.9093 84.222V67.9314C86.9093 64.6104 84.2171 61.9182 80.8961 61.9182Z" fill="#433E39"/>
<path fill-rule="evenodd" clip-rule="evenodd" d="M142.031 22.4199L254.263 22.4199C258.804 22.4199 263.215 22.9535 267.431 23.9588C291.388 28.4949 309.506 49.5404 309.506 74.8167C309.506 75.574 309.489 76.3274 309.457 77.0767H310.352C311.806 77.0767 312.988 75.8941 312.988 74.4409C312.988 72.9878 311.806 71.8052 310.352 71.8052H309.445C309.275 68.1472 308.749 64.5844 307.892 61.1519C308.664 63.1864 310.352 63.7877 310.352 63.7877L310.347 63.7927C316.23 63.7927 321.001 68.5631 321.001 74.446C321.001 80.3288 316.23 85.0992 310.347 85.0992C310.347 85.0992 308.628 85.7069 307.869 87.7794C307.788 88.0927 307.705 88.405 307.618 88.716C307.607 88.7805 307.596 88.846 307.586 88.9126L307.566 88.9009C301.432 110.644 281.448 126.58 257.743 126.58L140.452 126.58C123.782 126.58 108.954 118.697 99.4886 106.457C93.9205 99.7337 90.0584 91.6591 88.5273 82.8314V65.7351C92.7898 41.1587 115.119 22.4199 142.031 22.4199Z" fill="#34302D"/>
<path d="M254.44 50.9003C267.629 50.9003 278.362 61.6288 278.362 74.8226C278.362 88.0164 267.634 98.7448 254.44 98.7448C241.246 98.7448 230.518 88.0164 230.518 74.8226C230.518 61.6288 241.246 50.9003 254.44 50.9003ZM254.44 42.8828C236.801 42.8828 222.5 57.184 222.5 74.8226C222.5 92.4611 236.801 106.762 254.44 106.762C272.078 106.762 286.38 92.4611 286.38 74.8226C286.38 57.184 272.078 42.8828 254.44 42.8828Z" fill="#1D1915"/>
<path d="M254.438 98.7391C267.65 98.7391 278.36 88.0287 278.36 74.8168C278.36 61.6049 267.65 50.8945 254.438 50.8945C241.226 50.8945 230.516 61.6049 230.516 74.8168C230.516 88.0287 241.226 98.7391 254.438 98.7391Z" fill="#34302D"/>
<path d="M140.278 59.1841H138.24V58.1138H140.278C140.633 58.1138 140.92 58.0564 141.139 57.9417C141.358 57.8269 141.517 57.6692 141.618 57.4684C141.721 57.264 141.773 57.0309 141.773 56.7691C141.773 56.5217 141.721 56.2904 141.618 56.0753C141.517 55.8566 141.358 55.6809 141.139 55.5482C140.92 55.4155 140.633 55.3492 140.278 55.3492H138.654V62.1047H137.304V54.2734H140.278C140.884 54.2734 141.399 54.381 141.822 54.5962C142.249 54.8077 142.573 55.1018 142.795 55.4783C143.018 55.8512 143.129 56.2779 143.129 56.7584C143.129 57.264 143.018 57.6978 142.795 58.06C142.573 58.4222 142.249 58.7001 141.822 58.8937C141.399 59.0873 140.884 59.1841 140.278 59.1841ZM148.528 60.9376V58.1622C148.528 57.9542 148.49 57.7749 148.415 57.6243C148.34 57.4737 148.225 57.3572 148.071 57.2747C147.92 57.1923 147.73 57.151 147.501 57.151C147.289 57.151 147.106 57.1869 146.952 57.2586C146.798 57.3303 146.678 57.4271 146.592 57.549C146.506 57.671 146.463 57.809 146.463 57.9632H145.172C145.172 57.7337 145.227 57.5114 145.338 57.2962C145.45 57.0811 145.611 56.8893 145.823 56.7207C146.034 56.5522 146.287 56.4195 146.581 56.3227C146.875 56.2259 147.205 56.1775 147.571 56.1775C148.008 56.1775 148.395 56.251 148.732 56.398C149.073 56.545 149.34 56.7673 149.534 57.065C149.731 57.359 149.83 57.7283 149.83 58.173V60.7601C149.83 61.0254 149.848 61.2639 149.883 61.4754C149.923 61.6834 149.978 61.8645 150.05 62.0187V62.1047H148.722C148.661 61.9649 148.612 61.7874 148.576 61.5723C148.544 61.3535 148.528 61.142 148.528 60.9376ZM148.716 58.5656L148.727 59.367H147.796C147.556 59.367 147.345 59.3903 147.162 59.4369C146.979 59.48 146.827 59.5445 146.705 59.6306C146.583 59.7166 146.491 59.8206 146.43 59.9425C146.369 60.0644 146.339 60.2025 146.339 60.3567C146.339 60.5109 146.375 60.6525 146.446 60.7816C146.518 60.9071 146.622 61.0057 146.758 61.0774C146.898 61.1491 147.067 61.185 147.264 61.185C147.529 61.185 147.761 61.1312 147.958 61.0236C148.159 60.9125 148.316 60.778 148.431 60.6202C148.546 60.4589 148.607 60.3065 148.614 60.1631L149.034 60.7386C148.991 60.8856 148.917 61.0434 148.813 61.2119C148.709 61.3804 148.573 61.5418 148.404 61.696C148.239 61.8466 148.04 61.9703 147.807 62.0671C147.578 62.1639 147.312 62.2123 147.011 62.2123C146.631 62.2123 146.292 62.137 145.995 61.9864C145.697 61.8322 145.464 61.626 145.295 61.3679C145.127 61.1061 145.043 60.8103 145.043 60.4804C145.043 60.172 145.1 59.8995 145.215 59.6628C145.333 59.4226 145.505 59.2218 145.731 59.0604C145.961 58.8991 146.24 58.7772 146.57 58.6947C146.9 58.6086 147.277 58.5656 147.7 58.5656H148.716ZM153.674 56.2851V62.1047H152.373V56.2851H153.674ZM152.287 54.7575C152.287 54.5603 152.351 54.3972 152.48 54.2681C152.613 54.1354 152.796 54.0691 153.029 54.0691C153.258 54.0691 153.439 54.1354 153.572 54.2681C153.705 54.3972 153.771 54.5603 153.771 54.7575C153.771 54.9512 153.705 55.1125 153.572 55.2416C153.439 55.3707 153.258 55.4352 153.029 55.4352C152.796 55.4352 152.613 55.3707 152.48 55.2416C152.351 55.1125 152.287 54.9512 152.287 54.7575ZM157.497 57.3931V62.1047H156.201V56.2851H157.438L157.497 57.3931ZM159.278 56.2474L159.267 57.4522C159.188 57.4379 159.102 57.4271 159.009 57.4199C158.919 57.4128 158.829 57.4092 158.74 57.4092C158.518 57.4092 158.322 57.4415 158.154 57.506C157.985 57.567 157.843 57.6566 157.729 57.7749C157.618 57.8897 157.531 58.0295 157.47 58.1945C157.41 58.3594 157.374 58.5441 157.363 58.7485L157.067 58.77C157.067 58.4042 157.103 58.0654 157.175 57.7534C157.246 57.4415 157.354 57.1672 157.497 56.9305C157.644 56.6938 157.827 56.5092 158.046 56.3765C158.268 56.2438 158.525 56.1775 158.815 56.1775C158.894 56.1775 158.978 56.1847 159.068 56.199C159.161 56.2133 159.231 56.2295 159.278 56.2474ZM169.791 59.5553H171.135C171.092 60.068 170.949 60.5252 170.705 60.9268C170.461 61.3248 170.119 61.6386 169.678 61.8681C169.237 62.0976 168.701 62.2123 168.07 62.2123C167.586 62.2123 167.15 62.1263 166.763 61.9541C166.375 61.7784 166.044 61.531 165.768 61.2119C165.491 60.8892 165.28 60.5001 165.133 60.0447C164.989 59.5893 164.918 59.0802 164.918 58.5172V57.8664C164.918 57.3034 164.991 56.7942 165.138 56.3388C165.289 55.8835 165.504 55.4944 165.784 55.1717C166.063 54.8454 166.399 54.5962 166.79 54.4241C167.184 54.2519 167.627 54.1659 168.118 54.1659C168.742 54.1659 169.269 54.2806 169.699 54.5101C170.13 54.7396 170.463 55.0569 170.7 55.4621C170.94 55.8673 171.087 56.3317 171.141 56.8552H169.796C169.76 56.5181 169.681 56.2295 169.56 55.9892C169.441 55.749 169.265 55.5661 169.032 55.4406C168.799 55.3115 168.495 55.247 168.118 55.247C167.81 55.247 167.541 55.3044 167.311 55.4191C167.082 55.5338 166.89 55.7024 166.736 55.9247C166.582 56.147 166.465 56.4213 166.386 56.7476C166.311 57.0703 166.273 57.4397 166.273 57.8556V58.5172C166.273 58.9116 166.307 59.2702 166.375 59.5929C166.447 59.912 166.555 60.1864 166.698 60.4158C166.845 60.6453 167.032 60.8228 167.257 60.9483C167.483 61.0738 167.754 61.1366 168.07 61.1366C168.453 61.1366 168.763 61.0756 169 60.9537C169.24 60.8318 169.421 60.6543 169.543 60.4212C169.669 60.1846 169.751 59.8959 169.791 59.5553ZM176.615 60.9376V58.1622C176.615 57.9542 176.578 57.7749 176.502 57.6243C176.427 57.4737 176.312 57.3572 176.158 57.2747C176.007 57.1923 175.817 57.151 175.588 57.151C175.376 57.151 175.193 57.1869 175.039 57.2586C174.885 57.3303 174.765 57.4271 174.679 57.549C174.593 57.671 174.55 57.809 174.55 57.9632H173.259C173.259 57.7337 173.315 57.5114 173.426 57.2962C173.537 57.0811 173.698 56.8893 173.91 56.7207C174.121 56.5522 174.374 56.4195 174.668 56.3227C174.962 56.2259 175.292 56.1775 175.658 56.1775C176.095 56.1775 176.483 56.251 176.82 56.398C177.16 56.545 177.427 56.7673 177.621 57.065C177.818 57.359 177.917 57.7283 177.917 58.173V60.7601C177.917 61.0254 177.935 61.2639 177.971 61.4754C178.01 61.6834 178.066 61.8645 178.137 62.0187V62.1047H176.809C176.748 61.9649 176.699 61.7874 176.664 61.5723C176.631 61.3535 176.615 61.142 176.615 60.9376ZM176.803 58.5656L176.814 59.367H175.884C175.643 59.367 175.432 59.3903 175.249 59.4369C175.066 59.48 174.914 59.5445 174.792 59.6306C174.67 59.7166 174.578 59.8206 174.518 59.9425C174.457 60.0644 174.426 60.2025 174.426 60.3567C174.426 60.5109 174.462 60.6525 174.534 60.7816C174.605 60.9071 174.709 61.0057 174.846 61.0774C174.985 61.1491 175.154 61.185 175.351 61.185C175.617 61.185 175.848 61.1312 176.045 61.0236C176.246 60.9125 176.404 60.778 176.518 60.6202C176.633 60.4589 176.694 60.3065 176.701 60.1631L177.121 60.7386C177.078 60.8856 177.004 61.0434 176.9 61.2119C176.796 61.3804 176.66 61.5418 176.491 61.696C176.327 61.8466 176.128 61.9703 175.894 62.0671C175.665 62.1639 175.4 62.2123 175.098 62.2123C174.718 62.2123 174.379 62.137 174.082 61.9864C173.784 61.8322 173.551 61.626 173.383 61.3679C173.214 61.1061 173.13 60.8103 173.13 60.4804C173.13 60.172 173.187 59.8995 173.302 59.6628C173.42 59.4226 173.592 59.2218 173.818 59.0604C174.048 58.8991 174.327 58.7772 174.657 58.6947C174.987 58.6086 175.364 58.5656 175.787 58.5656H176.803ZM181.675 57.3931V62.1047H180.379V56.2851H181.616L181.675 57.3931ZM183.456 56.2474L183.445 57.4522C183.366 57.4379 183.28 57.4271 183.187 57.4199C183.097 57.4128 183.008 57.4092 182.918 57.4092C182.696 57.4092 182.5 57.4415 182.332 57.506C182.163 57.567 182.021 57.6566 181.907 57.7749C181.796 57.8897 181.709 58.0295 181.649 58.1945C181.588 58.3594 181.552 58.5441 181.541 58.7485L181.245 58.77C181.245 58.4042 181.281 58.0654 181.353 57.7534C181.424 57.4415 181.532 57.1672 181.675 56.9305C181.822 56.6938 182.005 56.5092 182.224 56.3765C182.446 56.2438 182.703 56.1775 182.993 56.1775C183.072 56.1775 183.156 56.1847 183.246 56.199C183.339 56.2133 183.409 56.2295 183.456 56.2474ZM188.812 60.8999V53.8432H190.113V62.1047H188.935L188.812 60.8999ZM185.025 59.2594V59.1465C185.025 58.7054 185.077 58.3038 185.181 57.9417C185.285 57.5759 185.436 57.2622 185.633 57.0004C185.83 56.7351 186.07 56.5325 186.354 56.3926C186.637 56.2492 186.956 56.1775 187.311 56.1775C187.663 56.1775 187.971 56.2456 188.236 56.3819C188.502 56.5181 188.728 56.7136 188.914 56.9681C189.1 57.2191 189.249 57.5203 189.36 57.8718C189.472 58.2196 189.55 58.6068 189.597 59.0335V59.3939C189.55 59.8099 189.472 60.1899 189.36 60.5342C189.249 60.8784 189.1 61.176 188.914 61.427C188.728 61.678 188.5 61.8717 188.231 62.0079C187.966 62.1442 187.655 62.2123 187.3 62.2123C186.949 62.2123 186.632 62.1388 186.348 61.9918C186.069 61.8448 185.83 61.6386 185.633 61.3732C185.436 61.1079 185.285 60.7959 185.181 60.4374C185.077 60.0752 185.025 59.6826 185.025 59.2594ZM186.321 59.1465V59.2594C186.321 59.5248 186.345 59.7722 186.391 60.0017C186.442 60.2312 186.519 60.4338 186.623 60.6095C186.727 60.7816 186.861 60.9179 187.026 61.0183C187.195 61.1151 187.395 61.1635 187.628 61.1635C187.923 61.1635 188.165 61.0989 188.355 60.9698C188.545 60.8408 188.693 60.6668 188.801 60.4481C188.912 60.2258 188.987 59.9784 189.027 59.7059V58.7323C189.005 58.5208 188.961 58.3236 188.892 58.1407C188.828 57.9578 188.74 57.7982 188.629 57.662C188.518 57.5221 188.38 57.4146 188.215 57.3393C188.053 57.2604 187.862 57.2209 187.639 57.2209C187.403 57.2209 187.202 57.2711 187.037 57.3715C186.872 57.4719 186.736 57.61 186.628 57.7857C186.524 57.9614 186.447 58.1658 186.397 58.3989C186.347 58.6319 186.321 58.8811 186.321 59.1465ZM195.835 60.5288C195.835 60.3997 195.803 60.2832 195.738 60.1792C195.674 60.0716 195.55 59.9748 195.367 59.8887C195.188 59.8027 194.923 59.7238 194.571 59.6521C194.263 59.584 193.98 59.5033 193.721 59.41C193.467 59.3132 193.248 59.1967 193.065 59.0604C192.882 58.9242 192.741 58.7628 192.64 58.5764C192.54 58.3899 192.49 58.1747 192.49 57.9309C192.49 57.6943 192.542 57.4701 192.646 57.2586C192.75 57.047 192.898 56.8606 193.092 56.6992C193.286 56.5379 193.521 56.4106 193.797 56.3173C194.076 56.2241 194.388 56.1775 194.733 56.1775C195.22 56.1775 195.638 56.26 195.986 56.4249C196.337 56.5863 196.606 56.8068 196.793 57.0865C196.979 57.3626 197.072 57.6745 197.072 58.0224H195.776C195.776 57.8682 195.737 57.7247 195.658 57.5921C195.582 57.4558 195.468 57.3464 195.313 57.264C195.159 57.1779 194.966 57.1349 194.733 57.1349C194.51 57.1349 194.326 57.1707 194.179 57.2425C194.035 57.3106 193.928 57.4002 193.856 57.5114C193.788 57.6225 193.754 57.7445 193.754 57.8771C193.754 57.9739 193.772 58.0618 193.807 58.1407C193.847 58.216 193.911 58.2859 194.001 58.3505C194.091 58.4114 194.213 58.4688 194.367 58.5226C194.525 58.5764 194.722 58.6283 194.958 58.6785C195.403 58.7718 195.785 58.8919 196.104 59.0389C196.427 59.1823 196.674 59.3688 196.846 59.5983C197.018 59.8242 197.105 60.1111 197.105 60.4589C197.105 60.717 197.049 60.9537 196.938 61.1689C196.83 61.3804 196.672 61.5651 196.464 61.7229C196.257 61.877 196.007 61.9972 195.717 62.0832C195.43 62.1693 195.107 62.2123 194.749 62.2123C194.222 62.2123 193.775 62.1191 193.409 61.9326C193.044 61.7426 192.766 61.5005 192.576 61.2065C192.389 60.9089 192.296 60.6005 192.296 60.2814H193.549C193.564 60.5216 193.63 60.7135 193.748 60.8569C193.87 60.9967 194.021 61.0989 194.2 61.1635C194.383 61.2244 194.571 61.2549 194.765 61.2549C194.998 61.2549 195.193 61.2244 195.351 61.1635C195.509 61.0989 195.629 61.0129 195.711 60.9053C195.794 60.7941 195.835 60.6686 195.835 60.5288Z" fill="white"/>
<rect x="126.612" y="89.5178" width="10.1893" height="10.1893" rx="3.44232" stroke="white" stroke-width="0.826158"/>
<path d="M134.323 92.6937C134.369 92.6493 134.406 92.5961 134.431 92.5374C134.456 92.4786 134.47 92.4154 134.47 92.3514C134.471 92.2874 134.459 92.2239 134.435 92.1647C134.41 92.1055 134.375 92.0516 134.329 92.0064C134.284 91.9611 134.23 91.9253 134.171 91.901C134.112 91.8768 134.048 91.8646 133.984 91.8651C133.92 91.8656 133.857 91.8789 133.798 91.9041C133.74 91.9293 133.686 91.966 133.642 92.012L131.711 93.9428L129.78 92.012C129.736 91.9647 129.682 91.9267 129.623 91.9004C129.564 91.874 129.5 91.8599 129.436 91.8587C129.371 91.8576 129.307 91.8695 129.247 91.8937C129.187 91.918 129.132 91.954 129.086 91.9998C129.041 92.0455 129.005 92.1001 128.98 92.1601C128.956 92.2201 128.944 92.2843 128.945 92.349C128.947 92.4137 128.961 92.4776 128.987 92.5367C129.013 92.5958 129.051 92.649 129.099 92.6931L131.028 94.6245L129.097 96.5553C129.012 96.6467 128.966 96.7675 128.968 96.8923C128.97 97.0172 129.021 97.1363 129.109 97.2246C129.198 97.3129 129.317 97.3634 129.441 97.3656C129.566 97.3678 129.687 97.3215 129.778 97.2364L131.711 95.3056L133.641 97.237C133.733 97.3221 133.854 97.3685 133.978 97.3663C134.103 97.3641 134.222 97.3135 134.311 97.2252C134.399 97.1369 134.449 97.0178 134.452 96.893C134.454 96.7681 134.408 96.6473 134.322 96.5559L132.393 94.6245L134.323 92.6937Z" fill="white"/>
<rect x="198.214" y="89.5178" width="10.1893" height="10.1893" rx="3.44232" stroke="white" stroke-width="0.826158"/>
<path d="M200.609 94.6125L202.923 96.5402L206.007 92.6848" stroke="white" stroke-width="1.10154" stroke-linecap="round"/>
</g>
<defs>
<filter id="filter0_dd_4053_34226" x="-1.03087" y="0.389049" width="335.8" height="139.409" filterUnits="userSpaceOnUse" color-interpolation-filters="sRGB">
<feFlood flood-opacity="0" result="BackgroundImageFix"/>
<feColorMatrix in="SourceAlpha" type="matrix" values="0 0 0 0 0 0 0 0 0 0 0 0 0 0 0 0 0 0 127 0" result="hardAlpha"/>
<feOffset dx="2.75386" dy="2.20309"/>
<feGaussianBlur stdDeviation="5.50772"/>
<feComposite in2="hardAlpha" operator="out"/>
<feColorMatrix type="matrix" values="0 0 0 0 0 0 0 0 0 0 0 0 0 0 0 0 0 0 0.41 0"/>
<feBlend mode="normal" in2="BackgroundImageFix" result="effect1_dropShadow_4053_34226"/>
<feColorMatrix in="SourceAlpha" type="matrix" values="0 0 0 0 0 0 0 0 0 0 0 0 0 0 0 0 0 0 127 0" result="hardAlpha"/>
<feOffset dx="-5.50772" dy="-5.50772"/>
<feGaussianBlur stdDeviation="8.26158"/>
<feComposite in2="hardAlpha" operator="out"/>
<feColorMatrix type="matrix" values="0 0 0 0 0.0916667 0 0 0 0 0.0758333 0 0 0 0 0.0626389 0 0 0 1 0"/>
<feBlend mode="normal" in2="effect1_dropShadow_4053_34226" result="effect2_dropShadow_4053_34226"/>
<feBlend mode="normal" in="SourceGraphic" in2="effect2_dropShadow_4053_34226" result="shape"/>
</filter>
</defs>
</svg>
