<svg width="20" height="24" viewBox="0 0 20 24" fill="none" xmlns="http://www.w3.org/2000/svg">
<g clip-path="url(#clip0_2242_102410)">
<path fill-rule="evenodd" clip-rule="evenodd" d="M3.23634 23.2197L0.140381 0L13.2208 2.32197C13.7768 2.4683 14.2917 2.58594 14.7657 2.69427C16.5484 3.1016 17.7544 3.37717 18.4065 4.55106C19.2321 6.0268 19.6449 7.8431 19.6449 9.99995C19.6449 12.1671 19.2321 13.9886 18.4065 15.4643C17.5809 16.9401 15.8524 17.6779 13.2208 17.6779H7.55521L8.63879 23.2197H3.23634ZM4.93912 4.79874L11.9984 6.03902C12.2985 6.11718 12.5763 6.18003 12.8322 6.23788C13.7942 6.45546 14.4451 6.60265 14.7971 7.2297C15.2426 8.01796 15.4654 8.98814 15.4654 10.1402C15.4654 11.2978 15.2426 12.2707 14.7971 13.059C14.3515 13.8472 13.4186 14.2415 11.9984 14.2415H8.77369L6.83038 14.0866L4.93912 4.79874Z" fill="white"/>
</g>
<defs>
<clipPath id="clip0_2242_102410">
<rect width="20" height="24" fill="white"/>
</clipPath>
</defs>
</svg>