<svg width="48" height="48" viewBox="0 0 48 48" fill="none" xmlns="http://www.w3.org/2000/svg">
<g clip-path="url(#clip0_387_815)">
<path d="M1.77778 32.8889C1.77778 26.6044 1.77778 23.46 3.73111 21.5089C5.68222 19.5555 8.82667 19.5555 15.1111 19.5555H32.8889C39.1733 19.5555 42.3178 19.5555 44.2689 21.5089C46.2222 23.46 46.2222 26.6044 46.2222 32.8889C46.2222 39.1733 46.2222 42.3178 44.2689 44.2689C42.3178 46.2222 39.1733 46.2222 32.8889 46.2222H15.1111C8.82667 46.2222 5.68222 46.2222 3.73111 44.2689C1.77778 42.3178 1.77778 39.1733 1.77778 32.8889Z" stroke="#8B8682" stroke-width="3.84"/>
<path d="M10.6667 19.5556V15.1111C10.6667 11.5749 12.0714 8.1835 14.5719 5.68301C17.0724 3.18253 20.4638 1.77777 24 1.77777C27.5362 1.77777 30.9276 3.18253 33.4281 5.68301C35.9286 8.1835 37.3333 11.5749 37.3333 15.1111V19.5556" stroke="#8B8682" stroke-width="3.84" stroke-linecap="round"/>
<path d="M15.1111 32.8889H15.1311M23.98 32.8889H24M32.8689 32.8889H32.8889" stroke="#8B8682" stroke-width="3.84" stroke-linecap="round" stroke-linejoin="round"/>
</g>
<defs>
<clipPath id="clip0_387_815">
<rect width="48" height="48" fill="white"/>
</clipPath>
</defs>
</svg>
