<svg width="26" height="21" viewBox="0 0 26 21" fill="none" xmlns="http://www.w3.org/2000/svg">
<g clip-path="url(#clip0_3439_2858)">
<path d="M20.2 7.80005H12.1C11.1059 7.80005 10.3 8.60594 10.3 9.60005V17.7C10.3 18.6942 11.1059 19.5 12.1 19.5H20.2C21.1942 19.5 22 18.6942 22 17.7V9.60005C22 8.60594 21.1942 7.80005 20.2 7.80005Z" stroke="url(#paint0_linear_3439_2858)" stroke-width="1.35" stroke-linecap="round" stroke-linejoin="round"/>
<path d="M6.7 13.2H5.8C5.32261 13.2 4.86477 13.0104 4.52721 12.6728C4.18964 12.3352 4 11.8774 4 11.4V3.3C4 2.82261 4.18964 2.36477 4.52721 2.02721C4.86477 1.68964 5.32261 1.5 5.8 1.5H13.9C14.3774 1.5 14.8352 1.68964 15.1728 2.02721C15.5104 2.36477 15.7 2.82261 15.7 3.3V4.2" stroke="url(#paint1_linear_3439_2858)" stroke-width="1.35" stroke-linecap="round" stroke-linejoin="round" stroke-dasharray="4 4"/>
<path d="M13.5 15.5H18.5" stroke="url(#paint2_linear_3439_2858)" stroke-width="1.3" stroke-linecap="round"/>
<path d="M13.5 11.5H18.5" stroke="url(#paint3_linear_3439_2858)" stroke-width="1.3" stroke-linecap="round"/>
</g>
<defs>
<linearGradient id="paint0_linear_3439_2858" x1="10.3224" y1="13.65" x2="22.0224" y2="13.65" gradientUnits="userSpaceOnUse">
<stop stop-color="#E9B873"/>
<stop offset="0.369792" stop-color="#FEDD8F"/>
<stop offset="1" stop-color="#B78D51"/>
</linearGradient>
<linearGradient id="paint1_linear_3439_2858" x1="4.02233" y1="7.35" x2="15.7223" y2="7.35" gradientUnits="userSpaceOnUse">
<stop stop-color="#E9B873"/>
<stop offset="0.369792" stop-color="#FEDD8F"/>
<stop offset="1" stop-color="#B78D51"/>
</linearGradient>
<linearGradient id="paint2_linear_3439_2858" x1="13.5095" y1="16" x2="18.5095" y2="16" gradientUnits="userSpaceOnUse">
<stop stop-color="#E9B873"/>
<stop offset="0.369792" stop-color="#FEDD8F"/>
<stop offset="1" stop-color="#B78D51"/>
</linearGradient>
<linearGradient id="paint3_linear_3439_2858" x1="13.5095" y1="12" x2="18.5095" y2="12" gradientUnits="userSpaceOnUse">
<stop stop-color="#E9B873"/>
<stop offset="0.369792" stop-color="#FEDD8F"/>
<stop offset="1" stop-color="#B78D51"/>
</linearGradient>
<clipPath id="clip0_3439_2858">
<rect width="25" height="20" fill="white" transform="translate(0.5 0.5)"/>
</clipPath>
</defs>
</svg>