<svg width="14" height="14" viewBox="0 0 14 14" fill="none" xmlns="http://www.w3.org/2000/svg">
<rect width="14" height="14" rx="4" fill="url(#paint0_linear_3049_3800)"/>
<path d="M10.4286 7.57143H7.57143V10.4286C7.57143 10.5801 7.51123 10.7255 7.40406 10.8326C7.2969 10.9398 7.15155 11 7 11C6.84845 11 6.7031 10.9398 6.59594 10.8326C6.48878 10.7255 6.42857 10.5801 6.42857 10.4286V7.57143H3.57143C3.41988 7.57143 3.27453 7.51122 3.16737 7.40406C3.0602 7.2969 3 7.15155 3 7C3 6.84845 3.0602 6.7031 3.16737 6.59594C3.27453 6.48878 3.41988 6.42857 3.57143 6.42857H6.42857V3.57143C6.42857 3.41988 6.48878 3.27453 6.59594 3.16737C6.7031 3.0602 6.84845 3 7 3C7.15155 3 7.2969 3.0602 7.40406 3.16737C7.51123 3.27453 7.57143 3.41988 7.57143 3.57143V6.42857H10.4286C10.5801 6.42857 10.7255 6.48878 10.8326 6.59594C10.9398 6.7031 11 6.84845 11 7C11 7.15155 10.9398 7.2969 10.8326 7.40406C10.7255 7.51122 10.5801 7.57143 10.4286 7.57143Z" fill="black"/>
<defs>
<linearGradient id="paint0_linear_3049_3800" x1="0.0267177" y1="7" x2="14.0267" y2="7" gradientUnits="userSpaceOnUse">
<stop stop-color="#E9B873"/>
<stop offset="0.369792" stop-color="#FEDD8F"/>
<stop offset="1" stop-color="#B78D51"/>
</linearGradient>
</defs>
</svg>