<svg width="33" height="33" viewBox="0 0 33 33" fill="none" xmlns="http://www.w3.org/2000/svg">
<g clip-path="url(#clip0_1208_2615)">
<path d="M25.2278 10.5293C24.643 10.1951 23.891 10.1951 23.2226 10.5293L18.5437 13.2865L15.3688 15.041L10.7735 17.7982C10.1886 18.1324 9.43669 18.1324 8.76828 17.7982L5.17559 15.6259C4.59074 15.2917 4.17298 14.6233 4.17298 13.8713V9.69377C4.17298 9.02536 4.50719 8.35695 5.17559 7.9392L8.76828 5.85042C9.35314 5.51622 10.1051 5.51622 10.7735 5.85042L14.3662 8.02275C14.951 8.35695 15.3688 9.02536 15.3688 9.77732V12.5345L18.5437 10.6964V7.85565C18.5437 7.18724 18.2095 6.51883 17.5411 6.10108L10.8571 2.17418C10.2722 1.83998 9.52024 1.83998 8.85183 2.17418L2.00066 6.18463C1.33225 6.51883 0.998047 7.18724 0.998047 7.85565V15.7094C0.998047 16.3778 1.33225 17.0462 2.00066 17.464L8.76828 21.3909C9.35314 21.7251 10.1051 21.7251 10.7735 21.3909L15.3688 18.7173L18.5437 16.8791L23.139 14.2055C23.7239 13.8713 24.4759 13.8713 25.1443 14.2055L28.737 16.2943C29.3218 16.6285 29.7396 17.2969 29.7396 18.0489V22.2264C29.7396 22.8948 29.4054 23.5632 28.737 23.981L25.2278 26.0697C24.643 26.404 23.891 26.404 23.2226 26.0697L19.6299 23.981C19.045 23.6468 18.6273 22.9784 18.6273 22.2264V19.5528L15.4524 21.3909V24.1481C15.4524 24.8165 15.7866 25.4849 16.455 25.9026L23.2226 29.8295C23.8074 30.1637 24.5594 30.1637 25.2278 29.8295L31.9954 25.9026C32.5803 25.5684 32.998 24.9 32.998 24.1481V16.2107C32.998 15.5423 32.6638 14.8739 31.9954 14.4562L25.2278 10.5293Z" fill="#8247E5"/>
</g>
<defs>
<clipPath id="clip0_1208_2615">
<rect width="32" height="32" fill="white" transform="translate(0.998047 0.00186157)"/>
</clipPath>
</defs>
</svg>
