<svg width="22" height="22" viewBox="0 0 22 22" fill="none" xmlns="http://www.w3.org/2000/svg">
<g clip-path="url(#clip0_1432_19719)">
<path d="M4.3344 1.99071C4.23468 1.88114 4.11435 1.79229 3.98029 1.72922C3.84623 1.66615 3.70105 1.6301 3.55306 1.62314C3.25418 1.60907 2.96194 1.71432 2.74065 1.91571C2.51936 2.11711 2.38714 2.39817 2.37308 2.69706C2.35901 2.99594 2.46425 3.28817 2.66565 3.50946L5.07503 6.16259C4.02503 6.27509 2.7969 6.67822 1.54065 7.69071C1.33338 7.85401 1.1633 8.05962 1.04176 8.29383C0.920221 8.52805 0.850012 8.78548 0.835818 9.04897C0.821623 9.31246 0.863768 9.57595 0.959442 9.82187C1.05512 10.0678 1.20212 10.2905 1.39065 10.4751L5.65628 14.7501L2.70315 17.7032C2.59827 17.8077 2.51506 17.9319 2.45828 18.0687C2.40149 18.2054 2.37227 18.352 2.37227 18.5001C2.37227 18.6482 2.40149 18.7948 2.45828 18.9315C2.51506 19.0683 2.59827 19.1924 2.70315 19.297C2.91545 19.5065 3.20174 19.624 3.50003 19.624C3.79832 19.624 4.08461 19.5065 4.2969 19.297L7.25003 16.3438L11.5063 20.5907C11.6787 20.7663 11.8844 20.9057 12.1114 21.0007C12.3384 21.0957 12.5821 21.1444 12.8282 21.1438H12.9594C13.2276 21.1268 13.4888 21.0518 13.7251 20.9239C13.9615 20.796 14.1672 20.6184 14.3282 20.4032C14.919 19.6233 15.3724 18.7482 15.6688 17.8157L17.6657 20.0188C17.8679 20.2387 18.1487 20.3698 18.4471 20.3839C18.7455 20.3979 19.0374 20.2937 19.2594 20.0938C19.4792 19.8916 19.6104 19.6108 19.6244 19.3124C19.6385 19.014 19.5343 18.7221 19.3344 18.5001L4.3344 1.99071ZM12.7813 18.6876L3.2844 9.19071C5.26253 7.82196 6.98753 8.57197 7.12815 8.63759C7.22019 8.68432 7.31787 8.71898 7.41878 8.74072L13.6063 15.5376C13.8688 16.7282 13.2969 17.9188 12.7813 18.6876ZM21.5657 8.00009C21.5662 8.24616 21.5175 8.48986 21.4225 8.71686C21.3275 8.94386 21.1881 9.14959 21.0125 9.32197L17.6657 12.6782C17.4534 12.8878 17.1671 13.0053 16.8688 13.0053C16.5705 13.0053 16.2842 12.8878 16.0719 12.6782C15.967 12.5737 15.8838 12.4495 15.827 12.3128C15.7702 12.176 15.741 12.0294 15.741 11.8813C15.741 11.7333 15.7702 11.5867 15.827 11.4499C15.8838 11.3132 15.967 11.189 16.0719 11.0845L19.1563 8.00009L14 2.84384L11.2344 5.60946C11.1298 5.71411 11.0055 5.79712 10.8688 5.85376C10.7321 5.91039 10.5855 5.93954 10.4375 5.93954C10.1386 5.93954 9.852 5.82081 9.64065 5.60946C9.53601 5.50482 9.453 5.38058 9.39636 5.24386C9.33973 5.10713 9.31058 4.96058 9.31058 4.81259C9.31058 4.5137 9.42931 4.22706 9.64065 4.01571L12.6782 0.98759C12.8515 0.813547 13.0575 0.675447 13.2843 0.581215C13.5112 0.486984 13.7544 0.438477 14 0.438477C14.2457 0.438477 14.4889 0.486984 14.7157 0.581215C14.9426 0.675447 15.1486 0.813547 15.3219 0.98759L21.0125 6.67822C21.1881 6.85059 21.3275 7.05632 21.4225 7.28332C21.5175 7.51032 21.5662 7.75402 21.5657 8.00009Z" fill="#8B8682"/>
</g>
<defs>
<clipPath id="clip0_1432_19719">
<rect width="22" height="22" fill="white"/>
</clipPath>
</defs>
</svg>