<svg width="15" height="12" viewBox="0 0 15 12" fill="none" xmlns="http://www.w3.org/2000/svg">
<path d="M1.5 5.33333V0H6.83333V5.33333H1.5ZM2.83333 4H5.5V1.33333H2.83333V4ZM1.5 12V6.66667H6.83333V12H1.5ZM2.83333 10.6667H5.5V8H2.83333V10.6667ZM8.16667 5.33333V0H13.5V5.33333H8.16667ZM9.5 4H12.1667V1.33333H9.5V4ZM12.1667 12V10.6667H13.5V12H12.1667ZM8.16667 8V6.66667H9.5V8H8.16667ZM9.5 9.33333V8H10.8333V9.33333H9.5ZM8.16667 10.6667V9.33333H9.5V10.6667H8.16667ZM9.5 12V10.6667H10.8333V12H9.5ZM10.8333 10.6667V9.33333H12.1667V10.6667H10.8333ZM10.8333 8V6.66667H12.1667V8H10.8333ZM12.1667 9.33333V8H13.5V9.33333H12.1667Z" fill="#CCC4BE"/>
</svg>
