<svg width="56" height="49" viewBox="0 0 56 49" fill="none" xmlns="http://www.w3.org/2000/svg">
<path d="M2.912 10.164V42.42C2.912 43.3705 3.2896 44.2821 3.96173 44.9542C4.63386 45.6264 5.54547 46.004 6.496 46.004H49.504C50.4545 46.004 51.3661 45.6264 52.0383 44.9542C52.7104 44.2821 53.088 43.3705 53.088 42.42V13.748C53.088 12.7974 52.7104 11.8858 52.0383 11.2137C51.3661 10.5416 50.4545 10.164 49.504 10.164H11.872M2.912 10.164V6.57997C2.912 5.62944 3.2896 4.71783 3.96173 4.0457C4.63386 3.37357 5.54547 2.99597 6.496 2.99597H35.168C36.1185 2.99597 37.0301 3.37357 37.7023 4.0457C38.3744 4.71783 38.752 5.62944 38.752 6.57997V10.164H11.872M2.912 10.164H11.872" stroke="url(#paint0_linear_1_2334)" stroke-width="3"/>
<path fill-rule="evenodd" clip-rule="evenodd" d="M26.9121 18.746C24.4589 18.746 22.1061 19.7205 20.3714 21.4552C18.6367 23.1899 17.6621 25.5427 17.6621 27.996C17.6621 30.4492 18.6367 32.802 20.3714 34.5367C22.1061 36.2714 24.4589 37.246 26.9121 37.246C29.368 37.246 31.7199 36.2801 33.4857 34.5759L33.6688 34.3991L31.807 32.5373L31.6304 32.7243C31.0241 33.3659 30.2927 33.8763 29.4813 34.224C28.6699 34.5718 27.7949 34.7494 26.9121 34.746C20.895 34.746 17.8863 27.4753 22.1389 23.2227C26.3318 19.0298 33.4596 21.9055 33.6579 27.746H30.3086L34.8086 32.246H35.1175L39.505 27.746H36.1587C36.0949 25.3834 35.1285 23.1309 33.4528 21.4552C31.7181 19.7205 29.3654 18.746 26.9121 18.746Z" fill="url(#paint1_linear_1_2334)"/>
<defs>
<linearGradient id="paint0_linear_1_2334" x1="3.00776" y1="24.5" x2="53.1838" y2="24.5" gradientUnits="userSpaceOnUse">
<stop stop-color="#E9B873"/>
<stop offset="0.369792" stop-color="#FEDD8F"/>
<stop offset="1" stop-color="#B78D51"/>
</linearGradient>
<linearGradient id="paint1_linear_1_2334" x1="17.7038" y1="27.996" x2="39.5467" y2="27.996" gradientUnits="userSpaceOnUse">
<stop stop-color="#E9B873"/>
<stop offset="0.369792" stop-color="#FEDD8F"/>
<stop offset="1" stop-color="#B78D51"/>
</linearGradient>
</defs>
</svg>
