<svg width="335" height="140" viewBox="0 0 335 140" fill="none" xmlns="http://www.w3.org/2000/svg">
<g filter="url(#filter0_dd_3358_34031)">
<path d="M53.1695 70.943H22.1016V81.466H53.1695V70.943Z" fill="#433E39"/>
<g style="mix-blend-mode:multiply">
<path d="M53.1337 70.8436H46.2236V81.3115H53.1337V70.8436Z" fill="#535762"/>
</g>
<path d="M98.5084 67.1205H71.0835C69.8603 67.1205 68.8687 68.1121 68.8687 69.3353V82.8148C68.8687 84.038 69.8603 85.0296 71.0835 85.0296H98.5084C99.7316 85.0296 100.723 84.038 100.723 82.8148V69.3353C100.723 68.1121 99.7316 67.1205 98.5084 67.1205Z" fill="#776E67"/>
<g style="mix-blend-mode:multiply">
<path d="M86.4671 67.1205H71.0835C69.8603 67.1205 68.8687 68.1121 68.8687 69.3353V82.8148C68.8687 84.038 69.8603 85.0296 71.0835 85.0296H86.4671C87.6903 85.0296 88.6819 84.038 88.6819 82.8148V69.3353C88.6819 68.1121 87.6903 67.1205 86.4671 67.1205Z" fill="#535762"/>
</g>
<path d="M80.8952 61.9183H54.1567C50.8357 61.9183 48.1436 64.6105 48.1436 67.9315V84.2221C48.1436 87.5431 50.8357 90.2352 54.1567 90.2352H80.8952C84.2161 90.2352 86.9083 87.5431 86.9083 84.2221V67.9315C86.9083 64.6105 84.2161 61.9183 80.8952 61.9183Z" fill="#433E39"/>
<path fill-rule="evenodd" clip-rule="evenodd" d="M142.03 22.4202L254.262 22.4202C258.802 22.4202 263.212 22.9536 267.428 23.9585C291.386 28.4937 309.505 49.5398 309.505 74.8169C309.505 75.5742 309.489 76.3276 309.457 77.0769H310.352C311.805 77.0769 312.987 75.8943 312.987 74.4411C312.987 72.9879 311.805 71.8054 310.352 71.8054H309.445C309.274 68.1474 308.748 64.5846 307.891 61.1521C308.663 63.1866 310.352 63.7878 310.352 63.7878L310.347 63.7929C316.23 63.7929 321 68.5633 321 74.4461C321 80.329 316.23 85.0994 310.347 85.0994C310.347 85.0994 308.627 85.7073 307.868 87.7804C307.788 88.0932 307.704 88.4048 307.618 88.7153C307.606 88.78 307.595 88.8458 307.586 88.9128L307.566 88.9011C301.431 110.644 281.447 126.58 257.742 126.58L140.451 126.58C123.784 126.58 108.958 118.7 99.4921 106.463C93.9215 99.7382 90.0578 91.6617 88.5264 82.8316V65.7354C92.7888 41.159 115.118 22.4202 142.03 22.4202Z" fill="#34302D"/>
<path d="M254.439 50.9006C267.628 50.9006 278.361 61.629 278.361 74.8228C278.361 88.0166 267.633 98.7451 254.439 98.7451C241.245 98.7451 230.517 88.0166 230.517 74.8228C230.517 61.629 241.245 50.9006 254.439 50.9006ZM254.439 42.8831C236.8 42.8831 222.499 57.1843 222.499 74.8228C222.499 92.4614 236.8 106.763 254.439 106.763C272.077 106.763 286.379 92.4614 286.379 74.8228C286.379 57.1843 272.077 42.8831 254.439 42.8831Z" fill="#1D1915"/>
<path d="M254.438 98.7395C267.65 98.7395 278.361 88.0291 278.361 74.8172C278.361 61.6053 267.65 50.8949 254.438 50.8949C241.226 50.8949 230.516 61.6053 230.516 74.8172C230.516 88.0291 241.226 98.7395 254.438 98.7395Z" fill="#34302D"/>
<path d="M123.206 53.1644H125.976C126.571 53.1644 127.079 53.2541 127.498 53.4334C127.918 53.6127 128.239 53.878 128.461 54.2294C128.687 54.5772 128.8 55.0075 128.8 55.5203C128.8 55.9111 128.728 56.2554 128.585 56.553C128.441 56.8506 128.239 57.1016 127.977 57.306C127.715 57.5068 127.403 57.6628 127.041 57.7739L126.632 57.9729H124.142L124.131 56.9026H125.998C126.32 56.9026 126.589 56.8452 126.804 56.7305C127.019 56.6157 127.181 56.4597 127.288 56.2625C127.4 56.0617 127.455 55.8358 127.455 55.5848C127.455 55.3123 127.401 55.0756 127.294 54.8748C127.19 54.6705 127.028 54.5145 126.81 54.4069C126.591 54.2957 126.313 54.2402 125.976 54.2402H124.556V60.9957H123.206V53.1644ZM127.676 60.9957L125.836 57.4781L127.251 57.4727L129.117 60.9258V60.9957H127.676ZM133.683 61.1033C133.252 61.1033 132.863 61.0334 132.515 60.8935C132.171 60.7501 131.877 60.5511 131.633 60.2965C131.393 60.0419 131.208 59.7425 131.079 59.3983C130.95 59.054 130.886 58.6829 130.886 58.2849V58.0698C130.886 57.6144 130.952 57.202 131.085 56.8327C131.217 56.4633 131.402 56.1478 131.639 55.886C131.875 55.6207 132.155 55.4181 132.478 55.2782C132.8 55.1384 133.15 55.0685 133.527 55.0685C133.942 55.0685 134.306 55.1384 134.618 55.2782C134.93 55.4181 135.189 55.6153 135.393 55.8699C135.601 56.1209 135.755 56.4203 135.855 56.7681C135.959 57.1159 136.011 57.4996 136.011 57.9192V58.4731H131.515V57.5426H134.731V57.4405C134.724 57.2074 134.678 56.9886 134.592 56.7843C134.509 56.5799 134.382 56.4149 134.21 56.2894C134.038 56.1639 133.808 56.1012 133.521 56.1012C133.306 56.1012 133.114 56.1478 132.946 56.241C132.781 56.3307 132.643 56.4615 132.531 56.6337C132.42 56.8058 132.334 57.0137 132.273 57.2576C132.216 57.4978 132.187 57.7685 132.187 58.0698V58.2849C132.187 58.5395 132.221 58.7761 132.289 58.9949C132.361 59.21 132.465 59.3983 132.601 59.5596C132.738 59.721 132.903 59.8483 133.096 59.9415C133.29 60.0312 133.51 60.076 133.758 60.076C134.07 60.076 134.348 60.0132 134.592 59.8877C134.835 59.7622 135.047 59.5847 135.226 59.3552L135.909 60.0168C135.784 60.1997 135.621 60.3754 135.42 60.5439C135.219 60.7089 134.973 60.8433 134.683 60.9473C134.396 61.0513 134.063 61.1033 133.683 61.1033ZM141.389 59.4198C141.389 59.2907 141.357 59.1742 141.292 59.0702C141.228 58.9626 141.104 58.8658 140.921 58.7797C140.742 58.6937 140.476 58.6148 140.125 58.5431C139.817 58.4749 139.533 58.3943 139.275 58.301C139.021 58.2042 138.802 58.0877 138.619 57.9514C138.436 57.8152 138.295 57.6538 138.194 57.4673C138.094 57.2809 138.044 57.0657 138.044 56.8219C138.044 56.5853 138.096 56.3611 138.199 56.1496C138.303 55.938 138.452 55.7516 138.646 55.5902C138.84 55.4288 139.074 55.3016 139.351 55.2083C139.63 55.1151 139.942 55.0685 140.286 55.0685C140.774 55.0685 141.192 55.1509 141.54 55.3159C141.891 55.4773 142.16 55.6978 142.346 55.9775C142.533 56.2536 142.626 56.5655 142.626 56.9133H141.33C141.33 56.7592 141.29 56.6157 141.212 56.4831C141.136 56.3468 141.021 56.2374 140.867 56.155C140.713 56.0689 140.519 56.0259 140.286 56.0259C140.064 56.0259 139.879 56.0617 139.732 56.1334C139.589 56.2016 139.481 56.2912 139.41 56.4024C139.342 56.5135 139.307 56.6355 139.307 56.7681C139.307 56.8649 139.325 56.9528 139.361 57.0317C139.401 57.107 139.465 57.1769 139.555 57.2414C139.645 57.3024 139.766 57.3598 139.921 57.4136C140.078 57.4673 140.276 57.5193 140.512 57.5695C140.957 57.6628 141.339 57.7829 141.658 57.9299C141.981 58.0733 142.228 58.2598 142.4 58.4893C142.572 58.7152 142.658 59.002 142.658 59.3499C142.658 59.608 142.603 59.8447 142.492 60.0598C142.384 60.2714 142.226 60.4561 142.018 60.6138C141.81 60.768 141.561 60.8882 141.271 60.9742C140.984 61.0603 140.661 61.1033 140.303 61.1033C139.775 61.1033 139.329 61.0101 138.963 60.8236C138.598 60.6336 138.32 60.3915 138.13 60.0975C137.943 59.7999 137.85 59.4915 137.85 59.1724H139.103C139.117 59.4126 139.184 59.6045 139.302 59.7479C139.424 59.8877 139.575 59.9899 139.754 60.0545C139.937 60.1154 140.125 60.1459 140.319 60.1459C140.552 60.1459 140.747 60.1154 140.905 60.0545C141.063 59.9899 141.183 59.9039 141.265 59.7963C141.348 59.6851 141.389 59.5596 141.389 59.4198ZM147.563 55.176V56.1227H144.282V55.176H147.563ZM145.228 53.7507H146.525V59.3875C146.525 59.5668 146.55 59.7049 146.6 59.8017C146.654 59.8949 146.727 59.9577 146.82 59.9899C146.914 60.0222 147.023 60.0383 147.148 60.0383C147.238 60.0383 147.324 60.033 147.407 60.0222C147.489 60.0114 147.555 60.0007 147.606 59.9899L147.611 60.9796C147.503 61.0119 147.378 61.0405 147.235 61.0656C147.095 61.0908 146.933 61.1033 146.75 61.1033C146.453 61.1033 146.189 61.0513 145.96 60.9473C145.73 60.8397 145.551 60.6658 145.422 60.4256C145.293 60.1853 145.228 59.8662 145.228 59.4682V53.7507ZM149.288 58.1504V58.0267C149.288 57.6072 149.349 57.2181 149.471 56.8596C149.593 56.4974 149.769 56.1836 149.998 55.9183C150.231 55.6494 150.514 55.4414 150.848 55.2944C151.185 55.1438 151.565 55.0685 151.988 55.0685C152.415 55.0685 152.795 55.1438 153.128 55.2944C153.465 55.4414 153.751 55.6494 153.984 55.9183C154.217 56.1836 154.394 56.4974 154.516 56.8596C154.638 57.2181 154.699 57.6072 154.699 58.0267V58.1504C154.699 58.57 154.638 58.959 154.516 59.3176C154.394 59.6762 154.217 59.9899 153.984 60.2589C153.751 60.5242 153.467 60.7322 153.134 60.8828C152.8 61.0298 152.422 61.1033 151.999 61.1033C151.572 61.1033 151.19 61.0298 150.853 60.8828C150.52 60.7322 150.237 60.5242 150.003 60.2589C149.77 59.9899 149.593 59.6762 149.471 59.3176C149.349 58.959 149.288 58.57 149.288 58.1504ZM150.584 58.0267V58.1504C150.584 58.4122 150.611 58.6596 150.665 58.8927C150.719 59.1258 150.803 59.3301 150.918 59.5058C151.033 59.6815 151.18 59.8196 151.359 59.92C151.538 60.0204 151.751 60.0706 151.999 60.0706C152.239 60.0706 152.447 60.0204 152.623 59.92C152.802 59.8196 152.949 59.6815 153.064 59.5058C153.179 59.3301 153.263 59.1258 153.317 58.8927C153.374 58.6596 153.403 58.4122 153.403 58.1504V58.0267C153.403 57.7685 153.374 57.5247 153.317 57.2952C153.263 57.0622 153.177 56.856 153.058 56.6767C152.944 56.4974 152.797 56.3576 152.617 56.2572C152.442 56.1532 152.232 56.1012 151.988 56.1012C151.744 56.1012 151.533 56.1532 151.353 56.2572C151.178 56.3576 151.033 56.4974 150.918 56.6767C150.803 56.856 150.719 57.0622 150.665 57.2952C150.611 57.5247 150.584 57.7685 150.584 58.0267ZM158.189 56.284V60.9957H156.892V55.176H158.129L158.189 56.284ZM159.969 55.1384L159.958 56.3432C159.879 56.3289 159.793 56.3181 159.7 56.3109C159.61 56.3038 159.521 56.3002 159.431 56.3002C159.209 56.3002 159.013 56.3325 158.845 56.397C158.676 56.458 158.535 56.5476 158.42 56.6659C158.309 56.7807 158.223 56.9205 158.162 57.0855C158.101 57.2504 158.065 57.4351 158.054 57.6395L157.758 57.661C157.758 57.2952 157.794 56.9564 157.866 56.6444C157.938 56.3325 158.045 56.0581 158.189 55.8215C158.336 55.5848 158.519 55.4002 158.737 55.2675C158.96 55.1348 159.216 55.0685 159.506 55.0685C159.585 55.0685 159.67 55.0756 159.759 55.09C159.852 55.1043 159.922 55.1205 159.969 55.1384ZM164.341 61.1033C163.91 61.1033 163.521 61.0334 163.174 60.8935C162.829 60.7501 162.535 60.5511 162.291 60.2965C162.051 60.0419 161.867 59.7425 161.737 59.3983C161.608 59.054 161.544 58.6829 161.544 58.2849V58.0698C161.544 57.6144 161.61 57.202 161.743 56.8327C161.876 56.4633 162.06 56.1478 162.297 55.886C162.533 55.6207 162.813 55.4181 163.136 55.2782C163.459 55.1384 163.808 55.0685 164.185 55.0685C164.601 55.0685 164.965 55.1384 165.277 55.2782C165.589 55.4181 165.847 55.6153 166.051 55.8699C166.259 56.1209 166.413 56.4203 166.514 56.7681C166.618 57.1159 166.67 57.4996 166.67 57.9192V58.4731H162.173V57.5426H165.39V57.4405C165.382 57.2074 165.336 56.9886 165.25 56.7843C165.167 56.5799 165.04 56.4149 164.868 56.2894C164.696 56.1639 164.466 56.1012 164.179 56.1012C163.964 56.1012 163.772 56.1478 163.604 56.241C163.439 56.3307 163.301 56.4615 163.19 56.6337C163.079 56.8058 162.992 57.0137 162.932 57.2576C162.874 57.4978 162.845 57.7685 162.845 58.0698V58.2849C162.845 58.5395 162.88 58.7761 162.948 58.9949C163.019 59.21 163.123 59.3983 163.26 59.5596C163.396 59.721 163.561 59.8483 163.754 59.9415C163.948 60.0312 164.169 60.076 164.416 60.076C164.728 60.076 165.006 60.0132 165.25 59.8877C165.494 59.7622 165.705 59.5847 165.884 59.3552L166.567 60.0168C166.442 60.1997 166.279 60.3754 166.078 60.5439C165.877 60.7089 165.632 60.8433 165.341 60.9473C165.054 61.0513 164.721 61.1033 164.341 61.1033ZM174.208 59.7049L175.553 55.176H176.381L176.155 56.5315L174.8 60.9957H174.058L174.208 59.7049ZM173.418 55.176L174.467 59.7264L174.553 60.9957H173.724L172.148 55.176H173.418ZM177.64 59.6726L178.656 55.176H179.92L178.35 60.9957H177.522L177.64 59.6726ZM176.521 55.176L177.85 59.6511L178.016 60.9957H177.274L175.903 56.5261L175.677 55.176H176.521ZM185.185 59.8286V57.0532C185.185 56.8452 185.147 56.6659 185.072 56.5153C184.997 56.3647 184.882 56.2482 184.728 56.1657C184.577 56.0832 184.387 56.042 184.158 56.042C183.946 56.042 183.763 56.0779 183.609 56.1496C183.455 56.2213 183.335 56.3181 183.249 56.44C183.163 56.5619 183.12 56.7 183.12 56.8542H181.829C181.829 56.6247 181.884 56.4024 181.996 56.1872C182.107 55.9721 182.268 55.7802 182.48 55.6117C182.691 55.4432 182.944 55.3105 183.238 55.2137C183.532 55.1169 183.862 55.0685 184.228 55.0685C184.665 55.0685 185.052 55.142 185.389 55.289C185.73 55.436 185.997 55.6583 186.191 55.956C186.388 56.25 186.487 56.6193 186.487 57.0639V59.6511C186.487 59.9164 186.505 60.1549 186.54 60.3664C186.58 60.5744 186.636 60.7555 186.707 60.9097V60.9957H185.379C185.318 60.8559 185.269 60.6784 185.233 60.4632C185.201 60.2445 185.185 60.033 185.185 59.8286ZM185.373 57.4566L185.384 58.258L184.454 58.258C184.213 58.258 184.002 58.2813 183.819 58.3279C183.636 58.371 183.484 58.4355 183.362 58.5216C183.24 58.6076 183.148 58.7116 183.087 58.8335C183.026 58.9554 182.996 59.0935 182.996 59.2477C182.996 59.4019 183.032 59.5435 183.104 59.6726C183.175 59.7981 183.279 59.8967 183.415 59.9684C183.555 60.0401 183.724 60.076 183.921 60.076C184.186 60.076 184.418 60.0222 184.615 59.9146C184.816 59.8035 184.974 59.669 185.088 59.5112C185.203 59.3499 185.264 59.1975 185.271 59.054L185.691 59.6296C185.648 59.7766 185.574 59.9343 185.47 60.1029C185.366 60.2714 185.23 60.4328 185.061 60.587C184.896 60.7376 184.697 60.8613 184.464 60.9581C184.235 61.0549 183.969 61.1033 183.668 61.1033C183.288 61.1033 182.949 61.028 182.652 60.8774C182.354 60.7232 182.121 60.517 181.953 60.2589C181.784 59.9971 181.7 59.7013 181.7 59.3714C181.7 59.063 181.757 58.7905 181.872 58.5538C181.99 58.3136 182.162 58.1128 182.388 57.9514C182.618 57.7901 182.897 57.6681 183.227 57.5857C183.557 57.4996 183.934 57.4566 184.357 57.4566L185.373 57.4566ZM190.331 52.7342V60.9957H189.03V52.7342H190.331ZM194.241 52.7342V60.9957L192.939 60.9957V52.7342H194.241ZM199.328 61.1033C198.897 61.1033 198.508 61.0334 198.16 60.8935C197.816 60.7501 197.522 60.5511 197.278 60.2965C197.038 60.0419 196.853 59.7425 196.724 59.3983C196.595 59.054 196.531 58.6829 196.531 58.2849V58.0698C196.531 57.6144 196.597 57.202 196.73 56.8327C196.862 56.4633 197.047 56.1478 197.284 55.886C197.52 55.6207 197.8 55.4181 198.123 55.2782C198.446 55.1384 198.795 55.0685 199.172 55.0685C199.588 55.0685 199.952 55.1384 200.264 55.2782C200.575 55.4181 200.834 55.6153 201.038 55.8699C201.246 56.1209 201.4 56.4203 201.501 56.7681C201.605 57.1159 201.657 57.4996 201.657 57.9192V58.4731H197.16V57.5426H200.376V57.4405C200.369 57.2074 200.323 56.9886 200.237 56.7843C200.154 56.5799 200.027 56.4149 199.855 56.2894C199.683 56.1639 199.453 56.1012 199.166 56.1012C198.951 56.1012 198.759 56.1478 198.591 56.241C198.426 56.3307 198.288 56.4615 198.177 56.6337C198.065 56.8058 197.979 57.0137 197.918 57.2576C197.861 57.4978 197.832 57.7685 197.832 58.0698V58.2849C197.832 58.5395 197.866 58.7761 197.935 58.9949C198.006 59.21 198.11 59.3983 198.247 59.5596C198.383 59.721 198.548 59.8483 198.741 59.9415C198.935 60.0312 199.156 60.076 199.403 60.076C199.715 60.076 199.993 60.0132 200.237 59.8877C200.48 59.7622 200.692 59.5847 200.871 59.3552L201.554 60.0168C201.429 60.1997 201.266 60.3754 201.065 60.5439C200.864 60.7089 200.619 60.8433 200.328 60.9473C200.041 61.0513 199.708 61.1033 199.328 61.1033ZM206.437 55.176V56.1227H203.156V55.176H206.437ZM204.103 53.7507H205.399V59.3875C205.399 59.5668 205.424 59.7049 205.474 59.8017C205.528 59.8949 205.602 59.9577 205.695 59.9899C205.788 60.0222 205.897 60.0383 206.023 60.0383C206.113 60.0383 206.199 60.033 206.281 60.0222C206.364 60.0114 206.43 60.0007 206.48 59.9899L206.486 60.9796C206.378 61.0119 206.252 61.0405 206.109 61.0656C205.969 61.0908 205.808 61.1033 205.625 61.1033C205.327 61.1033 205.064 61.0513 204.834 60.9473C204.605 60.8397 204.425 60.6658 204.296 60.4256C204.167 60.1853 204.103 59.8662 204.103 59.4682V53.7507ZM211.804 59.4198C211.804 59.2907 211.772 59.1742 211.707 59.0702C211.643 58.9626 211.519 58.8658 211.336 58.7797C211.157 58.6937 210.891 58.6148 210.54 58.5431C210.232 58.4749 209.948 58.3943 209.69 58.301C209.436 58.2042 209.217 58.0877 209.034 57.9514C208.851 57.8152 208.709 57.6538 208.609 57.4673C208.509 57.2809 208.458 57.0657 208.458 56.8219C208.458 56.5853 208.51 56.3611 208.614 56.1496C208.718 55.938 208.867 55.7516 209.061 55.5902C209.254 55.4288 209.489 55.3016 209.765 55.2083C210.045 55.1151 210.357 55.0685 210.701 55.0685C211.189 55.0685 211.607 55.1509 211.955 55.3159C212.306 55.4773 212.575 55.6978 212.761 55.9775C212.948 56.2536 213.041 56.5655 213.041 56.9133H211.745C211.745 56.7592 211.705 56.6157 211.626 56.4831C211.551 56.3468 211.436 56.2374 211.282 56.155C211.128 56.0689 210.934 56.0259 210.701 56.0259C210.479 56.0259 210.294 56.0617 210.147 56.1334C210.004 56.2016 209.896 56.2912 209.825 56.4024C209.756 56.5135 209.722 56.6355 209.722 56.7681C209.722 56.8649 209.74 56.9528 209.776 57.0317C209.816 57.107 209.88 57.1769 209.97 57.2414C210.059 57.3024 210.181 57.3598 210.336 57.4136C210.493 57.4673 210.691 57.5193 210.927 57.5695C211.372 57.6628 211.754 57.7829 212.073 57.9299C212.396 58.0733 212.643 58.2598 212.815 58.4893C212.987 58.7152 213.073 59.002 213.073 59.3499C213.073 59.608 213.018 59.8447 212.907 60.0598C212.799 60.2714 212.641 60.4561 212.433 60.6138C212.225 60.768 211.976 60.8882 211.686 60.9742C211.399 61.0603 211.076 61.1033 210.717 61.1033C210.19 61.1033 209.744 61.0101 209.378 60.8236C209.012 60.6336 208.735 60.3915 208.544 60.0975C208.358 59.7999 208.265 59.4915 208.265 59.1724H209.518C209.532 59.4126 209.599 59.6045 209.717 59.7479C209.839 59.8877 209.99 59.9899 210.169 60.0545C210.352 60.1154 210.54 60.1459 210.734 60.1459C210.967 60.1459 211.162 60.1154 211.32 60.0545C211.478 59.9899 211.598 59.9039 211.68 59.7963C211.763 59.6851 211.804 59.5596 211.804 59.4198ZM139.193 73.9957H137.897V67.6167C137.897 67.1828 137.978 66.8188 138.139 66.5248C138.304 66.2272 138.539 66.0031 138.844 65.8525C139.149 65.6983 139.509 65.6212 139.925 65.6212C140.054 65.6212 140.181 65.6302 140.307 65.6481C140.432 65.6624 140.554 65.6857 140.673 65.718L140.64 66.7184C140.569 66.7005 140.49 66.688 140.404 66.6808C140.321 66.6736 140.232 66.67 140.135 66.67C139.938 66.67 139.767 66.7077 139.624 66.783C139.484 66.8547 139.376 66.9605 139.301 67.1003C139.229 67.2402 139.193 67.4123 139.193 67.6167V73.9957ZM140.393 68.176V69.1227H137.004V68.176H140.393ZM143.737 69.284V73.9957H142.441V68.176H143.678L143.737 69.284ZM145.518 68.1384L145.507 69.3432C145.428 69.3289 145.342 69.3181 145.249 69.3109C145.159 69.3038 145.069 69.3002 144.98 69.3002C144.757 69.3002 144.562 69.3325 144.394 69.397C144.225 69.458 144.083 69.5476 143.969 69.6659C143.857 69.7807 143.771 69.9205 143.71 70.0855C143.649 70.2504 143.614 70.4351 143.603 70.6395L143.307 70.661C143.307 70.2952 143.343 69.9564 143.415 69.6444C143.486 69.3325 143.594 69.0581 143.737 68.8215C143.884 68.5848 144.067 68.4002 144.286 68.2675C144.508 68.1348 144.765 68.0685 145.055 68.0685C145.134 68.0685 145.218 68.0756 145.308 68.09C145.401 68.1043 145.471 68.1205 145.518 68.1384ZM147.044 71.1504V71.0267C147.044 70.6072 147.105 70.2181 147.227 69.8596C147.349 69.4974 147.525 69.1836 147.754 68.9183C147.987 68.6494 148.27 68.4414 148.604 68.2944C148.941 68.1438 149.321 68.0685 149.744 68.0685C150.171 68.0685 150.551 68.1438 150.884 68.2944C151.222 68.4414 151.507 68.6494 151.74 68.9183C151.973 69.1836 152.15 69.4974 152.272 69.8596C152.394 70.2181 152.455 70.6072 152.455 71.0267V71.1504C152.455 71.57 152.394 71.959 152.272 72.3176C152.15 72.6762 151.973 72.9899 151.74 73.2589C151.507 73.5242 151.223 73.7322 150.89 73.8828C150.556 74.0298 150.178 74.1033 149.755 74.1033C149.328 74.1033 148.946 74.0298 148.609 73.8828C148.276 73.7322 147.993 73.5242 147.759 73.2589C147.526 72.9899 147.349 72.6762 147.227 72.3176C147.105 71.959 147.044 71.57 147.044 71.1504ZM148.34 71.0267V71.1504C148.34 71.4122 148.367 71.6596 148.421 71.8927C148.475 72.1258 148.559 72.3301 148.674 72.5058C148.789 72.6815 148.936 72.8196 149.115 72.92C149.294 73.0204 149.508 73.0706 149.755 73.0706C149.995 73.0706 150.203 73.0204 150.379 72.92C150.558 72.8196 150.705 72.6815 150.82 72.5058C150.935 72.3301 151.019 72.1258 151.073 71.8927C151.13 71.6596 151.159 71.4122 151.159 71.1504V71.0267C151.159 70.7685 151.13 70.5247 151.073 70.2952C151.019 70.0622 150.933 69.856 150.815 69.6767C150.7 69.4974 150.553 69.3576 150.373 69.2572C150.198 69.1532 149.988 69.1012 149.744 69.1012C149.5 69.1012 149.289 69.1532 149.11 69.2572C148.934 69.3576 148.789 69.4974 148.674 69.6767C148.559 69.856 148.475 70.0622 148.421 70.2952C148.367 70.5247 148.34 70.7685 148.34 71.0267ZM155.939 69.3593V73.9957H154.643V68.176H155.864L155.939 69.3593ZM155.73 70.8707L155.288 70.8654C155.288 70.4638 155.339 70.0926 155.439 69.752C155.539 69.4113 155.686 69.1155 155.88 68.8645C156.074 68.6099 156.314 68.4145 156.601 68.2782C156.891 68.1384 157.227 68.0685 157.607 68.0685C157.872 68.0685 158.114 68.1079 158.333 68.1868C158.555 68.2621 158.747 68.3822 158.908 68.5472C159.073 68.7121 159.199 68.9237 159.285 69.1819C159.374 69.44 159.419 69.752 159.419 70.1177V73.9957H158.123V70.2307C158.123 69.9474 158.08 69.7251 157.994 69.5637C157.911 69.4024 157.791 69.2876 157.634 69.2195C157.479 69.1478 157.295 69.1119 157.08 69.1119C156.836 69.1119 156.628 69.1585 156.456 69.2518C156.287 69.345 156.149 69.4723 156.041 69.6337C155.934 69.795 155.855 69.9815 155.805 70.193C155.755 70.4046 155.73 70.6305 155.73 70.8707ZM159.339 70.5265L158.731 70.661C158.731 70.3096 158.779 69.9779 158.876 69.6659C158.976 69.3504 159.122 69.0743 159.312 68.8376C159.505 68.5974 159.744 68.4091 160.027 68.2729C160.31 68.1366 160.635 68.0685 161.001 68.0685C161.298 68.0685 161.564 68.1097 161.797 68.1922C162.033 68.2711 162.234 68.3966 162.399 68.5687C162.564 68.7408 162.689 68.9649 162.776 69.241C162.862 69.5135 162.905 69.8434 162.905 70.2307V73.9957H161.603V70.2253C161.603 69.9313 161.56 69.7036 161.474 69.5422C161.391 69.3809 161.273 69.2697 161.119 69.2087C160.965 69.1442 160.78 69.1119 160.565 69.1119C160.364 69.1119 160.187 69.1496 160.032 69.2249C159.882 69.2966 159.755 69.3988 159.651 69.5315C159.547 69.6606 159.468 69.8094 159.414 69.9779C159.364 70.1464 159.339 70.3293 159.339 70.5265ZM171.562 73.0706C171.774 73.0706 171.964 73.0294 172.132 72.9469C172.304 72.8608 172.442 72.7425 172.546 72.5919C172.654 72.4413 172.713 72.2674 172.724 72.0702H173.945C173.938 72.4467 173.826 72.7891 173.611 73.0975C173.396 73.4059 173.111 73.6515 172.756 73.8344C172.401 74.0137 172.008 74.1033 171.578 74.1033C171.134 74.1033 170.746 74.028 170.416 73.8774C170.087 73.7232 169.812 73.5117 169.593 73.2427C169.375 72.9738 169.21 72.6636 169.099 72.3122C168.991 71.9608 168.937 71.5843 168.937 71.1827V70.9945C168.937 70.5928 168.991 70.2163 169.099 69.8649C169.21 69.5099 169.375 69.198 169.593 68.9291C169.812 68.6601 170.087 68.4504 170.416 68.2998C170.746 68.1456 171.132 68.0685 171.573 68.0685C172.039 68.0685 172.448 68.1617 172.799 68.3482C173.151 68.531 173.427 68.7874 173.627 69.1173C173.832 69.4436 173.938 69.8237 173.945 70.2576H172.724C172.713 70.0424 172.659 69.8488 172.562 69.6767C172.469 69.501 172.337 69.3611 172.164 69.2572C171.996 69.1532 171.793 69.1012 171.557 69.1012C171.295 69.1012 171.078 69.155 170.906 69.2625C170.734 69.3665 170.599 69.5099 170.502 69.6928C170.406 69.8721 170.336 70.0747 170.293 70.3006C170.253 70.5229 170.234 70.7542 170.234 70.9945V71.1827C170.234 71.4229 170.253 71.656 170.293 71.8819C170.332 72.1078 170.4 72.3104 170.497 72.4897C170.597 72.6654 170.734 72.8071 170.906 72.9146C171.078 73.0186 171.297 73.0706 171.562 73.0706ZM179.322 72.8286V70.0532C179.322 69.8452 179.285 69.6659 179.209 69.5153C179.134 69.3647 179.019 69.2482 178.865 69.1657C178.715 69.0832 178.525 69.042 178.295 69.042C178.083 69.042 177.901 69.0779 177.746 69.1496C177.592 69.2213 177.472 69.3181 177.386 69.44C177.3 69.5619 177.257 69.7 177.257 69.8542H175.966C175.966 69.6247 176.022 69.4024 176.133 69.1872C176.244 68.9721 176.405 68.7802 176.617 68.6117C176.828 68.4432 177.081 68.3105 177.375 68.2137C177.669 68.1169 177.999 68.0685 178.365 68.0685C178.802 68.0685 179.19 68.142 179.527 68.289C179.867 68.436 180.135 68.6583 180.328 68.956C180.525 69.25 180.624 69.6193 180.624 70.0639V72.6511C180.624 72.9164 180.642 73.1549 180.678 73.3664C180.717 73.5744 180.773 73.7555 180.845 73.9097V73.9957H179.516C179.455 73.8559 179.407 73.6784 179.371 73.4632C179.338 73.2445 179.322 73.033 179.322 72.8286ZM179.511 70.4566L179.521 71.258H178.591C178.351 71.258 178.139 71.2813 177.956 71.3279C177.773 71.371 177.621 71.4355 177.499 71.5216C177.377 71.6076 177.286 71.7116 177.225 71.8335C177.164 71.9554 177.133 72.0935 177.133 72.2477C177.133 72.4019 177.169 72.5435 177.241 72.6726C177.313 72.7981 177.417 72.8967 177.553 72.9684C177.693 73.0401 177.861 73.076 178.058 73.076C178.324 73.076 178.555 73.0222 178.752 72.9146C178.953 72.8035 179.111 72.669 179.226 72.5112C179.34 72.3499 179.401 72.1975 179.408 72.054L179.828 72.6296C179.785 72.7766 179.711 72.9343 179.607 73.1029C179.503 73.2714 179.367 73.4328 179.199 73.587C179.034 73.7376 178.835 73.8613 178.602 73.9581C178.372 74.0549 178.107 74.1033 177.806 74.1033C177.425 74.1033 177.087 74.028 176.789 73.8774C176.491 73.7232 176.258 73.517 176.09 73.2589C175.921 72.9971 175.837 72.7013 175.837 72.3714C175.837 72.063 175.894 71.7905 176.009 71.5538C176.127 71.3136 176.3 71.1128 176.525 70.9514C176.755 70.7901 177.035 70.6681 177.365 70.5857C177.694 70.4996 178.071 70.4566 178.494 70.4566H179.511ZM184.383 69.284V73.9957H183.086V68.176H184.323L184.383 69.284ZM186.163 68.1384L186.152 69.3432C186.073 69.3289 185.987 69.3181 185.894 69.3109C185.804 69.3038 185.715 69.3002 185.625 69.3002C185.403 69.3002 185.207 69.3325 185.039 69.397C184.87 69.458 184.729 69.5476 184.614 69.6659C184.503 69.7807 184.417 69.9205 184.356 70.0855C184.295 70.2504 184.259 70.4351 184.248 70.6395L183.952 70.661C183.952 70.2952 183.988 69.9564 184.06 69.6444C184.132 69.3325 184.239 69.0581 184.383 68.8215C184.53 68.5848 184.712 68.4002 184.931 68.2675C185.154 68.1348 185.41 68.0685 185.7 68.0685C185.779 68.0685 185.863 68.0756 185.953 68.09C186.046 68.1043 186.116 68.1205 186.163 68.1384ZM191.519 72.7909V65.7342H192.821V73.9957H191.643L191.519 72.7909ZM187.732 71.1504V71.0375C187.732 70.5964 187.784 70.1948 187.888 69.8327C187.992 69.4669 188.143 69.1532 188.34 68.8914C188.537 68.6261 188.778 68.4235 189.061 68.2836C189.344 68.1402 189.663 68.0685 190.018 68.0685C190.37 68.0685 190.678 68.1366 190.943 68.2729C191.209 68.4091 191.435 68.6045 191.621 68.8591C191.808 69.1101 191.956 69.4113 192.068 69.7627C192.179 70.1106 192.258 70.4978 192.304 70.9245V71.2849C192.258 71.7008 192.179 72.0809 192.068 72.4252C191.956 72.7694 191.808 73.067 191.621 73.318C191.435 73.569 191.207 73.7627 190.938 73.8989C190.673 74.0352 190.363 74.1033 190.008 74.1033C189.656 74.1033 189.339 74.0298 189.056 73.8828C188.776 73.7358 188.537 73.5296 188.34 73.2642C188.143 72.9989 187.992 72.6869 187.888 72.3284C187.784 71.9662 187.732 71.5736 187.732 71.1504ZM189.029 71.0375V71.1504C189.029 71.4158 189.052 71.6632 189.099 71.8927C189.149 72.1222 189.226 72.3248 189.33 72.5005C189.434 72.6726 189.568 72.8088 189.733 72.9092C189.902 73.0061 190.103 73.0545 190.336 73.0545C190.63 73.0545 190.872 72.9899 191.062 72.8608C191.252 72.7317 191.401 72.5578 191.508 72.3391C191.619 72.1168 191.695 71.8694 191.734 71.5969V70.6233C191.713 70.4118 191.668 70.2145 191.6 70.0317C191.535 69.8488 191.447 69.6892 191.336 69.553C191.225 69.4131 191.087 69.3056 190.922 69.2303C190.761 69.1514 190.569 69.1119 190.346 69.1119C190.11 69.1119 189.909 69.1621 189.744 69.2625C189.579 69.3629 189.443 69.501 189.335 69.6767C189.231 69.8524 189.154 70.0568 189.104 70.2899C189.054 70.5229 189.029 70.7721 189.029 71.0375ZM198.542 72.4198C198.542 72.2907 198.51 72.1742 198.446 72.0702C198.381 71.9626 198.257 71.8658 198.074 71.7797C197.895 71.6937 197.63 71.6148 197.278 71.5431C196.97 71.4749 196.687 71.3943 196.429 71.301C196.174 71.2042 195.955 71.0877 195.772 70.9514C195.589 70.8152 195.448 70.6538 195.347 70.4673C195.247 70.2809 195.197 70.0657 195.197 69.8219C195.197 69.5853 195.249 69.3611 195.353 69.1496C195.457 68.938 195.606 68.7516 195.799 68.5902C195.993 68.4288 196.228 68.3016 196.504 68.2083C196.784 68.1151 197.096 68.0685 197.44 68.0685C197.927 68.0685 198.345 68.1509 198.693 68.3159C199.044 68.4773 199.313 68.6978 199.5 68.9775C199.686 69.2536 199.779 69.5655 199.779 69.9133H198.483C198.483 69.7592 198.444 69.6157 198.365 69.4831C198.29 69.3468 198.175 69.2374 198.021 69.155C197.866 69.0689 197.673 69.0259 197.44 69.0259C197.217 69.0259 197.033 69.0617 196.886 69.1334C196.742 69.2016 196.635 69.2912 196.563 69.4024C196.495 69.5135 196.461 69.6355 196.461 69.7681C196.461 69.8649 196.479 69.9528 196.515 70.0317C196.554 70.107 196.619 70.1769 196.708 70.2414C196.798 70.3024 196.92 70.3598 197.074 70.4136C197.232 70.4673 197.429 70.5193 197.666 70.5695C198.11 70.6628 198.492 70.7829 198.811 70.9299C199.134 71.0733 199.381 71.2598 199.554 71.4893C199.726 71.7152 199.812 72.002 199.812 72.3499C199.812 72.608 199.756 72.8447 199.645 73.0598C199.537 73.2714 199.38 73.4561 199.172 73.6138C198.964 73.768 198.714 73.8882 198.424 73.9742C198.137 74.0603 197.814 74.1033 197.456 74.1033C196.929 74.1033 196.482 74.0101 196.117 73.8236C195.751 73.6336 195.473 73.3915 195.283 73.0975C195.096 72.7999 195.003 72.4915 195.003 72.1724H196.256C196.271 72.4126 196.337 72.6045 196.455 72.7479C196.577 72.8877 196.728 72.9899 196.907 73.0545C197.09 73.1154 197.278 73.1459 197.472 73.1459C197.705 73.1459 197.901 73.1154 198.058 73.0545C198.216 72.9899 198.336 72.9039 198.419 72.7963C198.501 72.6851 198.542 72.5596 198.542 72.4198Z" fill="white"/>
<rect x="127.631" y="90.6273" width="10.1893" height="10.1893" rx="3.44232" stroke="white" stroke-width="0.826158"/>
<path d="M135.341 93.8032C135.387 93.7588 135.424 93.7056 135.449 93.6469C135.474 93.5881 135.488 93.5249 135.488 93.4609C135.489 93.3969 135.477 93.3334 135.453 93.2742C135.428 93.215 135.393 93.1611 135.347 93.1159C135.302 93.0706 135.248 93.0348 135.189 93.0105C135.13 92.9863 135.067 92.9741 135.003 92.9746C134.939 92.9751 134.875 92.9884 134.817 93.0136C134.758 93.0388 134.705 93.0755 134.66 93.1215L132.729 95.0523L130.798 93.1215C130.754 93.0742 130.701 93.0362 130.641 93.0099C130.582 92.9835 130.518 92.9694 130.454 92.9682C130.389 92.9671 130.325 92.979 130.265 93.0032C130.205 93.0274 130.15 93.0635 130.105 93.1093C130.059 93.155 130.023 93.2096 129.998 93.2696C129.974 93.3296 129.962 93.3938 129.963 93.4585C129.965 93.5232 129.979 93.587 130.005 93.6462C130.031 93.7053 130.069 93.7585 130.117 93.8026L132.046 95.734L130.115 97.6648C130.03 97.7562 129.984 97.877 129.986 98.0018C129.988 98.1267 130.039 98.2458 130.127 98.3341C130.216 98.4224 130.335 98.4729 130.46 98.4751C130.584 98.4773 130.705 98.431 130.797 98.3459L132.729 96.4151L134.659 98.3465C134.751 98.4316 134.872 98.478 134.996 98.4758C135.121 98.4736 135.24 98.423 135.329 98.3347C135.417 98.2464 135.468 98.1273 135.47 98.0025C135.472 97.8776 135.426 97.7568 135.34 97.6654L133.411 95.734L135.341 93.8032Z" fill="white"/>
<rect x="199.231" y="90.6273" width="10.1893" height="10.1893" rx="3.44232" stroke="white" stroke-width="0.826158"/>
<path d="M201.627 95.722L203.941 97.6497L207.025 93.7943" stroke="white" stroke-width="1.10154" stroke-linecap="round"/>
</g>
<defs>
<filter id="filter0_dd_3358_34031" x="-1.03087" y="0.389171" width="335.8" height="139.409" filterUnits="userSpaceOnUse" color-interpolation-filters="sRGB">
<feFlood flood-opacity="0" result="BackgroundImageFix"/>
<feColorMatrix in="SourceAlpha" type="matrix" values="0 0 0 0 0 0 0 0 0 0 0 0 0 0 0 0 0 0 127 0" result="hardAlpha"/>
<feOffset dx="2.75386" dy="2.20309"/>
<feGaussianBlur stdDeviation="5.50772"/>
<feComposite in2="hardAlpha" operator="out"/>
<feColorMatrix type="matrix" values="0 0 0 0 0 0 0 0 0 0 0 0 0 0 0 0 0 0 0.41 0"/>
<feBlend mode="normal" in2="BackgroundImageFix" result="effect1_dropShadow_3358_34031"/>
<feColorMatrix in="SourceAlpha" type="matrix" values="0 0 0 0 0 0 0 0 0 0 0 0 0 0 0 0 0 0 127 0" result="hardAlpha"/>
<feOffset dx="-5.50772" dy="-5.50772"/>
<feGaussianBlur stdDeviation="8.26158"/>
<feComposite in2="hardAlpha" operator="out"/>
<feColorMatrix type="matrix" values="0 0 0 0 0.0916667 0 0 0 0 0.0758333 0 0 0 0 0.0626389 0 0 0 1 0"/>
<feBlend mode="normal" in2="effect1_dropShadow_3358_34031" result="effect2_dropShadow_3358_34031"/>
<feBlend mode="normal" in="SourceGraphic" in2="effect2_dropShadow_3358_34031" result="shape"/>
</filter>
</defs>
</svg>
