<svg width="420" height="140" viewBox="0 0 420 140" fill="none" xmlns="http://www.w3.org/2000/svg">
<g filter="url(#filter0_dd_4053_28919)">
<path d="M92.1695 70.943H61.1016V81.466H92.1695V70.943Z" fill="#433E39"/>
<g style="mix-blend-mode:multiply">
<path d="M92.1337 70.8436H85.2236V81.3115H92.1337V70.8436Z" fill="#535762"/>
</g>
<path d="M137.509 67.1205H110.084C108.861 67.1205 107.869 68.1121 107.869 69.3353V82.8148C107.869 84.038 108.861 85.0296 110.084 85.0296H137.509C138.732 85.0296 139.724 84.038 139.724 82.8148V69.3353C139.724 68.1121 138.732 67.1205 137.509 67.1205Z" fill="#776E67"/>
<g style="mix-blend-mode:multiply">
<path d="M125.468 67.1205H110.084C108.861 67.1205 107.869 68.1121 107.869 69.3353V82.8148C107.869 84.038 108.861 85.0296 110.084 85.0296H125.468C126.691 85.0296 127.682 84.038 127.682 82.8148V69.3353C127.682 68.1121 126.691 67.1205 125.468 67.1205Z" fill="#535762"/>
</g>
<path d="M119.895 61.9183H93.1567C89.8357 61.9183 87.1436 64.6105 87.1436 67.9315V84.2221C87.1436 87.5431 89.8357 90.2352 93.1567 90.2352H119.895C123.216 90.2352 125.908 87.5431 125.908 84.2221V67.9315C125.908 64.6105 123.216 61.9183 119.895 61.9183Z" fill="#433E39"/>
<path fill-rule="evenodd" clip-rule="evenodd" d="M181.03 22.42L293.262 22.42C297.803 22.42 302.214 22.9537 306.43 23.9589C330.387 28.495 348.505 49.5406 348.505 74.8169C348.505 75.5741 348.488 76.3275 348.456 77.0768H349.351C350.805 77.0768 351.987 75.8942 351.987 74.4411C351.987 72.9879 350.805 71.8053 349.351 71.8053H348.444C348.274 68.1473 347.748 64.5845 346.891 61.152C347.663 63.1865 349.351 63.7878 349.351 63.7878L349.346 63.7928C355.229 63.7928 360 68.5632 360 74.4461C360 80.3289 355.229 85.0994 349.346 85.0994C349.346 85.0994 347.627 85.707 346.868 87.7795C346.787 88.0929 346.704 88.4051 346.617 88.7161C346.606 88.7806 346.595 88.8461 346.585 88.9127L346.565 88.9011C340.431 110.644 320.447 126.58 296.742 126.58L179.451 126.58C162.781 126.58 147.954 118.697 138.488 106.457C132.919 99.7338 129.057 91.6592 127.526 82.8315V65.7353C131.789 41.1588 154.118 22.42 181.03 22.42Z" fill="#34302D"/>
<path d="M293.439 50.9006C306.628 50.9006 317.361 61.629 317.361 74.8228C317.361 88.0166 306.633 98.7451 293.439 98.7451C280.245 98.7451 269.517 88.0166 269.517 74.8228C269.517 61.629 280.245 50.9006 293.439 50.9006ZM293.439 42.8831C275.8 42.8831 261.499 57.1843 261.499 74.8228C261.499 92.4614 275.8 106.763 293.439 106.763C311.077 106.763 325.379 92.4614 325.379 74.8228C325.379 57.1843 311.077 42.8831 293.439 42.8831Z" fill="#1D1915"/>
<path d="M293.438 98.7395C306.65 98.7395 317.36 88.0291 317.36 74.8172C317.36 61.6053 306.65 50.8949 293.438 50.8949C280.226 50.8949 269.516 61.6053 269.516 74.8172C269.516 88.0291 280.226 98.7395 293.438 98.7395Z" fill="#34302D"/>
<path d="M184.801 54.2737H187.571C188.166 54.2737 188.674 54.3633 189.093 54.5426C189.513 54.7219 189.834 54.9873 190.056 55.3387C190.282 55.6865 190.395 56.1168 190.395 56.6295C190.395 57.0204 190.323 57.3646 190.18 57.6622C190.036 57.9598 189.834 58.2109 189.572 58.4152C189.31 58.616 188.998 58.772 188.636 58.8832L188.227 59.0822H185.737L185.726 58.0118H187.592C187.915 58.0118 188.184 57.9545 188.399 57.8397C188.614 57.725 188.776 57.569 188.883 57.3718C188.994 57.171 189.05 56.9451 189.05 56.6941C189.05 56.4216 188.996 56.1849 188.889 55.9841C188.785 55.7797 188.623 55.6237 188.405 55.5162C188.186 55.405 187.908 55.3494 187.571 55.3494H186.151V62.105H184.801V54.2737ZM189.271 62.105L187.431 58.5874L188.846 58.582L190.712 62.0351V62.105H189.271ZM195.277 62.2126C194.847 62.2126 194.458 62.1426 194.11 62.0028C193.766 61.8594 193.472 61.6603 193.228 61.4058C192.988 61.1512 192.803 60.8518 192.674 60.5075C192.545 60.1633 192.481 59.7922 192.481 59.3942V59.179C192.481 58.7236 192.547 58.3113 192.68 57.9419C192.812 57.5726 192.997 57.257 193.234 56.9953C193.47 56.7299 193.75 56.5273 194.073 56.3875C194.395 56.2477 194.745 56.1777 195.121 56.1777C195.537 56.1777 195.901 56.2477 196.213 56.3875C196.525 56.5273 196.783 56.7246 196.988 56.9791C197.196 57.2301 197.35 57.5296 197.45 57.8774C197.554 58.2252 197.606 58.6089 197.606 59.0284V59.5824H193.11V58.6519H196.326V58.5497C196.319 58.3166 196.272 58.0979 196.186 57.8935C196.104 57.6891 195.977 57.5242 195.805 57.3987C195.632 57.2732 195.403 57.2104 195.116 57.2104C194.901 57.2104 194.709 57.257 194.541 57.3503C194.376 57.4399 194.238 57.5708 194.126 57.7429C194.015 57.915 193.929 58.123 193.868 58.3668C193.811 58.6071 193.782 58.8778 193.782 59.179V59.3942C193.782 59.6487 193.816 59.8854 193.884 60.1041C193.956 60.3193 194.06 60.5075 194.196 60.6689C194.333 60.8302 194.498 60.9575 194.691 61.0508C194.885 61.1404 195.105 61.1852 195.353 61.1852C195.665 61.1852 195.943 61.1225 196.186 60.997C196.43 60.8715 196.642 60.694 196.821 60.4645L197.504 61.1261C197.379 61.3089 197.216 61.4846 197.015 61.6532C196.814 61.8181 196.568 61.9526 196.278 62.0566C195.991 62.1606 195.658 62.2126 195.277 62.2126ZM202.984 60.529C202.984 60.4 202.952 60.2834 202.887 60.1794C202.823 60.0719 202.699 59.975 202.516 59.889C202.337 59.8029 202.071 59.724 201.72 59.6523C201.412 59.5842 201.128 59.5035 200.87 59.4103C200.616 59.3135 200.397 59.1969 200.214 59.0607C200.031 58.9244 199.889 58.7631 199.789 58.5766C199.689 58.3901 199.638 58.175 199.638 57.9312C199.638 57.6945 199.69 57.4704 199.794 57.2588C199.898 57.0473 200.047 56.8608 200.241 56.6995C200.434 56.5381 200.669 56.4108 200.945 56.3176C201.225 56.2243 201.537 56.1777 201.881 56.1777C202.369 56.1777 202.787 56.2602 203.135 56.4251C203.486 56.5865 203.755 56.807 203.941 57.0867C204.128 57.3628 204.221 57.6748 204.221 58.0226H202.925C202.925 57.8684 202.885 57.725 202.806 57.5923C202.731 57.4561 202.616 57.3467 202.462 57.2642C202.308 57.1782 202.114 57.1351 201.881 57.1351C201.659 57.1351 201.474 57.171 201.327 57.2427C201.184 57.3108 201.076 57.4005 201.005 57.5116C200.936 57.6228 200.902 57.7447 200.902 57.8774C200.902 57.9742 200.92 58.062 200.956 58.1409C200.996 58.2162 201.06 58.2862 201.15 58.3507C201.239 58.4117 201.361 58.469 201.516 58.5228C201.673 58.5766 201.871 58.6286 202.107 58.6788C202.552 58.772 202.934 58.8921 203.253 59.0392C203.576 59.1826 203.823 59.3691 203.995 59.5985C204.167 59.8244 204.253 60.1113 204.253 60.4591C204.253 60.7173 204.198 60.954 204.087 61.1691C203.979 61.3807 203.821 61.5653 203.613 61.7231C203.405 61.8773 203.156 61.9974 202.866 62.0835C202.579 62.1695 202.256 62.2126 201.897 62.2126C201.37 62.2126 200.924 62.1193 200.558 61.9329C200.192 61.7428 199.915 61.5008 199.724 61.2067C199.538 60.9091 199.445 60.6008 199.445 60.2816H200.698C200.712 60.5219 200.779 60.7137 200.897 60.8571C201.019 60.997 201.17 61.0992 201.349 61.1637C201.532 61.2247 201.72 61.2552 201.914 61.2552C202.147 61.2552 202.342 61.2247 202.5 61.1637C202.658 61.0992 202.778 61.0131 202.86 60.9055C202.943 60.7944 202.984 60.6689 202.984 60.529ZM209.158 56.2853V57.2319H205.877V56.2853H209.158ZM206.823 54.86H208.119V60.4968C208.119 60.6761 208.145 60.8141 208.195 60.9109C208.249 61.0042 208.322 61.0669 208.415 61.0992C208.508 61.1314 208.618 61.1476 208.743 61.1476C208.833 61.1476 208.919 61.1422 209.002 61.1314C209.084 61.1207 209.15 61.1099 209.201 61.0992L209.206 62.0888C209.098 62.1211 208.973 62.1498 208.829 62.1749C208.69 62.2 208.528 62.2126 208.345 62.2126C208.048 62.2126 207.784 62.1606 207.555 62.0566C207.325 61.949 207.146 61.7751 207.017 61.5348C206.888 61.2946 206.823 60.9755 206.823 60.5774V54.86ZM210.883 59.2597V59.136C210.883 58.7164 210.944 58.3274 211.066 57.9688C211.188 57.6067 211.363 57.2929 211.593 57.0276C211.826 56.7586 212.109 56.5506 212.443 56.4036C212.78 56.253 213.16 56.1777 213.583 56.1777C214.01 56.1777 214.39 56.253 214.723 56.4036C215.06 56.5506 215.345 56.7586 215.579 57.0276C215.812 57.2929 215.989 57.6067 216.111 57.9688C216.233 58.3274 216.294 58.7164 216.294 59.136V59.2597C216.294 59.6792 216.233 60.0683 216.111 60.4268C215.989 60.7854 215.812 61.0992 215.579 61.3681C215.345 61.6335 215.062 61.8414 214.729 61.992C214.395 62.139 214.017 62.2126 213.594 62.2126C213.167 62.2126 212.785 62.139 212.448 61.992C212.115 61.8414 211.831 61.6335 211.598 61.3681C211.365 61.0992 211.188 60.7854 211.066 60.4268C210.944 60.0683 210.883 59.6792 210.883 59.2597ZM212.179 59.136V59.2597C212.179 59.5214 212.206 59.7689 212.26 60.0019C212.314 60.235 212.398 60.4394 212.513 60.6151C212.627 60.7908 212.774 60.9289 212.954 61.0293C213.133 61.1297 213.346 61.1799 213.594 61.1799C213.834 61.1799 214.042 61.1297 214.218 61.0293C214.397 60.9289 214.544 60.7908 214.659 60.6151C214.774 60.4394 214.858 60.235 214.912 60.0019C214.969 59.7689 214.998 59.5214 214.998 59.2597V59.136C214.998 58.8778 214.969 58.634 214.912 58.4045C214.858 58.1714 214.772 57.9652 214.653 57.7859C214.539 57.6067 214.392 57.4668 214.212 57.3664C214.037 57.2624 213.827 57.2104 213.583 57.2104C213.339 57.2104 213.128 57.2624 212.948 57.3664C212.773 57.4668 212.627 57.6067 212.513 57.7859C212.398 57.9652 212.314 58.1714 212.26 58.4045C212.206 58.634 212.179 58.8778 212.179 59.136ZM219.784 57.3933V62.105H218.487V56.2853H219.724L219.784 57.3933ZM221.564 56.2477L221.553 57.4525C221.474 57.4381 221.388 57.4274 221.295 57.4202C221.205 57.413 221.116 57.4094 221.026 57.4094C220.804 57.4094 220.608 57.4417 220.44 57.5063C220.271 57.5672 220.13 57.6569 220.015 57.7752C219.904 57.8899 219.818 58.0298 219.757 58.1947C219.696 58.3597 219.66 58.5443 219.649 58.7487L219.353 58.7702C219.353 58.4045 219.389 58.0656 219.461 57.7537C219.533 57.4417 219.64 57.1674 219.784 56.9307C219.931 56.6941 220.113 56.5094 220.332 56.3767C220.554 56.2441 220.811 56.1777 221.101 56.1777C221.18 56.1777 221.264 56.1849 221.354 56.1992C221.447 56.2136 221.517 56.2297 221.564 56.2477ZM225.936 62.2126C225.505 62.2126 225.116 62.1426 224.768 62.0028C224.424 61.8594 224.13 61.6603 223.886 61.4058C223.646 61.1512 223.461 60.8518 223.332 60.5075C223.203 60.1633 223.139 59.7922 223.139 59.3942V59.179C223.139 58.7236 223.205 58.3113 223.338 57.9419C223.47 57.5726 223.655 57.257 223.892 56.9953C224.128 56.7299 224.408 56.5273 224.731 56.3875C225.054 56.2477 225.403 56.1777 225.78 56.1777C226.196 56.1777 226.56 56.2477 226.871 56.3875C227.183 56.5273 227.442 56.7246 227.646 56.9791C227.854 57.2301 228.008 57.5296 228.109 57.8774C228.213 58.2252 228.265 58.6089 228.265 59.0284V59.5824H223.768V58.6519H226.984V58.5497C226.977 58.3166 226.931 58.0979 226.845 57.8935C226.762 57.6891 226.635 57.5242 226.463 57.3987C226.291 57.2732 226.061 57.2104 225.774 57.2104C225.559 57.2104 225.367 57.257 225.199 57.3503C225.034 57.4399 224.896 57.5708 224.785 57.7429C224.673 57.915 224.587 58.123 224.526 58.3668C224.469 58.6071 224.44 58.8778 224.44 59.179V59.3942C224.44 59.6487 224.474 59.8854 224.543 60.1041C224.614 60.3193 224.718 60.5075 224.855 60.6689C224.991 60.8302 225.156 60.9575 225.349 61.0508C225.543 61.1404 225.763 61.1852 226.011 61.1852C226.323 61.1852 226.601 61.1225 226.845 60.997C227.088 60.8715 227.3 60.694 227.479 60.4645L228.162 61.1261C228.037 61.3089 227.874 61.4846 227.673 61.6532C227.472 61.8181 227.226 61.9526 226.936 62.0566C226.649 62.1606 226.316 62.2126 225.936 62.2126Z" fill="white"/>
<rect x="165.61" y="89.5181" width="10.1893" height="10.1893" rx="3.44232" stroke="white" stroke-width="0.826158"/>
<path d="M173.32 92.694C173.366 92.6495 173.403 92.5964 173.428 92.5376C173.453 92.4788 173.467 92.4156 173.467 92.3516C173.468 92.2876 173.456 92.2242 173.432 92.1649C173.407 92.1057 173.372 92.0519 173.326 92.0066C173.281 91.9613 173.227 91.9255 173.168 91.9013C173.109 91.877 173.046 91.8648 172.982 91.8653C172.918 91.8659 172.854 91.8791 172.796 91.9043C172.737 91.9296 172.684 91.9663 172.639 92.0123L170.708 93.943L168.777 92.0123C168.733 91.9649 168.68 91.9269 168.62 91.9006C168.561 91.8743 168.497 91.8601 168.433 91.859C168.368 91.8578 168.304 91.8697 168.244 91.894C168.184 91.9182 168.129 91.9543 168.084 92C168.038 92.0458 168.002 92.1003 167.977 92.1603C167.953 92.2203 167.941 92.2846 167.942 92.3493C167.944 92.414 167.958 92.4778 167.984 92.5369C168.01 92.596 168.048 92.6492 168.096 92.6933L170.025 94.6248L168.094 96.5556C168.009 96.6469 167.963 96.7677 167.965 96.8926C167.967 97.0174 168.018 97.1365 168.106 97.2248C168.195 97.3131 168.314 97.3637 168.439 97.3659C168.563 97.3681 168.684 97.3217 168.776 97.2366L170.708 95.3058L172.638 97.2373C172.73 97.3224 172.851 97.3687 172.975 97.3665C173.1 97.3643 173.219 97.3138 173.308 97.2255C173.396 97.1372 173.447 97.0181 173.449 96.8932C173.451 96.7684 173.405 96.6475 173.319 96.5562L171.39 94.6248L173.32 92.694Z" fill="white"/>
<rect x="237.211" y="89.5181" width="10.1893" height="10.1893" rx="3.44232" stroke="white" stroke-width="0.826158"/>
<path d="M239.606 94.6126L241.92 96.5403L245.004 92.6849" stroke="white" stroke-width="1.10154" stroke-linecap="round"/>
</g>
<defs>
<filter id="filter0_dd_4053_28919" x="37.9691" y="0.389171" width="335.8" height="139.409" filterUnits="userSpaceOnUse" color-interpolation-filters="sRGB">
<feFlood flood-opacity="0" result="BackgroundImageFix"/>
<feColorMatrix in="SourceAlpha" type="matrix" values="0 0 0 0 0 0 0 0 0 0 0 0 0 0 0 0 0 0 127 0" result="hardAlpha"/>
<feOffset dx="2.75386" dy="2.20309"/>
<feGaussianBlur stdDeviation="5.50772"/>
<feComposite in2="hardAlpha" operator="out"/>
<feColorMatrix type="matrix" values="0 0 0 0 0 0 0 0 0 0 0 0 0 0 0 0 0 0 0.41 0"/>
<feBlend mode="normal" in2="BackgroundImageFix" result="effect1_dropShadow_4053_28919"/>
<feColorMatrix in="SourceAlpha" type="matrix" values="0 0 0 0 0 0 0 0 0 0 0 0 0 0 0 0 0 0 127 0" result="hardAlpha"/>
<feOffset dx="-5.50772" dy="-5.50772"/>
<feGaussianBlur stdDeviation="8.26158"/>
<feComposite in2="hardAlpha" operator="out"/>
<feColorMatrix type="matrix" values="0 0 0 0 0.0916667 0 0 0 0 0.0758333 0 0 0 0 0.0626389 0 0 0 1 0"/>
<feBlend mode="normal" in2="effect1_dropShadow_4053_28919" result="effect2_dropShadow_4053_28919"/>
<feBlend mode="normal" in="SourceGraphic" in2="effect2_dropShadow_4053_28919" result="shape"/>
</filter>
</defs>
</svg>
