<svg width="25" height="20" viewBox="0 0 25 20" fill="none" xmlns="http://www.w3.org/2000/svg">
  <path d="M21.1901 18.6896L17.0865 14.5787M19.3606 9.08483C19.3606 11.147 18.5414 13.1246 17.0833 14.5828C15.6251 16.0409 13.6474 16.8601 11.5853 16.8601C9.52319 16.8601 7.54553 16.0409 6.08738 14.5828C4.62924 13.1246 3.81006 11.147 3.81006 9.08483C3.81006 7.02271 4.62924 5.04504 6.08738 3.58689C7.54553 2.12875 9.52319 1.30957 11.5853 1.30957C13.6474 1.30957 15.6251 2.12875 17.0833 3.58689C18.5414 5.04504 19.3606 7.02271 19.3606 9.08483V9.08483Z"
    stroke="url(#paint0_linear_1578_135388)" stroke-width="2" stroke-linecap="round" />
  <defs>
    <linearGradient id="paint0_linear_1578_135388" x1="3.84323" y1="10.0005" x2="21.2232" y2="10.0005" gradientUnits="userSpaceOnUse">
      <stop stop-color="#E9B873" />
      <stop offset="0.369792" stop-color="#FEDD8F" />
      <stop offset="1" stop-color="#B78D51" />
    </linearGradient>
  </defs>
</svg>
