<svg width="335" height="140" viewBox="0 0 335 140" fill="none" xmlns="http://www.w3.org/2000/svg">
<g filter="url(#filter0_dd_2637_43547)">
<path d="M53.1693 70.943H22.1014V81.466H53.1693V70.943Z" fill="#433E39"/>
<g style="mix-blend-mode:multiply">
<path d="M53.1336 70.8436H46.2235V81.3115H53.1336V70.8436Z" fill="#535762"/>
</g>
<path d="M98.5084 67.1205H71.0835C69.8603 67.1205 68.8687 68.1121 68.8687 69.3353V82.8148C68.8687 84.038 69.8603 85.0296 71.0835 85.0296H98.5084C99.7316 85.0296 100.723 84.038 100.723 82.8148V69.3353C100.723 68.1121 99.7316 67.1205 98.5084 67.1205Z" fill="#776E67"/>
<g style="mix-blend-mode:multiply">
<path d="M86.4671 67.1205H71.0835C69.8603 67.1205 68.8687 68.1121 68.8687 69.3353V82.8148C68.8687 84.038 69.8603 85.0296 71.0835 85.0296H86.4671C87.6903 85.0296 88.6819 84.038 88.6819 82.8148V69.3353C88.6819 68.1121 87.6903 67.1205 86.4671 67.1205Z" fill="#535762"/>
</g>
<path d="M80.8952 61.9183H54.1567C50.8357 61.9183 48.1436 64.6105 48.1436 67.9314V84.222C48.1436 87.543 50.8357 90.2352 54.1567 90.2352H80.8952C84.2161 90.2352 86.9083 87.543 86.9083 84.222V67.9314C86.9083 64.6105 84.2161 61.9183 80.8952 61.9183Z" fill="#433E39"/>
<path fill-rule="evenodd" clip-rule="evenodd" d="M142.03 22.4201L254.262 22.4201C258.803 22.4201 263.214 22.9537 267.43 23.9589C291.387 28.495 309.505 49.5406 309.505 74.8169C309.505 75.5741 309.489 76.3275 309.457 77.0768H310.352C311.805 77.0768 312.987 75.8943 312.987 74.4411C312.987 72.9879 311.805 71.8053 310.352 71.8053H309.445C309.274 68.1473 308.748 64.5846 307.891 61.1521C308.663 63.1865 310.352 63.7878 310.352 63.7878L310.347 63.7928C316.23 63.7928 321 68.5632 321 74.4461C321 80.3289 316.23 85.0994 310.347 85.0994C310.347 85.0994 308.627 85.7071 307.868 87.7795C307.788 88.0929 307.704 88.4051 307.618 88.7162C307.606 88.7806 307.595 88.8461 307.586 88.9127L307.566 88.9011C301.431 110.644 281.447 126.58 257.742 126.58L140.451 126.58C123.782 126.58 108.954 118.697 99.4879 106.457C93.9197 99.7338 90.0577 91.6592 88.5266 82.8315V65.7353C92.7891 41.1589 115.118 22.4201 142.03 22.4201Z" fill="#34302D"/>
<path d="M254.439 50.9005C267.628 50.9005 278.361 61.629 278.361 74.8228C278.361 88.0166 267.633 98.745 254.439 98.745C241.245 98.745 230.517 88.0166 230.517 74.8228C230.517 61.629 241.245 50.9005 254.439 50.9005ZM254.439 42.883C236.8 42.883 222.499 57.1843 222.499 74.8228C222.499 92.4613 236.8 106.763 254.439 106.763C272.077 106.763 286.379 92.4613 286.379 74.8228C286.379 57.1843 272.077 42.883 254.439 42.883Z" fill="#1D1915"/>
<path d="M254.438 98.7394C267.65 98.7394 278.361 88.029 278.361 74.8171C278.361 61.6052 267.65 50.8948 254.438 50.8948C241.226 50.8948 230.516 61.6052 230.516 74.8171C230.516 88.029 241.226 98.7394 254.438 98.7394Z" fill="#34302D"/>
<path d="M166.346 61.0723V62.1049H161.097V61.2175L163.646 58.4367C163.926 58.1212 164.147 57.8487 164.308 57.6192C164.469 57.3897 164.582 57.1835 164.647 57.0006C164.715 56.8142 164.749 56.6331 164.749 56.4574C164.749 56.21 164.702 55.993 164.609 55.8066C164.52 55.6165 164.387 55.4677 164.211 55.3601C164.035 55.249 163.822 55.1934 163.571 55.1934C163.281 55.1934 163.037 55.2562 162.84 55.3817C162.642 55.5072 162.494 55.6811 162.393 55.9034C162.293 56.1221 162.243 56.3731 162.243 56.6564H160.946C160.946 56.201 161.05 55.7851 161.258 55.4086C161.466 55.0285 161.767 54.7273 162.162 54.5049C162.556 54.279 163.031 54.1661 163.587 54.1661C164.111 54.1661 164.555 54.2539 164.921 54.4296C165.287 54.6053 165.565 54.8546 165.755 55.1773C165.948 55.5 166.045 55.8819 166.045 56.3229C166.045 56.5668 166.006 56.8088 165.927 57.049C165.848 57.2893 165.735 57.5295 165.588 57.7698C165.445 58.0064 165.274 58.2449 165.077 58.4851C164.88 58.7218 164.663 58.962 164.426 59.2059L162.732 61.0723H166.346ZM173.854 59.3134V60.3461H168.206L168.163 59.5662L171.541 54.2737H172.579L171.455 56.1992L169.513 59.3134H173.854ZM172.875 54.2737V62.1049H171.579V54.2737H172.875Z" fill="white"/>
<path d="M134.32 92.6939C134.366 92.6495 134.403 92.5963 134.428 92.5375C134.454 92.4787 134.467 92.4155 134.468 92.3515C134.468 92.2875 134.456 92.2241 134.432 92.1649C134.408 92.1056 134.372 92.0518 134.327 92.0065C134.281 91.9613 134.228 91.9255 134.168 91.9012C134.109 91.8769 134.046 91.8647 133.982 91.8652C133.918 91.8658 133.855 91.879 133.796 91.9043C133.737 91.9295 133.684 91.9662 133.639 92.0122L131.708 93.943L129.777 92.0122C129.733 91.9648 129.68 91.9269 129.621 91.9005C129.562 91.8742 129.498 91.86 129.433 91.8589C129.368 91.8577 129.304 91.8696 129.244 91.8939C129.184 91.9181 129.13 91.9542 129.084 91.9999C129.038 92.0457 129.002 92.1002 128.978 92.1602C128.953 92.2202 128.942 92.2845 128.943 92.3492C128.944 92.4139 128.958 92.4777 128.984 92.5368C129.011 92.5959 129.049 92.6491 129.096 92.6933L131.026 94.6247L129.095 96.5555C129.01 96.6468 128.963 96.7676 128.965 96.8925C128.968 97.0173 129.018 97.1364 129.107 97.2247C129.195 97.313 129.314 97.3636 129.439 97.3658C129.564 97.368 129.684 97.3217 129.776 97.2365L131.708 95.3058L133.639 97.2372C133.73 97.3223 133.851 97.3686 133.976 97.3664C134.101 97.3642 134.22 97.3137 134.308 97.2254C134.396 97.1371 134.447 97.018 134.449 96.8931C134.451 96.7683 134.405 96.6475 134.32 96.5561L132.39 94.6247L134.32 92.6939Z" fill="white"/>
<rect x="126.61" y="89.518" width="10.1893" height="10.1893" rx="3.44232" stroke="white" stroke-width="0.826158"/>
<path d="M200.607 94.6127L202.92 96.5404L206.004 92.685" stroke="white" stroke-width="1.10154" stroke-linecap="round"/>
<rect x="198.211" y="89.518" width="10.1893" height="10.1893" rx="3.44232" stroke="white" stroke-width="0.826158"/>
</g>
<defs>
<filter id="filter0_dd_2637_43547" x="-1.03087" y="0.38914" width="335.8" height="139.409" filterUnits="userSpaceOnUse" color-interpolation-filters="sRGB">
<feFlood flood-opacity="0" result="BackgroundImageFix"/>
<feColorMatrix in="SourceAlpha" type="matrix" values="0 0 0 0 0 0 0 0 0 0 0 0 0 0 0 0 0 0 127 0" result="hardAlpha"/>
<feOffset dx="2.75386" dy="2.20309"/>
<feGaussianBlur stdDeviation="5.50772"/>
<feComposite in2="hardAlpha" operator="out"/>
<feColorMatrix type="matrix" values="0 0 0 0 0 0 0 0 0 0 0 0 0 0 0 0 0 0 0.41 0"/>
<feBlend mode="normal" in2="BackgroundImageFix" result="effect1_dropShadow_2637_43547"/>
<feColorMatrix in="SourceAlpha" type="matrix" values="0 0 0 0 0 0 0 0 0 0 0 0 0 0 0 0 0 0 127 0" result="hardAlpha"/>
<feOffset dx="-5.50772" dy="-5.50772"/>
<feGaussianBlur stdDeviation="8.26158"/>
<feComposite in2="hardAlpha" operator="out"/>
<feColorMatrix type="matrix" values="0 0 0 0 0.0916667 0 0 0 0 0.0758333 0 0 0 0 0.0626389 0 0 0 1 0"/>
<feBlend mode="normal" in2="effect1_dropShadow_2637_43547" result="effect2_dropShadow_2637_43547"/>
<feBlend mode="normal" in="SourceGraphic" in2="effect2_dropShadow_2637_43547" result="shape"/>
</filter>
</defs>
</svg>
