<svg width="335" height="140" viewBox="0 0 335 140" fill="none" xmlns="http://www.w3.org/2000/svg">
<g filter="url(#filter0_dd_2909_9130)">
<path d="M53.1695 70.943H22.1016V81.466H53.1695V70.943Z" fill="#433E39"/>
<g style="mix-blend-mode:multiply">
<path d="M53.1327 70.8436H46.2227V81.3115H53.1327V70.8436Z" fill="#535762"/>
</g>
<path d="M98.5069 67.1205H71.082C69.8588 67.1205 68.8672 68.1121 68.8672 69.3353V82.8148C68.8672 84.038 69.8588 85.0296 71.082 85.0296H98.5069C99.7301 85.0296 100.722 84.038 100.722 82.8148V69.3353C100.722 68.1121 99.7301 67.1205 98.5069 67.1205Z" fill="#776E67"/>
<g style="mix-blend-mode:multiply">
<path d="M86.4656 67.1205H71.082C69.8588 67.1205 68.8672 68.1121 68.8672 69.3353V82.8148C68.8672 84.038 69.8588 85.0296 71.082 85.0296H86.4656C87.6888 85.0296 88.6804 84.038 88.6804 82.8148V69.3353C88.6804 68.1121 87.6888 67.1205 86.4656 67.1205Z" fill="#535762"/>
</g>
<path d="M80.8961 61.9183H54.1577C50.8367 61.9183 48.1445 64.6105 48.1445 67.9314V84.2221C48.1445 87.543 50.8367 90.2352 54.1577 90.2352H80.8961C84.2171 90.2352 86.9093 87.543 86.9093 84.2221V67.9314C86.9093 64.6105 84.2171 61.9183 80.8961 61.9183Z" fill="#433E39"/>
<path fill-rule="evenodd" clip-rule="evenodd" d="M142.031 22.4201L254.263 22.4201C258.804 22.4201 263.215 22.9537 267.431 23.9589C291.388 28.495 309.506 49.5406 309.506 74.8169C309.506 75.5741 309.489 76.3276 309.457 77.0769H310.352C311.806 77.0769 312.988 75.8943 312.988 74.4411C312.988 72.9879 311.806 71.8053 310.352 71.8053H309.445C309.275 68.1473 308.749 64.5846 307.892 61.1521C308.664 63.1865 310.352 63.7878 310.352 63.7878L310.347 63.7928C316.23 63.7928 321.001 68.5633 321.001 74.4461C321.001 80.329 316.23 85.0994 310.347 85.0994C310.347 85.0994 308.628 85.7071 307.869 87.7795C307.788 88.0929 307.705 88.4051 307.618 88.7162C307.607 88.7806 307.596 88.8461 307.586 88.9127L307.566 88.9011C301.432 110.644 281.448 126.58 257.743 126.58L140.452 126.58C123.782 126.58 108.954 118.697 99.4886 106.457C93.9205 99.7338 90.0584 91.6593 88.5273 82.8315V65.7353C92.7898 41.1589 115.119 22.4201 142.031 22.4201Z" fill="#34302D"/>
<path d="M254.44 50.9006C267.629 50.9006 278.362 61.629 278.362 74.8228C278.362 88.0166 267.634 98.7451 254.44 98.7451C241.246 98.7451 230.518 88.0166 230.518 74.8228C230.518 61.629 241.246 50.9006 254.44 50.9006ZM254.44 42.8831C236.801 42.8831 222.5 57.1843 222.5 74.8228C222.5 92.4614 236.801 106.763 254.44 106.763C272.078 106.763 286.38 92.4614 286.38 74.8228C286.38 57.1843 272.078 42.8831 254.44 42.8831Z" fill="#1D1915"/>
<path d="M254.438 98.7394C267.65 98.7394 278.36 88.0291 278.36 74.8171C278.36 61.6052 267.65 50.8949 254.438 50.8949C241.226 50.8949 230.516 61.6052 230.516 74.8171C230.516 88.0291 241.226 98.7394 254.438 98.7394Z" fill="#34302D"/>
<path d="M147.924 60.088C147.924 59.9266 147.899 59.7832 147.849 59.6577C147.802 59.5322 147.718 59.4175 147.596 59.3135C147.474 59.2095 147.302 59.1091 147.079 59.0123C146.861 58.9119 146.581 58.8097 146.24 58.7057C145.867 58.5909 145.523 58.4636 145.208 58.3238C144.896 58.1804 144.623 58.0154 144.39 57.829C144.157 57.6389 143.976 57.422 143.847 57.1782C143.718 56.9307 143.653 56.6457 143.653 56.323C143.653 56.0038 143.72 55.7134 143.852 55.4516C143.989 55.1899 144.18 54.964 144.428 54.7739C144.679 54.5803 144.975 54.4315 145.315 54.3275C145.656 54.2199 146.032 54.1661 146.445 54.1661C147.026 54.1661 147.526 54.2737 147.945 54.4888C148.369 54.704 148.693 54.9926 148.919 55.3548C149.148 55.717 149.263 56.1168 149.263 56.5542H147.924C147.924 56.2961 147.868 56.0684 147.757 55.8711C147.65 55.6703 147.485 55.5126 147.262 55.3978C147.044 55.2831 146.766 55.2257 146.429 55.2257C146.109 55.2257 145.844 55.2741 145.633 55.3709C145.421 55.4677 145.263 55.5986 145.159 55.7636C145.055 55.9285 145.003 56.115 145.003 56.323C145.003 56.47 145.037 56.6044 145.105 56.7263C145.174 56.8447 145.278 56.9558 145.417 57.0598C145.557 57.1602 145.733 57.2552 145.945 57.3449C146.156 57.4345 146.405 57.5206 146.692 57.6031C147.126 57.7322 147.504 57.8756 147.827 58.0334C148.15 58.1875 148.419 58.3632 148.634 58.5605C148.849 58.7577 149.01 58.9818 149.118 59.2328C149.226 59.4802 149.279 59.7617 149.279 60.0772C149.279 60.4071 149.213 60.7047 149.08 60.9701C148.948 61.2318 148.758 61.456 148.51 61.6424C148.266 61.8253 147.972 61.9669 147.628 62.0673C147.287 62.1641 146.907 62.2126 146.488 62.2126C146.111 62.2126 145.74 62.1624 145.374 62.062C145.012 61.9616 144.682 61.8092 144.385 61.6048C144.087 61.3968 143.85 61.1386 143.675 60.8302C143.499 60.5183 143.411 60.1543 143.411 59.7384H144.761C144.761 59.993 144.804 60.2099 144.89 60.3892C144.98 60.5685 145.104 60.7155 145.261 60.8302C145.419 60.9414 145.602 61.0239 145.81 61.0777C146.022 61.1314 146.248 61.1583 146.488 61.1583C146.803 61.1583 147.067 61.1135 147.278 61.0239C147.494 60.9342 147.655 60.8087 147.763 60.6474C147.87 60.486 147.924 60.2996 147.924 60.088ZM154.011 62.2126C153.581 62.2126 153.192 62.1426 152.844 62.0028C152.5 61.8594 152.206 61.6603 151.962 61.4058C151.722 61.1512 151.537 60.8518 151.408 60.5075C151.279 60.1633 151.215 59.7922 151.215 59.3942V59.179C151.215 58.7236 151.281 58.3113 151.414 57.9419C151.546 57.5726 151.731 57.257 151.968 56.9953C152.204 56.7299 152.484 56.5273 152.807 56.3875C153.129 56.2477 153.479 56.1777 153.855 56.1777C154.271 56.1777 154.635 56.2477 154.947 56.3875C155.259 56.5273 155.517 56.7246 155.722 56.9791C155.93 57.2301 156.084 57.5296 156.184 57.8774C156.288 58.2252 156.34 58.6089 156.34 59.0284V59.5824H151.844V58.6519H155.06V58.5497C155.053 58.3166 155.006 58.0979 154.92 57.8935C154.838 57.6891 154.711 57.5242 154.539 57.3987C154.366 57.2732 154.137 57.2104 153.85 57.2104C153.635 57.2104 153.443 57.257 153.275 57.3503C153.11 57.4399 152.972 57.5708 152.86 57.7429C152.749 57.915 152.663 58.123 152.602 58.3668C152.545 58.6071 152.516 58.8778 152.516 59.179V59.3942C152.516 59.6487 152.55 59.8854 152.618 60.1041C152.69 60.3193 152.794 60.5075 152.93 60.6689C153.067 60.8302 153.232 60.9575 153.425 61.0508C153.619 61.1404 153.839 61.1852 154.087 61.1852C154.399 61.1852 154.677 61.1225 154.92 60.997C155.164 60.8715 155.376 60.694 155.555 60.4645L156.238 61.1261C156.113 61.3089 155.95 61.4846 155.749 61.6532C155.548 61.8181 155.302 61.9526 155.012 62.0566C154.725 62.1606 154.392 62.2126 154.011 62.2126ZM161.121 56.2853V57.2319H157.84V56.2853H161.121ZM158.787 54.86H160.083V60.4968C160.083 60.6761 160.108 60.8141 160.158 60.9109C160.212 61.0042 160.285 61.0669 160.379 61.0992C160.472 61.1314 160.581 61.1476 160.707 61.1476C160.796 61.1476 160.882 61.1422 160.965 61.1314C161.047 61.1207 161.114 61.1099 161.164 61.0992L161.169 62.0888C161.062 62.1211 160.936 62.1498 160.793 62.1749C160.653 62.2 160.492 62.2126 160.309 62.2126C160.011 62.2126 159.748 62.1606 159.518 62.0566C159.289 61.949 159.109 61.7751 158.98 61.5348C158.851 61.2946 158.787 60.9755 158.787 60.5774V54.86ZM165.891 56.2853V57.2319H162.61V56.2853H165.891ZM163.556 54.86H164.853V60.4968C164.853 60.6761 164.878 60.8141 164.928 60.9109C164.982 61.0042 165.055 61.0669 165.148 61.0992C165.242 61.1314 165.351 61.1476 165.477 61.1476C165.566 61.1476 165.652 61.1422 165.735 61.1314C165.817 61.1207 165.883 61.1099 165.934 61.0992L165.939 62.0888C165.831 62.1211 165.706 62.1498 165.563 62.1749C165.423 62.2 165.261 62.2126 165.078 62.2126C164.781 62.2126 164.517 62.1606 164.288 62.0566C164.058 61.949 163.879 61.7751 163.75 61.5348C163.621 61.2946 163.556 60.9755 163.556 60.5774V54.86ZM169.38 56.2853V62.105H168.079V56.2853H169.38ZM167.993 54.7578C167.993 54.5606 168.057 54.3974 168.186 54.2683C168.319 54.1356 168.502 54.0693 168.735 54.0693C168.964 54.0693 169.145 54.1356 169.278 54.2683C169.411 54.3974 169.477 54.5606 169.477 54.7578C169.477 54.9514 169.411 55.1128 169.278 55.2418C169.145 55.3709 168.964 55.4355 168.735 55.4355C168.502 55.4355 168.319 55.3709 168.186 55.2418C168.057 55.1128 167.993 54.9514 167.993 54.7578ZM173.187 57.5278V62.105H171.891V56.2853H173.112L173.187 57.5278ZM172.956 58.98L172.536 58.9746C172.54 58.5623 172.597 58.184 172.709 57.8397C172.823 57.4955 172.981 57.1997 173.182 56.9523C173.386 56.7048 173.63 56.5148 173.913 56.3821C174.197 56.2459 174.512 56.1777 174.86 56.1777C175.14 56.1777 175.393 56.2172 175.618 56.2961C175.848 56.3714 176.043 56.4951 176.205 56.6672C176.37 56.8393 176.495 57.0634 176.581 57.3395C176.667 57.612 176.71 57.9473 176.71 58.3453V62.105H175.409V58.3399C175.409 58.0602 175.367 57.8397 175.285 57.6784C175.206 57.5134 175.09 57.3969 174.935 57.3288C174.785 57.257 174.597 57.2212 174.371 57.2212C174.148 57.2212 173.949 57.2678 173.774 57.361C173.598 57.4543 173.449 57.5816 173.327 57.7429C173.209 57.9043 173.117 58.0907 173.053 58.3023C172.988 58.5138 172.956 58.7398 172.956 58.98ZM182.862 56.2853H184.04V61.9436C184.04 62.4671 183.929 62.9118 183.707 63.2775C183.485 63.6433 183.174 63.9212 182.776 64.1112C182.378 64.3048 181.918 64.4017 181.394 64.4017C181.172 64.4017 180.924 64.3694 180.652 64.3048C180.383 64.2403 180.121 64.1363 179.866 63.9929C179.615 63.853 179.406 63.6684 179.237 63.4389L179.845 62.6751C180.053 62.9225 180.282 63.1036 180.533 63.2184C180.784 63.3331 181.048 63.3905 181.324 63.3905C181.622 63.3905 181.875 63.3349 182.082 63.2237C182.294 63.1162 182.457 62.9566 182.572 62.745C182.687 62.5335 182.744 62.2753 182.744 61.9705V57.6031L182.862 56.2853ZM178.909 59.2597V59.1467C178.909 58.7057 178.963 58.3041 179.07 57.9419C179.178 57.5762 179.332 57.2624 179.533 57.0007C179.734 56.7353 179.978 56.5327 180.265 56.3929C180.551 56.2494 180.876 56.1777 181.238 56.1777C181.615 56.1777 181.935 56.2459 182.201 56.3821C182.47 56.5184 182.694 56.7138 182.873 56.9684C183.052 57.2194 183.192 57.5206 183.293 57.872C183.397 58.2198 183.474 58.6071 183.524 59.0338V59.3942C183.477 59.8101 183.398 60.1902 183.287 60.5344C183.176 60.8787 183.029 61.1763 182.846 61.4273C182.663 61.6783 182.437 61.8719 182.169 62.0082C181.903 62.1444 181.589 62.2126 181.227 62.2126C180.872 62.2126 180.551 62.139 180.265 61.992C179.981 61.845 179.737 61.6388 179.533 61.3735C179.332 61.1081 179.178 60.7962 179.07 60.4376C178.963 60.0754 178.909 59.6828 178.909 59.2597ZM180.205 59.1467V59.2597C180.205 59.525 180.23 59.7724 180.281 60.0019C180.334 60.2314 180.415 60.434 180.523 60.6097C180.634 60.7818 180.774 60.9181 180.942 61.0185C181.114 61.1153 181.317 61.1637 181.55 61.1637C181.855 61.1637 182.104 61.0992 182.298 60.9701C182.495 60.841 182.645 60.6671 182.749 60.4484C182.857 60.226 182.932 59.9786 182.975 59.7061V58.7326C182.954 58.521 182.909 58.3238 182.841 58.1409C182.776 57.9581 182.688 57.7985 182.577 57.6622C182.466 57.5224 182.326 57.4148 182.158 57.3395C181.989 57.2606 181.79 57.2212 181.561 57.2212C181.328 57.2212 181.125 57.2714 180.953 57.3718C180.781 57.4722 180.639 57.6102 180.528 57.7859C180.42 57.9616 180.34 58.166 180.286 58.3991C180.232 58.6322 180.205 58.8814 180.205 59.1467ZM189.751 60.529C189.751 60.4 189.719 60.2834 189.655 60.1794C189.59 60.0719 189.466 59.975 189.283 59.889C189.104 59.8029 188.839 59.724 188.487 59.6523C188.179 59.5842 187.896 59.5035 187.638 59.4103C187.383 59.3135 187.164 59.1969 186.981 59.0607C186.798 58.9244 186.657 58.7631 186.556 58.5766C186.456 58.3901 186.406 58.175 186.406 57.9312C186.406 57.6945 186.458 57.4704 186.562 57.2588C186.666 57.0473 186.815 56.8608 187.008 56.6995C187.202 56.5381 187.437 56.4108 187.713 56.3176C187.993 56.2243 188.304 56.1777 188.649 56.1777C189.136 56.1777 189.554 56.2602 189.902 56.4251C190.253 56.5865 190.522 56.807 190.709 57.0867C190.895 57.3628 190.988 57.6748 190.988 58.0226H189.692C189.692 57.8684 189.653 57.725 189.574 57.5923C189.499 57.4561 189.384 57.3467 189.23 57.2642C189.075 57.1782 188.882 57.1351 188.649 57.1351C188.426 57.1351 188.242 57.171 188.095 57.2427C187.951 57.3108 187.844 57.4005 187.772 57.5116C187.704 57.6228 187.67 57.7447 187.67 57.8774C187.67 57.9742 187.688 58.062 187.724 58.1409C187.763 58.2162 187.828 58.2862 187.917 58.3507C188.007 58.4117 188.129 58.469 188.283 58.5228C188.441 58.5766 188.638 58.6286 188.875 58.6788C189.319 58.772 189.701 58.8921 190.02 59.0392C190.343 59.1826 190.59 59.3691 190.763 59.5985C190.935 59.8244 191.021 60.1113 191.021 60.4591C191.021 60.7173 190.965 60.954 190.854 61.1691C190.746 61.3807 190.589 61.5653 190.381 61.7231C190.173 61.8773 189.923 61.9974 189.633 62.0835C189.346 62.1695 189.023 62.2126 188.665 62.2126C188.138 62.2126 187.691 62.1193 187.326 61.9329C186.96 61.7428 186.682 61.5008 186.492 61.2067C186.305 60.9091 186.212 60.6008 186.212 60.2816H187.465C187.48 60.5219 187.546 60.7137 187.664 60.8571C187.786 60.997 187.937 61.0992 188.116 61.1637C188.299 61.2247 188.487 61.2552 188.681 61.2552C188.914 61.2552 189.109 61.2247 189.267 61.1637C189.425 61.0992 189.545 61.0131 189.628 60.9055C189.71 60.7944 189.751 60.6689 189.751 60.529Z" fill="white"/>
<rect x="126.612" y="89.5181" width="10.1893" height="10.1893" rx="3.44232" stroke="white" stroke-width="0.826158"/>
<path d="M134.323 92.6939C134.369 92.6495 134.406 92.5963 134.431 92.5376C134.456 92.4788 134.47 92.4155 134.47 92.3516C134.471 92.2876 134.459 92.2241 134.435 92.1649C134.41 92.1056 134.375 92.0518 134.329 92.0066C134.284 91.9613 134.23 91.9255 134.171 91.9012C134.112 91.877 134.048 91.8647 133.984 91.8653C133.92 91.8658 133.857 91.8791 133.798 91.9043C133.74 91.9295 133.686 91.9662 133.642 92.0122L131.711 93.943L129.78 92.0122C129.736 91.9649 129.682 91.9269 129.623 91.9005C129.564 91.8742 129.5 91.86 129.436 91.8589C129.371 91.8578 129.307 91.8697 129.247 91.8939C129.187 91.9181 129.132 91.9542 129.086 92C129.041 92.0457 129.005 92.1002 128.98 92.1602C128.956 92.2202 128.944 92.2845 128.945 92.3492C128.947 92.4139 128.961 92.4777 128.987 92.5368C129.013 92.596 129.051 92.6492 129.099 92.6933L131.028 94.6247L129.097 96.5555C129.012 96.6468 128.966 96.7677 128.968 96.8925C128.97 97.0174 129.021 97.1365 129.109 97.2248C129.198 97.313 129.317 97.3636 129.441 97.3658C129.566 97.368 129.687 97.3217 129.778 97.2366L131.711 95.3058L133.641 97.2372C133.733 97.3223 133.854 97.3687 133.978 97.3665C134.103 97.3643 134.222 97.3137 134.311 97.2254C134.399 97.1371 134.449 97.018 134.452 96.8932C134.454 96.7683 134.408 96.6475 134.322 96.5561L132.393 94.6247L134.323 92.6939Z" fill="white"/>
<rect x="198.214" y="89.5181" width="10.1893" height="10.1893" rx="3.44232" stroke="white" stroke-width="0.826158"/>
<path d="M200.609 94.6127L202.923 96.5404L206.007 92.685" stroke="white" stroke-width="1.10154" stroke-linecap="round"/>
</g>
<defs>
<filter id="filter0_dd_2909_9130" x="-1.03087" y="0.38914" width="335.8" height="139.409" filterUnits="userSpaceOnUse" color-interpolation-filters="sRGB">
<feFlood flood-opacity="0" result="BackgroundImageFix"/>
<feColorMatrix in="SourceAlpha" type="matrix" values="0 0 0 0 0 0 0 0 0 0 0 0 0 0 0 0 0 0 127 0" result="hardAlpha"/>
<feOffset dx="2.75386" dy="2.20309"/>
<feGaussianBlur stdDeviation="5.50772"/>
<feComposite in2="hardAlpha" operator="out"/>
<feColorMatrix type="matrix" values="0 0 0 0 0 0 0 0 0 0 0 0 0 0 0 0 0 0 0.41 0"/>
<feBlend mode="normal" in2="BackgroundImageFix" result="effect1_dropShadow_2909_9130"/>
<feColorMatrix in="SourceAlpha" type="matrix" values="0 0 0 0 0 0 0 0 0 0 0 0 0 0 0 0 0 0 127 0" result="hardAlpha"/>
<feOffset dx="-5.50772" dy="-5.50772"/>
<feGaussianBlur stdDeviation="8.26158"/>
<feComposite in2="hardAlpha" operator="out"/>
<feColorMatrix type="matrix" values="0 0 0 0 0.0916667 0 0 0 0 0.0758333 0 0 0 0 0.0626389 0 0 0 1 0"/>
<feBlend mode="normal" in2="effect1_dropShadow_2909_9130" result="effect2_dropShadow_2909_9130"/>
<feBlend mode="normal" in="SourceGraphic" in2="effect2_dropShadow_2909_9130" result="shape"/>
</filter>
</defs>
</svg>
