<svg width="25" height="20" viewBox="0 0 25 20" fill="none" xmlns="http://www.w3.org/2000/svg">
<path d="M14.375 20H10.625C10.375 20 10.1583 19.9167 9.975 19.75C9.79167 19.5833 9.68333 19.375 9.65 19.125L9.35 16.8C9.13334 16.7167 8.92933 16.6167 8.738 16.5C8.546 16.3833 8.35834 16.2583 8.175 16.125L6 17.025C5.76667 17.1083 5.53334 17.1167 5.3 17.05C5.06667 16.9833 4.88333 16.8417 4.75 16.625L2.9 13.4C2.76667 13.1833 2.725 12.95 2.775 12.7C2.825 12.45 2.95 12.25 3.15 12.1L5.025 10.675C5.00834 10.5583 5 10.4457 5 10.337V9.662C5 9.554 5.00834 9.44167 5.025 9.325L3.15 7.9C2.95 7.75 2.825 7.55 2.775 7.3C2.725 7.05 2.76667 6.81667 2.9 6.6L4.75 3.375C4.86667 3.14167 5.04567 2.99567 5.287 2.937C5.529 2.879 5.76667 2.89167 6 2.975L8.175 3.875C8.35834 3.74167 8.55 3.61667 8.75 3.5C8.95 3.38333 9.15 3.28333 9.35 3.2L9.65 0.875C9.68333 0.625 9.79167 0.416667 9.975 0.25C10.1583 0.0833333 10.375 0 10.625 0H14.375C14.625 0 14.8417 0.0833333 15.025 0.25C15.2083 0.416667 15.3167 0.625 15.35 0.875L15.65 3.2C15.8667 3.28333 16.071 3.38333 16.263 3.5C16.4543 3.61667 16.6417 3.74167 16.825 3.875L19 2.975C19.2333 2.89167 19.4667 2.88333 19.7 2.95C19.9333 3.01667 20.1167 3.15833 20.25 3.375L22.1 6.6C22.2333 6.81667 22.275 7.05 22.225 7.3C22.175 7.55 22.05 7.75 21.85 7.9L19.975 9.325C19.9917 9.44167 20 9.554 20 9.662V10.337C20 10.4457 19.9833 10.5583 19.95 10.675L21.825 12.1C22.025 12.25 22.15 12.45 22.2 12.7C22.25 12.95 22.2083 13.1833 22.075 13.4L20.225 16.6C20.0917 16.8167 19.9043 16.9627 19.663 17.038C19.421 17.1127 19.1833 17.1083 18.95 17.025L16.825 16.125C16.6417 16.2583 16.45 16.3833 16.25 16.5C16.05 16.6167 15.85 16.7167 15.65 16.8L15.35 19.125C15.3167 19.375 15.2083 19.5833 15.025 19.75C14.8417 19.9167 14.625 20 14.375 20ZM12.55 13.5C13.5167 13.5 14.3417 13.1583 15.025 12.475C15.7083 11.7917 16.05 10.9667 16.05 10C16.05 9.03333 15.7083 8.20833 15.025 7.525C14.3417 6.84167 13.5167 6.5 12.55 6.5C11.5667 6.5 10.7373 6.84167 10.062 7.525C9.38733 8.20833 9.05 9.03333 9.05 10C9.05 10.9667 9.38733 11.7917 10.062 12.475C10.7373 13.1583 11.5667 13.5 12.55 13.5ZM12.55 11.5C12.1333 11.5 11.7793 11.354 11.488 11.062C11.196 10.7707 11.05 10.4167 11.05 10C11.05 9.58333 11.196 9.22933 11.488 8.938C11.7793 8.646 12.1333 8.5 12.55 8.5C12.9667 8.5 13.321 8.646 13.613 8.938C13.9043 9.22933 14.05 9.58333 14.05 10C14.05 10.4167 13.9043 10.7707 13.613 11.062C13.321 11.354 12.9667 11.5 12.55 11.5ZM11.5 18H13.475L13.825 15.35C14.3417 15.2167 14.821 15.0207 15.263 14.762C15.7043 14.504 16.1083 14.1917 16.475 13.825L18.95 14.85L19.925 13.15L17.775 11.525C17.8583 11.2917 17.9167 11.0457 17.95 10.787C17.9833 10.529 18 10.2667 18 10C18 9.73333 17.9833 9.47067 17.95 9.212C17.9167 8.954 17.8583 8.70833 17.775 8.475L19.925 6.85L18.95 5.15L16.475 6.2C16.1083 5.81667 15.7043 5.49567 15.263 5.237C14.821 4.979 14.3417 4.78333 13.825 4.65L13.5 2H11.525L11.175 4.65C10.6583 4.78333 10.1793 4.979 9.738 5.237C9.296 5.49567 8.89167 5.80833 8.525 6.175L6.05 5.15L5.075 6.85L7.225 8.45C7.14167 8.7 7.08333 8.95 7.05 9.2C7.01667 9.45 7 9.71667 7 10C7 10.2667 7.01667 10.525 7.05 10.775C7.08333 11.025 7.14167 11.275 7.225 11.525L5.075 13.15L6.05 14.85L8.525 13.8C8.89167 14.1833 9.296 14.504 9.738 14.762C10.1793 15.0207 10.6583 15.2167 11.175 15.35L11.5 18Z" fill="#8B8682"/>
</svg>
