<svg width="21" height="20" viewBox="0 0 21 20" fill="none" xmlns="http://www.w3.org/2000/svg">
<path id="Vector" d="M15.0471 11C15.7971 11 16.4571 10.59 16.7971 9.97L20.3771 3.48C20.4613 3.32843 20.5046 3.15747 20.5025 2.98406C20.5004 2.81064 20.4531 2.64077 20.3652 2.49126C20.2773 2.34175 20.1519 2.21778 20.0014 2.13162C19.8509 2.04545 19.6805 2.00009 19.5071 2H4.70707L3.76707 0H0.49707V2H2.49707L6.09707 9.59L4.74707 12.03C4.01707 13.37 4.97707 15 6.49707 15H18.4971V13H6.49707L7.59707 11H15.0471ZM5.65707 4H17.8071L15.0471 9H8.02707L5.65707 4ZM6.49707 16C5.39707 16 4.50707 16.9 4.50707 18C4.50707 19.1 5.39707 20 6.49707 20C7.59707 20 8.49707 19.1 8.49707 18C8.49707 16.9 7.59707 16 6.49707 16ZM16.4971 16C15.3971 16 14.5071 16.9 14.5071 18C14.5071 19.1 15.3971 20 16.4971 20C17.5971 20 18.4971 19.1 18.4971 18C18.4971 16.9 17.5971 16 16.4971 16Z" fill="black"/>
</svg>
