<svg width="25" height="20" viewBox="0 0 25 20" fill="none" xmlns="http://www.w3.org/2000/svg">
<path d="M18.864 3.636L15.328 7.172M15.328 12.828L18.864 16.364M9.672 7.172L6.136 3.636M9.672 12.828L6.136 16.364M21.5 10C21.5 11.1819 21.2672 12.3522 20.8149 13.4442C20.3626 14.5361 19.6997 15.5282 18.864 16.364C18.0282 17.1997 17.0361 17.8626 15.9442 18.3149C14.8522 18.7672 13.6819 19 12.5 19C11.3181 19 10.1478 18.7672 9.05585 18.3149C7.96392 17.8626 6.97177 17.1997 6.13604 16.364C5.30031 15.5282 4.63738 14.5361 4.18508 13.4442C3.73279 12.3522 3.5 11.1819 3.5 10C3.5 7.61305 4.44821 5.32387 6.13604 3.63604C7.82387 1.94821 10.1131 1 12.5 1C14.8869 1 17.1761 1.94821 18.864 3.63604C20.5518 5.32387 21.5 7.61305 21.5 10ZM16.5 10C16.5 11.0609 16.0786 12.0783 15.3284 12.8284C14.5783 13.5786 13.5609 14 12.5 14C11.4391 14 10.4217 13.5786 9.67157 12.8284C8.92143 12.0783 8.5 11.0609 8.5 10C8.5 8.93913 8.92143 7.92172 9.67157 7.17157C10.4217 6.42143 11.4391 6 12.5 6C13.5609 6 14.5783 6.42143 15.3284 7.17157C16.0786 7.92172 16.5 8.93913 16.5 10V10Z" stroke="#8B8682" stroke-width="2" stroke-linecap="round" stroke-linejoin="round"/>
</svg>
