<svg width="20" height="16" viewBox="0 0 20 16" fill="none" xmlns="http://www.w3.org/2000/svg">
<path fill-rule="evenodd" clip-rule="evenodd" d="M9.59999 3.2C9.91825 3.2 10.2235 3.32643 10.4485 3.55147C10.6736 3.77651 10.8 4.08174 10.8 4.4V8.6C10.8 8.91826 10.6736 9.22348 10.4485 9.44852C10.2235 9.67357 9.91825 9.8 9.59999 9.8C9.28173 9.8 8.97651 9.67357 8.75147 9.44852C8.52642 9.22348 8.39999 8.91826 8.39999 8.6V4.4C8.39999 4.08174 8.52642 3.77651 8.75147 3.55147C8.97651 3.32643 9.28173 3.2 9.59999 3.2Z" fill="#FF624C"/>
<path d="M10.8 11.6C10.8 11.9183 10.6736 12.2235 10.4485 12.4485C10.2235 12.6736 9.91825 12.8 9.59999 12.8C9.28173 12.8 8.97651 12.6736 8.75147 12.4485C8.52642 12.2235 8.39999 11.9183 8.39999 11.6C8.39999 11.2817 8.52642 10.9765 8.75147 10.7515C8.97651 10.5264 9.28173 10.4 9.59999 10.4C9.91825 10.4 10.2235 10.5264 10.4485 10.7515C10.6736 10.9765 10.8 11.2817 10.8 11.6Z" fill="#FF624C"/>
<path d="M14.175 15.25C13.825 15.4167 13.5083 15.404 13.225 15.212C12.9417 15.0207 12.8 14.7083 12.8 14.275C12.8 14.1083 12.8543 13.946 12.963 13.788C13.071 13.6293 13.2083 13.5083 13.375 13.425C14.425 12.925 15.2583 12.1833 15.875 11.2C16.4917 10.2167 16.8 9.13333 16.8 7.95C16.8 7.2 16.6583 6.47067 16.375 5.762C16.0917 5.054 15.65 4.4 15.05 3.8L14.8 3.55V5C14.8 5.28333 14.7043 5.52067 14.513 5.712C14.321 5.904 14.0833 6 13.8 6C13.5167 6 13.2793 5.904 13.088 5.712C12.896 5.52067 12.8 5.28333 12.8 5V1C12.8 0.716667 12.896 0.479 13.088 0.287C13.2793 0.0956668 13.5167 0 13.8 0H17.8C18.0833 0 18.3207 0.0956668 18.512 0.287C18.704 0.479 18.8 0.716667 18.8 1C18.8 1.28333 18.704 1.521 18.512 1.713C18.3207 1.90433 18.0833 2 17.8 2H16.05L16.45 2.35C17.2667 3.16667 17.8627 4.054 18.238 5.012C18.6127 5.97067 18.8 6.95 18.8 7.95C18.8 9.55 18.3833 11.004 17.55 12.312C16.7167 13.6207 15.5917 14.6 14.175 15.25ZM1.39999 16C1.11666 16 0.878994 15.904 0.686994 15.712C0.495661 15.5207 0.399994 15.2833 0.399994 15C0.399994 14.7167 0.495661 14.4793 0.686994 14.288C0.878994 14.096 1.11666 14 1.39999 14H3.14999L2.74999 13.65C1.93333 12.8333 1.33733 11.946 0.961994 10.988C0.587327 10.0293 0.399994 9.05 0.399994 8.05C0.399994 6.45 0.816661 4.99567 1.64999 3.687C2.48333 2.379 3.60833 1.4 5.02499 0.75C5.37499 0.583333 5.69166 0.595667 5.97499 0.787C6.25833 0.979 6.39999 1.29167 6.39999 1.725C6.39999 1.89167 6.34599 2.054 6.23799 2.212C6.12933 2.37067 5.99166 2.49167 5.82499 2.575C4.77499 3.075 3.94166 3.81667 3.32499 4.8C2.70833 5.78333 2.39999 6.86667 2.39999 8.05C2.39999 8.8 2.54166 9.529 2.82499 10.237C3.10833 10.9457 3.54999 11.6 4.14999 12.2L4.39999 12.45V11C4.39999 10.7167 4.49599 10.479 4.68799 10.287C4.87933 10.0957 5.11666 10 5.39999 10C5.68333 10 5.92099 10.0957 6.11299 10.287C6.30433 10.479 6.39999 10.7167 6.39999 11V15C6.39999 15.2833 6.30433 15.5207 6.11299 15.712C5.92099 15.904 5.68333 16 5.39999 16H1.39999Z" fill="#FF624C"/>
</svg>
