<svg width="18" height="16" viewBox="0 0 18 16" fill="none" xmlns="http://www.w3.org/2000/svg">
<g clip-path="url(#clip0_1432_19736)">
<path d="M12.2869 15.25C11.9369 15.4167 11.6202 15.404 11.3369 15.212C11.0535 15.0207 10.9119 14.7083 10.9119 14.275C10.9119 14.1083 10.9662 13.946 11.0749 13.788C11.1829 13.6293 11.3202 13.5083 11.4869 13.425C12.5369 12.925 13.3702 12.1833 13.9869 11.2C14.6035 10.2167 14.9119 9.13333 14.9119 7.95C14.9119 7.2 14.7702 6.47067 14.4869 5.762C14.2035 5.054 13.7619 4.4 13.1619 3.8L12.9119 3.55V5C12.9119 5.28333 12.8162 5.52067 12.6249 5.712C12.4329 5.904 12.1952 6 11.9119 6C11.6285 6 11.3912 5.904 11.1999 5.712C11.0079 5.52067 10.9119 5.28333 10.9119 5V1C10.9119 0.716667 11.0079 0.479 11.1999 0.287C11.3912 0.0956668 11.6285 0 11.9119 0H15.9119C16.1952 0 16.4325 0.0956668 16.6239 0.287C16.8159 0.479 16.9119 0.716667 16.9119 1C16.9119 1.28333 16.8159 1.521 16.6239 1.713C16.4325 1.90433 16.1952 2 15.9119 2H14.1619L14.5619 2.35C15.3785 3.16667 15.9745 4.054 16.3499 5.012C16.7245 5.97067 16.9119 6.95 16.9119 7.95C16.9119 9.55 16.4952 11.004 15.6619 12.312C14.8285 13.6207 13.7035 14.6 12.2869 15.25ZM1.91187 16C1.62853 16 1.39087 15.904 1.19887 15.712C1.00753 15.5207 0.911865 15.2833 0.911865 15C0.911865 14.7167 1.00753 14.4793 1.19887 14.288C1.39087 14.096 1.62853 14 1.91187 14H3.66187L3.26187 13.65C2.4452 12.8333 1.8492 11.946 1.47387 10.988C1.0992 10.0293 0.911865 9.05 0.911865 8.05C0.911865 6.45 1.32853 4.99567 2.16187 3.687C2.9952 2.379 4.1202 1.4 5.53687 0.75C5.88687 0.583333 6.20353 0.595667 6.48687 0.787C6.7702 0.979 6.91187 1.29167 6.91187 1.725C6.91187 1.89167 6.85787 2.054 6.74987 2.212C6.6412 2.37067 6.50353 2.49167 6.33687 2.575C5.28687 3.075 4.45353 3.81667 3.83687 4.8C3.2202 5.78333 2.91187 6.86667 2.91187 8.05C2.91187 8.8 3.05353 9.529 3.33687 10.237C3.6202 10.9457 4.06187 11.6 4.66187 12.2L4.91187 12.45V11C4.91187 10.7167 5.00787 10.479 5.19987 10.287C5.3912 10.0957 5.62853 10 5.91187 10C6.1952 10 6.43287 10.0957 6.62487 10.287C6.8162 10.479 6.91187 10.7167 6.91187 11V15C6.91187 15.2833 6.8162 15.5207 6.62487 15.712C6.43287 15.904 6.1952 16 5.91187 16H1.91187Z" fill="#51C61A"/>
</g>
<defs>
<clipPath id="clip0_1432_19736">
<rect width="17" height="16" fill="white" transform="translate(0.102295)"/>
</clipPath>
</defs>
</svg>
