<svg width="16" height="16" viewBox="0 0 16 16" fill="none" xmlns="http://www.w3.org/2000/svg">
<path fill-rule="evenodd" clip-rule="evenodd" d="M7.31997 0.0289774C8.70076 -0.0888589 10.0885 0.153991 11.3472 0.733739C12.6059 1.31349 13.6925 2.21025 14.5004 3.33618V1.75008C14.5004 1.55116 14.5794 1.36038 14.7201 1.21972C14.8608 1.07906 15.0515 1.00004 15.2505 1.00004C15.4494 1.00004 15.6402 1.07906 15.7808 1.21972C15.9215 1.36038 16.0005 1.55116 16.0005 1.75008V6.00035H11.7502C11.5513 6.00035 11.3605 5.92133 11.2199 5.78066C11.0792 5.64 11.0002 5.44923 11.0002 5.2503C11.0002 5.05138 11.0792 4.8606 11.2199 4.71994C11.3605 4.57928 11.5513 4.50026 11.7502 4.50026H13.4773C12.7934 3.43009 11.811 2.58372 10.6514 2.06569C9.4918 1.54766 8.20586 1.38067 6.95243 1.58534C5.69899 1.79001 4.53296 2.35737 3.59838 3.21735C2.6638 4.07733 2.00161 5.19225 1.69362 6.42437C1.6709 6.52116 1.62916 6.61247 1.57084 6.69298C1.51252 6.7735 1.43877 6.84161 1.35389 6.89337C1.26901 6.94513 1.17468 6.97949 1.0764 6.99447C0.978112 7.00944 0.877831 7.00473 0.781385 6.9806C0.684939 6.95647 0.594252 6.91341 0.514597 6.85392C0.434942 6.79443 0.367909 6.7197 0.317396 6.63407C0.266883 6.54844 0.233898 6.45362 0.220358 6.35513C0.206818 6.25664 0.212994 6.15644 0.238527 6.06035C0.643095 4.44268 1.54301 2.99184 2.81248 1.91064C4.08195 0.829441 5.65752 0.171917 7.31896 0.0299774L7.31997 0.0289774ZM3.91975 14.8819C4.99181 15.5173 6.19748 15.8935 7.44065 15.9805C8.68383 16.0675 9.93014 15.8628 11.0802 15.3829C12.2303 14.9029 13.2524 14.1609 14.065 13.2161C14.8775 12.2712 15.4581 11.1496 15.7605 9.94059C15.8055 9.74878 15.7733 9.54695 15.6707 9.37872C15.5681 9.2105 15.4035 9.08939 15.2123 9.04158C15.0212 8.99376 14.8189 9.02307 14.6492 9.12318C14.4795 9.22329 14.356 9.38615 14.3054 9.57657C13.9972 10.8084 13.335 11.9231 12.4005 12.7828C11.466 13.6426 10.3002 14.2098 9.04696 14.4145C7.79373 14.6191 6.508 14.4522 5.34855 13.9344C4.1891 13.4166 3.2067 12.5705 2.52267 11.5007H4.24977C4.4487 11.5007 4.63948 11.4217 4.78014 11.281C4.9208 11.1403 4.99982 10.9496 4.99982 10.7506C4.99982 10.5517 4.9208 10.3609 4.78014 10.2203C4.63948 10.0796 4.4487 10.0006 4.24977 10.0006H-0.000488281V14.2509C-0.000488281 14.4498 0.0785342 14.6406 0.219195 14.7812C0.359856 14.9219 0.550633 15.0009 0.749558 15.0009C0.948483 15.0009 1.13926 14.9219 1.27992 14.7812C1.42058 14.6406 1.4996 14.4498 1.4996 14.2509V12.6648C2.14443 13.5631 2.96848 14.3181 3.91975 14.8819Z" fill="#8B8682"/>
</svg>
