<svg width="39" height="37" viewBox="0 0 39 37" fill="none" xmlns="http://www.w3.org/2000/svg">
<path opacity="0.25" fill-rule="evenodd" clip-rule="evenodd" d="M19.125 36C29.2732 36 37.5 28.165 37.5 18.5C37.5 8.83502 29.2732 1 19.125 1C8.97677 1 0.75 8.83502 0.75 18.5C0.75 28.165 8.97677 36 19.125 36Z" stroke="white" stroke-width="1.5"/>
<g clip-path="url(#clip0_2322_152505)">
<path d="M25.8346 14.0815L23.7221 24.044C23.5626 24.747 23.1471 24.922 22.5566 24.591L19.3376 22.219L17.7846 23.713C17.6126 23.885 17.4691 24.0285 17.1376 24.0285L17.3691 20.7505L23.3346 15.36C23.5941 15.129 23.2781 15.0005 22.9316 15.232L15.5566 19.876L12.3816 18.882C11.6911 18.6665 11.6786 18.1915 12.5256 17.86L24.9441 13.0755C25.5191 12.86 26.0221 13.2035 25.8346 14.082V14.0815Z" fill="white"/>
</g>
<defs>
<clipPath id="clip0_2322_152505">
<rect width="14.5" height="12" fill="white" transform="translate(11.75 13)"/>
</clipPath>
</defs>
</svg>
