<svg width="46" height="51" viewBox="0 0 46 51" fill="none" xmlns="http://www.w3.org/2000/svg">
<g clip-path="url(#clip0_387_816)">
<path d="M35.8381 4.96931H44.4095V46.1122C44.4095 47.0215 44.0483 47.8936 43.4053 48.5365C42.7623 49.1795 41.8903 49.5407 40.981 49.5407H6.69525C5.78593 49.5407 4.91386 49.1795 4.27088 48.5365C3.6279 47.8936 3.26667 47.0215 3.26667 46.1122V4.96931H11.8381M15.2667 28.9693L22.1238 35.8265L34.1238 22.1122M13.5524 1.54074H34.1238V8.39788C34.1238 9.3072 33.7626 10.1793 33.1196 10.8223C32.4766 11.4652 31.6046 11.8265 30.6952 11.8265H16.981C16.0716 11.8265 15.1996 11.4652 14.5566 10.8223C13.9136 10.1793 13.5524 9.3072 13.5524 8.39788V1.54074Z" stroke="#8B8682" stroke-width="2.84444"/>
</g>
<defs>
<clipPath id="clip0_387_816">
<rect width="45" height="51" fill="white" transform="translate(0.948151)"/>
</clipPath>
</defs>
</svg>
