<svg width="25" height="20" viewBox="0 0 25 20" fill="none" xmlns="http://www.w3.org/2000/svg">
<g clip-path="url(#clip0_6002_2568)">
<rect x="1" y="1" width="23" height="18" rx="3" stroke="#CCC4BE" stroke-width="2"/>
<path d="M9.54562 5.55052C9.49076 5.518 9.42827 5.50057 9.3645 5.50001C9.30072 5.49946 9.23793 5.51579 9.18251 5.54735C9.12709 5.57892 9.08102 5.62459 9.04896 5.67972C9.0169 5.73486 9.00001 5.7975 9 5.86128V14.2287C9.00001 14.2925 9.0169 14.3551 9.04896 14.4103C9.08102 14.4654 9.12709 14.5111 9.18251 14.5426C9.23793 14.5742 9.30072 14.5905 9.3645 14.59C9.42827 14.5894 9.49076 14.572 9.54562 14.5395L16.6056 10.3558C16.6595 10.3238 16.7042 10.2783 16.7352 10.2238C16.7663 10.1693 16.7826 10.1077 16.7826 10.045C16.7826 9.9823 16.7663 9.92068 16.7352 9.8662C16.7042 9.81172 16.6595 9.76624 16.6056 9.73425L9.54562 5.55052Z" stroke="#CCC4BE" stroke-width="1.5" stroke-linecap="round" stroke-linejoin="round"/>
</g>
<defs>
<clipPath id="clip0_6002_2568">
<rect width="25" height="20" fill="white"/>
</clipPath>
</defs>
</svg>
