<svg width="18" height="20" viewBox="0 0 18 20" fill="none" xmlns="http://www.w3.org/2000/svg">
<path fill-rule="evenodd" clip-rule="evenodd" d="M14.6106 10.8793C14.8507 10.7298 15.0404 10.4267 15.0404 10.0001C15.0404 9.57379 14.8508 9.26992 14.6101 9.11963M14.6101 9.11963L3.97898 2.49379C3.97893 2.49376 3.97903 2.49382 3.97898 2.49379C3.85101 2.41408 3.75376 2.39874 3.68186 2.40008C3.60081 2.40159 3.49941 2.42643 3.39076 2.49402C3.17806 2.62636 2.95951 2.91237 2.95951 3.37436V16.6262C2.95951 17.0883 3.1781 17.3741 3.39049 17.5062C3.49897 17.5737 3.60017 17.5984 3.68101 17.5999C3.75274 17.6012 3.84985 17.586 3.97803 17.506L14.6106 10.8793M5.24826 0.456895L15.8795 7.08283C17.9608 8.38053 17.9608 11.6201 15.8795 12.9164L5.24826 19.5423C3.16576 20.8414 0.559509 19.2203 0.559509 16.6262V3.37436C0.559509 0.780309 3.16576 -0.840802 5.24826 0.456895Z" fill="#CCC4BE"/>
</svg>
