<svg width="25" height="20" viewBox="0 0 25 20" fill="none" xmlns="http://www.w3.org/2000/svg">
<path fill-rule="evenodd" clip-rule="evenodd" d="M18.6107 10.8793C18.8508 10.7298 19.0405 10.4267 19.0405 10.0001C19.0405 9.57379 18.8509 9.26992 18.6102 9.11963M18.6102 9.11963L7.97904 2.49379C7.97909 2.49382 7.97899 2.49376 7.97904 2.49379C7.85107 2.41408 7.75382 2.39874 7.68192 2.40008C7.60087 2.40159 7.49947 2.42643 7.39082 2.49402C7.17812 2.62636 6.95957 2.91237 6.95957 3.37436V16.6262C6.95957 17.0883 7.17816 17.3741 7.39055 17.5062C7.49903 17.5737 7.60023 17.5984 7.68107 17.5999C7.7528 17.6012 7.84991 17.586 7.97809 17.506L18.6107 10.8793M9.24832 0.456895L19.8796 7.08283C21.9609 8.38053 21.9609 11.6201 19.8796 12.9164L9.24832 19.5423C7.16582 20.8414 4.55957 19.2203 4.55957 16.6262V3.37436C4.55957 0.780309 7.16582 -0.840802 9.24832 0.456895Z" fill="#CCC4BE"/>
</svg>
