<svg width="39" height="37" viewBox="0 0 39 37" fill="none" xmlns="http://www.w3.org/2000/svg">
<path opacity="0.25" fill-rule="evenodd" clip-rule="evenodd" d="M19.875 36C30.0232 36 38.25 28.165 38.25 18.5C38.25 8.83502 30.0232 1 19.875 1C9.72677 1 1.5 8.83502 1.5 18.5C1.5 28.165 9.72677 36 19.875 36Z" stroke="white" stroke-width="1.5"/>
<path d="M25.8813 15.2647C25.796 15.1729 25.6585 15.1498 25.5458 15.2064C25.4756 15.2416 25.3438 15.2878 25.1872 15.3334C25.3847 15.0762 25.5435 14.7882 25.6136 14.5293C25.6439 14.4177 25.5996 14.3001 25.5031 14.2336C25.4066 14.1677 25.2781 14.1677 25.1816 14.2336C25.0296 14.3375 24.2957 14.6497 23.8317 14.7508C22.7831 13.8511 21.5628 13.7577 20.2942 14.4831C19.263 15.0729 19.0386 16.2721 19.0824 17.0031C16.722 16.7805 15.2548 15.5593 14.4289 14.5485C14.3712 14.4776 14.278 14.4403 14.1905 14.4458C14.0985 14.4524 14.0154 14.5024 13.9683 14.5799C13.5778 15.2257 13.4695 15.9396 13.6564 16.6447C13.7585 17.0295 13.9369 17.3686 14.1439 17.6434C14.0446 17.5956 13.9487 17.5357 13.8584 17.4642C13.7753 17.3972 13.6592 17.3845 13.561 17.429C13.4634 17.4747 13.4011 17.5714 13.4011 17.6775C13.4011 18.8882 14.1742 19.6962 14.8963 20.1183C14.7796 20.1045 14.6579 20.0792 14.535 20.0424C14.4295 20.0111 14.3151 20.0424 14.2421 20.1238C14.1692 20.2046 14.1518 20.32 14.1972 20.4184C14.6029 21.2972 15.3715 21.9017 16.3225 22.121C15.4922 22.5986 14.3807 22.8328 13.3629 22.7179C13.2311 22.6998 13.1054 22.7817 13.0639 22.9059C13.0224 23.0301 13.0768 23.1664 13.1929 23.2301C14.737 24.0793 16.1329 24.3827 17.3392 24.3827C19.0947 24.3827 20.4497 23.7407 21.2744 23.2038C23.4979 21.7583 24.8837 19.163 24.6907 16.841C25.047 16.5832 25.58 16.1072 25.9104 15.5955C25.9789 15.4922 25.9665 15.3559 25.8813 15.2647Z" fill="white"/>
</svg>
