<svg width="24" height="24" viewBox="0 0 24 24" fill="none" xmlns="http://www.w3.org/2000/svg">
<g clip-path="url(#clip0_137_16868)">
<path d="M12 24C18.6274 24 24 18.6274 24 12C24 5.37258 18.6274 0 12 0C5.37258 0 0 5.37258 0 12C0 18.6274 5.37258 24 12 24Z" fill="#3E73C4"/>
<path d="M15.0164 13.593C15.0164 12 14.0564 11.454 12.1364 11.226C10.7654 11.0438 10.4917 10.68 10.4917 10.0425C10.4917 9.405 10.9492 8.9955 11.8627 8.9955C12.6854 8.9955 13.1429 9.2685 13.3709 9.95175C13.3947 10.0178 13.4381 10.075 13.4954 10.1157C13.5526 10.1563 13.621 10.1784 13.6912 10.179H14.4224C14.4647 10.1801 14.5067 10.1727 14.5459 10.1571C14.5852 10.1415 14.6209 10.1181 14.6508 10.0883C14.6808 10.0584 14.7044 10.0229 14.7202 9.98368C14.7359 9.94448 14.7436 9.9025 14.7427 9.86025V9.81525C14.6533 9.32093 14.4032 8.86996 14.0312 8.53239C13.6592 8.19483 13.1861 7.98957 12.6854 7.9485V6.8565C12.6854 6.67425 12.5482 6.53775 12.3202 6.492H11.6339C11.4517 6.492 11.3144 6.6285 11.2687 6.8565V7.9035C9.89692 8.085 9.02917 8.9955 9.02917 10.134C9.02917 11.6355 9.94267 12.2273 11.8627 12.4553C13.1429 12.6825 13.5539 12.9563 13.5539 13.6845C13.5539 14.412 12.9142 14.913 12.0457 14.913C10.8569 14.913 10.4459 14.4128 10.3087 13.7295C10.2637 13.548 10.1257 13.4565 9.98842 13.4565H9.21142C9.16925 13.4555 9.1273 13.463 9.08813 13.4787C9.04895 13.4943 9.01335 13.5177 8.98349 13.5475C8.95362 13.5773 8.93011 13.6129 8.91437 13.652C8.89863 13.6912 8.891 13.7331 8.89192 13.7753V13.8203C9.07417 14.9588 9.80617 15.7778 11.3144 16.0058V17.0985C11.3144 17.28 11.4517 17.4173 11.6797 17.4623H12.3659C12.5482 17.4623 12.6854 17.3258 12.7312 17.0985V16.005C14.1029 15.7778 15.0164 14.8215 15.0164 13.5923V13.593Z" fill="white"/>
<path d="M9.66897 18.3727C6.10347 17.0977 4.27497 13.1377 5.60097 9.633C6.28647 7.7205 7.79472 6.26475 9.66897 5.5815C9.85197 5.49075 9.94272 5.35425 9.94272 5.12625V4.48875C9.94272 4.30725 9.85197 4.17075 9.66897 4.125C9.62322 4.125 9.53172 4.125 9.48597 4.17C8.45729 4.49124 7.50232 5.0128 6.67604 5.70463C5.84976 6.39646 5.16849 7.24491 4.67145 8.20112C4.17442 9.15733 3.87145 10.2024 3.77998 11.2762C3.6885 12.35 3.81034 13.4312 4.13847 14.4578C4.96047 17.0078 6.92622 18.9653 9.48597 19.7843C9.66897 19.875 9.85197 19.7842 9.89697 19.602C9.94272 19.557 9.94272 19.5105 9.94272 19.4198V18.7822C9.94272 18.6457 9.80622 18.4642 9.66897 18.3727ZM14.514 4.17075C14.331 4.07925 14.148 4.17075 14.103 4.35225C14.0572 4.398 14.0572 4.44375 14.0572 4.5345V5.172C14.0572 5.35425 14.1937 5.53575 14.331 5.62725C17.8965 6.90225 19.725 10.8623 18.399 14.367C17.7135 16.2795 16.2052 17.7353 14.331 18.4185C14.148 18.5093 14.0572 18.6458 14.0572 18.8738V19.5112C14.0572 19.6927 14.148 19.8293 14.331 19.875C14.3767 19.875 14.4682 19.875 14.514 19.83C15.5426 19.5088 16.4976 18.9872 17.3239 18.2954C18.1502 17.6035 18.8315 16.7551 19.3285 15.7989C19.8255 14.8427 20.1285 13.7976 20.22 12.7238C20.3114 11.65 20.1896 10.5688 19.8615 9.54225C19.0395 6.94725 17.028 4.98975 14.514 4.17075Z" fill="white"/>
</g>
<defs>
<clipPath id="clip0_137_16868">
<rect width="24" height="24" fill="white"/>
</clipPath>
</defs>
</svg>
