<svg width="14" height="16" viewBox="0 0 14 16" fill="none" xmlns="http://www.w3.org/2000/svg">
<path id="Vector" fill-rule="evenodd" clip-rule="evenodd" d="M6.51167 0C5.57416 0 4.67505 0.372424 4.01213 1.03534C3.34921 1.69826 2.97679 2.59737 2.97679 3.53488C2.97679 4.47239 3.34921 5.3715 4.01213 6.03442C4.67505 6.69734 5.57416 7.06977 6.51167 7.06977C7.44918 7.06977 8.34829 6.69734 9.01121 6.03442C9.67413 5.3715 10.0466 4.47239 10.0466 3.53488C10.0466 2.59737 9.67413 1.69826 9.01121 1.03534C8.34829 0.372424 7.44918 0 6.51167 0ZM4.09306 3.53488C4.09306 2.89343 4.34788 2.27825 4.80146 1.82467C5.25503 1.3711 5.87022 1.11628 6.51167 1.11628C7.15312 1.11628 7.7683 1.3711 8.22188 1.82467C8.67546 2.27825 8.93027 2.89343 8.93027 3.53488C8.93027 4.17634 8.67546 4.79152 8.22188 5.2451C7.7683 5.69867 7.15312 5.95349 6.51167 5.95349C5.87022 5.95349 5.25503 5.69867 4.80146 5.2451C4.34788 4.79152 4.09306 4.17634 4.09306 3.53488ZM6.51167 8.18605C4.79037 8.18605 3.20376 8.57749 2.02869 9.23833C0.870739 9.89023 4.16014e-05 10.877 4.16014e-05 12.093V12.1689C-0.000702585 13.0337 -0.00144683 14.1187 0.950367 14.8941C1.41846 15.2752 2.07409 15.5468 2.95967 15.7254C3.84674 15.9055 5.00395 16 6.51167 16C8.01939 16 9.17586 15.9055 10.0644 15.7254C10.95 15.5468 11.6049 15.2752 12.0737 14.8941C13.0255 14.1187 13.024 13.0337 13.0233 12.1689V12.093C13.0233 10.877 12.1526 9.89023 10.9954 9.23833C9.81958 8.57749 8.23372 8.18605 6.51167 8.18605ZM1.11632 12.093C1.11632 11.4597 1.5792 10.7721 2.57567 10.2117C3.55502 9.66102 4.94516 9.30233 6.51241 9.30233C8.07818 9.30233 9.46832 9.66102 10.4477 10.2117C11.4449 10.7721 11.907 11.4597 11.907 12.093C11.907 13.0664 11.8772 13.6141 11.3682 14.0279C11.0929 14.2527 10.6315 14.4722 9.84265 14.6314C9.05604 14.7907 7.98069 14.8837 6.51167 14.8837C5.04265 14.8837 3.96655 14.7907 3.18069 14.6314C2.39186 14.4722 1.93046 14.2527 1.65511 14.0287C1.14609 13.6141 1.11632 13.0664 1.11632 12.093Z" fill="white"/>
</svg>
