<svg width="131" height="150" viewBox="0 0 131 150" fill="none" xmlns="http://www.w3.org/2000/svg">
<g clip-path="url(#clip0_387_824)">
<path d="M122.805 145.313C122.77 144.9 122.805 144.454 122.805 144.042C122.77 141.431 121.568 140.194 118.957 140.194C113.598 140.194 108.239 140.16 102.88 140.228C101.952 140.228 101.677 140.057 101.643 139.06C101.265 131.503 100.818 123.91 100.372 116.353C100.097 112.024 97.6922 109.138 93.4667 108.005C92.7796 107.833 92.0582 107.593 91.3368 107.489C90.581 107.352 90.3405 107.009 90.3405 106.218C90.4092 103.058 90.3749 99.863 90.3405 96.7025C90.3062 94.5726 88.932 93.1984 86.8021 93.1297C86.2525 93.0954 85.7028 93.1297 85.1188 93.1297C81.7178 93.1297 78.3168 93.1297 74.8814 93.1297C74.9158 92.9236 74.9158 92.8205 74.9845 92.7862C78.4199 89.66 80.6185 85.8468 81.3743 81.2434C81.4773 80.5563 81.8896 80.625 82.3705 80.5563C89.4473 79.8349 92.9858 72.0023 88.8633 66.2309C88.5885 65.853 88.245 65.5438 88.245 64.9942C88.2793 63.1391 88.245 61.284 88.245 59.4289C88.245 42.4582 81.2025 40.3283 77.2518 40.2253C77.1488 40.2253 77.0114 40.2253 76.8739 40.2253C75.225 40.0878 73.6104 40.3283 72.0988 40.981C71.5148 41.2215 71.2056 41.1185 70.8277 40.6375C69.0757 38.5763 66.8771 37.2365 64.2318 36.7212C61.621 36.2059 58.9414 36.412 56.2962 36.4807C46.3336 36.6525 38.2605 43.4201 36.3368 53.1765C35.6497 56.7493 36.0276 60.3564 35.9589 63.9292C35.9589 64.6163 35.7871 65.0972 35.3061 65.6469C32.9701 68.3952 32.3517 71.5213 33.6915 74.888C35.0313 78.289 37.6422 80.1784 41.2837 80.5907C41.9364 80.6594 42.2112 80.7968 42.3486 81.5182C43.1044 85.778 45.0969 89.3852 48.1887 92.4083C48.3948 92.6144 48.8414 92.7175 48.704 93.1984C44.7877 93.1984 40.9058 93.1641 36.9895 93.1984C34.6878 93.1984 33.3136 94.6069 33.3136 96.8742C33.2793 99.3133 33.3136 101.752 33.3136 104.192C33.3136 105.222 33.6228 106.493 33.1075 107.18C32.6609 107.799 31.3211 107.764 30.3592 108.005C25.8589 109.173 23.5229 112.093 23.2824 116.731C23.0419 121.506 22.7327 126.315 22.4923 131.09C22.4579 131.812 22.2518 132.018 21.5304 131.984C18.9882 131.949 16.4804 131.949 13.9382 131.984C11.3274 132.018 9.19744 133.736 8.51037 136.278C8.23554 137.308 8.3386 138.339 8.3386 139.335C8.3386 139.988 8.20119 140.228 7.51412 140.194C6.3461 140.125 5.21243 140.16 4.04441 140.194C2.70462 140.263 1.67401 140.915 1.12436 142.152C-0.00931114 144.694 0.952588 147.992 3.18557 149.435C42.1769 149.435 81.1681 149.435 120.159 149.435C122.152 148.748 123.011 147.374 122.805 145.313ZM82.5766 65.1316C85.6341 65.5095 88.1076 68.4295 88.0388 71.7275C87.9701 74.8536 85.3936 77.705 82.4392 77.9798C81.7865 78.0485 81.6491 77.808 81.6491 77.224C81.6834 75.3346 81.6491 73.4451 81.6491 71.59C81.6491 69.7349 81.6834 67.9142 81.6491 66.0591C81.6491 65.3377 81.8209 65.0285 82.5766 65.1316ZM42.0051 71.6587C42.0051 73.5138 41.9707 75.3346 42.0051 77.1897C42.0394 77.9454 41.7646 78.0485 41.1119 77.9798C38.1575 77.6019 35.684 74.8536 35.6153 71.7962C35.5466 68.5326 37.8483 65.7156 40.9401 65.2003C41.799 65.0629 42.0394 65.3033 42.0394 66.1622C41.9707 67.9829 42.0051 69.8037 42.0051 71.6587ZM90.4436 109.997C90.8558 110.066 91.1994 110.1 91.5429 110.169C96.2837 111.303 97.6578 113.055 97.8296 117.933C97.967 121.712 98.2419 125.456 98.4823 129.201C98.551 130.025 98.4136 130.335 97.5204 130.3C95.4592 130.232 93.398 130.266 91.3368 130.266C90.8902 130.266 90.4092 130.369 90.4092 129.613C90.4436 123.086 90.4436 116.559 90.4436 109.997ZM90.3405 133.426C90.4092 132.808 90.8558 132.945 91.1994 132.945C93.4324 132.945 95.631 132.945 97.864 132.911C98.5167 132.911 98.7915 133.083 98.7915 133.77C98.8602 135.659 98.9633 137.514 99.1007 139.404C99.135 140.022 98.9289 140.194 98.3106 140.194C96.2493 140.16 94.2225 140.194 91.9895 140.194C92.4705 139.06 92.9171 138.133 92.9171 137.102C92.9171 135.625 92.333 134.663 90.9933 134.113C90.6841 133.976 90.3062 134.01 90.3405 133.426ZM44.616 78.5638C44.4785 73.823 44.5816 69.0479 44.5472 64.3071C44.5472 63.4139 44.8221 63.4139 45.5779 63.517C53.0669 64.4789 59.6972 62.8299 64.9189 57.0241C65.3312 56.5432 65.606 56.5775 66.0526 56.9554C69.4879 59.7724 73.5416 61.0091 77.9045 61.284C78.9352 61.3527 79.1413 61.7306 79.1413 62.6581C79.0726 65.4064 79.1069 68.1547 79.1069 71.487C78.9352 74.2696 79.4505 77.6706 78.8321 81.0373C77.9046 86.0529 75.1906 89.9005 70.9308 92.6831C70.4155 93.0266 69.8658 93.1641 69.2475 93.1641C64.3349 93.1297 59.388 93.1297 54.4754 93.1641C53.7884 93.1641 53.2043 92.9579 52.689 92.5801C47.6734 89.2134 44.8221 84.61 44.616 78.5638ZM35.8558 97.2521C35.8558 95.9811 36.3368 95.6375 37.5391 95.6719C45.6466 95.7062 53.7196 95.7062 61.8271 95.7062C69.9345 95.7062 78.0076 95.7062 86.1151 95.7062C87.764 95.7062 87.8327 95.7749 87.8327 97.4583C87.8327 109.07 87.8327 120.681 87.8671 132.258C87.8671 133.495 87.4892 133.907 86.2525 133.907C69.9689 133.873 53.7196 133.873 37.4361 133.907C36.268 133.907 35.8902 133.529 35.8902 132.327C35.8902 120.647 35.8902 108.967 35.8558 97.2521ZM34.4817 136.553C43.6541 136.553 52.7921 136.553 61.9645 136.553C70.9995 136.553 80.0345 136.553 89.0695 136.553C90.5123 136.553 90.7184 136.862 90.1001 138.167C89.4817 139.507 88.3824 140.125 86.9052 140.16C85.3593 140.194 83.8134 140.16 82.2675 140.16C67.2893 140.16 52.2768 140.16 37.2986 140.16C35.2718 140.16 34.1038 139.473 33.5198 137.927C33.0732 136.724 33.1762 136.553 34.4817 136.553ZM25.2062 129.544C25.481 125.182 25.6871 120.819 25.9963 116.456C26.2368 113.192 27.8858 111.303 31.0119 110.478C31.699 110.306 32.4204 110.135 33.2793 109.963C33.2793 116.559 33.2793 123.086 33.2793 129.579C33.2793 130.128 33.1075 130.335 32.5579 130.3C30.3249 130.266 28.0919 130.266 25.8933 130.3C25.2406 130.335 25.1718 130.094 25.2062 129.544ZM32.6266 132.945C32.9701 132.945 33.3136 132.911 33.3136 133.426C33.3136 133.77 33.2106 133.907 32.867 134.045C30.8745 134.904 30.2905 136.14 30.8745 138.236C31.0463 138.854 31.2868 139.438 31.596 140.194C30.3592 140.194 29.1912 140.16 28.0232 140.194C27.4735 140.194 27.4048 139.954 27.4048 139.507C27.4048 138.579 27.4392 137.618 27.3361 136.69C27.13 135.247 26.3742 134.079 25.0001 132.945C27.7484 132.945 30.1875 132.945 32.6266 132.945ZM10.9495 139.404C11.0182 138.751 10.9495 138.133 10.9838 137.48C11.0869 135.831 12.3236 134.56 13.9726 134.526C16.5835 134.457 19.1943 134.457 21.8052 134.526C23.5916 134.56 24.7596 135.866 24.8283 137.686C24.9314 140.16 24.9314 140.16 22.5266 140.16C20.9464 140.16 19.3661 140.16 17.7858 140.16C15.759 140.16 13.7665 140.125 11.7396 140.16C11.1212 140.194 10.8808 140.057 10.9495 139.404ZM118.579 146.824C80.7559 146.79 42.967 146.79 5.14372 146.824C3.80393 146.824 3.4604 146.378 3.5291 145.107C3.63217 142.668 3.28863 142.805 5.83079 142.805C24.5191 142.805 43.1731 142.805 61.8614 142.805C80.6872 142.805 99.5473 142.805 118.373 142.805C120.159 142.805 120.159 142.805 120.159 144.557C120.159 144.763 120.125 145.004 120.159 145.21C120.331 146.412 119.85 146.824 118.579 146.824Z" fill="#8B8682"/>
<g clip-path="url(#clip1_387_824)">
<path d="M101.623 36.5771C101.623 34.9536 102.026 33.3787 102.8 31.95C103.573 30.5376 104.685 29.3361 106.023 28.4594C107.376 27.599 108.923 27.0794 110.518 26.982C112.114 26.8684 113.709 27.1768 115.159 27.8587C116.61 28.5406 117.867 29.5797 118.817 30.8785C119.768 32.1773 120.364 33.7034 120.574 35.3107C120.783 36.918 120.59 38.5415 120.01 40.0514C119.43 41.5613 118.479 42.8926 117.254 43.9317C117.061 44.094 116.884 44.2726 116.722 44.4512C115.014 43.4771 113.097 42.9738 111.147 42.9738C109.116 42.9738 107.215 43.5095 105.571 44.4512C105.41 44.2726 105.217 44.094 105.04 43.9317C103.976 43.0387 103.122 41.9023 102.526 40.6359C101.93 39.3695 101.623 37.9895 101.623 36.5771ZM106.538 46.1072C107.94 45.3279 109.535 44.9058 111.147 44.9058C112.823 44.9058 114.386 45.3441 115.756 46.1072C115.723 46.2208 115.691 46.3345 115.659 46.4481L115.272 48.1204H107.054L106.651 46.4481C106.619 46.3345 106.587 46.2208 106.538 46.1072ZM114.805 50.0361L114.305 52.163C114.192 52.65 113.919 53.0884 113.516 53.3968C113.129 53.7053 112.646 53.8839 112.146 53.8839H110.164C109.664 53.8839 109.181 53.7215 108.794 53.3968C108.407 53.0884 108.134 52.65 108.005 52.163L107.505 50.0361H114.805ZM111.147 25.05C108.81 25.05 106.522 25.7806 104.604 27.1281C102.687 28.4919 101.22 30.4077 100.431 32.6319C99.6252 34.8561 99.5285 37.2752 100.125 39.5644C100.737 41.8535 102.01 43.8992 103.815 45.4091C104.331 45.8474 104.669 46.3507 104.798 46.8865L106.151 52.6013C106.361 53.5105 106.877 54.3223 107.602 54.9067C108.327 55.4912 109.229 55.7997 110.164 55.7997H112.146C113.064 55.7997 113.967 55.4912 114.692 54.9067C115.417 54.3223 115.933 53.5105 116.142 52.6013L117.496 46.8865C117.625 46.3507 117.979 45.8312 118.495 45.4091C120.284 43.883 121.573 41.8373 122.185 39.5644C122.798 37.2752 122.685 34.8561 121.879 32.6319C121.073 30.4077 119.623 28.4919 117.705 27.1281C115.772 25.7806 113.483 25.05 111.147 25.05Z" fill="#8B8682"/>
<path d="M96.0317 49.3705C95.9028 49.2082 95.7577 49.0296 95.6288 48.8672C95.3549 48.5101 95.4355 48.0068 95.8061 47.747L99.8185 44.9221C100.157 44.6785 100.624 44.7597 100.882 45.0844C100.898 45.1007 100.898 45.1007 100.914 45.1169C101.172 45.4416 101.124 45.9124 100.818 46.1884L97.1597 49.4517C96.8213 49.7602 96.3217 49.7277 96.0317 49.3705ZM126.584 47.5847L122.556 44.8084C122.217 44.5649 122.121 44.1103 122.33 43.7531C122.33 43.7369 122.346 43.7369 122.346 43.7207C122.556 43.3635 123.007 43.2336 123.378 43.4284L127.696 45.7176C128.083 45.9287 128.228 46.4157 128.019 46.8054C127.906 47.0002 127.793 47.1788 127.68 47.3574C127.455 47.7308 126.955 47.8444 126.584 47.5847ZM92.0353 40.8795C91.987 40.6684 91.9548 40.4574 91.9225 40.2463C91.842 39.8079 92.1643 39.4021 92.5993 39.3371L97.4497 38.7202C97.8687 38.6715 98.2393 38.9475 98.3199 39.3696V39.3858C98.4005 39.8079 98.1427 40.1976 97.7398 40.3112L93.0022 41.4964C92.551 41.5938 92.1159 41.3178 92.0353 40.8795ZM129.727 39.1261L124.876 38.5578C124.457 38.5091 124.167 38.1357 124.183 37.7136C124.216 37.2752 124.57 36.9181 125.005 36.9181H129.791C130.258 36.9181 130.645 37.3077 130.629 37.7785C130.629 38.0058 130.613 38.2331 130.597 38.3955C130.565 38.8663 130.162 39.191 129.727 39.1261ZM97.7237 33.6385L92.97 32.4696C92.5349 32.3559 92.2771 31.9176 92.406 31.4955C92.4704 31.2844 92.5349 31.0733 92.5993 30.8785C92.7444 30.4564 93.1956 30.2291 93.6145 30.3915L98.191 32.1124C98.5778 32.2585 98.7872 32.6969 98.6583 33.0865V33.1028C98.5455 33.4924 98.1265 33.7359 97.7237 33.6385ZM123.039 31.5279C123.039 31.5117 123.023 31.5117 123.023 31.4955C122.846 31.1221 123.007 30.6675 123.362 30.4726L127.68 28.1672C128.067 27.9562 128.566 28.1185 128.744 28.5244C128.84 28.7192 128.921 28.9141 129.018 29.1089C129.195 29.5148 128.985 29.9856 128.583 30.1479L124.022 31.9338C123.652 32.0799 123.216 31.9013 123.039 31.5279ZM100.802 27.7451L97.1275 24.4818C96.7891 24.1896 96.7729 23.67 97.0791 23.3453C97.2241 23.183 97.3853 23.0369 97.5303 22.8907C97.8526 22.5823 98.3521 22.5985 98.6583 22.9395L101.93 26.6086C102.203 26.9171 102.187 27.3879 101.897 27.6964C101.881 27.7126 101.881 27.7126 101.865 27.7289C101.575 28.0049 101.108 28.0211 100.802 27.7451ZM119.172 26.5762C119.156 26.5599 119.156 26.5599 119.14 26.5437C118.817 26.2839 118.737 25.8131 118.978 25.4722L121.75 21.4133C122.008 21.0399 122.507 20.9587 122.862 21.2347C123.039 21.3646 123.2 21.4945 123.362 21.6244C123.7 21.9004 123.748 22.4199 123.458 22.7609L120.235 26.4625C119.961 26.7872 119.494 26.8359 119.172 26.5762ZM106.232 23.946L104.492 19.3514C104.331 18.9293 104.556 18.4585 104.975 18.3286C105.185 18.2637 105.378 18.1987 105.587 18.1338C106.006 18.0039 106.458 18.2637 106.57 18.702L107.763 23.4752C107.86 23.8811 107.634 24.3032 107.231 24.4169H107.215C106.812 24.5467 106.377 24.3357 106.232 23.946ZM113.467 24.011H113.451C113.032 23.9298 112.758 23.5564 112.807 23.1343L113.387 18.2474C113.435 17.8091 113.838 17.4844 114.289 17.5656C114.499 17.598 114.708 17.6305 114.918 17.6792C115.353 17.7604 115.627 18.1987 115.53 18.6371L114.402 23.4265C114.273 23.8324 113.87 24.0759 113.467 24.011Z" fill="#8B8682"/>
<path d="M108.76 33.1495C108.27 32.9412 108.061 32.3346 108.355 31.8934C108.95 31.0111 109.942 30.3677 111.254 30.3677C112.694 30.3677 113.68 31.0233 114.183 31.8444C114.612 32.5491 114.863 33.8665 114.201 34.8468C113.466 35.9314 112.761 36.2623 112.381 36.9608C112.289 37.1263 112.234 37.2611 112.197 37.5368C112.142 37.9841 111.775 38.3334 111.321 38.3334C110.788 38.3334 110.353 37.8738 110.414 37.3407C110.451 37.0282 110.525 36.7035 110.696 36.3971C111.168 35.5454 112.075 35.0429 112.602 34.2892C113.159 33.4988 112.847 32.0221 111.266 32.0221C110.549 32.0221 110.083 32.3959 109.795 32.8432C109.581 33.1924 109.134 33.3027 108.76 33.1495ZM112.485 40.7843C112.485 41.4584 111.934 42.0098 111.26 42.0098C110.586 42.0098 110.034 41.4584 110.034 40.7843C110.034 40.1103 110.586 39.5589 111.26 39.5589C111.934 39.5589 112.485 40.1103 112.485 40.7843Z" fill="url(#paint0_linear_387_824)"/>
</g>
</g>
<defs>
<linearGradient id="paint0_linear_387_824" x1="108.232" y1="36.1888" x2="114.619" y2="36.1888" gradientUnits="userSpaceOnUse">
<stop stop-color="#E9B873"/>
<stop offset="0.369792" stop-color="#FEDD8F"/>
<stop offset="1" stop-color="#B78D51"/>
</linearGradient>
<clipPath id="clip0_387_824">
<rect width="130.833" height="150" fill="white" transform="translate(0.083374)"/>
</clipPath>
<clipPath id="clip1_387_824">
<rect width="39.1667" height="38.3334" fill="white" transform="translate(91.75 17.4999)"/>
</clipPath>
</defs>
</svg>
