<svg width="124" height="150" viewBox="0 0 124 150" fill="none" xmlns="http://www.w3.org/2000/svg">
<g clip-path="url(#clip0_387_825)">
<path d="M123.579 145.807C123.545 145.392 123.579 144.941 123.579 144.525C123.545 141.892 122.332 140.645 119.699 140.645C114.293 140.645 108.888 140.61 103.483 140.679C102.548 140.679 102.27 140.506 102.236 139.501C101.855 131.879 101.404 124.221 100.954 116.598C100.676 112.233 98.2511 109.322 93.9892 108.179C93.2963 108.006 92.5686 107.763 91.841 107.659C91.0787 107.52 90.8362 107.174 90.8362 106.377C90.9055 103.189 90.8708 99.967 90.8362 96.7793C90.8016 94.6311 89.4156 93.2452 87.2674 93.1759C86.713 93.1412 86.1586 93.1759 85.5696 93.1759C82.1393 93.1759 78.7091 93.1759 75.2442 93.1759C75.2789 92.968 75.2789 92.864 75.3482 92.8294C78.813 89.6763 81.0306 85.8303 81.7928 81.1873C81.8968 80.4944 82.3126 80.5637 82.7977 80.4944C89.9353 79.7667 93.5042 71.8668 89.3463 66.0458C89.0691 65.6646 88.7226 65.3528 88.7226 64.7984C88.7573 62.9274 88.7226 61.0563 88.7226 59.1853C88.7226 48.8946 86.1586 44.0437 83.2481 41.7569H42.3624C39.3826 44.6328 37.2344 48.4441 36.3682 52.8792C35.6752 56.4827 36.0563 60.1208 35.987 63.7243C35.987 64.4173 35.8138 64.9024 35.3287 65.4567C32.9726 68.2287 32.3489 71.3817 33.7002 74.7773C35.0515 78.2075 37.6848 80.1132 41.3576 80.529C42.0159 80.5983 42.2931 80.7369 42.4317 81.4645C43.194 85.761 45.2036 89.3991 48.322 92.4482C48.5299 92.6561 48.9804 92.7601 48.8418 93.2452C44.8918 93.2452 40.9765 93.2105 37.0265 93.2452C34.705 93.2452 33.3191 94.6658 33.3191 96.9526C33.2844 99.4126 33.3191 101.873 33.3191 104.333C33.3191 105.372 33.6309 106.654 33.1112 107.347C32.6607 107.971 31.3094 107.936 30.3393 108.179C25.8003 109.357 23.4441 112.302 23.2016 116.98C22.9591 121.796 22.6472 126.647 22.4047 131.463C22.37 132.19 22.1621 132.398 21.4345 132.364C18.8705 132.329 16.3411 132.329 13.7771 132.364C11.1438 132.398 8.99556 134.131 8.30258 136.695C8.02539 137.734 8.12934 138.774 8.12934 139.779C8.12934 140.437 7.99074 140.679 7.29776 140.645C6.1197 140.576 4.97629 140.61 3.79823 140.645C2.44692 140.714 1.40745 141.372 0.853072 142.62C-0.29034 145.184 0.679828 148.51 2.932 149.965C42.2585 149.965 81.585 149.965 120.911 149.965C122.921 149.272 123.787 147.852 123.579 145.807ZM83.0056 64.937C86.0893 65.3182 88.584 68.2633 88.5147 71.5896C88.4454 74.7426 85.8468 77.6185 82.867 77.8957C82.2086 77.965 82.07 77.7225 82.07 77.1334C82.1047 75.2277 82.07 73.322 82.07 71.451C82.07 69.58 82.1047 67.7436 82.07 65.8725C82.07 65.1103 82.2433 64.8331 83.0056 64.937ZM42.0852 71.4857C42.0852 73.3567 42.0506 75.1931 42.0852 77.0641C42.1199 77.8264 41.8427 77.9303 41.1844 77.861C38.2046 77.4799 35.7098 74.708 35.6405 71.6243C35.5712 68.3326 37.8927 65.4914 41.0111 64.9717C41.8773 64.8331 42.1199 65.0756 42.1199 65.9418C42.0506 67.7782 42.0852 69.6493 42.0852 71.4857ZM90.9401 110.188C91.3559 110.258 91.7024 110.292 92.0489 110.362C96.8305 111.505 98.2164 113.272 98.3897 118.192C98.5283 122.004 98.8054 125.78 99.048 129.557C99.1173 130.389 98.9787 130.701 98.0778 130.666C95.9989 130.597 93.92 130.631 91.841 130.631C91.3906 130.631 90.9055 130.735 90.9055 129.973C90.9401 123.39 90.9401 116.806 90.9401 110.188ZM90.8362 133.819C90.9055 133.195 91.3559 133.334 91.7024 133.334C93.9546 133.334 96.1721 133.334 98.4243 133.299C99.0826 133.299 99.3598 133.472 99.3598 134.165C99.4291 136.071 99.5331 137.942 99.6717 139.848C99.7063 140.472 99.4984 140.645 98.8747 140.645C96.7958 140.61 94.7515 140.645 92.4993 140.645C92.9844 139.501 93.4349 138.566 93.4349 137.526C93.4349 136.037 92.8458 135.066 91.4945 134.512C91.1827 134.339 90.8016 134.408 90.8362 133.819ZM44.7186 78.4847C44.58 73.7032 44.6839 68.887 44.6492 64.1054C44.6492 63.2046 44.9264 63.2046 45.6887 63.3085C53.2422 64.2787 59.9294 62.6155 65.196 56.7599C65.6118 56.2748 65.889 56.3094 66.3394 56.6906C69.8043 59.5318 73.8929 60.7792 78.2933 61.0563C79.3328 61.1256 79.5407 61.5068 79.5407 62.4423C79.4714 65.2142 79.506 67.9861 79.506 71.3471C79.3328 74.1536 79.8525 77.5839 79.2288 80.9794C78.2933 86.0382 75.5561 89.9189 71.2596 92.7254C70.7399 93.0719 70.1855 93.2105 69.5618 93.2105C64.607 93.1759 59.6176 93.1759 54.6628 93.2105C53.9698 93.2105 53.3808 93.0026 52.861 92.6215C47.8023 89.2259 44.9264 84.5829 44.7186 78.4847ZM35.8831 97.3337C35.8831 96.0517 36.3682 95.7052 37.5809 95.7399C45.758 95.7745 53.9005 95.7745 62.0776 95.7745C70.2548 95.7745 78.3973 95.7745 86.5744 95.7745C88.2375 95.7745 88.3068 95.8438 88.3068 97.5416C88.3068 109.253 88.3068 120.964 88.3415 132.641C88.3415 133.888 87.9603 134.304 86.713 134.304C70.2894 134.269 53.9005 134.269 37.4769 134.304C36.2989 134.304 35.9177 133.923 35.9177 132.71C35.9177 120.93 35.9177 109.114 35.8831 97.3337ZM34.4971 136.972C43.7484 136.972 52.965 136.972 62.2162 136.972C71.3289 136.972 80.4415 136.972 89.5542 136.972C91.0094 136.972 91.2173 137.284 90.5937 138.601C89.97 139.952 88.8612 140.576 87.3713 140.61C85.8121 140.645 84.2529 140.61 82.6937 140.61C67.5868 140.61 52.4452 140.61 37.3383 140.61C35.2941 140.61 34.116 139.917 33.527 138.358C33.0765 137.145 33.1805 136.972 34.4971 136.972ZM25.1419 129.904C25.4191 125.503 25.627 121.103 25.9389 116.702C26.1814 113.411 27.8445 111.505 30.9976 110.674C31.6906 110.5 32.4182 110.327 33.2844 110.154C33.2844 116.806 33.2844 123.39 33.2844 129.938C33.2844 130.493 33.1112 130.701 32.5568 130.666C30.3046 130.631 28.0524 130.631 25.8349 130.666C25.1766 130.701 25.1073 130.458 25.1419 129.904ZM32.6261 133.334C32.9726 133.334 33.3191 133.299 33.3191 133.819C33.3191 134.165 33.2151 134.304 32.8686 134.443C30.859 135.309 30.27 136.556 30.859 138.67C31.0322 139.294 31.2748 139.883 31.5866 140.645C30.3393 140.645 29.1612 140.61 27.9831 140.645C27.4288 140.645 27.3595 140.402 27.3595 139.952C27.3595 139.016 27.3941 138.046 27.2902 137.111C27.0823 135.655 26.32 134.477 24.934 133.334C27.7059 133.334 30.166 133.334 32.6261 133.334ZM10.7626 139.848C10.8319 139.19 10.7626 138.566 10.7973 137.908C10.9012 136.244 12.1486 134.962 13.8118 134.928C16.4451 134.858 19.0784 134.858 21.7117 134.928C23.5134 134.962 24.6915 136.279 24.7608 138.115C24.8647 140.61 24.8647 140.61 22.4393 140.61C20.8455 140.61 19.2516 140.61 17.6578 140.61C15.6135 140.61 13.6039 140.576 11.5596 140.61C10.9359 140.645 10.6934 140.506 10.7626 139.848ZM119.318 147.332C81.1692 147.297 43.0554 147.297 4.90699 147.332C3.55568 147.332 3.2092 146.882 3.27849 145.6C3.38244 143.14 3.03595 143.278 5.59997 143.278C24.449 143.278 43.2633 143.278 62.1123 143.278C81.0999 143.278 100.122 143.278 119.11 143.278C120.911 143.278 120.911 143.278 120.911 145.045C120.911 145.253 120.877 145.496 120.911 145.704C121.085 146.916 120.6 147.332 119.318 147.332Z" fill="#8B8682"/>
<path d="M62.1815 116.321C60.9688 116.321 59.7561 116.321 58.5781 116.321C57.7811 116.321 57.2267 116.009 57.1574 115.143C57.0881 114.242 57.6425 113.757 58.4741 113.723C60.8995 113.688 63.2903 113.688 65.7157 113.723C66.5473 113.723 67.1017 114.208 67.067 115.109C67.0324 115.94 66.478 116.321 65.6811 116.321C64.503 116.321 63.3249 116.321 62.1815 116.321Z" fill="#8B8682"/>
<path d="M36.8879 9.25125C37.0612 9.2859 37.1998 9.2859 37.373 9.35519C41.219 10.7065 45.0651 12.0925 48.9457 13.4784C49.0497 13.5131 49.1883 13.5824 49.3269 13.6517C49.0843 14.1714 48.8071 14.6565 48.5992 15.1762C47.9409 16.6315 48.1488 18.0174 49.0843 19.2648C49.7773 20.1656 50.7821 20.4428 51.8216 20.6161C52.0641 20.6507 52.3413 20.6854 52.6185 20.6854C54.3856 20.7893 55.5983 20.027 56.222 18.3292C56.6031 17.2551 56.9496 16.2157 57.2961 15.1069C57.3308 14.9337 57.2268 14.6565 57.1229 14.5525C56.1873 13.5824 55.2518 12.6468 54.247 11.6767C56.8457 7.796 59.4097 3.94997 62.043 0C64.6417 3.91532 67.2403 7.796 69.839 11.6767C68.9035 12.6122 67.968 13.5824 66.9978 14.4832C66.7553 14.7258 66.686 14.9337 66.8245 15.2801C67.171 16.181 67.4482 17.1512 67.7601 18.0521C68.4184 19.9924 70.0122 20.9626 72.1258 20.6507C74.2394 20.3735 75.764 18.8836 75.8333 16.9086C75.8333 16.2503 75.5907 15.592 75.4175 14.9683C75.2789 14.4832 75.0017 14.0674 74.7245 13.5477C78.8824 12.0578 82.9709 10.6026 87.1634 9.11265C86.8516 10.36 86.5398 11.5034 86.2626 12.6468C84.7727 18.4332 83.2481 24.1849 81.7929 29.9713C81.6543 30.4564 81.481 30.5949 80.9613 30.5949C76.9767 30.5603 72.9921 30.5603 68.9728 30.5949C68.6609 30.5949 68.4184 30.491 68.2105 30.2831C66.3048 28.3428 64.3645 26.4371 62.4588 24.5314C62.3202 24.3928 62.2162 24.2542 62.0777 24.081C61.9044 24.2542 61.7658 24.3582 61.6272 24.4967C59.7215 26.4024 57.7812 28.3428 55.8755 30.2485C55.633 30.491 55.3904 30.6296 55.0093 30.5949C50.99 30.5949 47.0054 30.5603 42.9861 30.5949C42.5357 30.5949 42.3971 30.4564 42.2585 30.0406C40.4914 23.2147 38.7243 16.3889 36.9572 9.56309C36.9226 9.45914 36.8879 9.38984 36.8533 9.2859C36.8879 9.2859 36.8879 9.2859 36.8879 9.25125Z" fill="#8B8682"/>
<path d="M61.3847 39.089C55.1826 39.089 49.0497 39.089 42.9169 39.089C42.9169 37.1486 42.9169 35.2429 42.9169 33.2333C43.0901 33.2333 43.2634 33.2333 43.4366 33.2333C47.3173 33.2333 51.198 33.2333 55.044 33.2333C55.3558 33.2333 55.5984 33.3026 55.8063 33.5451C57.6426 35.3815 59.4444 37.1833 61.3847 39.089Z" fill="url(#paint0_linear_387_825)"/>
<path d="M81.1345 33.2679C81.1345 35.2083 81.1345 37.1486 81.1345 39.0889C75.0017 39.0889 68.9035 39.0889 62.736 39.0889C62.8399 38.9503 62.9092 38.8464 63.0131 38.7771C64.7456 37.0447 66.5127 35.2776 68.2451 33.5451C68.3837 33.4065 68.6263 33.2679 68.8342 33.2679C72.8534 33.2679 76.8727 33.2679 80.892 33.2679C80.9613 33.2333 81.0306 33.2333 81.1345 33.2679Z" fill="url(#paint1_linear_387_825)"/>
<path d="M61.9737 35.4508C60.761 34.2381 59.5136 32.9907 58.3009 31.778C59.5136 30.5653 60.761 29.3526 61.9737 28.1399C63.1517 29.318 64.3991 30.5653 65.6118 31.8127C64.4684 32.9561 63.221 34.2034 61.9737 35.4508Z" fill="url(#paint2_linear_387_825)"/>
</g>
<defs>
<linearGradient id="paint0_linear_387_825" x1="42.9521" y1="36.1611" x2="61.42" y2="36.1611" gradientUnits="userSpaceOnUse">
<stop stop-color="#E9B873"/>
<stop offset="0.369792" stop-color="#FEDD8F"/>
<stop offset="1" stop-color="#B78D51"/>
</linearGradient>
<linearGradient id="paint1_linear_387_825" x1="62.7711" y1="36.1654" x2="81.1696" y2="36.1654" gradientUnits="userSpaceOnUse">
<stop stop-color="#E9B873"/>
<stop offset="0.369792" stop-color="#FEDD8F"/>
<stop offset="1" stop-color="#B78D51"/>
</linearGradient>
<linearGradient id="paint2_linear_387_825" x1="58.3149" y1="31.7954" x2="65.6258" y2="31.7954" gradientUnits="userSpaceOnUse">
<stop stop-color="#E9B873"/>
<stop offset="0.369792" stop-color="#FEDD8F"/>
<stop offset="1" stop-color="#B78D51"/>
</linearGradient>
<clipPath id="clip0_387_825">
<rect width="123.333" height="150" fill="white" transform="translate(0.333374)"/>
</clipPath>
</defs>
</svg>
