<svg width="335" height="140" viewBox="0 0 335 140" fill="none" xmlns="http://www.w3.org/2000/svg">
<g filter="url(#filter0_dd_2263_95021)">
<path d="M53.1695 70.9429H22.1016V81.4659H53.1695V70.9429Z" fill="#433E39"/>
<g style="mix-blend-mode:multiply">
<path d="M53.1335 70.8433H46.2234V81.3111H53.1335V70.8433Z" fill="#535762"/>
</g>
<path d="M98.5084 67.1206H71.0835C69.8603 67.1206 68.8687 68.1122 68.8687 69.3354V82.8149C68.8687 84.0381 69.8603 85.0297 71.0835 85.0297H98.5084C99.7316 85.0297 100.723 84.0381 100.723 82.8149V69.3354C100.723 68.1122 99.7316 67.1206 98.5084 67.1206Z" fill="#776E67"/>
<g style="mix-blend-mode:multiply">
<path d="M86.4671 67.1206H71.0835C69.8603 67.1206 68.8687 68.1122 68.8687 69.3354V82.8149C68.8687 84.0381 69.8603 85.0297 71.0835 85.0297H86.4671C87.6903 85.0297 88.6819 84.0381 88.6819 82.8149V69.3354C88.6819 68.1122 87.6903 67.1206 86.4671 67.1206Z" fill="#535762"/>
</g>
<path d="M80.8952 61.918H54.1567C50.8357 61.918 48.1436 64.6101 48.1436 67.9311V84.2217C48.1436 87.5427 50.8357 90.2349 54.1567 90.2349H80.8952C84.2161 90.2349 86.9083 87.5427 86.9083 84.2217V67.9311C86.9083 64.6101 84.2161 61.918 80.8952 61.918Z" fill="#433E39"/>
<path fill-rule="evenodd" clip-rule="evenodd" d="M142.03 22.4199L254.262 22.4199C258.803 22.4199 263.213 22.9534 267.428 23.9583C291.386 28.4936 309.505 49.5396 309.505 74.8167C309.505 75.5739 309.489 76.3274 309.457 77.0768H310.352C311.805 77.0768 312.987 75.8942 312.987 74.441C312.987 72.9878 311.805 71.8052 310.352 71.8052H309.445C309.274 68.1472 308.748 64.5845 307.891 61.152C308.663 63.1864 310.352 63.7877 310.352 63.7877L310.347 63.7927C316.23 63.7927 321 68.5632 321 74.446C321 80.3289 316.23 85.0993 310.347 85.0993C310.347 85.0993 308.628 85.707 307.869 87.7793C307.788 88.0928 307.704 88.4051 307.618 88.7162C307.606 88.7806 307.595 88.8461 307.586 88.9126L307.566 88.901C301.432 110.644 281.447 126.58 257.742 126.58L140.451 126.58C123.783 126.58 108.957 118.699 99.4908 106.461C93.9211 99.7365 90.0579 91.6607 88.5266 82.8314V65.7351C92.7891 41.1587 115.118 22.4199 142.03 22.4199Z" fill="#34302D"/>
<path d="M254.439 50.9003C267.628 50.9003 278.361 61.6288 278.361 74.8226C278.361 88.0164 267.633 98.7448 254.439 98.7448C241.245 98.7448 230.517 88.0164 230.517 74.8226C230.517 61.6288 241.245 50.9003 254.439 50.9003ZM254.439 42.8828C236.8 42.8828 222.499 57.184 222.499 74.8226C222.499 92.4611 236.8 106.762 254.439 106.762C272.077 106.762 286.379 92.4611 286.379 74.8226C286.379 57.184 272.077 42.8828 254.439 42.8828Z" fill="#1D1915"/>
<path d="M254.438 98.7391C267.65 98.7391 278.361 88.0287 278.361 74.8168C278.361 61.6049 267.65 50.8945 254.438 50.8945C241.226 50.8945 230.516 61.6049 230.516 74.8168C230.516 88.0287 241.226 98.7391 254.438 98.7391Z" fill="#34302D"/>
<path d="M129.485 78.1821L131.545 71.7815H133.035L130.228 79.6128H129.222L129.485 78.1821ZM127.581 71.7815L129.625 78.1821L129.905 79.6128H128.894L126.097 71.7815H127.581ZM137.213 79.7204C136.783 79.7204 136.394 79.6504 136.046 79.5106C135.702 79.3672 135.408 79.1682 135.164 78.9136C134.924 78.659 134.739 78.3596 134.61 78.0153C134.481 77.6711 134.416 77.3 134.416 76.902V76.6868C134.416 76.2314 134.483 75.8191 134.615 75.4497C134.748 75.0804 134.933 74.7649 135.169 74.5031C135.406 74.2377 135.686 74.0352 136.009 73.8953C136.331 73.7555 136.681 73.6855 137.057 73.6855C137.473 73.6855 137.837 73.7555 138.149 73.8953C138.461 74.0352 138.719 74.2324 138.924 74.487C139.132 74.738 139.286 75.0374 139.386 75.3852C139.49 75.733 139.542 76.1167 139.542 76.5362V77.0902H135.046V76.1597H138.262V76.0575C138.255 75.8244 138.208 75.6057 138.122 75.4013C138.04 75.1969 137.913 75.032 137.74 74.9065C137.568 74.781 137.339 74.7182 137.052 74.7182C136.837 74.7182 136.645 74.7649 136.476 74.8581C136.312 74.9477 136.173 75.0786 136.062 75.2507C135.951 75.4228 135.865 75.6308 135.804 75.8746C135.747 76.1149 135.718 76.3856 135.718 76.6868V76.902C135.718 77.1566 135.752 77.3932 135.82 77.6119C135.892 77.8271 135.996 78.0153 136.132 78.1767C136.269 78.3381 136.433 78.4654 136.627 78.5586C136.821 78.6482 137.041 78.693 137.289 78.693C137.601 78.693 137.879 78.6303 138.122 78.5048C138.366 78.3793 138.578 78.2018 138.757 77.9723L139.44 78.6339C139.315 78.8168 139.151 78.9925 138.951 79.161C138.75 79.3259 138.504 79.4604 138.214 79.5644C137.927 79.6684 137.593 79.7204 137.213 79.7204ZM142.957 74.9011V79.6128H141.66V73.7931H142.897L142.957 74.9011ZM144.737 73.7555L144.726 74.9603C144.647 74.9459 144.561 74.9352 144.468 74.928C144.378 74.9208 144.289 74.9172 144.199 74.9172C143.977 74.9172 143.781 74.9495 143.613 75.0141C143.444 75.075 143.303 75.1647 143.188 75.283C143.077 75.3977 142.991 75.5376 142.93 75.7025C142.869 75.8675 142.833 76.0521 142.822 76.2565L142.526 76.278C142.526 75.9123 142.562 75.5734 142.634 75.2615C142.706 74.9495 142.813 74.6752 142.957 74.4386C143.104 74.2019 143.287 74.0172 143.505 73.8846C143.728 73.7519 143.984 73.6855 144.274 73.6855C144.353 73.6855 144.438 73.6927 144.527 73.7071C144.62 73.7214 144.69 73.7375 144.737 73.7555ZM148.038 73.7931V79.6128H146.737V73.7931H148.038ZM146.651 72.2656C146.651 72.0684 146.715 71.9052 146.844 71.7761C146.977 71.6435 147.16 71.5771 147.393 71.5771C147.622 71.5771 147.804 71.6435 147.936 71.7761C148.069 71.9052 148.135 72.0684 148.135 72.2656C148.135 72.4592 148.069 72.6206 147.936 72.7497C147.804 72.8787 147.622 72.9433 147.393 72.9433C147.16 72.9433 146.977 72.8787 146.844 72.7497C146.715 72.6206 146.651 72.4592 146.651 72.2656ZM152.313 79.6128H151.017V73.2337C151.017 72.7999 151.098 72.4359 151.259 72.1419C151.424 71.8443 151.659 71.6201 151.964 71.4695C152.269 71.3154 152.629 71.2383 153.045 71.2383C153.174 71.2383 153.301 71.2472 153.427 71.2652C153.552 71.2795 153.674 71.3028 153.792 71.3351L153.76 72.3355C153.688 72.3176 153.61 72.305 153.524 72.2979C153.441 72.2907 153.351 72.2871 153.255 72.2871C153.057 72.2871 152.887 72.3247 152.744 72.4C152.604 72.4718 152.496 72.5775 152.421 72.7174C152.349 72.8572 152.313 73.0293 152.313 73.2337V79.6128ZM153.513 73.7931V74.7398H150.124V73.7931H153.513ZM157.244 78.9781L158.826 73.7931H160.213L157.879 80.5003C157.825 80.6437 157.755 80.7997 157.669 80.9682C157.583 81.1367 157.47 81.2963 157.331 81.4469C157.194 81.6011 157.024 81.7248 156.82 81.818C156.615 81.9148 156.368 81.9633 156.077 81.9633C155.963 81.9633 155.851 81.9525 155.744 81.931C155.64 81.9131 155.541 81.8933 155.448 81.8718L155.443 80.8821C155.478 80.8857 155.522 80.8893 155.572 80.8929C155.625 80.8965 155.669 80.8983 155.701 80.8983C155.916 80.8983 156.095 80.8714 156.239 80.8176C156.382 80.7674 156.499 80.6849 156.588 80.5702C156.681 80.4554 156.76 80.3013 156.825 80.1076L157.244 78.9781ZM156.352 73.7931L157.734 78.1498L157.965 79.516L157.067 79.7473L154.953 73.7931H156.352ZM169.183 78.4456V75.6703C169.183 75.4623 169.145 75.283 169.07 75.1324C168.995 74.9818 168.88 74.8653 168.726 74.7828C168.575 74.7003 168.385 74.6591 168.156 74.6591C167.944 74.6591 167.761 74.6949 167.607 74.7666C167.453 74.8384 167.333 74.9352 167.247 75.0571C167.161 75.179 167.117 75.3171 167.117 75.4712H165.827C165.827 75.2418 165.882 75.0194 165.993 74.8043C166.105 74.5892 166.266 74.3973 166.477 74.2288C166.689 74.0603 166.942 73.9276 167.236 73.8308C167.53 73.7339 167.86 73.6855 168.225 73.6855C168.663 73.6855 169.05 73.759 169.387 73.9061C169.728 74.0531 169.995 74.2754 170.189 74.573C170.386 74.867 170.484 75.2364 170.484 75.681V78.2681C170.484 78.5335 170.502 78.7719 170.538 78.9835C170.578 79.1915 170.633 79.3725 170.705 79.5267V79.6128H169.377C169.316 79.4729 169.267 79.2955 169.231 79.0803C169.199 78.8616 169.183 78.65 169.183 78.4456ZM169.371 76.0737L169.382 76.8751H168.451C168.211 76.8751 168 76.8984 167.817 76.945C167.634 76.988 167.481 77.0526 167.36 77.1386C167.238 77.2247 167.146 77.3287 167.085 77.4506C167.024 77.5725 166.994 77.7106 166.994 77.8647C166.994 78.0189 167.03 78.1606 167.101 78.2896C167.173 78.4152 167.277 78.5138 167.413 78.5855C167.553 78.6572 167.722 78.693 167.919 78.693C168.184 78.693 168.416 78.6393 168.613 78.5317C168.814 78.4205 168.971 78.2861 169.086 78.1283C169.201 77.9669 169.262 77.8145 169.269 77.6711L169.688 78.2466C169.645 78.3936 169.572 78.5514 169.468 78.7199C169.364 78.8885 169.228 79.0498 169.059 79.204C168.894 79.3546 168.695 79.4783 168.462 79.5751C168.233 79.672 167.967 79.7204 167.666 79.7204C167.286 79.7204 166.947 79.6451 166.65 79.4945C166.352 79.3403 166.119 79.1341 165.95 78.8759C165.782 78.6142 165.698 78.3183 165.698 77.9884C165.698 77.6801 165.755 77.4076 165.87 77.1709C165.988 76.9306 166.16 76.7298 166.386 76.5685C166.615 76.4071 166.895 76.2852 167.225 76.2027C167.555 76.1167 167.931 76.0737 168.355 76.0737H169.371ZM174.238 74.9764V79.6128H172.941V73.7931H174.162L174.238 74.9764ZM174.028 76.4878L173.587 76.4824C173.587 76.0808 173.637 75.7097 173.737 75.3691C173.838 75.0284 173.985 74.7326 174.179 74.4816C174.372 74.227 174.612 74.0316 174.899 73.8953C175.19 73.7555 175.525 73.6855 175.905 73.6855C176.17 73.6855 176.412 73.725 176.631 73.8039C176.854 73.8792 177.045 73.9993 177.207 74.1642C177.372 74.3292 177.497 74.5407 177.583 74.7989C177.673 75.0571 177.718 75.3691 177.718 75.7348V79.6128H176.421V75.8478C176.421 75.5645 176.378 75.3422 176.292 75.1808C176.21 75.0194 176.09 74.9047 175.932 74.8366C175.778 74.7649 175.593 74.729 175.378 74.729C175.134 74.729 174.926 74.7756 174.754 74.8688C174.586 74.9621 174.447 75.0894 174.34 75.2507C174.232 75.4121 174.153 75.5985 174.103 75.8101C174.053 76.0217 174.028 76.2476 174.028 76.4878ZM177.637 76.1436L177.029 76.278C177.029 75.9266 177.078 75.595 177.174 75.283C177.275 74.9674 177.42 74.6913 177.61 74.4547C177.804 74.2144 178.042 74.0262 178.325 73.8899C178.609 73.7537 178.933 73.6855 179.299 73.6855C179.597 73.6855 179.862 73.7268 180.095 73.8093C180.332 73.8881 180.532 74.0136 180.697 74.1858C180.862 74.3579 180.988 74.582 181.074 74.8581C181.16 75.1306 181.203 75.4605 181.203 75.8478V79.6128H179.901V75.8424C179.901 75.5483 179.858 75.3206 179.772 75.1593C179.69 74.9979 179.572 74.8868 179.417 74.8258C179.263 74.7613 179.078 74.729 178.863 74.729C178.663 74.729 178.485 74.7666 178.331 74.8419C178.18 74.9137 178.053 75.0159 177.949 75.1485C177.845 75.2776 177.766 75.4264 177.712 75.595C177.662 75.7635 177.637 75.9464 177.637 76.1436ZM183.391 76.7675V76.6438C183.391 76.2243 183.452 75.8352 183.574 75.4766C183.696 75.1145 183.872 74.8007 184.101 74.5354C184.334 74.2664 184.617 74.0585 184.951 73.9114C185.288 73.7608 185.668 73.6855 186.091 73.6855C186.518 73.6855 186.898 73.7608 187.231 73.9114C187.568 74.0585 187.854 74.2664 188.087 74.5354C188.32 74.8007 188.497 75.1145 188.619 75.4766C188.741 75.8352 188.802 76.2243 188.802 76.6438V76.7675C188.802 77.187 188.741 77.5761 188.619 77.9347C188.497 78.2932 188.32 78.607 188.087 78.8759C187.854 79.1413 187.57 79.3492 187.237 79.4998C186.903 79.6469 186.525 79.7204 186.102 79.7204C185.675 79.7204 185.293 79.6469 184.956 79.4998C184.623 79.3492 184.339 79.1413 184.106 78.8759C183.873 78.607 183.696 78.2932 183.574 77.9347C183.452 77.5761 183.391 77.187 183.391 76.7675ZM184.687 76.6438V76.7675C184.687 77.0293 184.714 77.2767 184.768 77.5097C184.822 77.7428 184.906 77.9472 185.021 78.1229C185.136 78.2986 185.283 78.4367 185.462 78.5371C185.641 78.6375 185.854 78.6877 186.102 78.6877C186.342 78.6877 186.55 78.6375 186.726 78.5371C186.905 78.4367 187.052 78.2986 187.167 78.1229C187.282 77.9472 187.366 77.7428 187.42 77.5097C187.477 77.2767 187.506 77.0293 187.506 76.7675V76.6438C187.506 76.3856 187.477 76.1418 187.42 75.9123C187.366 75.6792 187.28 75.473 187.161 75.2938C187.047 75.1145 186.9 74.9746 186.72 74.8742C186.545 74.7702 186.335 74.7182 186.091 74.7182C185.847 74.7182 185.636 74.7702 185.456 74.8742C185.281 74.9746 185.136 75.1145 185.021 75.2938C184.906 75.473 184.822 75.6792 184.768 75.9123C184.714 76.1418 184.687 76.3856 184.687 76.6438ZM194.491 78.2412V73.7931H195.793V79.6128H194.567L194.491 78.2412ZM194.674 77.0311L195.11 77.0203C195.11 77.4111 195.067 77.7715 194.981 78.1014C194.895 78.4277 194.762 78.7128 194.583 78.9566C194.404 79.1968 194.174 79.3851 193.894 79.5214C193.615 79.654 193.279 79.7204 192.889 79.7204C192.605 79.7204 192.345 79.6791 192.109 79.5967C191.872 79.5142 191.668 79.3869 191.496 79.2148C191.327 79.0427 191.196 78.8185 191.103 78.5424C191.01 78.2663 190.963 77.9365 190.963 77.5528V73.7931H192.259V77.5635C192.259 77.7751 192.284 77.9526 192.335 78.096C192.385 78.2359 192.453 78.3488 192.539 78.4349C192.625 78.5209 192.725 78.5819 192.84 78.6177C192.955 78.6536 193.077 78.6715 193.206 78.6715C193.575 78.6715 193.866 78.5998 194.077 78.4564C194.292 78.3094 194.445 78.1122 194.535 77.8647C194.628 77.6173 194.674 77.3394 194.674 77.0311ZM199.509 75.0356V79.6128H198.212V73.7931H199.433L199.509 75.0356ZM199.277 76.4878L198.858 76.4824C198.861 76.0701 198.919 75.6918 199.03 75.3475C199.145 75.0033 199.302 74.7075 199.503 74.4601C199.708 74.2126 199.952 74.0226 200.235 73.8899C200.518 73.7537 200.834 73.6855 201.181 73.6855C201.461 73.6855 201.714 73.725 201.94 73.8039C202.169 73.8792 202.365 74.0029 202.526 74.175C202.691 74.3471 202.817 74.5712 202.903 74.8473C202.989 75.1198 203.032 75.4551 203.032 75.8531V79.6128H201.73V75.8478C201.73 75.5681 201.689 75.3475 201.606 75.1862C201.527 75.0212 201.411 74.9047 201.257 74.8366C201.106 74.7649 200.918 74.729 200.692 74.729C200.47 74.729 200.271 74.7756 200.095 74.8688C199.919 74.9621 199.77 75.0894 199.649 75.2507C199.53 75.4121 199.439 75.5985 199.374 75.8101C199.31 76.0217 199.277 76.2476 199.277 76.4878ZM208.124 73.7931V74.7398H204.843V73.7931H208.124ZM205.79 72.3678H207.086V78.0046C207.086 78.1839 207.111 78.3219 207.161 78.4187C207.215 78.512 207.289 78.5747 207.382 78.607C207.475 78.6393 207.585 78.6554 207.71 78.6554C207.8 78.6554 207.886 78.65 207.968 78.6393C208.051 78.6285 208.117 78.6177 208.167 78.607L208.173 79.5967C208.065 79.6289 207.939 79.6576 207.796 79.6827C207.656 79.7078 207.495 79.7204 207.312 79.7204C207.014 79.7204 206.751 79.6684 206.521 79.5644C206.292 79.4568 206.113 79.2829 205.983 79.0427C205.854 78.8024 205.79 78.4833 205.79 78.0853V72.3678Z" fill="white"/>
</g>
<defs>
<filter id="filter0_dd_2263_95021" x="-1.03087" y="0.389049" width="335.8" height="139.41" filterUnits="userSpaceOnUse" color-interpolation-filters="sRGB">
<feFlood flood-opacity="0" result="BackgroundImageFix"/>
<feColorMatrix in="SourceAlpha" type="matrix" values="0 0 0 0 0 0 0 0 0 0 0 0 0 0 0 0 0 0 127 0" result="hardAlpha"/>
<feOffset dx="2.75386" dy="2.20309"/>
<feGaussianBlur stdDeviation="5.50772"/>
<feComposite in2="hardAlpha" operator="out"/>
<feColorMatrix type="matrix" values="0 0 0 0 0 0 0 0 0 0 0 0 0 0 0 0 0 0 0.41 0"/>
<feBlend mode="normal" in2="BackgroundImageFix" result="effect1_dropShadow_2263_95021"/>
<feColorMatrix in="SourceAlpha" type="matrix" values="0 0 0 0 0 0 0 0 0 0 0 0 0 0 0 0 0 0 127 0" result="hardAlpha"/>
<feOffset dx="-5.50772" dy="-5.50772"/>
<feGaussianBlur stdDeviation="8.26158"/>
<feComposite in2="hardAlpha" operator="out"/>
<feColorMatrix type="matrix" values="0 0 0 0 0.0916667 0 0 0 0 0.0758333 0 0 0 0 0.0626389 0 0 0 1 0"/>
<feBlend mode="normal" in2="effect1_dropShadow_2263_95021" result="effect2_dropShadow_2263_95021"/>
<feBlend mode="normal" in="SourceGraphic" in2="effect2_dropShadow_2263_95021" result="shape"/>
</filter>
</defs>
</svg>
