<svg width="335" height="140" viewBox="0 0 335 140" fill="none" xmlns="http://www.w3.org/2000/svg">
<g filter="url(#filter0_dd_2637_43201)">
<path d="M53.1695 70.943H22.1016V81.466H53.1695V70.943Z" fill="#433E39"/>
<g style="mix-blend-mode:multiply">
<path d="M53.1337 70.8436H46.2236V81.3115H53.1337V70.8436Z" fill="#535762"/>
</g>
<path d="M98.5084 67.1205H71.0835C69.8603 67.1205 68.8687 68.1121 68.8687 69.3353V82.8148C68.8687 84.038 69.8603 85.0296 71.0835 85.0296H98.5084C99.7316 85.0296 100.723 84.038 100.723 82.8148V69.3353C100.723 68.1121 99.7316 67.1205 98.5084 67.1205Z" fill="#776E67"/>
<g style="mix-blend-mode:multiply">
<path d="M86.4671 67.1205H71.0835C69.8603 67.1205 68.8687 68.1121 68.8687 69.3353V82.8148C68.8687 84.038 69.8603 85.0296 71.0835 85.0296H86.4671C87.6903 85.0296 88.6819 84.038 88.6819 82.8148V69.3353C88.6819 68.1121 87.6903 67.1205 86.4671 67.1205Z" fill="#535762"/>
</g>
<path d="M80.8952 61.9183H54.1567C50.8357 61.9183 48.1436 64.6105 48.1436 67.9314V84.222C48.1436 87.543 50.8357 90.2352 54.1567 90.2352H80.8952C84.2161 90.2352 86.9083 87.543 86.9083 84.222V67.9314C86.9083 64.6105 84.2161 61.9183 80.8952 61.9183Z" fill="#433E39"/>
<path fill-rule="evenodd" clip-rule="evenodd" d="M142.03 22.4201L254.262 22.4201C258.803 22.4201 263.214 22.9537 267.43 23.9589C291.387 28.495 309.505 49.5406 309.505 74.8169C309.505 75.5741 309.489 76.3276 309.457 77.0769H310.352C311.805 77.0769 312.987 75.8943 312.987 74.4411C312.987 72.9879 311.805 71.8053 310.352 71.8053H309.445C309.274 68.1473 308.748 64.5846 307.891 61.1521C308.663 63.1865 310.352 63.7878 310.352 63.7878L310.347 63.7928C316.23 63.7928 321 68.5633 321 74.4461C321 80.329 316.23 85.0994 310.347 85.0994C310.347 85.0994 308.627 85.7071 307.868 87.7795C307.788 88.0929 307.704 88.4051 307.618 88.7162C307.606 88.7806 307.595 88.8461 307.586 88.9127L307.566 88.9011C301.431 110.644 281.447 126.58 257.742 126.58L140.451 126.58C123.782 126.58 108.954 118.697 99.4879 106.457C93.9197 99.7338 90.0577 91.6593 88.5266 82.8315V65.7353C92.7891 41.1589 115.118 22.4201 142.03 22.4201Z" fill="#34302D"/>
<path d="M254.439 50.9006C267.628 50.9006 278.361 61.629 278.361 74.8228C278.361 88.0166 267.633 98.7451 254.439 98.7451C241.245 98.7451 230.517 88.0166 230.517 74.8228C230.517 61.629 241.245 50.9006 254.439 50.9006ZM254.439 42.883C236.8 42.883 222.499 57.1843 222.499 74.8228C222.499 92.4613 236.8 106.763 254.439 106.763C272.077 106.763 286.379 92.4613 286.379 74.8228C286.379 57.1843 272.077 42.883 254.439 42.883Z" fill="#1D1915"/>
<path d="M254.438 98.7394C267.65 98.7394 278.361 88.029 278.361 74.8171C278.361 61.6052 267.65 50.8949 254.438 50.8949C241.226 50.8949 230.516 61.6052 230.516 74.8171C230.516 88.029 241.226 98.7394 254.438 98.7394Z" fill="#34302D"/>
<path d="M142.636 54.2468V62.105H141.34V55.7851L139.419 56.4359V55.3655L142.48 54.2468H142.636ZM151.709 61.0723V62.105H146.459V61.2175L149.009 58.4367C149.288 58.1212 149.509 57.8487 149.67 57.6192C149.831 57.3897 149.944 57.1835 150.009 57.0006C150.077 56.8142 150.111 56.6331 150.111 56.4574C150.111 56.21 150.065 55.993 149.971 55.8066C149.882 55.6165 149.749 55.4677 149.573 55.3602C149.398 55.249 149.184 55.1934 148.933 55.1934C148.643 55.1934 148.399 55.2562 148.202 55.3817C148.005 55.5072 147.856 55.6811 147.755 55.9034C147.655 56.1221 147.605 56.3731 147.605 56.6564H146.308C146.308 56.201 146.412 55.7851 146.62 55.4086C146.828 55.0285 147.13 54.7273 147.524 54.505C147.918 54.2791 148.394 54.1661 148.949 54.1661C149.473 54.1661 149.918 54.254 150.283 54.4297C150.649 54.6054 150.927 54.8546 151.117 55.1773C151.311 55.5 151.407 55.8819 151.407 56.3229C151.407 56.5668 151.368 56.8088 151.289 57.0491C151.21 57.2893 151.097 57.5295 150.95 57.7698C150.807 58.0064 150.636 58.2449 150.439 58.4851C150.242 58.7218 150.025 58.9621 149.788 59.2059L148.094 61.0723H151.709ZM155.343 57.6031H156.118C156.419 57.6031 156.668 57.5511 156.866 57.4471C157.066 57.3431 157.215 57.1997 157.312 57.0168C157.409 56.8339 157.457 56.6241 157.457 56.3875C157.457 56.1401 157.412 55.9285 157.323 55.7528C157.237 55.5735 157.104 55.4355 156.925 55.3386C156.749 55.2418 156.525 55.1934 156.252 55.1934C156.023 55.1934 155.815 55.24 155.629 55.3333C155.446 55.4229 155.3 55.552 155.193 55.7205C155.085 55.8855 155.032 56.0827 155.032 56.3122H153.73C153.73 55.8962 153.839 55.5269 154.058 55.2042C154.277 54.8815 154.574 54.6287 154.951 54.4458C155.331 54.2593 155.758 54.1661 156.231 54.1661C156.737 54.1661 157.178 54.2504 157.554 54.4189C157.934 54.5838 158.23 54.8313 158.442 55.1612C158.653 55.491 158.759 55.8998 158.759 56.3875C158.759 56.6098 158.707 56.8357 158.603 57.0652C158.499 57.2947 158.345 57.5044 158.14 57.6945C157.936 57.8809 157.681 58.0333 157.377 58.1517C157.072 58.2664 156.719 58.3238 156.317 58.3238H155.343V57.6031ZM155.343 58.6142V57.9043H156.317C156.776 57.9043 157.167 57.958 157.49 58.0656C157.816 58.1732 158.081 58.322 158.286 58.512C158.49 58.6985 158.639 58.9119 158.732 59.1521C158.829 59.3923 158.877 59.6469 158.877 59.9159C158.877 60.2816 158.811 60.6079 158.678 60.8948C158.549 61.178 158.364 61.4183 158.124 61.6155C157.884 61.8127 157.602 61.9615 157.28 62.0619C156.961 62.1623 156.613 62.2125 156.236 62.2125C155.899 62.2125 155.577 62.1659 155.268 62.0727C154.96 61.9795 154.684 61.8414 154.44 61.6585C154.196 61.4721 154.002 61.2408 153.859 60.9647C153.719 60.685 153.649 60.3623 153.649 59.9965H154.945C154.945 60.2296 154.999 60.4358 155.107 60.6151C155.218 60.7908 155.372 60.9288 155.569 61.0292C155.77 61.1296 156 61.1798 156.258 61.1798C156.53 61.1798 156.765 61.1314 156.962 61.0346C157.16 60.9378 157.31 60.7944 157.414 60.6043C157.522 60.4143 157.576 60.1848 157.576 59.9159C157.576 59.6111 157.516 59.3637 157.398 59.1736C157.28 58.9836 157.111 58.8437 156.893 58.7541C156.674 58.6608 156.416 58.6142 156.118 58.6142H155.343ZM166.578 59.3135V60.3462H160.931L160.888 59.5663L164.266 54.2737H165.304L164.179 56.1992L162.238 59.3135H166.578ZM165.599 54.2737V62.105H164.303V54.2737H165.599ZM169.907 58.4636L168.874 58.2108L169.299 54.2737H173.521V55.3709H170.375L170.159 57.2911C170.281 57.2194 170.45 57.1495 170.665 57.0813C170.88 57.0096 171.126 56.9738 171.402 56.9738C171.771 56.9738 172.101 57.0347 172.392 57.1566C172.686 57.275 172.935 57.4489 173.139 57.6784C173.344 57.9043 173.5 58.1804 173.607 58.5067C173.715 58.8294 173.769 59.1933 173.769 59.5985C173.769 59.9607 173.715 60.2995 173.607 60.6151C173.503 60.9306 173.345 61.2085 173.134 61.4488C172.922 61.689 172.655 61.8773 172.332 62.0135C172.013 62.1462 171.635 62.2125 171.198 62.2125C170.871 62.2125 170.557 62.1659 170.256 62.0727C169.959 61.9759 169.692 61.8342 169.455 61.6478C169.218 61.4577 169.028 61.2247 168.885 60.9486C168.741 60.6689 168.659 60.3479 168.637 59.9858H169.907C169.939 60.2404 170.009 60.4573 170.116 60.6366C170.228 60.8123 170.375 60.9468 170.557 61.04C170.74 61.1332 170.952 61.1798 171.192 61.1798C171.411 61.1798 171.599 61.1422 171.757 61.0669C171.915 60.988 172.046 60.8768 172.15 60.7334C172.257 60.5864 172.336 60.4143 172.386 60.2171C172.44 60.0198 172.467 59.8011 172.467 59.5609C172.467 59.3314 172.436 59.1216 172.375 58.9316C172.318 58.7415 172.23 58.5766 172.112 58.4367C171.997 58.2969 171.852 58.1893 171.676 58.114C171.501 58.0351 171.298 57.9957 171.068 57.9957C170.76 57.9957 170.523 58.0405 170.358 58.1302C170.197 58.2198 170.046 58.331 169.907 58.4636ZM179.824 54.2253H179.985V55.2849H179.894C179.431 55.2849 179.031 55.3566 178.694 55.5C178.361 55.6434 178.086 55.8407 177.871 56.0917C177.656 56.3427 177.495 56.6367 177.387 56.9738C177.283 57.3072 177.231 57.6622 177.231 58.0387V59.2704C177.231 59.5824 177.265 59.8585 177.333 60.0987C177.402 60.3354 177.497 60.5344 177.619 60.6958C177.744 60.8535 177.887 60.9737 178.049 61.0561C178.21 61.1386 178.384 61.1798 178.571 61.1798C178.764 61.1798 178.94 61.1404 179.098 61.0615C179.255 60.979 179.39 60.8661 179.501 60.7227C179.612 60.5792 179.696 60.4089 179.754 60.2117C179.811 60.0145 179.84 59.7993 179.84 59.5663C179.84 59.3439 179.811 59.136 179.754 58.9423C179.7 58.7451 179.619 58.573 179.512 58.426C179.404 58.2754 179.27 58.1588 179.108 58.0764C178.951 57.9903 178.768 57.9473 178.56 57.9473C178.302 57.9473 178.067 58.0082 177.855 58.1302C177.647 58.2521 177.479 58.4116 177.35 58.6089C177.224 58.8025 177.156 59.0087 177.145 59.2274L176.65 59.066C176.679 58.7326 176.753 58.4332 176.871 58.1678C176.993 57.9025 177.152 57.6766 177.35 57.4901C177.547 57.3036 177.775 57.162 178.033 57.0652C178.294 56.9648 178.581 56.9146 178.893 56.9146C179.273 56.9146 179.603 56.9863 179.883 57.1297C180.163 57.2732 180.394 57.4686 180.577 57.716C180.763 57.9598 180.901 58.2395 180.991 58.5551C181.084 58.867 181.131 59.1933 181.131 59.534C181.131 59.9105 181.073 60.2619 180.959 60.5882C180.844 60.9109 180.675 61.1942 180.453 61.438C180.234 61.6818 179.967 61.8719 179.652 62.0081C179.34 62.1444 178.985 62.2125 178.587 62.2125C178.167 62.2125 177.792 62.1319 177.463 61.9705C177.136 61.8091 176.858 61.5868 176.629 61.3035C176.403 61.0203 176.231 60.694 176.113 60.3246C175.994 59.9553 175.935 59.5645 175.935 59.1521V58.6142C175.935 58.019 176.01 57.4578 176.161 56.9307C176.312 56.4 176.543 55.9321 176.855 55.5269C177.17 55.1217 177.574 54.8044 178.065 54.5749C178.556 54.3418 179.142 54.2253 179.824 54.2253ZM188.472 54.2737V54.9837L185.341 62.105H183.975L187.1 55.3064H183.044V54.2737H188.472ZM195.753 59.9696C195.753 60.4573 195.64 60.8679 195.414 61.2014C195.188 61.5348 194.88 61.7876 194.489 61.9597C194.102 62.1283 193.664 62.2125 193.177 62.2125C192.689 62.2125 192.25 62.1283 191.859 61.9597C191.468 61.7876 191.16 61.5348 190.934 61.2014C190.708 60.8679 190.595 60.4573 190.595 59.9696C190.595 59.6469 190.658 59.3547 190.783 59.0929C190.909 58.8276 191.086 58.5999 191.316 58.4098C191.549 58.2162 191.821 58.0674 192.133 57.9634C192.449 57.8594 192.793 57.8074 193.166 57.8074C193.661 57.8074 194.104 57.8989 194.495 58.0817C194.885 58.2646 195.192 58.5174 195.414 58.8401C195.64 59.1629 195.753 59.5394 195.753 59.9696ZM194.451 59.9051C194.451 59.6433 194.398 59.4139 194.29 59.2166C194.183 59.0194 194.032 58.867 193.838 58.7595C193.645 58.6519 193.421 58.5981 193.166 58.5981C192.908 58.5981 192.684 58.6519 192.494 58.7595C192.304 58.867 192.155 59.0194 192.047 59.2166C191.943 59.4139 191.891 59.6433 191.891 59.9051C191.891 60.1705 191.943 60.3999 192.047 60.5936C192.151 60.7836 192.3 60.9288 192.494 61.0292C192.687 61.1296 192.915 61.1798 193.177 61.1798C193.439 61.1798 193.664 61.1296 193.854 61.0292C194.045 60.9288 194.192 60.7836 194.296 60.5936C194.4 60.3999 194.451 60.1705 194.451 59.9051ZM195.576 56.3337C195.576 56.7245 195.472 57.0724 195.264 57.3771C195.059 57.6819 194.776 57.9222 194.414 58.0979C194.052 58.27 193.639 58.3561 193.177 58.3561C192.711 58.3561 192.295 58.27 191.929 58.0979C191.567 57.9222 191.282 57.6819 191.074 57.3771C190.869 57.0724 190.767 56.7245 190.767 56.3337C190.767 55.8675 190.869 55.4749 191.074 55.1558C191.282 54.8331 191.567 54.5874 191.929 54.4189C192.291 54.2504 192.705 54.1661 193.171 54.1661C193.638 54.1661 194.052 54.2504 194.414 54.4189C194.776 54.5874 195.059 54.8331 195.264 55.1558C195.472 55.4749 195.576 55.8675 195.576 56.3337ZM194.279 56.3767C194.279 56.1436 194.233 55.9393 194.14 55.7636C194.05 55.5843 193.923 55.4444 193.758 55.344C193.593 55.2436 193.397 55.1934 193.171 55.1934C192.945 55.1934 192.75 55.2418 192.585 55.3386C192.42 55.4355 192.293 55.5717 192.203 55.7474C192.114 55.9231 192.069 56.1329 192.069 56.3767C192.069 56.617 192.114 56.8267 192.203 57.006C192.293 57.1817 192.42 57.3198 192.585 57.4202C192.754 57.5206 192.951 57.5708 193.177 57.5708C193.403 57.5708 193.598 57.5206 193.763 57.4202C193.928 57.3198 194.055 57.1817 194.145 57.006C194.235 56.8267 194.279 56.617 194.279 56.3767Z" fill="white"/>
<path d="M134.32 92.6939C134.366 92.6495 134.403 92.5963 134.428 92.5376C134.453 92.4788 134.467 92.4155 134.467 92.3516C134.468 92.2876 134.456 92.2241 134.432 92.1649C134.407 92.1056 134.372 92.0518 134.326 92.0066C134.281 91.9613 134.227 91.9255 134.168 91.9012C134.109 91.877 134.046 91.8647 133.982 91.8653C133.918 91.8658 133.854 91.8791 133.796 91.9043C133.737 91.9295 133.684 91.9662 133.639 92.0122L131.708 93.943L129.777 92.0122C129.733 91.9649 129.68 91.9269 129.62 91.9005C129.561 91.8742 129.497 91.86 129.433 91.8589C129.368 91.8578 129.304 91.8697 129.244 91.8939C129.184 91.9181 129.129 91.9542 129.084 92C129.038 92.0457 129.002 92.1002 128.977 92.1602C128.953 92.2202 128.941 92.2845 128.942 92.3492C128.944 92.4139 128.958 92.4777 128.984 92.5368C129.01 92.596 129.048 92.6492 129.096 92.6933L131.025 94.6247L129.094 96.5555C129.009 96.6468 128.963 96.7677 128.965 96.8925C128.967 97.0174 129.018 97.1365 129.106 97.2248C129.195 97.313 129.314 97.3636 129.439 97.3658C129.563 97.368 129.684 97.3217 129.776 97.2366L131.708 95.3058L133.638 97.2372C133.73 97.3223 133.851 97.3687 133.975 97.3665C134.1 97.3643 134.219 97.3137 134.308 97.2254C134.396 97.1371 134.447 97.018 134.449 96.8932C134.451 96.7683 134.405 96.6475 134.319 96.5561L132.39 94.6247L134.32 92.6939Z" fill="white"/>
<rect x="126.61" y="89.518" width="10.1893" height="10.1893" rx="3.44232" stroke="white" stroke-width="0.826158"/>
<path d="M200.606 94.6127L202.92 96.5404L206.004 92.685" stroke="white" stroke-width="1.10154" stroke-linecap="round"/>
<rect x="198.211" y="89.518" width="10.1893" height="10.1893" rx="3.44232" stroke="white" stroke-width="0.826158"/>
</g>
<defs>
<filter id="filter0_dd_2637_43201" x="-1.03087" y="0.38914" width="335.8" height="139.409" filterUnits="userSpaceOnUse" color-interpolation-filters="sRGB">
<feFlood flood-opacity="0" result="BackgroundImageFix"/>
<feColorMatrix in="SourceAlpha" type="matrix" values="0 0 0 0 0 0 0 0 0 0 0 0 0 0 0 0 0 0 127 0" result="hardAlpha"/>
<feOffset dx="2.75386" dy="2.20309"/>
<feGaussianBlur stdDeviation="5.50772"/>
<feComposite in2="hardAlpha" operator="out"/>
<feColorMatrix type="matrix" values="0 0 0 0 0 0 0 0 0 0 0 0 0 0 0 0 0 0 0.41 0"/>
<feBlend mode="normal" in2="BackgroundImageFix" result="effect1_dropShadow_2637_43201"/>
<feColorMatrix in="SourceAlpha" type="matrix" values="0 0 0 0 0 0 0 0 0 0 0 0 0 0 0 0 0 0 127 0" result="hardAlpha"/>
<feOffset dx="-5.50772" dy="-5.50772"/>
<feGaussianBlur stdDeviation="8.26158"/>
<feComposite in2="hardAlpha" operator="out"/>
<feColorMatrix type="matrix" values="0 0 0 0 0.0916667 0 0 0 0 0.0758333 0 0 0 0 0.0626389 0 0 0 1 0"/>
<feBlend mode="normal" in2="effect1_dropShadow_2637_43201" result="effect2_dropShadow_2637_43201"/>
<feBlend mode="normal" in="SourceGraphic" in2="effect2_dropShadow_2637_43201" result="shape"/>
</filter>
</defs>
</svg>
