<svg width="335" height="140" viewBox="0 0 335 140" fill="none" xmlns="http://www.w3.org/2000/svg">
<g filter="url(#filter0_dd_3386_14189)">
<path d="M53.1695 70.943H22.1016V81.466H53.1695V70.943Z" fill="#433E39"/>
<g style="mix-blend-mode:multiply">
<path d="M53.1336 70.8436H46.2235V81.3115H53.1336V70.8436Z" fill="#535762"/>
</g>
<path d="M98.5084 67.1205H71.0835C69.8603 67.1205 68.8687 68.1121 68.8687 69.3353V82.8148C68.8687 84.038 69.8603 85.0296 71.0835 85.0296H98.5084C99.7316 85.0296 100.723 84.038 100.723 82.8148V69.3353C100.723 68.1121 99.7316 67.1205 98.5084 67.1205Z" fill="#776E67"/>
<g style="mix-blend-mode:multiply">
<path d="M86.4671 67.1205H71.0835C69.8603 67.1205 68.8687 68.1121 68.8687 69.3353V82.8148C68.8687 84.038 69.8603 85.0296 71.0835 85.0296H86.4671C87.6903 85.0296 88.6819 84.038 88.6819 82.8148V69.3353C88.6819 68.1121 87.6903 67.1205 86.4671 67.1205Z" fill="#535762"/>
</g>
<path d="M80.8952 61.9183H54.1567C50.8357 61.9183 48.1436 64.6105 48.1436 67.9315V84.2221C48.1436 87.5431 50.8357 90.2352 54.1567 90.2352H80.8952C84.2161 90.2352 86.9083 87.5431 86.9083 84.2221V67.9315C86.9083 64.6105 84.2161 61.9183 80.8952 61.9183Z" fill="#433E39"/>
<path fill-rule="evenodd" clip-rule="evenodd" d="M142.03 22.42L254.262 22.42C258.803 22.42 263.214 22.9537 267.43 23.9589C291.387 28.495 309.505 49.5406 309.505 74.8169C309.505 75.5741 309.489 76.3275 309.457 77.0768H310.352C311.805 77.0768 312.987 75.8942 312.987 74.4411C312.987 72.9879 311.805 71.8053 310.352 71.8053H309.445C309.274 68.1473 308.748 64.5845 307.891 61.152C308.663 63.1865 310.352 63.7878 310.352 63.7878L310.347 63.7928C316.23 63.7928 321 68.5632 321 74.4461C321 80.3289 316.23 85.0994 310.347 85.0994C310.347 85.0994 308.627 85.707 307.869 87.7795C307.788 88.0929 307.704 88.4051 307.618 88.7161C307.606 88.7806 307.595 88.8461 307.586 88.9127L307.566 88.9011C301.432 110.644 281.447 126.58 257.742 126.58L140.451 126.58C123.782 126.58 108.954 118.697 99.4879 106.457C93.9198 99.7338 90.0577 91.6592 88.5267 82.8315V65.7353C92.7891 41.1588 115.118 22.42 142.03 22.42Z" fill="#34302D"/>
<path d="M254.439 50.9006C267.628 50.9006 278.361 61.629 278.361 74.8228C278.361 88.0166 267.633 98.7451 254.439 98.7451C241.245 98.7451 230.517 88.0166 230.517 74.8228C230.517 61.629 241.245 50.9006 254.439 50.9006ZM254.439 42.8831C236.8 42.8831 222.499 57.1843 222.499 74.8228C222.499 92.4614 236.8 106.763 254.439 106.763C272.077 106.763 286.379 92.4614 286.379 74.8228C286.379 57.1843 272.077 42.8831 254.439 42.8831Z" fill="#1D1915"/>
<path d="M254.438 98.7395C267.65 98.7395 278.361 88.0291 278.361 74.8172C278.361 61.6053 267.65 50.8949 254.438 50.8949C241.226 50.8949 230.516 61.6053 230.516 74.8172C230.516 88.0291 241.226 98.7395 254.438 98.7395Z" fill="#34302D"/>
<path d="M140.985 60.6743L143.045 54.2737H144.535L141.728 62.105H140.722L140.985 60.6743ZM139.081 54.2737L141.125 60.6743L141.405 62.105H140.394L137.597 54.2737H139.081ZM147.772 56.2853V62.105H146.47V56.2853H147.772ZM146.384 54.7578C146.384 54.5606 146.449 54.3974 146.578 54.2683C146.711 54.1356 146.894 54.0693 147.127 54.0693C147.356 54.0693 147.537 54.1356 147.67 54.2683C147.803 54.3974 147.869 54.5606 147.869 54.7578C147.869 54.9514 147.803 55.1128 147.67 55.2418C147.537 55.3709 147.356 55.4355 147.127 55.4355C146.894 55.4355 146.711 55.3709 146.578 55.2418C146.449 55.1128 146.384 54.9514 146.384 54.7578ZM152.859 62.2126C152.429 62.2126 152.04 62.1426 151.692 62.0028C151.348 61.8594 151.054 61.6603 150.81 61.4058C150.57 61.1512 150.385 60.8518 150.256 60.5075C150.127 60.1633 150.062 59.7922 150.062 59.3942V59.179C150.062 58.7236 150.129 58.3113 150.261 57.9419C150.394 57.5726 150.579 57.257 150.815 56.9953C151.052 56.7299 151.332 56.5273 151.654 56.3875C151.977 56.2477 152.327 56.1777 152.703 56.1777C153.119 56.1777 153.483 56.2477 153.795 56.3875C154.107 56.5273 154.365 56.7246 154.57 56.9791C154.778 57.2301 154.932 57.5296 155.032 57.8774C155.136 58.2252 155.188 58.6089 155.188 59.0284V59.5824H150.692V58.6519H153.908V58.5497C153.901 58.3166 153.854 58.0979 153.768 57.8935C153.686 57.6891 153.558 57.5242 153.386 57.3987C153.214 57.2732 152.985 57.2104 152.698 57.2104C152.483 57.2104 152.291 57.257 152.122 57.3503C151.957 57.4399 151.819 57.5708 151.708 57.7429C151.597 57.915 151.511 58.123 151.45 58.3668C151.393 58.6071 151.364 58.8778 151.364 59.179V59.3942C151.364 59.6487 151.398 59.8854 151.466 60.1041C151.538 60.3193 151.642 60.5075 151.778 60.6689C151.914 60.8302 152.079 60.9575 152.273 61.0508C152.467 61.1404 152.687 61.1852 152.934 61.1852C153.246 61.1852 153.524 61.1225 153.768 60.997C154.012 60.8715 154.224 60.694 154.403 60.4645L155.086 61.1261C154.96 61.3089 154.797 61.4846 154.596 61.6532C154.396 61.8181 154.15 61.9526 153.86 62.0566C153.573 62.1606 153.239 62.2126 152.859 62.2126ZM158.882 60.8141L160.227 56.2853H161.055L160.829 57.6407L159.474 62.105H158.732L158.882 60.8141ZM158.091 56.2853L159.14 60.8356L159.226 62.105H158.398L156.822 56.2853H158.091ZM162.314 60.7818L163.33 56.2853H164.594L163.024 62.105H162.195L162.314 60.7818ZM161.195 56.2853L162.523 60.7603L162.69 62.105H161.948L160.576 57.6353L160.351 56.2853H161.195ZM173.687 60.529C173.687 60.4 173.655 60.2834 173.591 60.1794C173.526 60.0719 173.402 59.975 173.219 59.889C173.04 59.8029 172.775 59.724 172.423 59.6523C172.115 59.5842 171.832 59.5035 171.574 59.4103C171.319 59.3135 171.1 59.1969 170.917 59.0607C170.734 58.9244 170.593 58.7631 170.492 58.5766C170.392 58.3901 170.342 58.175 170.342 57.9312C170.342 57.6945 170.394 57.4704 170.498 57.2588C170.602 57.0473 170.751 56.8608 170.944 56.6995C171.138 56.5381 171.373 56.4108 171.649 56.3176C171.929 56.2243 172.241 56.1777 172.585 56.1777C173.072 56.1777 173.49 56.2602 173.838 56.4251C174.189 56.5865 174.458 56.807 174.645 57.0867C174.831 57.3628 174.924 57.6748 174.924 58.0226H173.628C173.628 57.8684 173.589 57.725 173.51 57.5923C173.435 57.4561 173.32 57.3467 173.166 57.2642C173.011 57.1782 172.818 57.1351 172.585 57.1351C172.362 57.1351 172.178 57.171 172.031 57.2427C171.887 57.3108 171.78 57.4005 171.708 57.5116C171.64 57.6228 171.606 57.7447 171.606 57.8774C171.606 57.9742 171.624 58.062 171.66 58.1409C171.699 58.2162 171.764 58.2862 171.853 58.3507C171.943 58.4117 172.065 58.469 172.219 58.5228C172.377 58.5766 172.574 58.6286 172.811 58.6788C173.255 58.772 173.637 58.8921 173.956 59.0392C174.279 59.1826 174.526 59.3691 174.699 59.5985C174.871 59.8244 174.957 60.1113 174.957 60.4591C174.957 60.7173 174.901 60.954 174.79 61.1691C174.682 61.3807 174.525 61.5653 174.317 61.7231C174.109 61.8773 173.859 61.9974 173.569 62.0835C173.282 62.1695 172.959 62.2126 172.601 62.2126C172.074 62.2126 171.627 62.1193 171.262 61.9329C170.896 61.7428 170.618 61.5008 170.428 61.2067C170.241 60.9091 170.148 60.6008 170.148 60.2816H171.401C171.416 60.5219 171.482 60.7137 171.6 60.8571C171.722 60.997 171.873 61.0992 172.052 61.1637C172.235 61.2247 172.423 61.2552 172.617 61.2552C172.85 61.2552 173.046 61.2247 173.203 61.1637C173.361 61.0992 173.481 61.0131 173.564 60.9055C173.646 60.7944 173.687 60.6689 173.687 60.529ZM179.759 62.2126C179.328 62.2126 178.939 62.1426 178.592 62.0028C178.247 61.8594 177.953 61.6603 177.71 61.4058C177.469 61.1512 177.285 60.8518 177.156 60.5075C177.026 60.1633 176.962 59.7922 176.962 59.3942V59.179C176.962 58.7236 177.028 58.3113 177.161 57.9419C177.294 57.5726 177.478 57.257 177.715 56.9953C177.952 56.7299 178.231 56.5273 178.554 56.3875C178.877 56.2477 179.226 56.1777 179.603 56.1777C180.019 56.1777 180.383 56.2477 180.695 56.3875C181.007 56.5273 181.265 56.7246 181.469 56.9791C181.677 57.2301 181.831 57.5296 181.932 57.8774C182.036 58.2252 182.088 58.6089 182.088 59.0284V59.5824H177.591V58.6519H180.808V58.5497C180.8 58.3166 180.754 58.0979 180.668 57.8935C180.585 57.6891 180.458 57.5242 180.286 57.3987C180.114 57.2732 179.884 57.2104 179.597 57.2104C179.382 57.2104 179.19 57.257 179.022 57.3503C178.857 57.4399 178.719 57.5708 178.608 57.7429C178.497 57.915 178.411 58.123 178.35 58.3668C178.292 58.6071 178.264 58.8778 178.264 59.179V59.3942C178.264 59.6487 178.298 59.8854 178.366 60.1041C178.437 60.3193 178.541 60.5075 178.678 60.6689C178.814 60.8302 178.979 60.9575 179.172 61.0508C179.366 61.1404 179.587 61.1852 179.834 61.1852C180.146 61.1852 180.424 61.1225 180.668 60.997C180.912 60.8715 181.123 60.694 181.302 60.4645L181.986 61.1261C181.86 61.3089 181.697 61.4846 181.496 61.6532C181.295 61.8181 181.05 61.9526 180.759 62.0566C180.472 62.1606 180.139 62.2126 179.759 62.2126ZM186.766 62.2126C186.336 62.2126 185.947 62.1426 185.599 62.0028C185.255 61.8594 184.961 61.6603 184.717 61.4058C184.477 61.1512 184.292 60.8518 184.163 60.5075C184.034 60.1633 183.969 59.7922 183.969 59.3942V59.179C183.969 58.7236 184.035 58.3113 184.168 57.9419C184.301 57.5726 184.485 57.257 184.722 56.9953C184.959 56.7299 185.239 56.5273 185.561 56.3875C185.884 56.2477 186.234 56.1777 186.61 56.1777C187.026 56.1777 187.39 56.2477 187.702 56.3875C188.014 56.5273 188.272 56.7246 188.476 56.9791C188.684 57.2301 188.839 57.5296 188.939 57.8774C189.043 58.2252 189.095 58.6089 189.095 59.0284V59.5824H184.598V58.6519H187.815V58.5497C187.808 58.3166 187.761 58.0979 187.675 57.8935C187.593 57.6891 187.465 57.5242 187.293 57.3987C187.121 57.2732 186.892 57.2104 186.605 57.2104C186.39 57.2104 186.198 57.257 186.029 57.3503C185.864 57.4399 185.726 57.5708 185.615 57.7429C185.504 57.915 185.418 58.123 185.357 58.3668C185.299 58.6071 185.271 58.8778 185.271 59.179V59.3942C185.271 59.6487 185.305 59.8854 185.373 60.1041C185.445 60.3193 185.549 60.5075 185.685 60.6689C185.821 60.8302 185.986 60.9575 186.18 61.0508C186.373 61.1404 186.594 61.1852 186.841 61.1852C187.153 61.1852 187.431 61.1225 187.675 60.997C187.919 60.8715 188.13 60.694 188.31 60.4645L188.993 61.1261C188.867 61.3089 188.704 61.4846 188.503 61.6532C188.303 61.8181 188.057 61.9526 187.766 62.0566C187.48 62.1606 187.146 62.2126 186.766 62.2126ZM194.758 60.9002V53.8434H196.059V62.105H194.881L194.758 60.9002ZM190.971 59.2597V59.1467C190.971 58.7057 191.023 58.3041 191.127 57.9419C191.231 57.5762 191.382 57.2624 191.579 57.0007C191.776 56.7353 192.016 56.5327 192.3 56.3929C192.583 56.2494 192.902 56.1777 193.257 56.1777C193.608 56.1777 193.917 56.2459 194.182 56.3821C194.447 56.5184 194.673 56.7138 194.86 56.9684C195.046 57.2194 195.195 57.5206 195.306 57.872C195.417 58.2198 195.496 58.6071 195.543 59.0338V59.3942C195.496 59.8101 195.417 60.1902 195.306 60.5344C195.195 60.8787 195.046 61.1763 194.86 61.4273C194.673 61.6783 194.446 61.8719 194.177 62.0082C193.911 62.1444 193.601 62.2126 193.246 62.2126C192.895 62.2126 192.577 62.139 192.294 61.992C192.015 61.845 191.776 61.6388 191.579 61.3735C191.382 61.1081 191.231 60.7962 191.127 60.4376C191.023 60.0754 190.971 59.6828 190.971 59.2597ZM192.267 59.1467V59.2597C192.267 59.525 192.291 59.7724 192.337 60.0019C192.387 60.2314 192.465 60.434 192.569 60.6097C192.672 60.7818 192.807 60.9181 192.972 61.0185C193.14 61.1153 193.341 61.1637 193.574 61.1637C193.868 61.1637 194.11 61.0992 194.3 60.9701C194.49 60.841 194.639 60.6671 194.747 60.4484C194.858 60.226 194.933 59.9786 194.973 59.7061V58.7326C194.951 58.521 194.906 58.3238 194.838 58.1409C194.774 57.9581 194.686 57.7985 194.575 57.6622C194.464 57.5224 194.326 57.4148 194.161 57.3395C193.999 57.2606 193.807 57.2212 193.585 57.2212C193.348 57.2212 193.148 57.2714 192.983 57.3718C192.818 57.4722 192.681 57.6102 192.574 57.7859C192.47 57.9616 192.393 58.166 192.343 58.3991C192.292 58.6322 192.267 58.8814 192.267 59.1467Z" fill="white"/>
<rect x="126.611" y="89.5181" width="10.1893" height="10.1893" rx="3.44232" stroke="white" stroke-width="0.826158"/>
<path d="M134.32 92.694C134.366 92.6495 134.403 92.5964 134.428 92.5376C134.454 92.4788 134.467 92.4156 134.468 92.3516C134.468 92.2876 134.456 92.2242 134.432 92.1649C134.408 92.1057 134.372 92.0519 134.327 92.0066C134.281 91.9613 134.228 91.9255 134.169 91.9013C134.109 91.877 134.046 91.8648 133.982 91.8653C133.918 91.8659 133.855 91.8791 133.796 91.9043C133.737 91.9296 133.684 91.9663 133.639 92.0123L131.708 93.943L129.777 92.0123C129.733 91.9649 129.68 91.9269 129.621 91.9006C129.562 91.8743 129.498 91.8601 129.433 91.859C129.368 91.8578 129.304 91.8697 129.244 91.894C129.184 91.9182 129.13 91.9543 129.084 92C129.038 92.0458 129.002 92.1003 128.978 92.1603C128.954 92.2203 128.942 92.2846 128.943 92.3493C128.944 92.414 128.958 92.4778 128.984 92.5369C129.011 92.596 129.049 92.6492 129.096 92.6933L131.026 94.6248L129.095 96.5556C129.01 96.6469 128.963 96.7677 128.966 96.8926C128.968 97.0174 129.018 97.1365 129.107 97.2248C129.195 97.3131 129.314 97.3637 129.439 97.3659C129.564 97.3681 129.685 97.3217 129.776 97.2366L131.708 95.3058L133.639 97.2373C133.73 97.3224 133.851 97.3687 133.976 97.3665C134.101 97.3643 134.22 97.3138 134.308 97.2255C134.396 97.1372 134.447 97.0181 134.449 96.8932C134.451 96.7684 134.405 96.6475 134.32 96.5562L132.39 94.6248L134.32 92.694Z" fill="white"/>
<rect x="198.211" y="89.5181" width="10.1893" height="10.1893" rx="3.44232" stroke="white" stroke-width="0.826158"/>
<path d="M200.607 94.6126L202.92 96.5403L206.004 92.6849" stroke="white" stroke-width="1.10154" stroke-linecap="round"/>
</g>
<defs>
<filter id="filter0_dd_3386_14189" x="-1.03087" y="0.389171" width="335.8" height="139.409" filterUnits="userSpaceOnUse" color-interpolation-filters="sRGB">
<feFlood flood-opacity="0" result="BackgroundImageFix"/>
<feColorMatrix in="SourceAlpha" type="matrix" values="0 0 0 0 0 0 0 0 0 0 0 0 0 0 0 0 0 0 127 0" result="hardAlpha"/>
<feOffset dx="2.75386" dy="2.20309"/>
<feGaussianBlur stdDeviation="5.50772"/>
<feComposite in2="hardAlpha" operator="out"/>
<feColorMatrix type="matrix" values="0 0 0 0 0 0 0 0 0 0 0 0 0 0 0 0 0 0 0.41 0"/>
<feBlend mode="normal" in2="BackgroundImageFix" result="effect1_dropShadow_3386_14189"/>
<feColorMatrix in="SourceAlpha" type="matrix" values="0 0 0 0 0 0 0 0 0 0 0 0 0 0 0 0 0 0 127 0" result="hardAlpha"/>
<feOffset dx="-5.50772" dy="-5.50772"/>
<feGaussianBlur stdDeviation="8.26158"/>
<feComposite in2="hardAlpha" operator="out"/>
<feColorMatrix type="matrix" values="0 0 0 0 0.0916667 0 0 0 0 0.0758333 0 0 0 0 0.0626389 0 0 0 1 0"/>
<feBlend mode="normal" in2="effect1_dropShadow_3386_14189" result="effect2_dropShadow_3386_14189"/>
<feBlend mode="normal" in="SourceGraphic" in2="effect2_dropShadow_3386_14189" result="shape"/>
</filter>
</defs>
</svg>
