<svg width="20" height="16" viewBox="0 0 21 16" fill="none" xmlns="http://www.w3.org/2000/svg">
<path d="M17.1068 16L14.1859 13.079C12.9256 13.6535 11.5548 13.9416 10.17 13.9259C8.7426 13.9433 7.32999 13.6352 6.03923 13.0251C5.03889 12.537 4.14062 11.863 3.39244 11.0389C2.5982 10.1876 1.97397 9.19228 1.55335 8.10662L1.46631 7.83332L1.5577 7.55829C2.18681 5.95358 3.24557 4.55304 4.61792 3.5102L2.33668 1.22896L3.56651 0L18.3358 14.7693L17.1086 16H17.1068V16ZM5.84949 4.74264C4.73709 5.52242 3.85865 6.59105 3.30888 7.83332C3.885 9.16253 4.84708 10.288 6.07044 11.064C7.2938 11.8399 8.72202 12.2305 10.17 12.1852C11.0837 12.1927 11.9922 12.0455 12.8568 11.75L11.2902 10.1833C10.942 10.3539 10.5591 10.4436 10.17 10.4444C9.47883 10.4401 8.8172 10.1636 8.32846 9.67487C7.83972 9.18612 7.56323 8.52449 7.55889 7.83332C7.55889 7.44427 7.64854 7.06044 7.82001 6.71055L5.84949 4.74264ZM17.0041 10.9754L15.7926 9.76467C16.3023 9.18842 16.7201 8.53697 17.0311 7.83332C16.4558 6.50354 15.4939 5.37749 14.2703 4.60142C13.0468 3.82536 11.6182 3.43515 10.17 3.48148C9.95502 3.48148 9.73917 3.48931 9.53028 3.50411L7.99408 1.96616C8.70952 1.81298 9.43889 1.73726 10.17 1.74074C11.5974 1.72333 13.01 2.03144 14.3008 2.64157C15.3017 3.12898 16.1991 3.80351 16.9476 4.62775C17.7414 5.47807 18.3656 6.47213 18.7867 7.55655L18.8737 7.83332L18.7823 8.10836C18.3748 9.16855 17.772 10.1428 17.005 10.9806L17.0041 10.9754V10.9754Z" fill="#8B8682"/>
</svg>
