<svg width="13" height="12" viewBox="0 0 13 12" fill="none" xmlns="http://www.w3.org/2000/svg">
<path d="M6.5 0C5.31331 0 4.15328 0.351894 3.16658 1.01118C2.17989 1.67047 1.41085 2.60754 0.956725 3.7039C0.5026 4.80026 0.38378 6.00665 0.615291 7.17054C0.846802 8.33443 1.41825 9.40352 2.25736 10.2426C3.09648 11.0818 4.16557 11.6532 5.32946 11.8847C6.49335 12.1162 7.69974 11.9974 8.7961 11.5433C9.89246 11.0891 10.8295 10.3201 11.4888 9.33342C12.1481 8.34672 12.5 7.18669 12.5 6C12.4985 4.40915 11.8659 2.88388 10.741 1.75898C9.61612 0.634084 8.09085 0.00147096 6.5 0ZM6.5 10.6667C5.57702 10.6667 4.67477 10.393 3.90734 9.88019C3.13991 9.36741 2.54177 8.63858 2.18856 7.78585C1.83536 6.93313 1.74294 5.99482 1.923 5.08958C2.10307 4.18433 2.54753 3.35281 3.20017 2.70017C3.85282 2.04752 4.68434 1.60307 5.58958 1.423C6.49482 1.24294 7.43314 1.33535 8.28586 1.68856C9.13858 2.04177 9.86741 2.63991 10.3802 3.40734C10.893 4.17477 11.1667 5.07702 11.1667 6C11.1652 7.23722 10.6731 8.42336 9.79821 9.29821C8.92336 10.1731 7.73723 10.6652 6.5 10.6667ZM7.61111 8.66667C7.61111 8.84348 7.54087 9.01305 7.41585 9.13807C7.29083 9.26309 7.12126 9.33333 6.94445 9.33333H6.5C6.32319 9.33333 6.15362 9.26309 6.0286 9.13807C5.90357 9.01305 5.83333 8.84348 5.83333 8.66667V6.40555C5.70302 6.36035 5.59011 6.27553 5.51042 6.16295C5.43072 6.05038 5.38823 5.9157 5.38889 5.77778C5.38889 5.60097 5.45913 5.4314 5.58415 5.30637C5.70918 5.18135 5.87875 5.11111 6.05556 5.11111H6.5C6.67681 5.11111 6.84638 5.18135 6.97141 5.30637C7.09643 5.4314 7.16667 5.60097 7.16667 5.77778V8.03889C7.29698 8.08409 7.40989 8.16892 7.48959 8.28149C7.56928 8.39406 7.61177 8.52874 7.61111 8.66667ZM5.5 3.55555C5.5 3.37975 5.55213 3.20789 5.64981 3.06171C5.74748 2.91554 5.8863 2.80161 6.04873 2.73433C6.21115 2.66705 6.38988 2.64945 6.5623 2.68375C6.73473 2.71804 6.89312 2.8027 7.01743 2.92702C7.14174 3.05133 7.2264 3.20971 7.2607 3.38214C7.295 3.55457 7.27739 3.73329 7.21012 3.89572C7.14284 4.05814 7.02891 4.19697 6.88273 4.29464C6.73655 4.39231 6.5647 4.44444 6.38889 4.44444C6.15314 4.44444 5.92705 4.35079 5.76035 4.18409C5.59365 4.0174 5.5 3.7913 5.5 3.55555Z" fill="#8B8682"/>
</svg>
