<svg width="20" height="18" viewBox="0 0 23 20" fill="none" xmlns="http://www.w3.org/2000/svg">
<path d="M21.0998 4.80798V2.29998C21.0998 1.08998 20.1098 0.0999756 18.8998 0.0999756H3.4998C2.91633 0.0999756 2.35675 0.331761 1.94417 0.744341C1.53159 1.15692 1.2998 1.7165 1.2998 2.29998V17.7C1.2998 18.2835 1.53159 18.843 1.94417 19.2556C2.35675 19.6682 2.91633 19.9 3.4998 19.9H18.8998C20.1098 19.9 21.0998 18.91 21.0998 17.7V15.192C21.4323 15 21.7088 14.7244 21.9018 14.3925C22.0947 14.0605 22.1975 13.6839 22.1998 13.3V6.69998C22.1998 5.88598 21.7488 5.18198 21.0998 4.80798ZM19.9998 6.69998V13.3H12.2998V6.69998H19.9998ZM3.4998 17.7V2.29998H18.8998V4.49998H12.2998C11.0898 4.49998 10.0998 5.48998 10.0998 6.69998V13.3C10.0998 14.51 11.0898 15.5 12.2998 15.5H18.8998V17.7H3.4998Z" fill="white"/>
<path d="M15.8502 11.65C16.7615 11.65 17.5002 10.9112 17.5002 9.99998C17.5002 9.08871 16.7615 8.34998 15.8502 8.34998C14.9389 8.34998 14.2002 9.08871 14.2002 9.99998C14.2002 10.9112 14.9389 11.65 15.8502 11.65Z" fill="white"/>
</svg>