<svg width="25" height="20" viewBox="0 0 25 20" fill="none" xmlns="http://www.w3.org/2000/svg">
<path d="M5.1181 5.33446C9.19474 1.34424 15.8053 1.34424 19.8819 5.33446L20.3727 5.8145C20.4211 5.86139 20.4596 5.91753 20.4859 5.97958C20.5122 6.04163 20.5257 6.10833 20.5257 6.17571C20.5257 6.2431 20.5122 6.30979 20.4859 6.37184C20.4596 6.43389 20.4211 6.49003 20.3727 6.53692L18.6943 8.1796C18.6448 8.22757 18.5786 8.25439 18.5096 8.25439C18.4407 8.25439 18.3745 8.22757 18.325 8.1796L17.6498 7.51861C14.806 4.73559 10.1947 4.73559 7.35019 7.51861L6.62709 8.22618C6.57759 8.27415 6.51137 8.30098 6.44243 8.30098C6.3735 8.30098 6.30728 8.27415 6.25778 8.22618L4.57932 6.58351C4.53093 6.53662 4.49246 6.48048 4.46618 6.41843C4.43991 6.35638 4.42637 6.28968 4.42637 6.2223C4.42637 6.15491 4.43991 6.08822 4.46618 6.02617C4.49246 5.96412 4.53093 5.90798 4.57932 5.86109L5.1181 5.33446ZM23.3536 8.7312L24.847 10.1936C24.8954 10.2405 24.9339 10.2966 24.9602 10.3587C24.9865 10.4207 25 10.4874 25 10.5548C25 10.6222 24.9865 10.6889 24.9602 10.751C24.9339 10.813 24.8954 10.8691 24.847 10.916L18.1116 17.5083C18.0127 17.6044 17.8802 17.6582 17.7423 17.6582C17.6044 17.6582 17.4719 17.6044 17.373 17.5083L12.5928 12.8294C12.5681 12.8053 12.5349 12.7917 12.5003 12.7917C12.4658 12.7917 12.4326 12.8053 12.4078 12.8294L7.62768 17.5083C7.52877 17.6044 7.39628 17.6582 7.25837 17.6582C7.12046 17.6582 6.98797 17.6044 6.88906 17.5083L0.152952 10.916C0.104562 10.8691 0.0660879 10.813 0.0398134 10.751C0.0135389 10.6889 0 10.6222 0 10.5548C0 10.4874 0.0135389 10.4207 0.0398134 10.3587C0.0660879 10.2966 0.104562 10.2405 0.152952 10.1936L1.64709 8.7312C1.74598 8.63531 1.87831 8.58167 2.01606 8.58167C2.15382 8.58167 2.28615 8.63531 2.38504 8.7312L7.1652 13.4101C7.18992 13.4343 7.22312 13.4478 7.25769 13.4478C7.29227 13.4478 7.32547 13.4343 7.35019 13.4101L12.1303 8.7312C12.2293 8.6351 12.3617 8.58135 12.4997 8.58135C12.6376 8.58135 12.7701 8.6351 12.869 8.7312L17.6498 13.4101C17.6745 13.4343 17.7077 13.4478 17.7423 13.4478C17.7769 13.4478 17.8101 13.4343 17.8348 13.4101L22.615 8.7312C22.7139 8.6351 22.8464 8.58135 22.9843 8.58135C23.1222 8.58135 23.2547 8.6351 23.3536 8.7312Z" fill="#CCC4BE"/>
</svg>
