<svg width="56" height="48" viewBox="0 0 56 48" fill="none" xmlns="http://www.w3.org/2000/svg">
<g clip-path="url(#clip0_3047_10401)">
<path d="M2.33398 9.33333V42.3333C2.33398 43.3058 2.72029 44.2384 3.40793 44.9261C4.09556 45.6137 5.02819 46 6.00065 46H50.0006C50.9731 46 51.9057 45.6137 52.5934 44.9261C53.281 44.2384 53.6673 43.3058 53.6673 42.3333V13C53.6673 12.0275 53.281 11.0949 52.5934 10.4073C51.9057 9.71964 50.9731 9.33333 50.0006 9.33333H11.5006M2.33398 9.33333V5.66667C2.33398 4.69421 2.72029 3.76158 3.40793 3.07394C4.09556 2.38631 5.02819 2 6.00065 2H35.334C36.3064 2 37.2391 2.38631 37.9267 3.07394C38.6143 3.76158 39.0006 4.69421 39.0006 5.66667V9.33333H11.5006M2.33398 9.33333H11.5006M33.5006 31.3333H44.5006" stroke="#8B8682" stroke-width="3"/>
</g>
<defs>
<clipPath id="clip0_3047_10401">
<rect width="56" height="48" fill="white"/>
</clipPath>
</defs>
</svg>
