<svg width="32" height="32" viewBox="0 0 32 32" fill="none" xmlns="http://www.w3.org/2000/svg">
<rect x="0.8" y="0.8" width="30.4" height="30.4" rx="4.2" fill="#3A3531"/>
<g clip-path="url(#clip0_508_159876)">
<path d="M10.0945 12.2837C13.356 9.09034 18.644 9.09034 21.9056 12.2837L22.2982 12.668C22.3369 12.7055 22.3677 12.7504 22.3887 12.8001C22.4097 12.8498 22.4205 12.9031 22.4205 12.9571C22.4205 13.011 22.4097 13.0644 22.3887 13.114C22.3677 13.1637 22.3369 13.2086 22.2982 13.2462L20.9554 14.5609C20.9159 14.5993 20.8629 14.6207 20.8078 14.6207C20.7527 14.6207 20.6997 14.5993 20.6601 14.5609L20.1199 14.032C17.8446 11.8042 14.1555 11.8042 11.8802 14.032L11.3017 14.5984C11.2622 14.6368 11.2092 14.6582 11.1541 14.6582C11.099 14.6582 11.046 14.6368 11.0065 14.5984L9.66369 13.2837C9.62499 13.2461 9.59422 13.2012 9.57321 13.1515C9.55219 13.1019 9.54137 13.0485 9.54137 12.9946C9.54137 12.9406 9.55219 12.8873 9.57321 12.8376C9.59422 12.7879 9.62499 12.743 9.66369 12.7055L10.0945 12.2837ZM24.6826 15.0025L25.8776 16.1727C25.9163 16.2102 25.9471 16.2551 25.9681 16.3048C25.9892 16.3544 26 16.4078 26 16.4618C26 16.5157 25.9892 16.5691 25.9681 16.6187C25.9471 16.6684 25.9163 16.7133 25.8776 16.7509L20.489 22.0269C20.4099 22.1037 20.304 22.1467 20.1938 22.1467C20.0835 22.1467 19.9776 22.1037 19.8985 22.0269L16.0739 18.2824C16.0542 18.2632 16.0277 18.2524 16.0001 18.2524C15.9725 18.2524 15.9461 18.2632 15.9263 18.2824L12.1017 22.0268C12.0226 22.1036 11.9167 22.1466 11.8065 22.1466C11.6962 22.1466 11.5903 22.1036 11.5112 22.0268L6.12233 16.751C6.08362 16.7134 6.05285 16.6685 6.03184 16.6188C6.01083 16.5692 6 16.5158 6 16.4619C6 16.408 6.01083 16.3546 6.03184 16.3049C6.05285 16.2553 6.08362 16.2103 6.12233 16.1728L7.31746 15.0027C7.39656 14.9259 7.50248 14.8829 7.61273 14.8829C7.72299 14.8829 7.8289 14.9259 7.90801 15.0027L11.7327 18.7469C11.7525 18.7662 11.779 18.7769 11.8065 18.7769C11.8341 18.7769 11.8606 18.7662 11.8803 18.7469L15.7048 15.0025C15.7839 14.9257 15.8898 14.8828 16 14.8828C16.1103 14.8828 16.2162 14.9257 16.2953 15.0025L20.1199 18.7471C20.1397 18.7663 20.1661 18.777 20.1937 18.777C20.2213 18.777 20.2477 18.7663 20.2675 18.7471L24.0921 15.0027C24.1712 14.9259 24.2771 14.8829 24.3873 14.8829C24.4976 14.8829 24.6035 14.9257 24.6826 15.0025Z" fill="url(#paint0_linear_508_159876)"/>
</g>
<rect x="0.8" y="0.8" width="30.4" height="30.4" rx="4.2" stroke="#49433E" stroke-width="0.4"/>
<defs>
<linearGradient id="paint0_linear_508_159876" x1="6" y1="15.9997" x2="26" y2="15.9997" gradientUnits="userSpaceOnUse">
<stop stop-color="#5B9CF6"/>
<stop offset="1" stop-color="#0070FF"/>
</linearGradient>
<clipPath id="clip0_508_159876">
<rect width="20" height="12.361" fill="white" transform="translate(6 9.81934)"/>
</clipPath>
</defs>
</svg>
