<svg width="15" height="14" viewBox="0 0 15 14" fill="none" xmlns="http://www.w3.org/2000/svg">
<path d="M3.40918 4.27273H6.13645" stroke="#8B8682" stroke-width="1.3" stroke-linecap="round" stroke-linejoin="round"/>
<path d="M14.3181 5.97727C14.3181 5.92477 14.3181 5.61386 14.3168 5.59205C14.2922 5.25045 13.9997 4.97841 13.6315 4.95591C13.6084 4.95454 13.5804 4.95455 13.5231 4.95455H11.749C10.5313 4.95455 9.54541 5.87023 9.54541 7C9.54541 8.12977 10.532 9.04545 11.7477 9.04545H13.5225C13.5797 9.04545 13.6077 9.04545 13.6315 9.04409C13.9997 9.02159 14.2929 8.74954 14.3168 8.40795C14.3181 8.38613 14.3181 8.07523 14.3181 8.02273" stroke="#8B8682" stroke-width="1.3" stroke-linecap="round"/>
<path d="M11.591 7.68182C11.9676 7.68182 12.2728 7.37656 12.2728 7C12.2728 6.62344 11.9676 6.31818 11.591 6.31818C11.2144 6.31818 10.9092 6.62344 10.9092 7C10.9092 7.37656 11.2144 7.68182 11.591 7.68182Z" fill="#8B8682"/>
<path d="M8.18189 1.54545C10.753 1.54545 12.0389 1.54545 12.8373 2.34455C13.3889 2.89545 13.5601 3.67818 13.6126 4.95455M6.13643 12.4545H8.18189C10.753 12.4545 12.0389 12.4545 12.8373 11.6555C13.3889 11.1045 13.5601 10.3218 13.6126 9.04545M5.45461 1.54545C3.33143 1.55227 2.20575 1.61909 1.48098 2.34455C0.681885 3.14295 0.681885 4.42886 0.681885 7C0.681885 9.57114 0.681885 10.857 1.48098 11.6555C1.9262 12.1014 2.52279 12.2984 3.40916 12.385" stroke="#8B8682" stroke-width="1.3" stroke-linecap="round"/>
</svg>
