<svg width="22" height="20" viewBox="0 0 22 20" fill="none" xmlns="http://www.w3.org/2000/svg">
<path d="M20.1 4.80798V2.29998C20.1 1.08998 19.1101 0.0999756 17.9 0.0999756H2.50005C1.91657 0.0999756 1.35699 0.331761 0.944414 0.744341C0.531834 1.15692 0.300049 1.7165 0.300049 2.29998V17.7C0.300049 18.2835 0.531834 18.843 0.944414 19.2556C1.35699 19.6682 1.91657 19.9 2.50005 19.9H17.9C19.1101 19.9 20.1 18.91 20.1 17.7V15.192C20.4326 15 20.709 14.7244 20.902 14.3925C21.095 14.0605 21.1977 13.6839 21.2 13.3V6.69998C21.2 5.88598 20.7491 5.18198 20.1 4.80798ZM19 6.69998V13.3H11.3V6.69998H19ZM2.50005 17.7V2.29998H17.9V4.49998H11.3C10.09 4.49998 9.10005 5.48998 9.10005 6.69998V13.3C9.10005 14.51 10.09 15.5 11.3 15.5H17.9V17.7H2.50005Z" fill="#8B8682"/>
</svg>
