<svg width="25" height="20" viewBox="0 0 25 20" fill="none" xmlns="http://www.w3.org/2000/svg">
<path d="M22.1 4.80761V2.29961C22.1 1.08961 21.1101 0.0996094 19.9 0.0996094H4.50005C3.91657 0.0996094 3.35699 0.331394 2.94441 0.743974C2.53183 1.15655 2.30005 1.71613 2.30005 2.29961V17.6996C2.30005 18.2831 2.53183 18.8427 2.94441 19.2552C3.35699 19.6678 3.91657 19.8996 4.50005 19.8996H19.9C21.1101 19.8996 22.1 18.9096 22.1 17.6996V15.1916C22.4326 14.9996 22.709 14.724 22.902 14.3921C23.095 14.0602 23.1977 13.6835 23.2 13.2996V6.69961C23.2 5.88561 22.7491 5.18161 22.1 4.80761ZM21 6.69961V13.2996H13.3V6.69961H21ZM4.50005 17.6996V2.29961H19.9V4.49961H13.3C12.09 4.49961 11.1 5.48961 11.1 6.69961V13.2996C11.1 14.5096 12.09 15.4996 13.3 15.4996H19.9V17.6996H4.50005Z" fill="#CCC4BE"/>
<path d="M16.8501 11.6496C17.7613 11.6496 18.5001 10.9109 18.5001 9.99961C18.5001 9.08834 17.7613 8.34961 16.8501 8.34961C15.9388 8.34961 15.2001 9.08834 15.2001 9.99961C15.2001 10.9109 15.9388 11.6496 16.8501 11.6496Z" fill="#CCC4BE"/>
</svg>
