<svg width="20" height="17" viewBox="0 0 20 17" fill="none" xmlns="http://www.w3.org/2000/svg">
<g id="solar:wallet-broken">
<g id="Group">
<path id="Vector" d="M4.66797 4.94434H8.22352" stroke="url(#paint0_linear_8238_89836)" stroke-width="1.3" stroke-linecap="round" stroke-linejoin="round"/>
<path id="Vector_2" d="M18.8902 7.16634C18.8902 7.0979 18.8902 6.69256 18.8884 6.66412C18.8564 6.21879 18.4751 5.86412 17.9951 5.83479C17.9649 5.83301 17.9284 5.83301 17.8537 5.83301H15.5409C13.9533 5.83301 12.668 7.02679 12.668 8.49967C12.668 9.97256 13.9542 11.1663 15.5391 11.1663H17.8529C17.9275 11.1663 17.964 11.1663 17.9951 11.1646C18.4751 11.1352 18.8573 10.7806 18.8884 10.3352C18.8902 10.3068 18.8902 9.90145 18.8902 9.83301" stroke="url(#paint1_linear_8238_89836)" stroke-width="1.3" stroke-linecap="round"/>
<path id="Vector_3" d="M15.3342 9.38911C15.8251 9.38911 16.2231 8.99114 16.2231 8.50022C16.2231 8.0093 15.8251 7.61133 15.3342 7.61133C14.8433 7.61133 14.4453 8.0093 14.4453 8.50022C14.4453 8.99114 14.8433 9.38911 15.3342 9.38911Z" fill="url(#paint2_linear_8238_89836)"/>
<path id="Vector_4" d="M10.8911 1.38867C14.2431 1.38867 15.9195 1.38867 16.9604 2.43045C17.6795 3.14867 17.9026 4.16912 17.9711 5.83312M8.22439 15.6109H10.8911C14.2431 15.6109 15.9195 15.6109 16.9604 14.5691C17.6795 13.8509 17.9026 12.8304 17.9711 11.1664M7.3355 1.38867C4.5675 1.39756 3.09995 1.48467 2.15506 2.43045C1.11328 3.47134 1.11328 5.14778 1.11328 8.49978C1.11328 11.8518 1.11328 13.5282 2.15506 14.5691C2.7355 15.1504 3.51328 15.4073 4.66884 15.5202" stroke="url(#paint3_linear_8238_89836)" stroke-width="1.3" stroke-linecap="round"/>
</g>
</g>
<defs>
<linearGradient id="paint0_linear_8238_89836" x1="4.67475" y1="5.44434" x2="8.23031" y2="5.44434" gradientUnits="userSpaceOnUse">
<stop stop-color="#E9B873"/>
<stop offset="0.369792" stop-color="#FEDD8F"/>
<stop offset="1" stop-color="#B78D51"/>
</linearGradient>
<linearGradient id="paint1_linear_8238_89836" x1="12.6798" y1="8.49967" x2="18.9021" y2="8.49967" gradientUnits="userSpaceOnUse">
<stop stop-color="#E9B873"/>
<stop offset="0.369792" stop-color="#FEDD8F"/>
<stop offset="1" stop-color="#B78D51"/>
</linearGradient>
<linearGradient id="paint2_linear_8238_89836" x1="14.4487" y1="8.50022" x2="16.2265" y2="8.50022" gradientUnits="userSpaceOnUse">
<stop stop-color="#E9B873"/>
<stop offset="0.369792" stop-color="#FEDD8F"/>
<stop offset="1" stop-color="#B78D51"/>
</linearGradient>
<linearGradient id="paint3_linear_8238_89836" x1="1.14545" y1="8.49978" x2="18.0032" y2="8.49978" gradientUnits="userSpaceOnUse">
<stop stop-color="#E9B873"/>
<stop offset="0.369792" stop-color="#FEDD8F"/>
<stop offset="1" stop-color="#B78D51"/>
</linearGradient>
</defs>
</svg>
