<svg width="56" height="49" viewBox="0 0 56 49" fill="none" xmlns="http://www.w3.org/2000/svg">
<path d="M11.4711 14.0875C20.5948 5.1764 35.4053 5.1764 44.5289 14.0875L45.6273 15.1682C46.088 15.6111 46.088 16.3374 45.6273 16.7803L41.8716 20.4475C41.6413 20.6778 41.2692 20.6778 41.0389 20.4475L39.5331 18.9771C33.1553 12.7588 22.8447 12.7588 16.4669 18.9771L14.8548 20.5538C14.6245 20.7841 14.2525 20.7841 14.0221 20.5538L10.2664 16.8866C9.80576 16.4437 9.80576 15.7174 10.2664 15.2745L11.4711 14.0875ZM52.3062 21.6699L55.6545 24.9296C56.1152 25.3725 56.1152 26.0989 55.6545 26.5418L40.5783 41.2637C40.1177 41.7066 39.3736 41.7066 38.9307 41.2637L28.2303 30.8113C28.124 30.705 27.9291 30.705 27.8228 30.8113L17.1224 41.2637C16.6618 41.7066 15.9177 41.7066 15.4748 41.2637L0.34546 26.5418C-0.115153 26.0989 -0.115153 25.3725 0.34546 24.9296L3.69377 21.6699C4.15438 21.227 4.89845 21.227 5.34135 21.6699L16.0418 32.1223C16.1481 32.2286 16.3429 32.2286 16.4492 32.1223L27.1496 21.6699C27.6103 21.227 28.3543 21.227 28.7972 21.6699L39.4976 32.1223C39.6039 32.2286 39.7988 32.2286 39.9051 32.1223L50.6055 21.6699C51.1016 21.227 51.8456 21.227 52.3062 21.6699Z" fill="url(#paint0_radial_3406_2837)"/>
<defs>
<radialGradient id="paint0_radial_3406_2837" cx="0" cy="0" r="1" gradientUnits="userSpaceOnUse" gradientTransform="translate(0.000173569 24.5006) scale(56 34.1917)">
<stop stop-color="#5D9DF6"/>
<stop offset="1" stop-color="#006FFF"/>
</radialGradient>
</defs>
</svg>
