<svg width="32" height="28" viewBox="0 0 32 28" fill="none" xmlns="http://www.w3.org/2000/svg">
<g id="XRPLedger_DevPortal-white 1">
<g id="g989" opacity="0.9">
<path id="path985" opacity="0.9" d="M26.8884 1.95177H31.3352L22.0676 10.6375C20.4049 12.142 18.2425 12.9752 16.0001 12.9752C13.7577 12.9752 11.5953 12.142 9.93257 10.6375L0.665039 1.95177H5.11179L12.1352 8.51801C13.184 9.48058 14.5557 10.0147 15.9793 10.0147C17.4029 10.0147 18.7747 9.48058 19.8235 8.51801L26.8884 1.95177Z" fill="white"/>
<path id="path987" opacity="0.9" d="M5.0698 26.0557H0.623047L9.93214 17.3284C11.5857 15.8053 13.7516 14.9599 15.9997 14.9599C18.2478 14.9599 20.4137 15.8053 22.0672 17.3284L31.3763 26.0557H26.9295L19.8646 19.4063C18.8158 18.4437 17.444 17.9097 16.0205 17.9097C14.5969 17.9097 13.2251 18.4437 12.1763 19.4063L5.0698 26.0557Z" fill="white"/>
</g>
</g>
</svg>
