<svg width="75" height="60" viewBox="0 0 75 60" fill="none" xmlns="http://www.w3.org/2000/svg">
<g clip-path="url(#clip0_2_2958)">
<rect x="24.6428" y="16.0714" width="30" height="28.9286" fill="black"/>
<path d="M38.415 0C40.4175 0.01125 45.4275 0.0599999 50.7525 0.27375L52.6425 0.356249C58.0013 0.6075 63.3563 1.0425 66.015 1.78125C69.5588 2.77875 72.3413 5.68125 73.2825 9.36376C74.7825 15.2138 74.97 26.6213 74.9925 29.385L74.9963 29.955V30.6075C74.97 33.3713 74.7825 44.7825 73.2825 50.6288C72.33 54.3225 69.5438 57.2288 66.015 58.2113C63.3563 58.95 58.0013 59.385 52.6425 59.6363L50.7525 59.7225C45.4275 59.9325 40.4175 59.985 38.415 59.9925L37.5338 59.9963H36.5775C32.34 59.97 14.6175 59.7788 8.97751 58.2113C5.4375 57.2138 2.65125 54.3113 1.71 50.6288C0.21 44.7788 0.0225 33.3713 0 30.6075V29.385C0.0225 26.6213 0.21 15.21 1.71 9.36376C2.6625 5.67 5.44875 2.76375 8.98125 1.785C14.6175 0.21375 32.3438 0.0225 36.5813 0H38.415ZM33.004 18.6295C31.6707 17.8518 29.9963 18.8135 29.9963 20.3571V39.6429C29.9963 41.1865 31.6707 42.1483 33.004 41.3705L49.5347 31.7276C50.8578 30.9558 50.8578 29.0442 49.5347 28.2725L33.004 18.6295Z" fill="#E51D01"/>
</g>
<defs>
<clipPath id="clip0_2_2958">
<rect width="75" height="60" fill="white"/>
</clipPath>
</defs>
</svg>
