<svg width="25" height="20" viewBox="0 0 25 20" fill="none" xmlns="http://www.w3.org/2000/svg">
<path d="M19.7003 7.30005H11.6003C10.6062 7.30005 9.80029 8.10594 9.80029 9.10005V17.2C9.80029 18.1942 10.6062 19 11.6003 19H19.7003C20.6944 19 21.5003 18.1942 21.5003 17.2V9.10005C21.5003 8.10594 20.6944 7.30005 19.7003 7.30005Z" stroke="white" stroke-width="2" stroke-linecap="round" stroke-linejoin="round"/>
<path d="M6.2 12.7H5.3C4.82261 12.7 4.36477 12.5104 4.02721 12.1728C3.68964 11.8352 3.5 11.3774 3.5 10.9V2.8C3.5 2.32261 3.68964 1.86477 4.02721 1.52721C4.36477 1.18964 4.82261 1 5.3 1H13.4C13.8774 1 14.3352 1.18964 14.6728 1.52721C15.0104 1.86477 15.2 2.32261 15.2 2.8V3.7" stroke="white" stroke-width="2" stroke-linecap="round" stroke-linejoin="round"/>
</svg>
